<svg width="128" height="32" viewBox="0 0 128 32" fill="none" xmlns="http://www.w3.org/2000/svg">
<path fill-rule="evenodd" clip-rule="evenodd" d="M10.5409 31.4767C10.7925 31.81 11.1735 31.9985 11.6252 31.999C12.0417 31.9985 12.4267 31.8061 12.6782 31.4767C12.7137 31.4334 16.1499 26.9087 19.0233 22.0816C19.2043 21.7791 19.2555 21.4217 19.1689 21.08C19.0823 20.7383 18.8658 20.4516 18.5627 20.2709C17.933 19.9017 17.1221 20.1099 16.7482 20.7344C14.8903 23.8608 12.7884 26.8498 11.6076 28.4798C7.43533 22.7532 2.64901 14.9724 2.64901 11.5671C2.64901 6.64568 6.88427 2.64335 11.5958 2.64335C16.3073 2.64335 20.2277 6.31575 20.519 11.0015C20.5583 12.2466 20.2986 14.454 18.1219 15.2317C17.4449 15.4712 16.7442 15.4987 16.0318 15.3141C17.4685 14.5207 17.87 12.8593 17.87 11.9245C17.87 8.66845 14.9573 6.01725 11.5919 6.01725C8.22649 6.01725 5.49089 8.74701 5.49089 12.1052C5.49089 13.4681 6.33715 15.4752 8.08085 18.2403C9.30105 20.1727 10.4858 21.7281 10.537 21.7949C10.7889 22.1287 11.1746 22.3172 11.5919 22.3172C11.8871 22.3172 12.1626 22.223 12.3948 22.0462C12.9774 21.6063 13.0876 20.7776 12.6467 20.1963C10.8283 17.8122 8.13989 13.5938 8.13989 12.1052C8.13989 10.2081 9.59232 8.6606 11.5919 8.6606C13.5914 8.6606 15.221 10.1256 15.221 11.9285C15.221 11.9717 15.2131 13.0007 14.4298 13.095L14.4262 13.0954C14.1911 13.1233 13.573 13.1965 13.0561 12.3291C12.694 11.7242 11.954 11.4611 11.2927 11.7046C10.6315 11.9481 10.2339 12.6237 10.352 13.3189C10.5606 14.56 11.8949 16.1507 13.5206 17.1012C15.2643 18.1224 17.252 18.3463 19.0115 17.7179C20.8181 17.0698 22.1131 15.7383 22.7508 13.8609C22.9633 13.2364 23.0971 12.5569 23.1444 11.8735C23.1719 11.7713 23.1837 11.6692 23.1837 11.5671C23.1837 11.3904 23.1798 11.2097 23.1719 11.0369C23.1562 10.3574 23.0735 9.69358 22.9161 9.05729C22.9082 9.01016 22.8925 8.96696 22.8846 8.94732C21.6565 3.68026 17.0119 0 11.5919 0C5.19961 0 0 5.1885 0 11.5671C0 14.1672 1.79487 18.3306 5.34131 23.9472C7.86436 27.9496 10.4307 31.3353 10.5409 31.4767ZM30.0497 22.4272C29.6142 22.4268 29.3317 22.3129 29.2059 22.0816C29.076 21.8498 28.9855 21.5592 28.9304 21.2057C28.9167 21.1476 28.906 21.0865 28.8957 21.0276L28.891 21.0015C28.7139 20.2002 28.6195 19.3361 28.6037 18.4131L28.584 17.8829C28.584 16.3353 28.6982 14.7918 28.9304 13.256C29.08 11.8303 29.3319 10.4202 29.6861 9.03374C29.6943 8.98775 29.7043 8.94362 29.7136 8.90264L29.7136 8.90246L29.7136 8.90235L29.7137 8.90224L29.7137 8.90218L29.7137 8.90215L29.7137 8.90206L29.714 8.90063L29.7189 8.87912L29.7255 8.84913C29.7924 8.63311 29.8672 8.41316 29.9499 8.19713C30.0168 8.03217 30.1585 7.90648 30.3671 7.80829C30.5796 7.71402 30.8001 7.66689 31.0323 7.66689H31.1543C31.2645 7.66689 31.3669 7.67868 31.4613 7.70617C31.666 7.76116 31.7959 7.86328 31.851 8.01253C32.8468 8.02431 33.7836 8.25212 34.6693 8.68417C35.5943 9.2419 36.0705 10.051 36.0981 11.1115V11.2136C36.0981 11.8381 35.9328 12.4233 35.6061 12.9654C35.3345 13.3739 34.8464 13.8059 34.1458 14.2615C33.4451 14.7171 32.65 14.9921 31.7644 15.0863H30.8434C30.7764 15.9976 30.7174 16.9638 30.6702 17.9811C30.6229 19.0023 30.5993 19.6385 30.5993 19.8978C30.5993 20.3455 30.6269 20.7933 30.682 21.245L30.7213 21.6731C30.7213 21.8773 30.6741 22.0619 30.5796 22.223C30.5127 22.3055 30.4261 22.3604 30.3238 22.3879C30.2221 22.4153 30.132 22.4271 30.0497 22.4272ZM31.0756 14.4147C32.0557 14.4029 32.902 14.0769 33.6105 13.4367C34.3308 12.7022 34.7204 11.8067 34.7755 10.7462C34.7204 9.95675 34.3937 9.43043 33.7955 9.16728C33.1972 8.90412 32.528 8.77843 31.792 8.79022C31.6818 9.45793 31.5519 10.1846 31.4023 10.9701C31.1976 11.9481 31.0402 12.8397 30.9339 13.6409L30.8709 14.4147H31.0756ZM41.7622 22.7729H41.8606C41.9826 22.7454 42.0692 22.6904 42.1243 22.6079C42.1794 22.5254 42.2109 22.4312 42.2266 22.3212C42.2384 22.2937 42.2463 22.2701 42.2463 22.2583C42.262 22.2191 42.2699 22.1484 42.2778 22.0462C42.2896 21.9441 42.2896 21.8538 42.2896 21.7713L42.2699 20.8522C42.2699 19.7799 42.3368 18.7038 42.4746 17.6315L42.6399 16.5317C42.695 16.19 42.7619 15.8444 42.8446 15.4909C42.9391 15.0942 43.0217 14.6975 43.0886 14.2969C43.1555 13.8962 43.191 13.5074 43.191 13.1264C43.191 12.9379 43.1437 12.7926 43.0571 12.6983C42.9705 12.604 42.8288 12.5176 42.6399 12.4351C42.4746 12.3684 42.2975 12.333 42.1085 12.333C41.9865 12.333 41.8763 12.3448 41.7818 12.3723C41.4827 12.4823 41.2662 12.6786 41.1284 12.9654C41.0733 13.1186 41.0182 13.2953 40.9631 13.5074C40.908 13.7195 40.8529 14.0101 40.7978 14.3754C40.786 14.3754 40.7781 14.3676 40.7781 14.3558C40.6404 14.234 40.4475 14.1123 40.1956 13.9905C39.9437 13.8687 39.5737 13.8059 39.0817 13.8059C38.3181 13.8059 37.6686 14.0337 37.1293 14.4893C36.5901 14.9449 36.1807 15.5262 35.8934 16.2332C35.6061 16.9402 35.4644 17.6747 35.4644 18.4367C35.4644 19.1437 35.6021 19.8153 35.8737 20.4555C36.106 20.97 36.4523 21.3707 36.9168 21.6574C37.2159 21.8066 37.4915 21.8813 37.7355 21.8813C38.1842 21.8813 38.5503 21.7085 38.8298 21.3628C39.1092 21.0172 39.3139 20.644 39.4517 20.2513L40.3727 17.8239L40.3334 19.8428V20.2081C40.3334 20.8169 40.3963 21.4374 40.5183 22.0619C40.5735 22.2269 40.6876 22.3683 40.8647 22.4901C41.0419 22.6118 41.2308 22.6943 41.4355 22.7336C41.5575 22.7571 41.6677 22.7729 41.7622 22.7729ZM38.5345 20.6519C38.3732 20.9111 38.1803 21.0407 37.9638 21.0407V21.0368C37.6922 21.0368 37.4797 20.8718 37.3301 20.538C37.1805 20.2041 37.1057 19.8349 37.1057 19.4265C37.1057 18.9237 37.1608 18.4563 37.271 18.0203C37.4088 16.9873 37.8693 16.1075 38.6605 15.3888C38.7825 15.2552 38.9675 15.1217 39.2116 14.9921C39.4556 14.8625 39.6878 14.7996 39.9043 14.7996C40.1602 14.7996 40.3333 14.8782 40.4239 15.0353C40.5144 15.1885 40.5577 15.3299 40.5577 15.4516C40.5577 15.6048 40.5302 15.7305 40.4751 15.8405C40.3648 16.1429 40.2507 16.4453 40.1287 16.7595C39.5816 18.2403 39.0502 19.5364 38.5345 20.6519ZM45.9895 22.384C45.6471 22.384 45.344 22.2701 45.0685 22.0384C44.852 21.7399 44.7261 21.3982 44.7024 21.0172V20.9779C44.6749 20.8561 44.6631 20.7344 44.6631 20.6126C44.6355 20.2591 44.6237 19.8938 44.6237 19.5129C44.6237 18.6959 44.6631 17.8829 44.7457 17.0659V16.8813C44.7733 16.2686 44.8284 15.6441 44.911 15.0039C44.9166 14.9599 44.9229 14.9159 44.9293 14.8715L44.9294 14.8714L44.9294 14.8713L44.9294 14.8711L44.9294 14.8709C44.9367 14.8204 44.9441 14.7693 44.9504 14.7171C44.9622 14.4579 45.0055 14.2144 45.0724 13.9826C45.1393 13.7509 45.285 13.5545 45.5015 13.3896C45.7455 13.1853 46.025 13.0832 46.3399 13.0832C46.4501 13.0832 46.5642 13.1028 46.6862 13.146C46.8358 13.201 46.9381 13.2953 46.9933 13.4328C47.0484 13.5702 47.0759 13.7116 47.0759 13.8609L47.0366 14.2262C46.9263 14.8782 46.8476 15.4045 46.8004 15.8051C46.7786 15.9899 46.7526 16.2031 46.7232 16.4444C46.6889 16.7261 46.6499 17.0461 46.6075 17.4037C46.5918 17.5137 46.58 17.6668 46.5682 17.8632C46.5563 18.0596 46.5485 18.256 46.5485 18.4445C46.5485 18.6213 46.5406 18.7627 46.5288 18.8726C46.6508 18.5074 46.7532 18.2128 46.8358 17.9968C46.9185 17.7807 47.0129 17.4862 47.1231 17.1209C47.1783 16.9716 47.2255 16.8145 47.2648 16.6535C47.4695 15.9347 47.7451 15.2042 48.0914 14.4736C48.4378 13.7431 48.9259 13.2246 49.5517 12.9222C49.7013 12.8672 49.8587 12.8397 50.0201 12.8397C50.2642 12.8397 50.5043 12.9065 50.7365 13.0439C51.0238 13.2325 51.2246 13.472 51.3387 13.7588C51.4529 14.0455 51.5277 14.3519 51.5552 14.6779L51.5749 14.941C51.5749 15.106 51.5395 15.267 51.4726 15.432C51.4056 15.5419 51.3072 15.6166 51.1852 15.6559C51.0632 15.6951 50.9412 15.7187 50.8192 15.7187C50.709 15.7069 50.5948 15.6794 50.4728 15.648C50.3508 15.6166 50.2484 15.5498 50.1658 15.4555C50.0556 15.2906 49.9965 15.102 49.9808 14.886C49.967 14.8141 49.9563 14.7422 49.946 14.673L49.9414 14.6425V14.6032C49.9296 14.509 49.902 14.4108 49.8706 14.3086C49.8351 14.2065 49.78 14.1162 49.6974 14.0337C49.6423 13.9787 49.5872 13.9512 49.5321 13.9512C49.4769 13.9512 49.4218 13.9709 49.3667 14.0141C49.3116 14.0533 49.2644 14.1044 49.225 14.1555C48.9377 14.509 48.7212 14.9096 48.5716 15.3573L48.5684 15.3648C48.5571 15.3911 48.543 15.4237 48.5323 15.4595C48.4914 15.5676 48.4313 15.7183 48.3539 15.9125C48.3047 16.0358 48.2486 16.1767 48.1859 16.3353C48.0206 16.7438 47.8789 17.1091 47.7569 17.4351C47.6742 17.6943 47.6073 17.9025 47.5522 18.0675C47.5185 18.1852 47.479 18.303 47.4386 18.4232L47.4184 18.4838L47.3826 18.5904L47.3823 18.5913L47.3823 18.5914L47.3822 18.5915C47.3393 18.7193 47.2859 18.8783 47.2255 19.0651C47.1895 19.2159 47.1436 19.3635 47.0969 19.5137L47.0838 19.5561C46.9736 19.9213 46.8791 20.3023 46.7964 20.699V21.8184C46.7964 21.8852 46.7886 21.952 46.7768 22.0109C46.765 22.0737 46.7413 22.1169 46.7138 22.1444C46.5249 22.3094 46.2848 22.3879 45.9974 22.3879L45.9895 22.384ZM53.5823 22.1326C53.7122 22.329 53.9799 22.4272 54.3892 22.4272V22.4311C54.4955 22.4154 54.5939 22.3958 54.6844 22.3683C54.775 22.3408 54.8537 22.2858 54.9206 22.2033C55.0151 22.0502 55.0623 21.8891 55.0623 21.7124C55.0072 21.3707 54.9678 21.0879 54.9481 20.8561C54.9285 20.6244 54.9088 20.3337 54.897 19.9803C54.897 18.0753 54.9481 16.4453 55.0505 15.0863C55.1528 13.7273 55.3339 12.3762 55.5937 11.029C55.633 11.029 55.6685 11.0251 55.696 11.0094C56.1998 10.9701 56.6682 10.8994 57.1051 10.8051C57.542 10.7109 57.9278 10.5341 58.2702 10.2749C58.3647 10.1963 58.4119 10.106 58.4119 10.0117C58.4119 9.91747 58.3726 9.83499 58.2899 9.76822C58.2112 9.70145 58.1207 9.6661 58.0262 9.6661C57.9593 9.68181 57.8845 9.7093 57.8018 9.74858C57.5696 9.95282 57.2783 10.0903 56.9241 10.1649C56.5698 10.2435 56.1762 10.2788 55.7393 10.2788C55.7669 10.0471 55.8023 9.80749 55.8416 9.56398C55.8967 9.30867 55.9361 9.04945 55.9637 8.79022C55.9912 8.68024 56.003 8.58598 56.003 8.50349L55.9833 8.40137C55.9558 8.05966 55.6999 7.89077 55.2079 7.89077C54.9914 7.89077 54.7789 7.9379 54.5742 8.03217C54.3695 8.13036 54.2278 8.25605 54.1452 8.42101C54.0901 8.62525 54.0428 8.79414 54.0035 8.93161C53.9484 9.17513 53.8972 9.38723 53.85 9.57183C53.8027 9.75251 53.7437 10.0314 53.6768 10.3966C53.0352 10.4634 52.4408 10.5655 51.8977 10.703C51.8189 10.7148 51.752 10.758 51.7048 10.8248C51.6576 10.8915 51.6339 10.9662 51.6339 11.0486C51.6457 11.1861 51.693 11.2765 51.7756 11.3236C51.8583 11.3707 51.9528 11.3943 52.063 11.3943C52.4566 11.2882 52.8817 11.2058 53.3304 11.1508L53.3568 11.146L53.3953 11.1388C53.4448 11.1296 53.4979 11.1196 53.5548 11.1115C53.173 12.9339 52.984 15.0549 52.984 17.4744V18.5152C52.9958 19.4382 53.0824 20.3023 53.2477 21.1036C53.2537 21.137 53.2605 21.1714 53.2674 21.2058C53.2743 21.2401 53.2812 21.2745 53.2871 21.3078C53.354 21.6613 53.4524 21.9363 53.5823 22.1326ZM65.1151 12.4783C65.2647 12.5451 65.3592 12.6354 65.4025 12.7415C65.4418 12.8515 65.4655 12.9732 65.4655 13.1068V13.2914C65.3277 14.6504 65.2135 15.9622 65.1191 17.2269C65.0797 17.5804 65.0443 17.9536 65.0167 18.3463C64.9498 19.2026 64.9065 20.0667 64.8947 20.9347C64.8672 22.1719 64.7294 23.3934 64.4854 24.6032C64.2531 25.7736 63.832 26.8655 63.2179 27.8867C62.8637 28.4445 62.4425 28.9551 61.9505 29.4146C61.1751 30.1098 60.3209 30.4555 59.396 30.4555C59.1519 30.4555 58.9197 30.428 58.7032 30.373C58.3883 30.2905 58.0892 30.1609 57.8058 29.9841C57.5184 29.8074 57.3098 29.5639 57.1721 29.2497C57.1602 29.1947 57.1524 29.1475 57.1524 29.1083C57.1524 29.014 57.1839 28.9315 57.2429 28.8647C57.3059 28.798 57.3885 28.7626 57.4988 28.7626C57.609 28.7626 57.6837 28.7823 57.7231 28.8255C57.7625 28.8647 57.7979 28.9197 57.8255 28.9904C57.853 29.0454 57.8924 29.1004 57.9475 29.1554C58.0577 29.2379 58.164 29.3125 58.2742 29.3793C58.5458 29.501 58.8134 29.5639 59.0693 29.5639C59.4904 29.5246 59.8526 29.4303 60.1517 29.2889C60.4508 29.1475 60.75 28.9237 61.0491 28.6251C61.3876 28.2991 61.6632 27.926 61.8678 27.5058C62.3047 26.6377 62.6157 25.7383 62.8086 24.8153C62.9581 23.9865 63.0329 23.1499 63.0329 22.3055C63.0329 21.9912 63.0251 21.6731 63.0133 21.3471C62.9739 20.4516 62.9503 19.5521 62.9503 18.6566V18.2481C62.9503 17.4194 62.9975 16.5985 63.092 15.7815C62.7653 16.4728 62.4465 17.168 62.1316 17.8593C61.5884 19.0298 61.1987 19.8585 60.9665 20.3455C60.8169 20.7108 60.6083 21.08 60.3446 21.4453C60.0808 21.8106 59.7345 22.0227 59.3133 22.0777H59.2936C58.8173 22.0777 58.4474 21.9048 58.1797 21.5592C57.912 21.2136 57.7192 20.7933 57.5972 20.3063C57.4751 19.8153 57.4122 19.3479 57.4122 18.9001C57.4122 18.6566 57.4476 18.2324 57.5263 17.6354C57.6011 17.0384 57.6877 16.4532 57.7822 15.8837C57.8766 15.3141 57.9671 14.9174 58.0459 14.7014C58.1128 14.5522 58.2427 14.4304 58.4356 14.3361C58.6245 14.2419 58.8174 14.1947 59.0063 14.1947C59.2936 14.2222 59.4904 14.289 59.6006 14.399C59.7108 14.509 59.766 14.6425 59.766 14.8075V14.9292C59.7384 15.1885 59.699 15.4241 59.6439 15.6441C59.6046 15.8601 59.5691 16.08 59.5416 16.2961C59.514 16.5121 59.4865 16.7124 59.4589 16.8892C59.4314 17.0109 59.4038 17.1523 59.3763 17.3173C59.3487 17.5608 59.3212 17.8122 59.2936 18.0714C59.211 18.5741 59.1559 19.0769 59.1283 19.5796V19.8232C59.1283 20.0274 59.1519 20.2513 59.1992 20.4948C59.2464 20.7383 59.3448 20.9033 59.4944 20.9858H59.5967C59.7463 20.9465 59.8644 20.864 59.9549 20.7422C60.0415 20.6205 60.1281 20.4909 60.2107 20.3534C60.2166 20.3397 60.2235 20.3259 60.2304 20.3122L60.2405 20.2919L60.2451 20.2821L60.2501 20.2709L60.6988 19.3754C60.9586 18.8727 61.2026 18.3542 61.4349 17.824C61.5451 17.6197 61.6474 17.4076 61.7419 17.1916C61.8639 16.9324 62.0332 16.52 62.2536 15.9465C62.5252 15.2788 62.8007 14.6307 63.0802 13.9984C63.3596 13.366 63.5682 12.9772 63.7021 12.8279C63.8398 12.6394 64.0209 12.5019 64.2531 12.4194C64.3476 12.3919 64.4578 12.3801 64.5798 12.3801C64.7688 12.3801 64.9459 12.4155 65.1112 12.4823L65.1151 12.4783ZM70.8528 22.3251H70.9945L70.9905 22.3369C71.1795 22.3369 71.3566 22.2701 71.5219 22.1327C71.6164 21.9677 71.6636 21.7909 71.6636 21.6024L71.6439 21.1743C71.6164 20.7226 71.6046 20.2748 71.6046 19.8271C71.6046 19.6778 71.6203 19.3243 71.6558 18.7666C71.6738 18.4847 71.6928 18.1946 71.7124 17.8969C71.7312 17.6098 71.7506 17.3156 71.7699 17.0148C71.9195 17.1798 72.2265 17.4665 72.6909 17.8829C73.1515 18.2992 73.6238 18.7116 74.1001 19.1162C74.5763 19.5207 74.907 19.7878 75.0999 19.9096C75.1943 19.9646 75.3045 20.0392 75.4266 20.1334C75.5604 20.2434 75.7021 20.3455 75.8438 20.4398C75.9855 20.538 76.1193 20.593 76.2413 20.6048C76.3476 20.6048 76.446 20.593 76.5365 20.5734C76.6231 20.5498 76.7176 20.5144 76.8121 20.4594C77.0285 20.3102 77.1388 20.1452 77.1388 19.9685C77.1388 19.7642 77.0285 19.5521 76.8121 19.3361C76.6074 19.1319 76.3948 18.9551 76.1784 18.8059C76.0985 18.7362 76.0271 18.6777 75.9666 18.6281L75.9343 18.6016C75.8123 18.5074 75.5879 18.3188 75.2691 18.04L75.2635 18.0351L75.2635 18.035L75.2621 18.0338L75.2609 18.0328L75.2605 18.0324C74.944 17.7556 74.5965 17.4517 74.2182 17.113C73.8127 16.7595 73.4546 16.4453 73.1475 16.1743C72.8405 15.9033 72.6516 15.7541 72.5847 15.7266C73.5648 15.1021 74.4307 14.3951 75.1786 13.6056C75.8753 12.9104 76.4736 12.1288 76.9774 11.2608C77.0876 11.0408 77.1624 10.8091 77.2017 10.5655V10.5027C77.2017 10.2749 77.1309 10.0667 76.9892 9.88213C76.8475 9.69753 76.6861 9.60719 76.509 9.60719C76.3476 9.60719 76.1902 9.70538 76.0406 9.89391C74.8952 11.5789 73.5333 13.0479 71.9549 14.2969C72.132 13.1264 72.3485 11.9638 72.6083 10.8091C72.7697 10.0903 72.9192 9.3676 73.057 8.64883V8.60955C73.1003 8.4603 73.12 8.32283 73.12 8.20107V8.11859C73.0924 7.92613 72.9625 7.79652 72.7303 7.72974C72.6083 7.68654 72.4705 7.6669 72.321 7.6669C72.1163 7.6669 71.9116 7.71011 71.6991 7.80044C71.4904 7.89078 71.3487 8.01254 71.2818 8.1775C71.1992 8.39353 71.1244 8.61741 71.0575 8.84914L71.0503 8.87271C71.0397 8.90687 71.0276 8.94614 71.0181 8.99054C70.6363 10.3613 70.349 11.7556 70.16 13.1696C70.038 13.9709 69.9357 14.8114 69.853 15.6873C69.7704 16.5671 69.731 17.4233 69.731 18.2678C69.731 19.179 69.7979 20.0392 69.9357 20.8561C69.94 20.8905 69.9448 20.9259 69.9498 20.9624C69.9584 21.0259 69.9675 21.0926 69.975 21.1625C70.0144 21.461 70.0892 21.7163 70.1994 21.9284C70.3096 22.1366 70.5261 22.2701 70.8528 22.3251ZM84.6213 22.7729H84.5229C84.4284 22.7729 84.3182 22.7572 84.1962 22.7336C83.9915 22.6943 83.8026 22.6118 83.6255 22.4901C83.4483 22.3683 83.3303 22.2269 83.2791 22.062C83.1571 21.4374 83.0941 20.8169 83.0941 20.2081V19.8428L83.1335 17.824L82.2124 20.2513C82.0746 20.6441 81.87 21.0172 81.5905 21.3628C81.311 21.7085 80.9489 21.8813 80.4963 21.8813C80.2522 21.8813 79.9767 21.8067 79.6776 21.6574C79.2131 21.3707 78.8667 20.9701 78.6345 20.4555C78.3629 19.8153 78.2251 19.1437 78.2251 18.4367C78.2251 17.6747 78.3668 16.9402 78.6542 16.2332C78.9415 15.5262 79.3509 14.9449 79.8901 14.4893C80.4294 14.0337 81.0788 13.8059 81.8424 13.8059C82.3344 13.8059 82.7044 13.8688 82.9563 13.9905C83.2082 14.1123 83.4011 14.234 83.5389 14.3558C83.5389 14.3676 83.5468 14.3754 83.5586 14.3754C83.6137 14.0102 83.6688 13.7195 83.7239 13.5074C83.779 13.2953 83.8341 13.1186 83.8892 12.9654C84.027 12.6787 84.2434 12.4823 84.5426 12.3723C84.6371 12.3448 84.7473 12.333 84.8693 12.333C85.0582 12.333 85.2354 12.3684 85.4007 12.4351C85.5896 12.5176 85.7313 12.604 85.8179 12.6983C85.9045 12.7926 85.9517 12.9379 85.9517 13.1264C85.9517 13.5074 85.9163 13.8962 85.8494 14.2969C85.7825 14.6975 85.6998 15.0942 85.6053 15.4909C85.5227 15.8444 85.4558 16.19 85.4007 16.5317L85.2354 17.6315C85.0976 18.7038 85.0307 19.78 85.0307 20.8522L85.0504 21.7713C85.0504 21.8538 85.0504 21.9441 85.0385 22.0462C85.0307 22.1484 85.0228 22.2191 85.0071 22.2583C85.0071 22.2701 84.9992 22.2937 84.9874 22.3212C84.9756 22.4312 84.9401 22.5254 84.885 22.6079C84.8299 22.6904 84.7433 22.7454 84.6213 22.7729ZM80.7246 21.0408C80.941 21.0408 81.1339 20.9111 81.2953 20.6519C81.8149 19.5364 82.3462 18.2403 82.8894 16.7595L82.908 16.7117C83.0234 16.4145 83.1349 16.1275 83.2358 15.8405C83.2909 15.7305 83.3185 15.6048 83.3185 15.4516C83.3185 15.3299 83.2752 15.1885 83.1846 15.0353C83.0941 14.8782 82.9209 14.7996 82.6651 14.7996C82.4486 14.7996 82.2163 14.8625 81.9684 14.9921C81.7243 15.1217 81.5393 15.2552 81.4173 15.3888C80.6262 16.1075 80.1656 16.9874 80.0279 18.0203C79.9176 18.4563 79.8625 18.9237 79.8625 19.4265C79.8625 19.8349 79.9373 20.2041 80.0869 20.538C80.2365 20.8719 80.449 21.0368 80.7206 21.0368L80.7246 21.0408ZM93.2887 22.3879L93.5524 22.4272V22.4233L93.7177 22.4036C93.8515 22.3762 93.946 22.3212 93.9932 22.2308C94.0405 22.1444 94.068 22.0384 94.0837 21.9166C94.1113 21.8498 94.127 21.7516 94.1349 21.622C94.1467 21.4963 94.1467 21.3903 94.1467 21.3078V20.9818C94.1467 20.4123 94.1625 19.721 94.1979 18.9119C94.2294 18.1028 94.2609 17.4862 94.2884 17.0659C94.3002 17.0384 94.3081 17.0188 94.3081 17.003C94.3514 16.6338 94.3711 16.2961 94.3711 15.9818C94.3711 15.5891 94.3317 15.2238 94.2491 14.8821C94.1507 14.5443 93.9657 14.2772 93.6862 14.0887C93.4067 13.8962 93.1036 13.802 92.7769 13.802C92.6549 13.802 92.5329 13.8137 92.4109 13.8412C92.1787 13.8962 91.9779 14.0023 91.8087 14.1672C91.6394 14.3322 91.478 14.5089 91.3285 14.6975C90.8246 15.4869 90.368 16.5396 89.9587 17.8593C89.8603 18.1342 89.7658 18.4052 89.6714 18.6762C89.6714 18.7187 89.6486 18.8143 89.6104 18.9741L89.6084 18.9826C89.5808 19.0494 89.5533 19.124 89.5257 19.2065L89.5242 19.1757C89.4973 18.6312 89.4743 18.1663 89.4627 17.7807C89.4509 17.388 89.4431 16.9166 89.4431 16.3746C89.4503 16.1754 89.459 15.9836 89.4673 15.7991L89.4674 15.7983L89.4674 15.7977L89.4674 15.7972C89.4727 15.6804 89.4779 15.5665 89.4824 15.4555C89.4942 14.6386 89.5297 13.7902 89.5848 12.9064L89.6674 12.2132L89.7501 11.52C89.8878 10.6087 89.9548 9.725 89.9548 8.86876C89.9548 8.7038 89.9429 8.53491 89.9154 8.35816C89.8878 8.18141 89.8091 8.04394 89.6714 7.94968C89.5651 7.89469 89.447 7.8672 89.325 7.8672C89.203 7.8672 89.0691 7.89076 88.9274 7.93789C88.7857 7.98503 88.6598 8.04394 88.5496 8.11071C88.3724 8.22069 88.2543 8.35423 88.1914 8.51919C88.1284 8.68416 88.0851 8.86091 88.0575 9.04944C88.0418 9.12799 88.0221 9.21833 87.9946 9.31259C87.6679 11.0918 87.4907 12.9064 87.4632 14.7564C87.4632 14.8782 87.4553 14.9999 87.4435 15.1217C87.4002 15.8679 87.3805 16.6613 87.3805 17.5058C87.3805 18.6055 87.4435 19.6817 87.5655 20.7265C87.6088 21.0957 87.7387 21.4414 87.9552 21.7674C88.1992 21.9991 88.4905 22.113 88.833 22.113C89.1046 22.113 89.3289 22.0109 89.506 21.8066C89.5454 21.7516 89.5769 21.6809 89.5966 21.6024C89.6162 21.5238 89.6281 21.4414 89.6281 21.3589V21.2568C89.6989 20.919 89.7934 20.5851 89.9154 20.2591C89.9429 20.1923 89.9705 20.1177 89.9981 20.0352L90.4271 18.6488C90.5097 18.4327 90.5845 18.2089 90.6515 17.9771C90.7617 17.5686 90.8916 17.168 91.0411 16.7752C91.0805 16.7085 91.1159 16.6378 91.1435 16.571C91.293 16.135 91.5213 15.7422 91.8362 15.3888C91.9307 15.2945 92.0055 15.2474 92.0606 15.2474C92.1275 15.2474 92.1787 15.2749 92.2141 15.3298C92.2456 15.3848 92.2692 15.4516 92.2849 15.5341C92.2967 15.6166 92.3046 15.6833 92.3046 15.7383V15.8012L92.3243 16.1468C92.3243 16.3393 92.3164 16.5356 92.3046 16.7399C92.2993 16.7755 92.2931 16.812 92.2868 16.8489C92.2793 16.8933 92.2717 16.9384 92.2653 16.9834C92.2653 17.1484 92.2574 17.3094 92.2456 17.4744C92.218 17.9339 92.1905 18.3385 92.1629 18.6762V19.2693C92.1629 19.5561 92.1787 19.9253 92.2141 20.3809C92.2495 20.8365 92.3007 21.2803 92.3676 21.7163C92.4109 21.8813 92.5211 22.0227 92.7061 22.1444C92.8911 22.2662 93.084 22.3487 93.2887 22.3879ZM101.885 22.7729H101.787C101.692 22.7729 101.582 22.7572 101.46 22.7336C101.255 22.6943 101.066 22.6118 100.889 22.4901C100.712 22.3683 100.594 22.2269 100.543 22.062C100.421 21.4374 100.358 20.8169 100.358 20.2081V19.8428L100.397 17.824L99.4762 20.2513C99.3385 20.6441 99.1338 21.0172 98.8543 21.3628C98.5749 21.7085 98.2127 21.8813 97.7601 21.8813C97.516 21.8813 97.2405 21.8067 96.9414 21.6574C96.4769 21.3707 96.1305 20.9701 95.8983 20.4555C95.6267 19.8153 95.4889 19.1437 95.4889 18.4367C95.4889 17.6747 95.6306 16.9402 95.918 16.2332C96.2053 15.5262 96.6147 14.9449 97.1539 14.4893C97.6932 14.0337 98.3426 13.8059 99.1062 13.8059C99.5982 13.8059 99.9682 13.8688 100.22 13.9905C100.472 14.1123 100.665 14.234 100.803 14.3558C100.803 14.3676 100.811 14.3754 100.822 14.3754C100.877 14.0102 100.933 13.7195 100.988 13.5074C101.043 13.2953 101.098 13.1186 101.153 12.9654C101.291 12.6787 101.507 12.4823 101.806 12.3723C101.901 12.3448 102.011 12.333 102.133 12.333C102.322 12.333 102.499 12.3684 102.664 12.4351C102.853 12.5176 102.995 12.604 103.082 12.6983C103.168 12.7926 103.216 12.9379 103.216 13.1264C103.216 13.5074 103.18 13.8962 103.113 14.2969C103.046 14.6975 102.964 15.0942 102.869 15.4909C102.786 15.8444 102.72 16.19 102.664 16.5317L102.499 17.6315C102.361 18.7038 102.294 19.78 102.294 20.8522L102.314 21.7713C102.314 21.8538 102.314 21.9441 102.302 22.0462C102.294 22.1484 102.287 22.2191 102.271 22.2583C102.271 22.2701 102.263 22.2937 102.251 22.3212C102.239 22.4312 102.204 22.5254 102.149 22.6079C102.094 22.6904 102.007 22.7454 101.885 22.7729ZM97.9884 21.0408C98.2049 21.0408 98.3977 20.9111 98.5591 20.6519C99.0787 19.5364 99.6101 18.2403 100.153 16.7595L100.172 16.7112C100.287 16.4142 100.399 16.1273 100.5 15.8405C100.555 15.7305 100.582 15.6048 100.582 15.4516C100.582 15.3299 100.539 15.1885 100.448 15.0353C100.358 14.8782 100.185 14.7996 99.9289 14.7996C99.7124 14.7996 99.4802 14.8625 99.2322 14.9921C98.9882 15.1217 98.8031 15.2552 98.6811 15.3888C97.89 16.1075 97.4294 16.9874 97.2917 18.0203C97.1815 18.4563 97.1264 18.9237 97.1264 19.4265C97.1264 19.8349 97.2012 20.2041 97.3507 20.538C97.5003 20.8719 97.7129 21.0368 97.9844 21.0368L97.9884 21.0408ZM108.611 22.3644H108.752L108.764 22.3683C108.981 22.3683 109.166 22.3055 109.315 22.1837C109.425 22.0227 109.481 21.8381 109.481 21.6338L109.461 21.2057C109.418 20.754 109.398 20.3063 109.398 19.8585C109.398 19.344 109.425 18.8334 109.481 18.3306L109.485 18.2652L109.485 18.2647C109.495 18.1082 109.506 17.946 109.52 17.7807C109.52 17.7022 109.524 17.6197 109.54 17.5372C109.583 16.8302 109.642 16.1311 109.725 15.4359C110.595 15.2709 111.468 15.1767 112.338 15.1492C112.216 16.1665 112.153 17.1955 112.153 18.146C112.153 19.0965 112.228 19.992 112.378 20.8365C112.389 20.919 112.401 20.9936 112.417 21.0604C112.456 21.3864 112.531 21.6613 112.641 21.8773C112.748 22.0934 112.98 22.2387 113.334 22.3055H113.476C113.692 22.3055 113.877 22.2426 114.027 22.1209C114.137 21.9441 114.192 21.7556 114.192 21.5513L114.172 21.1429C114.129 20.8169 114.109 20.4909 114.109 20.1649V19.7996C114.109 19.3793 114.133 18.9551 114.172 18.5349C114.178 18.394 114.186 18.2542 114.193 18.1148V18.1147V18.1147C114.199 17.9821 114.206 17.85 114.212 17.7179C114.224 17.6393 114.231 17.5569 114.231 17.4744C114.342 15.9504 114.523 14.4226 114.783 12.8868C114.905 12.0816 115.062 11.2804 115.251 10.4791C115.385 9.8507 115.507 9.22619 115.617 8.60169C115.66 8.45244 115.68 8.31497 115.68 8.19321C115.68 7.94969 115.55 7.77294 115.29 7.66297C115.168 7.63547 115.031 7.62369 114.881 7.62369C114.661 7.62369 114.44 7.66297 114.216 7.74545C113.991 7.82793 113.838 7.95754 113.755 8.13429L113.491 8.95126C113.098 10.322 112.803 11.7164 112.614 13.1303C112.543 13.5231 112.484 13.9316 112.429 14.3519C111.559 14.3636 110.685 14.4461 109.815 14.5954L110.059 12.9654C110.181 12.2034 110.323 11.4493 110.488 10.703C110.654 10.0235 110.787 9.34403 110.898 8.66453C110.941 8.49957 110.961 8.35817 110.961 8.23641C110.961 8.00468 110.831 7.83579 110.571 7.72581C110.445 7.69832 110.319 7.68653 110.181 7.68653C109.949 7.68653 109.725 7.73367 109.508 7.82008C109.292 7.91041 109.142 8.03217 109.059 8.19714C108.977 8.41709 108.902 8.62133 108.835 8.80986C108.819 8.87663 108.8 8.94733 108.772 9.0141C108.378 10.3849 108.083 11.7871 107.894 13.2128C107.772 14.0141 107.666 14.8507 107.579 15.7187C107.489 16.5867 107.446 17.4508 107.446 18.3071C107.446 19.2183 107.513 20.0785 107.65 20.8954C107.678 21.0054 107.701 21.1075 107.713 21.2018C107.753 21.5003 107.827 21.7556 107.938 21.9677C108.044 22.1758 108.268 22.3094 108.611 22.3644ZM122.682 22.7729H122.584C122.489 22.7729 122.379 22.7572 122.257 22.7336C122.053 22.6943 121.864 22.6118 121.686 22.4901C121.509 22.3683 121.391 22.2269 121.34 22.062C121.218 21.4374 121.155 20.8169 121.155 20.2081V19.8428L121.194 17.824L120.273 20.2513C120.136 20.6441 119.931 21.0172 119.652 21.3628C119.372 21.7085 119.01 21.8813 118.557 21.8813C118.313 21.8813 118.038 21.8067 117.739 21.6574C117.274 21.3707 116.928 20.9701 116.695 20.4555C116.424 19.8153 116.286 19.1437 116.286 18.4367C116.286 17.6747 116.428 16.9402 116.715 16.2332C117.002 15.5262 117.412 14.9449 117.951 14.4893C118.49 14.0337 119.14 13.8059 119.903 13.8059C120.395 13.8059 120.765 13.8688 121.017 13.9905C121.269 14.1123 121.462 14.234 121.6 14.3558C121.6 14.3676 121.608 14.3754 121.62 14.3754C121.675 14.0102 121.73 13.7195 121.785 13.5074C121.84 13.2953 121.895 13.1186 121.95 12.9654C122.088 12.6787 122.304 12.4823 122.604 12.3723C122.698 12.3448 122.808 12.333 122.93 12.333C123.119 12.333 123.296 12.3684 123.462 12.4351C123.651 12.5176 123.792 12.604 123.879 12.6983C123.965 12.7926 124.013 12.9379 124.013 13.1264C124.013 13.5074 123.977 13.8962 123.91 14.2969C123.843 14.6975 123.761 15.0942 123.666 15.4909C123.584 15.8444 123.517 16.19 123.462 16.5317L123.296 17.6315C123.159 18.7038 123.092 19.78 123.092 20.8522L123.111 21.7713C123.111 21.8538 123.111 21.9441 123.1 22.0462C123.092 22.1484 123.084 22.2191 123.068 22.2583C123.068 22.2701 123.06 22.2937 123.048 22.3212C123.037 22.4312 123.001 22.5254 122.946 22.6079C122.891 22.6904 122.804 22.7454 122.682 22.7729ZM118.786 21.0408C119.002 21.0408 119.195 20.9111 119.356 20.6519C119.876 19.5364 120.407 18.2403 120.95 16.7595L120.969 16.7122C121.084 16.4149 121.196 16.1277 121.297 15.8405C121.352 15.7305 121.379 15.6048 121.379 15.4516C121.379 15.3299 121.336 15.1885 121.246 15.0353C121.155 14.8782 120.982 14.7996 120.726 14.7996C120.51 14.7996 120.277 14.8625 120.029 14.9921C119.785 15.1217 119.6 15.2552 119.478 15.3888C118.687 16.1075 118.227 16.9874 118.089 18.0203C117.979 18.4563 117.924 18.9237 117.924 19.4265C117.924 19.8349 117.998 20.2041 118.148 20.538C118.297 20.8719 118.51 21.0368 118.782 21.0368L118.786 21.0408ZM127.957 14.0062C127.957 13.7588 127.846 13.5624 127.63 13.4131L127.622 13.4171C127.445 13.3228 127.26 13.2757 127.071 13.2757C126.65 13.2757 126.315 13.5035 126.071 13.9669C125.961 14.1987 125.882 14.5207 125.835 14.9371C125.788 15.3534 125.756 15.758 125.745 16.1507C125.729 16.4492 125.709 16.6967 125.682 16.8852C125.677 16.9477 125.671 17.0109 125.665 17.0754C125.657 17.1649 125.649 17.2567 125.642 17.3526C125.636 17.4443 125.628 17.5347 125.62 17.6231C125.614 17.69 125.608 17.7557 125.603 17.82C125.603 17.9418 125.595 18.0557 125.583 18.1657C125.556 18.6566 125.544 19.1122 125.544 19.5325V19.8781C125.556 20.4869 125.627 21.1075 125.749 21.732C125.804 21.897 125.918 22.0384 126.087 22.1601C126.256 22.2819 126.453 22.3644 126.67 22.4037C126.764 22.4272 126.851 22.4429 126.933 22.4429C126.988 22.4429 127.044 22.4351 127.099 22.4233C127.232 22.3958 127.327 22.3369 127.374 22.2505C127.421 22.1641 127.449 22.058 127.465 21.9363C127.492 21.8695 127.508 21.7713 127.516 21.6417C127.528 21.516 127.528 21.4099 127.528 21.3275V20.6951C127.528 19.3636 127.583 18.0164 127.693 16.6574C127.705 16.6024 127.713 16.5474 127.713 16.4925C127.756 15.8405 127.815 15.2002 127.898 14.5757C127.909 14.5482 127.917 14.5129 127.917 14.4736C127.917 14.3244 127.929 14.183 127.957 14.0455V14.0062ZM126.772 11.6299C126.866 11.7203 127.04 11.7635 127.284 11.7635H127.288C127.504 11.7635 127.677 11.7006 127.807 11.5789C127.933 11.4571 128 11.3197 128 11.1704C128 10.9269 127.835 10.7501 127.508 10.6402C127.315 10.6402 127.122 10.703 126.925 10.8248C126.729 10.9465 126.63 11.0958 126.63 11.2725C126.63 11.4218 126.677 11.5435 126.772 11.6299Z" fill="url(#paint0_linear_543_5129)"/>
<defs>
<linearGradient id="paint0_linear_543_5129" x1="128.105" y1="13.7754" x2="78.6714" y2="-66.4875" gradientUnits="userSpaceOnUse">
<stop stop-color="#AE01DF"/>
<stop offset="1" stop-color="#FCD332"/>
</linearGradient>
</defs>
</svg>
