<svg width="360" height="280" preserveAspectRatio="none" viewBox="0 0 360 280" fill="none" xmlns="http://www.w3.org/2000/svg">
<path d="M0 -2H360V248C360 263.085 360 270.627 355.314 275.314C350.627 280 343.085 280 328 280H32C16.9151 280 9.37258 280 4.68629 275.314C0 270.627 0 263.085 0 248V-2Z" fill="url(#paint0_linear_1154_302)"/>
<g clip-path="url(#clip0_1154_302)">
<path d="M226.859 201.14C225.859 201.517 225.353 202.069 225 203.187C225.624 204.128 226.212 204.728 227.024 205.022C227.989 204.281 228.825 204.069 230.296 203.834C228.836 203.01 227.966 202.446 226.848 201.128L226.859 201.14Z" fill="url(#paint1_linear_1154_302)"/>
<path d="M301.012 216.012C301.106 217.447 301.306 218.329 301.753 219.458C302.624 219.046 303.095 218.635 303.448 218.141C303.024 217.529 302.965 216.941 302.953 216.035C302.177 216.329 301.706 216.294 301 216L301.012 216.012Z" fill="url(#paint2_linear_1154_302)"/>
<path d="M298.561 172.711C299.15 173.334 299.373 173.852 299.232 174.875C300.303 174.51 300.915 174.028 301.974 173.064C302.056 172.264 301.856 171.852 301.233 171.194C300.315 172.005 299.597 172.534 298.561 172.711Z" fill="url(#paint3_linear_1154_302)"/>
<path d="M285.719 235.74C286.531 234.281 286.802 233.387 286.414 231.646C283.742 230.894 282.201 230.259 279.788 229C279.659 229.988 279.365 230.658 279 231.152C281.813 232.505 283.378 233.705 285.731 235.74H285.719Z" fill="url(#paint4_linear_1154_302)"/>
<path d="M267.247 206.586C266.623 206.186 266.164 205.716 265.646 204.975C264.74 206.61 264.058 207.656 263.081 208.692C263.41 209.609 263.811 209.985 264.446 210.409C265.199 209.691 266.235 208.292 267.247 206.598V206.586Z" fill="url(#paint5_linear_1154_302)"/>
<path d="M292.63 149.892C293.419 151.01 293.642 151.892 293.172 153.444C294.937 153.127 296.019 152.503 297.914 151.245C298.244 150.01 298.008 149.316 297.184 148.128C295.549 149.198 294.301 149.845 292.63 149.892Z" fill="url(#paint6_linear_1154_302)"/>
<path d="M313.93 126.674C315.542 127.168 316.578 127.203 318.426 126.697C317.696 124.721 317.649 123.439 317.978 121.992C316.507 121.416 315.413 121.275 313.707 121.263C314.154 123.121 314.154 124.521 313.918 126.662L313.93 126.674Z" fill="url(#paint7_linear_1154_302)"/>
<path d="M274.484 122.874C275.708 122.474 276.332 122.122 277.026 120.934C275.92 119.11 275.379 117.934 274.684 115.97C274.096 116.464 273.578 116.676 273.107 116.77C273.978 119.016 274.237 120.498 274.484 122.886V122.874Z" fill="url(#paint8_linear_1154_302)"/>
<path d="M266.058 156.408C266.023 157.373 265.729 157.902 265.164 158.62C266.706 158.973 268.282 159.137 268.989 158.984C269.177 158.255 269.177 157.596 269.036 156.691C268.224 156.867 267.412 156.714 266.058 156.408Z" fill="url(#paint9_linear_1154_302)"/>
<path d="M263.175 236.886C262.787 236.662 262.504 236.368 262.351 235.78C261.08 236.556 260.374 237.215 259.386 238.238C259.727 239.038 260.092 239.391 260.374 239.614C261.151 238.309 261.916 237.697 263.163 236.886H263.175Z" fill="url(#paint10_linear_1154_302)"/>
<path d="M278.297 184.967C279.321 184.52 280.533 184.497 283.086 185.426C283.31 184.273 283.181 183.203 282.592 181.862C280.592 181.427 279.368 181.333 277.438 181.78C278.109 182.779 278.238 183.532 278.285 184.967H278.297Z" fill="url(#paint11_linear_1154_302)"/>
<path d="M228.307 166.947C228.307 167.747 228.424 168.229 228.907 169.006C229.707 168.406 230.296 168.206 230.99 168.171C231.049 167.418 230.966 166.9 230.743 166.124C229.954 166.583 229.319 166.771 228.307 166.947Z" fill="url(#paint12_linear_1154_302)"/>
<path d="M276.92 196.8C276.473 197.2 276.367 197.659 276.214 198.411C277.885 198.67 279.568 199.435 281.451 200.505C281.604 199.905 281.839 199.564 282.333 199.094C280.415 197.835 279.227 197.306 276.908 196.8H276.92Z" fill="url(#paint13_linear_1154_302)"/>
<path d="M324.227 127.073C324.251 128.061 324.568 128.65 325.439 129.297C326.44 129.038 327.134 128.72 327.64 128.109C327.299 127.062 327.369 126.262 327.616 124.921C326.463 125.921 325.71 126.509 324.239 127.073H324.227Z" fill="url(#paint14_linear_1154_302)"/>
<path d="M257.374 190.307C257.232 189.625 257.291 189.178 257.821 188.531C256.938 188.331 256.303 188.402 255.161 188.613C254.761 189.131 254.726 189.496 254.879 190.213C255.856 190.037 256.573 189.99 257.362 190.295L257.374 190.307Z" fill="url(#paint15_linear_1154_302)"/>
<path d="M306 241.87C306.706 242.541 306.989 243.129 306.871 244.281C308.059 243.811 308.73 243.223 309.883 242.082C309.942 241.176 309.683 240.717 308.942 240C307.942 240.976 307.165 241.6 306 241.87Z" fill="url(#paint16_linear_1154_302)"/>
<path d="M329.264 216.513C329.04 215.537 328.758 214.773 328.181 214.161C327.522 214.279 327.134 214.479 326.769 214.843C327.405 215.643 327.64 216.172 327.816 217.172C328.299 216.678 328.664 216.466 329.264 216.513Z" fill="url(#paint17_linear_1154_302)"/>
<path d="M324.871 246C324.447 246.553 323.93 246.929 323 247.059C323.953 249.176 324.824 250.399 326.224 252.116C327.519 251.752 328.143 251.258 328.554 250.846C326.695 249.388 325.895 248.082 324.883 246H324.871Z" fill="url(#paint18_linear_1154_302)"/>
<path d="M309.8 181.509C311.424 181.65 312.247 181.827 313.377 182.603C313.612 182.003 313.848 181.662 314.224 181.497C313.048 180.568 312.059 180.239 310.353 179.933C310 180.427 309.847 180.944 309.788 181.509H309.8Z" fill="url(#paint19_linear_1154_302)"/>
<path d="M334.889 157.938C334.748 158.773 334.795 159.302 335.171 160.184C336.113 159.69 336.748 159.584 337.49 159.655C337.678 158.878 337.678 158.326 337.572 157.479C336.666 157.82 335.972 157.914 334.889 157.938Z" fill="url(#paint20_linear_1154_302)"/>
<path d="M331.756 163.939V167.586C331.72 167.139 331.638 166.715 331.497 166.304C330.426 163.046 326.389 161.081 322 159.658V156C326.943 157.6 331.438 159.893 331.756 163.928V163.939Z" fill="url(#paint21_linear_1154_302)"/>
<path d="M325.966 194.439C325.742 194.051 325.613 193.663 325.566 193.227C325.507 192.628 325.613 191.934 325.872 191.04C326.672 188.534 328.978 186.841 330.038 184.994C330.379 185.57 330.544 186.1 330.579 186.605C330.779 189.334 327.143 191.204 325.954 194.427L325.966 194.439Z" fill="url(#paint22_linear_1154_302)"/>
<path d="M330.602 172.161C329.579 174.184 327.672 175.972 326.637 177.925C326.284 177.548 326.048 177.148 326.013 176.596C326.013 176.466 326.013 176.325 326.013 176.172C326.036 175.843 326.131 175.466 326.284 175.02C327.06 172.738 329.437 170.785 330.602 168.503C331.014 167.727 331.308 166.998 331.497 166.304C331.626 166.704 331.72 167.139 331.756 167.586C331.862 168.903 331.52 170.42 330.602 172.15V172.161Z" fill="url(#paint23_linear_1154_302)"/>
<path d="M330.591 182.959V186.605C330.555 186.1 330.391 185.57 330.049 184.994C329.802 184.559 329.449 184.112 328.99 183.629C327.484 182.089 326.036 181.665 325.966 180.265V179.948L326.013 176.596C326.048 177.148 326.284 177.548 326.637 177.925C327.19 178.513 328.061 179.03 328.99 179.983C330.073 181.124 330.532 182.089 330.591 182.971V182.959Z" fill="url(#paint24_linear_1154_302)"/>
<path d="M332.709 201.779V205.437C331.391 201.755 330.037 202.026 327.649 199.979C326.072 198.567 325.401 197.674 325.566 196.097V193.227C325.601 193.663 325.73 194.063 325.954 194.439C326.295 195.039 326.86 195.615 327.649 196.321C330.037 198.368 331.391 198.097 332.709 201.779Z" fill="url(#paint25_linear_1154_302)"/>
<path d="M286.464 85V88.5169C282.051 89.8225 270.942 94.3862 268.741 99.6204C268.494 100.209 268.353 100.808 268.353 101.408V97.8914C268.353 91.9162 281.545 86.4468 286.452 84.9882L286.464 85Z" fill="url(#paint26_linear_1154_302)"/>
<path d="M283.793 156.432V159.949C277.991 158.161 275.673 155.42 275.779 152.421C275.802 151.88 275.896 151.351 276.061 150.81C276.838 153.033 279.25 155.02 283.793 156.42V156.432Z" fill="url(#paint27_linear_1154_302)"/>
<path d="M287.841 112.677V112.735C287.841 113.312 287.629 113.853 287.264 114.359C283.863 108.019 270.942 108.419 268.671 102.996C268.459 102.467 268.353 101.949 268.353 101.432C268.353 100.832 268.482 100.232 268.741 99.644C271.307 105.125 285.005 104.525 287.652 111.7C287.782 112.053 287.841 112.382 287.852 112.7L287.841 112.677Z" fill="url(#paint28_linear_1154_302)"/>
<path d="M287.747 135.483C287.664 135.954 287.417 136.389 287.04 136.789C286.958 136.671 286.864 136.554 286.758 136.436C284.381 133.719 278.756 132.59 276.379 129.885C275.496 128.908 275.108 128.05 275.073 127.273V127.062C275.096 126.497 275.32 125.968 275.684 125.474C275.873 125.756 276.096 126.062 276.379 126.368C278.756 129.085 284.381 130.214 286.758 132.919C287.335 133.601 287.652 134.213 287.735 134.766C287.782 135.013 287.782 135.26 287.735 135.483H287.747Z" fill="url(#paint29_linear_1154_302)"/>
<path d="M281.133 144.352C278.556 146.399 276.744 148.645 276.073 150.821C275.908 151.362 275.814 151.892 275.79 152.421L275.814 149.622V148.528C276.085 145.975 278.062 143.27 281.121 140.835C283.157 139.283 285.781 138.177 287.04 136.789C287.405 136.377 287.664 135.954 287.747 135.483V138.271C288.182 140.8 284.051 142.117 281.133 144.352Z" fill="url(#paint30_linear_1154_302)"/>
<path d="M287.841 112.724V116.017V116.405C287.535 120.298 278.203 122.11 275.696 125.474C275.331 125.968 275.108 126.485 275.084 127.062V123.768C274.908 119.663 284.769 117.864 287.276 114.359C287.641 113.853 287.841 113.323 287.853 112.735L287.841 112.724Z" fill="url(#paint31_linear_1154_302)"/>
<path d="M261.281 145.034L261.222 147.846C261.21 148.363 261.033 148.916 260.657 149.516C259.398 151.645 253.455 151.739 250.489 153.491C250.125 153.703 249.83 153.927 249.607 154.162C249.195 154.585 249.007 155.021 248.995 155.467L249.054 152.645C249.077 151.951 249.513 151.292 250.548 150.68C253.525 148.928 259.456 148.845 260.716 146.705C260.775 146.611 260.822 146.528 260.869 146.434C261.139 145.928 261.269 145.47 261.281 145.034Z" fill="url(#paint32_linear_1154_302)"/>
<path d="M257.527 200.646L257.468 203.457C256.597 202.634 256.267 201.728 256.291 200.764V200.74C256.303 200.258 256.409 199.776 256.573 199.282C256.762 199.752 257.068 200.211 257.527 200.646Z" fill="url(#paint33_linear_1154_302)"/>
<path d="M261.281 144.952V145.034C261.269 145.47 261.139 145.94 260.869 146.434C259.551 143.976 254.902 142.188 253.337 138.965L253.396 136.154C255.22 139.93 261.292 141.729 261.269 144.952H261.281Z" fill="url(#paint34_linear_1154_302)"/>
<path d="M261.528 187.378C261.492 187.731 261.41 188.119 261.269 188.543C260.316 186.12 256.479 185.367 254.079 183.085C252.737 181.768 252.172 180.474 252.16 179.262C252.16 179.168 252.16 179.086 252.16 178.992C252.184 178.557 252.278 178.145 252.443 177.733C252.725 178.557 253.267 179.415 254.149 180.274C257.032 182.991 261.951 183.544 261.539 187.378H261.528Z" fill="url(#paint35_linear_1154_302)"/>
<path d="M261.492 189.731C261.492 190.248 261.398 190.825 261.175 191.46C260.469 193.554 257.515 196.494 256.573 199.282C256.409 199.776 256.303 200.27 256.291 200.74L256.35 197.929C256.456 194.765 260.398 191.119 261.233 188.649C261.245 188.613 261.257 188.578 261.269 188.543C261.41 188.119 261.492 187.743 261.528 187.378L261.492 189.731Z" fill="url(#paint36_linear_1154_302)"/>
<path d="M264.399 166.289L264.34 168.923V169.229C264.34 169.323 264.317 169.406 264.305 169.488C263.846 171.829 260.398 172.252 258.362 173.087C255.62 174.005 253.255 175.675 252.455 177.722C252.302 178.121 252.196 178.545 252.172 178.98L252.231 176.169C252.384 173.558 255.138 171.382 258.421 170.276C260.163 169.559 262.916 169.147 263.987 167.594C264.175 167.324 264.305 167.018 264.375 166.677C264.399 166.547 264.411 166.418 264.411 166.289H264.399Z" fill="url(#paint37_linear_1154_302)"/>
<path d="M264.399 166.242V166.3C264.399 166.43 264.375 166.559 264.352 166.689C264.281 167.03 264.152 167.336 263.964 167.606C263.093 165.877 260.845 164.395 259.362 163.548C255.844 161.549 248.924 158.267 248.983 155.456C248.983 155.009 249.183 154.562 249.595 154.15C251.29 156.561 256.515 159.078 259.421 160.737C261.304 161.819 264.411 163.901 264.387 166.242H264.399Z" fill="url(#paint38_linear_1154_302)"/>
</g>
<path d="M354.13 179.422C355.495 178.87 356.225 178.317 357.213 176.952C355.625 176.011 354.883 175.164 354.307 174C352.989 174.423 352.165 174.929 351 175.87C352.33 176.894 353.106 177.834 354.13 179.422Z" fill="url(#paint39_linear_1154_302)"/>
<path d="M350.012 255.129C350.73 256.117 351.141 257.128 351.471 258.587C353.86 256.634 355.566 255.446 357.696 254.47C357.755 252.847 357.367 252.035 356.649 251C355.06 251.635 352.601 253.141 350 255.129H350.012Z" fill="url(#paint40_linear_1154_302)"/>
<path d="M356.495 206.139C355.448 205.963 354.307 205.868 353.2 206.398C352.847 207.209 352.577 207.739 352 208.456C352.788 208.397 353.212 208.727 353.859 209.632C354.412 208.397 355.295 207.433 356.495 206.127V206.139Z" fill="url(#paint41_linear_1154_302)"/>
<path d="M17.92 121V104.368H29.152V107.512H21.664V110.776H28.312V113.848H21.664V117.856H29.704V121H17.92ZM35.6667 121C34.8507 119.4 34.0187 117.528 33.1707 115.384C32.3387 113.24 31.5467 110.904 30.7947 108.376H34.5867C34.7467 109 34.9307 109.68 35.1387 110.416C35.3627 111.136 35.5867 111.872 35.8107 112.624C36.0507 113.36 36.2827 114.08 36.5067 114.784C36.7467 115.488 36.9787 116.128 37.2027 116.704C37.4107 116.128 37.6347 115.488 37.8747 114.784C38.1147 114.08 38.3467 113.36 38.5707 112.624C38.8107 111.872 39.0347 111.136 39.2427 110.416C39.4667 109.68 39.6587 109 39.8187 108.376H43.5147C42.7627 110.904 41.9627 113.24 41.1147 115.384C40.2827 117.528 39.4587 119.4 38.6427 121H35.6667ZM44.5019 114.784C44.5019 113.664 44.6699 112.688 45.0059 111.856C45.3579 111.008 45.8139 110.304 46.3739 109.744C46.9339 109.184 47.5739 108.76 48.2939 108.472C49.0299 108.184 49.7819 108.04 50.5499 108.04C52.3419 108.04 53.7579 108.592 54.7979 109.696C55.8379 110.784 56.3579 112.392 56.3579 114.52C56.3579 114.728 56.3499 114.96 56.3339 115.216C56.3179 115.456 56.3019 115.672 56.2859 115.864H48.1739C48.2539 116.6 48.5979 117.184 49.2059 117.616C49.8139 118.048 50.6299 118.264 51.6539 118.264C52.3099 118.264 52.9499 118.208 53.5739 118.096C54.2139 117.968 54.7339 117.816 55.1339 117.64L55.6139 120.544C55.4219 120.64 55.1659 120.736 54.8459 120.832C54.5259 120.928 54.1659 121.008 53.7659 121.072C53.3819 121.152 52.9659 121.216 52.5179 121.264C52.0699 121.312 51.6219 121.336 51.1739 121.336C50.0379 121.336 49.0459 121.168 48.1979 120.832C47.3659 120.496 46.6699 120.04 46.1099 119.464C45.5659 118.872 45.1579 118.176 44.8859 117.376C44.6299 116.576 44.5019 115.712 44.5019 114.784ZM52.9019 113.416C52.8859 113.112 52.8299 112.816 52.7339 112.528C52.6539 112.24 52.5179 111.984 52.3259 111.76C52.1499 111.536 51.9179 111.352 51.6299 111.208C51.3579 111.064 51.0139 110.992 50.5979 110.992C50.1979 110.992 49.8539 111.064 49.5659 111.208C49.2779 111.336 49.0379 111.512 48.8459 111.736C48.6539 111.96 48.5019 112.224 48.3899 112.528C48.2939 112.816 48.2219 113.112 48.1739 113.416H52.9019ZM66.7255 111.544C66.4055 111.464 66.0295 111.384 65.5975 111.304C65.1655 111.208 64.7015 111.16 64.2055 111.16C63.9815 111.16 63.7095 111.184 63.3895 111.232C63.0855 111.264 62.8535 111.304 62.6935 111.352V121H59.1175V109.048C59.7575 108.824 60.5095 108.616 61.3735 108.424C62.2535 108.216 63.2295 108.112 64.3015 108.112C64.4935 108.112 64.7255 108.128 64.9975 108.16C65.2695 108.176 65.5415 108.208 65.8135 108.256C66.0855 108.288 66.3575 108.336 66.6295 108.4C66.9015 108.448 67.1335 108.512 67.3255 108.592L66.7255 111.544ZM81.2005 108.376C80.4805 110.808 79.7285 113.088 78.9445 115.216C78.1605 117.344 77.3045 119.408 76.3765 121.408C76.0405 122.128 75.7045 122.736 75.3685 123.232C75.0325 123.744 74.6645 124.16 74.2645 124.48C73.8645 124.816 73.4085 125.056 72.8965 125.2C72.4005 125.36 71.8165 125.44 71.1445 125.44C70.5845 125.44 70.0645 125.384 69.5845 125.272C69.1205 125.176 68.7365 125.064 68.4325 124.936L69.0565 122.08C69.4245 122.208 69.7525 122.296 70.0405 122.344C70.3285 122.392 70.6325 122.416 70.9525 122.416C71.5925 122.416 72.0805 122.24 72.4165 121.888C72.7685 121.552 73.0645 121.08 73.3045 120.472C72.4885 118.872 71.6725 117.08 70.8565 115.096C70.0405 113.096 69.2725 110.856 68.5525 108.376H72.3445C72.5045 109 72.6885 109.68 72.8965 110.416C73.1205 111.136 73.3525 111.872 73.5925 112.624C73.8325 113.36 74.0725 114.08 74.3125 114.784C74.5685 115.488 74.8085 116.128 75.0325 116.704C75.2405 116.128 75.4565 115.488 75.6805 114.784C75.9045 114.08 76.1205 113.36 76.3285 112.624C76.5525 111.872 76.7605 111.136 76.9525 110.416C77.1605 109.68 77.3445 109 77.5045 108.376H81.2005ZM94.1151 104.176C96.5951 104.176 98.4991 104.616 99.8271 105.496C101.155 106.36 101.819 107.784 101.819 109.768C101.819 111.768 101.147 113.216 99.8031 114.112C98.4591 114.992 96.5391 115.432 94.0431 115.432H92.8671V121H89.1231V104.608C89.9391 104.448 90.8031 104.336 91.7151 104.272C92.6271 104.208 93.4271 104.176 94.1151 104.176ZM94.3551 107.368C94.0831 107.368 93.8111 107.376 93.5391 107.392C93.2831 107.408 93.0591 107.424 92.8671 107.44V112.24H94.0431C95.3391 112.24 96.3151 112.064 96.9711 111.712C97.6271 111.36 97.9551 110.704 97.9551 109.744C97.9551 109.28 97.8671 108.896 97.6911 108.592C97.5311 108.288 97.2911 108.048 96.9711 107.872C96.6671 107.68 96.2911 107.552 95.8431 107.488C95.3951 107.408 94.8991 107.368 94.3551 107.368ZM108.684 118.504C109.036 118.504 109.372 118.496 109.692 118.48C110.012 118.464 110.268 118.44 110.46 118.408V115.696C110.316 115.664 110.1 115.632 109.812 115.6C109.524 115.568 109.26 115.552 109.02 115.552C108.684 115.552 108.364 115.576 108.06 115.624C107.772 115.656 107.516 115.728 107.292 115.84C107.068 115.952 106.892 116.104 106.764 116.296C106.636 116.488 106.572 116.728 106.572 117.016C106.572 117.576 106.756 117.968 107.124 118.192C107.508 118.4 108.028 118.504 108.684 118.504ZM108.396 108.04C109.452 108.04 110.332 108.16 111.036 108.4C111.74 108.64 112.3 108.984 112.716 109.432C113.148 109.88 113.452 110.424 113.628 111.064C113.804 111.704 113.892 112.416 113.892 113.2V120.64C113.38 120.752 112.668 120.88 111.756 121.024C110.844 121.184 109.74 121.264 108.444 121.264C107.628 121.264 106.884 121.192 106.212 121.048C105.556 120.904 104.988 120.672 104.508 120.352C104.028 120.016 103.66 119.584 103.404 119.056C103.148 118.528 103.02 117.88 103.02 117.112C103.02 116.376 103.164 115.752 103.452 115.24C103.756 114.728 104.156 114.32 104.652 114.016C105.148 113.712 105.716 113.496 106.356 113.368C106.996 113.224 107.66 113.152 108.348 113.152C108.812 113.152 109.22 113.176 109.572 113.224C109.94 113.256 110.236 113.304 110.46 113.368V113.032C110.46 112.424 110.276 111.936 109.908 111.568C109.54 111.2 108.9 111.016 107.988 111.016C107.38 111.016 106.78 111.064 106.188 111.16C105.596 111.24 105.084 111.36 104.652 111.52L104.196 108.64C104.404 108.576 104.66 108.512 104.964 108.448C105.284 108.368 105.628 108.304 105.996 108.256C106.364 108.192 106.748 108.144 107.148 108.112C107.564 108.064 107.98 108.04 108.396 108.04ZM124.733 111.544C124.413 111.464 124.037 111.384 123.605 111.304C123.173 111.208 122.709 111.16 122.213 111.16C121.989 111.16 121.717 111.184 121.397 111.232C121.093 111.264 120.861 111.304 120.701 111.352V121H117.125V109.048C117.765 108.824 118.517 108.616 119.381 108.424C120.261 108.216 121.237 108.112 122.309 108.112C122.501 108.112 122.733 108.128 123.005 108.16C123.277 108.176 123.549 108.208 123.821 108.256C124.093 108.288 124.365 108.336 124.637 108.4C124.909 108.448 125.141 108.512 125.333 108.592L124.733 111.544ZM127.13 105.232L130.706 104.656V108.376H135.002V111.352H130.706V115.792C130.706 116.544 130.834 117.144 131.09 117.592C131.362 118.04 131.898 118.264 132.698 118.264C133.082 118.264 133.474 118.232 133.874 118.168C134.29 118.088 134.666 117.984 135.002 117.856L135.506 120.64C135.074 120.816 134.594 120.968 134.066 121.096C133.538 121.224 132.89 121.288 132.122 121.288C131.146 121.288 130.338 121.16 129.698 120.904C129.058 120.632 128.546 120.264 128.162 119.8C127.778 119.32 127.506 118.744 127.346 118.072C127.202 117.4 127.13 116.656 127.13 115.84V105.232ZM149.357 108.376C148.637 110.808 147.885 113.088 147.101 115.216C146.317 117.344 145.461 119.408 144.533 121.408C144.197 122.128 143.861 122.736 143.525 123.232C143.189 123.744 142.821 124.16 142.421 124.48C142.021 124.816 141.565 125.056 141.053 125.2C140.557 125.36 139.973 125.44 139.301 125.44C138.741 125.44 138.221 125.384 137.741 125.272C137.277 125.176 136.893 125.064 136.589 124.936L137.213 122.08C137.581 122.208 137.909 122.296 138.197 122.344C138.485 122.392 138.789 122.416 139.109 122.416C139.749 122.416 140.237 122.24 140.573 121.888C140.925 121.552 141.221 121.08 141.461 120.472C140.645 118.872 139.829 117.08 139.013 115.096C138.197 113.096 137.429 110.856 136.709 108.376H140.501C140.661 109 140.845 109.68 141.053 110.416C141.277 111.136 141.509 111.872 141.749 112.624C141.989 113.36 142.229 114.08 142.469 114.784C142.725 115.488 142.965 116.128 143.189 116.704C143.397 116.128 143.613 115.488 143.837 114.784C144.061 114.08 144.277 113.36 144.485 112.624C144.709 111.872 144.917 111.136 145.109 110.416C145.317 109.68 145.501 109 145.661 108.376H149.357ZM29.08 140.144C29.272 140.8 29.48 141.544 29.704 142.376C29.944 143.192 30.192 144.04 30.448 144.92C30.72 145.8 30.992 146.68 31.264 147.56C31.536 148.44 31.8 149.256 32.056 150.008C32.264 149.192 32.472 148.304 32.68 147.344C32.904 146.384 33.112 145.392 33.304 144.368C33.496 143.344 33.68 142.328 33.856 141.32C34.048 140.296 34.224 139.312 34.384 138.368H38.272C37.712 141.152 37.064 143.976 36.328 146.84C35.608 149.704 34.824 152.424 33.976 155H30.544C29.984 153.464 29.44 151.856 28.912 150.176C28.384 148.48 27.864 146.784 27.352 145.088C26.84 146.784 26.328 148.48 25.816 150.176C25.304 151.856 24.768 153.464 24.208 155H20.776C19.928 152.424 19.136 149.704 18.4 146.84C17.68 143.976 17.04 141.152 16.48 138.368H20.536C20.696 139.312 20.872 140.296 21.064 141.32C21.256 142.328 21.456 143.344 21.664 144.368C21.872 145.392 22.08 146.384 22.288 147.344C22.512 148.304 22.736 149.192 22.96 150.008C23.248 149.224 23.528 148.392 23.8 147.512C24.072 146.632 24.336 145.752 24.592 144.872C24.848 143.992 25.08 143.144 25.288 142.328C25.512 141.512 25.712 140.784 25.888 140.144H29.08ZM44.0138 155H40.4378V142.376H44.0138V155ZM44.3498 138.728C44.3498 139.384 44.1338 139.904 43.7018 140.288C43.2858 140.656 42.7898 140.84 42.2138 140.84C41.6378 140.84 41.1338 140.656 40.7018 140.288C40.2858 139.904 40.0778 139.384 40.0778 138.728C40.0778 138.072 40.2858 137.56 40.7018 137.192C41.1338 136.808 41.6378 136.616 42.2138 136.616C42.7898 136.616 43.2858 136.808 43.7018 137.192C44.1338 137.56 44.3498 138.072 44.3498 138.728ZM52.4153 155.24C51.3753 155.224 50.5273 155.112 49.8713 154.904C49.2313 154.696 48.7193 154.408 48.3353 154.04C47.9673 153.656 47.7113 153.2 47.5673 152.672C47.4393 152.128 47.3753 151.52 47.3753 150.848V136.952L50.9513 136.376V150.128C50.9513 150.448 50.9753 150.736 51.0233 150.992C51.0713 151.248 51.1593 151.464 51.2873 151.64C51.4313 151.816 51.6313 151.96 51.8873 152.072C52.1433 152.184 52.4873 152.256 52.9193 152.288L52.4153 155.24ZM60.0091 155.24C58.9691 155.224 58.1211 155.112 57.4651 154.904C56.8251 154.696 56.3131 154.408 55.9291 154.04C55.5611 153.656 55.3051 153.2 55.1611 152.672C55.0331 152.128 54.9691 151.52 54.9691 150.848V136.952L58.5451 136.376V150.128C58.5451 150.448 58.5691 150.736 58.6171 150.992C58.6651 151.248 58.7531 151.464 58.8811 151.64C59.0251 151.816 59.2251 151.96 59.4811 152.072C59.7371 152.184 60.0811 152.256 60.5131 152.288L60.0091 155.24ZM73.4404 138.176C75.9364 138.176 77.8484 138.624 79.1764 139.52C80.5044 140.4 81.1684 141.776 81.1684 143.648C81.1684 144.816 80.8964 145.768 80.3524 146.504C79.8244 147.224 79.0564 147.792 78.0484 148.208C78.3844 148.624 78.7364 149.104 79.1044 149.648C79.4724 150.176 79.8324 150.736 80.1844 151.328C80.5524 151.904 80.9044 152.512 81.2404 153.152C81.5764 153.776 81.8884 154.392 82.1764 155H77.9764C77.6724 154.456 77.3604 153.904 77.0404 153.344C76.7364 152.784 76.4164 152.24 76.0804 151.712C75.7604 151.184 75.4404 150.688 75.1204 150.224C74.8004 149.744 74.4804 149.312 74.1604 148.928H72.3124V155H68.5684V138.608C69.3844 138.448 70.2244 138.336 71.0884 138.272C71.9684 138.208 72.7524 138.176 73.4404 138.176ZM73.6564 141.368C73.3844 141.368 73.1364 141.376 72.9124 141.392C72.7044 141.408 72.5044 141.424 72.3124 141.44V145.952H73.3684C74.7764 145.952 75.7844 145.776 76.3924 145.424C77.0004 145.072 77.3044 144.472 77.3044 143.624C77.3044 142.808 76.9924 142.232 76.3684 141.896C75.7604 141.544 74.8564 141.368 73.6564 141.368ZM83.1269 148.784C83.1269 147.664 83.2949 146.688 83.6309 145.856C83.9829 145.008 84.4389 144.304 84.9989 143.744C85.5589 143.184 86.1989 142.76 86.9189 142.472C87.6549 142.184 88.4069 142.04 89.1749 142.04C90.9669 142.04 92.3829 142.592 93.4229 143.696C94.4629 144.784 94.9829 146.392 94.9829 148.52C94.9829 148.728 94.9749 148.96 94.9589 149.216C94.9429 149.456 94.9269 149.672 94.9109 149.864H86.7989C86.8789 150.6 87.2229 151.184 87.8309 151.616C88.4389 152.048 89.2549 152.264 90.2789 152.264C90.9349 152.264 91.5749 152.208 92.1989 152.096C92.8389 151.968 93.3589 151.816 93.7589 151.64L94.2389 154.544C94.0469 154.64 93.7909 154.736 93.4709 154.832C93.1509 154.928 92.7909 155.008 92.3909 155.072C92.0069 155.152 91.5909 155.216 91.1429 155.264C90.6949 155.312 90.2469 155.336 89.7989 155.336C88.6629 155.336 87.6709 155.168 86.8229 154.832C85.9909 154.496 85.2949 154.04 84.7349 153.464C84.1909 152.872 83.7829 152.176 83.5109 151.376C83.2549 150.576 83.1269 149.712 83.1269 148.784ZM91.5269 147.416C91.5109 147.112 91.4549 146.816 91.3589 146.528C91.2789 146.24 91.1429 145.984 90.9509 145.76C90.7749 145.536 90.5429 145.352 90.2549 145.208C89.9829 145.064 89.6389 144.992 89.2229 144.992C88.8229 144.992 88.4789 145.064 88.1909 145.208C87.9029 145.336 87.6629 145.512 87.4709 145.736C87.2789 145.96 87.1269 146.224 87.0149 146.528C86.9189 146.816 86.8469 147.112 86.7989 147.416H91.5269ZM102.567 152.504C102.919 152.504 103.255 152.496 103.575 152.48C103.895 152.464 104.151 152.44 104.343 152.408V149.696C104.199 149.664 103.983 149.632 103.695 149.6C103.407 149.568 103.143 149.552 102.903 149.552C102.567 149.552 102.247 149.576 101.943 149.624C101.655 149.656 101.399 149.728 101.175 149.84C100.951 149.952 100.775 150.104 100.647 150.296C100.519 150.488 100.455 150.728 100.455 151.016C100.455 151.576 100.639 151.968 101.007 152.192C101.391 152.4 101.911 152.504 102.567 152.504ZM102.279 142.04C103.335 142.04 104.215 142.16 104.919 142.4C105.623 142.64 106.183 142.984 106.599 143.432C107.031 143.88 107.335 144.424 107.511 145.064C107.687 145.704 107.775 146.416 107.775 147.2V154.64C107.263 154.752 106.551 154.88 105.639 155.024C104.727 155.184 103.623 155.264 102.327 155.264C101.511 155.264 100.767 155.192 100.095 155.048C99.4385 154.904 98.8705 154.672 98.3905 154.352C97.9105 154.016 97.5425 153.584 97.2865 153.056C97.0305 152.528 96.9025 151.88 96.9025 151.112C96.9025 150.376 97.0465 149.752 97.3345 149.24C97.6385 148.728 98.0385 148.32 98.5345 148.016C99.0305 147.712 99.5985 147.496 100.239 147.368C100.879 147.224 101.543 147.152 102.23 147.152C102.695 147.152 103.103 147.176 103.455 147.224C103.823 147.256 104.119 147.304 104.343 147.368V147.032C104.343 146.424 104.159 145.936 103.791 145.568C103.423 145.2 102.783 145.016 101.871 145.016C101.263 145.016 100.663 145.064 100.071 145.16C99.4785 145.24 98.9665 145.36 98.5345 145.52L98.0785 142.64C98.2865 142.576 98.5425 142.512 98.8465 142.448C99.1665 142.368 99.5105 142.304 99.8785 142.256C100.247 142.192 100.631 142.144 101.031 142.112C101.447 142.064 101.863 142.04 102.279 142.04ZM119.096 148.784C119.096 147.68 118.848 146.8 118.352 146.144C117.856 145.472 117.12 145.136 116.144 145.136C115.824 145.136 115.528 145.152 115.256 145.184C114.984 145.2 114.76 145.224 114.584 145.256V151.712C114.808 151.856 115.096 151.976 115.448 152.072C115.816 152.168 116.184 152.216 116.552 152.216C118.248 152.216 119.096 151.072 119.096 148.784ZM122.744 148.688C122.744 149.664 122.624 150.552 122.384 151.352C122.144 152.152 121.792 152.84 121.328 153.416C120.864 153.992 120.288 154.44 119.6 154.76C118.912 155.08 118.12 155.24 117.224 155.24C116.728 155.24 116.264 155.192 115.832 155.096C115.4 155 114.984 154.864 114.584 154.688V159.44H111.008V142.808C111.328 142.712 111.696 142.624 112.112 142.544C112.528 142.448 112.96 142.368 113.408 142.304C113.872 142.24 114.336 142.192 114.8 142.16C115.28 142.112 115.736 142.088 116.168 142.088C117.208 142.088 118.136 142.248 118.952 142.568C119.768 142.872 120.456 143.312 121.016 143.888C121.576 144.448 122 145.136 122.288 145.952C122.592 146.768 122.744 147.68 122.744 148.688ZM135.242 151.952C135.418 151.968 135.618 151.984 135.842 152C136.082 152 136.362 152 136.682 152C138.554 152 139.938 151.528 140.834 150.584C141.746 149.64 142.202 148.336 142.202 146.672C142.202 144.928 141.77 143.608 140.906 142.712C140.042 141.816 138.674 141.368 136.802 141.368C136.546 141.368 136.282 141.376 136.01 141.392C135.738 141.392 135.482 141.408 135.242 141.44V151.952ZM146.066 146.672C146.066 148.112 145.842 149.368 145.394 150.44C144.946 151.512 144.306 152.4 143.474 153.104C142.658 153.808 141.658 154.336 140.474 154.688C139.29 155.04 137.962 155.216 136.49 155.216C135.818 155.216 135.034 155.184 134.138 155.12C133.242 155.072 132.362 154.96 131.498 154.784V138.584C132.362 138.424 133.258 138.32 134.186 138.272C135.13 138.208 135.938 138.176 136.61 138.176C138.034 138.176 139.322 138.336 140.474 138.656C141.642 138.976 142.642 139.48 143.474 140.168C144.306 140.856 144.946 141.736 145.394 142.808C145.842 143.88 146.066 145.168 146.066 146.672ZM152.529 155H148.953V142.376H152.529V155ZM152.865 138.728C152.865 139.384 152.649 139.904 152.217 140.288C151.801 140.656 151.305 140.84 150.729 140.84C150.153 140.84 149.649 140.656 149.217 140.288C148.801 139.904 148.593 139.384 148.593 138.728C148.593 138.072 148.801 137.56 149.217 137.192C149.649 136.808 150.153 136.616 150.729 136.616C151.305 136.616 151.801 136.808 152.217 137.192C152.649 137.56 152.865 138.072 152.865 138.728ZM161.363 136.376C162.035 136.376 162.651 136.448 163.211 136.592C163.771 136.72 164.203 136.848 164.507 136.976L163.811 139.832C163.491 139.688 163.139 139.584 162.755 139.52C162.387 139.44 162.043 139.4 161.723 139.4C161.291 139.4 160.923 139.464 160.619 139.592C160.331 139.704 160.099 139.864 159.923 140.072C159.763 140.28 159.643 140.528 159.563 140.816C159.499 141.104 159.467 141.416 159.467 141.752V142.376H163.883V145.352H159.467V155H155.891V141.704C155.891 140.072 156.347 138.776 157.259 137.816C158.187 136.856 159.555 136.376 161.363 136.376ZM171.419 136.376C172.091 136.376 172.707 136.448 173.267 136.592C173.827 136.72 174.259 136.848 174.563 136.976L173.867 139.832C173.547 139.688 173.195 139.584 172.811 139.52C172.443 139.44 172.099 139.4 171.779 139.4C171.347 139.4 170.979 139.464 170.675 139.592C170.387 139.704 170.155 139.864 169.979 140.072C169.819 140.28 169.699 140.528 169.619 140.816C169.555 141.104 169.523 141.416 169.523 141.752V142.376H173.939V145.352H169.523V155H165.947V141.704C165.947 140.072 166.403 138.776 167.315 137.816C168.243 136.856 169.611 136.376 171.419 136.376ZM175.283 148.784C175.283 147.664 175.451 146.688 175.787 145.856C176.139 145.008 176.595 144.304 177.155 143.744C177.715 143.184 178.355 142.76 179.075 142.472C179.811 142.184 180.563 142.04 181.331 142.04C183.123 142.04 184.539 142.592 185.579 143.696C186.619 144.784 187.139 146.392 187.139 148.52C187.139 148.728 187.131 148.96 187.115 149.216C187.099 149.456 187.083 149.672 187.067 149.864H178.955C179.035 150.6 179.379 151.184 179.987 151.616C180.595 152.048 181.411 152.264 182.435 152.264C183.091 152.264 183.731 152.208 184.355 152.096C184.995 151.968 185.515 151.816 185.915 151.64L186.395 154.544C186.203 154.64 185.947 154.736 185.627 154.832C185.307 154.928 184.947 155.008 184.547 155.072C184.163 155.152 183.747 155.216 183.299 155.264C182.851 155.312 182.403 155.336 181.955 155.336C180.819 155.336 179.827 155.168 178.979 154.832C178.147 154.496 177.451 154.04 176.891 153.464C176.347 152.872 175.939 152.176 175.667 151.376C175.411 150.576 175.283 149.712 175.283 148.784ZM183.683 147.416C183.667 147.112 183.611 146.816 183.515 146.528C183.435 146.24 183.299 145.984 183.107 145.76C182.931 145.536 182.699 145.352 182.411 145.208C182.139 145.064 181.795 144.992 181.379 144.992C180.979 144.992 180.635 145.064 180.347 145.208C180.059 145.336 179.819 145.512 179.627 145.736C179.435 145.96 179.283 146.224 179.171 146.528C179.075 146.816 179.003 147.112 178.955 147.416H183.683ZM197.507 145.544C197.187 145.464 196.811 145.384 196.379 145.304C195.947 145.208 195.483 145.16 194.987 145.16C194.763 145.16 194.491 145.184 194.171 145.232C193.867 145.264 193.635 145.304 193.475 145.352V155H189.899V143.048C190.539 142.824 191.291 142.616 192.155 142.424C193.035 142.216 194.011 142.112 195.083 142.112C195.275 142.112 195.507 142.128 195.779 142.16C196.051 142.176 196.323 142.208 196.595 142.256C196.867 142.288 197.139 142.336 197.411 142.4C197.683 142.448 197.915 142.512 198.107 142.592L197.507 145.544ZM199.189 148.784C199.189 147.664 199.357 146.688 199.693 145.856C200.045 145.008 200.501 144.304 201.061 143.744C201.621 143.184 202.261 142.76 202.981 142.472C203.717 142.184 204.469 142.04 205.237 142.04C207.029 142.04 208.445 142.592 209.485 143.696C210.525 144.784 211.045 146.392 211.045 148.52C211.045 148.728 211.037 148.96 211.021 149.216C211.005 149.456 210.989 149.672 210.973 149.864H202.861C202.941 150.6 203.285 151.184 203.893 151.616C204.501 152.048 205.317 152.264 206.341 152.264C206.997 152.264 207.637 152.208 208.261 152.096C208.901 151.968 209.421 151.816 209.821 151.64L210.301 154.544C210.109 154.64 209.853 154.736 209.533 154.832C209.213 154.928 208.853 155.008 208.453 155.072C208.069 155.152 207.653 155.216 207.205 155.264C206.757 155.312 206.309 155.336 205.861 155.336C204.725 155.336 203.733 155.168 202.885 154.832C202.053 154.496 201.357 154.04 200.797 153.464C200.253 152.872 199.845 152.176 199.573 151.376C199.317 150.576 199.189 149.712 199.189 148.784ZM207.589 147.416C207.573 147.112 207.517 146.816 207.421 146.528C207.341 146.24 207.205 145.984 207.013 145.76C206.837 145.536 206.605 145.352 206.317 145.208C206.045 145.064 205.701 144.992 205.285 144.992C204.885 144.992 204.541 145.064 204.253 145.208C203.965 145.336 203.725 145.512 203.533 145.736C203.341 145.96 203.189 146.224 203.077 146.528C202.981 146.816 202.909 147.112 202.861 147.416H207.589ZM213.805 142.808C214.413 142.632 215.197 142.472 216.157 142.328C217.117 142.168 218.125 142.088 219.181 142.088C220.253 142.088 221.141 142.232 221.845 142.52C222.565 142.792 223.133 143.184 223.549 143.696C223.965 144.208 224.261 144.816 224.437 145.52C224.613 146.224 224.701 147.008 224.701 147.872V155H221.125V148.304C221.125 147.152 220.973 146.336 220.669 145.856C220.365 145.376 219.797 145.136 218.965 145.136C218.709 145.136 218.437 145.152 218.149 145.184C217.861 145.2 217.605 145.224 217.381 145.256V155H213.805V142.808ZM227.818 139.232L231.394 138.656V142.376H235.69V145.352H231.394V149.792C231.394 150.544 231.522 151.144 231.778 151.592C232.05 152.04 232.586 152.264 233.386 152.264C233.77 152.264 234.162 152.232 234.562 152.168C234.978 152.088 235.354 151.984 235.69 151.856L236.194 154.64C235.762 154.816 235.282 154.968 234.754 155.096C234.226 155.224 233.578 155.288 232.81 155.288C231.834 155.288 231.026 155.16 230.386 154.904C229.746 154.632 229.234 154.264 228.85 153.8C228.466 153.32 228.194 152.744 228.034 152.072C227.89 151.4 227.818 150.656 227.818 149.84V139.232Z" fill="white"/>
<path d="M27.952 172.368H31.696V189H27.952V181.944H21.664V189H17.92V172.368H21.664V178.728H27.952V172.368ZM40.129 186.504C40.481 186.504 40.817 186.496 41.137 186.48C41.457 186.464 41.713 186.44 41.905 186.408V183.696C41.761 183.664 41.545 183.632 41.257 183.6C40.969 183.568 40.705 183.552 40.465 183.552C40.129 183.552 39.809 183.576 39.505 183.624C39.217 183.656 38.961 183.728 38.737 183.84C38.513 183.952 38.337 184.104 38.209 184.296C38.081 184.488 38.017 184.728 38.017 185.016C38.017 185.576 38.201 185.968 38.569 186.192C38.953 186.4 39.473 186.504 40.129 186.504ZM39.841 176.04C40.897 176.04 41.777 176.16 42.481 176.4C43.185 176.64 43.745 176.984 44.161 177.432C44.593 177.88 44.897 178.424 45.073 179.064C45.249 179.704 45.337 180.416 45.337 181.2V188.64C44.825 188.752 44.113 188.88 43.201 189.024C42.289 189.184 41.185 189.264 39.889 189.264C39.073 189.264 38.329 189.192 37.657 189.048C37.001 188.904 36.433 188.672 35.953 188.352C35.473 188.016 35.105 187.584 34.849 187.056C34.593 186.528 34.465 185.88 34.465 185.112C34.465 184.376 34.609 183.752 34.897 183.24C35.201 182.728 35.601 182.32 36.097 182.016C36.593 181.712 37.161 181.496 37.801 181.368C38.441 181.224 39.105 181.152 39.793 181.152C40.257 181.152 40.665 181.176 41.017 181.224C41.385 181.256 41.681 181.304 41.905 181.368V181.032C41.905 180.424 41.721 179.936 41.353 179.568C40.985 179.2 40.345 179.016 39.433 179.016C38.825 179.016 38.225 179.064 37.633 179.16C37.041 179.24 36.529 179.36 36.097 179.52L35.641 176.64C35.849 176.576 36.105 176.512 36.409 176.448C36.729 176.368 37.073 176.304 37.441 176.256C37.809 176.192 38.193 176.144 38.593 176.112C39.009 176.064 39.425 176.04 39.841 176.04ZM56.6586 182.784C56.6586 181.68 56.4106 180.8 55.9146 180.144C55.4186 179.472 54.6826 179.136 53.7066 179.136C53.3866 179.136 53.0906 179.152 52.8186 179.184C52.5466 179.2 52.3226 179.224 52.1466 179.256V185.712C52.3706 185.856 52.6586 185.976 53.0106 186.072C53.3786 186.168 53.7466 186.216 54.1146 186.216C55.8106 186.216 56.6586 185.072 56.6586 182.784ZM60.3066 182.688C60.3066 183.664 60.1866 184.552 59.9466 185.352C59.7066 186.152 59.3546 186.84 58.8906 187.416C58.4266 187.992 57.8506 188.44 57.1626 188.76C56.4746 189.08 55.6826 189.24 54.7866 189.24C54.2906 189.24 53.8266 189.192 53.3946 189.096C52.9626 189 52.5466 188.864 52.1466 188.688V193.44H48.5706V176.808C48.8906 176.712 49.2586 176.624 49.6746 176.544C50.0906 176.448 50.5226 176.368 50.9706 176.304C51.4346 176.24 51.8986 176.192 52.3626 176.16C52.8426 176.112 53.2986 176.088 53.7306 176.088C54.7706 176.088 55.6986 176.248 56.5146 176.568C57.3306 176.872 58.0186 177.312 58.5786 177.888C59.1386 178.448 59.5626 179.136 59.8506 179.952C60.1546 180.768 60.3066 181.68 60.3066 182.688ZM71.143 182.784C71.143 181.68 70.895 180.8 70.399 180.144C69.903 179.472 69.167 179.136 68.191 179.136C67.871 179.136 67.575 179.152 67.303 179.184C67.031 179.2 66.807 179.224 66.631 179.256V185.712C66.855 185.856 67.143 185.976 67.495 186.072C67.863 186.168 68.231 186.216 68.599 186.216C70.295 186.216 71.143 185.072 71.143 182.784ZM74.791 182.688C74.791 183.664 74.671 184.552 74.431 185.352C74.191 186.152 73.839 186.84 73.375 187.416C72.911 187.992 72.335 188.44 71.647 188.76C70.959 189.08 70.167 189.24 69.271 189.24C68.775 189.24 68.311 189.192 67.879 189.096C67.447 189 67.031 188.864 66.631 188.688V193.44H63.055V176.808C63.375 176.712 63.743 176.624 64.159 176.544C64.575 176.448 65.007 176.368 65.455 176.304C65.919 176.24 66.383 176.192 66.847 176.16C67.327 176.112 67.783 176.088 68.215 176.088C69.255 176.088 70.183 176.248 70.999 176.568C71.815 176.872 72.503 177.312 73.063 177.888C73.623 178.448 74.047 179.136 74.335 179.952C74.639 180.768 74.791 181.68 74.791 182.688ZM81.1154 189H77.5394V176.376H81.1154V189ZM81.4514 172.728C81.4514 173.384 81.2354 173.904 80.8034 174.288C80.3874 174.656 79.8914 174.84 79.3154 174.84C78.7394 174.84 78.2354 174.656 77.8034 174.288C77.3874 173.904 77.1794 173.384 77.1794 172.728C77.1794 172.072 77.3874 171.56 77.8034 171.192C78.2354 170.808 78.7394 170.616 79.3154 170.616C79.8914 170.616 80.3874 170.808 80.8034 171.192C81.2354 171.56 81.4514 172.072 81.4514 172.728ZM84.4769 176.808C85.0849 176.632 85.8689 176.472 86.8289 176.328C87.7889 176.168 88.7969 176.088 89.8529 176.088C90.9249 176.088 91.8129 176.232 92.5169 176.52C93.2369 176.792 93.8049 177.184 94.2209 177.696C94.6369 178.208 94.9329 178.816 95.1089 179.52C95.2849 180.224 95.3729 181.008 95.3729 181.872V189H91.7969V182.304C91.7969 181.152 91.6449 180.336 91.3409 179.856C91.0369 179.376 90.4689 179.136 89.6369 179.136C89.3809 179.136 89.1089 179.152 88.8209 179.184C88.5329 179.2 88.2769 179.224 88.0529 179.256V189H84.4769V176.808ZM98.0097 182.784C98.0097 181.664 98.1777 180.688 98.5137 179.856C98.8657 179.008 99.3217 178.304 99.8817 177.744C100.442 177.184 101.082 176.76 101.802 176.472C102.538 176.184 103.29 176.04 104.058 176.04C105.85 176.04 107.266 176.592 108.306 177.696C109.346 178.784 109.866 180.392 109.866 182.52C109.866 182.728 109.858 182.96 109.842 183.216C109.826 183.456 109.81 183.672 109.794 183.864H101.682C101.762 184.6 102.106 185.184 102.714 185.616C103.322 186.048 104.138 186.264 105.162 186.264C105.818 186.264 106.458 186.208 107.082 186.096C107.722 185.968 108.242 185.816 108.642 185.64L109.122 188.544C108.93 188.64 108.674 188.736 108.354 188.832C108.034 188.928 107.674 189.008 107.274 189.072C106.89 189.152 106.474 189.216 106.026 189.264C105.578 189.312 105.13 189.336 104.682 189.336C103.546 189.336 102.554 189.168 101.706 188.832C100.874 188.496 100.178 188.04 99.6177 187.464C99.0737 186.872 98.6657 186.176 98.3937 185.376C98.1377 184.576 98.0097 183.712 98.0097 182.784ZM106.41 181.416C106.394 181.112 106.338 180.816 106.242 180.528C106.162 180.24 106.026 179.984 105.834 179.76C105.658 179.536 105.426 179.352 105.138 179.208C104.866 179.064 104.522 178.992 104.106 178.992C103.706 178.992 103.362 179.064 103.074 179.208C102.786 179.336 102.546 179.512 102.354 179.736C102.162 179.96 102.01 180.224 101.898 180.528C101.802 180.816 101.73 181.112 101.682 181.416H106.41ZM116.249 186.432C116.905 186.432 117.369 186.368 117.641 186.24C117.913 186.112 118.049 185.864 118.049 185.496C118.049 185.208 117.873 184.96 117.521 184.752C117.169 184.528 116.633 184.28 115.913 184.008C115.353 183.8 114.841 183.584 114.377 183.36C113.929 183.136 113.545 182.872 113.225 182.568C112.905 182.248 112.657 181.872 112.481 181.44C112.305 181.008 112.217 180.488 112.217 179.88C112.217 178.696 112.657 177.76 113.537 177.072C114.417 176.384 115.625 176.04 117.161 176.04C117.929 176.04 118.665 176.112 119.369 176.256C120.073 176.384 120.633 176.528 121.049 176.688L120.425 179.472C120.009 179.328 119.553 179.2 119.057 179.088C118.577 178.976 118.033 178.92 117.425 178.92C116.305 178.92 115.745 179.232 115.745 179.856C115.745 180 115.769 180.128 115.817 180.24C115.865 180.352 115.961 180.464 116.105 180.576C116.249 180.672 116.441 180.784 116.681 180.912C116.937 181.024 117.257 181.152 117.641 181.296C118.425 181.584 119.073 181.872 119.585 182.16C120.097 182.432 120.497 182.736 120.785 183.072C121.089 183.392 121.297 183.752 121.409 184.152C121.537 184.552 121.601 185.016 121.601 185.544C121.601 186.792 121.129 187.736 120.185 188.376C119.257 189.016 117.937 189.336 116.225 189.336C115.105 189.336 114.169 189.24 113.417 189.048C112.681 188.856 112.169 188.696 111.881 188.568L112.481 185.664C113.089 185.904 113.713 186.096 114.353 186.24C114.993 186.368 115.625 186.432 116.249 186.432ZM127.898 186.432C128.554 186.432 129.018 186.368 129.29 186.24C129.562 186.112 129.698 185.864 129.698 185.496C129.698 185.208 129.522 184.96 129.17 184.752C128.818 184.528 128.282 184.28 127.562 184.008C127.002 183.8 126.49 183.584 126.026 183.36C125.578 183.136 125.194 182.872 124.874 182.568C124.554 182.248 124.306 181.872 124.13 181.44C123.954 181.008 123.866 180.488 123.866 179.88C123.866 178.696 124.306 177.76 125.186 177.072C126.066 176.384 127.274 176.04 128.81 176.04C129.578 176.04 130.314 176.112 131.018 176.256C131.722 176.384 132.282 176.528 132.698 176.688L132.074 179.472C131.658 179.328 131.202 179.2 130.706 179.088C130.226 178.976 129.682 178.92 129.074 178.92C127.954 178.92 127.394 179.232 127.394 179.856C127.394 180 127.418 180.128 127.466 180.24C127.514 180.352 127.61 180.464 127.754 180.576C127.898 180.672 128.09 180.784 128.33 180.912C128.586 181.024 128.906 181.152 129.29 181.296C130.074 181.584 130.722 181.872 131.234 182.16C131.746 182.432 132.146 182.736 132.434 183.072C132.738 183.392 132.946 183.752 133.058 184.152C133.186 184.552 133.25 185.016 133.25 185.544C133.25 186.792 132.778 187.736 131.834 188.376C130.906 189.016 129.586 189.336 127.874 189.336C126.754 189.336 125.818 189.24 125.066 189.048C124.33 188.856 123.818 188.696 123.53 188.568L124.13 185.664C124.738 185.904 125.362 186.096 126.002 186.24C126.642 186.368 127.274 186.432 127.898 186.432ZM139.426 187.104C139.426 187.824 139.194 188.376 138.73 188.76C138.282 189.128 137.77 189.312 137.194 189.312C136.618 189.312 136.098 189.128 135.634 188.76C135.186 188.376 134.962 187.824 134.962 187.104C134.962 186.384 135.186 185.84 135.634 185.472C136.098 185.088 136.618 184.896 137.194 184.896C137.77 184.896 138.282 185.088 138.73 185.472C139.194 185.84 139.426 186.384 139.426 187.104Z" fill="#EFBE10"/>
<defs>
<linearGradient id="paint0_linear_1154_302" x1="115.5" y1="446" x2="146.5" y2="-50" gradientUnits="userSpaceOnUse">
<stop stop-color="#AD00DF"/>
<stop offset="1" stop-color="#3E0050"/>
</linearGradient>
<linearGradient id="paint1_linear_1154_302" x1="227.26" y1="202.861" x2="224.633" y2="205.845" gradientUnits="userSpaceOnUse">
<stop stop-color="#FF5C5C"/>
<stop offset="0.3" stop-color="#F34444"/>
<stop offset="0.93" stop-color="#D60606"/>
<stop offset="1" stop-color="#D30000"/>
</linearGradient>
<linearGradient id="paint2_linear_1154_302" x1="303.613" y1="229.853" x2="306.091" y2="229.126" gradientUnits="userSpaceOnUse">
<stop stop-color="#FF5C5C"/>
<stop offset="0.3" stop-color="#F34444"/>
<stop offset="0.93" stop-color="#D60606"/>
<stop offset="1" stop-color="#D30000"/>
</linearGradient>
<linearGradient id="paint3_linear_1154_302" x1="299.674" y1="177.79" x2="301.044" y2="180.363" gradientUnits="userSpaceOnUse">
<stop stop-color="#FF5C5C"/>
<stop offset="0.3" stop-color="#F34444"/>
<stop offset="0.93" stop-color="#D60606"/>
<stop offset="1" stop-color="#D30000"/>
</linearGradient>
<linearGradient id="paint4_linear_1154_302" x1="275.111" y1="218.468" x2="273.603" y2="222.776" gradientUnits="userSpaceOnUse">
<stop stop-color="#FF5C5C"/>
<stop offset="0.3" stop-color="#F34444"/>
<stop offset="0.93" stop-color="#D60606"/>
<stop offset="1" stop-color="#D30000"/>
</linearGradient>
<linearGradient id="paint5_linear_1154_302" x1="274.372" y1="210.299" x2="277.268" y2="212.502" gradientUnits="userSpaceOnUse">
<stop stop-color="#FC9512"/>
<stop offset="0.68" stop-color="#FED319"/>
<stop offset="1" stop-color="#FFEB1C"/>
</linearGradient>
<linearGradient id="paint6_linear_1154_302" x1="296.669" y1="147.089" x2="298.21" y2="151.436" gradientUnits="userSpaceOnUse">
<stop stop-color="#FC9512"/>
<stop offset="0.68" stop-color="#FED319"/>
<stop offset="1" stop-color="#FFEB1C"/>
</linearGradient>
<linearGradient id="paint7_linear_1154_302" x1="312.578" y1="141.873" x2="317.848" y2="141.715" gradientUnits="userSpaceOnUse">
<stop stop-color="#FC9512"/>
<stop offset="0.68" stop-color="#FED319"/>
<stop offset="1" stop-color="#FFEB1C"/>
</linearGradient>
<linearGradient id="paint8_linear_1154_302" x1="276.687" y1="120.111" x2="273.569" y2="121.752" gradientUnits="userSpaceOnUse">
<stop stop-color="#FC9512"/>
<stop offset="0.68" stop-color="#FED319"/>
<stop offset="1" stop-color="#FFEB1C"/>
</linearGradient>
<linearGradient id="paint9_linear_1154_302" x1="275.184" y1="157.366" x2="274.72" y2="160.637" gradientUnits="userSpaceOnUse">
<stop stop-color="#FF3EB9"/>
<stop offset="0.04" stop-color="#FF43BB"/>
<stop offset="0.7" stop-color="#FF97E2"/>
<stop offset="1" stop-color="#FFB9F2"/>
</linearGradient>
<linearGradient id="paint10_linear_1154_302" x1="280.838" y1="248.361" x2="279.311" y2="246.65" gradientUnits="userSpaceOnUse">
<stop stop-color="#FF3EB9"/>
<stop offset="0.04" stop-color="#FF43BB"/>
<stop offset="0.7" stop-color="#FF97E2"/>
<stop offset="1" stop-color="#FFB9F2"/>
</linearGradient>
<linearGradient id="paint11_linear_1154_302" x1="276.873" y1="168.91" x2="276.931" y2="163.439" gradientUnits="userSpaceOnUse">
<stop stop-color="#FF3EB9"/>
<stop offset="0.04" stop-color="#FF43BB"/>
<stop offset="0.7" stop-color="#FF97E2"/>
<stop offset="1" stop-color="#FFB9F2"/>
</linearGradient>
<linearGradient id="paint12_linear_1154_302" x1="230.116" y1="170.591" x2="230.898" y2="172.964" gradientUnits="userSpaceOnUse">
<stop stop-color="#FF3EB9"/>
<stop offset="0.04" stop-color="#FF43BB"/>
<stop offset="0.7" stop-color="#FF97E2"/>
<stop offset="1" stop-color="#FFB9F2"/>
</linearGradient>
<linearGradient id="paint13_linear_1154_302" x1="282.856" y1="196.109" x2="281.428" y2="198.671" gradientUnits="userSpaceOnUse">
<stop stop-color="#FF3EB9"/>
<stop offset="0.04" stop-color="#FF43BB"/>
<stop offset="0.7" stop-color="#FF97E2"/>
<stop offset="1" stop-color="#FFB9F2"/>
</linearGradient>
<linearGradient id="paint14_linear_1154_302" x1="325.354" y1="128.722" x2="327.121" y2="131.897" gradientUnits="userSpaceOnUse">
<stop stop-color="#00EE98"/>
<stop offset="0.28" stop-color="#00D685"/>
<stop offset="0.87" stop-color="#009854"/>
<stop offset="1" stop-color="#008A49"/>
</linearGradient>
<linearGradient id="paint15_linear_1154_302" x1="275.295" y1="207.561" x2="275.449" y2="205.211" gradientUnits="userSpaceOnUse">
<stop stop-color="#00EE98"/>
<stop offset="0.28" stop-color="#00D685"/>
<stop offset="0.87" stop-color="#009854"/>
<stop offset="1" stop-color="#008A49"/>
</linearGradient>
<linearGradient id="paint16_linear_1154_302" x1="308.742" y1="230.755" x2="310.411" y2="233.584" gradientUnits="userSpaceOnUse">
<stop stop-color="#00EE98"/>
<stop offset="0.28" stop-color="#00D685"/>
<stop offset="0.87" stop-color="#009854"/>
<stop offset="1" stop-color="#008A49"/>
</linearGradient>
<linearGradient id="paint17_linear_1154_302" x1="297.27" y1="197.377" x2="295.66" y2="198.182" gradientUnits="userSpaceOnUse">
<stop stop-color="#00EE98"/>
<stop offset="0.28" stop-color="#00D685"/>
<stop offset="0.87" stop-color="#009854"/>
<stop offset="1" stop-color="#008A49"/>
</linearGradient>
<linearGradient id="paint18_linear_1154_302" x1="324.564" y1="249.646" x2="321.639" y2="251.676" gradientUnits="userSpaceOnUse">
<stop stop-color="#00EE98"/>
<stop offset="0.28" stop-color="#00D685"/>
<stop offset="0.87" stop-color="#009854"/>
<stop offset="1" stop-color="#008A49"/>
</linearGradient>
<linearGradient id="paint19_linear_1154_302" x1="309.947" y1="185.24" x2="309.056" y2="187.911" gradientUnits="userSpaceOnUse">
<stop stop-color="#00EE98"/>
<stop offset="0.28" stop-color="#00D685"/>
<stop offset="0.87" stop-color="#009854"/>
<stop offset="1" stop-color="#008A49"/>
</linearGradient>
<linearGradient id="paint20_linear_1154_302" x1="337.87" y1="159.83" x2="338.29" y2="162.442" gradientUnits="userSpaceOnUse">
<stop stop-color="#00EE98"/>
<stop offset="0.28" stop-color="#00D685"/>
<stop offset="0.87" stop-color="#009854"/>
<stop offset="1" stop-color="#008A49"/>
</linearGradient>
<linearGradient id="paint21_linear_1154_302" x1="322" y1="161.799" x2="331.756" y2="161.799" gradientUnits="userSpaceOnUse">
<stop stop-color="#4D8EFF"/>
<stop offset="0.43" stop-color="#3E76FF"/>
<stop offset="1" stop-color="#2850FF"/>
</linearGradient>
<linearGradient id="paint22_linear_1154_302" x1="321.506" y1="190.957" x2="338.31" y2="187.731" gradientUnits="userSpaceOnUse">
<stop stop-color="#4D8EFF"/>
<stop offset="0.43" stop-color="#3E76FF"/>
<stop offset="1" stop-color="#2850FF"/>
</linearGradient>
<linearGradient id="paint23_linear_1154_302" x1="319.493" y1="175.855" x2="341.638" y2="167.19" gradientUnits="userSpaceOnUse">
<stop stop-color="#4D8EFF"/>
<stop offset="0.43" stop-color="#3E76FF"/>
<stop offset="1" stop-color="#2850FF"/>
</linearGradient>
<linearGradient id="paint24_linear_1154_302" x1="325.954" y1="181.606" x2="330.591" y2="181.606" gradientUnits="userSpaceOnUse">
<stop stop-color="#4D8EFF"/>
<stop offset="0.43" stop-color="#3E76FF"/>
<stop offset="1" stop-color="#2850FF"/>
</linearGradient>
<linearGradient id="paint25_linear_1154_302" x1="324.518" y1="198.885" x2="336.145" y2="199.992" gradientUnits="userSpaceOnUse">
<stop stop-color="#4D8EFF"/>
<stop offset="0.43" stop-color="#3E76FF"/>
<stop offset="1" stop-color="#2850FF"/>
</linearGradient>
<linearGradient id="paint26_linear_1154_302" x1="268.365" y1="93.21" x2="286.464" y2="93.21" gradientUnits="userSpaceOnUse">
<stop stop-color="#FF5C5C"/>
<stop offset="0.3" stop-color="#F34444"/>
<stop offset="0.93" stop-color="#D60606"/>
<stop offset="1" stop-color="#D30000"/>
</linearGradient>
<linearGradient id="paint27_linear_1154_302" x1="273.566" y1="154.127" x2="293.406" y2="158.047" gradientUnits="userSpaceOnUse">
<stop stop-color="#FF5C5C"/>
<stop offset="0.3" stop-color="#F34444"/>
<stop offset="0.93" stop-color="#D60606"/>
<stop offset="1" stop-color="#D30000"/>
</linearGradient>
<linearGradient id="paint28_linear_1154_302" x1="269.153" y1="104.678" x2="300.619" y2="112.884" gradientUnits="userSpaceOnUse">
<stop stop-color="#FF5C5C"/>
<stop offset="0.3" stop-color="#F34444"/>
<stop offset="0.93" stop-color="#D60606"/>
<stop offset="1" stop-color="#D30000"/>
</linearGradient>
<linearGradient id="paint29_linear_1154_302" x1="272.613" y1="128.532" x2="304.078" y2="137.868" gradientUnits="userSpaceOnUse">
<stop stop-color="#FF5C5C"/>
<stop offset="0.3" stop-color="#F34444"/>
<stop offset="0.93" stop-color="#D60606"/>
<stop offset="1" stop-color="#D30000"/>
</linearGradient>
<linearGradient id="paint30_linear_1154_302" x1="275.79" y1="143.952" x2="287.782" y2="143.952" gradientUnits="userSpaceOnUse">
<stop stop-color="#FF5C5C"/>
<stop offset="0.3" stop-color="#F34444"/>
<stop offset="0.93" stop-color="#D60606"/>
<stop offset="1" stop-color="#D30000"/>
</linearGradient>
<linearGradient id="paint31_linear_1154_302" x1="275.084" y1="119.887" x2="287.841" y2="119.887" gradientUnits="userSpaceOnUse">
<stop stop-color="#FF5C5C"/>
<stop offset="0.3" stop-color="#F34444"/>
<stop offset="0.93" stop-color="#D60606"/>
<stop offset="1" stop-color="#D30000"/>
</linearGradient>
<linearGradient id="paint32_linear_1154_302" x1="248.995" y1="150.245" x2="261.281" y2="150.245" gradientUnits="userSpaceOnUse">
<stop stop-color="#00EE98"/>
<stop offset="0.28" stop-color="#00D685"/>
<stop offset="0.87" stop-color="#009854"/>
<stop offset="1" stop-color="#008A49"/>
</linearGradient>
<linearGradient id="paint33_linear_1154_302" x1="250.925" y1="200.093" x2="270.294" y2="204.143" gradientUnits="userSpaceOnUse">
<stop stop-color="#00EE98"/>
<stop offset="0.28" stop-color="#00D685"/>
<stop offset="0.87" stop-color="#009854"/>
<stop offset="1" stop-color="#008A49"/>
</linearGradient>
<linearGradient id="paint34_linear_1154_302" x1="244.04" y1="141.141" x2="267.894" y2="141.412" gradientUnits="userSpaceOnUse">
<stop stop-color="#00EE98"/>
<stop offset="0.28" stop-color="#00D685"/>
<stop offset="0.87" stop-color="#009854"/>
<stop offset="1" stop-color="#008A49"/>
</linearGradient>
<linearGradient id="paint35_linear_1154_302" x1="244.217" y1="180.25" x2="271.435" y2="186.478" gradientUnits="userSpaceOnUse">
<stop stop-color="#00EE98"/>
<stop offset="0.28" stop-color="#00D685"/>
<stop offset="0.87" stop-color="#009854"/>
<stop offset="1" stop-color="#008A49"/>
</linearGradient>
<linearGradient id="paint36_linear_1154_302" x1="256.291" y1="194.059" x2="261.528" y2="194.059" gradientUnits="userSpaceOnUse">
<stop stop-color="#00EE98"/>
<stop offset="0.28" stop-color="#00D685"/>
<stop offset="0.87" stop-color="#009854"/>
<stop offset="1" stop-color="#008A49"/>
</linearGradient>
<linearGradient id="paint37_linear_1154_302" x1="252.149" y1="172.64" x2="264.399" y2="172.64" gradientUnits="userSpaceOnUse">
<stop stop-color="#00EE98"/>
<stop offset="0.28" stop-color="#00D685"/>
<stop offset="0.87" stop-color="#009854"/>
<stop offset="1" stop-color="#008A49"/>
</linearGradient>
<linearGradient id="paint38_linear_1154_302" x1="239.875" y1="157.996" x2="275.884" y2="164.142" gradientUnits="userSpaceOnUse">
<stop stop-color="#00EE98"/>
<stop offset="0.28" stop-color="#00D685"/>
<stop offset="0.87" stop-color="#009854"/>
<stop offset="1" stop-color="#008A49"/>
</linearGradient>
<linearGradient id="paint39_linear_1154_302" x1="353.367" y1="179.341" x2="356.843" y2="176.338" gradientUnits="userSpaceOnUse">
<stop stop-color="#4D8EFF"/>
<stop offset="0.43" stop-color="#3E76FF"/>
<stop offset="1" stop-color="#2850FF"/>
</linearGradient>
<linearGradient id="paint40_linear_1154_302" x1="352.136" y1="261.113" x2="349.031" y2="255.959" gradientUnits="userSpaceOnUse">
<stop stop-color="#4D8EFF"/>
<stop offset="0.43" stop-color="#3E76FF"/>
<stop offset="1" stop-color="#2850FF"/>
</linearGradient>
<linearGradient id="paint41_linear_1154_302" x1="376.812" y1="216.941" x2="374.009" y2="215.42" gradientUnits="userSpaceOnUse">
<stop stop-color="#FC9512"/>
<stop offset="0.68" stop-color="#FED319"/>
<stop offset="1" stop-color="#FFEB1C"/>
</linearGradient>
<clipPath id="clip0_1154_302">
<rect width="129" height="167" fill="white" transform="translate(225 85)"/>
</clipPath>
</defs>
</svg>
