<svg width="360" height="646" viewBox="0 0 360 646" fill="none" xmlns="http://www.w3.org/2000/svg">
<path fill-rule="evenodd" clip-rule="evenodd" d="M360 -28H1.21656e-08V480.022C-9.74578 480.07 -15.2752 480.198 -15.2752 480.424V600.531C-15.8483 600.531 -16.4214 600.531 -17.1856 600.722C-18.5229 600.913 -19.478 601.486 -20.2422 602.25C-24.445 604.541 -23.8719 611.797 -18.3318 611.224C-8.73701 609.991 -0.617397 614.263 7.50884 618.538C10.7085 620.222 13.9091 621.906 17.2012 623.254C29.0455 628.028 40.6988 626.691 53.1163 625.164C60.3757 624.209 67.8262 623.636 74.8946 625.737C81.2167 627.667 86.8931 631.051 92.5174 634.403C93.0113 634.697 93.5048 634.991 93.9984 635.284C105.27 641.585 116.923 645.786 129.913 645.404C141.446 645.05 151.165 640.742 161.521 636.153C162.316 635.801 163.115 635.447 163.918 635.093C176.647 629.439 187.307 631.278 199.514 633.384C202.147 633.838 204.852 634.305 207.666 634.711C221.827 636.654 233.925 630.529 246.046 624.393C258.943 617.863 271.867 611.321 287.329 614.471C292.638 615.545 297.592 617.14 302.483 618.714C311.495 621.615 320.292 624.446 330.694 623.827C347.314 622.872 363.362 617.144 378.836 611.034C384.376 608.933 382.274 600.34 376.925 601.677V483.67C376.925 483.67 370.769 483.589 360 483.452V-28Z" fill="url(#paint0_linear_1143_296)"/>
<path d="M22.3398 12.7109C22.3398 13.4023 22.2852 14.0215 22.1758 14.5684C22.0703 15.1113 21.9023 15.5723 21.6719 15.9512C21.4414 16.3301 21.1406 16.6191 20.7695 16.8184C20.3984 17.0176 19.9492 17.1172 19.4219 17.1172C18.7617 17.1172 18.2168 16.9434 17.7871 16.5957C17.3574 16.2441 17.0391 15.7402 16.832 15.084C16.625 14.4238 16.5215 13.6328 16.5215 12.7109C16.5215 11.7891 16.6152 11 16.8027 10.3438C16.9941 9.68359 17.3027 9.17773 17.7285 8.82617C18.1543 8.47461 18.7188 8.29883 19.4219 8.29883C20.0859 8.29883 20.6328 8.47461 21.0625 8.82617C21.4961 9.17383 21.8164 9.67773 22.0234 10.3379C22.2344 10.9941 22.3398 11.7852 22.3398 12.7109ZM17.9102 12.7109C17.9102 13.4336 17.957 14.0371 18.0508 14.5215C18.1484 15.0059 18.3086 15.3691 18.5312 15.6113C18.7539 15.8496 19.0508 15.9688 19.4219 15.9688C19.793 15.9688 20.0898 15.8496 20.3125 15.6113C20.5352 15.373 20.6953 15.0117 20.793 14.5273C20.8945 14.043 20.9453 13.4375 20.9453 12.7109C20.9453 11.9922 20.8965 11.3906 20.7988 10.9062C20.7012 10.4219 20.541 10.0586 20.3184 9.81641C20.0957 9.57031 19.7969 9.44727 19.4219 9.44727C19.0469 9.44727 18.748 9.57031 18.5254 9.81641C18.3066 10.0586 18.1484 10.4219 18.0508 10.9062C17.957 11.3906 17.9102 11.9922 17.9102 12.7109ZM29.1953 12.084C29.1953 12.5918 29.1582 13.0898 29.084 13.5781C29.0137 14.0664 28.8887 14.5234 28.709 14.9492C28.5332 15.375 28.2891 15.752 27.9766 16.0801C27.668 16.4043 27.2773 16.6582 26.8047 16.8418C26.332 17.0254 25.7617 17.1172 25.0938 17.1172C24.9258 17.1172 24.7305 17.1074 24.5078 17.0879C24.2891 17.0723 24.1094 17.0488 23.9688 17.0176V15.8691C24.1172 15.9121 24.2832 15.9473 24.4668 15.9746C24.6543 15.998 24.8398 16.0098 25.0234 16.0098C25.7461 16.0098 26.3086 15.875 26.7109 15.6055C27.1172 15.3359 27.4043 14.9648 27.5723 14.4922C27.7441 14.0195 27.8418 13.4824 27.8652 12.8809H27.7949C27.6816 13.0684 27.5391 13.2402 27.3672 13.3965C27.1953 13.5488 26.9824 13.6719 26.7285 13.7656C26.4746 13.8555 26.166 13.9004 25.8027 13.9004C25.3105 13.9004 24.8809 13.7969 24.5137 13.5898C24.1504 13.3828 23.8672 13.082 23.6641 12.6875C23.4648 12.2891 23.3652 11.8105 23.3652 11.252C23.3652 10.6465 23.4805 10.125 23.7109 9.6875C23.9414 9.25 24.2676 8.91406 24.6895 8.67969C25.1113 8.44141 25.6074 8.32227 26.1777 8.32227C26.6074 8.32227 27.0039 8.40039 27.3672 8.55664C27.7344 8.70898 28.0547 8.94336 28.3281 9.25977C28.6016 9.57227 28.8145 9.96484 28.9668 10.4375C29.1191 10.9062 29.1953 11.4551 29.1953 12.084ZM26.1953 9.45898C25.7617 9.45898 25.4082 9.60547 25.1348 9.89844C24.8613 10.1875 24.7246 10.6328 24.7246 11.2344C24.7246 11.7227 24.8418 12.1094 25.0762 12.3945C25.3105 12.6797 25.6699 12.8223 26.1543 12.8223C26.4902 12.8223 26.7793 12.7539 27.0215 12.6172C27.2676 12.4766 27.457 12.2988 27.5898 12.084C27.7266 11.8691 27.7949 11.6504 27.7949 11.4277C27.7949 11.1973 27.7617 10.9668 27.6953 10.7363C27.6328 10.5059 27.5352 10.2949 27.4023 10.1035C27.2695 9.91211 27.1016 9.75781 26.8984 9.64062C26.6992 9.51953 26.4648 9.45898 26.1953 9.45898ZM30.5195 16.2734C30.5195 15.9531 30.6016 15.7285 30.7656 15.5996C30.9336 15.4668 31.1367 15.4004 31.375 15.4004C31.6133 15.4004 31.8164 15.4668 31.9844 15.5996C32.1562 15.7285 32.2422 15.9531 32.2422 16.2734C32.2422 16.5859 32.1562 16.8125 31.9844 16.9531C31.8164 17.0898 31.6133 17.1582 31.375 17.1582C31.1367 17.1582 30.9336 17.0898 30.7656 16.9531C30.6016 16.8125 30.5195 16.5859 30.5195 16.2734ZM30.5195 11.2578C30.5195 10.9336 30.6016 10.7051 30.7656 10.5723C30.9336 10.4395 31.1367 10.373 31.375 10.373C31.6133 10.373 31.8164 10.4395 31.9844 10.5723C32.1562 10.7051 32.2422 10.9336 32.2422 11.2578C32.2422 11.5664 32.1562 11.791 31.9844 11.9316C31.8164 12.0684 31.6133 12.1367 31.375 12.1367C31.1367 12.1367 30.9336 12.0684 30.7656 11.9316C30.6016 11.791 30.5195 11.5664 30.5195 11.2578ZM37.6152 17H36.2324V11.4863C36.2324 11.3027 36.2344 11.1191 36.2383 10.9355C36.2422 10.752 36.2461 10.5723 36.25 10.3965C36.2578 10.2207 36.2676 10.0527 36.2793 9.89258C36.1973 9.98242 36.0957 10.0801 35.9746 10.1855C35.8574 10.291 35.7324 10.4004 35.5996 10.5137L34.6152 11.2988L33.9238 10.4258L36.4668 8.43359H37.6152V17ZM43.3457 11.6445C43.8965 11.6445 44.3809 11.7441 44.7988 11.9434C45.2207 12.1387 45.5488 12.4277 45.7832 12.8105C46.0176 13.1895 46.1348 13.6543 46.1348 14.2051C46.1348 14.8066 46.0078 15.3262 45.7539 15.7637C45.5 16.1973 45.127 16.5312 44.6348 16.7656C44.1426 17 43.543 17.1172 42.8359 17.1172C42.3867 17.1172 41.9668 17.0781 41.5762 17C41.1895 16.9219 40.8555 16.8047 40.5742 16.6484V15.4062C40.8672 15.5703 41.2188 15.7051 41.6289 15.8105C42.0391 15.9121 42.4316 15.9629 42.8066 15.9629C43.2051 15.9629 43.5469 15.9043 43.832 15.7871C44.1172 15.6699 44.3359 15.4902 44.4883 15.248C44.6445 15.0059 44.7227 14.6992 44.7227 14.3281C44.7227 13.8359 44.5645 13.457 44.248 13.1914C43.9355 12.9219 43.4453 12.7871 42.7773 12.7871C42.543 12.7871 42.293 12.8086 42.0273 12.8516C41.7656 12.8906 41.5469 12.9336 41.3711 12.9805L40.7676 12.623L41.0898 8.43359H45.543V9.64648H42.3027L42.1152 11.7793C42.2559 11.748 42.4238 11.7188 42.6191 11.6914C42.8145 11.6602 43.0566 11.6445 43.3457 11.6445Z" fill="white"/>
<mask id="mask0_1143_296" style="mask-type:alpha" maskUnits="userSpaceOnUse" x="260" y="0" width="24" height="24">
<rect x="260" width="24" height="24" fill="#D9D9D9"/>
</mask>
<g mask="url(#mask0_1143_296)">
</g>
<g clip-path="url(#clip0_1143_296)">
<path d="M264.311 15.6V8.4H272.4V15.6H264.311ZM281.644 9C281.963 9 282.236 9.11719 282.461 9.35156C282.687 9.58594 282.8 9.86875 282.8 10.2V13.8C282.8 14.1313 282.687 14.4141 282.461 14.6484C282.236 14.8828 281.963 15 281.644 15V16.5C281.644 16.9125 281.503 17.2656 281.22 17.5594C280.937 17.8531 280.597 18 280.2 18H263.444C263.047 18 262.707 17.8531 262.424 17.5594C262.141 17.2656 262 16.9125 262 16.5V7.5C262 7.0875 262.141 6.73438 262.424 6.44063C262.707 6.14687 263.047 6 263.444 6H280.2C280.597 6 280.937 6.14687 281.22 6.44063C281.503 6.73438 281.644 7.0875 281.644 7.5V9ZM281.644 13.8V10.2H280.489V7.5C280.489 7.4125 280.462 7.34063 280.408 7.28438C280.353 7.22813 280.284 7.2 280.2 7.2H263.444C263.36 7.2 263.291 7.22813 263.237 7.28438C263.183 7.34063 263.156 7.4125 263.156 7.5V16.5C263.156 16.5875 263.183 16.6594 263.237 16.7156C263.291 16.7719 263.36 16.8 263.444 16.8H280.2C280.284 16.8 280.353 16.7719 280.408 16.7156C280.462 16.6594 280.489 16.5875 280.489 16.5V13.8H281.644Z" fill="white"/>
</g>
<mask id="mask1_1143_296" style="mask-type:alpha" maskUnits="userSpaceOnUse" x="292" y="0" width="24" height="24">
<rect x="292" width="24" height="24" fill="#D9D9D9"/>
</mask>
<g mask="url(#mask1_1143_296)">
<path d="M304.363 17.8892C304.249 17.8892 303.985 17.6804 303.571 17.2628C303.156 16.8452 302.949 16.5795 302.949 16.4659C302.949 16.2841 303.127 16.1307 303.481 16.0057C303.836 15.8807 304.13 15.8182 304.363 15.8182C304.596 15.8182 304.889 15.8807 305.244 16.0057C305.599 16.1307 305.777 16.2841 305.777 16.4659C305.777 16.5795 305.569 16.8452 305.155 17.2628C304.74 17.6804 304.476 17.8892 304.363 17.8892ZM306.662 15.5795C306.651 15.5795 306.537 15.5085 306.322 15.3665C306.106 15.2244 305.818 15.0824 305.457 14.9403C305.097 14.7983 304.732 14.7273 304.363 14.7273C303.994 14.7273 303.629 14.7983 303.269 14.9403C302.908 15.0824 302.621 15.2244 302.408 15.3665C302.195 15.5085 302.081 15.5795 302.063 15.5795C301.961 15.5795 301.696 15.3665 301.267 14.9403C300.839 14.5142 300.624 14.25 300.624 14.1477C300.624 14.0739 300.653 14.0085 300.709 13.9517C301.152 13.5142 301.709 13.1705 302.379 12.9205C303.049 12.6705 303.71 12.5455 304.363 12.5455C305.016 12.5455 305.677 12.6705 306.347 12.9205C307.017 13.1705 307.573 13.5142 308.016 13.9517C308.073 14.0085 308.101 14.0739 308.101 14.1477C308.101 14.25 307.887 14.5142 307.458 14.9403C307.03 15.3665 306.764 15.5795 306.662 15.5795ZM308.987 13.2614C308.925 13.2614 308.859 13.2386 308.791 13.1932C308.019 12.5966 307.304 12.1577 306.645 11.8764C305.987 11.5952 305.226 11.4545 304.363 11.4545C303.88 11.4545 303.396 11.517 302.911 11.642C302.425 11.767 302.002 11.9176 301.642 12.0938C301.281 12.2699 300.959 12.446 300.675 12.6222C300.391 12.7983 300.167 12.9489 300.003 13.0739C299.838 13.1989 299.75 13.2614 299.739 13.2614C299.642 13.2614 299.381 13.0483 298.955 12.6222C298.529 12.196 298.316 11.9318 298.316 11.8295C298.316 11.7614 298.345 11.6989 298.402 11.642C299.151 10.892 300.059 10.3097 301.127 9.89489C302.194 9.48011 303.273 9.27273 304.363 9.27273C305.453 9.27273 306.532 9.48011 307.599 9.89489C308.666 10.3097 309.575 10.892 310.324 11.642C310.381 11.6989 310.409 11.7614 310.409 11.8295C310.409 11.9318 310.196 12.196 309.771 12.6222C309.345 13.0483 309.084 13.2614 308.987 13.2614ZM311.295 10.9517C311.233 10.9517 311.17 10.9261 311.108 10.875C310.091 9.98295 309.037 9.31108 307.944 8.85938C306.851 8.40767 305.657 8.18182 304.363 8.18182C303.068 8.18182 301.875 8.40767 300.782 8.85938C299.689 9.31108 298.634 9.98295 297.618 10.875C297.556 10.9261 297.493 10.9517 297.431 10.9517C297.334 10.9517 297.072 10.7386 296.643 10.3125C296.214 9.88636 296 9.62216 296 9.51989C296 9.44602 296.028 9.38068 296.085 9.32386C297.147 8.26705 298.41 7.44886 299.875 6.86932C301.34 6.28977 302.836 6 304.363 6C305.89 6 307.386 6.28977 308.851 6.86932C310.316 7.44886 311.579 8.26705 312.641 9.32386C312.697 9.38068 312.726 9.44602 312.726 9.51989C312.726 9.62216 312.511 9.88636 312.083 10.3125C311.654 10.7386 311.391 10.9517 311.295 10.9517Z" fill="white"/>
</g>
<mask id="mask2_1143_296" style="mask-type:alpha" maskUnits="userSpaceOnUse" x="320" y="0" width="24" height="24">
<rect x="320" width="24" height="24" fill="#D9D9D9"/>
</mask>
<g mask="url(#mask2_1143_296)">
</g>
<path d="M332.844 10.125H331.156C330.949 10.125 330.781 10.2926 330.781 10.5V16.875C330.781 17.0824 330.949 17.25 331.156 17.25H332.844C333.051 17.25 333.219 17.0824 333.219 16.875V10.5C333.219 10.2926 333.051 10.125 332.844 10.125ZM336.453 6.75H334.766C334.558 6.75 334.391 6.91758 334.391 7.125V16.875C334.391 17.0824 334.558 17.25 334.766 17.25H336.453C336.661 17.25 336.828 17.0824 336.828 16.875V7.125C336.828 6.91758 336.661 6.75 336.453 6.75ZM329.234 13.5H327.547C327.339 13.5 327.172 13.6676 327.172 13.875V16.875C327.172 17.0824 327.339 17.25 327.547 17.25H329.234C329.442 17.25 329.609 17.0824 329.609 16.875V13.875C329.609 13.6676 329.442 13.5 329.234 13.5Z" fill="white"/>
<path d="M66.2378 147.24C65.4591 147.24 64.7498 147.112 64.1098 146.856C63.4698 146.6 62.9204 146.227 62.4618 145.736C62.0031 145.245 61.6458 144.643 61.3898 143.928C61.1444 143.203 61.0218 142.376 61.0218 141.448C61.0218 140.52 61.1604 139.699 61.4378 138.984C61.7258 138.259 62.1098 137.651 62.5898 137.16C63.0698 136.669 63.6298 136.296 64.2698 136.04C64.9098 135.784 65.5924 135.656 66.3178 135.656C66.7764 135.656 67.1871 135.688 67.5498 135.752C67.9231 135.816 68.2431 135.891 68.5098 135.976C68.7871 136.061 69.0111 136.147 69.1818 136.232C69.3524 136.317 69.4698 136.381 69.5338 136.424L69.0858 137.704C68.9898 137.64 68.8511 137.571 68.6698 137.496C68.4884 137.421 68.2804 137.347 68.0458 137.272C67.8218 137.197 67.5711 137.139 67.2938 137.096C67.0271 137.043 66.7551 137.016 66.4778 137.016C65.8911 137.016 65.3631 137.117 64.8938 137.32C64.4244 137.523 64.0244 137.816 63.6938 138.2C63.3631 138.584 63.1071 139.053 62.9258 139.608C62.7551 140.152 62.6698 140.765 62.6698 141.448C62.6698 142.109 62.7444 142.712 62.8938 143.256C63.0538 143.8 63.2884 144.269 63.5978 144.664C63.9071 145.048 64.2911 145.347 64.7498 145.56C65.2191 145.773 65.7631 145.88 66.3818 145.88C67.0964 145.88 67.6884 145.805 68.1578 145.656C68.6271 145.507 68.9791 145.373 69.2138 145.256L69.6138 146.536C69.5391 146.589 69.4058 146.659 69.2138 146.744C69.0218 146.819 68.7818 146.893 68.4938 146.968C68.2058 147.043 67.8698 147.107 67.4858 147.16C67.1018 147.213 66.6858 147.24 66.2378 147.24ZM78.4053 142.84C78.4053 143.501 78.3093 144.099 78.1173 144.632C77.9253 145.165 77.6533 145.624 77.3013 146.008C76.9599 146.392 76.5493 146.691 76.0693 146.904C75.5893 147.107 75.0666 147.208 74.5013 147.208C73.9359 147.208 73.4133 147.107 72.9333 146.904C72.4533 146.691 72.0373 146.392 71.6853 146.008C71.3439 145.624 71.0773 145.165 70.8853 144.632C70.6933 144.099 70.5973 143.501 70.5973 142.84C70.5973 142.189 70.6933 141.597 70.8853 141.064C71.0773 140.52 71.3439 140.056 71.6853 139.672C72.0373 139.288 72.4533 138.995 72.9333 138.792C73.4133 138.579 73.9359 138.472 74.5013 138.472C75.0666 138.472 75.5893 138.579 76.0693 138.792C76.5493 138.995 76.9599 139.288 77.3013 139.672C77.6533 140.056 77.9253 140.52 78.1173 141.064C78.3093 141.597 78.4053 142.189 78.4053 142.84ZM76.8533 142.84C76.8533 141.901 76.6399 141.16 76.2133 140.616C75.7973 140.061 75.2266 139.784 74.5013 139.784C73.7759 139.784 73.1999 140.061 72.7733 140.616C72.3573 141.16 72.1493 141.901 72.1493 142.84C72.1493 143.779 72.3573 144.525 72.7733 145.08C73.1999 145.624 73.7759 145.896 74.5013 145.896C75.2266 145.896 75.7973 145.624 76.2133 145.08C76.6399 144.525 76.8533 143.779 76.8533 142.84ZM80.4988 138.92C80.8401 138.835 81.2934 138.744 81.8588 138.648C82.4241 138.552 83.0748 138.504 83.8108 138.504C84.4721 138.504 85.0214 138.6 85.4588 138.792C85.8961 138.973 86.2428 139.235 86.4988 139.576C86.7654 139.907 86.9521 140.307 87.0588 140.776C87.1654 141.245 87.2188 141.763 87.2188 142.328V147H85.7308V142.648C85.7308 142.136 85.6934 141.699 85.6188 141.336C85.5548 140.973 85.4428 140.68 85.2828 140.456C85.1228 140.232 84.9094 140.072 84.6428 139.976C84.3761 139.869 84.0454 139.816 83.6508 139.816C83.4908 139.816 83.3254 139.821 83.1548 139.832C82.9841 139.843 82.8188 139.859 82.6588 139.88C82.5094 139.891 82.3708 139.907 82.2428 139.928C82.1254 139.949 82.0401 139.965 81.9868 139.976V147H80.4988V138.92ZM89.6863 138.92C90.0276 138.835 90.4809 138.744 91.0463 138.648C91.6116 138.552 92.2623 138.504 92.9983 138.504C93.6596 138.504 94.2089 138.6 94.6463 138.792C95.0836 138.973 95.4303 139.235 95.6863 139.576C95.9529 139.907 96.1396 140.307 96.2463 140.776C96.3529 141.245 96.4062 141.763 96.4062 142.328V147H94.9183V142.648C94.9183 142.136 94.8809 141.699 94.8063 141.336C94.7423 140.973 94.6303 140.68 94.4703 140.456C94.3103 140.232 94.0969 140.072 93.8303 139.976C93.5636 139.869 93.2329 139.816 92.8383 139.816C92.6783 139.816 92.5129 139.821 92.3423 139.832C92.1716 139.843 92.0063 139.859 91.8463 139.88C91.6969 139.891 91.5583 139.907 91.4303 139.928C91.3129 139.949 91.2276 139.965 91.1743 139.976V147H89.6863V138.92ZM98.4098 142.856C98.4098 142.12 98.5164 141.48 98.7298 140.936C98.9431 140.381 99.2258 139.923 99.5778 139.56C99.9298 139.197 100.335 138.925 100.794 138.744C101.252 138.563 101.722 138.472 102.202 138.472C103.322 138.472 104.18 138.824 104.778 139.528C105.375 140.221 105.674 141.283 105.674 142.712C105.674 142.776 105.674 142.861 105.674 142.968C105.674 143.064 105.668 143.155 105.658 143.24H99.9618C100.026 144.104 100.276 144.76 100.714 145.208C101.151 145.656 101.834 145.88 102.762 145.88C103.284 145.88 103.722 145.837 104.074 145.752C104.436 145.656 104.708 145.565 104.89 145.48L105.098 146.728C104.916 146.824 104.596 146.925 104.138 147.032C103.69 147.139 103.178 147.192 102.602 147.192C101.876 147.192 101.247 147.085 100.714 146.872C100.191 146.648 99.7591 146.344 99.4178 145.96C99.0764 145.576 98.8204 145.123 98.6497 144.6C98.4898 144.067 98.4098 143.485 98.4098 142.856ZM104.122 142.04C104.132 141.368 103.962 140.819 103.61 140.392C103.268 139.955 102.794 139.736 102.186 139.736C101.844 139.736 101.54 139.805 101.274 139.944C101.018 140.072 100.799 140.243 100.618 140.456C100.436 140.669 100.292 140.915 100.186 141.192C100.09 141.469 100.026 141.752 99.9938 142.04H104.122ZM111.427 147.192C110.755 147.192 110.163 147.085 109.651 146.872C109.15 146.659 108.723 146.36 108.371 145.976C108.03 145.592 107.774 145.139 107.603 144.616C107.433 144.083 107.347 143.496 107.347 142.856C107.347 142.216 107.438 141.629 107.619 141.096C107.811 140.563 108.078 140.104 108.419 139.72C108.761 139.325 109.177 139.021 109.667 138.808C110.169 138.584 110.723 138.472 111.331 138.472C111.705 138.472 112.078 138.504 112.451 138.568C112.825 138.632 113.182 138.733 113.523 138.872L113.187 140.136C112.963 140.029 112.702 139.944 112.403 139.88C112.115 139.816 111.806 139.784 111.475 139.784C110.643 139.784 110.003 140.045 109.555 140.568C109.118 141.091 108.899 141.853 108.899 142.856C108.899 143.304 108.947 143.715 109.043 144.088C109.15 144.461 109.31 144.781 109.523 145.048C109.747 145.315 110.03 145.523 110.371 145.672C110.713 145.811 111.129 145.88 111.619 145.88C112.014 145.88 112.371 145.843 112.691 145.768C113.011 145.693 113.262 145.613 113.443 145.528L113.651 146.776C113.566 146.829 113.443 146.883 113.283 146.936C113.123 146.979 112.942 147.016 112.739 147.048C112.537 147.091 112.318 147.123 112.083 147.144C111.859 147.176 111.641 147.192 111.427 147.192ZM116.641 138.68H119.793V139.928H116.641V143.768C116.641 144.184 116.673 144.531 116.737 144.808C116.801 145.075 116.897 145.288 117.025 145.448C117.153 145.597 117.313 145.704 117.505 145.768C117.697 145.832 117.921 145.864 118.177 145.864C118.625 145.864 118.982 145.816 119.249 145.72C119.526 145.613 119.718 145.539 119.825 145.496L120.113 146.728C119.963 146.803 119.702 146.893 119.329 147C118.955 147.117 118.529 147.176 118.049 147.176C117.483 147.176 117.014 147.107 116.641 146.968C116.278 146.819 115.985 146.6 115.761 146.312C115.537 146.024 115.377 145.672 115.281 145.256C115.195 144.829 115.153 144.339 115.153 143.784V136.36L116.641 136.104V138.68ZM132.189 147C131.891 146.232 131.571 145.357 131.229 144.376C130.899 143.384 130.595 142.355 130.317 141.288C130.04 142.355 129.736 143.384 129.405 144.376C129.075 145.357 128.76 146.232 128.461 147H127.165C126.675 145.901 126.195 144.648 125.725 143.24C125.256 141.832 124.813 140.312 124.397 138.68H125.997C126.104 139.181 126.232 139.725 126.381 140.312C126.531 140.899 126.685 141.485 126.845 142.072C127.016 142.659 127.192 143.224 127.373 143.768C127.555 144.312 127.725 144.787 127.885 145.192C128.067 144.691 128.243 144.163 128.413 143.608C128.595 143.043 128.765 142.477 128.925 141.912C129.085 141.336 129.235 140.776 129.373 140.232C129.523 139.677 129.651 139.16 129.757 138.68H130.989C131.085 139.16 131.203 139.677 131.341 140.232C131.48 140.776 131.629 141.336 131.789 141.912C131.949 142.477 132.115 143.043 132.285 143.608C132.467 144.163 132.648 144.691 132.829 145.192C132.989 144.787 133.155 144.312 133.325 143.768C133.507 143.224 133.683 142.659 133.853 142.072C134.024 141.485 134.184 140.899 134.333 140.312C134.483 139.725 134.611 139.181 134.717 138.68H136.253C135.837 140.312 135.395 141.832 134.925 143.24C134.456 144.648 133.976 145.901 133.485 147H132.189ZM139.315 147H137.827V138.68H139.315V147ZM138.563 137.176C138.296 137.176 138.067 137.091 137.875 136.92C137.694 136.739 137.603 136.499 137.603 136.2C137.603 135.901 137.694 135.667 137.875 135.496C138.067 135.315 138.296 135.224 138.563 135.224C138.83 135.224 139.054 135.315 139.235 135.496C139.427 135.667 139.523 135.901 139.523 136.2C139.523 136.499 139.427 136.739 139.235 136.92C139.054 137.091 138.83 137.176 138.563 137.176ZM143.266 138.68H146.418V139.928H143.266V143.768C143.266 144.184 143.298 144.531 143.362 144.808C143.426 145.075 143.522 145.288 143.65 145.448C143.778 145.597 143.938 145.704 144.13 145.768C144.322 145.832 144.546 145.864 144.802 145.864C145.25 145.864 145.607 145.816 145.874 145.72C146.151 145.613 146.343 145.539 146.45 145.496L146.738 146.728C146.588 146.803 146.327 146.893 145.954 147C145.58 147.117 145.154 147.176 144.674 147.176C144.108 147.176 143.639 147.107 143.266 146.968C142.903 146.819 142.61 146.6 142.386 146.312C142.162 146.024 142.002 145.672 141.906 145.256C141.82 144.829 141.778 144.339 141.778 143.784V136.36L143.266 136.104V138.68ZM148.311 147V134.84L149.799 134.584V138.84C150.077 138.733 150.37 138.653 150.679 138.6C150.999 138.536 151.314 138.504 151.623 138.504C152.285 138.504 152.834 138.6 153.271 138.792C153.709 138.973 154.055 139.235 154.311 139.576C154.578 139.907 154.765 140.307 154.871 140.776C154.978 141.245 155.031 141.763 155.031 142.328V147H153.543V142.648C153.543 142.136 153.506 141.699 153.431 141.336C153.367 140.973 153.255 140.68 153.095 140.456C152.935 140.232 152.722 140.072 152.455 139.976C152.189 139.869 151.858 139.816 151.463 139.816C151.303 139.816 151.138 139.827 150.967 139.848C150.797 139.869 150.631 139.896 150.471 139.928C150.322 139.949 150.183 139.976 150.055 140.008C149.938 140.04 149.853 140.067 149.799 140.088V147H148.311ZM163.651 147.16C162.734 147.139 162.083 146.941 161.699 146.568C161.315 146.195 161.123 145.613 161.123 144.824V134.84L162.611 134.584V144.584C162.611 144.829 162.632 145.032 162.675 145.192C162.718 145.352 162.787 145.48 162.883 145.576C162.979 145.672 163.107 145.747 163.267 145.8C163.427 145.843 163.624 145.88 163.859 145.912L163.651 147.16ZM167.018 147H165.53V138.68H167.018V147ZM166.266 137.176C165.999 137.176 165.77 137.091 165.578 136.92C165.397 136.739 165.306 136.499 165.306 136.2C165.306 135.901 165.397 135.667 165.578 135.496C165.77 135.315 165.999 135.224 166.266 135.224C166.533 135.224 166.757 135.315 166.938 135.496C167.13 135.667 167.226 135.901 167.226 136.2C167.226 136.499 167.13 136.739 166.938 136.92C166.757 137.091 166.533 137.176 166.266 137.176ZM172.585 142.424C172.905 142.669 173.241 142.973 173.593 143.336C173.956 143.699 174.308 144.093 174.649 144.52C175.001 144.936 175.332 145.363 175.641 145.8C175.95 146.227 176.212 146.627 176.425 147H174.681C174.457 146.627 174.196 146.248 173.897 145.864C173.609 145.469 173.305 145.096 172.985 144.744C172.665 144.381 172.34 144.051 172.009 143.752C171.678 143.453 171.364 143.203 171.065 143V147H169.577V134.84L171.065 134.584V142.168C171.321 141.912 171.604 141.629 171.913 141.32C172.222 141.011 172.526 140.696 172.825 140.376C173.124 140.056 173.406 139.752 173.673 139.464C173.94 139.165 174.169 138.904 174.361 138.68H176.105C175.86 138.947 175.593 139.24 175.305 139.56C175.017 139.88 174.718 140.205 174.409 140.536C174.1 140.856 173.785 141.181 173.465 141.512C173.156 141.832 172.862 142.136 172.585 142.424ZM177.05 142.856C177.05 142.12 177.157 141.48 177.37 140.936C177.584 140.381 177.866 139.923 178.218 139.56C178.57 139.197 178.976 138.925 179.434 138.744C179.893 138.563 180.362 138.472 180.842 138.472C181.962 138.472 182.821 138.824 183.418 139.528C184.016 140.221 184.314 141.283 184.314 142.712C184.314 142.776 184.314 142.861 184.314 142.968C184.314 143.064 184.309 143.155 184.298 143.24H178.602C178.666 144.104 178.917 144.76 179.354 145.208C179.792 145.656 180.474 145.88 181.402 145.88C181.925 145.88 182.362 145.837 182.714 145.752C183.077 145.656 183.349 145.565 183.53 145.48L183.738 146.728C183.557 146.824 183.237 146.925 182.778 147.032C182.33 147.139 181.818 147.192 181.242 147.192C180.517 147.192 179.888 147.085 179.354 146.872C178.832 146.648 178.4 146.344 178.058 145.96C177.717 145.576 177.461 145.123 177.29 144.6C177.13 144.067 177.05 143.485 177.05 142.856ZM182.762 142.04C182.773 141.368 182.602 140.819 182.25 140.392C181.909 139.955 181.434 139.736 180.826 139.736C180.485 139.736 180.181 139.805 179.914 139.944C179.658 140.072 179.44 140.243 179.258 140.456C179.077 140.669 178.933 140.915 178.826 141.192C178.73 141.469 178.666 141.752 178.634 142.04H182.762ZM190.155 138.92C190.496 138.835 190.944 138.744 191.499 138.648C192.064 138.552 192.715 138.504 193.451 138.504C193.984 138.504 194.432 138.579 194.795 138.728C195.158 138.867 195.462 139.075 195.707 139.352C195.782 139.299 195.899 139.224 196.059 139.128C196.219 139.032 196.416 138.941 196.651 138.856C196.886 138.76 197.147 138.68 197.435 138.616C197.723 138.541 198.032 138.504 198.363 138.504C199.003 138.504 199.526 138.6 199.931 138.792C200.336 138.973 200.651 139.235 200.875 139.576C201.11 139.917 201.264 140.323 201.339 140.792C201.424 141.261 201.467 141.773 201.467 142.328V147H199.979V142.648C199.979 142.157 199.952 141.736 199.899 141.384C199.856 141.032 199.766 140.739 199.627 140.504C199.499 140.269 199.318 140.099 199.083 139.992C198.859 139.875 198.566 139.816 198.203 139.816C197.702 139.816 197.286 139.885 196.955 140.024C196.635 140.152 196.416 140.269 196.299 140.376C196.384 140.653 196.448 140.957 196.491 141.288C196.534 141.619 196.555 141.965 196.555 142.328V147H195.067V142.648C195.067 142.157 195.04 141.736 194.987 141.384C194.934 141.032 194.838 140.739 194.699 140.504C194.571 140.269 194.39 140.099 194.155 139.992C193.931 139.875 193.643 139.816 193.291 139.816C193.142 139.816 192.982 139.821 192.811 139.832C192.64 139.843 192.475 139.859 192.315 139.88C192.166 139.891 192.027 139.907 191.899 139.928C191.771 139.949 191.686 139.965 191.643 139.976V147H190.155V138.92ZM205.424 147H203.936V138.68H205.424V147ZM204.672 137.176C204.406 137.176 204.176 137.091 203.984 136.92C203.803 136.739 203.712 136.499 203.712 136.2C203.712 135.901 203.803 135.667 203.984 135.496C204.176 135.315 204.406 135.224 204.672 135.224C204.939 135.224 205.163 135.315 205.344 135.496C205.536 135.667 205.632 135.901 205.632 136.2C205.632 136.499 205.536 136.739 205.344 136.92C205.163 137.091 204.939 137.176 204.672 137.176ZM207.983 138.92C208.324 138.835 208.778 138.744 209.343 138.648C209.908 138.552 210.559 138.504 211.295 138.504C211.956 138.504 212.506 138.6 212.943 138.792C213.38 138.973 213.727 139.235 213.983 139.576C214.25 139.907 214.436 140.307 214.543 140.776C214.65 141.245 214.703 141.763 214.703 142.328V147H213.215V142.648C213.215 142.136 213.178 141.699 213.103 141.336C213.039 140.973 212.927 140.68 212.767 140.456C212.607 140.232 212.394 140.072 212.127 139.976C211.86 139.869 211.53 139.816 211.135 139.816C210.975 139.816 210.81 139.821 210.639 139.832C210.468 139.843 210.303 139.859 210.143 139.88C209.994 139.891 209.855 139.907 209.727 139.928C209.61 139.949 209.524 139.965 209.471 139.976V147H207.983V138.92ZM222.547 140.44C222.365 140.291 222.104 140.147 221.763 140.008C221.421 139.869 221.048 139.8 220.643 139.8C220.216 139.8 219.848 139.88 219.539 140.04C219.24 140.189 218.995 140.403 218.803 140.68C218.611 140.947 218.472 141.267 218.387 141.64C218.301 142.013 218.259 142.413 218.259 142.84C218.259 143.811 218.499 144.563 218.979 145.096C219.459 145.619 220.099 145.88 220.899 145.88C221.304 145.88 221.64 145.864 221.907 145.832C222.184 145.789 222.397 145.747 222.547 145.704V140.44ZM222.547 134.84L224.035 134.584V146.76C223.693 146.856 223.256 146.952 222.723 147.048C222.189 147.144 221.576 147.192 220.883 147.192C220.243 147.192 219.667 147.091 219.155 146.888C218.643 146.685 218.205 146.397 217.843 146.024C217.48 145.651 217.197 145.197 216.995 144.664C216.803 144.12 216.707 143.512 216.707 142.84C216.707 142.2 216.787 141.613 216.947 141.08C217.117 140.547 217.363 140.088 217.683 139.704C218.003 139.32 218.392 139.021 218.851 138.808C219.32 138.595 219.853 138.488 220.451 138.488C220.931 138.488 221.352 138.552 221.715 138.68C222.088 138.808 222.365 138.931 222.547 139.048V134.84ZM226.129 142.856C226.129 142.12 226.235 141.48 226.449 140.936C226.662 140.381 226.945 139.923 227.297 139.56C227.649 139.197 228.054 138.925 228.513 138.744C228.971 138.563 229.441 138.472 229.921 138.472C231.041 138.472 231.899 138.824 232.497 139.528C233.094 140.221 233.392 141.283 233.392 142.712C233.392 142.776 233.392 142.861 233.392 142.968C233.392 143.064 233.387 143.155 233.377 143.24H227.681C227.745 144.104 227.995 144.76 228.433 145.208C228.87 145.656 229.553 145.88 230.481 145.88C231.003 145.88 231.441 145.837 231.793 145.752C232.155 145.656 232.427 145.565 232.609 145.48L232.817 146.728C232.635 146.824 232.315 146.925 231.857 147.032C231.409 147.139 230.897 147.192 230.321 147.192C229.595 147.192 228.966 147.085 228.433 146.872C227.91 146.648 227.478 146.344 227.137 145.96C226.795 145.576 226.539 145.123 226.368 144.6C226.209 144.067 226.129 143.485 226.129 142.856ZM231.841 142.04C231.851 141.368 231.681 140.819 231.329 140.392C230.987 139.955 230.513 139.736 229.905 139.736C229.563 139.736 229.259 139.805 228.993 139.944C228.737 140.072 228.518 140.243 228.337 140.456C228.155 140.669 228.011 140.915 227.905 141.192C227.809 141.469 227.745 141.752 227.713 142.04H231.841ZM240.906 140.44C240.725 140.291 240.463 140.147 240.122 140.008C239.781 139.869 239.407 139.8 239.002 139.8C238.575 139.8 238.207 139.88 237.898 140.04C237.599 140.189 237.354 140.403 237.162 140.68C236.97 140.947 236.831 141.267 236.746 141.64C236.661 142.013 236.618 142.413 236.618 142.84C236.618 143.811 236.858 144.563 237.338 145.096C237.818 145.619 238.458 145.88 239.258 145.88C239.663 145.88 239.999 145.864 240.266 145.832C240.543 145.789 240.757 145.747 240.906 145.704V140.44ZM240.906 134.84L242.394 134.584V146.76C242.053 146.856 241.615 146.952 241.082 147.048C240.549 147.144 239.935 147.192 239.242 147.192C238.602 147.192 238.026 147.091 237.514 146.888C237.002 146.685 236.565 146.397 236.202 146.024C235.839 145.651 235.557 145.197 235.354 144.664C235.162 144.12 235.066 143.512 235.066 142.84C235.066 142.2 235.146 141.613 235.306 141.08C235.477 140.547 235.722 140.088 236.042 139.704C236.362 139.32 236.751 139.021 237.21 138.808C237.679 138.595 238.213 138.488 238.81 138.488C239.29 138.488 239.711 138.552 240.074 138.68C240.447 138.808 240.725 138.931 240.906 139.048V134.84ZM254.431 142.856C254.431 141.885 254.191 141.139 253.711 140.616C253.231 140.093 252.591 139.832 251.791 139.832C251.343 139.832 250.991 139.848 250.735 139.88C250.49 139.912 250.292 139.949 250.143 139.992V145.24C250.324 145.389 250.586 145.533 250.927 145.672C251.268 145.811 251.642 145.88 252.047 145.88C252.474 145.88 252.836 145.805 253.135 145.656C253.444 145.496 253.695 145.283 253.887 145.016C254.079 144.739 254.218 144.419 254.303 144.056C254.388 143.683 254.431 143.283 254.431 142.856ZM255.983 142.856C255.983 143.485 255.898 144.067 255.727 144.6C255.567 145.133 255.327 145.592 255.007 145.976C254.687 146.36 254.292 146.659 253.823 146.872C253.364 147.085 252.836 147.192 252.239 147.192C251.759 147.192 251.332 147.128 250.959 147C250.596 146.872 250.324 146.749 250.143 146.632V149.96H248.655V138.936C249.007 138.851 249.444 138.76 249.967 138.664C250.5 138.557 251.114 138.504 251.807 138.504C252.447 138.504 253.023 138.605 253.535 138.808C254.047 139.011 254.484 139.299 254.847 139.672C255.21 140.045 255.487 140.504 255.679 141.048C255.882 141.581 255.983 142.184 255.983 142.856ZM257.613 142.856C257.613 142.12 257.72 141.48 257.933 140.936C258.146 140.381 258.429 139.923 258.781 139.56C259.133 139.197 259.538 138.925 259.997 138.744C260.456 138.563 260.925 138.472 261.405 138.472C262.525 138.472 263.384 138.824 263.981 139.528C264.578 140.221 264.877 141.283 264.877 142.712C264.877 142.776 264.877 142.861 264.877 142.968C264.877 143.064 264.872 143.155 264.861 143.24H259.165C259.229 144.104 259.48 144.76 259.917 145.208C260.354 145.656 261.037 145.88 261.965 145.88C262.488 145.88 262.925 145.837 263.277 145.752C263.64 145.656 263.912 145.565 264.093 145.48L264.301 146.728C264.12 146.824 263.8 146.925 263.341 147.032C262.893 147.139 262.381 147.192 261.805 147.192C261.08 147.192 260.45 147.085 259.917 146.872C259.394 146.648 258.962 146.344 258.621 145.96C258.28 145.576 258.024 145.123 257.853 144.6C257.693 144.067 257.613 143.485 257.613 142.856ZM263.325 142.04C263.336 141.368 263.165 140.819 262.813 140.392C262.472 139.955 261.997 139.736 261.389 139.736C261.048 139.736 260.744 139.805 260.477 139.944C260.221 140.072 260.002 140.243 259.821 140.456C259.64 140.669 259.496 140.915 259.389 141.192C259.293 141.469 259.229 141.752 259.197 142.04H263.325ZM274.358 142.84C274.358 143.501 274.262 144.099 274.07 144.632C273.878 145.165 273.606 145.624 273.254 146.008C272.913 146.392 272.502 146.691 272.022 146.904C271.542 147.107 271.02 147.208 270.454 147.208C269.889 147.208 269.366 147.107 268.886 146.904C268.406 146.691 267.99 146.392 267.638 146.008C267.297 145.624 267.03 145.165 266.838 144.632C266.646 144.099 266.55 143.501 266.55 142.84C266.55 142.189 266.646 141.597 266.838 141.064C267.03 140.52 267.297 140.056 267.638 139.672C267.99 139.288 268.406 138.995 268.886 138.792C269.366 138.579 269.889 138.472 270.454 138.472C271.02 138.472 271.542 138.579 272.022 138.792C272.502 138.995 272.913 139.288 273.254 139.672C273.606 140.056 273.878 140.52 274.07 141.064C274.262 141.597 274.358 142.189 274.358 142.84ZM272.806 142.84C272.806 141.901 272.593 141.16 272.166 140.616C271.75 140.061 271.18 139.784 270.454 139.784C269.729 139.784 269.153 140.061 268.726 140.616C268.31 141.16 268.102 141.901 268.102 142.84C268.102 143.779 268.31 144.525 268.726 145.08C269.153 145.624 269.729 145.896 270.454 145.896C271.18 145.896 271.75 145.624 272.166 145.08C272.593 144.525 272.806 143.779 272.806 142.84ZM282.228 142.856C282.228 141.885 281.988 141.139 281.508 140.616C281.028 140.093 280.388 139.832 279.588 139.832C279.14 139.832 278.788 139.848 278.532 139.88C278.287 139.912 278.089 139.949 277.94 139.992V145.24C278.121 145.389 278.383 145.533 278.724 145.672C279.065 145.811 279.439 145.88 279.844 145.88C280.271 145.88 280.633 145.805 280.932 145.656C281.241 145.496 281.492 145.283 281.684 145.016C281.876 144.739 282.015 144.419 282.1 144.056C282.185 143.683 282.228 143.283 282.228 142.856ZM283.78 142.856C283.78 143.485 283.695 144.067 283.524 144.6C283.364 145.133 283.124 145.592 282.804 145.976C282.484 146.36 282.089 146.659 281.62 146.872C281.161 147.085 280.633 147.192 280.036 147.192C279.556 147.192 279.129 147.128 278.756 147C278.393 146.872 278.121 146.749 277.94 146.632V149.96H276.452V138.936C276.804 138.851 277.241 138.76 277.764 138.664C278.297 138.557 278.911 138.504 279.604 138.504C280.244 138.504 280.82 138.605 281.332 138.808C281.844 139.011 282.281 139.299 282.644 139.672C283.007 140.045 283.284 140.504 283.476 141.048C283.679 141.581 283.78 142.184 283.78 142.856ZM288.37 147.16C287.452 147.139 286.802 146.941 286.418 146.568C286.034 146.195 285.842 145.613 285.842 144.824V134.84L287.33 134.584V144.584C287.33 144.829 287.351 145.032 287.394 145.192C287.436 145.352 287.506 145.48 287.602 145.576C287.698 145.672 287.826 145.747 287.986 145.8C288.146 145.843 288.343 145.88 288.578 145.912L288.37 147.16ZM289.785 142.856C289.785 142.12 289.891 141.48 290.105 140.936C290.318 140.381 290.601 139.923 290.953 139.56C291.305 139.197 291.71 138.925 292.169 138.744C292.627 138.563 293.097 138.472 293.577 138.472C294.697 138.472 295.555 138.824 296.153 139.528C296.75 140.221 297.049 141.283 297.049 142.712C297.049 142.776 297.049 142.861 297.049 142.968C297.049 143.064 297.043 143.155 297.033 143.24H291.337C291.401 144.104 291.651 144.76 292.089 145.208C292.526 145.656 293.209 145.88 294.137 145.88C294.659 145.88 295.097 145.837 295.449 145.752C295.811 145.656 296.083 145.565 296.265 145.48L296.473 146.728C296.291 146.824 295.971 146.925 295.513 147.032C295.065 147.139 294.553 147.192 293.977 147.192C293.251 147.192 292.622 147.085 292.089 146.872C291.566 146.648 291.134 146.344 290.793 145.96C290.451 145.576 290.195 145.123 290.025 144.6C289.865 144.067 289.785 143.485 289.785 142.856ZM295.497 142.04C295.507 141.368 295.337 140.819 294.985 140.392C294.643 139.955 294.169 139.736 293.561 139.736C293.219 139.736 292.915 139.805 292.649 139.944C292.393 140.072 292.174 140.243 291.993 140.456C291.811 140.669 291.667 140.915 291.561 141.192C291.465 141.469 291.401 141.752 291.369 142.04H295.497Z" fill="white"/>
<path d="M139.318 102.368H143.062V119H139.318V102.368ZM146.672 106.808C147.28 106.632 148.064 106.472 149.024 106.328C149.984 106.168 150.992 106.088 152.048 106.088C153.12 106.088 154.008 106.232 154.712 106.52C155.432 106.792 156 107.184 156.416 107.696C156.832 108.208 157.128 108.816 157.304 109.52C157.48 110.224 157.568 111.008 157.568 111.872V119H153.992V112.304C153.992 111.152 153.84 110.336 153.536 109.856C153.232 109.376 152.664 109.136 151.832 109.136C151.576 109.136 151.304 109.152 151.016 109.184C150.728 109.2 150.472 109.224 150.248 109.256V119H146.672V106.808ZM163.853 112.592C163.853 113.696 164.101 114.584 164.597 115.256C165.093 115.928 165.829 116.264 166.805 116.264C167.125 116.264 167.421 116.256 167.693 116.24C167.965 116.208 168.189 116.176 168.365 116.144V109.64C168.141 109.496 167.845 109.376 167.477 109.28C167.125 109.184 166.765 109.136 166.397 109.136C164.701 109.136 163.853 110.288 163.853 112.592ZM171.941 118.592C171.621 118.688 171.253 118.784 170.837 118.88C170.421 118.96 169.981 119.032 169.517 119.096C169.069 119.16 168.605 119.208 168.125 119.24C167.661 119.288 167.213 119.312 166.781 119.312C165.741 119.312 164.813 119.16 163.997 118.856C163.181 118.552 162.493 118.12 161.933 117.56C161.373 116.984 160.941 116.296 160.637 115.496C160.349 114.68 160.205 113.768 160.205 112.76C160.205 111.736 160.333 110.816 160.589 110C160.845 109.168 161.213 108.464 161.693 107.888C162.173 107.312 162.757 106.872 163.445 106.568C164.149 106.264 164.949 106.112 165.845 106.112C166.341 106.112 166.781 106.16 167.165 106.256C167.565 106.352 167.965 106.488 168.365 106.664V100.952L171.941 100.376V118.592ZM186.065 118.568C185.457 118.744 184.673 118.904 183.713 119.048C182.753 119.208 181.745 119.288 180.689 119.288C179.617 119.288 178.721 119.144 178.001 118.856C177.297 118.568 176.737 118.168 176.321 117.656C175.905 117.128 175.609 116.504 175.433 115.784C175.257 115.064 175.169 114.272 175.169 113.408V106.376H178.745V112.976C178.745 114.128 178.897 114.96 179.201 115.472C179.505 115.984 180.073 116.24 180.905 116.24C181.161 116.24 181.433 116.232 181.721 116.216C182.009 116.184 182.265 116.152 182.489 116.12V106.376H186.065V118.568ZM194.462 119.24C193.422 119.224 192.574 119.112 191.918 118.904C191.278 118.696 190.766 118.408 190.382 118.04C190.014 117.656 189.758 117.2 189.614 116.672C189.486 116.128 189.422 115.52 189.422 114.848V100.952L192.998 100.376V114.128C192.998 114.448 193.022 114.736 193.07 114.992C193.118 115.248 193.206 115.464 193.334 115.64C193.478 115.816 193.678 115.96 193.934 116.072C194.19 116.184 194.534 116.256 194.966 116.288L194.462 119.24ZM200.064 112.28C200.064 114.28 200.872 115.28 202.488 115.28C202.856 115.28 203.2 115.232 203.52 115.136C203.84 115.04 204.112 114.928 204.336 114.8V109.088C204.16 109.056 203.952 109.032 203.712 109.016C203.472 108.984 203.192 108.968 202.872 108.968C201.928 108.968 201.224 109.28 200.76 109.904C200.296 110.528 200.064 111.32 200.064 112.28ZM207.912 117.416C207.912 119.48 207.384 121.008 206.328 122C205.288 123.008 203.672 123.512 201.48 123.512C200.712 123.512 199.944 123.44 199.176 123.296C198.408 123.168 197.696 122.992 197.04 122.768L197.664 119.768C198.224 119.992 198.808 120.168 199.416 120.296C200.04 120.424 200.744 120.488 201.528 120.488C202.552 120.488 203.272 120.264 203.688 119.816C204.12 119.368 204.336 118.792 204.336 118.088V117.632C203.952 117.808 203.552 117.944 203.136 118.04C202.736 118.12 202.296 118.16 201.816 118.16C200.072 118.16 198.736 117.648 197.808 116.624C196.88 115.584 196.416 114.136 196.416 112.28C196.416 111.352 196.56 110.512 196.848 109.76C197.136 108.992 197.552 108.336 198.096 107.792C198.656 107.248 199.336 106.832 200.136 106.544C200.936 106.24 201.84 106.088 202.848 106.088C203.28 106.088 203.72 106.112 204.168 106.16C204.632 106.192 205.088 106.24 205.536 106.304C205.984 106.368 206.408 106.448 206.808 106.544C207.224 106.624 207.592 106.712 207.912 106.808V117.416ZM210.666 112.784C210.666 111.664 210.834 110.688 211.17 109.856C211.522 109.008 211.978 108.304 212.538 107.744C213.098 107.184 213.738 106.76 214.458 106.472C215.194 106.184 215.946 106.04 216.714 106.04C218.506 106.04 219.922 106.592 220.962 107.696C222.002 108.784 222.522 110.392 222.522 112.52C222.522 112.728 222.514 112.96 222.498 113.216C222.482 113.456 222.466 113.672 222.45 113.864H214.338C214.418 114.6 214.762 115.184 215.37 115.616C215.978 116.048 216.794 116.264 217.818 116.264C218.474 116.264 219.114 116.208 219.738 116.096C220.378 115.968 220.898 115.816 221.298 115.64L221.778 118.544C221.586 118.64 221.33 118.736 221.01 118.832C220.69 118.928 220.33 119.008 219.93 119.072C219.546 119.152 219.13 119.216 218.682 119.264C218.234 119.312 217.786 119.336 217.338 119.336C216.202 119.336 215.21 119.168 214.362 118.832C213.53 118.496 212.834 118.04 212.274 117.464C211.73 116.872 211.322 116.176 211.05 115.376C210.794 114.576 210.666 113.712 210.666 112.784ZM219.066 111.416C219.05 111.112 218.994 110.816 218.898 110.528C218.818 110.24 218.682 109.984 218.49 109.76C218.314 109.536 218.082 109.352 217.794 109.208C217.522 109.064 217.178 108.992 216.762 108.992C216.362 108.992 216.018 109.064 215.73 109.208C215.442 109.336 215.202 109.512 215.01 109.736C214.818 109.96 214.666 110.224 214.554 110.528C214.458 110.816 214.386 111.112 214.338 111.416H219.066Z" fill="white"/>
<path fill-rule="evenodd" clip-rule="evenodd" d="M149.958 34.3291C149.958 26.7515 143.912 20.5873 136.386 20.4049V0H135.7V20.4049C128.173 20.5873 122.128 26.7515 122.128 34.3291C122.128 34.8443 122.156 35.353 122.211 35.8537C120.953 36.1126 120 37.349 120 38.8352C120 40.5095 121.209 41.8667 122.701 41.8667C123.204 41.8667 123.675 41.7124 124.078 41.4438C126.505 45.5238 130.955 48.2573 136.043 48.2573C143.728 48.2573 149.958 42.0214 149.958 34.3291ZM199.724 51.4526C199.724 40.4434 190.941 31.4874 180.006 31.2217V1.39282H179.006V31.2217C174.691 31.3266 170.71 32.7851 167.473 35.1891C166.527 34.1508 165.226 33.5097 163.791 33.5097C160.898 33.5097 158.552 36.1141 158.552 39.3268C158.552 41.2539 159.396 42.9621 160.696 44.0206C159.788 46.3214 159.289 48.8287 159.289 51.4526C159.289 62.6292 168.341 71.6895 179.506 71.6895C190.672 71.6895 199.724 62.6292 199.724 51.4526ZM236.966 34.3291C236.966 34.9979 236.919 35.6556 236.828 36.2993C236.874 36.2967 236.92 36.2954 236.966 36.2954C238.458 36.2954 239.667 37.6526 239.667 39.3268C239.667 41.001 238.458 42.3583 236.966 42.3583C236.203 42.3583 235.514 42.0033 235.023 41.4325C232.598 45.5187 228.144 48.2573 223.051 48.2573C215.367 48.2573 209.137 42.0214 209.137 34.3291C209.137 26.7515 215.182 20.5873 222.708 20.4049V0H223.395V20.4049C230.921 20.5873 236.966 26.7515 236.966 34.3291Z" fill="white" fill-opacity="0.5"/>
<mask id="mask3_1143_296" style="mask-type:alpha" maskUnits="userSpaceOnUse" x="-23" y="-28" width="406" height="674">
<path fill-rule="evenodd" clip-rule="evenodd" d="M360 -28H0V480.022C-9.74578 480.07 -15.2752 480.198 -15.2752 480.424V600.531C-15.8483 600.531 -16.4214 600.531 -17.1856 600.722C-18.5229 600.913 -19.478 601.486 -20.2422 602.25C-24.445 604.541 -23.8719 611.797 -18.3318 611.224C-8.73701 609.991 -0.617397 614.263 7.50884 618.538C10.7085 620.222 13.9091 621.906 17.2012 623.254C29.0455 628.028 40.6988 626.691 53.1163 625.164C60.3757 624.209 67.8262 623.636 74.8946 625.737C81.2167 627.667 86.8931 631.051 92.5174 634.403C93.0113 634.697 93.5048 634.991 93.9984 635.284C105.27 641.585 116.923 645.786 129.913 645.404C141.446 645.05 151.165 640.742 161.521 636.153C162.316 635.801 163.115 635.447 163.918 635.093C176.647 629.439 187.307 631.278 199.514 633.384C202.147 633.838 204.852 634.305 207.666 634.711C221.827 636.654 233.925 630.529 246.046 624.393C258.943 617.863 271.867 611.321 287.329 614.471C292.638 615.545 297.592 617.14 302.483 618.714C311.495 621.615 320.292 624.446 330.694 623.827C347.314 622.872 363.362 617.144 378.836 611.034C384.376 608.933 382.274 600.34 376.925 601.677V483.67C376.925 483.67 370.769 483.589 360 483.452V-28Z" fill="url(#paint1_linear_1143_296)"/>
</mask>
<g mask="url(#mask3_1143_296)">
<path d="M333.255 225.277L333.792 227.204L335.189 232.778L339.508 249.457C338.077 249.397 336.277 249.889 334.654 250.883C330.53 253.181 327.783 257.392 328.549 260.368C329.314 263.343 333.274 263.784 337.398 261.486C341.523 259.188 344.269 254.977 343.504 252.001L338.148 231.173L356.062 221.201L360.381 237.88C358.95 237.82 357.15 238.312 355.527 239.306C351.402 241.604 348.656 245.815 349.421 248.791C350.186 251.766 354.147 252.207 358.271 249.909C362.395 247.611 365.142 243.4 364.377 240.425L359.021 219.596L357.623 214.022L357.086 212.094L333.255 225.277Z" fill="#99B6E8" fill-opacity="0.5"/>
<path d="M304.762 203.984L305.122 205.409L306.071 209.307L309.088 221.084C308.077 221.016 306.823 221.457 305.657 222.15C302.699 223.755 300.772 226.69 301.353 228.743C301.935 230.796 304.715 231.087 307.548 229.526C310.507 227.92 312.434 224.985 311.852 222.932L308.115 208.306L320.739 201.325L323.755 213.101C322.745 213.033 321.491 213.475 320.325 214.167C317.366 215.772 315.44 218.708 316.021 220.76C316.602 222.813 319.383 223.104 322.216 221.543C325.174 219.938 327.101 217.002 326.52 214.95L322.782 200.323L321.834 196.425L321.473 195L304.762 203.984Z" fill="#99B6E8" fill-opacity="0.5"/>
<path d="M150.436 574.36H88.6919C84.9444 574.36 82 571.323 82 567.661V498.802C82 495.051 85.0337 492.104 88.6919 492.104H150.436C154.183 492.104 157.128 495.14 157.128 498.802V567.661C157.128 571.323 154.094 574.36 150.436 574.36Z" fill="#99B6E8"/>
<path d="M119.564 558.998C134.988 558.998 147.491 546.482 147.491 531.044C147.491 515.605 134.988 503.089 119.564 503.089C104.14 503.089 91.6364 515.605 91.6364 531.044C91.6364 546.482 104.14 558.998 119.564 558.998Z" fill="#3560A8"/>
<path d="M119.564 554.443C132.475 554.443 142.941 543.967 142.941 531.044C142.941 518.12 132.475 507.644 119.564 507.644C106.653 507.644 96.1869 518.12 96.1869 531.044C96.1869 543.967 106.653 554.443 119.564 554.443Z" stroke="#162C4F" stroke-width="1.0846" stroke-miterlimit="10"/>
<path d="M119.564 549.978C130.011 549.978 138.48 541.501 138.48 531.044C138.48 520.587 130.011 512.11 119.564 512.11C109.117 512.11 100.648 520.587 100.648 531.044C100.648 541.501 109.117 549.978 119.564 549.978Z" fill="#162C4F"/>
<path d="M146.778 567.661C149.192 567.661 151.15 565.702 151.15 563.285C151.15 560.868 149.192 558.909 146.778 558.909C144.363 558.909 142.406 560.868 142.406 563.285C142.406 565.702 144.363 567.661 146.778 567.661Z" fill="#3560A8"/>
<path d="M92.3502 567.661C94.7648 567.661 96.7222 565.702 96.7222 563.285C96.7222 560.868 94.7648 558.909 92.3502 558.909C89.9356 558.909 87.9781 560.868 87.9781 563.285C87.9781 565.702 89.9356 567.661 92.3502 567.661Z" fill="#3560A8"/>
<path d="M150.436 656.616H88.6919C84.9444 656.616 82 653.579 82 649.917V581.058C82 577.307 85.0337 574.36 88.6919 574.36H150.436C154.183 574.36 157.128 577.396 157.128 581.058V649.917C157.128 653.579 154.094 656.616 150.436 656.616Z" fill="#99B6E8"/>
<path d="M119.564 641.254C134.988 641.254 147.491 628.738 147.491 613.299C147.491 597.861 134.988 585.345 119.564 585.345C104.14 585.345 91.6364 597.861 91.6364 613.299C91.6364 628.738 104.14 641.254 119.564 641.254Z" fill="#3560A8"/>
<path d="M119.564 636.699C132.475 636.699 142.941 626.223 142.941 613.3C142.941 600.376 132.475 589.9 119.564 589.9C106.653 589.9 96.1869 600.376 96.1869 613.3C96.1869 626.223 106.653 636.699 119.564 636.699Z" stroke="#162C4F" stroke-width="1.0846" stroke-miterlimit="10"/>
<path d="M119.564 632.234C130.011 632.234 138.48 623.757 138.48 613.3C138.48 602.843 130.011 594.365 119.564 594.365C109.117 594.365 100.648 602.843 100.648 613.3C100.648 623.757 109.117 632.234 119.564 632.234Z" fill="#162C4F"/>
<path d="M146.778 649.917C149.192 649.917 151.15 647.958 151.15 645.541C151.15 643.124 149.192 641.165 146.778 641.165C144.363 641.165 142.406 643.124 142.406 645.541C142.406 647.958 144.363 649.917 146.778 649.917Z" fill="#3560A8"/>
<path d="M92.3502 649.917C94.7648 649.917 96.7222 647.958 96.7222 645.541C96.7222 643.124 94.7648 641.165 92.3502 641.165C89.9356 641.165 87.9781 643.124 87.9781 645.541C87.9781 647.958 89.9356 649.917 92.3502 649.917Z" fill="#3560A8"/>
<path d="M154.897 576.146C153.737 575.074 152.131 574.36 150.347 574.36H88.6919C86.9073 574.36 85.3905 575.074 84.1414 576.146H154.897Z" fill="#101C30"/>
<g style="mix-blend-mode:luminosity">
<path d="M101.928 255H23.9454V465.014H101.928V255Z" fill="#3C6DBF"/>
<path d="M212.033 255H134.05V465.014H212.033V255Z" fill="#3C6DBF"/>
<path d="M322.047 255H244.064V465.014H322.047V255Z" fill="#3C6DBF"/>
</g>
<path d="M335.796 473.871L335.35 460.653H329.104L328.658 473.871C328.569 475.568 327.587 477.175 326.07 477.979C323.304 479.408 321.609 482.266 321.609 485.392V513.436C321.609 515.222 323.037 516.651 324.821 516.651H339.543C341.328 516.651 342.755 515.222 342.755 513.436V485.392C342.755 482.266 341.06 479.408 338.294 477.979C336.867 477.175 335.885 475.568 335.796 473.871Z" fill="#99B6E8"/>
<path d="M335.439 462.35L335.35 460.742H329.104L329.015 464.046C329.015 464.582 329.639 464.94 330.085 464.672C331.513 463.779 333.119 463.243 334.904 462.975C335.171 462.885 335.439 462.617 335.439 462.35Z" fill="#101C30"/>
<path d="M335.617 462.171H328.925C328.747 462.171 328.569 461.992 328.658 461.814L328.747 460.831C328.836 460.295 329.282 459.849 329.818 459.849H334.725C335.26 459.849 335.796 460.295 335.796 460.831L335.885 461.814C335.974 461.992 335.796 462.171 335.617 462.171Z" fill="#99B6E8"/>
<path d="M323.215 513.704C322.323 513.704 321.787 514.686 322.323 515.401C322.947 516.115 323.84 516.651 324.821 516.651H339.543C340.525 516.651 341.506 516.205 342.042 515.401C342.577 514.686 342.042 513.704 341.149 513.704H323.215Z" fill="#3C6DBF"/>
<path d="M359.976 473.871L359.53 460.653H353.284L352.838 473.871C352.749 475.568 351.767 477.175 350.25 477.979C347.484 479.408 345.789 482.266 345.789 485.392V513.436C345.789 515.222 347.217 516.651 349.001 516.651H363.902C365.686 516.651 367.114 515.222 367.114 513.436V485.392C367.114 482.266 365.419 479.408 362.653 477.979C361.047 477.175 360.065 475.568 359.976 473.871Z" fill="#99B6E8"/>
<path d="M359.619 462.35L359.53 460.742H353.284L353.195 464.046C353.195 464.582 353.819 464.94 354.266 464.672C355.693 463.779 357.299 463.243 359.084 462.975C359.441 462.885 359.619 462.617 359.619 462.35Z" fill="#101C30"/>
<path d="M359.798 462.171H353.106C352.927 462.171 352.749 461.992 352.838 461.814L352.927 460.831C353.016 460.295 353.463 459.849 353.998 459.849H358.905C359.441 459.849 359.976 460.295 359.976 460.831L360.065 461.814C360.154 461.992 359.976 462.171 359.798 462.171Z" fill="#99B6E8"/>
<path d="M347.485 513.704C346.592 513.704 346.057 514.686 346.592 515.401C347.217 516.115 348.109 516.651 349.091 516.651H363.902C364.883 516.651 365.865 516.205 366.4 515.401C366.936 514.686 366.4 513.704 365.508 513.704H347.485Z" fill="#3C6DBF"/>
<path d="M393.257 516.651H270.304V521.206H393.257V516.651Z" fill="#99B6E8"/>
<path d="M334.368 521.206H329.282V666.427H334.368V521.206Z" fill="#99B6E8"/>
<path d="M334.368 531.12L329.282 538.8V521.206H334.368V531.12Z" fill="#101C30"/>
<path d="M287.525 503.344C288.239 503.522 288.685 504.058 288.685 504.773V514.865C288.685 515.49 288.149 516.026 287.614 516.026C285.205 516.115 283.51 516.383 283.42 516.651H295.02C294.931 516.383 293.146 516.115 290.826 516.026C290.202 516.026 289.756 515.49 289.756 514.865V504.773C289.756 504.058 290.291 503.522 290.915 503.344C297.34 501.736 296.537 490.751 296.537 490.751H281.814C281.904 490.751 281.101 501.736 287.525 503.344Z" fill="white"/>
<path d="M283.688 492.626C283.242 492.626 282.974 492.983 282.974 493.341C283.064 496.377 283.956 502.54 289.22 502.54C294.484 502.54 295.377 496.377 295.466 493.341C295.466 492.894 295.109 492.626 294.752 492.626H283.688Z" fill="#FFC038"/>
<path d="M305.905 503.344C306.619 503.522 307.065 504.058 307.065 504.773V514.865C307.065 515.49 306.53 516.026 305.994 516.026C303.585 516.115 301.89 516.383 301.801 516.651H313.4C313.311 516.383 311.526 516.115 309.207 516.026C308.582 516.026 308.136 515.49 308.136 514.865V504.773C308.136 504.058 308.671 503.522 309.296 503.344C315.72 501.736 314.917 490.751 314.917 490.751H300.195C300.284 490.751 299.57 501.736 305.905 503.344Z" fill="white"/>
<path d="M302.069 492.626C301.622 492.626 301.355 492.983 301.355 493.341C301.444 496.377 302.336 502.54 307.601 502.54C312.865 502.54 313.757 496.377 313.846 493.341C313.846 492.894 313.489 492.626 313.132 492.626H302.069Z" fill="#FFC038"/>
<path d="M324.286 503.344C325 503.522 325.446 504.058 325.446 504.773V514.865C325.446 515.49 324.91 516.026 324.375 516.026C321.966 516.115 320.271 516.383 320.181 516.651H331.781C331.691 516.383 329.907 516.115 327.587 516.026C326.962 516.026 326.516 515.49 326.516 514.865V504.773C326.516 504.058 327.052 503.522 327.676 503.344C334.101 501.736 333.298 490.751 333.298 490.751H318.575C318.665 490.751 317.951 501.736 324.286 503.344Z" fill="white"/>
<path d="M320.449 492.626C320.003 492.626 319.735 492.983 319.735 493.341C319.824 496.377 320.717 502.54 325.981 502.54C331.245 502.54 332.138 496.377 332.227 493.341C332.227 492.894 331.87 492.626 331.513 492.626H320.449Z" fill="#FFC038"/>
<path d="M357.976 395.808C359.046 392.503 347.804 390.538 347.804 390.538L345.127 401.345C345.216 401.434 356.013 402.327 357.976 395.808Z" fill="#101C30"/>
<path d="M336.472 403.578L344.324 375.98L343.253 371.247C342.986 370.086 342.986 368.836 343.343 367.585L344.859 361.78C345.038 361.244 345.573 360.887 346.198 360.976C346.822 361.065 347.179 361.601 347.09 362.226L346.555 366.424L348.696 357.761C348.785 357.314 349.231 356.957 349.678 356.957C350.302 356.957 350.837 357.582 350.748 358.207L349.321 366.067L351.373 356.6C351.462 356.064 352.087 355.617 352.622 355.707C353.247 355.796 353.603 356.421 353.514 357.046L351.551 366.692L353.425 359.369C353.603 358.743 354.228 358.386 354.853 358.565C355.388 358.743 355.656 359.279 355.566 359.904L353.693 367.317L355.834 362.852C356.102 362.316 356.726 362.137 357.262 362.494C357.708 362.762 357.797 363.298 357.619 363.745L356.191 366.424C355.834 367.139 355.566 367.942 355.566 368.746C355.388 370.354 354.942 373.48 352.979 375.802L350.748 401.434L336.472 403.578Z" fill="#F06767"/>
<path d="M350.748 358.743L349.231 366.871" stroke="#101C30" stroke-width="0.75" stroke-miterlimit="10" stroke-linecap="round" stroke-linejoin="round"/>
<path d="M353.336 359.815L351.641 367.317" stroke="#101C30" stroke-width="0.75" stroke-miterlimit="10" stroke-linecap="round" stroke-linejoin="round"/>
<path d="M352.087 368.568C352.087 368.568 348.696 369.371 347.982 375.087" stroke="#101C30" stroke-width="0.75" stroke-miterlimit="10" stroke-linecap="round" stroke-linejoin="round"/>
<path d="M277.316 642.843V625.338H261.434L261.077 635.609L250.905 648.113L244.213 652.846C242.785 653.918 243.499 656.151 245.284 656.151H258.578C261.523 656.151 264.2 654.811 266.073 652.578L269.821 648.024L270.535 656.151H278.476L277.316 642.843Z" fill="#101C30"/>
<path d="M324.784 642.843L322.553 625.338H338.435L341.023 635.609L351.194 648.113L357.886 652.846C359.314 653.918 358.6 656.151 356.816 656.151H343.521C340.577 656.151 337.9 654.811 336.026 652.578L332.279 648.024L331.565 656.151H323.624L324.784 642.843Z" fill="#101C30"/>
<path d="M270.802 470.74L269.375 479.939C260.631 499.856 257.24 526.828 257.597 543.35C257.686 547.28 257.062 551.12 255.723 554.871C249.388 572.019 246.176 587.649 248.674 602.564C249.21 605.6 248.853 608.726 247.604 611.584C245.373 616.764 244.124 621.766 243.41 625.249C242.875 627.928 244.927 630.429 247.693 630.429H282.312C285.078 630.429 287.398 628.196 287.398 625.338V510.126L310.864 624.892C311.489 628.107 314.433 630.518 317.735 630.518H348.518C352.087 630.518 354.406 626.678 352.622 623.552C351.64 621.855 350.57 620.069 349.321 618.283C345.573 612.835 343.253 606.404 342.718 599.795C341.469 584.969 337.632 567.286 331.654 558.176C330.048 555.765 329.156 552.996 328.799 550.227C323.088 499.052 311.757 480.118 311.757 480.118L310.151 470.919H270.802V470.74Z" fill="#7B79CB"/>
<path d="M294.001 476.277L310.865 474.402L310.24 470.651H270.981L269.553 479.85C269.196 480.564 268.929 481.279 268.661 482.083C275.264 480.386 288.647 477.349 292.216 476.545C292.752 476.456 293.287 476.367 294.001 476.277Z" fill="#101C30"/>
<path d="M315.326 441.803L342.004 428.764C346.465 426.531 349.856 422.601 351.284 417.868L357.975 395.897C356.191 398.487 343.967 398.219 338.881 395.093L334.777 409.383L295.339 423.405L282.669 427.692L267.59 432.515C263.129 433.944 260.987 438.945 263.04 443.143L269.107 455.736L270.356 466.9C270.356 466.9 263.218 473.33 271.07 473.33C279.011 473.33 307.206 473.33 310.329 473.33C313.452 473.33 313.006 468.597 311.043 466.007L315.326 441.803Z" fill="#F2D0A2"/>
<path d="M289.272 432.515L288.737 470.115" stroke="#101C30" stroke-width="0.75" stroke-miterlimit="10" stroke-linecap="round" stroke-linejoin="round"/>
<path d="M310.151 445.822L299.265 461.541" stroke="#101C30" stroke-width="0.75" stroke-miterlimit="10" stroke-linecap="round" stroke-linejoin="round"/>
<path d="M281.242 474.223C283.472 473.687 282.848 460.916 282.848 460.916L275.888 462.077C275.977 462.077 275.085 475.652 281.242 474.223Z" fill="#101C30"/>
<path d="M292.395 464.22V453.056C292.395 452.342 292.93 451.806 293.555 451.627C299.979 450.02 299.176 439.034 299.176 439.034H284.454C284.454 439.034 283.74 450.02 290.075 451.627C290.789 451.806 291.235 452.342 291.235 453.056V464.22C288.29 464.22 285.881 464.578 285.881 464.935C285.881 465.292 288.469 465.649 291.681 465.649C294.893 465.649 297.481 465.381 297.481 464.935C297.748 464.488 295.428 464.22 292.395 464.22Z" fill="white"/>
<path d="M285.703 440.821C285.703 443.411 286.238 450.734 291.949 450.734C297.659 450.734 298.194 443.411 298.194 440.821H285.703Z" fill="#FFC038"/>
<path d="M295.339 423.405L282.669 427.692L279.279 428.764C280.617 438.767 283.562 437.873 289.361 431.354C297.213 436.712 298.284 430.55 298.462 422.333L295.339 423.405Z" fill="#7B79CB"/>
<path d="M273.568 479.939H308.455" stroke="#101C30" stroke-width="0.75" stroke-miterlimit="10" stroke-linecap="round" stroke-linejoin="round"/>
<path d="M275.888 479.939C275.531 483.869 270.981 489.942 265.27 491.192" stroke="#101C30" stroke-width="0.75" stroke-miterlimit="10" stroke-linecap="round" stroke-linejoin="round"/>
<path d="M304.708 479.939C305.154 486.012 310.061 490.925 315.95 491.639" stroke="#101C30" stroke-width="0.75" stroke-miterlimit="10" stroke-linecap="round" stroke-linejoin="round"/>
<path d="M279.457 507.447L297.213 503.607" stroke="#101C30" stroke-width="0.75" stroke-miterlimit="10" stroke-linecap="round" stroke-linejoin="round"/>
<path d="M287.398 510.127L289.272 479.939" stroke="#101C30" stroke-width="0.75" stroke-miterlimit="10" stroke-linecap="round" stroke-linejoin="round"/>
<path d="M284.543 479.939C284.543 479.939 281.688 495.569 288.201 496.908" stroke="#101C30" stroke-width="0.75" stroke-miterlimit="10" stroke-linecap="round" stroke-linejoin="round"/>
<path d="M283.918 506.465L278.833 620.873" stroke="#101C30" stroke-width="0.75" stroke-miterlimit="10" stroke-linecap="round" stroke-linejoin="round"/>
<path d="M291.057 504.947L318.984 620.873" stroke="#101C30" stroke-width="0.75" stroke-miterlimit="10" stroke-linecap="round" stroke-linejoin="round"/>
<path d="M246.979 620.873H285.168" stroke="#101C30" stroke-width="0.75" stroke-miterlimit="10" stroke-linecap="round" stroke-linejoin="round"/>
<path d="M312.738 620.873H348.25" stroke="#101C30" stroke-width="0.75" stroke-miterlimit="10" stroke-linecap="round" stroke-linejoin="round"/>
<path d="M275.264 458.147L284.186 456.004L289.004 452.521C289.986 451.806 291.146 451.538 292.306 451.627C295.339 451.895 297.748 452.253 298.462 452.521C299.801 452.967 299.087 454.575 298.016 454.664C299.622 454.932 299.711 456.897 298.105 456.897C299.176 457.701 298.551 459.04 296.41 458.862C297.57 459.576 296.945 460.469 295.161 460.469C293.376 460.469 291.592 460.469 291.592 460.469C291.592 460.469 288.29 465.024 283.651 463.417L276.78 465.917L275.264 458.147Z" fill="#F06767"/>
<path d="M297.659 454.664L291.949 454.218" stroke="#101C30" stroke-width="0.75" stroke-miterlimit="10" stroke-linecap="round" stroke-linejoin="round"/>
<path d="M297.213 456.718L291.77 456.45" stroke="#101C30" stroke-width="0.75" stroke-miterlimit="10" stroke-linecap="round" stroke-linejoin="round"/>
<path d="M295.518 458.772L291.77 458.504" stroke="#101C30" stroke-width="0.75" stroke-miterlimit="10" stroke-linecap="round" stroke-linejoin="round"/>
<path d="M267.59 432.515L263.843 434.212C260.987 435.551 258.668 437.695 256.972 440.285L244.213 460.737C242.161 464.131 241.715 468.239 243.232 471.901C245.462 477.617 251.619 480.832 257.597 479.493L281.152 474.134C277.94 474.848 278.743 456.897 278.743 456.897L264.021 459.933L269.464 451.359L267.59 432.515Z" fill="#F2D0A2"/>
<path d="M272.141 447.43L264.11 460.023" stroke="#101C30" stroke-width="0.75" stroke-miterlimit="10" stroke-linecap="round" stroke-linejoin="round"/>
<path d="M278.832 456.986L259.292 461.005" stroke="#101C30" stroke-width="0.75" stroke-miterlimit="10" stroke-linecap="round" stroke-linejoin="round"/>
<path d="M283.472 416.617C283.472 416.617 283.74 422.69 282.669 427.692C290.521 430.282 294.179 425.727 295.339 423.405C295.339 423.405 293.644 419.654 293.822 416.349L283.472 416.617Z" fill="#F06767"/>
<path d="M290.789 422.958C292.752 423.137 294.447 421.351 294.09 419.386C293.912 418.403 293.822 417.421 293.822 416.438L283.472 416.617C283.472 416.617 283.472 417.153 283.472 418.046C283.472 419.029 283.918 420.011 284.721 420.636C286.06 421.619 288.023 422.69 290.789 422.958Z" fill="#101C30"/>
<path d="M298.373 400.184C301.527 400.184 304.083 397.625 304.083 394.468C304.083 391.311 301.527 388.752 298.373 388.752C295.219 388.752 292.662 391.311 292.662 394.468C292.662 397.625 295.219 400.184 298.373 400.184Z" fill="#FFC038"/>
<path d="M295.964 393.039C295.25 392.324 294.447 391.699 293.555 391.163C292.93 392.056 292.573 393.218 292.573 394.468C292.573 397.683 295.161 400.184 298.284 400.184C299.176 400.184 299.979 400.005 300.782 399.648C300.871 396.254 299.354 393.485 295.964 393.039Z" fill="#101C30"/>
<path d="M280.706 410.187C277.94 409.115 274.907 405.543 276.602 399.827C278.476 393.575 288.38 390.538 294.447 394.379C300.96 393.664 302.923 403.131 298.997 410.187H280.706Z" fill="#FFC038"/>
<path d="M279.814 403.846L280.528 412.241C280.885 416.617 284.543 420.011 288.915 420.011C292.752 420.011 296.142 417.421 297.124 413.67L298.016 410.008C298.284 409.026 297.927 408.043 297.213 407.418C295.785 406.078 293.555 403.578 294.001 400.809C288.915 405.185 280.974 404.203 279.814 403.846Z" fill="#F06767"/>
<path opacity="0.7" d="M284.632 414.206C285.519 414.206 286.238 413.486 286.238 412.598C286.238 411.71 285.519 410.99 284.632 410.99C283.745 410.99 283.026 411.71 283.026 412.598C283.026 413.486 283.745 414.206 284.632 414.206Z" fill="#D94343"/>
<path opacity="0.7" d="M293.376 414.206C294.263 414.206 294.982 413.486 294.982 412.598C294.982 411.71 294.263 410.99 293.376 410.99C292.489 410.99 291.77 411.71 291.77 412.598C291.77 413.486 292.489 414.206 293.376 414.206Z" fill="#D94343"/>
<path d="M300.803 412.686C302.122 411.498 302.47 409.733 301.58 408.743C300.69 407.753 298.899 407.913 297.581 409.101C296.262 410.289 295.914 412.054 296.804 413.044C297.694 414.034 299.485 413.874 300.803 412.686Z" fill="#F06767"/>
<path d="M300.782 409.83C300.782 409.83 298.64 409.294 297.213 411.884" stroke="#101C30" stroke-width="0.5" stroke-miterlimit="10" stroke-linecap="round" stroke-linejoin="round"/>
<path d="M281.159 413.075C282.049 412.085 281.702 410.319 280.383 409.132C279.064 407.944 277.274 407.783 276.384 408.774C275.494 409.764 275.841 411.529 277.16 412.717C278.479 413.905 280.269 414.065 281.159 413.075Z" fill="#F06767"/>
<path d="M277.137 409.83C277.137 409.83 279.279 409.294 280.706 411.884" stroke="#101C30" stroke-width="0.5" stroke-miterlimit="10" stroke-linecap="round" stroke-linejoin="round"/>
<path d="M282.669 408.758C282.669 408.758 284.275 406.882 287.041 408.758" stroke="#101C30" stroke-width="0.5" stroke-miterlimit="10" stroke-linecap="round" stroke-linejoin="round"/>
<path d="M295.339 408.758C295.339 408.758 293.733 406.882 290.967 408.758" stroke="#101C30" stroke-width="0.5" stroke-miterlimit="10" stroke-linecap="round" stroke-linejoin="round"/>
<path d="M282.669 406.436C282.669 406.436 284.811 405.543 287.398 406.436" stroke="#FFC038" stroke-miterlimit="10"/>
<path d="M295.339 406.436C295.339 406.436 293.198 405.543 290.61 406.436" stroke="#FFC038" stroke-miterlimit="10"/>
<path d="M288.469 407.775V410.187L287.934 410.455C287.487 410.723 287.22 411.259 287.487 411.794C287.755 412.241 288.29 412.42 288.737 412.241L289.629 411.884" stroke="#101C30" stroke-width="0.5" stroke-miterlimit="10" stroke-linecap="round" stroke-linejoin="round"/>
<path d="M285.614 412.866C285.614 412.866 288.112 414.831 291.949 412.866" stroke="#101C30" stroke-width="0.5" stroke-miterlimit="10" stroke-linecap="round" stroke-linejoin="round"/>
<path d="M203.526 636.967L203.08 647.417H217.446L217.803 636.967H203.526Z" fill="#CC7156"/>
<path d="M207.898 655.455H213.163L213.43 657.241H233.06C234.398 657.241 235.291 655.812 234.666 654.651C232.703 650.81 227.528 649.203 224.851 648.667C223.781 648.399 222.799 647.863 222.174 646.97L219.676 643.755C218.962 642.862 217.802 642.505 216.732 642.862L214.233 643.755C213.43 644.023 213.163 645.095 213.698 645.72L213.966 645.988L202.01 644.38C197.727 648.31 198.351 657.33 198.351 657.33H207.452L207.898 655.455Z" fill="#101C30"/>
<path d="M157.932 636.967L156.326 647.417H142.05L143.567 636.967H157.932Z" fill="#CC7156"/>
<path d="M151.597 655.455H146.333L146.065 657.241H126.436C125.097 657.241 124.205 655.812 124.83 654.651C126.792 650.81 131.968 649.203 134.644 648.667C135.715 648.399 136.696 647.863 137.321 646.97L139.819 643.755C140.533 642.862 141.693 642.505 142.764 642.862L145.262 643.755C146.065 644.023 146.333 645.095 145.797 645.72L145.53 645.988L157.486 644.38C161.769 648.31 161.144 657.33 161.144 657.33H151.865L151.597 655.455Z" fill="#101C30"/>
<path d="M157.04 477.903H210.486L223.156 544.262C224.762 552.568 225.387 561.052 225.03 569.448L222.085 640.361H198.53L199.69 562.571L184.164 497.998L162.304 640.361H137.946L152.4 495.766C152.579 494.069 152.936 492.372 153.382 490.764L157.04 477.903Z" fill="#7B79CB"/>
<path d="M210.486 477.903H157.04L153.382 490.675C152.935 492.282 152.579 493.979 152.4 495.676L152.043 498.802C158.467 498.445 168.55 499.517 179.346 501.66C181.577 502.107 183.718 500.588 184.075 498.356L184.164 497.909L185.324 502.911C192.819 504.607 200.314 506.662 206.917 509.073C211.467 510.681 216.018 506.751 215.126 502.017L210.486 477.903Z" fill="#101C30" fill-opacity="0.7"/>
<path d="M174.26 497.016L192.284 498.177" stroke="#264578" stroke-width="0.75" stroke-miterlimit="10" stroke-linecap="round" stroke-linejoin="round"/>
<path d="M184.164 497.998L182.915 477.903" stroke="#264578" stroke-width="0.75" stroke-miterlimit="10" stroke-linecap="round" stroke-linejoin="round"/>
<path d="M186.841 477.903L187.377 486.834C187.466 488.71 186.484 490.586 184.878 491.479L183.807 492.015" stroke="#264578" stroke-width="0.75" stroke-miterlimit="10" stroke-linecap="round" stroke-linejoin="round"/>
<path d="M194.782 471.919H171.048V477.903H194.782V471.919Z" fill="#264578"/>
<path d="M186.752 477.903H179.168C178.811 477.903 178.454 477.546 178.454 477.189V472.545C178.454 472.187 178.811 471.83 179.168 471.83H186.752C187.109 471.83 187.466 472.187 187.466 472.545V477.189C187.466 477.635 187.109 477.903 186.752 477.903Z" fill="white"/>
<path d="M194.782 412.795H171.048V471.919H194.782V412.795Z" fill="#F2D0A2"/>
<path d="M155.702 490.318L157.218 491.211C159.271 492.372 161.947 492.104 163.464 490.318C163.553 490.228 163.643 490.05 163.732 489.96C165.873 487.192 164.981 483.173 162.037 481.386L160.252 480.315L155.702 490.318Z" fill="#CC7156"/>
<path d="M175.956 411.456L175.153 481.029C175.153 484.78 171.048 486.924 167.925 484.959L150.437 473.884C150.437 473.884 151.954 471.205 153.917 470.401L154.006 446.108L145.441 423.245L147.047 420.565C148.653 417.886 151.24 416.1 154.274 415.564L175.956 411.456Z" fill="#7B79CB"/>
<path d="M189.875 411.456L190.767 484.691C190.767 487.37 192.909 489.514 195.585 489.603L215.572 490.228C216.642 490.228 217.446 489.335 217.267 488.353L211.824 446.019L220.925 423.155L218.516 419.583C217.089 417.439 214.858 416.01 212.36 415.564L189.875 411.456Z" fill="#7B79CB"/>
<path d="M174.26 412.885C174.26 412.885 162.304 413.51 171.405 430.3C166.676 437.713 170.691 443.608 173.725 450.753" stroke="#101C30" stroke-width="0.75" stroke-miterlimit="10" stroke-linecap="round" stroke-linejoin="round"/>
<path d="M191.57 412.885C191.57 412.885 203.526 413.51 194.425 430.3C199.154 437.713 195.139 443.608 192.105 450.753" stroke="#101C30" stroke-width="0.75" stroke-miterlimit="10" stroke-linecap="round" stroke-linejoin="round"/>
<path d="M189.875 413.867C190.143 418.779 175.688 418.779 175.956 413.867L176.58 401.72H189.34L189.875 413.867Z" fill="#CC7156"/>
<path d="M189.34 401.72H176.58L176.491 402.882C176.402 404.31 177.026 405.65 178.097 406.454C178.811 406.99 179.614 407.436 180.685 407.794C181.488 408.062 182.202 408.508 182.826 409.044C183.361 409.491 183.897 409.937 184.611 410.205C186.93 411.366 189.696 409.491 189.518 406.901L189.34 401.72Z" fill="#101C30"/>
<path d="M200.136 456.022L201.206 453.164C201.474 452.449 202.277 451.914 203.08 451.914L212.627 452.182L213.876 462.184L200.136 456.022Z" fill="#101C30"/>
<path d="M214.947 469.597L197.905 461.291L196.121 468.168C195.942 468.883 196.21 469.687 196.924 470.133L216.732 482.726L214.947 469.597Z" fill="#101C30"/>
<path d="M166.408 433.694H157.397V435.302H166.408V433.694Z" fill="#101C30"/>
<path d="M156.951 471.205L167.122 478.439" stroke="#101C30" stroke-width="0.75" stroke-miterlimit="10" stroke-linecap="round" stroke-linejoin="round"/>
<path d="M147.047 420.297L124.651 457.987C120.279 465.31 122.599 474.867 129.915 479.243L154.452 494.337C154.452 494.337 161.858 491.211 161.858 481.119L141.782 467.9L153.828 445.93C153.828 445.93 153.471 429.854 151.24 420.833C150.883 418.958 148.117 418.511 147.047 420.297Z" fill="#7B79CB"/>
<path d="M187.466 460.22V449.056C187.466 448.341 188.001 447.805 188.626 447.627C195.05 446.019 194.247 435.034 194.247 435.034H179.525C179.525 435.034 178.811 446.019 185.146 447.627C185.86 447.805 186.306 448.341 186.306 449.056V460.22C183.361 460.22 180.952 460.577 180.952 460.934C180.952 461.291 183.54 461.649 186.752 461.649C189.964 461.649 192.552 461.381 192.552 460.934C192.73 460.577 190.41 460.309 187.466 460.22Z" fill="white"/>
<path d="M180.685 436.909C180.685 439.499 181.22 446.823 186.93 446.823C192.641 446.823 193.176 439.499 193.176 436.909H180.685Z" fill="#FFC038"/>
<path d="M189.875 500.856L203.705 561.767L203.526 636.967" stroke="#101C30" stroke-width="0.75" stroke-miterlimit="10" stroke-linecap="round" stroke-linejoin="round"/>
<path d="M179.346 501.75L159.092 635.895" stroke="#101C30" stroke-width="0.75" stroke-miterlimit="10" stroke-linecap="round" stroke-linejoin="round"/>
<path d="M161.947 481.118L153.917 470.222C153.917 470.222 151.776 470.937 150.437 473.706L161.947 481.118Z" fill="#101C30"/>
<path d="M205.668 455.575L199.333 453.521L191.213 449.056C190.678 448.698 189.964 448.609 189.339 448.609H185.949C184.878 448.609 183.986 449.502 183.986 450.574V450.931H181.131C180.506 450.931 179.971 451.467 179.971 452.092C179.971 452.717 180.506 453.253 181.131 453.253H182.648H181.666C181.131 453.253 180.685 453.7 180.685 454.236C180.685 454.772 181.131 455.218 181.666 455.218L187.733 455.486C185.503 455.665 183.808 455.843 182.291 456.558C181.934 456.736 181.666 457.183 181.755 457.54C181.845 458.076 182.469 458.344 182.915 458.165C183.986 457.719 185.057 457.63 186.573 457.808C186.573 457.808 187.912 461.47 197.013 461.738C197.013 461.738 202.723 464.507 202.723 464.328C202.723 464.149 205.668 455.575 205.668 455.575Z" fill="#CC7156"/>
<path d="M183.005 453.075H187.555" stroke="#101C30" stroke-width="0.75" stroke-miterlimit="10" stroke-linecap="round" stroke-linejoin="round"/>
<path d="M184.432 450.842H187.198" stroke="#101C30" stroke-width="0.75" stroke-miterlimit="10" stroke-linecap="round" stroke-linejoin="round"/>
<path d="M218.873 420.119L242.696 455.665C246.265 460.934 246.265 467.811 242.875 473.17C238.592 479.779 230.205 482.279 223.067 479.064L197.994 467.9L202.634 453.521L223.334 460.398L212.003 446.108C209.772 436.463 210.664 427.978 214.055 420.565C214.858 418.422 217.624 418.243 218.873 420.119Z" fill="#7B79CB"/>
<path d="M228.866 462.631L224.227 460.934" stroke="#101C30" stroke-width="0.75" stroke-miterlimit="10" stroke-linecap="round" stroke-linejoin="round"/>
<path d="M171.494 394.754C171.494 394.754 163.643 385.377 169.085 383.233C168.728 377.071 173.1 376.892 175.331 377.964C179.168 374.748 183.004 374.391 185.235 377.428C193.533 375.016 197.37 379.571 195.675 384.126C200.671 386.359 198.53 391.628 195.139 393.504L192.73 395.826L171.494 394.754Z" fill="#162C4F"/>
<path d="M174.707 394.218L173.279 392.611C172.476 391.718 171.048 391.718 170.245 392.611C169.621 393.325 169.531 394.308 170.067 395.111C170.335 395.469 170.513 395.737 170.781 396.094C171.762 397.166 173.101 397.702 174.528 397.702H174.617V394.218H174.707Z" fill="#CC7156"/>
<path d="M170.959 393.682C170.959 393.682 172.387 392.879 174.35 396.362" stroke="#101C30" stroke-width="0.75" stroke-miterlimit="10" stroke-linecap="round" stroke-linejoin="round"/>
<path d="M191.124 394.218L192.552 392.611C193.355 391.718 194.782 391.718 195.585 392.611C196.21 393.325 196.299 394.308 195.764 395.111C195.496 395.469 195.318 395.737 195.05 396.094C194.068 397.166 192.73 397.702 191.302 397.702H191.124V394.218Z" fill="#CC7156"/>
<path d="M194.782 393.682C194.782 393.682 193.355 392.879 191.392 396.362" stroke="#101C30" stroke-width="0.75" stroke-miterlimit="10" stroke-linecap="round" stroke-linejoin="round"/>
<path d="M182.469 387.252C180.863 387.431 178.008 387.431 176.759 385.823C176.67 387.609 175.866 388.86 174.974 389.663C174.171 390.378 173.814 391.45 173.904 392.521L174.082 397.344C174.26 402.078 178.186 405.829 182.915 405.829C187.644 405.829 191.57 402.078 191.749 397.344L191.927 392.432C191.927 391.807 191.481 391.271 190.856 391.182C187.912 390.914 185.503 388.949 184.343 387.788C183.808 387.431 183.183 387.252 182.469 387.252Z" fill="#CC7156"/>
<path d="M177.026 393.593C177.026 393.593 178.9 392.254 180.595 393.593" stroke="#101C30" stroke-width="0.75" stroke-miterlimit="10" stroke-linecap="round" stroke-linejoin="round"/>
<path d="M188.804 393.593C188.804 393.593 186.93 392.254 185.235 393.593" stroke="#101C30" stroke-width="0.75" stroke-miterlimit="10" stroke-linecap="round" stroke-linejoin="round"/>
<path d="M183.361 393.236V396.094C183.361 396.451 183.004 396.719 182.648 396.63L181.755 396.362" stroke="#101C30" stroke-width="0.75" stroke-miterlimit="10" stroke-linecap="round" stroke-linejoin="round"/>
<path d="M180.239 397.612H185.592C185.949 397.612 186.127 397.88 186.127 398.237C185.86 399.488 185.057 402.435 182.915 402.435C180.774 402.435 179.971 399.577 179.792 398.237C179.703 397.88 179.882 397.612 180.239 397.612Z" fill="#101C30"/>
<path opacity="0.7" d="M185.681 399.756C184.878 399.399 183.986 399.131 182.915 399.131C181.845 399.131 180.952 399.399 180.149 399.756C180.595 401.006 181.398 402.346 182.826 402.346C184.343 402.346 185.146 401.006 185.681 399.756Z" fill="#D94343"/>
<path d="M176.848 391.36C176.848 391.36 178.722 390.467 180.774 391.36" stroke="#162C4F" stroke-miterlimit="10"/>
<path d="M185.146 391.36C185.146 391.36 187.02 390.467 189.072 391.36" stroke="#162C4F" stroke-miterlimit="10"/>
<g opacity="0.7">
<path opacity="0.7" d="M177.829 399.309C178.766 399.309 179.525 398.549 179.525 397.612C179.525 396.675 178.766 395.915 177.829 395.915C176.893 395.915 176.134 396.675 176.134 397.612C176.134 398.549 176.893 399.309 177.829 399.309Z" fill="#D94343"/>
<path opacity="0.7" d="M188.001 399.309C188.937 399.309 189.696 398.549 189.696 397.612C189.696 396.675 188.937 395.915 188.001 395.915C187.065 395.915 186.306 396.675 186.306 397.612C186.306 398.549 187.065 399.309 188.001 399.309Z" fill="#D94343"/>
</g>
<path d="M12.8056 330.037L12.7164 331.376L12.3595 335.217L11.378 346.738C10.4857 346.381 9.23656 346.291 7.98741 346.559C4.86452 347.095 2.18776 349.149 2.00931 351.203C1.83086 353.258 4.23994 354.419 7.36283 353.883C10.4857 353.347 13.1625 351.293 13.3409 349.239L14.5901 334.859L28.1523 332.537L27.1709 344.059C26.2786 343.701 25.0295 343.612 23.7803 343.88C20.6574 344.416 17.9807 346.47 17.8022 348.524C17.6238 350.578 20.0328 351.739 23.1557 351.203C26.2786 350.668 28.9554 348.613 29.1338 346.559L30.383 332.18L30.7399 328.34L30.8291 327L12.8056 330.037Z" fill="#99B6E8"/>
<path opacity="0.5" d="M119.922 505.383C125.737 505.383 130.451 500.105 130.451 493.594C130.451 487.083 125.737 481.805 119.922 481.805C114.107 481.805 109.394 487.083 109.394 493.594C109.394 500.105 114.107 505.383 119.922 505.383Z" fill="white"/>
<path opacity="0.5" d="M243.41 406.962C246.564 406.962 249.121 404.123 249.121 400.621C249.121 397.119 246.564 394.28 243.41 394.28C240.256 394.28 237.7 397.119 237.7 400.621C237.7 404.123 240.256 406.962 243.41 406.962Z" fill="white"/>
<path opacity="0.5" d="M184.432 600.232C187.586 600.232 190.143 597.393 190.143 593.891C190.143 590.389 187.586 587.55 184.432 587.55C181.278 587.55 178.722 590.389 178.722 593.891C178.722 597.393 181.278 600.232 184.432 600.232Z" fill="white"/>
<path d="M92.077 618.48L93.1477 633.931C93.4154 638.307 95.1999 642.415 98.1444 645.63L102.07 649.917L109.833 654.919C110.904 655.633 110.368 657.241 109.119 657.241H97.0737C94.843 657.241 92.6124 656.348 91.0063 654.829L84.4037 648.667V657.241H81.0131C81.0131 654.383 74.3212 646.524 81.0131 639.379L75.7488 618.39H92.077V618.48Z" fill="#F06D59"/>
<path d="M109.833 654.919L102.07 649.917L98.1443 645.63L96.0922 646.702C94.6646 647.417 92.88 647.149 91.8093 645.988C89.2218 643.219 84.136 639.111 78.8717 642.505C76.1057 648.667 80.9238 654.74 80.9238 657.241H84.3144V648.667L90.9171 654.829C92.5231 656.348 94.7538 657.241 96.9844 657.241H109.03C110.368 657.241 110.814 655.633 109.833 654.919Z" fill="#101C30"/>
<path d="M29.4409 618.48L23.1059 636.699C22.2136 639.2 22.8382 641.879 24.6227 643.844L30.3331 650.007L38.0957 655.008C39.1664 655.723 38.6311 657.33 37.3819 657.33H25.2473C23.0166 657.33 20.786 656.437 19.1799 654.919L12.5773 648.756V657.33H9.18669C9.18669 654.651 3.29781 647.506 8.20521 640.718C8.91901 639.647 9.36515 638.486 9.63282 637.235L13.2018 618.48H29.4409Z" fill="#F06D59"/>
<path d="M38.0064 654.919L30.2438 649.917L26.3179 645.63L24.2657 646.702C22.8381 647.417 21.0536 647.149 19.9829 645.988C17.3954 643.219 12.3095 639.111 7.04525 642.505C4.27926 648.667 9.09742 654.74 9.09742 657.241H12.488V648.667L19.0907 654.829C20.6967 656.348 22.9274 657.241 25.158 657.241H37.2034C38.5418 657.241 38.9879 655.633 38.0064 654.919Z" fill="#101C30"/>
<path d="M60.6697 421.369L101.178 407.169L118.845 369.122V352.063C118.845 351.349 119.38 350.813 120.094 350.813C120.808 350.813 121.343 351.349 121.343 352.063L121.611 359.655L122.771 356.618C123.038 355.993 123.395 355.368 123.93 354.921L126.161 352.778C126.607 352.331 127.232 352.421 127.678 352.778C128.035 353.224 128.035 353.85 127.678 354.207L125.983 355.993L124.733 360.727L126.25 357.69C126.34 357.422 126.518 357.243 126.696 356.975L128.392 355.1C128.749 354.743 129.284 354.743 129.641 355.1C129.998 355.457 129.998 355.904 129.73 356.261L128.392 357.958L126.607 362.691L129.373 358.226C129.641 357.869 130.087 357.779 130.444 357.958C130.801 358.137 130.89 358.672 130.712 359.03L129.373 361.441L128.392 364.924C128.392 364.924 129.462 369.122 127.232 371.891L115.989 409.491C113.759 416.725 108.405 422.619 101.356 425.299L71.6444 436.82L60.6697 421.369Z" fill="#F06D59"/>
<path d="M120.451 362.691L123.038 359.655C123.395 359.298 124.02 359.298 124.287 359.655C124.555 359.923 124.555 360.28 124.377 360.637L122.949 363.317C122.771 363.763 122.771 364.21 123.038 364.567C123.574 365.371 124.466 367.246 123.752 369.926" stroke="#101C30" stroke-width="0.75" stroke-miterlimit="10" stroke-linecap="round" stroke-linejoin="round"/>
<path d="M89.2218 554.443C89.0434 552.21 88.8649 549.978 88.5972 547.834C86.0989 528.454 81.9946 507.644 76.9979 486.12H74.8565C74.4996 475.045 72.1798 429.854 56.9222 422.619L42.7354 426.996L39.8802 486.12H30.0654C20.2506 509.52 30.6008 555.426 30.6008 555.426C17.8415 573.467 12.0419 619.73 12.0419 619.73C25.3365 628.036 75.3027 629.733 93.5939 621.695L89.2218 554.443Z" fill="#7B79CB"/>
<path d="M81.0131 503.982C79.764 498.088 78.4256 492.104 76.998 486.12H74.8566C74.7673 483.709 74.5889 479.69 74.232 474.867L40.3263 477.903L39.9694 486.12H30.1547C27.8348 491.568 26.6749 498.356 26.2287 505.411C25.7826 512.288 33.2775 516.665 38.988 512.913C51.0334 504.607 69.4138 495.408 81.0131 503.982Z" fill="#101C30" fill-opacity="0.7"/>
<path d="M31.9391 431.372L42.7354 426.907C44.163 426.371 45.769 426.907 46.4829 428.246C49.2488 433.248 51.5687 438.428 53.0855 444.054C53.9778 447.27 54.2455 450.663 53.9778 453.968L50.7657 494.962C50.6764 496.48 49.3381 497.731 47.8212 497.731H24.8903C23.3735 497.731 22.3028 496.212 22.8381 494.783L33.8128 465.489L31.9391 431.372Z" fill="#F2D0A2"/>
<path d="M42.557 441.553C41.5755 448.43 39.8802 454.504 37.2035 459.773C36.3112 461.649 33.456 461.023 33.3668 458.969L32.8314 451.02L42.557 441.553Z" fill="#162C4F"/>
<path d="M56.9222 422.53C62.2758 426.549 65.3094 438.963 65.2202 448.788L67.2724 494.337C67.3616 496.212 68.8784 497.73 70.8414 497.73H81.1023C83.4222 497.73 85.2067 495.587 84.6713 493.265L76.9087 457.451C76.4626 455.397 76.641 453.343 77.3548 451.378C78.4256 448.431 79.5855 443.429 77.3548 438.606C75.035 433.515 69.503 427.085 66.2017 423.334C64.5956 421.548 62.0081 420.833 59.6882 421.637L56.9222 422.53Z" fill="#F2D0A2"/>
<path d="M72.7151 480.761V469.597C72.7151 468.883 73.2504 468.347 73.875 468.168C80.2992 466.561 79.4962 455.575 79.4962 455.575H64.774C64.774 455.575 64.0602 466.561 70.3952 468.168C71.109 468.347 71.5551 468.883 71.5551 469.597V480.761C68.6107 480.761 66.2016 481.119 66.2016 481.476C66.2016 481.833 68.7892 482.19 72.0013 482.19C75.2134 482.19 77.8009 481.922 77.8009 481.476C78.0686 481.119 75.7487 480.761 72.7151 480.761Z" fill="white"/>
<path d="M66.0232 457.451C66.0232 460.041 66.5585 467.365 72.269 467.365C77.9794 467.365 78.5147 460.041 78.5147 457.451H66.0232Z" fill="#FFC038"/>
<path d="M63.6141 479.332L16.3247 484.334C9.00817 485.138 3.8331 477.278 7.40212 470.758L27.6563 434.855C30.0654 430.658 35.5081 429.407 39.5233 432.176C42.9138 434.498 44.0737 439.053 42.1108 442.715L27.6563 470.49H61.5619L68.0754 468.258C68.8784 467.99 69.7706 467.99 70.5737 468.258L74.3211 469.508C75.0349 469.776 75.5703 470.49 75.5703 471.294V472.366L79.5854 473.348C80.1208 473.438 80.4777 473.974 80.4777 474.42C80.4777 475.135 79.8531 475.671 79.1393 475.581C76.7302 475.135 71.8228 474.331 71.9121 474.331C72.0013 474.331 77.0871 475.849 78.9609 476.385C79.407 476.474 79.6747 476.921 79.6747 477.367C79.5854 477.993 79.0501 478.35 78.5147 478.261L72.1797 476.832L76.4625 478.439C76.8194 478.618 77.0871 478.975 76.9979 479.332C76.9087 479.779 76.4625 480.047 76.0164 479.958L72.6258 479.064C72.5366 478.886 66.2909 481.029 63.6141 479.332Z" fill="#F06D59"/>
<path d="M71.4659 471.294L74.9457 472.098" stroke="#101C30" stroke-width="0.75" stroke-miterlimit="10" stroke-linecap="round" stroke-linejoin="round"/>
<path d="M53.264 393.95C47.8213 388.056 36.1327 388.234 34.8836 400.292C34.6159 403.06 32.2068 405.472 29.3516 405.561C23.1058 405.74 20.2506 409.759 20.6075 414.581C20.786 416.903 19.7153 419.136 18.02 420.655C16.9493 421.548 17.6631 423.245 19.0015 423.245H38.1849C40.9509 423.245 43.5384 421.726 44.966 419.315L50.2303 410.384L53.264 393.95Z" fill="#C23535"/>
<path d="M53.264 393.95C52.6394 393.236 51.9256 392.7 51.1226 392.164C49.1596 390.914 46.5721 391.182 45.0553 392.968C41.7539 396.63 41.8432 402.792 44.6984 406.275C46.126 407.972 48.5351 407.615 50.9441 406.543L53.264 393.95Z" fill="#101C30"/>
<path d="M46.3044 411.009L45.3229 408.419C43.2707 402.882 45.3229 396.719 50.2303 393.504C53.4424 391.36 57.636 391.36 60.9373 393.504C63.8818 395.469 65.4878 398.773 65.2201 402.256V402.346L46.3044 411.009Z" fill="#C23535"/>
<path d="M24.4442 415.653C24.4442 415.653 24.5334 418.332 21.4998 421.726" stroke="#101C30" stroke-width="0.75" stroke-miterlimit="10" stroke-linecap="round" stroke-linejoin="round"/>
<path d="M28.9055 415.653C28.9055 415.653 28.9947 418.332 25.9611 421.726" stroke="#101C30" stroke-width="0.75" stroke-miterlimit="10" stroke-linecap="round" stroke-linejoin="round"/>
<path d="M33.2774 415.653C33.2774 415.653 33.3667 418.332 30.333 421.726" stroke="#101C30" stroke-width="0.75" stroke-miterlimit="10" stroke-linecap="round" stroke-linejoin="round"/>
<path d="M37.7388 415.653C37.7388 415.653 37.828 418.332 34.7943 421.726" stroke="#101C30" stroke-width="0.75" stroke-miterlimit="10" stroke-linecap="round" stroke-linejoin="round"/>
<path d="M42.1108 415.653C42.1108 415.653 42.2 418.332 39.1664 421.726" stroke="#101C30" stroke-width="0.75" stroke-miterlimit="10" stroke-linecap="round" stroke-linejoin="round"/>
<path d="M47.4643 411.902L46.6613 426.013C46.6613 426.728 46.9289 427.442 47.4643 427.8C51.1225 430.568 57.2791 429.318 57.9929 425.299L58.7067 416.368L47.4643 411.902Z" fill="#F06D59"/>
<path d="M47.9104 413.063C47.9104 413.063 48.3565 420.744 55.8515 422.441C57.1006 422.709 58.2605 421.905 58.439 420.565L58.7959 416.368L47.9104 413.063Z" fill="#101C30"/>
<path d="M51.2118 400.202C53.3532 401.363 58.2606 403.417 65.1309 402.435L64.3279 410.741C63.8818 415.117 60.2235 418.511 55.7623 418.511C51.4794 418.511 47.8212 415.296 47.2859 411.009L46.8397 407.704C46.7505 407.079 47.0182 406.454 47.4643 406.097C48.535 405.293 50.2303 403.507 50.1411 400.827C50.2303 400.292 50.7656 399.934 51.2118 400.202Z" fill="#F06D59"/>
<path opacity="0.7" d="M53.6209 412.617C54.6558 412.617 55.4947 411.777 55.4947 410.741C55.4947 409.705 54.6558 408.865 53.6209 408.865C52.5861 408.865 51.7472 409.705 51.7472 410.741C51.7472 411.777 52.5861 412.617 53.6209 412.617Z" fill="#D94343"/>
<path d="M47.4644 407.615L46.6614 406.901C45.4122 405.829 43.4492 406.007 42.4678 407.347C41.4863 408.687 41.9324 410.652 43.4492 411.455C44.0738 411.813 44.7876 412.081 45.6799 412.259C46.929 412.527 48.1782 411.813 48.4459 410.562V410.384C48.6243 409.401 48.2674 408.33 47.4644 407.615Z" fill="#F06D59"/>
<path d="M43.6276 408.062C44.2521 407.436 46.1259 408.329 47.1966 410.384" stroke="#101C30" stroke-width="0.75" stroke-miterlimit="10" stroke-linecap="round" stroke-linejoin="round"/>
<path d="M54.6023 407.615C55.1444 407.615 55.5838 407.175 55.5838 406.633C55.5838 406.09 55.1444 405.65 54.6023 405.65C54.0603 405.65 53.6208 406.09 53.6208 406.633C53.6208 407.175 54.0603 407.615 54.6023 407.615Z" fill="#101C30"/>
<path d="M61.6512 408.24C62.1932 408.24 62.6326 407.8 62.6326 407.258C62.6326 406.715 62.1932 406.275 61.6512 406.275C61.1091 406.275 60.6697 406.715 60.6697 407.258C60.6697 407.8 61.1091 408.24 61.6512 408.24Z" fill="#101C30"/>
<path d="M59.1529 406.097L58.9744 406.811C58.8852 407.258 58.8852 407.615 58.9744 408.062L59.3313 409.491C59.5098 410.116 59.0637 410.83 58.3499 410.741H57.1899" stroke="#101C30" stroke-width="0.75" stroke-miterlimit="10" stroke-linecap="round" stroke-linejoin="round"/>
<path d="M60.3128 411.991C60.3128 411.991 57.0115 414.313 54.424 411.366" stroke="#101C30" stroke-width="0.75" stroke-miterlimit="10" stroke-linecap="round" stroke-linejoin="round"/>
<path d="M53.1748 404.132C53.1748 404.132 55.4054 403.417 57.0115 404.936" stroke="#C23535" stroke-miterlimit="10"/>
<path d="M60.3129 405.204C60.3129 405.204 62.0974 404.4 63.1681 405.561" stroke="#C23535" stroke-miterlimit="10"/>
</g>
<path d="M93.1231 173.583L92.3313 174.544L90.1465 177.147L83.6215 185.114C83.1608 184.39 82.2305 183.755 81.1731 183.307C78.5931 182.093 75.623 182.25 74.5136 183.677C73.4042 185.103 74.6001 187.147 77.0871 188.298C79.667 189.512 82.6371 189.355 83.7466 187.928L91.8551 178.04L102.953 183.154L96.4283 191.12C95.9676 190.397 95.0373 189.762 93.9799 189.314C91.3999 188.1 88.4298 188.257 87.3204 189.684C86.211 191.11 87.4069 193.154 89.8939 194.305C92.4738 195.519 95.4439 195.361 96.5534 193.935L104.662 184.046L106.847 181.443L107.639 180.482L93.1231 173.583Z" fill="#99B6E8" fill-opacity="0.5"/>
<defs>
<linearGradient id="paint0_linear_1143_296" x1="170.5" y1="-255" x2="195.5" y2="758" gradientUnits="userSpaceOnUse">
<stop stop-color="#C133B7"/>
<stop offset="1" stop-color="#221A65"/>
</linearGradient>
<linearGradient id="paint1_linear_1143_296" x1="170.5" y1="-255" x2="195.5" y2="758" gradientUnits="userSpaceOnUse">
<stop stop-color="#C133B7"/>
<stop offset="1" stop-color="#221A65"/>
</linearGradient>
<clipPath id="clip0_1143_296">
<rect width="20.8" height="12" fill="white" transform="translate(262 6)"/>
</clipPath>
</defs>
</svg>
