<svg width="360" height="646" viewBox="0 0 360 646" fill="#AD00DF" xmlns="http://www.w3.org/2000/svg">
<mask id="mask0_212_1293" style="mask-type:alpha" maskUnits="userSpaceOnUse" x="-23" y="-28" width="406" height="674">
<path fill-rule="evenodd" clip-rule="evenodd" d="M360 -28H0V480.022C-9.74578 480.07 -15.2752 480.198 -15.2752 480.424V600.531C-15.8483 600.531 -16.4214 600.531 -17.1856 600.722C-18.5229 600.913 -19.478 601.486 -20.2422 602.25C-24.445 604.541 -23.8719 611.797 -18.3318 611.224C-8.73703 609.991 -0.61742 614.263 7.50881 618.538C10.7084 620.222 13.9091 621.906 17.2012 623.254C29.0455 628.028 40.6988 626.691 53.1163 625.164C60.3757 624.209 67.8262 623.636 74.8946 625.737C81.2167 627.667 86.8931 631.051 92.5174 634.403C93.0113 634.697 93.5049 634.991 93.9984 635.284C105.27 641.585 116.923 645.786 129.913 645.404C141.446 645.05 151.165 640.742 161.521 636.153C162.316 635.801 163.115 635.447 163.918 635.093C176.647 629.439 187.307 631.278 199.514 633.384C202.147 633.838 204.852 634.305 207.666 634.711C221.827 636.654 233.925 630.529 246.046 624.393C258.943 617.863 271.867 611.321 287.329 614.471C292.638 615.545 297.592 617.14 302.483 618.714C311.495 621.615 320.292 624.446 330.694 623.827C347.314 622.872 363.362 617.144 378.836 611.034C384.376 608.933 382.274 600.34 376.925 601.677V483.67C376.925 483.67 370.769 483.589 360 483.452V-28Z" fill="url(#paint0_linear_212_1293)"/>
</mask>
<g mask="url(#mask0_212_1293)">
<path d="M333.255 225.277L333.792 227.204L335.189 232.778L339.508 249.457C338.077 249.397 336.277 249.889 334.654 250.883C330.53 253.181 327.783 257.392 328.549 260.368C329.314 263.343 333.274 263.784 337.398 261.486C341.523 259.188 344.269 254.977 343.504 252.001L338.148 231.173L356.062 221.201L360.381 237.88C358.95 237.82 357.15 238.312 355.527 239.306C351.402 241.604 348.656 245.815 349.421 248.791C350.186 251.766 354.147 252.207 358.271 249.909C362.395 247.611 365.142 243.4 364.377 240.425L359.021 219.596L357.623 214.022L357.086 212.094L333.255 225.277Z" fill="#99B6E8" fill-opacity="0.5"/>
<path d="M304.762 203.984L305.122 205.409L306.071 209.307L309.088 221.084C308.077 221.016 306.823 221.457 305.657 222.15C302.699 223.755 300.772 226.69 301.353 228.743C301.935 230.796 304.715 231.087 307.548 229.526C310.507 227.92 312.434 224.985 311.852 222.932L308.115 208.306L320.739 201.325L323.755 213.101C322.745 213.033 321.491 213.475 320.325 214.167C317.366 215.772 315.44 218.708 316.021 220.76C316.602 222.813 319.383 223.104 322.216 221.543C325.174 219.938 327.101 217.002 326.52 214.95L322.782 200.323L321.834 196.425L321.473 195L304.762 203.984Z" fill="#99B6E8" fill-opacity="0.5"/>
<path d="M150.436 574.36H88.6919C84.9444 574.36 82 571.323 82 567.661V498.802C82 495.051 85.0337 492.104 88.6919 492.104H150.436C154.183 492.104 157.128 495.14 157.128 498.802V567.661C157.128 571.323 154.094 574.36 150.436 574.36Z" fill="#99B6E8"/>
<path d="M119.564 558.998C134.988 558.998 147.491 546.482 147.491 531.044C147.491 515.605 134.988 503.089 119.564 503.089C104.14 503.089 91.6364 515.605 91.6364 531.044C91.6364 546.482 104.14 558.998 119.564 558.998Z" fill="#3560A8"/>
<path d="M119.564 554.443C132.475 554.443 142.941 543.967 142.941 531.044C142.941 518.12 132.475 507.644 119.564 507.644C106.653 507.644 96.1869 518.12 96.1869 531.044C96.1869 543.967 106.653 554.443 119.564 554.443Z" stroke="#162C4F" stroke-width="1.0846" stroke-miterlimit="10"/>
<path d="M119.564 549.978C130.011 549.978 138.48 541.501 138.48 531.044C138.48 520.587 130.011 512.11 119.564 512.11C109.117 512.11 100.648 520.587 100.648 531.044C100.648 541.501 109.117 549.978 119.564 549.978Z" fill="#162C4F"/>
<path d="M146.778 567.661C149.192 567.661 151.15 565.702 151.15 563.285C151.15 560.868 149.192 558.909 146.778 558.909C144.363 558.909 142.406 560.868 142.406 563.285C142.406 565.702 144.363 567.661 146.778 567.661Z" fill="#3560A8"/>
<path d="M92.3502 567.661C94.7648 567.661 96.7222 565.702 96.7222 563.285C96.7222 560.868 94.7648 558.909 92.3502 558.909C89.9356 558.909 87.9781 560.868 87.9781 563.285C87.9781 565.702 89.9356 567.661 92.3502 567.661Z" fill="#3560A8"/>
<path d="M150.436 656.616H88.6919C84.9444 656.616 82 653.579 82 649.917V581.058C82 577.307 85.0337 574.36 88.6919 574.36H150.436C154.183 574.36 157.128 577.396 157.128 581.058V649.917C157.128 653.579 154.094 656.616 150.436 656.616Z" fill="#99B6E8"/>
<path d="M119.564 641.254C134.988 641.254 147.491 628.738 147.491 613.299C147.491 597.861 134.988 585.345 119.564 585.345C104.14 585.345 91.6364 597.861 91.6364 613.299C91.6364 628.738 104.14 641.254 119.564 641.254Z" fill="#3560A8"/>
<path d="M119.564 636.699C132.475 636.699 142.941 626.223 142.941 613.3C142.941 600.376 132.475 589.9 119.564 589.9C106.653 589.9 96.1869 600.376 96.1869 613.3C96.1869 626.223 106.653 636.699 119.564 636.699Z" stroke="#162C4F" stroke-width="1.0846" stroke-miterlimit="10"/>
<path d="M119.564 632.234C130.011 632.234 138.48 623.757 138.48 613.3C138.48 602.843 130.011 594.365 119.564 594.365C109.117 594.365 100.648 602.843 100.648 613.3C100.648 623.757 109.117 632.234 119.564 632.234Z" fill="#162C4F"/>
<path d="M146.778 649.917C149.192 649.917 151.15 647.958 151.15 645.541C151.15 643.124 149.192 641.165 146.778 641.165C144.363 641.165 142.406 643.124 142.406 645.541C142.406 647.958 144.363 649.917 146.778 649.917Z" fill="#3560A8"/>
<path d="M92.3502 649.917C94.7648 649.917 96.7222 647.958 96.7222 645.541C96.7222 643.124 94.7648 641.165 92.3502 641.165C89.9356 641.165 87.9781 643.124 87.9781 645.541C87.9781 647.958 89.9356 649.917 92.3502 649.917Z" fill="#3560A8"/>
<path d="M154.897 576.146C153.737 575.074 152.131 574.36 150.347 574.36H88.6919C86.9073 574.36 85.3905 575.074 84.1414 576.146H154.897Z" fill="#101C30"/>
<g style="mix-blend-mode:luminosity">
<path d="M101.928 255H23.9454V465.014H101.928V255Z" fill="#3C6DBF"/>
<path d="M212.033 255H134.05V465.014H212.033V255Z" fill="#3C6DBF"/>
<path d="M322.047 255H244.064V465.014H322.047V255Z" fill="#3C6DBF"/>
</g>
<path d="M335.796 473.871L335.35 460.653H329.104L328.658 473.871C328.569 475.568 327.587 477.175 326.07 477.979C323.304 479.408 321.609 482.266 321.609 485.392V513.436C321.609 515.222 323.037 516.651 324.821 516.651H339.543C341.328 516.651 342.755 515.222 342.755 513.436V485.392C342.755 482.266 341.06 479.408 338.294 477.979C336.867 477.175 335.885 475.568 335.796 473.871Z" fill="#99B6E8"/>
<path d="M335.439 462.35L335.35 460.742H329.104L329.015 464.046C329.015 464.582 329.639 464.94 330.085 464.672C331.513 463.779 333.119 463.243 334.904 462.975C335.171 462.885 335.439 462.617 335.439 462.35Z" fill="#101C30"/>
<path d="M335.617 462.171H328.925C328.747 462.171 328.569 461.992 328.658 461.814L328.747 460.831C328.836 460.295 329.282 459.849 329.818 459.849H334.725C335.26 459.849 335.796 460.295 335.796 460.831L335.885 461.814C335.974 461.992 335.796 462.171 335.617 462.171Z" fill="#99B6E8"/>
<path d="M323.215 513.704C322.323 513.704 321.787 514.686 322.323 515.401C322.947 516.115 323.84 516.651 324.821 516.651H339.543C340.525 516.651 341.506 516.205 342.042 515.401C342.577 514.686 342.042 513.704 341.149 513.704H323.215Z" fill="#3C6DBF"/>
<path d="M359.976 473.871L359.53 460.653H353.284L352.838 473.871C352.749 475.568 351.767 477.175 350.25 477.979C347.484 479.408 345.789 482.266 345.789 485.392V513.436C345.789 515.222 347.217 516.651 349.001 516.651H363.902C365.686 516.651 367.114 515.222 367.114 513.436V485.392C367.114 482.266 365.419 479.408 362.653 477.979C361.047 477.175 360.065 475.568 359.976 473.871Z" fill="#99B6E8"/>
<path d="M359.619 462.35L359.53 460.742H353.284L353.195 464.046C353.195 464.582 353.819 464.94 354.266 464.672C355.693 463.779 357.299 463.243 359.084 462.975C359.441 462.885 359.619 462.617 359.619 462.35Z" fill="#101C30"/>
<path d="M359.798 462.171H353.106C352.927 462.171 352.749 461.992 352.838 461.814L352.927 460.831C353.016 460.295 353.463 459.849 353.998 459.849H358.905C359.441 459.849 359.976 460.295 359.976 460.831L360.065 461.814C360.154 461.992 359.976 462.171 359.798 462.171Z" fill="#99B6E8"/>
<path d="M347.485 513.704C346.592 513.704 346.057 514.686 346.592 515.401C347.217 516.115 348.109 516.651 349.091 516.651H363.902C364.883 516.651 365.865 516.205 366.4 515.401C366.936 514.686 366.4 513.704 365.508 513.704H347.485Z" fill="#3C6DBF"/>
<path d="M393.257 516.651H270.304V521.206H393.257V516.651Z" fill="#99B6E8"/>
<path d="M334.368 521.206H329.282V666.427H334.368V521.206Z" fill="#99B6E8"/>
<path d="M334.368 531.12L329.282 538.8V521.206H334.368V531.12Z" fill="#101C30"/>
<path d="M287.525 503.344C288.239 503.522 288.685 504.058 288.685 504.773V514.865C288.685 515.49 288.149 516.026 287.614 516.026C285.205 516.115 283.51 516.383 283.42 516.651H295.02C294.931 516.383 293.146 516.115 290.826 516.026C290.202 516.026 289.756 515.49 289.756 514.865V504.773C289.756 504.058 290.291 503.522 290.915 503.344C297.34 501.736 296.537 490.751 296.537 490.751H281.814C281.904 490.751 281.101 501.736 287.525 503.344Z" fill="white"/>
<path d="M283.688 492.626C283.242 492.626 282.974 492.983 282.974 493.341C283.064 496.377 283.956 502.54 289.22 502.54C294.484 502.54 295.377 496.377 295.466 493.341C295.466 492.894 295.109 492.626 294.752 492.626H283.688Z" fill="#FFC038"/>
<path d="M305.905 503.344C306.619 503.522 307.065 504.058 307.065 504.773V514.865C307.065 515.49 306.53 516.026 305.994 516.026C303.585 516.115 301.89 516.383 301.801 516.651H313.4C313.311 516.383 311.526 516.115 309.207 516.026C308.582 516.026 308.136 515.49 308.136 514.865V504.773C308.136 504.058 308.671 503.522 309.296 503.344C315.72 501.736 314.917 490.751 314.917 490.751H300.195C300.284 490.751 299.57 501.736 305.905 503.344Z" fill="white"/>
<path d="M302.069 492.626C301.622 492.626 301.355 492.983 301.355 493.341C301.444 496.377 302.336 502.54 307.601 502.54C312.865 502.54 313.757 496.377 313.846 493.341C313.846 492.894 313.489 492.626 313.132 492.626H302.069Z" fill="#FFC038"/>
<path d="M324.286 503.344C325 503.522 325.446 504.058 325.446 504.773V514.865C325.446 515.49 324.91 516.026 324.375 516.026C321.966 516.115 320.271 516.383 320.181 516.651H331.781C331.691 516.383 329.907 516.115 327.587 516.026C326.962 516.026 326.516 515.49 326.516 514.865V504.773C326.516 504.058 327.052 503.522 327.676 503.344C334.101 501.736 333.298 490.751 333.298 490.751H318.575C318.665 490.751 317.951 501.736 324.286 503.344Z" fill="white"/>
<path d="M320.449 492.626C320.003 492.626 319.735 492.983 319.735 493.341C319.824 496.377 320.717 502.54 325.981 502.54C331.245 502.54 332.138 496.377 332.227 493.341C332.227 492.894 331.87 492.626 331.513 492.626H320.449Z" fill="#FFC038"/>
<path d="M357.976 395.808C359.046 392.503 347.804 390.538 347.804 390.538L345.127 401.345C345.216 401.434 356.013 402.327 357.976 395.808Z" fill="#101C30"/>
<path d="M336.472 403.578L344.324 375.98L343.253 371.247C342.986 370.086 342.986 368.836 343.343 367.585L344.859 361.78C345.038 361.244 345.573 360.887 346.198 360.976C346.822 361.065 347.179 361.601 347.09 362.226L346.555 366.424L348.696 357.761C348.785 357.314 349.231 356.957 349.678 356.957C350.302 356.957 350.837 357.582 350.748 358.207L349.321 366.067L351.373 356.6C351.462 356.064 352.087 355.617 352.622 355.707C353.247 355.796 353.603 356.421 353.514 357.046L351.551 366.692L353.425 359.369C353.603 358.743 354.228 358.386 354.853 358.565C355.388 358.743 355.656 359.279 355.566 359.904L353.693 367.317L355.834 362.852C356.102 362.316 356.726 362.137 357.262 362.494C357.708 362.762 357.797 363.298 357.619 363.745L356.191 366.424C355.834 367.139 355.566 367.942 355.566 368.746C355.388 370.354 354.942 373.48 352.979 375.802L350.748 401.434L336.472 403.578Z" fill="#F06767"/>
<path d="M350.748 358.743L349.231 366.871" stroke="#101C30" stroke-width="0.75" stroke-miterlimit="10" stroke-linecap="round" stroke-linejoin="round"/>
<path d="M353.336 359.815L351.641 367.317" stroke="#101C30" stroke-width="0.75" stroke-miterlimit="10" stroke-linecap="round" stroke-linejoin="round"/>
<path d="M352.087 368.568C352.087 368.568 348.696 369.371 347.982 375.087" stroke="#101C30" stroke-width="0.75" stroke-miterlimit="10" stroke-linecap="round" stroke-linejoin="round"/>
<path d="M277.316 642.843V625.338H261.434L261.077 635.609L250.905 648.113L244.213 652.846C242.785 653.918 243.499 656.151 245.284 656.151H258.578C261.523 656.151 264.2 654.811 266.073 652.578L269.821 648.024L270.535 656.151H278.476L277.316 642.843Z" fill="#101C30"/>
<path d="M324.784 642.843L322.553 625.338H338.435L341.023 635.609L351.194 648.113L357.886 652.846C359.314 653.918 358.6 656.151 356.816 656.151H343.521C340.577 656.151 337.9 654.811 336.026 652.578L332.279 648.024L331.565 656.151H323.624L324.784 642.843Z" fill="#101C30"/>
<path d="M270.802 470.74L269.375 479.939C260.631 499.856 257.24 526.828 257.597 543.35C257.686 547.28 257.062 551.12 255.723 554.871C249.388 572.019 246.176 587.649 248.674 602.564C249.21 605.6 248.853 608.726 247.604 611.584C245.373 616.764 244.124 621.766 243.41 625.249C242.875 627.928 244.927 630.429 247.693 630.429H282.312C285.078 630.429 287.398 628.196 287.398 625.338V510.126L310.864 624.892C311.489 628.107 314.433 630.518 317.735 630.518H348.518C352.087 630.518 354.406 626.678 352.622 623.552C351.64 621.855 350.57 620.069 349.321 618.283C345.573 612.835 343.253 606.404 342.718 599.795C341.469 584.969 337.632 567.286 331.654 558.176C330.048 555.765 329.156 552.996 328.799 550.227C323.088 499.052 311.757 480.118 311.757 480.118L310.151 470.919H270.802V470.74Z" fill="#7B79CB"/>
<path d="M294.001 476.277L310.865 474.402L310.24 470.651H270.981L269.553 479.85C269.196 480.564 268.929 481.279 268.661 482.083C275.264 480.386 288.647 477.349 292.216 476.545C292.752 476.456 293.287 476.367 294.001 476.277Z" fill="#101C30"/>
<path d="M315.326 441.803L342.004 428.764C346.465 426.531 349.856 422.601 351.284 417.868L357.975 395.897C356.191 398.487 343.967 398.219 338.881 395.093L334.777 409.383L295.339 423.405L282.669 427.692L267.59 432.515C263.129 433.944 260.987 438.945 263.04 443.143L269.107 455.736L270.356 466.9C270.356 466.9 263.218 473.33 271.07 473.33C279.011 473.33 307.206 473.33 310.329 473.33C313.452 473.33 313.006 468.597 311.043 466.007L315.326 441.803Z" fill="#F2D0A2"/>
<path d="M289.272 432.515L288.737 470.115" stroke="#101C30" stroke-width="0.75" stroke-miterlimit="10" stroke-linecap="round" stroke-linejoin="round"/>
<path d="M310.151 445.822L299.265 461.541" stroke="#101C30" stroke-width="0.75" stroke-miterlimit="10" stroke-linecap="round" stroke-linejoin="round"/>
<path d="M281.242 474.223C283.472 473.687 282.848 460.916 282.848 460.916L275.888 462.077C275.977 462.077 275.085 475.652 281.242 474.223Z" fill="#101C30"/>
<path d="M292.395 464.22V453.056C292.395 452.342 292.93 451.806 293.555 451.627C299.979 450.02 299.176 439.034 299.176 439.034H284.454C284.454 439.034 283.74 450.02 290.075 451.627C290.789 451.806 291.235 452.342 291.235 453.056V464.22C288.29 464.22 285.881 464.578 285.881 464.935C285.881 465.292 288.469 465.649 291.681 465.649C294.893 465.649 297.481 465.381 297.481 464.935C297.748 464.488 295.428 464.22 292.395 464.22Z" fill="white"/>
<path d="M285.703 440.821C285.703 443.411 286.238 450.734 291.949 450.734C297.659 450.734 298.194 443.411 298.194 440.821H285.703Z" fill="#FFC038"/>
<path d="M295.339 423.405L282.669 427.692L279.279 428.764C280.617 438.767 283.562 437.873 289.361 431.354C297.213 436.712 298.284 430.55 298.462 422.333L295.339 423.405Z" fill="#7B79CB"/>
<path d="M273.568 479.939H308.455" stroke="#101C30" stroke-width="0.75" stroke-miterlimit="10" stroke-linecap="round" stroke-linejoin="round"/>
<path d="M275.888 479.939C275.531 483.869 270.981 489.942 265.27 491.192" stroke="#101C30" stroke-width="0.75" stroke-miterlimit="10" stroke-linecap="round" stroke-linejoin="round"/>
<path d="M304.708 479.939C305.154 486.012 310.061 490.925 315.95 491.639" stroke="#101C30" stroke-width="0.75" stroke-miterlimit="10" stroke-linecap="round" stroke-linejoin="round"/>
<path d="M279.457 507.447L297.213 503.607" stroke="#101C30" stroke-width="0.75" stroke-miterlimit="10" stroke-linecap="round" stroke-linejoin="round"/>
<path d="M287.398 510.127L289.272 479.939" stroke="#101C30" stroke-width="0.75" stroke-miterlimit="10" stroke-linecap="round" stroke-linejoin="round"/>
<path d="M284.543 479.939C284.543 479.939 281.688 495.569 288.201 496.908" stroke="#101C30" stroke-width="0.75" stroke-miterlimit="10" stroke-linecap="round" stroke-linejoin="round"/>
<path d="M283.918 506.465L278.833 620.873" stroke="#101C30" stroke-width="0.75" stroke-miterlimit="10" stroke-linecap="round" stroke-linejoin="round"/>
<path d="M291.057 504.947L318.984 620.873" stroke="#101C30" stroke-width="0.75" stroke-miterlimit="10" stroke-linecap="round" stroke-linejoin="round"/>
<path d="M246.979 620.873H285.168" stroke="#101C30" stroke-width="0.75" stroke-miterlimit="10" stroke-linecap="round" stroke-linejoin="round"/>
<path d="M312.738 620.873H348.25" stroke="#101C30" stroke-width="0.75" stroke-miterlimit="10" stroke-linecap="round" stroke-linejoin="round"/>
<path d="M275.264 458.147L284.186 456.004L289.004 452.521C289.986 451.806 291.146 451.538 292.306 451.627C295.339 451.895 297.748 452.253 298.462 452.521C299.801 452.967 299.087 454.575 298.016 454.664C299.622 454.932 299.711 456.897 298.105 456.897C299.176 457.701 298.551 459.04 296.41 458.862C297.57 459.576 296.945 460.469 295.161 460.469C293.376 460.469 291.592 460.469 291.592 460.469C291.592 460.469 288.29 465.024 283.651 463.417L276.78 465.917L275.264 458.147Z" fill="#F06767"/>
<path d="M297.659 454.664L291.949 454.218" stroke="#101C30" stroke-width="0.75" stroke-miterlimit="10" stroke-linecap="round" stroke-linejoin="round"/>
<path d="M297.213 456.718L291.77 456.45" stroke="#101C30" stroke-width="0.75" stroke-miterlimit="10" stroke-linecap="round" stroke-linejoin="round"/>
<path d="M295.518 458.772L291.77 458.504" stroke="#101C30" stroke-width="0.75" stroke-miterlimit="10" stroke-linecap="round" stroke-linejoin="round"/>
<path d="M267.59 432.515L263.843 434.212C260.987 435.551 258.668 437.695 256.972 440.285L244.213 460.737C242.161 464.131 241.715 468.239 243.232 471.901C245.462 477.617 251.619 480.832 257.597 479.493L281.152 474.134C277.94 474.848 278.743 456.897 278.743 456.897L264.021 459.933L269.464 451.359L267.59 432.515Z" fill="#F2D0A2"/>
<path d="M272.141 447.43L264.11 460.023" stroke="#101C30" stroke-width="0.75" stroke-miterlimit="10" stroke-linecap="round" stroke-linejoin="round"/>
<path d="M278.832 456.986L259.292 461.005" stroke="#101C30" stroke-width="0.75" stroke-miterlimit="10" stroke-linecap="round" stroke-linejoin="round"/>
<path d="M283.472 416.617C283.472 416.617 283.74 422.69 282.669 427.692C290.521 430.282 294.179 425.727 295.339 423.405C295.339 423.405 293.644 419.654 293.822 416.349L283.472 416.617Z" fill="#F06767"/>
<path d="M290.789 422.958C292.752 423.137 294.447 421.351 294.09 419.386C293.912 418.403 293.822 417.421 293.822 416.438L283.472 416.617C283.472 416.617 283.472 417.153 283.472 418.046C283.472 419.029 283.918 420.011 284.721 420.636C286.06 421.619 288.023 422.69 290.789 422.958Z" fill="#101C30"/>
<path d="M298.373 400.184C301.527 400.184 304.083 397.625 304.083 394.468C304.083 391.311 301.527 388.752 298.373 388.752C295.219 388.752 292.662 391.311 292.662 394.468C292.662 397.625 295.219 400.184 298.373 400.184Z" fill="#FFC038"/>
<path d="M295.964 393.039C295.25 392.324 294.447 391.699 293.555 391.163C292.93 392.056 292.573 393.218 292.573 394.468C292.573 397.683 295.161 400.184 298.284 400.184C299.176 400.184 299.979 400.005 300.782 399.648C300.871 396.254 299.354 393.485 295.964 393.039Z" fill="#101C30"/>
<path d="M280.706 410.187C277.94 409.115 274.907 405.543 276.602 399.827C278.476 393.575 288.38 390.538 294.447 394.379C300.96 393.664 302.923 403.131 298.997 410.187H280.706Z" fill="#FFC038"/>
<path d="M279.814 403.846L280.528 412.241C280.885 416.617 284.543 420.011 288.915 420.011C292.752 420.011 296.142 417.421 297.124 413.67L298.016 410.008C298.284 409.026 297.927 408.043 297.213 407.418C295.785 406.078 293.555 403.578 294.001 400.809C288.915 405.185 280.974 404.203 279.814 403.846Z" fill="#F06767"/>
<path opacity="0.7" d="M284.632 414.206C285.519 414.206 286.238 413.486 286.238 412.598C286.238 411.71 285.519 410.99 284.632 410.99C283.745 410.99 283.026 411.71 283.026 412.598C283.026 413.486 283.745 414.206 284.632 414.206Z" fill="#D94343"/>
<path opacity="0.7" d="M293.376 414.206C294.263 414.206 294.982 413.486 294.982 412.598C294.982 411.71 294.263 410.99 293.376 410.99C292.489 410.99 291.77 411.71 291.77 412.598C291.77 413.486 292.489 414.206 293.376 414.206Z" fill="#D94343"/>
<path d="M300.803 412.686C302.122 411.498 302.47 409.733 301.58 408.743C300.69 407.753 298.899 407.913 297.581 409.101C296.262 410.289 295.914 412.054 296.804 413.044C297.694 414.034 299.485 413.874 300.803 412.686Z" fill="#F06767"/>
<path d="M300.782 409.83C300.782 409.83 298.64 409.294 297.213 411.884" stroke="#101C30" stroke-width="0.5" stroke-miterlimit="10" stroke-linecap="round" stroke-linejoin="round"/>
<path d="M281.159 413.075C282.049 412.085 281.702 410.319 280.383 409.132C279.064 407.944 277.274 407.783 276.384 408.774C275.494 409.764 275.841 411.529 277.16 412.717C278.479 413.905 280.269 414.065 281.159 413.075Z" fill="#F06767"/>
<path d="M277.137 409.83C277.137 409.83 279.279 409.294 280.706 411.884" stroke="#101C30" stroke-width="0.5" stroke-miterlimit="10" stroke-linecap="round" stroke-linejoin="round"/>
<path d="M282.669 408.758C282.669 408.758 284.275 406.882 287.041 408.758" stroke="#101C30" stroke-width="0.5" stroke-miterlimit="10" stroke-linecap="round" stroke-linejoin="round"/>
<path d="M295.339 408.758C295.339 408.758 293.733 406.882 290.967 408.758" stroke="#101C30" stroke-width="0.5" stroke-miterlimit="10" stroke-linecap="round" stroke-linejoin="round"/>
<path d="M282.669 406.436C282.669 406.436 284.811 405.543 287.398 406.436" stroke="#FFC038" stroke-miterlimit="10"/>
<path d="M295.339 406.436C295.339 406.436 293.198 405.543 290.61 406.436" stroke="#FFC038" stroke-miterlimit="10"/>
<path d="M288.469 407.775V410.187L287.934 410.455C287.487 410.723 287.22 411.259 287.487 411.794C287.755 412.241 288.29 412.42 288.737 412.241L289.629 411.884" stroke="#101C30" stroke-width="0.5" stroke-miterlimit="10" stroke-linecap="round" stroke-linejoin="round"/>
<path d="M285.614 412.866C285.614 412.866 288.112 414.831 291.949 412.866" stroke="#101C30" stroke-width="0.5" stroke-miterlimit="10" stroke-linecap="round" stroke-linejoin="round"/>
<path d="M203.526 636.967L203.08 647.417H217.446L217.803 636.967H203.526Z" fill="#CC7156"/>
<path d="M207.898 655.455H213.163L213.43 657.241H233.06C234.398 657.241 235.291 655.812 234.666 654.651C232.703 650.81 227.528 649.203 224.851 648.667C223.781 648.399 222.799 647.863 222.174 646.97L219.676 643.755C218.962 642.862 217.802 642.505 216.732 642.862L214.233 643.755C213.43 644.023 213.163 645.095 213.698 645.72L213.966 645.988L202.01 644.38C197.727 648.31 198.351 657.33 198.351 657.33H207.452L207.898 655.455Z" fill="#101C30"/>
<path d="M157.932 636.967L156.326 647.417H142.05L143.567 636.967H157.932Z" fill="#CC7156"/>
<path d="M151.597 655.455H146.333L146.065 657.241H126.436C125.097 657.241 124.205 655.812 124.83 654.651C126.792 650.81 131.968 649.203 134.644 648.667C135.715 648.399 136.696 647.863 137.321 646.97L139.819 643.755C140.533 642.862 141.693 642.505 142.764 642.862L145.262 643.755C146.065 644.023 146.333 645.095 145.797 645.72L145.53 645.988L157.486 644.38C161.769 648.31 161.144 657.33 161.144 657.33H151.865L151.597 655.455Z" fill="#101C30"/>
<path d="M157.04 477.903H210.486L223.156 544.262C224.762 552.568 225.387 561.052 225.03 569.448L222.085 640.361H198.53L199.69 562.571L184.164 497.998L162.304 640.361H137.946L152.4 495.766C152.579 494.069 152.936 492.372 153.382 490.764L157.04 477.903Z" fill="#7B79CB"/>
<path d="M210.486 477.903H157.04L153.382 490.675C152.935 492.282 152.579 493.979 152.4 495.676L152.043 498.802C158.467 498.445 168.55 499.517 179.346 501.66C181.577 502.107 183.718 500.588 184.075 498.356L184.164 497.909L185.324 502.911C192.819 504.607 200.314 506.662 206.917 509.073C211.467 510.681 216.018 506.751 215.126 502.017L210.486 477.903Z" fill="#101C30" fill-opacity="0.7"/>
<path d="M174.26 497.016L192.284 498.177" stroke="#264578" stroke-width="0.75" stroke-miterlimit="10" stroke-linecap="round" stroke-linejoin="round"/>
<path d="M184.164 497.998L182.915 477.903" stroke="#264578" stroke-width="0.75" stroke-miterlimit="10" stroke-linecap="round" stroke-linejoin="round"/>
<path d="M186.841 477.903L187.377 486.834C187.466 488.71 186.484 490.586 184.878 491.479L183.807 492.015" stroke="#264578" stroke-width="0.75" stroke-miterlimit="10" stroke-linecap="round" stroke-linejoin="round"/>
<path d="M194.782 471.919H171.048V477.903H194.782V471.919Z" fill="#264578"/>
<path d="M186.752 477.903H179.168C178.811 477.903 178.454 477.546 178.454 477.189V472.545C178.454 472.187 178.811 471.83 179.168 471.83H186.752C187.109 471.83 187.466 472.187 187.466 472.545V477.189C187.466 477.635 187.109 477.903 186.752 477.903Z" fill="white"/>
<path d="M194.782 412.795H171.048V471.919H194.782V412.795Z" fill="#F2D0A2"/>
<path d="M155.702 490.318L157.218 491.211C159.271 492.372 161.947 492.104 163.464 490.318C163.553 490.228 163.643 490.05 163.732 489.96C165.873 487.192 164.981 483.173 162.037 481.386L160.252 480.315L155.702 490.318Z" fill="#CC7156"/>
<path d="M175.956 411.456L175.153 481.029C175.153 484.78 171.048 486.924 167.925 484.959L150.437 473.884C150.437 473.884 151.954 471.205 153.917 470.401L154.006 446.108L145.441 423.245L147.047 420.565C148.653 417.886 151.24 416.1 154.274 415.564L175.956 411.456Z" fill="#7B79CB"/>
<path d="M189.875 411.456L190.767 484.691C190.767 487.37 192.909 489.514 195.585 489.603L215.572 490.228C216.642 490.228 217.446 489.335 217.267 488.353L211.824 446.019L220.925 423.155L218.516 419.583C217.089 417.439 214.858 416.01 212.36 415.564L189.875 411.456Z" fill="#7B79CB"/>
<path d="M174.26 412.885C174.26 412.885 162.304 413.51 171.405 430.3C166.676 437.713 170.691 443.608 173.725 450.753" stroke="#101C30" stroke-width="0.75" stroke-miterlimit="10" stroke-linecap="round" stroke-linejoin="round"/>
<path d="M191.57 412.885C191.57 412.885 203.526 413.51 194.425 430.3C199.154 437.713 195.139 443.608 192.105 450.753" stroke="#101C30" stroke-width="0.75" stroke-miterlimit="10" stroke-linecap="round" stroke-linejoin="round"/>
<path d="M189.875 413.867C190.143 418.779 175.688 418.779 175.956 413.867L176.58 401.72H189.34L189.875 413.867Z" fill="#CC7156"/>
<path d="M189.34 401.72H176.58L176.491 402.882C176.402 404.31 177.026 405.65 178.097 406.454C178.811 406.99 179.614 407.436 180.685 407.794C181.488 408.062 182.202 408.508 182.826 409.044C183.361 409.491 183.897 409.937 184.611 410.205C186.93 411.366 189.696 409.491 189.518 406.901L189.34 401.72Z" fill="#101C30"/>
<path d="M200.136 456.022L201.206 453.164C201.474 452.449 202.277 451.914 203.08 451.914L212.627 452.182L213.876 462.184L200.136 456.022Z" fill="#101C30"/>
<path d="M214.947 469.597L197.905 461.291L196.121 468.168C195.942 468.883 196.21 469.687 196.924 470.133L216.732 482.726L214.947 469.597Z" fill="#101C30"/>
<path d="M166.408 433.694H157.397V435.302H166.408V433.694Z" fill="#101C30"/>
<path d="M156.951 471.205L167.122 478.439" stroke="#101C30" stroke-width="0.75" stroke-miterlimit="10" stroke-linecap="round" stroke-linejoin="round"/>
<path d="M147.047 420.297L124.651 457.987C120.279 465.31 122.599 474.867 129.915 479.243L154.452 494.337C154.452 494.337 161.858 491.211 161.858 481.119L141.782 467.9L153.828 445.93C153.828 445.93 153.471 429.854 151.24 420.833C150.883 418.958 148.117 418.511 147.047 420.297Z" fill="#7B79CB"/>
<path d="M187.466 460.22V449.056C187.466 448.341 188.001 447.805 188.626 447.627C195.05 446.019 194.247 435.034 194.247 435.034H179.525C179.525 435.034 178.811 446.019 185.146 447.627C185.86 447.805 186.306 448.341 186.306 449.056V460.22C183.361 460.22 180.952 460.577 180.952 460.934C180.952 461.291 183.54 461.649 186.752 461.649C189.964 461.649 192.552 461.381 192.552 460.934C192.73 460.577 190.41 460.309 187.466 460.22Z" fill="white"/>
<path d="M180.685 436.909C180.685 439.499 181.22 446.823 186.93 446.823C192.641 446.823 193.176 439.499 193.176 436.909H180.685Z" fill="#FFC038"/>
<path d="M189.875 500.856L203.705 561.767L203.526 636.967" stroke="#101C30" stroke-width="0.75" stroke-miterlimit="10" stroke-linecap="round" stroke-linejoin="round"/>
<path d="M179.346 501.75L159.092 635.895" stroke="#101C30" stroke-width="0.75" stroke-miterlimit="10" stroke-linecap="round" stroke-linejoin="round"/>
<path d="M161.947 481.118L153.917 470.222C153.917 470.222 151.776 470.937 150.437 473.706L161.947 481.118Z" fill="#101C30"/>
<path d="M205.668 455.575L199.333 453.521L191.213 449.056C190.678 448.698 189.964 448.609 189.339 448.609H185.949C184.878 448.609 183.986 449.502 183.986 450.574V450.931H181.131C180.506 450.931 179.971 451.467 179.971 452.092C179.971 452.717 180.506 453.253 181.131 453.253H182.648H181.666C181.131 453.253 180.685 453.7 180.685 454.236C180.685 454.772 181.131 455.218 181.666 455.218L187.733 455.486C185.503 455.665 183.808 455.843 182.291 456.558C181.934 456.736 181.666 457.183 181.755 457.54C181.845 458.076 182.469 458.344 182.915 458.165C183.986 457.719 185.057 457.63 186.573 457.808C186.573 457.808 187.912 461.47 197.013 461.738C197.013 461.738 202.723 464.507 202.723 464.328C202.723 464.149 205.668 455.575 205.668 455.575Z" fill="#CC7156"/>
<path d="M183.005 453.075H187.555" stroke="#101C30" stroke-width="0.75" stroke-miterlimit="10" stroke-linecap="round" stroke-linejoin="round"/>
<path d="M184.432 450.842H187.198" stroke="#101C30" stroke-width="0.75" stroke-miterlimit="10" stroke-linecap="round" stroke-linejoin="round"/>
<path d="M218.873 420.119L242.696 455.665C246.265 460.934 246.265 467.811 242.875 473.17C238.592 479.779 230.205 482.279 223.067 479.064L197.994 467.9L202.634 453.521L223.334 460.398L212.003 446.108C209.772 436.463 210.664 427.978 214.055 420.565C214.858 418.422 217.624 418.243 218.873 420.119Z" fill="#7B79CB"/>
<path d="M228.866 462.631L224.227 460.934" stroke="#101C30" stroke-width="0.75" stroke-miterlimit="10" stroke-linecap="round" stroke-linejoin="round"/>
<path d="M171.494 394.754C171.494 394.754 163.643 385.377 169.085 383.233C168.728 377.071 173.1 376.892 175.331 377.964C179.168 374.748 183.004 374.391 185.235 377.428C193.533 375.016 197.37 379.571 195.675 384.126C200.671 386.359 198.53 391.628 195.139 393.504L192.73 395.826L171.494 394.754Z" fill="#162C4F"/>
<path d="M174.707 394.218L173.279 392.611C172.476 391.718 171.048 391.718 170.245 392.611C169.621 393.325 169.531 394.308 170.067 395.111C170.335 395.469 170.513 395.737 170.781 396.094C171.762 397.166 173.101 397.702 174.528 397.702H174.617V394.218H174.707Z" fill="#CC7156"/>
<path d="M170.959 393.682C170.959 393.682 172.387 392.879 174.35 396.362" stroke="#101C30" stroke-width="0.75" stroke-miterlimit="10" stroke-linecap="round" stroke-linejoin="round"/>
<path d="M191.124 394.218L192.552 392.611C193.355 391.718 194.782 391.718 195.585 392.611C196.21 393.325 196.299 394.308 195.764 395.111C195.496 395.469 195.318 395.737 195.05 396.094C194.068 397.166 192.73 397.702 191.302 397.702H191.124V394.218Z" fill="#CC7156"/>
<path d="M194.782 393.682C194.782 393.682 193.355 392.879 191.392 396.362" stroke="#101C30" stroke-width="0.75" stroke-miterlimit="10" stroke-linecap="round" stroke-linejoin="round"/>
<path d="M182.469 387.252C180.863 387.431 178.008 387.431 176.759 385.823C176.67 387.609 175.866 388.86 174.974 389.663C174.171 390.378 173.814 391.45 173.904 392.521L174.082 397.344C174.26 402.078 178.186 405.829 182.915 405.829C187.644 405.829 191.57 402.078 191.749 397.344L191.927 392.432C191.927 391.807 191.481 391.271 190.856 391.182C187.912 390.914 185.503 388.949 184.343 387.788C183.808 387.431 183.183 387.252 182.469 387.252Z" fill="#CC7156"/>
<path d="M177.026 393.593C177.026 393.593 178.9 392.254 180.595 393.593" stroke="#101C30" stroke-width="0.75" stroke-miterlimit="10" stroke-linecap="round" stroke-linejoin="round"/>
<path d="M188.804 393.593C188.804 393.593 186.93 392.254 185.235 393.593" stroke="#101C30" stroke-width="0.75" stroke-miterlimit="10" stroke-linecap="round" stroke-linejoin="round"/>
<path d="M183.361 393.236V396.094C183.361 396.451 183.004 396.719 182.648 396.63L181.755 396.362" stroke="#101C30" stroke-width="0.75" stroke-miterlimit="10" stroke-linecap="round" stroke-linejoin="round"/>
<path d="M180.239 397.612H185.592C185.949 397.612 186.127 397.88 186.127 398.237C185.86 399.488 185.057 402.435 182.915 402.435C180.774 402.435 179.971 399.577 179.792 398.237C179.703 397.88 179.882 397.612 180.239 397.612Z" fill="#101C30"/>
<path opacity="0.7" d="M185.681 399.756C184.878 399.399 183.986 399.131 182.915 399.131C181.845 399.131 180.952 399.399 180.149 399.756C180.595 401.006 181.398 402.346 182.826 402.346C184.343 402.346 185.146 401.006 185.681 399.756Z" fill="#D94343"/>
<path d="M176.848 391.36C176.848 391.36 178.722 390.467 180.774 391.36" stroke="#162C4F" stroke-miterlimit="10"/>
<path d="M185.146 391.36C185.146 391.36 187.02 390.467 189.072 391.36" stroke="#162C4F" stroke-miterlimit="10"/>
<g opacity="0.7">
<path opacity="0.7" d="M177.829 399.309C178.766 399.309 179.525 398.549 179.525 397.612C179.525 396.675 178.766 395.915 177.829 395.915C176.893 395.915 176.134 396.675 176.134 397.612C176.134 398.549 176.893 399.309 177.829 399.309Z" fill="#D94343"/>
<path opacity="0.7" d="M188.001 399.309C188.937 399.309 189.696 398.549 189.696 397.612C189.696 396.675 188.937 395.915 188.001 395.915C187.065 395.915 186.306 396.675 186.306 397.612C186.306 398.549 187.065 399.309 188.001 399.309Z" fill="#D94343"/>
</g>
<path d="M12.8056 330.037L12.7164 331.376L12.3595 335.217L11.378 346.738C10.4857 346.381 9.23656 346.291 7.98741 346.559C4.86452 347.095 2.18776 349.149 2.00931 351.203C1.83086 353.258 4.23994 354.419 7.36283 353.883C10.4857 353.347 13.1625 351.293 13.3409 349.239L14.5901 334.859L28.1523 332.537L27.1709 344.059C26.2786 343.701 25.0295 343.612 23.7803 343.88C20.6574 344.416 17.9807 346.47 17.8022 348.524C17.6238 350.578 20.0328 351.739 23.1557 351.203C26.2786 350.668 28.9554 348.613 29.1338 346.559L30.383 332.18L30.7399 328.34L30.8291 327L12.8056 330.037Z" fill="#99B6E8"/>
<path opacity="0.5" d="M119.922 505.383C125.737 505.383 130.451 500.105 130.451 493.594C130.451 487.083 125.737 481.805 119.922 481.805C114.107 481.805 109.394 487.083 109.394 493.594C109.394 500.105 114.107 505.383 119.922 505.383Z" fill="white"/>
<path opacity="0.5" d="M243.41 406.962C246.564 406.962 249.121 404.123 249.121 400.621C249.121 397.119 246.564 394.28 243.41 394.28C240.256 394.28 237.7 397.119 237.7 400.621C237.7 404.123 240.256 406.962 243.41 406.962Z" fill="white"/>
<path opacity="0.5" d="M184.432 600.232C187.586 600.232 190.143 597.393 190.143 593.891C190.143 590.389 187.586 587.55 184.432 587.55C181.278 587.55 178.722 590.389 178.722 593.891C178.722 597.393 181.278 600.232 184.432 600.232Z" fill="white"/>
<path d="M92.077 618.48L93.1477 633.931C93.4154 638.307 95.1999 642.415 98.1444 645.63L102.07 649.917L109.833 654.919C110.904 655.633 110.368 657.241 109.119 657.241H97.0737C94.843 657.241 92.6124 656.348 91.0063 654.829L84.4037 648.667V657.241H81.0131C81.0131 654.383 74.3212 646.524 81.0131 639.379L75.7488 618.39H92.077V618.48Z" fill="#F06D59"/>
<path d="M109.833 654.919L102.07 649.917L98.1443 645.63L96.0922 646.702C94.6646 647.417 92.88 647.149 91.8093 645.988C89.2218 643.219 84.136 639.111 78.8717 642.505C76.1057 648.667 80.9238 654.74 80.9238 657.241H84.3144V648.667L90.9171 654.829C92.5231 656.348 94.7538 657.241 96.9844 657.241H109.03C110.368 657.241 110.814 655.633 109.833 654.919Z" fill="#101C30"/>
<path d="M29.4409 618.48L23.1059 636.699C22.2136 639.2 22.8382 641.879 24.6227 643.844L30.3331 650.007L38.0957 655.008C39.1664 655.723 38.6311 657.33 37.3819 657.33H25.2473C23.0166 657.33 20.786 656.437 19.1799 654.919L12.5773 648.756V657.33H9.18669C9.18669 654.651 3.29781 647.506 8.20521 640.718C8.91901 639.647 9.36515 638.486 9.63282 637.235L13.2018 618.48H29.4409Z" fill="#F06D59"/>
<path d="M38.0064 654.919L30.2438 649.917L26.3179 645.63L24.2657 646.702C22.8381 647.417 21.0536 647.149 19.9829 645.988C17.3954 643.219 12.3095 639.111 7.04525 642.505C4.27926 648.667 9.09742 654.74 9.09742 657.241H12.488V648.667L19.0907 654.829C20.6967 656.348 22.9274 657.241 25.158 657.241H37.2034C38.5418 657.241 38.9879 655.633 38.0064 654.919Z" fill="#101C30"/>
<path d="M60.6697 421.369L101.178 407.169L118.845 369.122V352.063C118.845 351.349 119.38 350.813 120.094 350.813C120.808 350.813 121.343 351.349 121.343 352.063L121.611 359.655L122.771 356.618C123.038 355.993 123.395 355.368 123.93 354.921L126.161 352.778C126.607 352.331 127.232 352.421 127.678 352.778C128.035 353.224 128.035 353.85 127.678 354.207L125.983 355.993L124.733 360.727L126.25 357.69C126.34 357.422 126.518 357.243 126.696 356.975L128.392 355.1C128.749 354.743 129.284 354.743 129.641 355.1C129.998 355.457 129.998 355.904 129.73 356.261L128.392 357.958L126.607 362.691L129.373 358.226C129.641 357.869 130.087 357.779 130.444 357.958C130.801 358.137 130.89 358.672 130.712 359.03L129.373 361.441L128.392 364.924C128.392 364.924 129.462 369.122 127.232 371.891L115.989 409.491C113.759 416.725 108.405 422.619 101.356 425.299L71.6444 436.82L60.6697 421.369Z" fill="#F06D59"/>
<path d="M120.451 362.691L123.038 359.655C123.395 359.298 124.02 359.298 124.287 359.655C124.555 359.923 124.555 360.28 124.377 360.637L122.949 363.317C122.771 363.763 122.771 364.21 123.038 364.567C123.574 365.371 124.466 367.246 123.752 369.926" stroke="#101C30" stroke-width="0.75" stroke-miterlimit="10" stroke-linecap="round" stroke-linejoin="round"/>
<path d="M89.2218 554.443C89.0434 552.21 88.8649 549.978 88.5972 547.834C86.0989 528.454 81.9946 507.644 76.9979 486.12H74.8565C74.4996 475.045 72.1798 429.854 56.9222 422.619L42.7354 426.996L39.8802 486.12H30.0654C20.2506 509.52 30.6008 555.426 30.6008 555.426C17.8415 573.467 12.0419 619.73 12.0419 619.73C25.3365 628.036 75.3027 629.733 93.5939 621.695L89.2218 554.443Z" fill="#7B79CB"/>
<path d="M81.0131 503.982C79.764 498.088 78.4256 492.104 76.998 486.12H74.8566C74.7673 483.709 74.5889 479.69 74.232 474.867L40.3263 477.903L39.9694 486.12H30.1547C27.8348 491.568 26.6749 498.356 26.2287 505.411C25.7826 512.288 33.2775 516.665 38.988 512.913C51.0334 504.607 69.4138 495.408 81.0131 503.982Z" fill="#101C30" fill-opacity="0.7"/>
<path d="M31.9391 431.372L42.7354 426.907C44.163 426.371 45.769 426.907 46.4829 428.246C49.2488 433.248 51.5687 438.428 53.0855 444.054C53.9778 447.27 54.2455 450.663 53.9778 453.968L50.7657 494.962C50.6764 496.48 49.3381 497.731 47.8212 497.731H24.8903C23.3735 497.731 22.3028 496.212 22.8381 494.783L33.8128 465.489L31.9391 431.372Z" fill="#F2D0A2"/>
<path d="M42.557 441.553C41.5755 448.43 39.8802 454.504 37.2035 459.773C36.3112 461.649 33.456 461.023 33.3668 458.969L32.8314 451.02L42.557 441.553Z" fill="#162C4F"/>
<path d="M56.9222 422.53C62.2758 426.549 65.3094 438.963 65.2202 448.788L67.2724 494.337C67.3616 496.212 68.8784 497.73 70.8414 497.73H81.1023C83.4222 497.73 85.2067 495.587 84.6713 493.265L76.9087 457.451C76.4626 455.397 76.641 453.343 77.3548 451.378C78.4256 448.431 79.5855 443.429 77.3548 438.606C75.035 433.515 69.503 427.085 66.2017 423.334C64.5956 421.548 62.0081 420.833 59.6882 421.637L56.9222 422.53Z" fill="#F2D0A2"/>
<path d="M72.7151 480.761V469.597C72.7151 468.883 73.2504 468.347 73.875 468.168C80.2992 466.561 79.4962 455.575 79.4962 455.575H64.774C64.774 455.575 64.0602 466.561 70.3952 468.168C71.109 468.347 71.5551 468.883 71.5551 469.597V480.761C68.6107 480.761 66.2016 481.119 66.2016 481.476C66.2016 481.833 68.7892 482.19 72.0013 482.19C75.2134 482.19 77.8009 481.922 77.8009 481.476C78.0686 481.119 75.7487 480.761 72.7151 480.761Z" fill="white"/>
<path d="M66.0232 457.451C66.0232 460.041 66.5585 467.365 72.269 467.365C77.9794 467.365 78.5147 460.041 78.5147 457.451H66.0232Z" fill="#FFC038"/>
<path d="M63.6141 479.332L16.3247 484.334C9.00817 485.138 3.8331 477.278 7.40212 470.758L27.6563 434.855C30.0654 430.658 35.5081 429.407 39.5233 432.176C42.9138 434.498 44.0737 439.053 42.1108 442.715L27.6563 470.49H61.5619L68.0754 468.258C68.8784 467.99 69.7706 467.99 70.5737 468.258L74.3211 469.508C75.0349 469.776 75.5703 470.49 75.5703 471.294V472.366L79.5854 473.348C80.1208 473.438 80.4777 473.974 80.4777 474.42C80.4777 475.135 79.8531 475.671 79.1393 475.581C76.7302 475.135 71.8228 474.331 71.9121 474.331C72.0013 474.331 77.0871 475.849 78.9609 476.385C79.407 476.474 79.6747 476.921 79.6747 477.367C79.5854 477.993 79.0501 478.35 78.5147 478.261L72.1797 476.832L76.4625 478.439C76.8194 478.618 77.0871 478.975 76.9979 479.332C76.9087 479.779 76.4625 480.047 76.0164 479.958L72.6258 479.064C72.5366 478.886 66.2909 481.029 63.6141 479.332Z" fill="#F06D59"/>
<path d="M71.4659 471.294L74.9457 472.098" stroke="#101C30" stroke-width="0.75" stroke-miterlimit="10" stroke-linecap="round" stroke-linejoin="round"/>
<path d="M53.264 393.95C47.8213 388.056 36.1327 388.234 34.8836 400.292C34.6159 403.06 32.2068 405.472 29.3516 405.561C23.1058 405.74 20.2506 409.759 20.6075 414.581C20.786 416.903 19.7153 419.136 18.02 420.655C16.9493 421.548 17.6631 423.245 19.0015 423.245H38.1849C40.9509 423.245 43.5384 421.726 44.966 419.315L50.2303 410.384L53.264 393.95Z" fill="#C23535"/>
<path d="M53.264 393.95C52.6394 393.236 51.9256 392.7 51.1226 392.164C49.1596 390.914 46.5721 391.182 45.0553 392.968C41.7539 396.63 41.8432 402.792 44.6984 406.275C46.126 407.972 48.5351 407.615 50.9441 406.543L53.264 393.95Z" fill="#101C30"/>
<path d="M46.3044 411.009L45.3229 408.419C43.2707 402.882 45.3229 396.719 50.2303 393.504C53.4424 391.36 57.636 391.36 60.9373 393.504C63.8818 395.469 65.4878 398.773 65.2201 402.256V402.346L46.3044 411.009Z" fill="#C23535"/>
<path d="M24.4442 415.653C24.4442 415.653 24.5334 418.332 21.4998 421.726" stroke="#101C30" stroke-width="0.75" stroke-miterlimit="10" stroke-linecap="round" stroke-linejoin="round"/>
<path d="M28.9055 415.653C28.9055 415.653 28.9947 418.332 25.9611 421.726" stroke="#101C30" stroke-width="0.75" stroke-miterlimit="10" stroke-linecap="round" stroke-linejoin="round"/>
<path d="M33.2774 415.653C33.2774 415.653 33.3667 418.332 30.333 421.726" stroke="#101C30" stroke-width="0.75" stroke-miterlimit="10" stroke-linecap="round" stroke-linejoin="round"/>
<path d="M37.7388 415.653C37.7388 415.653 37.828 418.332 34.7943 421.726" stroke="#101C30" stroke-width="0.75" stroke-miterlimit="10" stroke-linecap="round" stroke-linejoin="round"/>
<path d="M42.1108 415.653C42.1108 415.653 42.2 418.332 39.1664 421.726" stroke="#101C30" stroke-width="0.75" stroke-miterlimit="10" stroke-linecap="round" stroke-linejoin="round"/>
<path d="M47.4643 411.902L46.6613 426.013C46.6613 426.728 46.9289 427.442 47.4643 427.8C51.1225 430.568 57.2791 429.318 57.9929 425.299L58.7067 416.368L47.4643 411.902Z" fill="#F06D59"/>
<path d="M47.9104 413.063C47.9104 413.063 48.3565 420.744 55.8515 422.441C57.1006 422.709 58.2605 421.905 58.439 420.565L58.7959 416.368L47.9104 413.063Z" fill="#101C30"/>
<path d="M51.2118 400.202C53.3532 401.363 58.2606 403.417 65.1309 402.435L64.3279 410.741C63.8818 415.117 60.2235 418.511 55.7623 418.511C51.4794 418.511 47.8212 415.296 47.2859 411.009L46.8397 407.704C46.7505 407.079 47.0182 406.454 47.4643 406.097C48.535 405.293 50.2303 403.507 50.1411 400.827C50.2303 400.292 50.7656 399.934 51.2118 400.202Z" fill="#F06D59"/>
<path opacity="0.7" d="M53.6209 412.617C54.6558 412.617 55.4947 411.777 55.4947 410.741C55.4947 409.705 54.6558 408.865 53.6209 408.865C52.5861 408.865 51.7472 409.705 51.7472 410.741C51.7472 411.777 52.5861 412.617 53.6209 412.617Z" fill="#D94343"/>
<path d="M47.4644 407.615L46.6614 406.901C45.4122 405.829 43.4492 406.007 42.4678 407.347C41.4863 408.687 41.9324 410.652 43.4492 411.455C44.0738 411.813 44.7876 412.081 45.6799 412.259C46.929 412.527 48.1782 411.813 48.4459 410.562V410.384C48.6243 409.401 48.2674 408.33 47.4644 407.615Z" fill="#F06D59"/>
<path d="M43.6276 408.062C44.2521 407.436 46.1259 408.329 47.1966 410.384" stroke="#101C30" stroke-width="0.75" stroke-miterlimit="10" stroke-linecap="round" stroke-linejoin="round"/>
<path d="M54.6023 407.615C55.1444 407.615 55.5838 407.175 55.5838 406.633C55.5838 406.09 55.1444 405.65 54.6023 405.65C54.0603 405.65 53.6208 406.09 53.6208 406.633C53.6208 407.175 54.0603 407.615 54.6023 407.615Z" fill="#101C30"/>
<path d="M61.6512 408.24C62.1932 408.24 62.6326 407.8 62.6326 407.258C62.6326 406.715 62.1932 406.275 61.6512 406.275C61.1091 406.275 60.6697 406.715 60.6697 407.258C60.6697 407.8 61.1091 408.24 61.6512 408.24Z" fill="#101C30"/>
<path d="M59.1529 406.097L58.9744 406.811C58.8852 407.258 58.8852 407.615 58.9744 408.062L59.3313 409.491C59.5098 410.116 59.0637 410.83 58.3499 410.741H57.1899" stroke="#101C30" stroke-width="0.75" stroke-miterlimit="10" stroke-linecap="round" stroke-linejoin="round"/>
<path d="M60.3128 411.991C60.3128 411.991 57.0115 414.313 54.424 411.366" stroke="#101C30" stroke-width="0.75" stroke-miterlimit="10" stroke-linecap="round" stroke-linejoin="round"/>
<path d="M53.1748 404.132C53.1748 404.132 55.4054 403.417 57.0115 404.936" stroke="#C23535" stroke-miterlimit="10"/>
<path d="M60.3129 405.204C60.3129 405.204 62.0974 404.4 63.1681 405.561" stroke="#C23535" stroke-miterlimit="10"/>
</g>
<defs>
<linearGradient id="paint0_linear_212_1293" x1="170.5" y1="-255" x2="195.5" y2="758" gradientUnits="userSpaceOnUse">
<stop stop-color="#C133B7"/>
<stop offset="1" stop-color="#221A65"/>
</linearGradient>
</defs>
</svg>
