<svg width="350" height="212" viewBox="0 0 350 212" fill="none" xmlns="http://www.w3.org/2000/svg">
<path d="M336.446 123.446C336.446 124.365 335.689 125.175 334.717 125.175C333.798 125.175 332.987 124.419 332.987 123.446C332.987 122.527 333.744 121.716 334.717 121.716C335.689 121.77 336.446 122.527 336.446 123.446Z" fill="#1A76E8"/>
<path d="M61.28 194.465C61.28 195.384 60.5235 196.195 59.5508 196.195C58.6321 196.195 57.8215 195.438 57.8215 194.465C57.8215 193.546 58.5781 192.736 59.5508 192.736C60.5235 192.736 61.28 193.492 61.28 194.465Z" fill="#1A76E8"/>
<path d="M67.8728 32.7532C67.8728 33.3478 67.3865 33.7801 66.8461 33.7801C66.3057 33.7801 65.8193 33.2937 65.8193 32.7532C65.8193 32.2128 66.3057 31.7263 66.8461 31.7263C67.3865 31.7263 67.8728 32.2128 67.8728 32.7532Z" fill="#EB2D40"/>
<path d="M20.3186 21.295C20.8857 21.295 21.3453 20.8353 21.3453 20.2681C21.3453 19.701 20.8857 19.2412 20.3186 19.2412C19.7516 19.2412 19.2919 19.701 19.2919 20.2681C19.2919 20.8353 19.7516 21.295 20.3186 21.295Z" fill="#26D474"/>
<path d="M83.1118 55.021C83.1118 55.9399 82.3553 56.7506 81.3826 56.7506C80.4099 56.7506 79.6533 55.9939 79.6533 55.021C79.6533 54.1022 80.4099 53.2915 81.3826 53.2915C82.3553 53.2915 83.1118 54.0482 83.1118 55.021Z" fill="#26D474"/>
<path d="M2.97216 126.527C3.9272 126.527 4.70141 125.752 4.70141 124.797C4.70141 123.842 3.9272 123.068 2.97216 123.068C2.01713 123.068 1.24292 123.842 1.24292 124.797C1.24292 125.752 2.01713 126.527 2.97216 126.527Z" fill="#26D474"/>
<path d="M3.13428 37.8337L8.48412 43.1304L9.88913 41.509L6.6468 35.7258L3.13428 37.8337Z" fill="#1A76E8"/>
<path d="M19.9943 101.232L16.5898 107.934L18.4812 108.799L23.0745 103.989L19.9943 101.232Z" fill="#26D474"/>
<path d="M77.0594 195.492L73.4928 202.14L75.3842 203.005L80.0855 198.357L77.0594 195.492Z" fill="#1A76E8"/>
<path d="M95.6487 126.689L92.0281 133.283L93.9735 134.147L98.6208 129.499L95.6487 126.689Z" fill="#1A76E8"/>
<path d="M249.984 200.41L254.901 206.14L253.172 207.383L247.66 203.815L249.984 200.41Z" fill="#EB2D40"/>
<path d="M336.608 170.09L331.745 175.873L330.231 174.413L332.879 168.306L336.608 170.09Z" fill="#1A76E8"/>
<path d="M109.915 22.7544L107.969 29.9968L110.023 30.4292L113.481 24.7542L109.915 22.7544Z" fill="#26D474"/>
<path d="M162.441 150.794L164.764 157.929L162.711 158.469L158.982 153.01L162.441 150.794Z" fill="#1A76E8"/>
<path d="M16.698 42.9683L14.8066 50.2648L16.8601 50.6971L20.3186 45.0221L16.698 42.9683Z" fill="#EB2D40"/>
<path d="M11.3481 150.254L16.698 155.551L18.103 153.983L14.9147 148.146L11.3481 150.254Z" fill="#EB2D40"/>
<path d="M1.78328 68.2627L5.89023 72.6946L4.5933 73.7216L0 71.0732L1.78328 68.2627Z" fill="#FFD417"/>
<path d="M93.1089 68.3169L90.8933 75.5053L92.9468 75.9917L96.6214 70.5329L93.1089 68.3169Z" fill="#FFD417"/>
<path d="M95.3245 161.658L96.4052 169.117L98.4587 168.684L99.4314 162.144L95.3245 161.658Z" fill="#FFD417"/>
<path d="M147.85 184.79L152.552 190.682L154.119 189.276L151.633 183.115L147.85 184.79Z" fill="#FFD417"/>
<path d="M26.9653 185.872L32.7475 190.736L33.9904 189.006L30.3157 183.493L26.9653 185.872Z" fill="#FFD417"/>
<path d="M307.913 44.5896C307.913 45.5085 308.67 46.3192 309.643 46.3192C310.561 46.3192 311.372 45.5625 311.372 44.5896C311.372 43.6708 310.615 42.8601 309.643 42.8601C308.724 42.8601 307.913 43.6168 307.913 44.5896Z" fill="#1A76E8"/>
<path d="M165.791 105.015C166.746 105.015 167.52 104.241 167.52 103.286C167.52 102.331 166.746 101.556 165.791 101.556C164.836 101.556 164.062 102.331 164.062 103.286C164.062 104.241 164.836 105.015 165.791 105.015Z" fill="#1A76E8"/>
<path d="M233.718 39.9417C233.718 40.5362 234.204 40.9686 234.745 40.9686C235.339 40.9686 235.772 40.4822 235.772 39.9417C235.772 39.4012 235.285 38.9148 234.745 38.9148C234.204 38.8607 233.718 39.3471 233.718 39.9417Z" fill="#EB2D40"/>
<path d="M98.3506 91.3414C98.3506 91.9359 98.8369 92.3683 99.3773 92.3683C99.9177 92.3683 100.404 91.8818 100.404 91.3414C100.404 90.8009 99.9177 90.3145 99.3773 90.3145C98.8369 90.3145 98.3506 90.8009 98.3506 91.3414Z" fill="#26D474"/>
<path d="M125.586 37.6717C125.586 38.2662 126.073 38.6986 126.613 38.6986C127.154 38.6986 127.64 38.2122 127.64 37.6717C127.64 37.1312 127.154 36.6448 126.613 36.6448C126.073 36.6448 125.586 37.0772 125.586 37.6717Z" fill="#1A76E8"/>
<path d="M143.419 1.02691C143.419 1.62144 143.905 2.05383 144.446 2.05383C145.04 2.05383 145.472 1.5674 145.472 1.02691C145.472 0.486433 145.04 0 144.446 0C143.905 0 143.419 0.486433 143.419 1.02691Z" fill="#1A76E8"/>
<path d="M91.6499 111.663C91.6499 112.258 92.1362 112.69 92.6766 112.69C93.2711 112.69 93.7034 112.204 93.7034 111.663C93.7034 111.069 93.217 110.636 92.6766 110.636C92.1362 110.636 91.6499 111.069 91.6499 111.663Z" fill="#1A76E8"/>
<path d="M159.739 82.8558C159.739 83.4503 160.225 83.8827 160.766 83.8827C161.36 83.8827 161.792 83.3963 161.792 82.8558C161.792 82.2612 161.306 81.8289 160.766 81.8289C160.225 81.8289 159.739 82.2612 159.739 82.8558Z" fill="#EB2D40"/>
<path d="M322.828 32.9153C322.828 33.5099 323.314 33.9423 323.855 33.9423C324.449 33.9423 324.882 33.4558 324.882 32.9153C324.882 32.3208 324.395 31.8884 323.855 31.8884C323.314 31.8884 322.828 32.3749 322.828 32.9153Z" fill="#26D474"/>
<path d="M245.012 152.902C245.012 153.821 245.769 154.632 246.741 154.632C247.714 154.632 248.471 153.875 248.471 152.902C248.471 151.983 247.714 151.173 246.741 151.173C245.769 151.173 245.012 151.983 245.012 152.902Z" fill="#EB2D40"/>
<path d="M213.778 205.977C213.778 206.896 214.534 207.707 215.507 207.707C216.426 207.707 217.236 206.95 217.236 205.977C217.236 205.059 216.48 204.248 215.507 204.248C214.534 204.302 213.778 205.059 213.778 205.977Z" fill="#26D474"/>
<path d="M234.421 56.6963C234.421 57.6152 235.177 58.4259 236.15 58.4259C237.069 58.4259 237.879 57.6692 237.879 56.6963C237.879 55.7775 237.123 54.9668 236.15 54.9668C235.177 55.0208 234.421 55.7775 234.421 56.6963Z" fill="#26D474"/>
<path d="M349.145 70.3166L343.795 75.6133L342.39 73.9919L345.632 68.2087L349.145 70.3166Z" fill="#1A76E8"/>
<path d="M307.535 114.852C307.535 115.447 308.022 115.879 308.562 115.879C309.102 115.879 309.589 115.393 309.589 114.852C309.589 114.312 309.102 113.825 308.562 113.825C308.022 113.825 307.535 114.258 307.535 114.852Z" fill="#26D474"/>
<path d="M170.114 181.115C170.114 181.71 170.601 182.142 171.141 182.142C171.735 182.142 172.168 181.656 172.168 181.115C172.168 180.521 171.681 180.088 171.141 180.088C170.601 180.034 170.114 180.521 170.114 181.115Z" fill="#26D474"/>
<path d="M337.851 102.908L332.447 108.204L331.096 106.637L334.284 100.854L337.851 102.908Z" fill="#1A76E8"/>
<path d="M261.602 126.473L265.385 132.958L263.547 133.931L258.684 129.391L261.602 126.473Z" fill="#FFD417"/>
<path d="M321.801 140.201L325.638 146.687L323.747 147.66L318.883 143.12L321.801 140.201Z" fill="#FFD417"/>
<path d="M200.754 192.465L194.702 196.897L193.567 195.114L197.566 189.871L200.754 192.465Z" fill="#FFD417"/>
<path d="M190.379 51.3999L192.216 58.6964L190.109 59.0747L186.758 53.3456L190.379 51.3999Z" fill="#FFD417"/>
<path d="M311.48 204.086L308.129 210.842L310.075 211.652L314.56 206.788L311.48 204.086Z" fill="#1A76E8"/>
<path d="M290.026 36.4824L295.106 42.0494L293.485 43.3465L287.811 39.9956L290.026 36.4824Z" fill="#1A76E8"/>
<path d="M245.661 102.475L250.794 107.988L249.173 109.285L243.499 105.934L245.661 102.475Z" fill="#FF6F1C"/>
<path d="M169.141 41.1305L163.792 46.4813L162.441 44.8598L165.575 39.0767L169.141 41.1305Z" fill="#1A76E8"/>
<path d="M322.288 10.5935L322.882 16.5928L324.557 16.2686L325.53 11.0799L322.288 10.5935Z" fill="#FFD417"/>
<path d="M217.236 31.0237L215.885 36.9149L217.56 37.1852L220.154 32.537L217.236 31.0237Z" fill="#FFD417"/>
<path d="M193.513 24.5378L191.081 31.6722L193.081 32.2667L196.917 26.8619L193.513 24.5378Z" fill="#EB2D40"/>
<path d="M272.572 43.4006L276.03 50.1026L274.085 50.9133L269.492 46.1571L272.572 43.4006Z" fill="#EB2D40"/>
<path d="M90.8933 38.9147L94.9462 45.2924L96.6214 44.0493L94.8381 37.6716L90.8933 38.9147Z" fill="#EB2D40"/>
</svg>
