<svg width="86" height="86" viewBox="0 0 86 86" fill="none" xmlns="http://www.w3.org/2000/svg">
<rect width="86" height="86" rx="16" fill="#EAF1FF"/>
<path d="M78.5947 74.8979H72.606V74.9424H78.5947V74.8979Z" fill="#D6DCE9"/>
<path d="M57.135 75.3818H55.5636V75.4263H57.135V75.3818Z" fill="#D6DCE9"/>
<path d="M72.4251 73.2471H68.9552V73.2915H72.4251V73.2471Z" fill="#D6DCE9"/>
<path d="M14.5391 73.5459H6.72946V73.5904H14.5391V73.5459Z" fill="#D6DCE9"/>
<path d="M17.2948 73.5459H16.1502V73.5904H17.2948V73.5459Z" fill="#D6DCE9"/>
<path d="M37.9553 74.2966H21.0161V74.3411H37.9553V74.2966Z" fill="#D6DCE9"/>
<path d="M40.3512 64.1011H5.43477C4.86518 64.1011 4.40228 63.6457 4.40228 63.0853V14.7978C4.40228 14.2374 4.86518 13.782 5.43477 13.782H40.3512C40.9208 13.782 41.3837 14.2374 41.3837 14.7978V63.0853C41.3837 63.6457 40.9208 64.1011 40.3512 64.1011ZM5.43477 13.8265C4.8905 13.8265 4.44749 14.2623 4.44749 14.7978V63.0853C4.44749 63.6208 4.8905 64.0567 5.43477 64.0567H40.3512C40.8955 64.0567 41.3385 63.6208 41.3385 63.0853V14.7978C41.3385 14.2623 40.8955 13.8265 40.3512 13.8265H5.43477Z" fill="#D6DCE9"/>
<path d="M79.4627 64.1011H44.5462C43.9767 64.1011 43.5138 63.6457 43.5138 63.0853V14.7978C43.5138 14.2374 43.9767 13.782 44.5462 13.782H79.4627C80.0323 13.782 80.4952 14.2374 80.4952 14.7978V63.0853C80.4952 63.6457 80.0323 64.1011 79.4627 64.1011ZM44.5462 13.8265C44.002 13.8265 43.559 14.2623 43.559 14.7978V63.0853C43.559 63.6208 44.002 64.0567 44.5462 64.0567H79.4627C80.007 64.0567 80.45 63.6208 80.45 63.0853V14.7978C80.45 14.2623 80.007 13.8265 79.4627 13.8265H44.5462Z" fill="#D6DCE9"/>
<path d="M15.2352 51.5308H14.4396V68.7248H15.2352V51.5308Z" fill="#D6DCE9"/>
<path d="M20.347 49.4457V49.4422H17.745C17.6528 49.4333 17.5533 49.4706 17.4684 49.5809C16.8283 50.3939 16.2442 50.965 15.3039 50.9881C15.1032 50.9864 13.5355 50.9881 12.9515 50.9881C12.2228 50.9881 11.5013 50.9241 10.8142 51.2995C10.1126 51.6819 9.61171 52.4487 9.08371 53.1212C8.81972 53.4556 9.08371 53.9342 9.37122 53.9217L12.004 53.9235V53.9199C12.0745 53.9075 12.145 53.8666 12.2083 53.7847C12.843 52.9788 13.4324 52.0413 14.3962 51.9346C14.3998 51.9346 14.4035 51.9346 14.4071 51.9346C14.7561 51.9399 16.0453 51.9274 16.2569 51.9274C16.8536 51.9274 17.4557 51.9524 18.0524 51.9274C19.1464 51.8812 19.8552 51.182 20.5929 50.2427C20.8425 49.9243 20.6183 49.476 20.3488 49.4422L20.347 49.4457Z" fill="#D6DCE9"/>
<path d="M12.2065 53.7884C12.8412 52.9825 13.4307 52.0449 14.3944 51.9382C15.0074 51.8706 15.6403 51.9293 16.2551 51.9293C16.8699 51.9293 17.4539 51.9542 18.0506 51.9293C19.1446 51.8831 19.8534 51.1839 20.5911 50.2446C20.9275 49.8159 20.4049 49.1523 20.0686 49.581C19.4194 50.4065 18.8281 50.9829 17.8662 50.99C17.0941 50.9953 16.3238 50.99 15.5517 50.99C14.8248 50.99 14.1015 50.9259 13.4144 51.3013C12.7128 51.6838 12.2119 52.4506 11.6839 53.123C11.3476 53.5518 11.8702 54.2153 12.2065 53.7866V53.7884Z" fill="#D6DCE9"/>
<path d="M18.698 71.162C16.8482 71.162 15.3474 69.6854 15.3474 67.8655H14.3275C14.3275 69.6854 12.8267 71.162 10.9769 71.162C10.7509 71.162 10.5683 71.3416 10.5683 71.564C10.5683 71.7864 10.7509 71.9661 10.9769 71.9661H18.6998C18.9258 71.9661 19.1084 71.7864 19.1084 71.564C19.1084 71.3416 18.9258 71.162 18.6998 71.162H18.698Z" fill="#D6DCE9"/>
<path d="M11.221 65.0422H18.4538C18.7612 65.0422 18.7612 64.5725 18.4538 64.5725H11.221C10.9136 64.5725 10.9136 65.0422 11.221 65.0422Z" fill="#D6DCE9"/>
<path d="M48.4664 52.8225H49.479V71.9059C49.479 72.05 49.3597 72.1674 49.2132 72.1674H48.7322C48.5858 72.1674 48.4664 72.05 48.4664 71.9059V52.8225Z" fill="#D6DCE9"/>
<path d="M50.9799 52.8225H51.9925V71.9059C51.9925 72.05 51.8731 72.1674 51.7266 72.1674H51.2457C51.0992 72.1674 50.9799 72.05 50.9799 71.9059V52.8225Z" fill="#D6DCE9"/>
<path d="M68.1397 52.8225H69.1523V71.9059C69.1523 72.05 69.033 72.1674 68.8865 72.1674H68.4055C68.2591 72.1674 68.1397 72.05 68.1397 71.9059V52.8225Z" fill="#D6DCE9"/>
<path d="M70.6531 52.8225H71.6657V71.9059C71.6657 72.05 71.5464 72.1674 71.3999 72.1674H70.9189C70.7724 72.1674 70.6531 72.05 70.6531 71.9059V52.8225Z" fill="#D6DCE9"/>
<path d="M73.454 51.9436C75.7884 52.7975 76.4249 56.4623 73.454 56.9284C72.3402 57.1027 71.3167 55.5834 70.1161 55.5834C68.9154 55.5834 67.9788 56.9284 66.7781 56.9284C65.5775 56.9284 64.6408 55.5834 63.4402 55.5834C62.2395 55.5834 61.3029 56.9284 60.1022 56.9284C58.9016 56.9284 57.9649 55.5834 56.7643 55.5834C55.5636 55.5834 54.627 56.9284 53.4263 56.9284C52.2257 56.9284 51.289 55.5834 50.0884 55.5834C48.8877 55.5834 47.8643 57.1027 46.7504 56.9284C43.7796 56.4623 44.2208 52.7068 46.7504 51.9436H73.454Z" fill="#D6DCE9"/>
<path d="M69.6387 42.9241V40.1097C69.6387 39.8927 69.4597 39.7166 69.2391 39.7166H68.8503C68.6297 39.7166 68.4507 39.8927 68.4507 40.1097V42.9241L67.9372 43.7656C67.6623 44.2157 67.5177 44.7298 67.5177 45.2528V51.5487C67.5177 51.8334 67.7527 52.0646 68.042 52.0646H70.0492C70.3385 52.0646 70.5717 51.8334 70.5717 51.5487V45.2528C70.5717 44.728 70.4271 44.2139 70.1522 43.7656L69.6387 42.9241Z" fill="#D6DCE9"/>
<path d="M68.4814 47.7097C68.4814 49.9459 68.5248 51.7587 68.3675 51.7587C68.2102 51.7587 68.0854 49.9459 68.0854 47.7097C68.0854 45.4735 68.382 43.6606 68.5375 43.6606C68.693 43.6606 68.4814 45.4735 68.4814 47.7097Z" fill="#D6DCE9"/>
<path d="M68.8883 41.549C68.8883 42.3371 68.8069 42.974 68.7075 42.974C68.608 42.974 68.6822 42.3353 68.6822 41.549C68.6822 40.7627 68.7635 40.124 68.863 40.124C68.9624 40.124 68.8883 40.7627 68.8883 41.549Z" fill="#D6DCE9"/>
<path d="M67.288 51.9846H65.8487C65.7258 51.9846 65.6245 51.8885 65.6191 51.7675L65.4762 48.2825H67.6623L67.5195 51.7675C67.5141 51.8885 67.4128 51.9846 67.2899 51.9846H67.288Z" fill="#D6DCE9"/>
<path d="M67.713 48.0315H65.4238C65.3609 48.0315 65.3099 48.0817 65.3099 48.1436V48.1703C65.3099 48.2322 65.3609 48.2823 65.4238 48.2823H67.713C67.7759 48.2823 67.8269 48.2322 67.8269 48.1703V48.1436C67.8269 48.0817 67.7759 48.0315 67.713 48.0315Z" fill="#D6DCE9"/>
<path d="M55.8078 48.649L55.7409 48.5405H54.41L54.3431 48.649C54.3142 48.6953 54.2997 48.7487 54.2997 48.802V51.6058C54.2997 51.6591 54.3142 51.7125 54.3431 51.7587L54.41 51.8673H55.7409L55.8078 51.7587C55.8367 51.7125 55.8512 51.6591 55.8512 51.6058V48.802C55.8512 48.7487 55.8367 48.6953 55.8078 48.649Z" fill="#D6DCE9"/>
<path d="M55.8674 48.5742H54.2852C54.2364 48.5742 54.1966 48.5351 54.1966 48.4871C54.1966 48.439 54.2364 48.3999 54.2852 48.3999H55.8674C55.9162 48.3999 55.956 48.439 55.956 48.4871C55.956 48.5351 55.9162 48.5742 55.8674 48.5742Z" fill="#D6DCE9"/>
<path d="M55.8674 52.0078H54.2852C54.2364 52.0078 54.1966 51.9687 54.1966 51.9207C54.1966 51.8726 54.2364 51.8335 54.2852 51.8335H55.8674C55.9162 51.8335 55.956 51.8726 55.956 51.9207C55.956 51.9687 55.9162 52.0078 55.8674 52.0078Z" fill="#D6DCE9"/>
<path opacity="0.8" d="M54.3015 51.1343L55.8511 50.6238V49.2717L54.3015 49.7823V51.1343Z" fill="#D6DCE9"/>
<path d="M57.9324 48.649L57.8655 48.5405H56.5346L56.4677 48.649C56.4388 48.6953 56.4243 48.7487 56.4243 48.802V51.6058C56.4243 51.6591 56.4388 51.7125 56.4677 51.7587L56.5346 51.8673H57.8655L57.9324 51.7587C57.9613 51.7125 57.9758 51.6591 57.9758 51.6058V48.802C57.9758 48.7487 57.9613 48.6953 57.9324 48.649Z" fill="#D6DCE9"/>
<path d="M57.9921 48.5742H56.4099C56.3611 48.5742 56.3213 48.5351 56.3213 48.4871C56.3213 48.439 56.3611 48.3999 56.4099 48.3999H57.9921C58.0409 48.3999 58.0807 48.439 58.0807 48.4871C58.0807 48.5351 58.0409 48.5742 57.9921 48.5742Z" fill="#D6DCE9"/>
<path d="M57.9921 52.0078H56.4099C56.3611 52.0078 56.3213 51.9687 56.3213 51.9207C56.3213 51.8726 56.3611 51.8335 56.4099 51.8335H57.9921C58.0409 51.8335 58.0807 51.8726 58.0807 51.9207C58.0807 51.9687 58.0409 52.0078 57.9921 52.0078Z" fill="#D6DCE9"/>
<path opacity="0.8" d="M56.4261 51.1343L57.9758 50.6238V49.2717L56.4261 49.7823V51.1343Z" fill="#D6DCE9"/>
<path d="M56.871 45.0394L56.8041 44.9309H55.4732L55.4063 45.0394C55.3774 45.0857 55.3629 45.1391 55.3629 45.1924V47.9961C55.3629 48.0495 55.3774 48.1029 55.4063 48.1491L55.4732 48.2576H56.8041L56.871 48.1491C56.8999 48.1029 56.9144 48.0495 56.9144 47.9961V45.1924C56.9144 45.1391 56.8999 45.0857 56.871 45.0394Z" fill="#D6DCE9"/>
<path d="M56.9306 44.9646H55.3485C55.2996 44.9646 55.2599 44.9255 55.2599 44.8775C55.2599 44.8294 55.2996 44.7903 55.3485 44.7903H56.9306C56.9795 44.7903 57.0192 44.8294 57.0192 44.8775C57.0192 44.9255 56.9795 44.9646 56.9306 44.9646Z" fill="#D6DCE9"/>
<path d="M56.9306 48.3982H55.3485C55.2996 48.3982 55.2599 48.3591 55.2599 48.311C55.2599 48.263 55.2996 48.2239 55.3485 48.2239H56.9306C56.9795 48.2239 57.0192 48.263 57.0192 48.311C57.0192 48.3591 56.9795 48.3982 56.9306 48.3982Z" fill="#D6DCE9"/>
<path opacity="0.8" d="M55.3647 47.5265L56.9144 47.0159V45.6621L55.3647 46.1727V47.5265Z" fill="#D6DCE9"/>
<path d="M58.9956 45.0394L58.9287 44.9309H57.5979L57.531 45.0394C57.502 45.0857 57.4876 45.1391 57.4876 45.1924V47.9961C57.4876 48.0495 57.502 48.1029 57.531 48.1491L57.5979 48.2576H58.9287L58.9956 48.1491C59.0246 48.1029 59.039 48.0495 59.039 47.9961V45.1924C59.039 45.1391 59.0246 45.0857 58.9956 45.0394Z" fill="#D6DCE9"/>
<path d="M59.0553 44.9646H57.4731C57.4243 44.9646 57.3845 44.9255 57.3845 44.8775C57.3845 44.8294 57.4243 44.7903 57.4731 44.7903H59.0553C59.1041 44.7903 59.1439 44.8294 59.1439 44.8775C59.1439 44.9255 59.1041 44.9646 59.0553 44.9646Z" fill="#D6DCE9"/>
<path d="M59.0553 48.3982H57.4731C57.4243 48.3982 57.3845 48.3591 57.3845 48.311C57.3845 48.263 57.4243 48.2239 57.4731 48.2239H59.0553C59.1041 48.2239 59.1439 48.263 59.1439 48.311C59.1439 48.3591 59.1041 48.3982 59.0553 48.3982Z" fill="#D6DCE9"/>
<path opacity="0.8" d="M57.4894 47.5265L59.039 47.0159V45.6621L57.4894 46.1727V47.5265Z" fill="#D6DCE9"/>
<path d="M57.9324 41.4191L57.8655 41.3105H56.5346L56.4677 41.4191C56.4388 41.4653 56.4243 41.5187 56.4243 41.5721V44.3758C56.4243 44.4291 56.4388 44.4825 56.4677 44.5288L56.5346 44.6373H57.8655L57.9324 44.5288C57.9613 44.4825 57.9758 44.4291 57.9758 44.3758V41.5721C57.9758 41.5187 57.9613 41.4653 57.9324 41.4191Z" fill="#D6DCE9"/>
<path d="M57.9921 41.3443H56.4099C56.3611 41.3443 56.3213 41.3051 56.3213 41.2571C56.3213 41.2091 56.3611 41.1699 56.4099 41.1699H57.9921C58.0409 41.1699 58.0807 41.2091 58.0807 41.2571C58.0807 41.3051 58.0409 41.3443 57.9921 41.3443Z" fill="#D6DCE9"/>
<path d="M57.9921 44.7796H56.4099C56.3611 44.7796 56.3213 44.7404 56.3213 44.6924C56.3213 44.6444 56.3611 44.6052 56.4099 44.6052H57.9921C58.0409 44.6052 58.0807 44.6444 58.0807 44.6924C58.0807 44.7404 58.0409 44.7796 57.9921 44.7796Z" fill="#D6DCE9"/>
<path opacity="0.8" d="M56.4261 43.9061L57.9758 43.3955V42.0435L56.4261 42.554V43.9061Z" fill="#D6DCE9"/>
<path d="M60.057 48.649L59.9901 48.5405H58.6593L58.5924 48.649C58.5634 48.6953 58.549 48.7487 58.549 48.802V51.6058C58.549 51.6591 58.5634 51.7125 58.5924 51.7587L58.6593 51.8673H59.9901L60.057 51.7587C60.086 51.7125 60.1004 51.6591 60.1004 51.6058V48.802C60.1004 48.7487 60.086 48.6953 60.057 48.649Z" fill="#D6DCE9"/>
<path d="M60.1167 48.5742H58.5345C58.4857 48.5742 58.4459 48.5351 58.4459 48.4871C58.4459 48.439 58.4857 48.3999 58.5345 48.3999H60.1167C60.1655 48.3999 60.2053 48.439 60.2053 48.4871C60.2053 48.5351 60.1655 48.5742 60.1167 48.5742Z" fill="#D6DCE9"/>
<path d="M60.1167 52.0078H58.5345C58.4857 52.0078 58.4459 51.9687 58.4459 51.9207C58.4459 51.8726 58.4857 51.8335 58.5345 51.8335H60.1167C60.1655 51.8335 60.2053 51.8726 60.2053 51.9207C60.2053 51.9687 60.1655 52.0078 60.1167 52.0078Z" fill="#D6DCE9"/>
<path opacity="0.8" d="M58.5508 51.1343L60.1004 50.6238V49.2717L58.5508 49.7823V51.1343Z" fill="#D6DCE9"/>
<path d="M65.7981 26.9485C64.9193 26.9485 62.9411 28.7044 62.9411 28.7044C62.9411 28.7044 64.7258 26.7582 64.7258 25.8936C64.7258 25.029 62.9411 23.0828 62.9411 23.0828C62.9411 23.0828 64.9193 24.8386 65.7981 24.8386C66.6769 24.8386 68.655 23.0828 68.655 23.0828C68.655 23.0828 66.8703 25.029 66.8703 25.8936C66.8703 26.7582 68.655 28.7044 68.655 28.7044C68.655 28.7044 66.6769 26.9485 65.7981 26.9485Z" fill="#D6DCE9"/>
<path d="M61.6953 26.2706C61.2559 26.2706 60.2668 27.1494 60.2668 27.1494C60.2668 27.1494 61.16 26.1763 61.16 25.744C61.16 25.3117 60.2668 24.3386 60.2668 24.3386C60.2668 24.3386 61.2559 25.2175 61.6953 25.2175C62.1347 25.2175 63.1237 24.3386 63.1237 24.3386C63.1237 24.3386 62.2323 25.3117 62.2323 25.744C62.2323 26.1763 63.1237 27.1494 63.1237 27.1494C63.1237 27.1494 62.1347 26.2706 61.6953 26.2706Z" fill="#D6DCE9"/>
<path d="M22.799 24.401C22.1245 24.401 20.6092 25.7477 20.6092 25.7477C20.6092 25.7477 21.978 24.2551 21.978 23.5933C21.978 22.9315 20.6092 21.439 20.6092 21.439C20.6092 21.439 22.1263 22.7857 22.799 22.7857C23.4716 22.7857 24.9887 21.439 24.9887 21.439C24.9887 21.439 23.6199 22.9315 23.6199 23.5933C23.6199 24.2551 24.9887 25.7477 24.9887 25.7477C24.9887 25.7477 23.4716 24.401 22.799 24.401Z" fill="#D6DCE9"/>
<path d="M19.6527 23.8797C19.3164 23.8797 18.5569 24.5521 18.5569 24.5521C18.5569 24.5521 19.2404 23.8067 19.2404 23.4741C19.2404 23.1414 18.5569 22.396 18.5569 22.396C18.5569 22.396 19.3146 23.0685 19.6527 23.0685C19.9908 23.0685 20.7485 22.396 20.7485 22.396C20.7485 22.396 20.065 23.1414 20.065 23.4741C20.065 23.8067 20.7485 24.5521 20.7485 24.5521C20.7485 24.5521 19.9908 23.8797 19.6527 23.8797Z" fill="#D6DCE9"/>
<path d="M41.5772 79.3846C60.9399 79.3846 76.6365 78.483 76.6365 77.3708C76.6365 76.2586 60.9399 75.3569 41.5772 75.3569C22.2145 75.3569 6.51788 76.2586 6.51788 77.3708C6.51788 78.483 22.2145 79.3846 41.5772 79.3846Z" fill="#D6DCE9"/>
<path d="M50.9382 34.084C51.2149 34.084 51.8387 33.5308 51.8387 33.5308C51.8387 33.5308 51.2764 34.1445 51.2764 34.4167C51.2764 34.6889 51.8387 35.3026 51.8387 35.3026C51.8387 35.3026 51.2149 34.7494 50.9382 34.7494C50.6616 34.7494 50.0378 35.3026 50.0378 35.3026C50.0378 35.3026 50.6001 34.6889 50.6001 34.4167C50.6001 34.1445 50.0378 33.5308 50.0378 33.5308C50.0378 33.5308 50.6616 34.084 50.9382 34.084Z" fill="#407BFF"/>
<path opacity="0.7" d="M50.9382 34.084C51.2149 34.084 51.8387 33.5308 51.8387 33.5308C51.8387 33.5308 51.2764 34.1445 51.2764 34.4167C51.2764 34.6889 51.8387 35.3026 51.8387 35.3026C51.8387 35.3026 51.2149 34.7494 50.9382 34.7494C50.6616 34.7494 50.0378 35.3026 50.0378 35.3026C50.0378 35.3026 50.6001 34.6889 50.6001 34.4167C50.6001 34.1445 50.0378 33.5308 50.0378 33.5308C50.0378 33.5308 50.6616 34.084 50.9382 34.084Z" fill="white"/>
<path d="M50.9401 23.1434C51.2167 23.1434 51.8406 22.5901 51.8406 22.5901C51.8406 22.5901 51.2782 23.2038 51.2782 23.476C51.2782 23.7482 51.8406 24.362 51.8406 24.362C51.8406 24.362 51.2167 23.8087 50.9401 23.8087C50.6634 23.8087 50.0396 24.362 50.0396 24.362C50.0396 24.362 50.6019 23.7482 50.6019 23.476C50.6019 23.2038 50.0396 22.5901 50.0396 22.5901C50.0396 22.5901 50.6634 23.1434 50.9401 23.1434Z" fill="#407BFF"/>
<path opacity="0.7" d="M50.9401 23.1434C51.2167 23.1434 51.8406 22.5901 51.8406 22.5901C51.8406 22.5901 51.2782 23.2038 51.2782 23.476C51.2782 23.7482 51.8406 24.362 51.8406 24.362C51.8406 24.362 51.2167 23.8087 50.9401 23.8087C50.6634 23.8087 50.0396 24.362 50.0396 24.362C50.0396 24.362 50.6019 23.7482 50.6019 23.476C50.6019 23.2038 50.0396 22.5901 50.0396 22.5901C50.0396 22.5901 50.6634 23.1434 50.9401 23.1434Z" fill="white"/>
<path d="M48.3525 33.6554C48.9058 33.6554 50.1535 32.5488 50.1535 32.5488C50.1535 32.5488 49.0288 33.7746 49.0288 34.3207C49.0288 34.8669 50.1535 36.0926 50.1535 36.0926C50.1535 36.0926 48.9076 34.9861 48.3525 34.9861C47.7974 34.9861 46.5515 36.0926 46.5515 36.0926C46.5515 36.0926 47.6762 34.8669 47.6762 34.3207C47.6762 33.7746 46.5515 32.5488 46.5515 32.5488C46.5515 32.5488 47.7974 33.6554 48.3525 33.6554Z" fill="#407BFF"/>
<path opacity="0.7" d="M48.3525 33.6554C48.9058 33.6554 50.1535 32.5488 50.1535 32.5488C50.1535 32.5488 49.0288 33.7746 49.0288 34.3207C49.0288 34.8669 50.1535 36.0926 50.1535 36.0926C50.1535 36.0926 48.9076 34.9861 48.3525 34.9861C47.7974 34.9861 46.5515 36.0926 46.5515 36.0926C46.5515 36.0926 47.6762 34.8669 47.6762 34.3207C47.6762 33.7746 46.5515 32.5488 46.5515 32.5488C46.5515 32.5488 47.7974 33.6554 48.3525 33.6554Z" fill="white"/>
<path d="M33.9773 19.9286C34.5306 19.9286 35.7782 18.822 35.7782 18.822C35.7782 18.822 34.6535 20.0478 34.6535 20.5939C34.6535 21.1401 35.7782 22.3658 35.7782 22.3658C35.7782 22.3658 34.5324 21.2593 33.9773 21.2593C33.4222 21.2593 32.1763 22.3658 32.1763 22.3658C32.1763 22.3658 33.301 21.1401 33.301 20.5939C33.301 20.0478 32.1763 18.822 32.1763 18.822C32.1763 18.822 33.4222 19.9286 33.9773 19.9286Z" fill="#407BFF"/>
<path opacity="0.8" d="M33.9773 19.9286C34.5306 19.9286 35.7782 18.822 35.7782 18.822C35.7782 18.822 34.6535 20.0478 34.6535 20.5939C34.6535 21.1401 35.7782 22.3658 35.7782 22.3658C35.7782 22.3658 34.5324 21.2593 33.9773 21.2593C33.4222 21.2593 32.1763 22.3658 32.1763 22.3658C32.1763 22.3658 33.301 21.1401 33.301 20.5939C33.301 20.0478 32.1763 18.822 32.1763 18.822C32.1763 18.822 33.4222 19.9286 33.9773 19.9286Z" fill="white"/>
<path d="M36.5648 20.3572C36.8415 20.3572 37.4653 19.804 37.4653 19.804C37.4653 19.804 36.903 20.4177 36.903 20.6899C36.903 20.9621 37.4653 21.5758 37.4653 21.5758C37.4653 21.5758 36.8415 21.0226 36.5648 21.0226C36.2882 21.0226 35.6643 21.5758 35.6643 21.5758C35.6643 21.5758 36.2267 20.9621 36.2267 20.6899C36.2267 20.4177 35.6643 19.804 35.6643 19.804C35.6643 19.804 36.2882 20.3572 36.5648 20.3572Z" fill="#407BFF"/>
<path opacity="0.7" d="M36.5648 20.3572C36.8415 20.3572 37.4653 19.804 37.4653 19.804C37.4653 19.804 36.903 20.4177 36.903 20.6899C36.903 20.9621 37.4653 21.5758 37.4653 21.5758C37.4653 21.5758 36.8415 21.0226 36.5648 21.0226C36.2882 21.0226 35.6643 21.5758 35.6643 21.5758C35.6643 21.5758 36.2267 20.9621 36.2267 20.6899C36.2267 20.4177 35.6643 19.804 35.6643 19.804C35.6643 19.804 36.2882 20.3572 36.5648 20.3572Z" fill="white"/>
<path d="M71.1413 36.2437H71.8194C72.0183 36.2437 72.1865 36.0996 72.2136 35.9057L72.5535 33.5058C72.5861 33.271 72.4016 33.061 72.1593 33.061H71.4813C71.2824 33.061 71.1142 33.2051 71.0871 33.399L70.7471 35.7989C70.7146 36.0338 70.899 36.2437 71.1413 36.2437Z" fill="#407BFF"/>
<path opacity="0.3" d="M71.0021 35.7972L71.3421 33.3973C71.3692 33.2034 71.5373 33.0593 71.7362 33.0593H72.1594C72.4017 33.0593 72.5861 33.2692 72.5536 33.5041L72.2136 35.904C72.1865 36.0979 72.0183 36.242 71.8194 36.242H71.3963C71.154 36.242 70.9696 36.032 71.0021 35.7972Z" fill="white"/>
<path d="M71.823 33.9133H72.248C72.3149 33.9133 72.3745 33.8599 72.3818 33.7941L72.427 33.376C72.4342 33.3102 72.3854 33.2568 72.3185 33.2568H71.8936C71.8267 33.2568 71.767 33.3102 71.7598 33.376L71.7145 33.7941C71.7073 33.8599 71.7561 33.9133 71.823 33.9133Z" fill="#407BFF"/>
<g opacity="0.5">
<path d="M72.2407 33.3423C72.2968 33.3423 72.3384 33.3868 72.3329 33.4419C72.3275 33.4971 72.2769 33.5415 72.2208 33.5415C72.1648 33.5415 72.1232 33.4971 72.1286 33.4419C72.134 33.3868 72.1847 33.3423 72.2407 33.3423Z" fill="black"/>
<path d="M72.21 33.627C72.2661 33.627 72.3076 33.6714 72.3022 33.7266C72.2968 33.7817 72.2462 33.8262 72.1901 33.8262C72.1341 33.8262 72.0925 33.7817 72.0979 33.7266C72.1033 33.6714 72.1539 33.627 72.21 33.627Z" fill="black"/>
<path d="M71.9134 33.4846C71.9695 33.4846 72.0111 33.5291 72.0038 33.5842C71.9984 33.6394 71.9478 33.6839 71.8917 33.6839C71.8357 33.6839 71.7941 33.6394 71.8013 33.5842C71.8067 33.5291 71.8574 33.4846 71.9134 33.4846Z" fill="black"/>
</g>
<path d="M68.5429 72.4767L69.2264 75.9369L70.5482 75.8212L70.2372 72.3308L68.5429 72.4767Z" fill="#FFB573"/>
<path d="M70.7508 75.2838C70.7363 75.2838 70.7237 75.2749 70.7182 75.2607C70.7128 75.2465 70.7182 75.2305 70.7273 75.2216C70.7472 75.2038 71.1974 74.8071 71.4524 74.8266C71.4994 74.8302 71.5446 74.8515 71.5771 74.8871C71.6187 74.9263 71.6314 74.9867 71.6097 75.0383C71.5645 75.1291 71.3855 75.2002 71.2046 75.2376C71.0546 75.2678 70.9045 75.2838 70.7526 75.2856L70.7508 75.2838ZM70.8538 75.2145C71.1305 75.1931 71.4976 75.1166 71.5464 75.0081C71.5536 74.9939 71.559 74.9707 71.5247 74.9334C71.5066 74.9102 71.4777 74.8978 71.4469 74.8978C71.4234 74.8978 71.4017 74.8978 71.38 74.9031C71.1866 74.9725 71.0093 75.0792 70.8538 75.2162V75.2145Z" fill="#407BFF"/>
<path d="M70.7309 75.2858C70.7182 75.2804 70.711 75.2697 70.7092 75.2573C70.7092 75.2377 70.6694 74.8339 70.8249 74.6418C70.8701 74.5848 70.9352 74.5492 71.0057 74.5439C71.1016 74.535 71.1413 74.5777 71.1522 74.6169C71.2155 74.777 70.928 75.1666 70.7688 75.2804C70.7652 75.284 70.7598 75.2858 70.7544 75.284C70.7472 75.2875 70.7381 75.2893 70.7309 75.2875V75.2858ZM70.9949 74.6133C70.9515 74.6222 70.9117 74.6453 70.8846 74.6809C70.8014 74.8303 70.7634 75.0011 70.7779 75.1719C70.937 75.0278 71.1178 74.7307 71.0889 74.6329C71.0853 74.624 71.0762 74.6008 71.013 74.608L70.9931 74.6133H70.9949Z" fill="#407BFF"/>
<path d="M70.5627 75.108L68.9769 75.43C68.9172 75.4424 68.8739 75.494 68.872 75.5563L68.8377 76.9226C68.8341 77.0435 68.9281 77.1449 69.0474 77.1485C69.0619 77.1485 69.0782 77.1485 69.0926 77.1449C69.6622 77.0186 70.1649 76.8834 70.8773 76.7411C71.7182 76.5703 71.5247 76.7162 72.5156 76.5294C73.1123 76.4173 73.0888 75.7093 72.8302 75.7253C71.6458 75.8125 71.4578 75.4833 70.9316 75.1542C70.8195 75.0937 70.6893 75.0759 70.5645 75.108H70.5627Z" fill="#263238"/>
<path opacity="0.2" d="M69.0058 74.8179L68.5429 72.4767L70.2372 72.3308L70.4253 74.4425L69.0058 74.8179Z" fill="black"/>
<path d="M64.6951 49.7944C64.6951 49.7944 69.9823 58.846 70.5446 73.9871L68.7473 74.3998C68.7473 74.3998 66.364 66.1933 66.3225 63.5034C66.3152 63.0107 66.185 62.5286 65.9265 62.1069L62.6518 56.7788C62.339 56.2682 61.9593 55.7986 61.5054 55.4036C60.8092 54.7952 59.6321 52.68 59.5001 50.0648L64.6951 49.7944Z" fill="#407BFF"/>
<path opacity="0.6" d="M64.6951 49.7944C64.6951 49.7944 69.9823 58.846 70.5446 73.9871L68.7473 74.3998C68.7473 74.3998 66.364 66.1933 66.3225 63.5034C66.3152 63.0107 66.185 62.5286 65.9265 62.1069L62.6518 56.7788C62.339 56.2682 61.9593 55.7986 61.5054 55.4036C60.8092 54.7952 59.6321 52.68 59.5001 50.0648L64.6951 49.7944Z" fill="black"/>
<path opacity="0.1" d="M61.0895 52.2496L61.735 51.5896L62.0623 52.0148C62.0623 52.0148 62.4384 55.8379 63.3407 57.8997L62.6518 56.779C62.339 56.2684 61.9593 55.7987 61.5054 55.4038C61.2052 55.1423 60.8237 54.7349 60.4765 54.1478L61.0895 52.2496Z" fill="black"/>
<path d="M70.9207 37.8252L71.4107 36.893C71.4107 36.893 71.2154 36.3842 71.2715 36.1583C71.3221 35.9502 71.4523 35.5001 71.6241 35.3684C71.7 35.3097 71.8447 35.1265 71.9405 35.1443C72.257 35.203 72.6349 35.8932 72.6385 36.2117C72.6421 36.4607 72.1105 37.0656 72.1105 37.0656L71.5915 38.3714L70.9189 37.8252H70.9207Z" fill="#FFB573"/>
<path d="M63.4058 38.9941C63.4058 38.9941 63.3461 38.8465 66.1163 40.0971C69.0763 41.4331 71.1467 37.0532 71.1467 37.0532L72.0834 37.5887C72.0834 37.5887 70.6531 41.2623 68.5321 41.821C66.411 42.3796 64.7312 41.6324 63.6409 41.0578C63.1617 40.8051 62.6934 40.3693 63.4058 38.9941Z" fill="#407BFF"/>
<path opacity="0.7" d="M63.4058 38.9941C63.4058 38.9941 63.3461 38.8465 66.1163 40.0971C69.0763 41.4331 71.1467 37.0532 71.1467 37.0532L72.0834 37.5887C72.0834 37.5887 70.6531 41.2623 68.5321 41.821C66.411 42.3796 64.7312 41.6324 63.6409 41.0578C63.1617 40.8051 62.6934 40.3693 63.4058 38.9941Z" fill="white"/>
<path opacity="0.2" d="M63.6409 41.0576C63.4583 40.9615 63.2792 40.8388 63.1635 40.6484L63.6825 39.9849L64.1345 40.362C64.1345 40.362 64.7819 41.5255 65.5431 41.8226C64.7909 41.6304 64.1526 41.3245 63.6427 41.0558L63.6409 41.0576Z" fill="black"/>
<path d="M50.94 41.2232L50.2113 40.4565C50.2113 40.4565 50.2584 39.9157 50.1426 39.7129C50.0359 39.5261 49.7864 39.1276 49.5857 39.0457C49.4953 39.0102 49.3054 38.8732 49.2186 38.9159C48.9293 39.0582 48.7557 39.8232 48.8407 40.1292C48.9058 40.3711 49.5839 40.8105 49.5839 40.8105L50.4428 41.9295L50.94 41.225V41.2232Z" fill="#FFB573"/>
<path d="M57.1277 39.574C57.1277 39.574 57.1313 39.4121 54.9633 41.5807C52.647 43.897 50.6489 40.6076 50.6489 40.6076L49.9564 41.4473C49.9564 41.4473 51.0883 44.2973 53.3052 44.0731C55.5202 43.849 56.8384 42.5467 57.663 41.6128C58.0246 41.2036 58.3085 40.6236 57.1295 39.574H57.1277Z" fill="#407BFF"/>
<path opacity="0.7" d="M57.1277 39.574C57.1277 39.574 57.1313 39.4121 54.9633 41.5807C52.647 43.897 50.6489 40.6076 50.6489 40.6076L49.9564 41.4473C49.9564 41.4473 51.0883 44.2973 53.3052 44.0731C55.5202 43.849 56.8384 42.5467 57.663 41.6128C58.0246 41.2036 58.3085 40.6236 57.1295 39.574H57.1277Z" fill="white"/>
<path opacity="0.2" d="M57.6612 41.6145C57.7986 41.4598 57.9252 41.2783 57.9631 41.0577L57.229 40.613L56.7245 40.4973C56.7245 40.4973 56.7516 42.4631 56.1405 43.0164C56.7824 42.5663 57.276 42.0504 57.6612 41.6145Z" fill="black"/>
<path d="M61.3101 38.8126L60.5814 38.0458C60.5814 38.0458 60.6284 37.505 60.5127 37.3022C60.406 37.1154 60.1565 36.7169 59.9558 36.6351C59.8653 36.5995 59.6755 36.4625 59.5887 36.5052C59.2994 36.6476 59.1258 37.4125 59.2108 37.7185C59.2759 37.9605 59.9539 38.3999 59.9539 38.3999L60.8128 39.5189L61.3101 38.8144V38.8126Z" fill="#FFB573"/>
<path d="M59.7695 73.425L60.444 76.8852L61.7658 76.7731L61.4638 73.2827L59.7695 73.425Z" fill="#FFB573"/>
<path d="M61.8941 76.6147C61.8815 76.613 61.8706 76.6023 61.8688 76.5898C61.8652 76.5774 61.8724 76.5649 61.8833 76.5578C61.9032 76.5454 62.357 76.2714 62.5795 76.3248C62.621 76.3337 62.6572 76.3586 62.6807 76.3941C62.7115 76.4333 62.7151 76.4866 62.6879 76.5276C62.6355 76.5987 62.4655 76.6343 62.301 76.6379C62.1654 76.6414 62.0298 76.6325 61.8941 76.613V76.6147ZM61.9936 76.5703C62.2413 76.5934 62.5758 76.5809 62.6337 76.4938C62.6427 76.4831 62.65 76.4635 62.6247 76.4262C62.612 76.403 62.5885 76.3888 62.5614 76.3852C62.5415 76.3799 62.5216 76.3781 62.5017 76.3799C62.3209 76.4119 62.1491 76.476 61.9936 76.5703Z" fill="#407BFF"/>
<path d="M61.8779 76.613C61.8688 76.6076 61.8616 76.5969 61.8634 76.5863C61.8634 76.5703 61.8887 76.218 62.0533 76.0757C62.1003 76.0348 62.1636 76.0134 62.2269 76.017C62.3137 76.0223 62.3426 76.065 62.3462 76.1006C62.3787 76.2465 62.0695 76.5382 61.914 76.613C61.9104 76.6147 61.905 76.6147 61.9014 76.613C61.8941 76.6147 61.8869 76.6147 61.8797 76.613H61.8779ZM62.207 76.0757C62.1672 76.0757 62.1292 76.0917 62.1003 76.1184C62.0044 76.234 61.9484 76.3746 61.9375 76.524C62.0985 76.4244 62.301 76.1967 62.2901 76.1077C62.2883 76.1006 62.2829 76.0775 62.2269 76.0739H62.2088L62.207 76.0757Z" fill="#407BFF"/>
<path d="M61.7531 76.4351L60.3066 76.4795C60.2523 76.4795 60.2053 76.5204 60.1963 76.572L59.9702 77.7373C59.9503 77.8405 60.0172 77.9401 60.1221 77.9614C60.1348 77.9632 60.1492 77.965 60.1637 77.965C60.6845 77.9401 61.1474 77.8974 61.7965 77.8796C62.5632 77.8565 62.3715 77.9525 63.272 77.9383C63.8145 77.9294 63.8958 77.3192 63.6644 77.2961C62.6084 77.1982 62.4891 76.8887 62.0714 76.5293C61.981 76.46 61.867 76.4279 61.7531 76.4351Z" fill="#263238"/>
<path opacity="0.2" d="M61.6609 75.5705L61.4638 73.2827L59.7695 73.425L60.2017 75.6435L61.6609 75.5705Z" fill="black"/>
<path d="M62.3679 50.4207L62.0225 56.8784C62.0225 56.8784 61.5795 62.5517 61.5488 64.4517C61.5072 67.0419 61.9375 74.7948 61.9375 74.7948L59.8979 75.0207C59.8979 75.0207 58.6774 68.5772 58.6774 64.7915C58.6774 64.7915 58.0445 59.9935 57.8112 55.5442C57.8112 55.5442 57.0265 53.3738 57.408 50.7942L62.3697 50.4207H62.3679Z" fill="#407BFF"/>
<path opacity="0.6" d="M62.3679 50.4207L62.0225 56.8784C62.0225 56.8784 61.5795 62.5517 61.5488 64.4517C61.5072 67.0419 61.9375 74.7948 61.9375 74.7948L59.8979 75.0207C59.8979 75.0207 58.6774 68.5772 58.6774 64.7915C58.6774 64.7915 58.0445 59.9935 57.8112 55.5442C57.8112 55.5442 57.0265 53.3738 57.408 50.7942L62.3697 50.4207H62.3679Z" fill="black"/>
<path d="M59.5797 74.5563L59.7243 75.348L62.1979 75.0989V74.3037L59.5797 74.5563Z" fill="#407BFF"/>
<path opacity="0.7" d="M59.5797 74.5563L59.7243 75.348L62.1979 75.0989V74.3037L59.5797 74.5563Z" fill="white"/>
<path d="M59.1909 39.2857C59.473 38.5385 59.1421 37.0975 58.8817 36.3628L60.7514 37.5227C60.6827 38.1792 60.849 38.9228 61.7296 39.0704C61.7296 39.0704 61.773 40.2588 61.066 40.426C60.359 40.5933 59.1927 39.2857 59.1927 39.2857H59.1909Z" fill="#FFB573"/>
<path opacity="0.2" d="M59.3898 36.9766L60.4494 37.3377L60.7369 37.5156C60.7405 37.5316 60.7423 37.5476 60.7459 37.5636C60.7351 37.6917 60.7333 37.8234 60.7441 37.9532C60.3481 38.0066 59.8093 37.875 59.5236 37.5512C59.3301 37.3395 59.3048 37.0442 59.3898 36.9783V36.9766Z" fill="black"/>
<path d="M58.3718 35.1693C58.6936 36.3025 58.8256 36.9803 59.5453 37.4446C60.6248 38.1438 61.9502 37.3076 61.9773 36.1068C62.0008 35.0163 61.4674 33.3529 60.2252 33.1376C59.3391 32.9811 58.4911 33.5593 58.332 34.431C58.2868 34.6765 58.3012 34.9291 58.3718 35.1693Z" fill="#FFB573"/>
<path d="M60.2704 35.114C60.2903 35.2083 60.3572 35.2741 60.4205 35.2599C60.4819 35.2457 60.5163 35.1603 60.4946 35.066C60.4747 34.9717 60.4078 34.9077 60.3445 34.9219C60.283 34.9361 60.2487 35.0215 60.2704 35.114Z" fill="#2E353A"/>
<path d="M61.3426 34.8862C61.3625 34.9787 61.4294 35.0446 61.4927 35.0303C61.5542 35.0161 61.5886 34.9307 61.5669 34.8382C61.547 34.7457 61.4801 34.6781 61.4168 34.6923C61.3553 34.7066 61.3209 34.7919 61.3426 34.8862Z" fill="#2E353A"/>
<path d="M60.9521 35.0073C61.1275 35.2688 61.3409 35.5054 61.5813 35.7083C61.4421 35.8986 61.1456 35.8897 61.1456 35.8897L60.9521 35.0073Z" fill="#ED893E"/>
<path d="M59.8039 34.7547C59.7948 34.7565 59.784 34.7565 59.7749 34.7547C59.7478 34.7405 59.7352 34.7085 59.7478 34.68C59.822 34.5145 59.972 34.3954 60.1529 34.358C60.1836 34.3527 60.2125 34.374 60.2179 34.406C60.2234 34.4363 60.2017 34.4647 60.1691 34.4701C60.0281 34.5021 59.9087 34.5982 59.8527 34.728C59.8437 34.744 59.8256 34.7547 59.8057 34.7547H59.8039Z" fill="#2E353A"/>
<path d="M61.6663 34.3721C61.6465 34.3739 61.6284 34.365 61.6157 34.3508C61.5307 34.2369 61.3951 34.1693 61.2505 34.1693C61.2197 34.1711 61.1908 34.1497 61.189 34.1177C61.1872 34.0875 61.2089 34.059 61.2414 34.0572C61.4258 34.0537 61.6012 34.1373 61.7115 34.2814C61.7314 34.3045 61.7278 34.3383 61.7025 34.3579C61.6935 34.365 61.6808 34.3703 61.6682 34.3703L61.6663 34.3721Z" fill="#2E353A"/>
<path d="M57.4189 50.965L56.6902 40.3942C56.654 39.8819 57.0428 39.4371 57.5617 39.3926L63.1418 38.9283C63.6662 38.8838 64.1291 39.2681 64.1725 39.784L65.1146 50.5132L57.4171 50.965H57.4189Z" fill="#407BFF"/>
<path opacity="0.7" d="M57.4189 50.965L56.6902 40.3942C56.654 39.8819 57.0428 39.4371 57.5617 39.3926L63.1418 38.9283C63.6662 38.8838 64.1291 39.2681 64.1725 39.784L65.1146 50.5132L57.4171 50.965H57.4189Z" fill="white"/>
<path d="M63.9935 50.636L63.527 50.6627C63.4691 49.211 63.2901 44.9468 62.3951 38.9907L62.8308 38.9551C62.9773 39.9495 63.8 44.856 63.9935 50.636Z" fill="#263238"/>
<path d="M59.6375 50.8921L59.171 50.9188C59.1059 49.3212 58.9197 45.1779 58.0445 39.3535L58.4803 39.3179C58.6322 40.339 59.4386 45.1583 59.6393 50.8921H59.6375Z" fill="#263238"/>
<path d="M61.5904 38.8162L60.6302 39.1382L59.1294 38.9781L58.9649 39.2769L59.7424 40.097L60.6447 39.2662L61.7224 39.8338L61.8562 39.0368L61.5904 38.8162Z" fill="#407BFF"/>
<path opacity="0.3" d="M61.5904 38.8162L60.6302 39.1382L59.1294 38.9781L58.9649 39.2769L59.7424 40.097L60.6447 39.2662L61.7224 39.8338L61.8562 39.0368L61.5904 38.8162Z" fill="white"/>
<path d="M60.8924 39.4407L60.4819 39.4851C60.4657 39.4851 60.4512 39.4851 60.4367 39.4816L59.6285 39.2539C59.5453 39.2307 59.4657 39.2983 59.4784 39.382L59.6032 40.2448C59.6158 40.3337 59.7207 40.3746 59.793 40.3213L60.4367 39.8409C60.4512 39.8303 60.4693 39.8214 60.4892 39.8196L60.9611 39.7413C60.9846 39.7378 61.0081 39.7413 61.0298 39.7502L61.7296 40.058C61.82 40.0971 61.9158 40.0188 61.8941 39.9246L61.6826 39.0333C61.6627 38.9479 61.5578 38.9141 61.4909 38.971L60.9575 39.4158C60.9394 39.43 60.9177 39.4407 60.8942 39.4424L60.8924 39.4407Z" fill="#263238"/>
<path d="M58.7388 35.8203C58.7388 35.8203 59.2759 35.3791 59.048 34.3722L59.5037 33.5503C59.5037 33.5503 61.6736 33.6642 60.9521 31.8211C60.1782 29.85 59.0408 32.5736 58.5472 32.9294C58.0535 33.2852 56.2164 34.374 58.2018 35.8897L58.7388 35.8203Z" fill="#263238"/>
<path d="M58.0355 36.3629C58.247 36.5729 58.5327 36.6938 58.8329 36.6974C59.2325 36.6974 59.3265 36.322 59.1258 36.0071C58.9468 35.7243 58.5237 35.3809 58.1657 35.5304C57.8076 35.6798 57.7787 36.0996 58.0337 36.3629H58.0355Z" fill="#FFB573"/>
<path d="M60.3174 33.3368C60.3174 33.3368 61.4114 32.8014 61.4403 33.5041C61.471 34.2068 61.2541 33.0735 60.3174 33.3368Z" fill="#263238"/>
<path d="M61.1329 36.4375C61.1889 36.4322 61.2468 36.4233 61.3011 36.4073C61.3191 36.4037 61.33 36.3859 61.3264 36.3681C61.3209 36.3504 61.3011 36.3397 61.283 36.345C61.0009 36.4215 60.7007 36.3628 60.4711 36.1849C60.4566 36.1725 60.4349 36.1725 60.4223 36.1867C60.4096 36.2009 60.4096 36.2223 60.4241 36.2347C60.623 36.3931 60.8779 36.4678 61.1311 36.4375H61.1329Z" fill="#263238"/>
<path d="M67.5231 73.9943L67.7582 74.7308L70.0817 74.2007L69.9841 73.4446L67.5231 73.9943Z" fill="#407BFF"/>
<path opacity="0.7" d="M67.5231 73.9943L67.7582 74.7308L70.0817 74.2007L69.9841 73.4446L67.5231 73.9943Z" fill="white"/>
<path d="M23.1805 33.3598C23.1805 33.3598 22.6127 32.4898 22.1245 33.1285C21.6363 33.7672 21.761 34.9306 21.761 34.9306L23.1805 33.358V33.3598Z" fill="#263238"/>
<path d="M14.8573 73.2256L14.4107 75.8567L15.6258 76.4207L16.3979 73.6205L14.8573 73.2256Z" fill="#EEC1BB"/>
<path d="M14.3782 75.4796L15.8374 75.8247C15.8916 75.8371 15.9314 75.887 15.9296 75.9421L15.9079 77.1732C15.9079 77.2817 15.8157 77.3706 15.7054 77.3689C15.6909 77.3689 15.6764 77.3671 15.6638 77.3635C15.1394 77.2301 14.6801 77.0913 14.0237 76.9366C13.2516 76.7533 13.4252 76.8903 12.5139 76.6893C11.9642 76.5665 12.0148 75.9314 12.2535 75.9563C13.3475 76.0773 13.5355 75.7873 14.0364 75.5098C14.1431 75.46 14.2642 75.4493 14.3782 75.4813V75.4796Z" fill="#263238"/>
<path d="M24.1859 50.4615C23.8767 54.5425 23.2962 54.4127 22.3162 55.4125C22.3035 55.4249 22.2872 55.4409 22.2746 55.4569C21.837 55.9533 21.2385 57.4032 20.7919 58.6004C20.7901 58.604 20.7882 58.6076 20.7864 58.6093C20.4248 59.5789 20.1626 60.3812 20.1626 60.3812C20.1626 60.3812 18.9873 63.1743 18.9294 63.9873C18.6835 67.3567 16.1647 74.9121 16.1647 74.9121L14.4686 74.4941C16.1393 61.9699 18.8191 49.9758 18.8191 49.9758L24.1877 50.4615H24.1859Z" fill="#263238"/>
<path opacity="0.5" d="M22.2746 55.457C21.837 55.9533 21.2385 57.4032 20.7918 58.6005C20.79 58.604 20.7882 58.6076 20.7864 58.6094C20.7557 58.677 20.7268 58.741 20.696 58.8086C21.2403 55.7861 21.6544 53.9324 21.6544 53.9324L22.2185 54.1441L22.2764 55.457H22.2746Z" fill="black"/>
<path d="M22.4355 73.4941L22.591 76.6892H23.8694L24.1208 73.8909L22.4355 73.4941Z" fill="#EEC1BB"/>
<path d="M22.5458 76.4473L24.0068 76.5238C24.0611 76.5274 24.1081 76.5629 24.1189 76.611L24.3468 77.6784C24.3685 77.7727 24.298 77.8616 24.1931 77.8776C24.1786 77.8794 24.166 77.8812 24.1515 77.8794C23.6253 77.8438 23.157 77.794 22.5006 77.7602C21.7267 77.7193 21.9202 77.8118 21.0088 77.7762C20.4609 77.7531 20.3796 77.1963 20.6128 77.182C21.6815 77.1198 21.8008 76.8405 22.2239 76.5238C22.3162 76.4633 22.4301 76.4366 22.544 76.4455L22.5458 76.4473Z" fill="#263238"/>
<path d="M21.7918 49.7943C21.7918 49.7943 21.3271 57.0277 21.7177 64.5689C22.1082 72.1101 22.3361 75.186 22.3361 75.186L24.1768 75.3461C24.1768 75.3461 24.8603 68.2159 24.5981 65.14C24.5294 64.3287 24.5656 63.5139 24.6885 62.7098C24.9742 60.8383 25.665 56.1382 25.9362 54.9943C26.3756 53.1423 26.1785 50.3422 26.1785 50.3422L21.7918 49.7925V49.7943Z" fill="#263238"/>
<path d="M15.407 32.287L15.237 30.7019L15.1123 29.711C15.0797 29.4477 15.2642 29.204 15.53 29.1613L15.7632 29.124C15.8826 29.1044 16.0073 29.1293 16.1104 29.1916L16.2659 29.2859C16.4323 29.3873 16.5227 29.5741 16.4992 29.7644L16.4377 30.275C16.4305 30.3319 16.4142 30.3871 16.3889 30.4387L16.1122 30.983L16.3581 32.1145L15.4088 32.2835L15.407 32.287Z" fill="#EEC1BB"/>
<path d="M16.2225 29.8925V29.3037C16.6004 29.2058 16.8897 28.6543 16.8897 27.7417C16.8897 27.3966 16.8482 27.0746 16.7758 26.7988H15.4269C15.3546 27.0746 15.313 27.3966 15.313 27.7417C15.313 28.6543 15.6023 29.2058 15.9802 29.3037V30.5472L15.3148 30.718C15.3148 30.718 15.9043 30.8087 16.1014 30.8087C16.2985 30.8087 16.8879 30.718 16.8879 30.718L16.2225 30.5472V29.8925Z" fill="#407BFF"/>
<path opacity="0.6" d="M16.2225 29.8925V29.3037C16.6004 29.2058 16.8897 28.6543 16.8897 27.7417C16.8897 27.3966 16.8482 27.0746 16.7758 26.7988H15.4269C15.3546 27.0746 15.313 27.3966 15.313 27.7417C15.313 28.6543 15.6023 29.2058 15.9802 29.3037V30.5472L15.3148 30.718C15.3148 30.718 15.9043 30.8087 16.1014 30.8087C16.2985 30.8087 16.8879 30.718 16.8879 30.718L16.2225 30.5472V29.8925Z" fill="white"/>
<path opacity="0.5" d="M16.7035 27.7417C16.7035 27.5531 16.689 27.1173 16.6637 26.7988H15.5372C15.5119 27.119 15.4974 27.5531 15.4974 27.7417C15.4974 28.6614 15.8012 29.1418 16.1014 29.1418C16.4015 29.1418 16.7053 28.6614 16.7053 27.7417H16.7035Z" fill="white"/>
<path d="M16.0996 28.2434C15.926 28.174 15.7036 28.1758 15.5282 28.1918C15.6095 28.8126 15.8555 29.14 16.0996 29.14C16.3437 29.14 16.5751 28.8304 16.6637 28.2451C16.4648 28.2843 16.2478 28.3021 16.0996 28.2434Z" fill="#407BFF"/>
<path opacity="0.3" d="M16.0996 28.2434C15.926 28.174 15.7036 28.1758 15.5282 28.1918C15.6095 28.8126 15.8555 29.14 16.0996 29.14C16.3437 29.14 16.5751 28.8304 16.6637 28.2451C16.4648 28.2843 16.2478 28.3021 16.0996 28.2434Z" fill="black"/>
<path d="M30.1023 29.7165V29.1276C30.4802 29.0298 30.7695 28.4783 30.7695 27.5657C30.7695 27.2205 30.7279 26.8985 30.6556 26.6228H29.3067C29.2344 26.8985 29.1928 27.2205 29.1928 27.5657C29.1928 28.4783 29.4821 29.0298 29.86 29.1276V30.3712L29.1946 30.5419C29.1946 30.5419 29.7841 30.6327 29.9812 30.6327C30.1783 30.6327 30.7677 30.5419 30.7677 30.5419L30.1023 30.3712V29.7165Z" fill="#407BFF"/>
<path opacity="0.6" d="M30.1023 29.7165V29.1276C30.4802 29.0298 30.7695 28.4783 30.7695 27.5657C30.7695 27.2205 30.7279 26.8985 30.6556 26.6228H29.3067C29.2344 26.8985 29.1928 27.2205 29.1928 27.5657C29.1928 28.4783 29.4821 29.0298 29.86 29.1276V30.3712L29.1946 30.5419C29.1946 30.5419 29.7841 30.6327 29.9812 30.6327C30.1783 30.6327 30.7677 30.5419 30.7677 30.5419L30.1023 30.3712V29.7165Z" fill="white"/>
<path opacity="0.5" d="M30.5833 27.5674C30.5833 27.3788 30.5688 26.943 30.5435 26.6245H29.417C29.3917 26.9447 29.3772 27.3788 29.3772 27.5674C29.3772 28.4871 29.681 28.9675 29.9812 28.9675C30.2813 28.9675 30.5851 28.4871 30.5851 27.5674H30.5833Z" fill="white"/>
<path d="M29.9812 28.0691C29.8076 27.9997 29.5852 28.0014 29.4098 28.0175C29.4911 28.6383 29.737 28.9657 29.9812 28.9657C30.2253 28.9657 30.4567 28.6561 30.5453 28.0708C30.3464 28.11 30.1294 28.1278 29.9812 28.0691Z" fill="#407BFF"/>
<path opacity="0.3" d="M29.9812 28.0691C29.8076 27.9997 29.5852 28.0014 29.4098 28.0175C29.4911 28.6383 29.737 28.9657 29.9812 28.9657C30.2253 28.9657 30.4567 28.6561 30.5453 28.0708C30.3464 28.11 30.1294 28.1278 29.9812 28.0691Z" fill="black"/>
<path d="M30.8328 32.0898L30.8039 30.4976V29.4995C30.8039 29.2345 30.5905 29.0157 30.3211 29.005L30.0842 28.9961C29.9631 28.9908 29.8437 29.0299 29.7479 29.1064L29.6051 29.2202C29.4532 29.3412 29.3863 29.5369 29.4333 29.7237L29.558 30.2236C29.5725 30.2787 29.596 30.3321 29.6286 30.3784L29.9721 30.8854L29.869 32.0382L30.8328 32.0916V32.0898Z" fill="#EEC1BB"/>
<path d="M26.5926 38.816C27.484 38.567 28.9487 36.6848 29.1512 35.8576C29.3537 35.0303 29.6973 31.6235 29.6973 31.6235L31.0625 31.7232C31.0625 31.7232 31.1131 36.0995 30.7533 37.2114C30.3934 38.3233 27.7788 41.5931 26.5311 41.1501C25.2834 40.7071 25.9344 38.9993 26.5944 38.8143L26.5926 38.816Z" fill="#407BFF"/>
<path opacity="0.1" d="M29.0138 39.7234C27.5744 41.0345 26.8746 40.1432 26.8746 40.1432L26.5311 40.2784L26.3177 41.0487C26.3774 41.0879 26.4479 41.1235 26.5311 41.1537C27.164 41.3779 28.1494 40.6449 29.0138 39.7234Z" fill="black"/>
<path d="M20.0631 38.4104C20.0631 38.4104 18.9276 37.9621 17.8137 35.7188C16.982 34.043 16.4377 31.531 16.4377 31.531L15.1105 31.7925C15.1105 31.7925 15.4757 35.5693 16.2894 37.0441C17.1031 38.5189 17.9186 40.0596 19.1319 40.8743C19.6798 41.2426 21.3054 41.7692 20.0631 38.4104Z" fill="#407BFF"/>
<path opacity="0.1" d="M19.4267 39.887C19.0922 40.6822 17.5317 39.5544 17.425 39.4761C18.0362 40.0507 18.6491 40.5506 19.1319 40.8744C19.2513 40.9544 19.3851 41.0345 19.5117 41.079C19.5858 40.3175 19.6473 39.3604 19.4249 39.887H19.4267Z" fill="black"/>
<path d="M21.6634 38.9354L21.5169 41.1538L22.1824 41.3797L23.0774 41.241C23.0774 41.241 24.5891 39.0901 24.5421 39.0866C23.8604 39.0297 24.2763 37.3716 24.5421 36.6262L22.6489 37.8021C22.714 38.439 22.195 38.9923 21.6634 38.9389V38.9354Z" fill="#EEC1BB"/>
<path opacity="0.1" d="M24.1895 37.3592H23.7392L23.2438 37.4286L22.9943 37.5834L22.6489 37.7968C22.6724 38.0174 22.6236 38.2274 22.5295 38.4053C23.6922 38.4853 24.1895 37.3574 24.1895 37.3574V37.3592Z" fill="black"/>
<path d="M25.0574 35.4164C24.7301 36.5638 24.5981 37.2505 23.8694 37.7202C22.7755 38.4282 21.4338 37.5814 21.4066 36.3664C21.3831 35.2634 21.922 33.5769 23.1805 33.3598C24.0774 33.2015 24.9363 33.7868 25.0972 34.6692C25.1424 34.9182 25.1279 35.1744 25.0556 35.4164H25.0574Z" fill="#EEC1BB"/>
<path d="M23.0376 35.3541C23.0159 35.4484 22.949 35.516 22.8857 35.5017C22.8225 35.4875 22.7899 35.4003 22.8098 35.3061C22.8315 35.21 22.8984 35.1459 22.9617 35.1602C23.025 35.1744 23.0575 35.2616 23.0376 35.3541Z" fill="#263238"/>
<path d="M22.0486 35.13C22.0269 35.2242 21.96 35.2901 21.8967 35.2758C21.8334 35.2616 21.8008 35.1744 21.8207 35.0819C21.8424 34.9876 21.9093 34.92 21.9726 34.9343C22.0359 34.9485 22.0703 35.0357 22.0486 35.13Z" fill="#263238"/>
<path d="M22.3686 35.251C22.1896 35.516 21.9762 35.7544 21.7303 35.9608C21.8714 36.1547 22.1715 36.144 22.1715 36.144L22.3686 35.251Z" fill="#D4827D"/>
<path d="M23.5078 34.9896C23.5168 34.9913 23.5277 34.9913 23.5367 34.9896C23.5657 34.9753 23.5765 34.9415 23.5657 34.9131C23.4897 34.7458 23.3378 34.6249 23.157 34.5857C23.1245 34.5804 23.0955 34.6035 23.0919 34.6338C23.0865 34.6658 23.11 34.6942 23.1407 34.6978C23.2836 34.7298 23.4029 34.8277 23.4626 34.9593C23.4734 34.9753 23.4915 34.986 23.5096 34.986L23.5078 34.9896Z" fill="#263238"/>
<path d="M21.7195 34.6088C21.7394 34.6106 21.7574 34.6017 21.7701 34.5875C21.8569 34.4719 21.9943 34.4042 22.1408 34.4042C22.1733 34.4078 22.2004 34.3829 22.2041 34.3527C22.2077 34.3206 22.1824 34.294 22.1516 34.2904C21.9654 34.2868 21.7882 34.3704 21.6761 34.5181C21.6562 34.5412 21.6598 34.5768 21.6851 34.5964C21.6941 34.6053 21.7068 34.6088 21.7195 34.6088Z" fill="#263238"/>
<path d="M24.4571 39.0116C24.0755 39.3977 23.0033 40.442 22.5603 40.3975C22.1082 40.353 21.8695 39.2447 21.8008 38.8764C20.6472 38.6327 19.5514 38.5669 19.5514 38.5669L18.9276 50.2212L26.1713 50.5485L27.0844 38.8053C27.0844 38.8053 25.7319 38.8586 24.4571 39.0099V39.0116Z" fill="#407BFF"/>
<path opacity="0.7" d="M24.4571 39.0116C24.0755 39.3977 23.0033 40.442 22.5603 40.3975C22.1082 40.353 21.8695 39.2447 21.8008 38.8764C20.6472 38.6327 19.5514 38.5669 19.5514 38.5669L18.9276 50.2212L25.8548 50.6232L27.0862 38.8053C27.0862 38.8053 25.7337 38.8586 24.4589 39.0099L24.4571 39.0116Z" fill="white"/>
<path d="M18.2712 52.6566L20.696 52.8434L21.5169 40.7551L21.3054 38.7679C20.3018 38.5384 19.3362 38.2751 19.3362 38.2751L18.2712 52.6566Z" fill="#407BFF"/>
<path d="M23.7464 40.9153L23.3251 52.8311L26.2671 53.057L27.0862 38.8072C27.0862 38.8072 26.0501 38.8001 24.873 38.9584L23.7446 40.9153H23.7464Z" fill="#407BFF"/>
<path d="M25.1243 39.4761C25.1243 39.4761 24.5511 42.632 24.9724 45.6492L24.4498 46.1296L24.0285 45.2934C24.0285 45.2934 24.4842 42.6801 24.5421 41.6518C24.6017 40.6235 24.7789 39.364 24.7789 39.364L25.1225 39.4743L25.1243 39.4761Z" fill="#407BFF"/>
<path opacity="0.5" d="M25.1243 39.4761C25.1243 39.4761 24.5511 42.632 24.9724 45.6492L24.4498 46.1296L24.0285 45.2934C24.0285 45.2934 24.4842 42.6801 24.5421 41.6518C24.6017 40.6235 24.7789 39.364 24.7789 39.364L25.1225 39.4743L25.1243 39.4761Z" fill="black"/>
<path d="M24.7301 38.9797L25.07 38.752L25.3142 38.8961L25.3738 40.458L24.5439 40.0328L24.1895 40.0702L24.7301 38.9797Z" fill="#407BFF"/>
<path opacity="0.2" d="M24.7301 38.9797L25.07 38.752L25.3142 38.8961L25.3738 40.458L24.5439 40.0328L24.1895 40.0702L24.7301 38.9797Z" fill="white"/>
<path d="M21.0613 39.364C21.0613 39.364 20.989 42.2585 20.7973 44.6957C20.6056 47.1329 20.3778 49.2731 20.3778 49.2731H19.9601C19.9601 49.2731 20.4664 45.2187 20.5098 44.025C20.555 42.8313 20.7955 39.3658 20.7955 39.3658H21.0595L21.0613 39.364Z" fill="#407BFF"/>
<path opacity="0.5" d="M21.0613 39.364C21.0613 39.364 20.989 42.2585 20.7973 44.6957C20.6056 47.1329 20.3778 49.2731 20.3778 49.2731H19.9601C19.9601 49.2731 20.4664 45.2187 20.5098 44.025C20.555 42.8313 20.7955 39.3658 20.7955 39.3658H21.0595L21.0613 39.364Z" fill="black"/>
<path d="M21.4066 39.921L20.8226 39.7235L20.1897 39.921L20.8407 38.6294L21.2131 38.665L21.3451 38.7521L21.4066 39.921Z" fill="#407BFF"/>
<path opacity="0.2" d="M21.4066 39.921L20.8226 39.7235L20.1897 39.921L20.8407 38.6294L21.2131 38.665L21.3451 38.7521L21.4066 39.921Z" fill="white"/>
<path opacity="0.3" d="M29.6972 31.6235L31.0624 31.7232C31.0624 31.7232 31.0642 31.9936 31.0642 32.417L29.6376 32.2818C29.6737 31.8833 29.6972 31.6235 29.6972 31.6235Z" fill="white"/>
<path opacity="0.3" d="M16.5643 32.0113L15.1792 32.3867C15.134 32.0202 15.1123 31.7925 15.1123 31.7925L16.4395 31.531C16.4395 31.531 16.4847 31.7125 16.5643 32.0113Z" fill="white"/>
<path d="M21.9346 36.5351C21.9346 36.5351 22.3415 36.4408 23.4825 36.4373C23.3523 36.7753 23.1027 37.0492 22.5187 37.051C22.2276 37.0795 21.9672 36.8696 21.9364 36.5831C21.9364 36.5671 21.9346 36.5511 21.9346 36.5351Z" fill="#263238"/>
<path d="M22.7863 36.7808C22.5621 36.7701 22.3397 36.8288 22.1498 36.948C22.2583 37.0174 22.3867 37.0512 22.5151 37.0476C22.7393 37.0601 22.9617 37.0014 23.1497 36.8804C23.0413 36.8092 22.9147 36.7754 22.7845 36.7808H22.7863Z" fill="#9D2724"/>
<path d="M21.9871 36.5264C22.0106 36.61 22.0793 36.674 22.1661 36.6936C22.5042 36.6901 22.8424 36.6598 23.1769 36.6029C23.2854 36.5922 23.3812 36.5299 23.4318 36.4357C22.9491 36.4303 22.4645 36.4606 21.9871 36.5282V36.5264Z" fill="white"/>
<path d="M22.0305 33.6782C22.0847 33.5644 22.488 33.5181 22.6109 33.5537C22.7339 33.5893 22.8207 33.7191 22.8044 33.8437C22.9762 33.744 23.166 33.6586 23.3631 33.6444C23.5602 33.6302 23.7718 33.6942 23.902 33.8401C24.0611 34.0198 24.0738 34.2849 24.0412 34.5215C24.0087 34.7581 23.9382 34.9947 23.9635 35.2331C24.0014 35.5871 24.2238 35.9429 24.5656 36.0603C24.6253 36.1332 24.6144 36.2578 24.5927 36.3485C24.571 36.4392 24.5258 36.5228 24.4842 36.6065C24.345 36.8929 24.2709 37.2095 24.2654 37.528C24.5095 37.1313 25.0357 36.6794 25.363 36.3467C25.5402 36.4268 25.7699 36.4766 25.9561 36.4179C25.9109 36.4321 25.8386 36.4019 25.8042 36.3681C25.8784 36.3521 25.938 36.3574 26.014 36.3414C25.7988 36.2346 25.6849 35.9927 25.665 35.7561C25.6451 35.5195 25.6993 35.2864 25.7391 35.0534C25.7789 34.8203 25.8548 33.6729 25.1171 33.1463C24.7862 32.9097 24.1461 32.7336 23.7519 32.8474C23.0431 32.2888 22.2692 32.883 22.1227 33.1321C22.0196 33.3064 22.0612 33.4807 22.0287 33.68L22.0305 33.6782Z" fill="#263238"/>
<path d="M25.3955 36.6245C25.1822 36.8379 24.8928 36.9589 24.5873 36.9642C24.184 36.9642 24.1587 36.5319 24.2907 36.2651C24.4408 35.9609 24.9001 35.63 25.2617 35.783C25.6234 35.9342 25.6541 36.3594 25.3955 36.6262V36.6245Z" fill="#EEC1BB"/>
<path d="M39.8232 42.9007C40.8105 42.8385 42.0057 41.7337 43.6729 41.4704C45.3418 41.2071 47.8137 41.3068 47.8137 41.3068L47.9221 40.3212C47.9438 40.1184 47.8046 39.9351 47.6021 39.8978C46.7414 39.743 44.548 39.3925 43.3221 39.5847C41.7761 39.8284 39.8123 40.3123 39.0023 41.0488C38.6262 41.3904 38.1651 43.0021 39.8214 42.8972L39.8232 42.9007Z" fill="#407BFF"/>
<path opacity="0.7" d="M39.8232 42.9007C40.8105 42.8385 42.0057 41.7337 43.6729 41.4704C45.3418 41.2071 47.8137 41.3068 47.8137 41.3068L47.9221 40.3212C47.9438 40.1184 47.8046 39.9351 47.6021 39.8978C46.7414 39.743 44.548 39.3925 43.3221 39.5847C41.7761 39.8284 39.8123 40.3123 39.0023 41.0488C38.6262 41.3904 38.1651 43.0021 39.8214 42.8972L39.8232 42.9007Z" fill="white"/>
<path d="M34.1708 45.7579L33.3119 45.1513C33.3119 45.1513 32.4928 43.7032 31.9304 44.1337L31.8201 45.3897C31.8201 45.3897 32.33 46.4322 32.9954 46.1279L33.8453 46.6688L34.1708 45.7579Z" fill="#EEC1BB"/>
<path d="M42.7832 40.8567C42.7832 40.8567 41.8773 40.6788 40.6441 42.4685C39.4109 44.2599 37.2447 47.5618 33.6265 45.1228L33.1744 46.5353C33.1744 46.5353 35.1797 48.1222 37.9879 47.3305C40.796 46.5388 42.2082 43.3971 42.2082 43.3971L42.7814 40.8585L42.7832 40.8567Z" fill="#407BFF"/>
<path d="M31.8093 43.9363C31.8093 43.9363 32.3734 43.9256 32.3734 44.4789C32.3734 45.0322 32.8273 45.6441 32.3734 45.8772C31.9196 46.1102 31.0588 44.7671 31.8093 43.9363Z" fill="#EEC1BB"/>
<path opacity="0.2" d="M42.1739 41.5273L42.465 42.271L42.2118 43.3953C42.2118 43.3953 41.4343 45.1245 39.8865 46.3395C41.2426 44.7456 41.644 41.86 41.644 41.86L42.1757 41.5273H42.1739Z" fill="black"/>
<path d="M29.2543 35.5498L28.7895 34.1124C28.7895 34.1124 28.8673 32.7853 28.6105 32.5576C28.4514 32.417 27.9542 32.6323 27.7534 32.5576C27.531 32.4739 27.5925 32.248 27.3574 32.2943C27.22 32.3209 27.0537 32.6003 27.0175 32.7337C26.9126 33.1233 26.9416 33.6285 27.2327 33.9132C27.4135 34.0893 28.0283 34.2476 28.0283 34.2476L28.1458 35.9377L29.2543 35.5498Z" fill="#CE7A63"/>
<path d="M36.5124 73.7895L36.1164 77.762L34.885 77.7496L34.8941 73.7166L36.5124 73.7895Z" fill="#CE7A63"/>
<path opacity="0.1" d="M34.8941 73.7166L36.5124 73.7895L36.2737 76.1876L34.8886 76.0648L34.8941 73.7166Z" fill="black"/>
<path d="M34.3118 76.9419C34.1545 76.9259 33.9935 76.8814 33.9483 76.8085C33.9248 76.7658 33.9321 76.7142 33.9646 76.6804C33.9899 76.6484 34.0261 76.627 34.0659 76.6199C34.2847 76.5844 34.7024 76.8779 34.7204 76.8921C34.7313 76.8992 34.7349 76.9117 34.7313 76.9241C34.7277 76.9366 34.7168 76.9455 34.7042 76.9455C34.574 76.9562 34.442 76.9544 34.3118 76.9419ZM34.1346 76.6786C34.1147 76.6769 34.0948 76.6769 34.0767 76.6786C34.0514 76.6786 34.0279 76.6929 34.0134 76.7142C33.9863 76.748 33.9935 76.7676 34.0008 76.7783C34.0514 76.8654 34.3715 76.901 34.612 76.8957C34.4691 76.7943 34.3064 76.7196 34.1364 76.6769L34.1346 76.6786Z" fill="#407BFF"/>
<path d="M34.7006 76.9454C34.7006 76.9454 34.6915 76.9454 34.6879 76.9436C34.5433 76.8618 34.2648 76.5594 34.3082 76.4206C34.3154 76.3868 34.3444 76.3477 34.4293 76.3477C34.4908 76.3477 34.5487 76.3726 34.5921 76.4153C34.7404 76.5629 34.7385 76.9045 34.7385 76.9187C34.7385 76.9294 34.7313 76.9401 34.7223 76.9436C34.715 76.9454 34.7078 76.9454 34.7024 76.9436L34.7006 76.9454ZM34.442 76.4064L34.4257 76.4028C34.3715 76.4028 34.3661 76.4224 34.3624 76.4295C34.3462 76.5131 34.5234 76.7462 34.6716 76.8547C34.6716 76.7106 34.6264 76.5718 34.5433 76.4544C34.5161 76.4277 34.4818 76.4099 34.4438 76.4064H34.442Z" fill="#407BFF"/>
<path d="M34.8524 76.7834L36.2411 76.924C36.2936 76.9293 36.3352 76.9702 36.3406 77.0218L36.4744 78.1586C36.4871 78.26 36.4147 78.3507 36.3117 78.3632C36.299 78.3632 36.2845 78.365 36.2719 78.3632C35.7728 78.3045 35.3298 78.2315 34.706 78.1693C33.97 78.0946 34.1472 78.1995 33.2829 78.1248C32.7603 78.0785 32.726 77.4861 32.9502 77.4808C33.9737 77.4577 34.1111 77.1677 34.5378 76.851C34.63 76.7905 34.7403 76.7674 34.8506 76.7817L34.8524 76.7834Z" fill="#263238"/>
<path d="M28.5038 72.9588L27.7082 76.8744L26.4841 76.7392L26.9 72.7275L28.5038 72.9588Z" fill="#CE7A63"/>
<path opacity="0.1" d="M26.9 72.7275L28.5039 72.9588L27.9722 75.5775L26.6161 75.4743L26.9 72.7275Z" fill="black"/>
<path d="M25.8657 76.1717C25.6939 76.1556 25.5185 76.1076 25.4679 76.0329C25.4426 75.9884 25.4498 75.935 25.486 75.8977C25.5131 75.8639 25.5529 75.8408 25.5981 75.8354C25.8367 75.7981 26.2924 76.1058 26.3123 76.1183C26.3231 76.1254 26.3286 76.1396 26.325 76.1521C26.3213 76.1645 26.3087 76.1734 26.296 76.1752C26.1532 76.1859 26.0103 76.1841 25.8675 76.1717H25.8657ZM25.6722 75.8959C25.6505 75.8941 25.6288 75.8941 25.6089 75.8959C25.5818 75.8959 25.5547 75.9119 25.5402 75.9333C25.5113 75.9688 25.5185 75.9884 25.5257 76.0009C25.58 76.0916 25.9308 76.129 26.193 76.1236C26.0356 76.0169 25.8602 75.9404 25.674 75.8959H25.6722Z" fill="#407BFF"/>
<path d="M26.2888 76.1734C26.2888 76.1734 26.2798 76.1734 26.2743 76.1716C26.1152 76.0862 25.8132 75.7713 25.8584 75.6272C25.8657 75.5916 25.8982 75.5525 25.9904 75.5525C26.0573 75.5525 26.1206 75.5774 26.1676 75.6236C26.3304 75.7784 26.3286 76.1342 26.3286 76.1502C26.3286 76.1609 26.3213 76.1716 26.3105 76.1769C26.3033 76.1787 26.2942 76.1787 26.287 76.1769L26.2888 76.1734ZM26.0067 75.6112L25.9886 75.6076C25.929 75.6076 25.9235 75.629 25.9199 75.6361C25.9018 75.7233 26.0953 75.967 26.2581 76.0791C26.2581 75.9296 26.2092 75.7838 26.117 75.661C26.0881 75.6325 26.0501 75.6148 26.0085 75.6112H26.0067Z" fill="#407BFF"/>
<path d="M26.457 76.0062L27.9722 76.1539C28.0301 76.1592 28.0753 76.2019 28.0807 76.2553L28.2272 77.4418C28.2417 77.5468 28.1621 77.6429 28.05 77.6553C28.0355 77.6553 28.021 77.6571 28.0066 77.6553C27.4605 77.5931 26.9777 77.5183 26.2978 77.4525C25.495 77.3742 25.6885 77.4845 24.7446 77.4063C24.175 77.3582 24.137 76.7391 24.3829 76.7338C25.5004 76.7107 25.6487 76.4082 26.1152 76.0774C26.2165 76.0151 26.3376 75.9902 26.4551 76.0062H26.457Z" fill="#263238"/>
<path d="M32.0624 51.7354C32.0624 51.7354 29.059 57.6683 28.0012 62.7225C26.9434 67.7766 26.3882 74.7094 26.3882 74.7094L28.2995 74.9211C28.2995 74.9211 29.4224 70.6159 30.0878 66.9583C30.3428 65.5582 30.2904 64.24 30.5399 63.4163C30.8147 62.509 31.2216 62.0233 32.283 60.191C33.9429 57.325 36.6118 54.3558 35.8994 52.0093L32.0624 51.7354Z" fill="#407BFF"/>
<path opacity="0.1" d="M34.6011 53.7688L35.4925 54.9002C34.9085 56.2043 33.9266 57.5883 33.0334 58.9724C34.0243 56.7095 34.5993 53.7706 34.5993 53.7706L34.6011 53.7688Z" fill="black"/>
<path d="M38.6985 52.3401L37.2375 65.8446C37.5412 68.5718 37.0096 71.9643 36.5377 75.5579L34.7964 75.3302C34.7964 75.3302 34.2828 70.6835 34.2539 66.1203C34.2395 63.9393 34.4709 51.7371 34.4709 51.7371L38.7003 52.3419L38.6985 52.3401Z" fill="#407BFF"/>
<path d="M36.9952 75.1078L36.8125 75.8692L34.5125 75.6184L34.5577 74.8748L36.9952 75.1078Z" fill="#407BFF"/>
<path d="M28.6377 74.5368L28.455 75.2982L26.155 75.0473L26.202 74.3037L28.6377 74.5368Z" fill="#407BFF"/>
<path d="M33.7639 40.5739C33.7639 40.5739 31.7749 40.09 30.7732 38.9212C29.7714 37.7524 29.3411 34.7939 29.3411 34.7939L27.9686 35.1782C27.9686 35.1782 28.4297 39.1312 29.3953 40.4085C30.4079 41.7481 32.7766 42.9258 32.7766 42.9258L33.7639 40.5739Z" fill="#407BFF"/>
<path opacity="0.7" d="M33.7639 40.5739C33.7639 40.5739 31.7749 40.09 30.7732 38.9212C29.7714 37.7524 29.3411 34.7939 29.3411 34.7939L27.9686 35.1782C27.9686 35.1782 28.4297 39.1312 29.3953 40.4085C30.4079 41.7481 32.7766 42.9258 32.7766 42.9258L33.7639 40.5739Z" fill="white"/>
<path opacity="0.1" d="M28.1458 35.1283L28.4442 35.0447L28.719 36.8059C28.7317 36.8895 28.6774 36.9678 28.5943 36.9874C28.5002 37.0087 28.408 36.9464 28.3935 36.8539L28.144 35.1283H28.1458Z" fill="black"/>
<g opacity="0.1">
<path d="M32.7766 42.9257C32.7766 42.9257 32.1166 42.5965 31.3427 42.0895C32.2414 42.625 32.7206 41.3459 32.7206 41.3459L33.1762 40.7393L33.4854 41.2356L32.7748 42.9274L32.7766 42.9257Z" fill="black"/>
<path d="M31.1203 41.9402C31.1493 41.958 31.1818 41.9793 31.218 42.0078C31.1854 41.9864 31.1529 41.9633 31.1203 41.9402Z" fill="black"/>
</g>
<path d="M37.6172 38.2913C37.3641 39.0011 37.0332 40.2482 37.3062 40.9687C37.3713 41.1412 37.3062 41.3351 37.1507 41.4365C36.601 41.8261 35.9229 42.004 35.2485 41.9329C34.3841 41.8404 34.3914 41.3778 34.612 41.0487C34.6716 40.9598 34.7657 40.8993 34.8705 40.8815C35.7204 40.7392 35.8795 40.0471 35.8144 39.4138L37.619 38.293L37.6172 38.2913Z" fill="#CE7A63"/>
<path opacity="0.2" d="M36.8831 38.752L35.8144 39.4085C35.8271 39.5632 35.8271 39.7198 35.8144 39.8746C36.1797 39.8746 36.686 39.6433 36.8831 39.2768C37.0078 39.0527 36.9717 38.7912 36.8831 38.7502V38.752Z" fill="black"/>
<path d="M38.109 37.1421C37.798 38.2362 37.6714 38.8909 36.9771 39.3374C35.9356 40.0117 34.6554 39.2058 34.63 38.0459C34.6065 36.9945 35.1219 35.388 36.3207 35.1817C37.176 35.0305 37.9933 35.5891 38.147 36.4305C38.1904 36.6672 38.1777 36.9109 38.1072 37.1421H38.109Z" fill="#CE7A63"/>
<path d="M36.2773 37.0887C36.2574 37.1794 36.1923 37.2416 36.1327 37.2292C36.073 37.2167 36.0405 37.1331 36.0603 37.0424C36.0802 36.9517 36.1453 36.8894 36.205 36.9036C36.2647 36.9161 36.2972 36.9997 36.2773 37.0887Z" fill="#2E353A"/>
<path d="M35.243 36.868C35.2231 36.957 35.158 37.021 35.0984 37.0068C35.0387 36.9926 35.0062 36.9107 35.026 36.8218C35.0459 36.7328 35.111 36.6688 35.1707 36.6812C35.2304 36.6937 35.2629 36.7773 35.243 36.868Z" fill="#2E353A"/>
<path d="M35.5432 36.9839C35.3732 37.2365 35.1689 37.4642 34.9356 37.6617C35.0694 37.8449 35.357 37.836 35.357 37.836L35.5432 36.9839Z" fill="#BA4D3C"/>
<path d="M36.7276 36.7402C36.7366 36.7419 36.7457 36.7419 36.7565 36.7402C36.7836 36.7259 36.7945 36.6957 36.7836 36.6672C36.7113 36.5071 36.5666 36.3915 36.3931 36.3559C36.3623 36.3523 36.3352 36.3719 36.3298 36.4021C36.3262 36.4324 36.346 36.4591 36.3768 36.4644C36.5142 36.4946 36.6281 36.5872 36.6824 36.7135C36.6914 36.7295 36.7095 36.7384 36.7276 36.7402Z" fill="#2E353A"/>
<path d="M34.9302 36.3717C34.9483 36.3735 34.9664 36.3664 34.979 36.3504C35.0622 36.2401 35.1924 36.176 35.3316 36.176C35.3624 36.1778 35.3877 36.1564 35.3913 36.1262C35.3931 36.096 35.3714 36.0711 35.3407 36.0675C35.1635 36.0639 34.9935 36.144 34.8868 36.2845C34.8687 36.3077 34.8724 36.3397 34.8941 36.3593C34.9031 36.3664 34.9158 36.3717 34.9266 36.3717H34.9302Z" fill="#2E353A"/>
<path d="M35.0061 38.1277C35.0061 38.1277 35.3696 38.1419 36.3641 38.3803C36.1996 38.6027 35.9392 38.7539 35.4365 38.6294C34.9338 38.5048 35.0061 38.1277 35.0061 38.1277Z" fill="#2E353A"/>
<path d="M35.0532 38.1313C35.0694 38.1918 35.0712 38.3502 35.1743 38.3946C35.4672 38.464 35.7638 38.5121 36.0621 38.5423C36.1544 38.5512 36.252 38.4427 36.3225 38.3715C35.9048 38.2648 35.4817 38.1847 35.0532 38.1313Z" fill="white"/>
<path d="M37.657 38.0654C37.8378 37.7932 38.194 37.6473 38.5141 37.7327C38.637 37.3805 38.7473 37.0176 38.8703 36.6653C38.9318 36.4892 38.995 36.3042 38.9553 36.1227C38.9119 35.9199 38.7437 35.7616 38.5538 35.6726C38.364 35.5837 38.1524 35.5517 37.9445 35.5232C37.93 35.8505 37.572 37.5228 37.6552 38.0672L37.657 38.0654Z" fill="#2E353A"/>
<path d="M37.1597 34.9431C36.7872 34.7154 36.3207 34.6389 35.894 34.7368C35.7041 34.7795 35.5143 34.8613 35.3859 35.0072C35.2593 35.1531 35.2087 35.3754 35.3027 35.5444C35.3967 35.7135 35.6535 35.7828 35.8018 35.6565C36.0857 35.6494 36.3261 35.6476 36.6082 35.6885C36.8288 35.7206 37.0567 35.7722 37.2248 35.9127C37.3948 36.055 37.4816 36.313 37.3659 36.4998C37.6696 36.6545 38.0982 36.5442 38.2808 36.2614C38.4634 35.9785 38.4219 35.5818 38.2085 35.3203C37.9951 35.0588 37.4997 34.9093 37.1597 34.9449V34.9431Z" fill="#2E353A"/>
<path d="M38.4327 38.2914C38.2302 38.4942 37.9535 38.6117 37.6624 38.6152C37.2772 38.6152 37.1868 38.2541 37.3785 37.9481C37.5503 37.6741 37.9589 37.3432 38.3043 37.4873C38.6497 37.6314 38.6786 38.037 38.4309 38.2914H38.4327Z" fill="#CE7A63"/>
<path d="M39.9172 42.0077L38.9607 53.7954L31.3735 53.1799L32.0443 50.9187L32.6826 40.9314C32.7115 40.5845 33.0623 40.3532 33.3987 40.4635C34.4655 40.8087 36.8758 40.9385 39.4941 40.7073C40.2753 40.6379 39.9462 41.6501 39.9172 42.0077Z" fill="#407BFF"/>
<path opacity="0.7" d="M39.9172 42.0077L38.9607 53.7954L31.3735 53.1799L32.0443 50.9187L32.6826 40.9314C32.7115 40.5845 33.0623 40.3532 33.3987 40.4635C34.4655 40.8087 36.8758 40.9385 39.4941 40.7073C40.2753 40.6379 39.9462 41.6501 39.9172 42.0077Z" fill="white"/>
<path d="M36.6317 41.1875C36.6317 41.1875 35.8868 41.5006 35.366 41.0078L35.2087 41.1466L35.4636 41.755L35.4239 42.045C35.4239 42.045 34.2431 46.6117 33.9755 50.2035L34.3046 51.2602L35.1834 50.4952C35.1834 50.4952 35.2521 45.7293 35.9103 42.1393L35.9898 41.876L36.7764 41.3974L36.6336 41.1893L36.6317 41.1875Z" fill="#263238"/>
<path d="M35.1544 41.3637L34.8524 40.8336L35.5142 40.4351L36.1073 40.8211L37.2772 40.5827L37.5702 41.0613L36.686 41.5772L36.4401 41.0951L35.9735 41.2L35.6589 41.0061L35.1544 41.3637Z" fill="#407BFF"/>
<path opacity="0.4" d="M35.1544 41.3637L34.8524 40.8336L35.5142 40.4351L36.1073 40.8211L37.2772 40.5827L37.5702 41.0613L36.686 41.5772L36.4401 41.0951L35.9735 41.2L35.6589 41.0061L35.1544 41.3637Z" fill="white"/>
<path d="M27.6431 33.2319V32.7213C27.3159 32.6359 27.0645 32.1574 27.0645 31.3657C27.0645 31.0651 27.1007 30.7857 27.164 30.5474H28.3339C28.3972 30.7857 28.4333 31.0651 28.4333 31.3657C28.4333 32.1574 28.182 32.6359 27.8547 32.7213V33.7994L28.4315 33.9488C28.4315 33.9488 27.9198 34.0289 27.748 34.0289C27.5762 34.0289 27.0645 33.9488 27.0645 33.9488L27.6413 33.7994V33.2301L27.6431 33.2319Z" fill="#407BFF"/>
<path opacity="0.6" d="M27.6431 33.2319V32.7213C27.3159 32.6359 27.0645 32.1574 27.0645 31.3657C27.0645 31.0651 27.1007 30.7857 27.164 30.5474H28.3339C28.3972 30.7857 28.4333 31.0651 28.4333 31.3657C28.4333 32.1574 28.182 32.6359 27.8547 32.7213V33.7994L28.4315 33.9488C28.4315 33.9488 27.9198 34.0289 27.748 34.0289C27.5762 34.0289 27.0645 33.9488 27.0645 33.9488L27.6413 33.7994V33.2301L27.6431 33.2319Z" fill="white"/>
<path opacity="0.5" d="M27.2255 31.3657C27.2255 31.202 27.2381 30.8249 27.2598 30.5474H28.2381C28.2598 30.8249 28.2724 31.202 28.2724 31.3657C28.2724 32.1627 28.0084 32.5808 27.7498 32.5808C27.4913 32.5808 27.2273 32.1645 27.2273 31.3657H27.2255Z" fill="white"/>
<path d="M27.7498 31.8015C27.8999 31.741 28.0934 31.7428 28.2471 31.757C28.1766 32.2961 27.9632 32.5807 27.7498 32.5807C27.5365 32.5807 27.3357 32.3121 27.2598 31.8033C27.4316 31.8371 27.6214 31.8531 27.7498 31.8015Z" fill="#407BFF"/>
<path opacity="0.3" d="M27.7498 31.8015C27.8999 31.741 28.0934 31.7428 28.2471 31.757C28.1766 32.2961 27.9632 32.5807 27.7498 32.5807C27.5365 32.5807 27.3357 32.3121 27.2598 31.8033C27.4316 31.8371 27.6214 31.8531 27.7498 31.8015Z" fill="black"/>
<path d="M52.8568 71.575L53.9218 76.912L52.7465 77.3496L51.0919 72.0713L52.8568 71.575Z" fill="#EEC1BB"/>
<path opacity="0.1" d="M52.2058 75.624L51.0919 72.0713L52.8568 71.575L53.5764 75.1846L52.2058 75.624Z" fill="black"/>
<path d="M53.9254 76.0687C53.9127 76.0705 53.9001 76.067 53.8928 76.0563C53.8856 76.0456 53.8856 76.0314 53.8928 76.0225C53.9055 76.0047 54.2093 75.5955 54.4281 75.5617C54.4679 75.5546 54.5094 75.5635 54.5438 75.5866C54.5854 75.6098 54.6089 75.6578 54.5999 75.704C54.58 75.7859 54.4425 75.8784 54.2961 75.9424C54.1767 75.994 54.052 76.0367 53.9236 76.067L53.9254 76.0687ZM53.9977 75.9922C54.2274 75.9229 54.5203 75.7912 54.5402 75.6916C54.5438 75.6791 54.5438 75.6596 54.5076 75.6347C54.4877 75.6186 54.4606 75.6151 54.4353 75.6204C54.4154 75.624 54.3973 75.6293 54.3793 75.6364C54.231 75.7307 54.1008 75.8499 53.9977 75.9905V75.9922Z" fill="#407BFF"/>
<path d="M53.9109 76.074C53.9001 76.074 53.891 76.0651 53.8874 76.0544C53.882 76.0402 53.7717 75.7164 53.8657 75.5296C53.8928 75.4745 53.9399 75.4335 53.9977 75.4158C54.0773 75.3891 54.1189 75.4157 54.1351 75.446C54.2183 75.5634 54.052 75.937 53.9417 76.0598C53.938 76.0633 53.9344 76.0651 53.9308 76.0651C53.9254 76.0704 53.9182 76.0722 53.9109 76.0722V76.074ZM54.0031 75.4762C53.9688 75.4905 53.9399 75.5189 53.9236 75.5527C53.882 75.6897 53.8838 75.8374 53.929 75.9726C54.0357 75.8249 54.1297 75.5492 54.0863 75.4745C54.0809 75.4691 54.0682 75.4495 54.0176 75.4673L54.0031 75.4762Z" fill="#407BFF"/>
<path d="M53.7337 75.9601L52.4608 76.5241C52.4119 76.5454 52.3866 76.597 52.3975 76.6468L52.6325 77.7676C52.6524 77.8672 52.7519 77.9313 52.8531 77.9117C52.8658 77.9099 52.8785 77.9046 52.8911 77.8993C53.3468 77.6876 53.7428 77.483 54.316 77.2304C54.9904 76.9315 54.8548 77.088 55.6541 76.7482C56.135 76.5437 55.9777 75.9708 55.7625 76.0331C54.7825 76.3284 54.5601 76.0953 54.0538 75.9281C53.9471 75.8997 53.835 75.9103 53.7356 75.9601H53.7337Z" fill="#263238"/>
<path d="M49.4844 50.7036L53.5583 74.3466L51.7863 74.7504C51.7863 74.7504 49.0975 68.4919 48.8823 64.1493L45.9874 55.5354C45.9874 55.5354 44.2352 53.9165 44.266 51.0736L49.4844 50.7036Z" fill="#263238"/>
<path opacity="0.4" d="M46.1393 54.3255L47.103 54.0872C47.103 54.0872 47.8155 58.8762 48.1193 61.8756L46.4521 56.9122C46.4521 56.9122 46.0326 56.6525 45.595 56.0761L46.1393 54.3255Z" fill="black"/>
<path d="M53.8531 74.5724L51.6941 75.1115L51.4373 74.3785L53.7934 73.7932L53.8531 74.5724Z" fill="#263238"/>
<path d="M43.1792 72.6563L40.9244 76.9117L39.8467 76.6431L41.3945 72.0337L43.1792 72.6563Z" fill="#EEC1BB"/>
<path opacity="0.1" d="M40.3621 75.1096L41.3945 72.0337L43.1792 72.6563L41.6459 75.5508L40.3621 75.1096Z" fill="black"/>
<path d="M41.4126 76.4546C41.4018 76.4493 41.3945 76.4368 41.3945 76.4244C41.3945 76.4119 41.4036 76.4013 41.4162 76.3977C41.4379 76.3924 41.9334 76.2554 42.125 76.3621C42.1612 76.3817 42.1883 76.4137 42.201 76.4528C42.2191 76.4973 42.2082 76.5471 42.1721 76.5792C42.1052 76.6325 41.937 76.6201 41.7833 76.5827C41.6567 76.5507 41.532 76.508 41.4126 76.4546ZM41.5175 76.4386C41.7417 76.524 42.0545 76.5987 42.1323 76.5329C42.1431 76.5258 42.1558 76.5098 42.1431 76.4689C42.1359 76.4439 42.1196 76.4244 42.0961 76.4137C42.0798 76.4048 42.06 76.3977 42.0419 76.3924C41.8665 76.3746 41.6893 76.3906 41.5193 76.4368L41.5175 76.4386Z" fill="#407BFF"/>
<path d="M41.3963 76.4491C41.3963 76.4491 41.3873 76.4296 41.3891 76.4189C41.3945 76.4047 41.5121 76.0827 41.7019 75.9937C41.7562 75.967 41.8213 75.9635 41.8773 75.9848C41.9569 76.0133 41.9713 76.0595 41.9659 76.0933C41.9569 76.2374 41.5916 76.4278 41.4271 76.4562C41.4235 76.4562 41.418 76.4563 41.4144 76.4545C41.4072 76.4545 41.3999 76.4545 41.3945 76.4491H41.3963ZM41.8448 76.0364C41.8086 76.0275 41.7688 76.0311 41.7345 76.0471C41.6151 76.1289 41.5247 76.2463 41.4741 76.3798C41.6513 76.3282 41.899 76.1698 41.9117 76.0844C41.9117 76.0773 41.9117 76.0542 41.861 76.0364L41.843 76.0328L41.8448 76.0364Z" fill="#407BFF"/>
<path d="M41.3294 76.2536L39.9751 75.9191C39.9245 75.9067 39.8702 75.9298 39.8467 75.976L39.3259 76.999C39.2789 77.0897 39.3151 77.2 39.4073 77.2462C39.42 77.2516 39.4308 77.2569 39.4435 77.2605C39.9335 77.3726 40.3747 77.4526 40.9823 77.6038C41.7001 77.7817 41.4958 77.8209 42.3366 78.0397C42.8429 78.1713 43.0816 77.627 42.8718 77.5451C41.9171 77.1804 41.89 76.862 41.5971 76.4208C41.532 76.3336 41.4361 76.2731 41.3276 76.2518L41.3294 76.2536Z" fill="#263238"/>
<path d="M46.915 51.1145C46.915 51.1145 48.9004 63.1459 42.2299 74.7788L40.5121 74.1722C40.5121 74.1722 42.0871 67.7411 43.1087 65.2291C43.4414 64.4108 43.5825 63.532 43.5427 62.6513C43.5427 62.6513 43.0671 56.7362 42.9623 56.0726C42.6042 53.7955 42.3746 52.5911 42.5844 51.1519L46.915 51.1145Z" fill="#263238"/>
<path d="M42.3203 75.1667L40.2264 74.4213L40.4326 73.6724L42.7163 74.4889L42.3203 75.1667Z" fill="#263238"/>
<path d="M55.6974 41.0489L56.5419 39.5421C56.5419 39.5421 56.0772 38.5529 56.2562 38.2808C56.4045 38.0548 57.0681 38.1438 57.3303 38.0655C57.587 37.989 58.106 37.5425 58.332 37.6848C58.6683 37.8947 58.5653 38.8767 58.4387 39.2485C58.3826 39.414 58.1277 39.6879 57.974 39.7751C57.8637 39.8392 57.4731 39.8747 57.4731 39.8747L56.56 41.5274L55.6974 41.0489Z" fill="#EEC1BB"/>
<path d="M56.484 39.9157H58.0011L58.2145 36.8025H56.2688L56.484 39.9157Z" fill="#407BFF"/>
<path opacity="0.2" d="M56.484 39.9157H58.0011L58.2145 36.8025H56.2688L56.484 39.9157Z" fill="black"/>
<path d="M58.2615 36.8522C58.3465 36.8522 58.4152 36.7846 58.4152 36.701C58.4152 36.6174 58.3465 36.5498 58.2615 36.5498H56.2218C56.1368 36.5498 56.0681 36.6174 56.0681 36.701C56.0681 36.7846 56.1368 36.8522 56.2218 36.8522H58.2615Z" fill="#407BFF"/>
<path d="M56.4099 38.834H58.0752L58.0517 39.1756H56.4334L56.4099 38.834Z" fill="#407BFF"/>
<path d="M58.0897 38.6098H56.3936L56.3701 38.27H58.1132L58.0897 38.6098Z" fill="#407BFF"/>
<path d="M56.4496 39.3997H58.0354L58.0119 39.7412H56.4713L56.4496 39.3997Z" fill="#407BFF"/>
<path opacity="0.4" d="M58.2615 36.8522C58.3465 36.8522 58.4152 36.7846 58.4152 36.701C58.4152 36.6174 58.3465 36.5498 58.2615 36.5498H56.2218C56.1368 36.5498 56.0681 36.6174 56.0681 36.701C56.0681 36.7846 56.1368 36.8522 56.2218 36.8522H58.2615Z" fill="black"/>
<g opacity="0.4">
<path d="M56.4099 38.834H58.0752L58.0517 39.1756H56.4334L56.4099 38.834Z" fill="black"/>
<path d="M58.0897 38.6098H56.3936L56.3701 38.27H58.1132L58.0897 38.6098Z" fill="black"/>
<path d="M56.4496 39.3997H58.0354L58.0119 39.7412H56.4713L56.4496 39.3997Z" fill="black"/>
</g>
<path d="M47.8679 40.4743C47.8679 40.4743 48.9583 40.195 49.8877 40.9493C50.8171 41.7036 53.1298 44.945 56.0067 40.0723L57.3303 40.6398C57.3303 40.6398 55.5221 44.4717 53.09 44.7493C50.8894 45.0019 48.3525 43.5022 47.8679 40.4743Z" fill="#407BFF"/>
<path opacity="0.2" d="M48.423 41.2749L49.121 41.2197C49.121 41.2197 49.4411 42.803 49.8787 43.8722C49.2241 43.3954 48.6653 42.7337 48.291 41.8957L48.423 41.2749Z" fill="black"/>
<path d="M47.8679 40.4743L42.7851 40.855C42.0907 40.9066 41.5718 41.5008 41.6242 42.1839C41.7255 43.504 41.7815 43.8153 41.8629 45.8113C41.9913 48.953 41.456 52.1161 44.1195 51.2497C44.1195 51.2497 45.2062 51.5308 47.6781 50.9527C47.6781 50.9527 50.0486 51.4668 49.9781 50.3531C49.922 49.4725 49.4555 44.4575 49.2205 41.6093C49.1644 40.9297 48.5605 40.4227 47.8679 40.4743Z" fill="#407BFF"/>
<path d="M49.0975 52.9254C48.942 52.9361 48.7829 52.9343 48.6292 52.9254C48.5876 51.5022 48.3525 45.7187 47.1483 40.5293L47.5822 40.4973C47.8426 41.5736 49.0487 46.8661 49.0957 52.9272L49.0975 52.9254Z" fill="#263238"/>
<path d="M43.1286 40.8301L43.5553 40.7981C43.7922 41.9313 44.7958 47.0442 45.0562 53.18C44.8717 53.18 44.7216 53.1728 44.5987 53.164C44.5553 51.6963 44.3148 45.9786 43.1268 40.8301H43.1286Z" fill="#263238"/>
<path d="M46.7034 40.7979C46.7034 40.7979 46.971 45.0693 47.4195 46.7131L47.0614 47.0725L46.6184 46.6686C46.6184 46.6686 46.4521 44.363 46.4177 43.1124C46.3816 41.8635 46.5371 40.9491 46.5371 40.9491L46.7052 40.7961L46.7034 40.7979Z" fill="#407BFF"/>
<path d="M44.8808 41.1483C44.8808 41.1483 45.7614 41.7638 45.9042 42.744C46.047 43.7243 46.3147 48.1824 46.5353 49.4847L46.1483 49.5896C46.1483 49.5896 45.9404 47.5722 45.8463 45.3592C45.7541 43.1461 45.8409 42.0733 44.6963 41.2888L44.8808 41.1465V41.1483Z" fill="#407BFF"/>
<g opacity="0.5">
<path d="M46.7034 40.7979C46.7034 40.7979 46.971 45.0693 47.4195 46.7131L47.0614 47.0725L46.6184 46.6686C46.6184 46.6686 46.4521 44.363 46.4177 43.1124C46.3816 41.8635 46.5371 40.9491 46.5371 40.9491L46.7052 40.7961L46.7034 40.7979Z" fill="white"/>
<path d="M44.8808 41.1483C44.8808 41.1483 45.7614 41.7638 45.9042 42.744C46.047 43.7243 46.3147 48.1824 46.5353 49.4847L46.1483 49.5896C46.1483 49.5896 45.9404 47.5722 45.8463 45.3592C45.7541 43.1461 45.8409 42.0733 44.6963 41.2888L44.8808 41.1465V41.1483Z" fill="white"/>
</g>
<path d="M45.4865 34.6516C45.4865 34.6516 46.9692 35.4077 46.2242 36.0926C45.4774 36.7775 45.4865 34.6516 45.4865 34.6516Z" fill="#2E353A"/>
<path opacity="0.3" d="M45.4865 34.6516C45.4865 34.6516 46.9692 35.4077 46.2242 36.0926C45.4774 36.7775 45.4865 34.6516 45.4865 34.6516Z" fill="white"/>
<path d="M46.5678 40.5971L46.4846 41.1326L45.8499 41.3479L44.9965 41.2144L44.2063 40.8373C44.2063 40.7946 44.2153 40.7501 44.2316 40.7074C44.5046 39.9869 44.1719 38.7399 43.9206 38.03L45.7252 39.1508C45.6619 39.7574 45.8084 40.4192 46.5678 40.5971Z" fill="#EEC1BB"/>
<path opacity="0.2" d="M44.6565 38.4888L45.7252 39.1453C45.7125 39.3001 45.7125 39.4566 45.7252 39.6114C45.3599 39.6114 44.8536 39.3801 44.6565 39.0136C44.5318 38.7895 44.5679 38.528 44.6565 38.4871V38.4888Z" fill="black"/>
<path d="M43.4306 36.879C43.7416 37.9731 43.8682 38.6277 44.5625 39.0743C45.6041 39.7485 46.8843 38.9426 46.9096 37.7827C46.9331 36.7313 46.4177 35.1249 45.2189 34.9185C44.3636 34.7673 43.5463 35.3259 43.3926 36.1674C43.3492 36.404 43.3619 36.6477 43.4324 36.879H43.4306Z" fill="#EEC1BB"/>
<path d="M45.2623 36.8255C45.2822 36.9162 45.3473 36.9785 45.4069 36.966C45.4666 36.9536 45.4992 36.8699 45.4793 36.7792C45.4594 36.6885 45.3943 36.6262 45.3346 36.6405C45.2749 36.6529 45.2424 36.7365 45.2623 36.8255Z" fill="#2E353A"/>
<path d="M46.2966 36.6048C46.3165 36.6938 46.3816 36.7578 46.4412 36.7436C46.5009 36.7312 46.5335 36.6475 46.5136 36.5586C46.4937 36.4696 46.4286 36.4056 46.3689 36.4181C46.3092 36.4305 46.2767 36.5141 46.2966 36.6048Z" fill="#2E353A"/>
<path d="M45.9205 36.7205C46.0904 36.9731 46.2948 37.2008 46.528 37.3983C46.3942 37.5815 46.1067 37.5726 46.1067 37.5726L45.9205 36.7205Z" fill="#D4827D"/>
<path d="M44.812 36.4787C44.803 36.4805 44.794 36.4805 44.7831 36.4787C44.756 36.4644 44.7451 36.4342 44.756 36.4057C44.8283 36.2456 44.973 36.13 45.1466 36.0944C45.1773 36.0909 45.2044 36.1104 45.2098 36.1407C45.2135 36.1709 45.1936 36.1976 45.1628 36.2029C45.0254 36.2332 44.9115 36.3257 44.8572 36.452C44.8482 36.468 44.8301 36.4769 44.812 36.4787Z" fill="#2E353A"/>
<path d="M46.6094 36.1085C46.5913 36.1085 46.5732 36.1032 46.5606 36.0872C46.4774 35.9769 46.3472 35.9128 46.208 35.9128C46.1772 35.9146 46.1519 35.8933 46.1483 35.863C46.1465 35.8328 46.1682 35.8079 46.1989 35.8043C46.3761 35.8008 46.5461 35.8808 46.6528 36.0214C46.6709 36.0445 46.6673 36.0765 46.6456 36.0961C46.6365 36.1032 46.6239 36.1085 46.613 36.1085H46.6094Z" fill="#2E353A"/>
<path d="M46.9078 37.7843C46.9096 37.6954 46.9078 37.5993 46.9005 37.5032C46.3906 37.5459 46.1501 37.7167 46.1501 37.7167C46.1501 37.7167 45.7614 37.7061 45.1375 37.8181C44.5137 37.9302 44.2461 37.3947 44.2461 37.3947C44.2461 37.3947 43.8899 37.1332 44.1593 37.6847C44.3509 38.0761 44.152 38.3839 44.0201 38.5315C44.1539 38.7432 44.3256 38.9211 44.5625 39.0741C45.604 39.7483 46.8842 38.9425 46.9096 37.7825L46.9078 37.7843Z" fill="#263238"/>
<path opacity="0.3" d="M46.9078 37.7843C46.9096 37.6954 46.9078 37.5993 46.9005 37.5032C46.3906 37.5459 46.1501 37.7167 46.1501 37.7167C46.1501 37.7167 45.7614 37.7061 45.1375 37.8181C44.5137 37.9302 44.2461 37.3947 44.2461 37.3947C44.2461 37.3947 43.8899 37.1332 44.1593 37.6847C44.3509 38.0761 44.152 38.3839 44.0201 38.5315C44.1539 38.7432 44.3256 38.9211 44.5625 39.0741C45.604 39.7483 46.8842 38.9425 46.9096 37.7825L46.9078 37.7843Z" fill="white"/>
<path d="M46.5316 37.8645C46.5316 37.8645 46.1682 37.8787 45.1737 38.1171C45.3382 38.3395 45.5986 38.4907 46.1013 38.3662C46.604 38.2417 46.5316 37.8645 46.5316 37.8645Z" fill="#2E353A"/>
<path d="M46.4864 37.8682C46.4702 37.9287 46.4684 38.087 46.3653 38.1315C46.0724 38.2008 45.7758 38.2489 45.4775 38.2791C45.3852 38.288 45.2876 38.1795 45.2171 38.1083C45.6348 38.0016 46.0579 37.9215 46.4864 37.8682Z" fill="white"/>
<path d="M43.9224 37.868C43.9224 37.868 44.4414 37.6794 44.1918 37.2703C43.9423 36.8611 44.3509 36.2882 44.0906 35.7154C44.0906 35.7154 46.8879 35.1497 46.5298 34.1001C46.4575 33.8884 46.1899 33.8119 46.0073 33.9453L45.5787 34.2548C45.5787 34.2548 45.8301 33.9044 45.7143 33.5646C45.6348 33.3315 45.3075 33.3066 45.1845 33.5201L44.8862 34.0396C44.8862 34.0396 45.0019 33.7834 44.9694 33.5415C44.9332 33.2782 44.5625 33.2284 44.4522 33.4703C44.2533 33.9008 43.8013 34.6694 42.946 35.1034C41.7128 35.7314 41.7435 37.3699 43.9242 37.8698L43.9224 37.868Z" fill="#2E353A"/>
<path opacity="0.3" d="M42.1341 36.4305C42.8031 35.7171 44.0906 35.7153 44.0906 35.7153C44.3491 36.2882 43.9423 36.861 44.1918 37.2702C44.4414 37.6794 43.9224 37.8679 43.9224 37.8679C42.7652 37.6029 42.2118 37.0158 42.1341 36.4305Z" fill="white"/>
<path d="M43.1069 38.03C43.3094 38.2328 43.5861 38.3502 43.8772 38.3537C44.2624 38.3537 44.2587 37.9535 44.1611 37.6866C43.9893 37.4126 43.5807 37.0817 43.2353 37.2258C42.8899 37.3699 42.861 37.7756 43.1087 38.03H43.1069Z" fill="#EEC1BB"/>
<path d="M46.6166 40.4387C46.5262 40.4138 46.4358 40.4796 46.4358 40.5721C46.4358 40.7696 46.3472 41.0649 45.8463 41.1592C45.2424 41.2748 44.5083 40.8514 44.2081 40.6557C44.1231 40.6005 44.011 40.6059 43.9314 40.6681L43.7904 40.7784L45.1863 41.9917L45.8463 41.3602L46.9566 41.7694L46.8246 40.4938L46.6166 40.4369V40.4387Z" fill="#407BFF"/>
<path opacity="0.3" d="M46.6166 40.4387C46.5262 40.4138 46.4358 40.4796 46.4358 40.5721C46.4358 40.7696 46.3472 41.0649 45.8463 41.1592C45.2424 41.2748 44.5083 40.8514 44.2081 40.6557C44.1231 40.6005 44.011 40.6059 43.9314 40.6681L43.7904 40.7784L45.1863 41.9917L45.8463 41.3602L46.9566 41.7694L46.8246 40.4938L46.6166 40.4369V40.4387Z" fill="black"/>
<path d="M47.3056 40.0703C47.3056 40.0703 47.5189 39.7519 48.3399 39.8497C48.6671 39.8889 48.9004 40.0436 49.0613 40.2162C49.2892 40.4599 49.1915 40.8531 48.8841 40.9865L48.7377 41.0506C48.5966 41.111 48.4393 41.1199 48.2928 41.0755L47.7251 40.9011C47.7251 40.9011 46.8933 40.7303 47.3074 40.0703H47.3056Z" fill="#CE7A63"/>
<path d="M42.7985 0H42.0481V6.36528H42.7985V0Z" fill="#407BFF"/>
<path opacity="0.5" d="M42.7985 0H42.0481V6.36528H42.7985V0Z" fill="white"/>
<path d="M42.4224 18.8431C46.0615 18.8431 49.0115 15.9407 49.0115 12.3604C49.0115 8.78009 46.0615 5.87769 42.4224 5.87769C38.7834 5.87769 35.8333 8.78009 35.8333 12.3604C35.8333 15.9407 38.7834 18.8431 42.4224 18.8431Z" fill="#407BFF"/>
<path opacity="0.6" d="M42.4224 18.8431C46.0615 18.8431 49.0115 15.9407 49.0115 12.3604C49.0115 8.78009 46.0615 5.87769 42.4224 5.87769C38.7834 5.87769 35.8333 8.78009 35.8333 12.3604C35.8333 15.9407 38.7834 18.8431 42.4224 18.8431Z" fill="white"/>
<path opacity="0.1" d="M42.4224 5.87953C42.2796 5.87953 42.1385 5.88487 41.9975 5.89377C45.0226 6.10903 47.4167 8.92163 47.4167 12.3604C47.4167 15.7993 45.0226 18.6119 41.9975 18.8271C42.1385 18.836 42.2796 18.8414 42.4224 18.8414C46.0605 18.8414 49.0115 15.9398 49.0115 12.3587C49.0115 8.77753 46.0623 5.87598 42.4224 5.87598V5.87953Z" fill="black"/>
<g opacity="0.2">
<path d="M39.4768 7.51099H38.9489C38.6073 7.51099 38.3304 7.78338 38.3304 8.11941V8.30264C38.3304 8.63866 38.6073 8.91106 38.9489 8.91106H39.4768C39.8184 8.91106 40.0953 8.63866 40.0953 8.30264V8.11941C40.0953 7.78338 39.8184 7.51099 39.4768 7.51099Z" fill="white"/>
<path d="M40.9415 7.51099H41.4677C41.8094 7.51099 42.0861 7.78317 42.0861 8.11941V8.30264C42.0861 8.63888 41.8094 8.91106 41.4677 8.91106H40.9415C40.5997 8.91106 40.3231 8.63888 40.3231 8.30264V8.11941C40.3231 7.78317 40.5997 7.51099 40.9415 7.51099Z" fill="white"/>
<path d="M44.2795 9.14233H44.8057C45.1474 9.14233 45.4241 9.41452 45.4241 9.75075V9.93399C45.4241 10.2702 45.1474 10.5424 44.8057 10.5424H44.2795C43.9377 10.5424 43.6611 10.2702 43.6611 9.93399V9.75075C43.6611 9.41452 43.9377 9.14233 44.2795 9.14233Z" fill="white"/>
<path d="M46.2721 9.14233H46.7983C47.14 9.14233 47.4167 9.41452 47.4167 9.75075V9.93399C47.4167 10.2702 47.14 10.5424 46.7983 10.5424H46.2721C45.9303 10.5424 45.6537 10.2702 45.6537 9.93399V9.75075C45.6537 9.41452 45.9303 9.14233 46.2721 9.14233Z" fill="white"/>
<path d="M36.958 10.7737H37.4842C37.826 10.7737 38.1026 11.0459 38.1026 11.3821V11.5653C38.1026 11.9016 37.826 12.1738 37.4842 12.1738H36.958C36.6163 12.1738 36.3396 11.9016 36.3396 11.5653V11.3821C36.3396 11.0459 36.6163 10.7737 36.958 10.7737Z" fill="white"/>
<path d="M42.9341 10.7737H43.4603C43.8021 10.7737 44.0787 11.0459 44.0787 11.3821V11.5653C44.0787 11.9016 43.8021 12.1738 43.4603 12.1738H42.9341C42.5924 12.1738 42.3157 11.9016 42.3157 11.5653V11.3821C42.3157 11.0459 42.5924 10.7737 42.9341 10.7737Z" fill="white"/>
<path d="M38.8313 12.405H38.3033C37.9618 12.405 37.6849 12.6774 37.6849 13.0134V13.1967C37.6849 13.5327 37.9618 13.8051 38.3033 13.8051H38.8313C39.1729 13.8051 39.4497 13.5327 39.4497 13.1967V13.0134C39.4497 12.6774 39.1729 12.405 38.8313 12.405Z" fill="white"/>
<path d="M42.8148 12.405H42.2868C41.9453 12.405 41.6684 12.6774 41.6684 13.0134V13.1967C41.6684 13.5327 41.9453 13.8051 42.2868 13.8051H42.8148C43.1564 13.8051 43.4332 13.5327 43.4332 13.1967V13.0134C43.4332 12.6774 43.1564 12.405 42.8148 12.405Z" fill="white"/>
<path d="M38.9453 15.6677H38.4173C38.0757 15.6677 37.7989 15.9401 37.7989 16.2761V16.4594C37.7989 16.7954 38.0757 17.0678 38.4173 17.0678H38.9453C39.2868 17.0678 39.5637 16.7954 39.5637 16.4594V16.2761C39.5637 15.9401 39.2868 15.6677 38.9453 15.6677Z" fill="white"/>
</g>
<g opacity="0.8">
<path d="M42.9341 7.51099H43.4603C43.8021 7.51099 44.0787 7.78317 44.0787 8.11941V8.30264C44.0787 8.63888 43.8021 8.91106 43.4603 8.91106H42.9341C42.5924 8.91106 42.3157 8.63888 42.3157 8.30264V8.11941C42.3157 7.78317 42.5924 7.51099 42.9341 7.51099Z" fill="white"/>
<path d="M40.824 9.14233H40.296C39.9545 9.14233 39.6776 9.41473 39.6776 9.75075V9.93399C39.6776 10.27 39.9545 10.5424 40.296 10.5424H40.824C41.1655 10.5424 41.4424 10.27 41.4424 9.93399V9.75075C41.4424 9.41473 41.1655 9.14233 40.824 9.14233Z" fill="white"/>
<path d="M38.9489 10.7737H39.475C39.8168 10.7737 40.0934 11.0459 40.0934 11.3821V11.5653C40.0934 11.9016 39.8168 12.1738 39.475 12.1738H38.9489C38.6071 12.1738 38.3304 11.9016 38.3304 11.5653V11.3821C38.3304 11.0459 38.6071 10.7737 38.9489 10.7737Z" fill="white"/>
<path d="M40.9415 10.7737H41.4677C41.8094 10.7737 42.0861 11.0459 42.0861 11.3821V11.5653C42.0861 11.9016 41.8094 12.1738 41.4677 12.1738H40.9415C40.5997 12.1738 40.3231 11.9016 40.3231 11.5653V11.3821C40.3231 11.0459 40.5997 10.7737 40.9415 10.7737Z" fill="white"/>
<path d="M44.925 10.7737H45.4512C45.7929 10.7737 46.0696 11.0459 46.0696 11.3821V11.5653C46.0696 11.9016 45.7929 12.1738 45.4512 12.1738H44.925C44.5832 12.1738 44.3066 11.9016 44.3066 11.5653V11.3821C44.3066 11.0459 44.5832 10.7737 44.925 10.7737Z" fill="white"/>
<path d="M46.9176 10.7737H47.4438C47.7856 10.7737 48.0622 11.0459 48.0622 11.3821V11.5653C48.0622 11.9016 47.7856 12.1738 47.4438 12.1738H46.9176C46.5759 12.1738 46.2992 11.9016 46.2992 11.5653V11.3821C46.2992 11.0459 46.5759 10.7737 46.9176 10.7737Z" fill="white"/>
<path d="M38.9489 14.0364H39.475C39.8168 14.0364 40.0934 14.3086 40.0934 14.6448V14.828C40.0934 15.1643 39.8168 15.4365 39.475 15.4365H38.9489C38.6071 15.4365 38.3304 15.1643 38.3304 14.828V14.6448C38.3304 14.3086 38.6071 14.0364 38.9489 14.0364Z" fill="white"/>
<path d="M40.9415 14.0364H41.4677C41.8094 14.0364 42.0861 14.3086 42.0861 14.6448V14.828C42.0861 15.1643 41.8094 15.4365 41.4677 15.4365H40.9415C40.5997 15.4365 40.3231 15.1643 40.3231 14.828V14.6448C40.3231 14.3086 40.5997 14.0364 40.9415 14.0364Z" fill="white"/>
<path d="M46.9176 14.0364H47.4438C47.7856 14.0364 48.0622 14.3086 48.0622 14.6448V14.828C48.0622 15.1643 47.7856 15.4365 47.4438 15.4365H46.9176C46.5759 15.4365 46.2992 15.1643 46.2992 14.828V14.6448C46.2992 14.3086 46.5759 14.0364 46.9176 14.0364Z" fill="white"/>
<path d="M42.9287 15.6677H42.4007C42.0592 15.6677 41.7823 15.9401 41.7823 16.2761V16.4594C41.7823 16.7954 42.0592 17.0678 42.4007 17.0678H42.9287C43.2703 17.0678 43.5471 16.7954 43.5471 16.4594V16.2761C43.5471 15.9401 43.2703 15.6677 42.9287 15.6677Z" fill="white"/>
<path d="M44.9214 15.6677H44.3934C44.0518 15.6677 43.775 15.9401 43.775 16.2761V16.4594C43.775 16.7954 44.0518 17.0678 44.3934 17.0678H44.9214C45.2629 17.0678 45.5398 16.7954 45.5398 16.4594V16.2761C45.5398 15.9401 45.2629 15.6677 44.9214 15.6677Z" fill="white"/>
</g>
<g opacity="0.5">
<path d="M44.925 7.51099H45.4512C45.7929 7.51099 46.0696 7.78317 46.0696 8.11941V8.30264C46.0696 8.63888 45.7929 8.91106 45.4512 8.91106H44.925C44.5832 8.91106 44.3066 8.63888 44.3066 8.30264V8.11941C44.3066 7.78317 44.5832 7.51099 44.925 7.51099Z" fill="white"/>
<path d="M38.3033 9.14233H38.8295C39.1713 9.14233 39.4479 9.41452 39.4479 9.75075V9.93399C39.4479 10.2702 39.1713 10.5424 38.8295 10.5424H38.3033C37.9616 10.5424 37.6849 10.2702 37.6849 9.93399V9.75075C37.6849 9.41452 37.9616 9.14233 38.3033 9.14233Z" fill="white"/>
<path d="M42.2886 9.14233H42.8148C43.1566 9.14233 43.4332 9.41452 43.4332 9.75075V9.93399C43.4332 10.2702 43.1566 10.5424 42.8148 10.5424H42.2886C41.9469 10.5424 41.6702 10.2702 41.6702 9.93399V9.75075C41.6702 9.41452 41.9469 9.14233 42.2886 9.14233Z" fill="white"/>
<path d="M40.296 12.405H40.8222C41.1639 12.405 41.4406 12.6772 41.4406 13.0134V13.1967C41.4406 13.5329 41.1639 13.8051 40.8222 13.8051H40.296C39.9542 13.8051 39.6776 13.5329 39.6776 13.1967V13.0134C39.6776 12.6772 39.9542 12.405 40.296 12.405Z" fill="white"/>
<path d="M44.2795 12.405H44.8057C45.1474 12.405 45.4241 12.6772 45.4241 13.0134V13.1967C45.4241 13.5329 45.1474 13.8051 44.8057 13.8051H44.2795C43.9377 13.8051 43.6611 13.5329 43.6611 13.1967V13.0134C43.6611 12.6772 43.9377 12.405 44.2795 12.405Z" fill="white"/>
<path d="M46.2721 12.405H46.7983C47.14 12.405 47.4167 12.6772 47.4167 13.0134V13.1967C47.4167 13.5329 47.14 13.8051 46.7983 13.8051H46.2721C45.9303 13.8051 45.6537 13.5329 45.6537 13.1967V13.0134C45.6537 12.6772 45.9303 12.405 46.2721 12.405Z" fill="white"/>
<path d="M36.958 14.0364H37.4842C37.826 14.0364 38.1026 14.3086 38.1026 14.6448V14.828C38.1026 15.1643 37.826 15.4365 37.4842 15.4365H36.958C36.6163 15.4365 36.3396 15.1643 36.3396 14.828V14.6448C36.3396 14.3086 36.6163 14.0364 36.958 14.0364Z" fill="white"/>
<path d="M42.9341 14.0364H43.4603C43.8021 14.0364 44.0787 14.3086 44.0787 14.6448V14.828C44.0787 15.1643 43.8021 15.4365 43.4603 15.4365H42.9341C42.5924 15.4365 42.3157 15.1643 42.3157 14.828V14.6448C42.3157 14.3086 42.5924 14.0364 42.9341 14.0364Z" fill="white"/>
<path d="M44.925 14.0364H45.4512C45.7929 14.0364 46.0696 14.3086 46.0696 14.6448V14.828C46.0696 15.1643 45.7929 15.4365 45.4512 15.4365H44.925C44.5832 15.4365 44.3066 15.1643 44.3066 14.828V14.6448C44.3066 14.3086 44.5832 14.0364 44.925 14.0364Z" fill="white"/>
<path d="M40.4099 15.6677H40.9361C41.2778 15.6677 41.5545 15.9399 41.5545 16.2761V16.4594C41.5545 16.7956 41.2778 17.0678 40.9361 17.0678H40.4099C40.0681 17.0678 39.7915 16.7956 39.7915 16.4594V16.2761C39.7915 15.9399 40.0681 15.6677 40.4099 15.6677Z" fill="white"/>
<path d="M42.8202 17.2991H43.3464C43.6882 17.2991 43.9648 17.5713 43.9648 17.9075V18.0907C43.9648 18.427 43.6882 18.6991 43.3464 18.6991H42.8202C42.4785 18.6991 42.2018 18.427 42.2018 18.0907V17.9075C42.2018 17.5713 42.4785 17.2991 42.8202 17.2991Z" fill="white"/>
</g>
</svg>
