<svg width="86" height="86" viewBox="0 0 86 86" fill="none" xmlns="http://www.w3.org/2000/svg">
<mask id="mask0_1183_297" style="mask-type:alpha" maskUnits="userSpaceOnUse" x="0" y="0" width="86" height="86">
<rect width="86" height="86" rx="16" fill="#FFF2FD"/>
</mask>
<g mask="url(#mask0_1183_297)">
<rect width="86" height="86" rx="16" fill="#FFEBFB"/>
<path d="M43.2756 79.0641C65.0449 79.0641 82.6923 77.7066 82.6923 76.0321C82.6923 74.3575 65.0449 73 43.2756 73C21.5064 73 3.85898 74.3575 3.85898 76.0321C3.85898 77.7066 21.5064 79.0641 43.2756 79.0641Z" fill="#F3D9EF"/>
<path d="M12.1585 57.0347V57.848C12.1585 58.2019 14.7652 58.4887 17.9807 58.4887C21.1961 58.4887 23.8028 58.2019 23.8028 57.848V57.0347H12.1585Z" fill="#3B3F49"/>
<path d="M23.8028 57.0347C23.8028 57.3886 21.1961 57.6754 17.9807 57.6754C14.7652 57.6754 12.1585 57.3886 12.1585 57.0347C12.1585 56.6807 14.7652 56.3936 17.9807 56.3936C21.1961 56.3936 23.8028 56.6803 23.8028 57.0347Z" fill="#58595B"/>
<path d="M12.4498 76.9031C12.3088 76.9031 12.1946 76.7871 12.1946 76.6439V57.6758C12.1946 57.5326 12.3088 57.4165 12.4498 57.4165C12.5907 57.4165 12.7049 57.5326 12.7049 57.6758V76.6439C12.7049 76.7871 12.5907 76.9031 12.4498 76.9031Z" fill="#3B3F49"/>
<path d="M15.2857 75.0982C15.1447 75.0982 15.0305 74.9821 15.0305 74.8389V58.2974C15.0305 58.1542 15.1447 58.0381 15.2857 58.0381C15.4266 58.0381 15.5408 58.1542 15.5408 58.2974V74.8389C15.5408 74.9821 15.4266 75.0982 15.2857 75.0982Z" fill="#3B3F49"/>
<path d="M19.9918 75.0982C19.8509 75.0982 19.7366 74.9821 19.7366 74.8389V58.2974C19.7366 58.1542 19.8509 58.0381 19.9918 58.0381C20.1327 58.0381 20.2469 58.1542 20.2469 58.2974V74.8389C20.2469 74.9821 20.1327 75.0982 19.9918 75.0982Z" fill="#3B3F49"/>
<path d="M23.4368 76.9031C23.2959 76.9031 23.1817 76.7871 23.1817 76.6439V57.6758C23.1817 57.5326 23.2959 57.4165 23.4368 57.4165C23.5777 57.4165 23.692 57.5326 23.692 57.6758V76.6439C23.692 76.7871 23.5777 76.9031 23.4368 76.9031Z" fill="#3B3F49"/>
<path d="M37.4721 56.7859V57.5992C37.4721 57.9532 40.0788 58.2403 43.2942 58.2403C46.5097 58.2403 49.1164 57.9535 49.1164 57.5992V56.7859H37.4725H37.4721Z" fill="#3B3F49"/>
<path d="M43.2942 57.4265C46.5097 57.4265 49.1164 57.1396 49.1164 56.7857C49.1164 56.4319 46.5097 56.145 43.2942 56.145C40.0788 56.145 37.4721 56.4319 37.4721 56.7857C37.4721 57.1396 40.0788 57.4265 43.2942 57.4265Z" fill="#58595B"/>
<path d="M37.7633 76.6541C37.6224 76.6541 37.5082 76.538 37.5082 76.3948V57.4267C37.5082 57.2836 37.6224 57.1675 37.7633 57.1675C37.9042 57.1675 38.0185 57.2836 38.0185 57.4267V76.3948C38.0185 76.538 37.9042 76.6541 37.7633 76.6541Z" fill="#3B3F49"/>
<path d="M40.5992 74.8494C40.4583 74.8494 40.3441 74.7333 40.3441 74.5901V58.0486C40.3441 57.9054 40.4583 57.7893 40.5992 57.7893C40.7401 57.7893 40.8543 57.9054 40.8543 58.0486V74.5901C40.8543 74.7333 40.7401 74.8494 40.5992 74.8494Z" fill="#3B3F49"/>
<path d="M45.3053 74.8494C45.1644 74.8494 45.0502 74.7333 45.0502 74.5901V58.0486C45.0502 57.9054 45.1644 57.7893 45.3053 57.7893C45.4462 57.7893 45.5605 57.9054 45.5605 58.0486V74.5901C45.5605 74.7333 45.4462 74.8494 45.3053 74.8494Z" fill="#3B3F49"/>
<path d="M48.75 76.6541C48.6091 76.6541 48.4948 76.538 48.4948 76.3948V57.4267C48.4948 57.2836 48.6091 57.1675 48.75 57.1675C48.8909 57.1675 49.0051 57.2836 49.0051 57.4267V76.3948C49.0051 76.538 48.8909 76.6541 48.75 76.6541Z" fill="#3B3F49"/>
<path d="M55.321 57.0095V57.8232C55.321 58.1772 57.9277 58.4639 61.1431 58.4639C64.3586 58.4639 66.9652 58.1772 66.9652 57.8232V57.0095H55.321Z" fill="#3B3F49"/>
<path d="M61.1431 57.6503C64.3586 57.6503 66.9652 57.3635 66.9652 57.0096C66.9652 56.6558 64.3586 56.3689 61.1431 56.3689C57.9276 56.3689 55.321 56.6558 55.321 57.0096C55.321 57.3635 57.9276 57.6503 61.1431 57.6503Z" fill="#58595B"/>
<path d="M55.6122 76.8781C55.4713 76.8781 55.3571 76.7621 55.3571 76.6189V57.6504C55.3571 57.5072 55.4713 57.3911 55.6122 57.3911C55.7531 57.3911 55.8674 57.5072 55.8674 57.6504V76.6189C55.8674 76.7621 55.7531 76.8781 55.6122 76.8781Z" fill="#3B3F49"/>
<path d="M58.4481 75.0732C58.3072 75.0732 58.193 74.9572 58.193 74.814V58.2724C58.193 58.1293 58.3072 58.0132 58.4481 58.0132C58.589 58.0132 58.7033 58.1293 58.7033 58.2724V74.814C58.7033 74.9572 58.589 75.0732 58.4481 75.0732Z" fill="#3B3F49"/>
<path d="M63.1542 75.0732C63.0133 75.0732 62.8991 74.9572 62.8991 74.814V58.2724C62.8991 58.1293 63.0133 58.0132 63.1542 58.0132C63.2951 58.0132 63.4094 58.1293 63.4094 58.2724V74.814C63.4094 74.9572 63.2951 75.0732 63.1542 75.0732Z" fill="#3B3F49"/>
<path d="M66.5989 76.8781C66.458 76.8781 66.3438 76.7621 66.3438 76.6189V57.6504C66.3438 57.5072 66.458 57.3911 66.5989 57.3911C66.7398 57.3911 66.854 57.5072 66.854 57.6504V76.6189C66.854 76.7621 66.7398 76.8781 66.5989 76.8781Z" fill="#3B3F49"/>
<path d="M27.8017 67.1034C27.8017 67.1034 28.9876 69.1168 30.2115 76.1781C30.375 77.1224 29.5235 76.7123 29.5235 76.7123C29.5235 76.7123 25.6196 68.6067 25.4134 67.6296C25.2071 66.6525 27.8017 67.1034 27.8017 67.1034Z" fill="#F3A187"/>
<path d="M30.1131 71.2409C28.9993 67.7433 28.6585 66.4661 28.6585 66.4661C28.6585 66.4661 25.1616 67.1984 25.1988 68.1969C25.2168 68.6918 25.617 70.1932 26.2318 72.4666L30.1134 71.2405L30.1131 71.2409Z" fill="#553164"/>
<path d="M25.4036 55.5134C26.145 56.7818 26.1938 57.5058 26.3858 58.3821C27.3865 62.947 28.0013 66.9001 28.0663 68.2812C28.1373 69.7925 26.0837 69.182 26.0837 69.182C26.0837 69.182 22.1081 57.5425 22.2494 56.4447C22.3907 55.3469 24.8091 54.4962 25.4036 55.513V55.5134Z" fill="#F3A187"/>
<path d="M25.5355 55.0819C26.2769 56.3503 26.8496 58.4233 27.0416 59.3C28.0422 63.8649 28.7645 66.5488 28.8295 67.9299C28.9005 69.4408 25.6204 69.6508 25.6204 69.6508C25.6204 69.6508 22.08 57.5917 22.2209 56.4939C22.3622 55.3961 24.941 54.0647 25.5355 55.0819Z" fill="#553164"/>
<path d="M22.5455 45.9036C22.618 45.8906 22.6932 45.8964 22.7691 45.9368C22.8957 46.0037 22.9314 46.2583 23.0674 46.2942C23.2993 46.3553 23.3808 46.0205 23.5631 45.9693C23.7566 45.9147 23.8419 46.0518 23.9888 46.1327C25.0598 46.7215 25.7095 44.8333 25.7361 44.0536C25.75 43.6542 25.5787 43.1521 25.6779 42.7645C25.7407 42.5202 25.8823 42.3361 25.8981 42.0402C25.9161 41.7053 25.8654 41.4453 25.7598 41.1303C25.5588 40.5319 25.8218 40.0501 25.6125 39.4586C25.4134 38.8962 25.0049 38.4719 24.5284 38.1374C23.7942 37.6224 23.0479 37.4524 22.1758 37.5739C21.5204 37.6651 20.7223 37.8503 20.3574 38.4834C20.2184 38.7251 20.1955 39.013 20.0884 39.2696C19.79 39.9852 19.25 39.8863 18.6341 39.9802C18.0697 40.0661 18.4421 40.7049 18.0457 40.9539C17.7346 41.149 17.5072 40.8573 17.3656 41.304C17.3047 41.4961 17.3378 41.7569 17.1968 41.9172C17.1104 42.0154 17.018 41.9982 16.915 42.0627C16.6704 42.2162 16.5479 42.4018 16.6125 42.6905C16.6726 42.9597 16.8338 43.1559 16.8369 43.4476C16.841 43.8383 16.7508 44.1479 17.0743 44.4492C17.2908 44.6508 17.4418 44.5611 17.6992 44.6145C18.1937 44.7176 17.8676 45.2877 18.1874 45.5814C18.55 45.9147 19.0415 45.4607 19.2808 45.6413C19.4623 45.7784 19.3635 45.9471 19.6536 45.9659C19.9328 45.9838 20.0632 45.7749 20.2898 45.702C20.5122 45.6298 20.7933 45.731 20.991 45.8349C21.2108 45.9506 21.4178 46.1659 21.6546 46.2377C21.9649 46.3313 22.0408 46.1575 22.2877 46.0132C22.3681 45.9662 22.4546 45.92 22.5451 45.9036H22.5455Z" fill="#C14B3D"/>
<path d="M27.7506 39.4004C27.5316 39.7605 27.5346 39.8387 27.3208 40.258C26.4561 41.9537 26.3704 42.0244 25.8714 43.2997C25.1913 45.0371 24.4747 47.0196 25.3442 47.7244C25.7001 48.0131 27.5797 44.703 28.0704 42.5891C28.1749 42.1397 28.2899 41.9419 29.1395 39.9308C29.1395 39.9308 28.2643 39.4271 27.7506 39.4004Z" fill="#F3A187"/>
<path d="M28.1196 43.4516C28.1046 43.4448 28.0896 43.4387 28.0749 43.4329C27.3613 43.1519 26.6335 42.725 26.0834 42.1809C26.0033 42.1018 25.1932 43.5353 25.1312 43.6464C24.852 44.1435 24.3278 44.6613 24.2312 45.2329C24.0756 46.1512 24.6904 47.2291 25.0658 48.0192C25.2649 48.4384 25.3284 48.6091 25.6888 48.2418C26.051 47.8725 26.2682 47.3887 26.5482 46.9588C26.9315 46.3704 27.2441 45.7434 27.4876 45.0828C27.5932 44.7961 27.6819 44.5364 27.8371 44.2772C27.9288 44.1233 28.3263 43.7304 28.229 43.5406C28.2068 43.4978 28.1651 43.4719 28.1204 43.4516H28.1196Z" fill="#E5A369"/>
<path d="M29.1421 39.841C29.1763 40.1197 28.4766 40.5646 28.0888 40.4282C27.7642 40.3137 27.7285 40.1445 27.7289 40.1449C27.0333 38.3629 26.8281 36.7263 26.5283 35.3342C26.2337 33.9653 26.983 34.7408 26.983 34.7408C27.7356 36.1051 28.4593 37.4117 29.1421 39.841Z" fill="#F3A187"/>
<path d="M26.5316 35.3608L26.4163 35.0515C26.2506 35.0584 26.027 34.7117 25.8297 34.5017C25.6249 34.284 25.5434 34.2069 25.3314 33.969C25.2067 33.8289 25.248 33.7559 25.313 33.7479C25.3472 33.7437 25.4107 33.7846 25.4107 33.7846C25.7005 34.0496 25.8722 34.239 25.956 34.1336C26.0018 34.0759 25.918 33.9259 25.918 33.9259C25.918 33.9259 25.7598 33.5761 25.5678 33.0912C25.4724 32.8498 25.5066 32.7632 25.5656 32.7372C25.6249 32.7109 25.723 32.8949 25.7895 33.0686C25.856 33.2424 25.9409 33.4211 26.0462 33.654C26.1799 33.9507 26.1499 33.7342 26.1499 33.7342L25.853 32.8621C25.8094 32.6849 25.8124 32.5814 25.8891 32.5635C26.0014 32.5371 26.0623 32.7872 26.0623 32.7872C26.0623 32.7872 26.219 33.1889 26.3122 33.4612C26.44 33.8338 26.4708 33.6456 26.4708 33.6456L26.2292 32.9972C26.1461 32.7895 26.2153 32.7464 26.2408 32.7341C26.3479 32.6834 26.4129 32.9209 26.4129 32.9209C26.4129 32.9209 26.5621 33.3481 26.6463 33.544C26.7304 33.7399 26.6985 33.5788 26.6985 33.5788C26.6985 33.5788 26.6898 33.51 26.5696 33.1572C26.5245 33.0247 26.5174 32.9545 26.5433 32.9342C26.6553 32.8449 26.7485 33.0942 26.7485 33.0942C26.7485 33.0942 26.7766 33.1691 26.9307 33.583C26.966 33.6777 27.0419 34.0477 27.0419 34.0477C27.0419 34.0477 27.2031 34.7212 27.0728 34.8228L27.3358 35.5193" fill="#F3A187"/>
<path d="M25.1161 51.2974C25.0624 52.1057 24.9643 52.9866 25.0568 53.7938C25.1225 54.3681 25.2672 54.9432 25.4036 55.5133L20.0816 55.4942C20.3518 54.9329 20.5445 54.2979 20.5844 53.7068C20.5979 53.5048 20.6043 53.3662 20.6081 53.1615C20.6283 52.0626 20.5476 51.0546 20.4529 49.9633C20.3623 48.9205 19.9922 47.7513 20.3089 46.7276C20.4314 46.3293 20.2954 45.0013 20.398 44.9734C20.7952 44.8657 21.8721 44.7199 22.0258 44.7237C22.3411 44.7321 22.5414 44.8509 22.8559 44.8375V44.8776C23.4169 44.8176 23.9479 44.9036 24.3668 44.9948C24.3668 44.9948 24.6938 46.605 25.0098 47.1908C25.4848 48.0716 25.7241 49.0766 25.3559 50.0309C25.2537 50.2955 25.1391 50.9564 25.1161 51.297V51.2974Z" fill="#F3A187"/>
<path d="M20.543 54.3235H25.1379C25.2273 54.7015 26.5121 57.2686 26.5925 57.6424C26.6504 57.9108 25.7647 57.7127 25.6708 57.9899C25.6708 57.9899 23.0889 57.8788 22.3651 57.8268C21.8751 57.862 21.3851 57.8975 20.8951 57.9326C20.5231 57.9593 19.1072 58.0846 19.2282 57.5584C19.4627 56.5374 20.1943 54.6416 20.543 54.3239V54.3235Z" fill="#553164"/>
<path d="M19.9403 66.3159C19.9403 66.3159 18.6033 68.2289 16.8406 75.1719C16.605 76.1005 17.4854 75.7591 17.4854 75.7591C17.4854 75.7591 21.1608 69.4519 21.4415 68.4939C21.7222 67.5363 19.9399 66.3159 19.9399 66.3159H19.9403Z" fill="#F3A187"/>
<path d="M16.7203 69.7154C18.6578 66.6111 19.3015 65.4602 19.3015 65.4602C19.3015 65.4602 22.5075 67.0563 22.2268 68.0139C22.0878 68.4885 21.3317 69.841 20.1781 71.8865L16.7203 69.7154Z" fill="#553164"/>
<path d="M17.0668 74.7106C17.0578 74.7755 17.0206 74.8328 17.0059 74.8977C16.9917 74.9622 16.9939 75.0317 16.9988 75.0974C17.0071 75.2146 17.0431 75.2975 17.1634 75.3112C17.393 75.3364 17.5692 75.1001 17.8003 75.0909C17.9506 75.0844 17.91 75.3021 17.8856 75.3998C17.8507 75.5422 17.8582 75.6839 17.8435 75.8298C17.8338 75.9268 17.8334 75.9699 17.8477 76.0627C17.8548 76.1093 17.8642 76.1551 17.8736 76.2009C17.8762 76.2143 17.8785 76.2276 17.8811 76.241C17.9206 76.4186 17.9743 76.5908 18.0333 76.7595C18.0359 76.7668 18.0397 76.7767 18.0449 76.7874C18.0468 76.7916 18.0491 76.7962 18.0509 76.8008C18.0543 76.8084 18.0581 76.8161 18.0626 76.8252C18.066 76.8317 18.0694 76.8386 18.0727 76.8458C18.0769 76.8539 18.081 76.8619 18.0855 76.8707C18.09 76.8791 18.0942 76.8875 18.099 76.8966C18.2287 77.1547 18.5315 77.6217 18.5789 77.7118C18.5932 77.7428 18.6082 77.7756 18.6007 77.8081C18.5778 77.9077 18.3444 77.7764 18.2475 77.7202C17.7601 77.4472 17.1946 76.8959 16.8804 76.4518C16.7594 76.3189 16.1871 75.3032 16.3367 75.1596C16.4716 75.0268 16.5798 74.8649 16.7125 74.7331C16.8026 74.6434 17.1078 74.3983 17.0668 74.7102V74.7106Z" fill="#05263B"/>
<path d="M20.0636 55.9372C18.9539 57.4783 19.0167 58.8097 18.9494 59.7051C18.5996 64.3681 18.3854 68.3083 18.5147 69.6848C18.6563 71.1908 22.2265 68.0139 22.2265 68.0139C22.2265 68.0139 23.8103 57.9269 23.5165 56.8605C23.223 55.7944 20.7505 54.9822 20.0632 55.9372H20.0636Z" fill="#553164"/>
<path d="M21.0669 41.61C21.2161 41.9185 21.7339 42.2579 21.7512 41.9612C21.7617 41.7799 21.7053 41.3984 21.5561 41.0899C21.407 40.7814 21.44 40.7302 21.2112 40.8444C20.9823 40.9585 20.9177 41.3014 21.0669 41.6096V41.61Z" fill="#F3A187"/>
<path d="M22.1077 42.4039C21.921 41.8128 23.8874 42.5559 23.8874 42.5559L23.7949 44.9916C23.7949 44.9916 23.0708 46.1092 22.0995 44.8377C22.0142 44.7262 22.1776 42.6242 22.1081 42.4035L22.1077 42.4039Z" fill="#F3A187"/>
<path d="M22.2355 42.3699C22.1396 42.4756 22.0931 43.2508 22.1055 43.9029C22.7548 43.8743 23.4308 44.0687 23.8081 44.6426L23.8873 42.5562C23.8873 42.5562 22.6266 41.9392 22.2355 42.3702V42.3699Z" fill="#D9907A"/>
<path d="M24.0835 43.8292C23.6709 43.9942 22.9119 43.6307 22.1543 43.0583C21.6865 42.7047 21.688 41.9521 21.5238 41.4107C21.4182 41.0632 21.4396 40.6799 21.4385 40.3202C21.4374 39.9131 21.4986 39.4813 21.632 39.0968C21.6899 38.9295 21.7947 38.786 21.8992 38.6458C21.9691 38.5523 22.042 38.4549 22.1498 38.4053C22.2456 38.3614 22.3569 38.3541 22.4583 38.3323C22.6462 38.2922 22.833 38.2518 23.0231 38.2239C23.4203 38.1655 23.8456 38.2395 24.2225 38.3846C24.5506 38.511 24.7967 38.6351 24.9271 38.986C25.0635 39.3534 25.0338 39.7417 25.0785 40.1296C25.1574 40.8131 25.2863 41.4611 25.1496 42.1496C25.1003 42.3974 24.6562 43.5998 24.0828 43.8289L24.0835 43.8292Z" fill="#F3A187"/>
<path d="M24.4668 42.6333C24.4668 42.6333 24.3202 43.1113 23.9742 43.1216C23.6281 43.1319 23.2377 42.9487 23.1614 42.4492C23.1614 42.4492 23.4402 42.5523 23.8197 42.5993C24.1992 42.6459 24.4668 42.6333 24.4668 42.6333Z" fill="#430000"/>
<path d="M24.0854 43.1006C24.0508 43.1125 24.014 43.1205 23.9742 43.1216C23.7836 43.1274 23.5796 43.0735 23.4218 42.9414C23.6446 42.854 23.884 42.9586 24.085 43.1006H24.0854Z" fill="#F0696E"/>
<path d="M23.264 42.7516C23.2155 42.6672 23.1794 42.5672 23.1614 42.4492C23.1614 42.4492 23.4402 42.5523 23.8197 42.5993C24.1992 42.6459 24.4668 42.6333 24.4668 42.6333C24.4668 42.6333 24.4533 42.7341 24.3548 42.8666C23.9445 42.9555 23.6093 42.8479 23.2643 42.7516H23.264Z" fill="#DDE8F1"/>
<path d="M23.2061 41.1828C23.2091 41.2554 23.2534 41.3119 23.3053 41.31C23.3572 41.3077 23.397 41.2473 23.394 41.1752C23.391 41.103 23.3466 41.0461 23.2948 41.0484C23.2429 41.0507 23.2031 41.111 23.2061 41.1832V41.1828Z" fill="#1A1C37"/>
<path d="M24.4454 41.1759C24.4484 41.248 24.4927 41.3049 24.5446 41.3026C24.5964 41.3004 24.6363 41.24 24.6333 41.1679C24.6303 41.0957 24.5859 41.0388 24.5341 41.0411C24.4822 41.043 24.4424 41.1037 24.4454 41.1759Z" fill="#1A1C37"/>
<path d="M19.6701 47.1562C19.7174 46.556 19.7513 45.8171 19.9504 45.3066C20.1244 44.8606 20.7542 44.8083 21.1889 44.7453C21.3017 44.7293 21.9983 44.6224 22.0487 44.7484C22.146 45.0951 22.2107 45.2142 22.6484 45.2845C23.1084 45.3582 23.642 45.3475 23.8306 44.8354C23.8313 44.8339 23.8313 44.8324 23.8317 44.8309C23.867 44.7197 24.649 45.0012 24.7381 45.0886C25.0537 45.3983 25.1743 46.21 25.301 46.6282C25.6061 47.6343 25.83 48.6828 25.8695 49.7378C25.9067 50.7352 25.6756 51.77 25.4813 52.7456C25.3934 53.1862 25.3231 53.4367 24.9109 53.5509C24.4356 53.6822 23.8911 53.7162 23.4015 53.7635C22.5654 53.8441 21.7161 53.8376 20.903 53.6039C20.1454 53.3859 19.9767 52.8277 19.7776 52.0785C19.3755 50.5679 19.4916 48.9551 19.6468 47.417C19.6551 47.3342 19.6626 47.2467 19.6697 47.1559L19.6701 47.1562Z" fill="#E8B56F"/>
<path d="M21.0293 40.8427C21.3487 40.6629 21.3596 41.1471 21.5072 41.2593C21.7188 41.4205 21.75 41.1478 21.8022 41.01C21.877 40.8122 22.0619 40.582 22.2321 40.4621C22.3204 40.3994 22.4204 40.3483 22.5098 40.2807C22.6793 40.1531 22.8863 40.0229 23.0197 39.8557C23.2425 39.5766 23.2144 39.349 23.1321 39.0111C23.0321 38.5998 22.7518 38.2741 22.3956 38.0756C22.0784 37.8992 21.6914 38.1703 21.5133 38.4349C21.4216 38.5708 21.2525 38.7736 21.2145 38.9317" fill="#C14B3D"/>
<path d="M25.3746 41.0013C24.9181 40.4888 24.3582 39.9936 23.7652 39.6511C23.5905 39.5499 23.3928 39.4999 23.2501 39.346C23.1016 39.1864 23.0036 38.9695 22.8976 38.7797C22.807 38.6175 22.6928 38.4678 22.6124 38.2998C22.5128 38.0928 22.479 37.879 22.4906 37.6491C22.5072 37.312 23.0317 37.4441 23.2471 37.4735C24.2519 37.6113 25.1575 38.3024 25.5516 39.254C25.6602 39.5163 25.6786 39.8054 25.7346 40.0906C25.8383 40.6187 25.8331 41.1219 25.7489 41.6489C25.773 41.4977 25.593 41.2453 25.3754 41.0013H25.3746Z" fill="#C14B3D"/>
<path d="M23.8926 41.0232L24.0895 41.9434L23.8528 42.1809L24.2199 41.9644L23.8926 41.0232Z" fill="#D18B76"/>
<path d="M23.4237 40.5121C23.4237 40.5121 23.3857 40.5163 23.329 40.5224C23.3016 40.5247 23.2674 40.5293 23.2275 40.5389C23.1892 40.5473 23.1482 40.556 23.1073 40.5648C23.069 40.577 23.0302 40.5896 22.9942 40.6011C22.9581 40.6114 22.925 40.6255 22.8969 40.6389C22.8409 40.6641 22.8033 40.6809 22.8033 40.6809C22.7612 40.7 22.742 40.7504 22.7608 40.7932C22.7785 40.834 22.824 40.8535 22.8645 40.8394L22.8766 40.8352C22.8766 40.8352 22.91 40.8233 22.96 40.8062C22.9844 40.797 23.0133 40.7867 23.0472 40.7802C23.0798 40.7725 23.1148 40.7641 23.1497 40.7561C23.1839 40.7515 23.2178 40.747 23.2497 40.7428C23.2798 40.737 23.3121 40.7351 23.3418 40.7355C23.3989 40.734 23.4368 40.7328 23.4368 40.7328H23.438C23.4981 40.7313 23.5454 40.6805 23.5439 40.6194C23.5424 40.5583 23.4924 40.5102 23.4323 40.5118C23.4293 40.5118 23.4263 40.5118 23.4237 40.5121Z" fill="#C14B3D"/>
<path d="M24.333 40.6848C24.333 40.6848 24.371 40.6859 24.4281 40.6878C24.4578 40.6878 24.4897 40.6901 24.5202 40.6959C24.5521 40.7004 24.5859 40.7054 24.6201 40.7104C24.6551 40.7188 24.69 40.7272 24.7227 40.7352C24.7561 40.7417 24.7855 40.752 24.8099 40.7615C24.8599 40.7795 24.8929 40.7913 24.8929 40.7913L24.9046 40.7955C24.9482 40.8112 24.9963 40.7879 25.0117 40.7436C25.0263 40.7016 25.0064 40.6558 24.9673 40.6374C24.9673 40.6374 24.9301 40.6203 24.8741 40.5947C24.846 40.5813 24.8133 40.5668 24.7772 40.5565C24.7411 40.5447 24.7028 40.5321 24.6645 40.5195C24.6235 40.5103 24.5825 40.5011 24.5442 40.4923C24.5048 40.4824 24.4706 40.4778 24.4428 40.4752C24.386 40.4687 24.3481 40.4641 24.3481 40.4641C24.2883 40.4572 24.2346 40.5007 24.2278 40.5615C24.2211 40.6222 24.2639 40.6768 24.3236 40.6836C24.3266 40.6836 24.3293 40.684 24.3323 40.684H24.3338L24.333 40.6848Z" fill="#C14B3D"/>
<path d="M21.3265 43.3026C21.145 43.3026 21.0623 43.2037 21.0248 43.1205C20.888 42.8169 21.1307 42.1712 21.4306 41.8188L21.4979 41.7397L21.5377 41.836C21.5527 41.8719 21.9014 42.7226 21.6891 43.1082C21.6313 43.2133 21.5396 43.2763 21.4163 43.2953C21.384 43.3003 21.3539 43.3026 21.3261 43.3026H21.3265ZM21.4603 41.9895C21.2228 42.3175 21.0383 42.8383 21.1409 43.0666C21.1815 43.1564 21.2634 43.1888 21.3972 43.1671C21.4806 43.1541 21.5396 43.1144 21.5779 43.0449C21.7105 42.8043 21.5629 42.2716 21.4603 41.9895Z" fill="#FDBC5F"/>
<path d="M47.9011 41.0207C48.4148 41.6228 49.1754 41.7691 49.9025 42.1544C50.2128 42.3189 50.8813 42.6446 51.0861 42.9241C51.4465 43.4152 51.0876 44.2224 51.0211 44.731C50.9261 45.4557 51.2872 45.7154 51.5667 46.3034C51.8643 46.9304 51.262 47.3722 50.7442 47.6169C50.3466 47.8048 49.9449 47.9774 49.5026 47.9682C49.0949 47.9598 48.7158 47.7448 48.3092 47.7448C47.7046 47.7448 47.0256 48.1824 46.4905 48.4455C45.8457 48.7628 45.4278 48.8861 44.8615 48.3267C44.5395 48.0087 44.2881 47.7162 43.8248 47.7005C43.404 47.6864 42.9823 47.3786 42.6795 47.0991C42.1936 46.6512 42.2868 46.0743 42.2812 45.4802C42.2778 45.1277 42.1271 44.9158 41.8246 44.7497C41.2936 44.4584 40.8671 43.9066 40.6526 43.3381C40.2926 42.3854 40.1382 41.3315 40.2761 40.3196C40.3659 39.6625 40.5752 39.0367 40.8841 38.4532C41.0017 38.231 41.0975 37.9591 41.2339 37.7529C41.3944 37.5105 41.737 37.3394 41.9982 37.242C43.6148 36.6395 45.8464 37.208 46.8182 38.74C47.1556 39.2726 47.3277 39.9382 47.584 40.5109C47.6738 40.7118 47.7809 40.8783 47.9015 41.0195L47.9011 41.0207Z" fill="#183A52"/>
<path d="M40.4177 50.0588C40.4688 50.8671 40.5635 51.7484 40.4681 52.5552C40.4004 53.1295 40.2539 53.7038 40.1152 54.2735H45.4372C45.1689 53.7114 44.9784 53.0757 44.9404 52.4842C44.9277 52.2822 44.9217 52.1436 44.9186 51.9389C44.9021 50.84 44.9867 49.8323 45.0851 48.7414C45.1791 47.699 45.5533 46.531 45.2403 45.5061C45.1189 45.1071 45.2598 43.7799 45.1573 43.7516C44.7604 43.6424 43.6839 43.4927 43.5302 43.4962C43.2149 43.5034 43.0143 43.6214 42.6997 43.6069V43.647C42.1387 43.5847 41.6074 43.6687 41.1884 43.7589C41.1884 43.7589 40.8559 45.3679 40.538 45.9529C40.06 46.8323 39.8172 47.8361 40.1821 48.7915C40.2832 49.0565 40.3959 49.7174 40.4173 50.0584L40.4177 50.0588Z" fill="#F3A187"/>
<path d="M43.2818 56.1767C40.4628 61.1417 38.1515 64.8211 37.1519 66.1155C35.5579 68.1793 34.6024 64.3495 34.6024 64.3495C34.6024 64.3495 39.2453 55.4004 40.4463 54.0823C41.1809 53.2759 43.8635 55.1522 43.2818 56.1763V56.1767Z" fill="#F3A187"/>
<path d="M45.509 53.9654C46.0365 55.3401 46.2162 56.1327 46.2646 57.0293C46.5175 61.6988 45.8404 65.8627 45.6826 67.2365C45.5097 68.7391 43.5817 67.7956 43.5817 67.7956C43.5817 67.7956 41.5322 55.6524 41.8482 54.5928C42.1639 53.5332 45.0862 52.8635 45.509 53.9654Z" fill="#F3A187"/>
<path d="M36.3245 65.3082C36.3245 65.3082 37.6107 67.2567 39.1916 74.2447C39.4028 75.1794 38.5314 74.8144 38.5314 74.8144C38.5314 74.8144 34.2217 66.9241 33.9662 65.9588C33.7103 64.9939 36.3245 65.3082 36.3245 65.3082Z" fill="#F3A187"/>
<path d="M39.6955 74.2466C39.7613 74.3142 39.8266 74.3821 39.8928 74.4501C39.9322 74.4898 39.9484 74.5532 39.9345 74.6101C39.8687 74.8484 39.7598 75.26 39.2299 75.9175C38.5866 76.6793 38.1744 76.9149 37.7915 77.0825C37.7329 77.1065 37.6378 77.105 37.5935 77.0645C37.5213 76.9981 37.4492 76.932 37.3766 76.8656C38.2601 76.1046 39.0432 75.2195 39.6955 74.2466Z" fill="#DDE8F1"/>
<path d="M38.9771 73.7777C38.9842 73.8429 39.0203 73.9014 39.033 73.9663C39.0454 74.0312 39.0417 74.1007 39.0353 74.1664C39.024 74.2836 38.9857 74.3653 38.8655 74.3756C38.6351 74.3947 38.4653 74.1538 38.2342 74.1381C38.0842 74.1274 38.1192 74.3462 38.141 74.4447C38.1722 74.5883 38.1609 74.7296 38.1718 74.8758C38.1789 74.9732 38.1782 75.0163 38.1613 75.1084C38.153 75.1549 38.1425 75.2004 38.132 75.2458C38.129 75.2592 38.1263 75.2725 38.1233 75.2855C38.0794 75.4619 38.0211 75.6326 37.9576 75.7999C37.9546 75.8071 37.9505 75.8167 37.9456 75.8277C37.9437 75.8319 37.9411 75.8365 37.9392 75.8411C37.9354 75.8484 37.9317 75.8564 37.9272 75.8648C37.9238 75.8713 37.92 75.8781 37.9163 75.8854C37.9121 75.893 37.9076 75.9014 37.9031 75.9098C37.8986 75.9182 37.8941 75.9266 37.8888 75.9354C37.7524 76.1901 37.4375 76.6487 37.3879 76.7377C37.3725 76.7682 37.3568 76.8007 37.3635 76.8331C37.3838 76.9335 37.6205 76.8087 37.719 76.7548C38.2131 76.4952 38.7929 75.9591 39.1187 75.5238C39.2431 75.3943 39.8417 74.3947 39.6963 74.2469C39.5648 74.1102 39.4607 73.9457 39.3318 73.8105C39.2442 73.7185 38.9455 73.4649 38.9782 73.778L38.9771 73.7777Z" fill="#05263B"/>
<path d="M45.5639 66.5743C45.5639 66.5743 46.1369 68.847 45.3339 75.971C45.2265 76.9236 44.5245 76.2841 44.5245 76.2841C44.5245 76.2841 43.0511 67.385 43.127 66.3884C43.2026 65.3918 45.5643 66.5743 45.5643 66.5743H45.5639Z" fill="#F3A187"/>
<path d="M46.5341 63.7704C46.3586 62.3622 46.3748 60.904 46.3864 59.5282C46.3984 58.1269 46.5273 56.784 46.1185 55.4247C45.884 54.6449 45.4406 52.8476 44.7575 52.3616C44.2487 51.9992 42.8805 52.26 42.2785 52.26H40.5094C40.423 52.26 39.422 54.0554 39.2946 54.244C38.2578 55.7767 37.5172 57.498 36.6781 59.1449C35.8225 60.8238 34.6865 62.2588 33.6468 63.8438C33.3559 64.2871 33.0238 64.7395 32.9651 65.2753C34.159 65.5868 35.5162 65.1214 36.6886 65.5918C37.4533 65.8988 37.9444 66.5078 38.5874 66.9859C39.34 67.5453 40.2051 67.5334 41.0983 67.4395C41.7449 67.3715 42.566 67.0355 43.2037 67.2471C43.6884 67.4078 43.9075 67.9275 44.3858 68.1585C45.0859 68.4968 46.3109 68.4029 47.1128 68.3639C47.9658 68.3223 47.9947 68.0547 47.6426 67.328C47.4716 66.9752 47.2465 66.622 47.1116 66.2581C46.8182 65.4673 46.6404 64.6284 46.5333 63.7708L46.5341 63.7704Z" fill="#B22872"/>
<path d="M49.2629 49.4967C49.0596 49.1271 48.9909 49.092 48.7342 48.6987C47.6956 47.1068 47.6768 46.9964 46.8223 45.9334C45.6582 44.4851 45.1483 44.1529 44.1194 44.5829C43.6982 44.7585 44.7853 46.7689 46.365 48.2317C46.7009 48.5429 46.8152 48.7411 48.1322 50.4731C48.1322 50.4731 48.9905 49.9404 49.2633 49.4971L49.2629 49.4967Z" fill="#F3A187"/>
<path d="M45.8322 47.8628C46.0858 47.7421 46.2906 47.476 46.4706 47.2873C46.8197 46.9223 47.2075 46.5924 47.6415 46.3366C47.7381 46.2797 46.5984 45.0998 46.5101 45.0089C46.1602 44.6489 45.8205 44.2556 45.5079 43.863C45.1419 43.873 44.9033 44.8902 44.8236 45.196C44.6579 45.8322 44.5418 47.7803 45.4767 47.9204C45.6056 47.9395 45.7232 47.9147 45.8318 47.8632L45.8322 47.8628Z" fill="#DDE8F1"/>
<path d="M44.6316 40.9425C44.4114 41.2033 43.8263 41.4007 43.8827 41.109C43.9169 40.9307 44.0657 40.5756 44.2859 40.3148C44.5061 40.0543 44.4869 39.9959 44.6804 40.1647C44.874 40.3335 44.8522 40.6817 44.632 40.9421L44.6316 40.9425Z" fill="#F3A187"/>
<path d="M43.4569 41.1761C43.6459 40.5858 41.6769 41.3216 41.6769 41.3216L41.7607 43.7581C41.7607 43.7581 42.4811 44.878 43.4565 43.6103C43.5422 43.4988 43.3859 41.3964 43.4565 41.1761H43.4569Z" fill="#F3A187"/>
<path d="M43.3296 41.1413C43.425 41.2474 43.469 42.0226 43.4543 42.6747C42.8054 42.6438 42.1286 42.8359 41.7491 43.4083L41.6773 41.3211C41.6773 41.3211 42.9399 40.709 43.3299 41.1413H43.3296Z" fill="#D9907A"/>
<path d="M41.1648 42.325C41.5236 42.5896 42.3477 42.4304 43.2221 42.0684C43.7621 41.845 43.9458 41.1157 44.2382 40.6334C44.4257 40.3238 44.4993 39.9473 44.5887 39.5994C44.6898 39.2054 44.7368 38.7716 44.7026 38.3657C44.6876 38.1893 44.6214 38.0232 44.5549 37.8613C44.5102 37.7532 44.4636 37.6398 44.3712 37.5646C44.2893 37.4978 44.1833 37.4623 44.0901 37.4157C43.918 37.3294 43.7474 37.2427 43.57 37.1671C43.1995 37.0098 42.7697 36.9735 42.3687 37.0182C42.02 37.0572 41.751 37.1152 41.5386 37.4218C41.3162 37.7429 41.2493 38.1263 41.1106 38.4906C40.866 39.1324 40.5819 39.727 40.5451 40.4284C40.532 40.6808 40.6661 41.9576 41.1648 42.3254V42.325Z" fill="#F3A187"/>
<path d="M41.0877 41.0701C41.0877 41.0701 41.1118 41.5703 41.4447 41.668C41.7773 41.7658 42.2004 41.6875 42.3969 41.2236C42.3969 41.2236 42.1016 41.2526 41.7228 41.2014C41.344 41.1503 41.0877 41.0705 41.0877 41.0705V41.0701Z" fill="#430000"/>
<path d="M41.3421 41.6191C41.3725 41.6394 41.4064 41.6566 41.4443 41.668C41.6277 41.7218 41.8381 41.7218 42.0234 41.6336C41.8291 41.4924 41.5717 41.5328 41.3421 41.6191Z" fill="#F0696E"/>
<path d="M42.2229 41.4901C42.2905 41.4206 42.3503 41.3332 42.3969 41.2236C42.3969 41.2236 42.1015 41.2526 41.7228 41.2014C41.344 41.1503 41.0877 41.0701 41.0877 41.0701C41.0877 41.0701 41.0757 41.1713 41.1388 41.3248C41.5142 41.5149 41.8652 41.4962 42.2229 41.4905V41.4901Z" fill="#DDE8F1"/>
<path d="M42.6652 39.9855C42.6445 40.0546 42.5878 40.0985 42.5382 40.0832C42.4886 40.068 42.4649 39.9996 42.4856 39.9301C42.5063 39.861 42.563 39.8171 42.613 39.8324C42.6626 39.8477 42.6863 39.9164 42.6656 39.9855H42.6652Z" fill="#1A1C37"/>
<path d="M41.4669 39.664C41.4462 39.7331 41.3895 39.777 41.3399 39.7617C41.2903 39.7464 41.2666 39.6781 41.2873 39.6086C41.3079 39.5395 41.3647 39.4956 41.4146 39.5108C41.4642 39.5261 41.4879 39.5945 41.4673 39.6636L41.4669 39.664Z" fill="#1A1C37"/>
<path d="M45.878 45.937C45.8329 45.3367 45.8013 44.5975 45.6041 44.0866C45.4316 43.6398 44.8022 43.5856 44.3674 43.5207C44.2547 43.5039 43.5584 43.3951 43.5077 43.5207C43.4088 43.8674 42.8414 44.1461 42.4033 44.2145C41.943 44.2863 41.9125 44.1141 41.7254 43.6013C41.7246 43.5997 41.7246 43.5982 41.7243 43.5967C41.6893 43.4856 40.9066 43.7643 40.8168 43.8514C40.1122 44.5375 40.2994 45.6788 40.0991 46.5406C39.8064 47.7984 39.5801 49.0688 39.4772 50.3582C39.4189 51.0875 39.3088 51.9146 39.4028 52.6489C39.4712 53.1831 39.6921 53.3175 40.2002 53.3011C40.7852 53.282 41.3376 53.1185 41.9456 53.1174C42.6633 53.1159 43.1402 53.3977 43.7936 53.5863C44.1979 53.7031 44.6613 53.6126 45.0524 53.4862C46.2278 53.1071 45.9028 51.7115 45.8889 50.7932C45.8645 49.1734 46.0001 47.5556 45.878 45.937Z" fill="#DDE8F1"/>
<path d="M45.1584 38.1249C44.8721 38.0253 44.5313 38.3304 44.2893 38.4453C43.9665 38.598 43.7358 38.9371 43.8357 39.3006C43.8887 39.4927 44.0401 39.6309 44.0751 39.8279C44.1014 39.9742 43.9308 40.6416 44.2908 40.4908C44.4614 40.4194 44.591 39.9535 44.8563 40.209" fill="#183A52"/>
<path d="M41.3019 38.745C41.7348 38.8947 42.2071 38.9558 42.6291 39.1253C42.9433 39.2513 43.2138 39.493 43.5622 39.4938C44.0187 39.4946 44.6451 38.7584 44.7744 38.3452C44.8105 38.2303 44.8071 38.0848 44.7969 37.963C44.7661 37.5953 44.4024 37.1463 44.0559 37.0386C43.6862 36.924 43.3111 36.8992 42.9358 36.8408C42.2395 36.7324 41.6702 37.1268 41.2572 37.6457C41.1704 37.79 41.1355 37.8309 41.152 37.769C41.0336 37.9183 40.9472 38.0989 40.892 38.2799C40.8307 38.4808 40.8014 38.5194 40.9818 38.611C41.0851 38.6637 41.1922 38.7072 41.3019 38.745Z" fill="#183A52"/>
<path d="M48.4193 50.6526C48.1499 50.716 47.6426 50.0542 47.7365 49.6483C47.8151 49.3081 47.977 49.2551 47.977 49.2554C49.6499 48.3696 51.2312 47.9939 52.5629 47.5482C53.8724 47.1103 53.1904 47.9469 53.1904 47.9469C51.932 48.8476 50.7277 49.7133 48.4197 50.653L48.4193 50.6526Z" fill="#F3A187"/>
<path d="M42.0396 39.656L41.6229 40.4972L41.7935 40.7878L41.4913 40.4846L42.0396 39.656Z" fill="#D18B76"/>
<path d="M42.6194 39.2812C42.6194 39.2812 42.6551 39.2949 42.7084 39.3152C42.7347 39.3239 42.7667 39.3373 42.8028 39.3568C42.8377 39.3743 42.8753 39.3934 42.9129 39.4125C42.947 39.4343 42.9812 39.456 43.0132 39.4763C43.0455 39.4954 43.0741 39.5175 43.0981 39.5374C43.1462 39.5759 43.1785 39.6019 43.1785 39.6019C43.215 39.6309 43.221 39.6848 43.1921 39.7214C43.165 39.7562 43.1161 39.7634 43.0804 39.7398L43.0696 39.7325C43.0696 39.7325 43.0402 39.7126 42.9963 39.6829C42.9749 39.6676 42.9489 39.6504 42.9181 39.6355C42.8881 39.6199 42.8565 39.6031 42.8245 39.5863C42.7926 39.5733 42.761 39.5599 42.731 39.5477C42.7032 39.5347 42.6724 39.5244 42.6438 39.5171C42.5889 39.5011 42.5521 39.4904 42.5521 39.4904H42.5506C42.4931 39.4732 42.4597 39.4121 42.4762 39.3537C42.4927 39.2953 42.5529 39.2609 42.6107 39.2781C42.6134 39.2789 42.6164 39.2796 42.619 39.2808L42.6194 39.2812Z" fill="#183A52"/>
<path d="M41.6965 39.2168C41.6965 39.2168 41.6593 39.2084 41.6037 39.1958C41.5751 39.1885 41.5435 39.1824 41.5127 39.1801C41.4808 39.1763 41.4466 39.1725 41.4124 39.1687C41.3767 39.1679 41.3406 39.1671 41.3072 39.1668C41.273 39.1645 41.2425 39.1671 41.2162 39.1702C41.1636 39.1748 41.1283 39.1778 41.1283 39.1778L41.1159 39.179C41.0697 39.1832 41.0291 39.1484 41.025 39.1015C41.0212 39.0572 41.0516 39.0179 41.0941 39.0102C41.0941 39.0102 41.1343 39.003 41.1948 38.9923C41.2253 38.9865 41.261 38.9808 41.2982 38.9797C41.3357 38.9774 41.3763 38.9751 41.4165 38.9724C41.4582 38.9739 41.5003 38.9755 41.5394 38.9766C41.5804 38.977 41.6146 38.9808 41.6416 38.9858C41.6983 38.9938 41.7359 38.9991 41.7359 38.9991C41.7953 39.0079 41.837 39.0637 41.8284 39.124C41.8201 39.1843 41.7652 39.2263 41.7055 39.2179C41.7025 39.2176 41.6998 39.2168 41.6972 39.2164H41.6957L41.6965 39.2168Z" fill="#183A52"/>
<path d="M44.2498 41.1062C44.2378 41.154 44.1904 41.1826 44.1434 41.1704C44.0965 41.1582 44.0683 41.1101 44.0803 41.0623C44.0923 41.0146 44.1397 40.986 44.1867 40.9982C44.2336 41.01 44.2618 41.0585 44.2498 41.1059V41.1062Z" fill="#FDBC5F"/>
<path d="M35.9991 38.407C36.2689 38.4734 37.0137 38.4677 37.2286 38.1126C37.4086 37.8151 37.3305 37.6613 37.3308 37.6617C36.7585 35.8349 35.9371 34.623 35.3017 33.3526C34.6764 32.1036 34.5054 33.2828 34.5054 33.2828C34.9669 34.9563 35.0142 36.0877 35.9995 38.4074L35.9991 38.407Z" fill="#F3A187"/>
<path d="M35.5095 37.0194C35.6211 37.6429 35.8713 38.2008 36.0509 38.6357C36.7788 40.3967 36.7247 40.9725 37.3688 42.1787C38.2466 43.8226 39.3382 45.1876 40.4283 44.9604C40.8743 44.8676 39.5358 41.5621 38.2522 39.8251C37.9794 39.4559 37.9441 38.958 36.9686 37.0068C36.9686 37.0068 35.8589 36.6352 35.5095 37.019V37.0194Z" fill="#F3A187"/>
<path d="M38.7166 39.8755C38.7042 39.8858 38.6922 39.8973 38.6802 39.908C38.115 40.4322 37.4146 40.905 36.6909 41.1635C36.6063 41.194 38.0414 43.7638 38.1534 43.9196C38.8955 44.9532 39.2679 46.0418 40.1194 46.9846C40.426 46.6875 40.8251 45.6287 40.8397 45.492C40.8822 45.0975 41.4173 44.6049 41.344 44.2143C41.2207 43.5534 40.5395 43.1196 40.2866 42.4953C39.9379 41.6335 39.449 40.858 39.0481 40.0084C39.0052 39.9179 38.9417 39.8137 38.8433 39.816C38.7956 39.8167 38.7542 39.8434 38.7166 39.8751V39.8755Z" fill="#DDE8F1"/>
<path d="M35.1472 33.0774L34.7846 32.7082C34.8053 32.5409 34.4844 32.2851 34.2954 32.0678C34.0992 31.8422 34.0304 31.7532 33.8155 31.518C33.6889 31.3798 33.6137 31.4157 33.6002 31.4806C33.5931 31.5149 33.6276 31.5825 33.6276 31.5825C33.8629 31.8983 34.0342 32.0881 33.9234 32.1644C33.8632 32.2061 33.7231 32.1083 33.7231 32.1083C33.7231 32.1083 33.3935 31.9181 32.9343 31.6829C32.7059 31.5657 32.6179 31.5932 32.5875 31.6505C32.5567 31.7081 32.7288 31.8231 32.8934 31.9052C33.0583 31.9876 33.2263 32.0884 33.4454 32.2148C33.7249 32.3756 33.5153 32.3267 33.5153 32.3267L32.6852 31.9521C32.5154 31.8929 32.4135 31.8872 32.3895 31.9632C32.3542 32.0747 32.5943 32.1576 32.5943 32.1576C32.5943 32.1576 32.9749 32.35 33.2338 32.4676C33.5885 32.6284 33.401 32.6436 33.401 32.6436L32.7859 32.3439C32.5894 32.2423 32.5409 32.3084 32.527 32.3332C32.4684 32.4374 32.6953 32.523 32.6953 32.523C32.6953 32.523 33.1016 32.7105 33.2864 32.8124C33.4713 32.9144 33.3165 32.8682 33.3165 32.8682C33.3165 32.8682 33.2496 32.8536 32.9137 32.7017C32.7878 32.6448 32.7194 32.6318 32.6972 32.6559C32.5999 32.762 32.8366 32.8769 32.8366 32.8769C32.8366 32.8769 32.9077 32.9117 33.3003 33.1026C33.3905 33.1465 33.7467 33.255 33.7467 33.255C33.7467 33.255 34.3934 33.4753 34.5043 33.3519L35.1649 33.6773" fill="#F3A187"/>
<path d="M54.1663 48.3998C54.1663 48.3998 54.1806 47.982 54.2445 47.8064C54.2366 47.798 54.2358 47.7904 54.2523 47.7854C54.2843 47.7037 54.3275 47.625 54.3846 47.551C54.2993 47.5429 54.2493 47.5387 54.2493 47.5387C54.2493 47.5387 54.0795 47.5399 54.0524 47.4712C54.0028 47.3451 54.2497 47.2856 54.6187 47.1584C54.6187 47.1584 54.6849 47.1222 54.698 47.0897C54.7232 47.0278 54.6807 46.9557 54.4992 46.9981C54.1915 47.0698 54.0855 47.1046 53.7984 47.1794C53.5219 47.2516 53.1149 47.2802 53.0397 47.4307L52.4077 47.6941L52.3179 48.5643L52.9165 48.1237C52.9398 48.289 53.597 48.4754 53.597 48.4754C53.597 48.4754 53.9517 48.5888 54.0506 48.6037C54.1024 48.6117 54.1468 48.6182 54.1885 48.6247C54.1817 48.5502 54.167 48.4005 54.167 48.4005L54.1663 48.3998Z" fill="#F3A187"/>
<path d="M43.9029 42.5064C43.8323 42.5064 43.756 42.4812 43.6764 42.4316C43.57 42.3655 43.5095 42.2712 43.496 42.1521C43.4471 41.713 44.0927 41.0658 44.1201 41.0383L44.1934 40.9653L44.2253 41.0646C44.3516 41.4571 44.3546 42.0868 44.1573 42.3632C44.0904 42.4572 44.0025 42.5068 43.9029 42.5068V42.5064ZM44.1333 41.2105C43.9311 41.4304 43.5922 41.8638 43.6226 42.1376C43.6313 42.2162 43.6707 42.2766 43.7429 42.3212C43.8022 42.3583 43.856 42.377 43.9029 42.377C43.9616 42.377 44.0108 42.3476 44.054 42.2869C44.2081 42.0711 44.2197 41.5717 44.1333 41.2105Z" fill="#FDBC5F"/>
<path d="M54.6315 49.3794C54.6315 49.3794 54.6292 49.379 54.6281 49.3787C54.598 49.3718 54.3733 49.2855 54.326 49.0266V46.5596H54.1498V49.0266C54.1024 49.2855 53.8781 49.3718 53.8476 49.3787C53.8465 49.3787 53.8454 49.3794 53.8443 49.3794C53.7319 49.4035 53.6613 49.4379 53.6613 49.476C53.6613 49.549 53.9194 49.6082 54.2381 49.6082C54.5567 49.6082 54.8149 49.549 54.8149 49.476C54.8149 49.4379 54.7446 49.4035 54.6319 49.3794H54.6315Z" fill="#B1E3FA"/>
<path d="M54.797 43.4966H53.6779C53.6779 43.4966 53.6779 45.2859 53.6779 45.6971C53.6779 46.1072 53.9759 46.7212 54.2375 46.7258C54.499 46.7212 54.797 46.1072 54.797 45.6971C54.797 45.2855 54.797 43.4966 54.797 43.4966Z" fill="#B1E3FA"/>
<path d="M54.3121 44.2935C54.1227 44.2748 53.9318 44.2523 53.7492 44.2026C53.7492 44.6922 53.7492 45.3959 53.7492 45.6223C53.7492 45.9801 54.0092 46.5158 54.2373 46.52C54.4654 46.5158 54.7254 45.9801 54.7258 45.6223V44.342C54.589 44.3191 54.4493 44.3069 54.3121 44.2931V44.2935Z" fill="#F4C14F"/>
<path d="M54.7258 44.3424C54.6037 44.3218 54.4793 44.3099 54.3561 44.2981C54.4895 44.9831 54.385 45.7651 54.0025 46.3566C54.0765 46.4547 54.1588 46.5189 54.2373 46.5204C54.4654 46.5162 54.7254 45.9805 54.7258 45.6227V44.3424Z" fill="#F0A94C"/>
<g opacity="0.6">
<path d="M54.034 43.5833H53.7492C53.7492 43.5833 53.7492 45.1389 53.7492 45.4642C53.7492 45.5837 53.7451 45.6925 53.7706 45.8178C53.83 46.1076 53.9735 46.3993 54.1603 46.5001C54.1603 46.5001 53.9852 46.0167 53.9965 45.1114C54.0066 44.3068 54.034 43.5836 54.034 43.5836V43.5833Z" fill="#DDE8F1"/>
</g>
<path d="M54.5233 44.613C54.5233 44.6444 54.4985 44.6696 54.4677 44.6696C54.4368 44.6696 54.412 44.6444 54.412 44.613C54.412 44.5817 54.4368 44.5562 54.4677 44.5562C54.4985 44.5562 54.5233 44.5814 54.5233 44.613Z" fill="#DDE8F1"/>
<path d="M54.6905 44.7262C54.6905 44.7575 54.6657 44.7827 54.6349 44.7827C54.6041 44.7827 54.5793 44.7575 54.5793 44.7262C54.5793 44.6949 54.6041 44.6697 54.6349 44.6697C54.6657 44.6697 54.6905 44.6949 54.6905 44.7262Z" fill="#DDE8F1"/>
<path d="M54.6905 44.9598C54.6905 44.9911 54.6657 45.0163 54.6349 45.0163C54.6041 45.0163 54.5793 44.9911 54.5793 44.9598C54.5793 44.9285 54.6041 44.9033 54.6349 44.9033C54.6657 44.9033 54.6905 44.9285 54.6905 44.9598Z" fill="#DDE8F1"/>
<path d="M54.6905 44.5248C54.6905 44.5561 54.6657 44.5817 54.6349 44.5817C54.6041 44.5817 54.5793 44.5561 54.5793 44.5248C54.5793 44.4935 54.6041 44.4683 54.6349 44.4683C54.6657 44.4683 54.6905 44.4935 54.6905 44.5248Z" fill="#DDE8F1"/>
<path d="M54.0592 47.4802C54.0569 47.4772 54.0536 47.4745 54.0521 47.4707C54.0483 47.4615 54.0464 47.4531 54.046 47.4443L54.235 47.2904C54.3335 47.2515 54.4654 47.2102 54.6183 47.1579C54.6183 47.1579 54.6845 47.1217 54.6976 47.0892C54.7228 47.0274 54.6803 46.9552 54.4988 46.9976C54.1911 47.0694 54.0851 47.1041 53.798 47.1789C53.5429 47.2458 53.1769 47.2752 53.0627 47.3974" fill="#F3A187"/>
<path d="M54.5717 47.5708C54.5717 47.5708 54.5695 47.5692 54.5684 47.5681C54.4849 47.5059 54.3106 47.5643 54.2264 47.6181C54.1009 47.6987 54.0115 47.7422 53.9566 47.8957C53.8972 48.0614 53.8942 48.3619 53.9904 48.515C54.0825 48.6613 54.1986 48.7174 54.3606 48.6544C54.6236 48.5525 54.7115 48.2294 54.7153 47.9614C54.7168 47.8346 54.6788 47.6536 54.5717 47.5708Z" fill="#F3A187"/>
<path d="M32.8077 46.3678C32.5755 45.8645 32.3748 45.3934 32.2839 44.8393C32.1895 44.2643 32.1771 43.6797 32.1685 43.0981H31.4692C31.4602 43.6797 31.4478 44.2647 31.3538 44.8393C31.2633 45.3934 31.0622 45.8645 30.83 46.3678C30.5441 46.9871 30.6271 47.6977 30.626 48.366C30.6248 49.1174 30.626 49.8689 30.6256 50.6199C30.6256 50.8005 30.6256 50.9808 30.6256 51.1614C30.6256 51.4386 30.8469 51.6635 31.1197 51.6635H32.5176C32.7904 51.6635 33.0117 51.4386 33.0117 51.1614C33.0117 50.9808 33.0117 50.8002 33.0117 50.6199C33.0117 49.8685 33.0125 49.117 33.0113 48.366C33.0102 47.6977 33.0936 46.9871 32.8073 46.3678H32.8077Z" fill="#28B077"/>
<path d="M31.0686 51.1619C31.0686 50.9813 31.0686 50.8007 31.0686 50.6204C31.069 49.869 31.0679 49.1175 31.069 48.3664C31.0701 47.6982 30.9867 46.9876 31.2731 46.3683C31.5053 45.865 31.4591 45.3939 31.55 44.8398C31.6443 44.2648 31.6567 43.6802 31.6654 43.0986H31.47C31.4609 43.6802 31.4485 44.2651 31.3546 44.8398C31.264 45.3939 31.063 45.865 30.8308 46.3683C30.5448 46.9876 30.6279 47.6982 30.6267 48.3664C30.6256 49.1179 30.6267 49.8694 30.6264 50.6204C30.6264 50.801 30.6264 50.9813 30.6264 51.1619C30.6264 51.4391 30.8477 51.664 31.1205 51.664H31.5631C31.2903 51.664 31.069 51.4391 31.069 51.1619H31.0686Z" fill="#5DBD90"/>
<path d="M32.8077 46.3678C32.5755 45.8645 32.3748 45.3934 32.2839 44.8393C32.1896 44.2643 32.1772 43.6797 32.1685 43.0981H31.8698C31.8788 43.6797 31.8912 44.2647 31.9851 44.8393C32.0761 45.3934 32.2767 45.8645 32.509 46.3678C32.7949 46.9871 32.7119 47.6977 32.713 48.366C32.7141 49.1174 32.713 49.8689 32.7134 50.6199C32.7134 50.8005 32.7134 50.9808 32.7134 51.1614C32.7134 51.4386 32.4921 51.6635 32.2192 51.6635H32.5176C32.7904 51.6635 33.0117 51.4386 33.0117 51.1614C33.0117 50.9808 33.0117 50.8002 33.0117 50.6199C33.0117 49.8685 33.0125 49.117 33.0114 48.366C33.0102 47.6977 33.0937 46.9871 32.8073 46.3678H32.8077Z" fill="#25A36E"/>
<path d="M32.961 46.8525C32.9287 46.6864 32.8798 46.5241 32.8077 46.3676C32.5755 45.8643 32.3748 45.3931 32.2839 44.8391C32.1895 44.264 32.1771 43.6794 32.1685 43.0979H31.4692C31.4602 43.6794 31.4478 44.2644 31.3538 44.8391C31.2633 45.3931 31.0622 45.8643 30.83 46.3676C30.7575 46.5241 30.709 46.6864 30.6767 46.8525C30.6767 46.8525 31.3042 46.9709 31.8187 46.9709C32.3331 46.9709 32.961 46.8525 32.961 46.8525Z" fill="#F1AD4C"/>
<path d="M31.8371 46.5447C32.0671 46.3057 32.3365 46.1148 32.6247 45.9567C32.4733 45.5985 32.3496 45.2404 32.2839 44.8391C32.1896 44.264 32.1772 43.6794 32.1685 43.0979H31.4692C31.4602 43.6794 31.4478 44.2644 31.3539 44.8391C31.2858 45.2538 31.1566 45.6218 30.9984 45.9918C31.3249 46.1148 31.6496 46.2572 31.8371 46.5447Z" fill="#F4C14F"/>
<g style="mix-blend-mode:multiply">
<path d="M32.1685 43.0978H31.8923C31.8908 43.1997 31.9032 43.307 31.9055 43.3574C31.9152 43.5587 31.9088 43.758 31.9055 43.9592C31.8946 44.5453 32.0407 45.6385 32.1591 45.7645C32.4466 46.0704 32.5401 46.4182 32.6908 46.8963C32.8535 46.8726 32.961 46.852 32.961 46.852C32.9287 46.6859 32.8798 46.5236 32.8077 46.3671C32.5755 45.8638 32.3748 45.3926 32.2839 44.8386C32.1895 44.2635 32.1771 43.6789 32.1685 43.0974V43.0978Z" fill="#DDE8F1"/>
</g>
<path d="M31.819 46.8598C31.3632 46.8598 30.8191 46.767 30.7007 46.7456C30.6921 46.7811 30.6838 46.817 30.6771 46.8529C30.6771 46.8529 31.3046 46.9713 31.8194 46.9713C32.3342 46.9713 32.9614 46.8529 32.9614 46.8529C32.9542 46.817 32.9463 46.7815 32.9377 46.7456C32.8193 46.767 32.2752 46.8598 31.8194 46.8598H31.819Z" fill="#F4C14F"/>
<path d="M32.3127 46.882C32.3148 46.6047 32.0954 46.3781 31.8225 46.376C31.5496 46.3738 31.3266 46.5968 31.3245 46.8741C31.3223 47.1514 31.5418 47.378 31.8147 47.3802C32.0876 47.3823 32.3106 47.1593 32.3127 46.882Z" fill="#F4C14F"/>
<path d="M32.2497 46.8787C32.2497 47.1204 32.0569 47.3163 31.819 47.3163C31.5812 47.3163 31.3884 47.1204 31.3884 46.8787C31.3884 46.637 31.5812 46.4412 31.819 46.4412C32.0569 46.4412 32.2497 46.637 32.2497 46.8787Z" fill="#C5DED2"/>
<path d="M30.6256 50.1576C31.4098 50.3489 32.2275 50.3489 33.0121 50.1576C33.0121 49.5604 33.0129 48.9628 33.0117 48.366C33.0117 48.3309 33.0117 48.2961 33.0125 48.261C32.2279 48.4523 31.4102 48.4523 30.626 48.261C30.626 48.2961 30.6267 48.3312 30.6267 48.366C30.6256 48.9628 30.626 49.5604 30.6264 50.1576H30.6256Z" fill="#F4C14F"/>
<path d="M30.6256 50.0599C31.4098 50.2512 32.2275 50.2512 33.0121 50.0599C33.0121 49.5241 33.0129 48.988 33.0117 48.4527C33.0117 48.4214 33.0117 48.3901 33.0125 48.3584C32.2279 48.5497 31.4102 48.5497 30.626 48.3584C30.626 48.3897 30.6267 48.4214 30.6267 48.4527C30.6256 48.9884 30.626 49.5241 30.6264 50.0599H30.6256Z" fill="#DDE8F1"/>
<path d="M32.2437 42.613H31.3963V43.4011L31.4606 43.5512H32.1775L32.2437 43.4011V42.613Z" fill="#F1AD4C"/>
<path d="M32.2436 42.6129C32.2436 42.6358 32.0539 42.6545 31.8198 42.6545C31.5857 42.6545 31.3959 42.6358 31.3959 42.6129C31.3959 42.59 31.5857 42.5713 31.8198 42.5713C32.0539 42.5713 32.2436 42.59 32.2436 42.6129Z" fill="#ED8D48"/>
<path d="M61.5576 48.8762C61.6087 49.6849 61.7034 50.5658 61.608 51.3726C61.54 51.9469 61.3938 52.5212 61.2551 53.0909H66.5771C66.3088 52.5288 66.1183 51.893 66.0803 51.3016C66.0676 51.0996 66.0616 50.961 66.0586 50.7563C66.042 49.6574 66.1266 48.6497 66.225 47.5588C66.319 46.5164 66.6932 45.3484 66.3806 44.3235C66.2596 43.9245 66.4001 42.5972 66.2975 42.569C65.9007 42.4598 64.8245 42.3101 64.6708 42.3135C64.3556 42.3208 64.1549 42.4388 63.8404 42.4243V42.4644C63.2794 42.4021 62.748 42.4861 62.3291 42.5762C62.3291 42.5762 61.9965 44.1853 61.6786 44.7703C61.2006 45.6496 60.9579 46.6535 61.3228 47.6088C61.4238 47.8738 61.5366 48.5348 61.558 48.8758L61.5576 48.8762Z" fill="#F3A187"/>
<path d="M66.6049 66.3288C66.6049 66.3288 66.9461 68.6492 65.4295 75.6517C65.2266 76.5884 64.5927 75.8793 64.5927 75.8793C64.5927 75.8793 64.0234 66.8737 64.1992 65.8905C64.3747 64.9072 66.6049 66.3288 66.6049 66.3288Z" fill="#F3A187"/>
<path d="M67.9649 70.8401C67.618 67.181 67.5557 65.8591 67.5557 65.8591C67.5557 65.8591 63.9859 65.8098 63.8104 66.793C63.7236 67.2802 63.7961 68.8339 63.9149 71.1887L67.9652 70.8405L67.9649 70.8401Z" fill="#05263B"/>
<path d="M65.4328 75.1367C65.4118 75.1986 65.4197 75.2669 65.4039 75.3314C65.3878 75.3956 65.3547 75.4567 65.3216 75.5132C65.2622 75.614 65.1931 75.6713 65.0796 75.6285C64.8636 75.5456 64.8117 75.2539 64.6095 75.1394C64.4788 75.0645 64.4179 75.2776 64.3961 75.3757C64.3638 75.5189 64.2939 75.6419 64.2424 75.7786C64.2078 75.8694 64.1891 75.908 64.1349 75.9844C64.1079 76.0226 64.079 76.0592 64.0504 76.0959C64.0418 76.1066 64.0342 76.1176 64.0256 76.1279C63.9117 76.2681 63.787 76.3971 63.6592 76.5205C63.6536 76.5258 63.6457 76.5327 63.6367 76.5403C63.6333 76.5434 63.6292 76.5464 63.625 76.5495C63.6186 76.5548 63.6119 76.5598 63.604 76.5659C63.598 76.5701 63.592 76.5747 63.5856 76.5797C63.5784 76.585 63.5713 76.5903 63.5634 76.5961C63.5555 76.6018 63.548 76.6071 63.5397 76.6133C63.309 76.7839 62.8314 77.0612 62.7491 77.12C62.7224 77.141 62.6946 77.1635 62.6867 77.1956C62.6627 77.2948 62.9295 77.2853 63.0407 77.2796C63.5968 77.2597 64.3465 77.0279 64.8245 76.7759C64.9917 76.7129 65.954 76.0699 65.8845 75.8733C65.8233 75.6927 65.7988 75.4987 65.7391 75.3204C65.6985 75.1989 65.5358 74.84 65.4332 75.1371L65.4328 75.1367Z" fill="#05263B"/>
<path d="M64.4217 54.9943C61.6027 59.9593 59.2914 63.6387 58.2919 64.9331C56.6979 66.9969 55.7423 63.1671 55.7423 63.1671C55.7423 63.1671 60.3853 54.218 61.5862 52.8999C62.3208 52.0935 65.0034 53.9698 64.4217 54.9939V54.9943Z" fill="#F3A187"/>
<path d="M67.1077 54.2411C67.5632 55.6421 67.7014 56.4435 67.7037 57.3412C67.7138 62.018 66.8225 66.1399 66.5933 67.5031C66.3427 68.9941 64.4665 67.949 64.4665 67.949C64.4665 67.949 63.0494 55.7127 63.4196 54.6718C63.7897 53.6306 66.7429 53.1181 67.1077 54.2411Z" fill="#F3A187"/>
<path d="M66.068 51.0774H61.6486C61.5592 51.4554 60.2038 53.8377 60.1234 54.2115C60.0655 54.4803 60.8467 54.4666 60.9407 54.7438C60.9407 54.7438 63.5225 54.6327 64.2463 54.5807C64.7363 54.6159 65.2263 54.651 65.7163 54.6865C66.0879 54.7132 67.5267 55.4784 67.4057 54.9519C67.1712 53.9309 66.4171 51.3951 66.068 51.0778V51.0774Z" fill="#05263B"/>
<path d="M64.5589 55.2102C62.1675 60.2344 60.941 62.8748 58.5012 65.5439C57.2826 66.8772 55.5503 66.0158 55.1256 64.8894C54.9381 64.3919 55.0843 63.5511 55.0843 63.5511C55.0843 63.5511 59.7889 54.2667 60.9899 52.9486C61.7245 52.1422 65.0654 54.1457 64.5589 55.2102Z" fill="#05263B"/>
<path d="M67.1971 54.2711C67.6526 55.6721 67.7014 56.4434 67.7037 57.3411C67.7138 62.0178 67.6421 65.963 67.4128 67.3261C67.1622 68.8172 63.9144 68.3048 63.9144 68.3048C63.9144 68.3048 63.0107 55.7538 63.3812 54.7129C63.7517 53.6717 66.8323 53.1478 67.1971 54.2711Z" fill="#05263B"/>
<path d="M57.4644 64.1256C57.4644 64.1256 58.7507 66.0741 60.3315 73.0621C60.5427 73.9968 59.6713 73.6317 59.6713 73.6317C59.6713 73.6317 55.3616 65.7411 55.1061 64.7762C54.8502 63.8113 57.4644 64.1256 57.4644 64.1256Z" fill="#F3A187"/>
<path d="M57.1781 71.4458C57.8725 71.1128 59.3372 69.6069 59.946 68.616C59.1012 65.1528 58.1554 63.2065 58.1554 63.2065C58.1554 63.2065 54.7848 63.5109 55.0407 64.4758C55.1576 64.9168 56.1665 69.5263 57.1781 71.4458Z" fill="#05263B"/>
<path d="M60.8354 73.0645C60.9012 73.132 60.9669 73.2 61.0327 73.268C61.0721 73.3081 61.0887 73.3711 61.0744 73.428C61.0086 73.6662 60.8996 74.0778 60.3698 74.7354C59.7265 75.4971 59.3147 75.7327 58.9314 75.9004C58.8728 75.9244 58.7777 75.9229 58.7333 75.8824C58.6612 75.8163 58.5891 75.7499 58.5169 75.6835C59.4003 74.9225 60.1831 74.0374 60.8358 73.0645H60.8354Z" fill="#DDE8F1"/>
<path d="M60.1173 72.5951C60.1244 72.6604 60.1605 72.7189 60.1733 72.7838C60.1857 72.8487 60.1816 72.9182 60.1755 72.9839C60.1643 73.1011 60.1259 73.1828 60.0057 73.1931C59.7757 73.2122 59.6055 72.9713 59.3744 72.9556C59.2245 72.9449 59.2594 73.1637 59.2812 73.2622C59.3124 73.4058 59.3011 73.5474 59.312 73.6933C59.3192 73.7907 59.3184 73.8338 59.3019 73.9258C59.2932 73.9724 59.2831 74.0179 59.2726 74.0633C59.2696 74.0767 59.2673 74.09 59.2639 74.103C59.22 74.2794 59.1617 74.4501 59.0982 74.6174C59.0952 74.6246 59.0911 74.6342 59.0858 74.6452C59.0839 74.6494 59.0813 74.654 59.0794 74.6586C59.0757 74.6658 59.0719 74.6739 59.0674 74.6826C59.064 74.6891 59.0603 74.6956 59.0565 74.7029C59.0524 74.7109 59.0479 74.7189 59.043 74.7277C59.0385 74.7361 59.0336 74.7445 59.0287 74.7537C58.8923 75.0083 58.5774 75.4666 58.5278 75.5555C58.5124 75.5861 58.4966 75.6185 58.5034 75.651C58.5237 75.7514 58.7604 75.6265 58.8589 75.5727C59.3534 75.3131 59.9328 74.777 60.2586 74.3417C60.383 74.2122 60.9816 73.2122 60.8361 73.0648C60.7046 72.9281 60.6005 72.7635 60.4716 72.6284C60.3841 72.5363 60.0854 72.2828 60.118 72.5959L60.1173 72.5951Z" fill="#05263B"/>
<path d="M67.137 70.802C67.1096 70.802 67.0863 70.781 67.0833 70.7528C66.8928 68.931 66.9138 65.4277 66.9318 62.3367C66.9442 60.2236 66.9563 58.2274 66.8973 57.1037C66.7545 54.3838 65.6817 51.1279 65.6708 51.0951C65.6614 51.0661 65.6764 51.0351 65.705 51.0252C65.7331 51.0153 65.7643 51.0309 65.7737 51.06C65.7846 51.0928 66.8623 54.3632 67.0059 57.0979C67.0649 58.2251 67.0532 60.2229 67.0408 62.3379C67.0228 65.4258 67.0017 68.9257 67.1915 70.7417C67.1945 70.7723 67.1731 70.7994 67.1434 70.8024C67.1415 70.8024 67.1396 70.8024 67.1378 70.8024L67.137 70.802Z" fill="#DDE8F1"/>
<path d="M66.325 70.802C66.2964 70.802 66.2724 70.7791 66.2709 70.7497C66.2671 70.6703 65.8827 62.7617 65.814 59.1251C65.7456 55.4923 65.2886 51.6251 65.2841 51.5865C65.2804 51.5563 65.3018 51.5289 65.3315 51.5254C65.3612 51.5212 65.3882 51.543 65.392 51.5735C65.3965 51.6121 65.8538 55.4847 65.9225 59.1232C65.9913 62.7583 66.3753 70.665 66.3791 70.7444C66.3806 70.7749 66.3577 70.8009 66.3276 70.8024C66.3269 70.8024 66.3257 70.8024 66.325 70.8024V70.802Z" fill="#DDE8F1"/>
<path d="M65.0267 70.8021H65.0252C64.9951 70.8013 64.9715 70.7758 64.9722 70.7456C65.0376 68.02 64.5735 51.2483 64.569 51.0791C64.5683 51.0486 64.5919 51.0234 64.6216 51.0222C64.6517 51.0241 64.6765 51.0455 64.6776 51.0757C64.6825 51.2448 65.1462 68.0197 65.0808 70.7483C65.0801 70.7784 65.056 70.8021 65.0267 70.8021Z" fill="#DDE8F1"/>
<path d="M59.3372 68.9445C59.3166 68.9445 59.2967 68.9323 59.2876 68.912C58.9618 68.1693 58.6718 67.5893 58.4388 67.1231C57.5091 65.2643 57.3663 64.9787 58.8123 62.3158C60.5878 59.0458 63.6852 51.6332 63.7164 51.5587C63.7281 51.5308 63.76 51.5175 63.7874 51.5297C63.8149 51.5415 63.828 51.574 63.816 51.6022C63.7848 51.6767 60.6851 59.0946 58.907 62.3696C57.4888 64.9814 57.608 65.2197 58.5354 67.0739C58.7691 67.5412 59.0595 68.1224 59.3865 68.8677C59.3985 68.8956 59.3865 68.9281 59.359 68.9407C59.3519 68.9437 59.3444 68.9452 59.3369 68.9452L59.3372 68.9445Z" fill="#DDE8F1"/>
<path d="M58.5166 69.662C58.4981 69.662 58.4805 69.6524 58.47 69.6356C55.7678 65.1338 56.953 63.1402 57.0049 63.0577L62.8672 51.5549C62.8811 51.5278 62.9138 51.5175 62.9405 51.5312C62.9671 51.5453 62.9777 51.5786 62.9638 51.6053L57.0992 63.1127C57.0845 63.1364 55.9012 65.1433 58.5632 69.5783C58.5789 69.6043 58.5707 69.6383 58.5451 69.6539C58.5365 69.6597 58.5263 69.662 58.5169 69.662H58.5166Z" fill="#DDE8F1"/>
<path d="M57.5189 70.5447C57.4982 70.5447 57.4783 70.5325 57.4693 70.5122C54.8479 64.5758 55.7708 63.0195 55.811 62.9561L61.992 51.5537C62.0063 51.5269 62.0394 51.5174 62.0657 51.5319C62.092 51.5464 62.1014 51.58 62.0871 51.6068L55.9042 63.0126C55.893 63.0313 54.981 64.6079 57.5681 70.4672C57.5805 70.495 57.5681 70.5279 57.5411 70.5401C57.5339 70.5435 57.5264 70.5451 57.5189 70.5451V70.5447Z" fill="#DDE8F1"/>
<path d="M59.68 68.0987C59.6597 68.0987 59.6405 68.0873 59.6311 68.0678C58.101 64.8745 58.6368 64.0768 58.6605 64.0444L58.7368 63.9356C59.5128 62.8305 60.9568 60.7732 61.9902 58.394C63.3501 55.2621 64.1054 51.6057 64.1129 51.5694C64.1189 51.5396 64.1478 51.5201 64.1772 51.5266C64.2065 51.5327 64.2253 51.5622 64.2192 51.5919C64.2117 51.6286 63.4542 55.2965 62.0894 58.4386C61.0515 60.8286 59.6033 62.8916 58.8251 64.0001L58.7481 64.1097C58.7428 64.1177 58.2389 64.9112 59.7284 68.0201C59.7416 68.0476 59.7303 68.0804 59.7033 68.0938C59.6958 68.0976 59.6875 68.0995 59.6796 68.0995L59.68 68.0987Z" fill="#DDE8F1"/>
<path d="M55.9944 40.3983C56.3961 40.5106 56.4465 40.5702 56.8835 40.7294C58.653 41.3739 58.7627 41.3663 59.9828 41.9555C61.6448 42.7585 63.4977 43.715 63.3328 44.833C63.2655 45.2904 59.6709 44.1651 57.8962 42.9555C57.5185 42.6981 57.3017 42.6332 55.3323 41.747C55.3323 41.747 55.6363 40.7729 55.9948 40.3979L55.9944 40.3983Z" fill="#F3A187"/>
<path d="M58.2438 43.3679C58.2535 43.3549 58.2637 43.3419 58.2738 43.3293C58.7586 42.7275 59.1858 41.9917 59.4015 41.2433C59.4327 41.1345 60.8324 41.9772 60.9403 42.0425C61.0173 42.0891 62.2769 42.7684 62.2765 42.7607C62.3325 43.8673 62.1025 44.7837 61.4878 45.6978C61.1913 46.1381 61.0752 46.266 60.6885 45.8448C59.9952 45.0896 59.3395 44.0968 58.393 43.6966C58.302 43.6581 58.196 43.5993 58.1927 43.4988C58.1912 43.4503 58.2152 43.4072 58.2441 43.3671L58.2438 43.3679Z" fill="#2573B2"/>
<path d="M58.3926 43.697C58.4155 43.7065 58.4381 43.7172 58.461 43.7268C59.081 43.0773 59.5379 42.2941 59.7439 41.364C59.5515 41.267 59.4109 41.2097 59.4012 41.2433C59.1855 41.9917 58.7586 42.7275 58.2735 43.3293C58.2633 43.3419 58.2532 43.3545 58.2434 43.3679C58.2145 43.4076 58.1904 43.4511 58.1919 43.4996C58.1953 43.6 58.3013 43.6588 58.3922 43.6974L58.3926 43.697Z" fill="#DDE8F1"/>
<path d="M65.4112 41.4968C65.377 41.5354 65.3398 41.5713 65.2977 41.6018C64.5909 42.1142 63.881 41.6808 63.1205 41.729C62.7293 41.7538 62.3626 41.8615 61.9661 41.8584C61.7955 41.8569 61.6343 41.8538 61.4829 41.7671C60.9869 41.4831 61.1199 40.9504 61.1 40.4815C61.0703 39.7835 61.0448 39.0882 61.0842 38.3902C61.1409 37.3966 61.3273 36.3199 62.1912 35.7185C62.936 35.1999 63.9622 34.8578 64.8257 35.279C65.2455 35.484 65.4217 35.8785 65.7279 36.2133C66.0879 36.6074 66.416 37.0328 66.5952 37.5448C66.6719 37.7644 66.7508 37.99 66.815 38.2115C66.8797 38.4337 66.8428 38.6628 66.8842 38.8919C66.9248 39.1161 67.0488 39.3341 67.1202 39.5449C67.2727 39.9943 67.2513 40.3475 66.8579 40.6487C66.5606 40.8759 66.2717 40.7801 65.9519 40.9019C65.681 41.005 65.5908 41.2933 65.4112 41.4968Z" fill="#183A52"/>
<path d="M65.6407 39.2036C65.4904 39.5113 64.9711 39.8489 64.9549 39.5526C64.9451 39.3712 65.003 38.9901 65.1529 38.682C65.3032 38.3742 65.2706 38.3227 65.499 38.4376C65.7275 38.5525 65.7906 38.8954 65.6407 39.2036Z" fill="#F3A187"/>
<path d="M64.5968 39.9935C64.7859 39.4032 62.8168 40.139 62.8168 40.139L62.9006 42.5755C62.9006 42.5755 63.621 43.6954 64.5965 42.4277C64.6821 42.3166 64.5258 40.2142 64.5965 39.9939L64.5968 39.9935Z" fill="#F3A187"/>
<path d="M64.4694 39.9592C64.5653 40.0653 64.6089 40.8404 64.5942 41.4926C63.9452 41.4617 63.2685 41.6534 62.889 42.2261L62.8172 40.139C62.8172 40.139 64.0798 39.5269 64.4694 39.9592Z" fill="#D9907A"/>
<path d="M62.6166 41.4117C63.0284 41.5781 63.7886 41.2173 64.548 40.6476C65.017 40.2959 65.0181 39.543 65.1846 39.0023C65.2913 38.6552 65.2714 38.2718 65.2736 37.9121C65.2763 37.5051 65.2165 37.0729 65.0846 36.688C65.0271 36.5207 64.923 36.3764 64.8189 36.2363C64.7494 36.1427 64.6769 36.045 64.5691 35.9949C64.4736 35.9506 64.362 35.9426 64.2606 35.9209C64.0727 35.88 63.8863 35.8391 63.6962 35.8101C63.299 35.7502 62.8736 35.8231 62.496 35.9667C62.1672 36.0919 61.9207 36.2153 61.7891 36.5658C61.6516 36.9327 61.6798 37.3207 61.6336 37.7086C61.5524 38.3917 61.4213 39.0393 61.5554 39.7281C61.6039 39.976 62.0435 41.1799 62.6162 41.4113L62.6166 41.4117Z" fill="#F3A187"/>
<path d="M62.2374 40.2147C62.2374 40.2147 62.3821 40.6935 62.7282 40.705C63.0742 40.7165 63.465 40.5347 63.5432 40.0356C63.5432 40.0356 63.264 40.1376 62.8845 40.183C62.5049 40.2285 62.2374 40.2147 62.2374 40.2147Z" fill="#430000"/>
<path d="M62.6173 40.6832C62.6519 40.6955 62.6887 40.7035 62.7281 40.705C62.9187 40.7111 63.1227 40.6584 63.2809 40.5267C63.0588 40.4381 62.8187 40.542 62.6169 40.6832H62.6173Z" fill="#F0696E"/>
<path d="M63.4395 40.3372C63.4883 40.2528 63.5248 40.1531 63.5432 40.0352C63.5432 40.0352 63.264 40.1371 62.8845 40.1825C62.5049 40.228 62.2374 40.2142 62.2374 40.2142C62.2374 40.2142 62.2505 40.315 62.3486 40.4479C62.7586 40.5384 63.0941 40.4323 63.4395 40.3372Z" fill="#DDE8F1"/>
<path d="M63.503 38.7685C63.5 38.8407 63.4553 38.8976 63.4034 38.8953C63.3516 38.893 63.3121 38.8327 63.3151 38.7601C63.3181 38.688 63.3628 38.6311 63.4147 38.6334C63.4665 38.6357 63.506 38.696 63.5026 38.7685H63.503Z" fill="#1A1C37"/>
<path d="M62.2637 38.7573C62.2607 38.8298 62.216 38.8863 62.1641 38.8841C62.1123 38.8818 62.0728 38.8211 62.0758 38.7489C62.0792 38.6767 62.1235 38.6202 62.1754 38.6221C62.2272 38.6244 62.2667 38.6847 62.2637 38.7573Z" fill="#1A1C37"/>
<path d="M67.0183 44.7547C66.9732 44.1541 66.9416 43.4153 66.7443 42.9044C66.5719 42.4576 65.9425 42.403 65.5077 42.3385C65.395 42.3221 64.6987 42.2128 64.6479 42.3385C64.5491 42.6848 64.4845 42.8039 64.0463 42.8727C63.586 42.9444 63.0528 42.9318 62.8657 42.419C62.8649 42.4175 62.8649 42.416 62.8646 42.4145C62.8296 42.3033 62.0469 42.5821 61.9574 42.6691C61.6407 42.9777 61.5174 43.7891 61.3889 44.2068C61.0804 45.2118 60.8527 46.2596 60.8095 47.3142C60.7685 48.3115 60.9966 49.3467 61.1871 50.3234C61.2736 50.7645 61.3427 51.0153 61.7545 51.1306C62.2295 51.2639 62.7736 51.2994 63.2632 51.3487C64.0989 51.4327 64.9482 51.4292 65.7621 51.1982C66.5204 50.9829 66.691 50.4254 66.8931 49.677C67.3005 48.168 67.19 46.5547 67.0401 45.0163C67.0322 44.9331 67.025 44.8456 67.0179 44.7551L67.0183 44.7547Z" fill="#287DC1"/>
<path d="M65.4682 36.341C65.1669 36.3162 64.9102 36.6973 64.7035 36.8691C64.4277 37.0982 64.2864 37.4846 64.4713 37.8118C64.569 37.9848 64.7494 38.0806 64.8313 38.2628C64.8922 38.3983 64.8888 39.0876 65.2014 38.8512C65.3495 38.7393 65.3619 38.2555 65.6809 38.4365" fill="#183A52"/>
<path d="M62.08 41.2654C62.0228 41.2287 61.9717 41.1947 61.9458 41.163C61.756 40.9336 61.4596 40.6525 61.3814 40.3616C61.2965 40.0454 61.1969 39.6972 61.1627 39.3711C61.1221 38.9858 61.239 38.7395 61.4408 38.426C61.6602 38.0851 62.0097 38.2107 62.3325 38.0118C62.6429 37.8205 62.8319 37.46 63.1498 37.2752C63.4756 37.0858 63.6984 37.321 63.9967 37.4077C64.2222 37.4734 64.4172 37.4039 64.6216 37.2973C64.7284 37.2416 64.8208 37.1805 64.92 37.1091C65.1364 36.9541 65.4228 36.6864 65.4739 36.4057C65.5269 36.1159 65.3341 35.7738 65.1845 35.5432C64.7099 34.8108 63.1851 35.0674 62.4824 35.3378C61.3713 35.765 60.7253 37.0064 60.1962 38.011C59.982 38.418 59.7115 38.8907 59.6848 39.3581C59.6641 39.7212 59.8216 39.9114 60.011 40.1993C60.1895 40.4708 60.0734 40.588 60.0835 40.8843C60.0997 41.3631 60.7392 41.6617 61.1432 41.6293C61.3852 41.6094 61.5749 41.643 61.8169 41.6747C61.9518 41.6927 62.3088 41.7503 62.3464 41.5456C62.3652 41.441 62.207 41.3475 62.0792 41.2658L62.08 41.2654Z" fill="#183A52"/>
<path d="M55.0911 41.5067C55.0948 41.7877 55.8486 42.1302 56.2139 41.9405C56.5201 41.7816 56.5321 41.609 56.5321 41.6094C56.9793 39.7472 56.9605 38.0969 57.068 36.6765C57.1739 35.2793 56.5374 36.1526 56.5374 36.1526C55.9771 37.6093 55.4379 39.0045 55.0911 41.5063V41.5067Z" fill="#F3A187"/>
<path d="M64.6232 42.0867C64.6232 41.9924 64.6213 41.8843 64.6186 41.7664C64.0659 41.9905 63.4692 42.065 62.88 41.963L62.8905 42.2662C63.503 42.433 64.0918 42.3899 64.6235 42.0871L64.6232 42.0867Z" fill="#183A52"/>
<path d="M62.8172 38.606L62.6173 39.5258L62.8529 39.7644L62.4865 39.5464L62.8172 38.606Z" fill="#D18B76"/>
<path d="M63.2918 38.0351C63.2918 38.0351 63.3298 38.0401 63.3865 38.0477C63.4135 38.0508 63.4481 38.0561 63.4906 38.0668C63.5308 38.0764 63.5736 38.0867 63.6165 38.097C63.6957 38.126 63.7739 38.147 63.8322 38.1787C63.89 38.2062 63.9287 38.2249 63.9287 38.2249C63.9941 38.2562 64.0223 38.3356 63.9915 38.4021C63.9633 38.4632 63.8949 38.4922 63.8333 38.4723L63.8134 38.4658C63.8134 38.4658 63.7811 38.4555 63.733 38.4399C63.6875 38.4208 63.6153 38.412 63.5488 38.396C63.5169 38.3925 63.4849 38.3887 63.4549 38.3856C63.4271 38.3811 63.3959 38.3799 63.3655 38.3803C63.3083 38.3799 63.27 38.3795 63.27 38.3795H63.2681C63.1738 38.3788 63.0983 38.3009 63.099 38.205C63.0998 38.1092 63.1764 38.0324 63.2708 38.0332C63.2775 38.0332 63.2854 38.034 63.2922 38.0347L63.2918 38.0351Z" fill="#183A52"/>
<path d="M62.3817 38.3289C62.3817 38.3289 62.3438 38.3289 62.2863 38.3296C62.2562 38.3289 62.2247 38.3304 62.1968 38.335C62.1668 38.338 62.1348 38.3418 62.1029 38.3453C62.0364 38.3613 61.9642 38.3701 61.9188 38.3892C61.8707 38.4048 61.8384 38.4152 61.8384 38.4152L61.8184 38.4216C61.7493 38.4438 61.6757 38.4052 61.6539 38.335C61.6339 38.2708 61.6644 38.2021 61.723 38.1742C61.723 38.1742 61.7617 38.1555 61.8196 38.128C61.8778 38.0963 61.9564 38.0753 62.0353 38.0463C62.0781 38.036 62.1209 38.0257 62.1611 38.0161C62.2036 38.0054 62.2382 37.9997 62.2652 37.997C62.322 37.9894 62.3595 37.9844 62.3595 37.9844C62.4527 37.9718 62.5388 38.0383 62.5512 38.1334C62.5636 38.2281 62.4978 38.3151 62.4046 38.3277C62.3979 38.3289 62.3911 38.3292 62.3844 38.3292H62.3813L62.3817 38.3289Z" fill="#183A52"/>
<path d="M65.5855 40.2665C65.6347 40.26 65.7031 40.373 65.7163 40.4127C65.7384 40.4792 65.6956 40.5464 65.6325 40.567C65.605 40.5758 65.5795 40.5689 65.5517 40.5697C65.528 40.5704 65.5051 40.5788 65.4814 40.5807C65.4498 40.5834 65.425 40.5918 65.3968 40.6082C65.3604 40.63 65.3228 40.6434 65.28 40.6479C65.236 40.6529 65.1894 40.6529 65.1488 40.6334C65.1128 40.6159 65.0816 40.6155 65.0418 40.6197C64.9734 40.6266 64.8805 40.6865 64.8155 40.6445C64.678 40.5555 64.8279 40.42 64.8655 40.3253C64.8813 40.3368 64.8997 40.3463 64.9174 40.3547C65.059 40.423 65.2214 40.423 65.3687 40.3738C65.4059 40.3616 65.4423 40.3463 65.4773 40.3284C65.5111 40.3112 65.5434 40.2818 65.578 40.268C65.5802 40.2673 65.5829 40.2665 65.5851 40.2661L65.5855 40.2665Z" fill="#287DC1"/>
<path d="M65.1646 40.456C64.9986 40.456 64.8693 40.398 64.8637 40.3953C64.8505 40.3896 64.8441 40.3739 64.8494 40.3605L65.1932 39.4399C65.1973 39.4296 65.2067 39.4224 65.218 39.4224C65.2293 39.4231 65.239 39.4285 65.2436 39.4388L65.5964 40.2483C65.6009 40.2586 65.5987 40.2704 65.5911 40.2788C65.4784 40.3968 65.3352 40.4564 65.1646 40.4564V40.456ZM64.9095 40.3544C64.9527 40.3705 65.05 40.401 65.1646 40.401C65.3134 40.401 65.4393 40.3514 65.5393 40.2529L65.2206 39.522L64.9099 40.3544H64.9095Z" fill="#FDBC5F"/>
<path d="M65.3104 39.4579C65.3104 39.5067 65.2713 39.5464 65.2232 39.5464C65.1751 39.5464 65.1357 39.5067 65.1357 39.4579C65.1357 39.409 65.1748 39.3689 65.2232 39.3689C65.2717 39.3689 65.3104 39.4086 65.3104 39.4579Z" fill="#FDBC5F"/>
<path d="M57.0683 36.7037L57.1405 36.3814C57.3058 36.3646 57.4798 35.99 57.6466 35.7544C57.8199 35.5101 57.8901 35.4226 58.0679 35.1573C58.1727 35.0011 58.1216 34.9343 58.0558 34.9358C58.0213 34.9362 57.9642 34.9854 57.9642 34.9854C57.7135 35.2882 57.5688 35.5001 57.4715 35.4077C57.4185 35.357 57.4813 35.1966 57.4813 35.1966C57.4813 35.1966 57.5906 34.8281 57.715 34.321C57.777 34.0686 57.7312 33.9877 57.6692 33.9701C57.6068 33.9526 57.5346 34.1484 57.4922 34.3298C57.4497 34.5112 57.39 34.7002 57.3175 34.9453C57.225 35.2581 57.2258 35.0393 57.2258 35.0393L57.4016 34.1335C57.4208 33.9522 57.4035 33.8498 57.3253 33.8426C57.2104 33.8323 57.1841 34.0885 57.1841 34.0885C57.1841 34.0885 57.0837 34.5081 57.0281 34.7907C56.9522 35.1779 56.8962 34.9954 56.8962 34.9954L57.0473 34.3195C57.1014 34.1022 57.027 34.069 56.9999 34.0602C56.8868 34.0251 56.8553 34.2695 56.8553 34.2695C56.8553 34.2695 56.7655 34.7136 56.7087 34.9194C56.652 35.1248 56.6617 34.9614 56.6617 34.9614C56.6617 34.9614 56.661 34.8919 56.7324 34.5257C56.7591 34.3882 56.7564 34.3176 56.7283 34.3012C56.605 34.2282 56.5471 34.4883 56.5471 34.4883C56.5471 34.4883 56.5295 34.5662 56.4333 34.998C56.4111 35.0969 56.3859 35.4738 56.3859 35.4738C56.3859 35.4738 56.3179 36.1638 56.4607 36.2459L56.2946 36.9725" fill="#F3A187"/>
<path d="M81.5518 52.5098C81.5518 53.0157 81.1482 53.4258 80.6503 53.4258H5.90015C5.40226 53.4258 4.99869 53.0157 4.99869 52.5098C4.99869 52.0038 5.40226 51.5938 5.90015 51.5938H80.6507C81.1486 51.5938 81.5522 52.0038 81.5522 52.5098H81.5518Z" fill="#3B3F49"/>
<path d="M22.1055 51.2184C22.0533 50.856 22.0025 50.8048 21.9097 50.4058C21.534 48.7899 21.5569 48.6956 21.1567 47.5638C20.6114 46.022 21.1946 45.5195 20.082 45.5252C19.6269 45.5275 19.1208 46.8429 19.6112 48.7116C19.8081 49.4615 20.1143 49.809 20.6971 51.6281C20.6971 51.6281 21.6891 51.4841 22.1055 51.2188V51.2184Z" fill="#F3A187"/>
<path d="M19.3135 48.7006C19.3293 48.6968 19.3447 48.6926 19.3601 48.6884C20.1353 48.4718 20.9102 48.5268 21.6914 48.4138C21.7571 48.4043 21.4351 44.5271 19.873 45.1273C19.2493 45.3671 19.0621 46.1564 18.9847 46.7547C18.9366 47.1255 18.724 48.5295 19.1749 48.7009C19.2185 48.7174 19.2669 48.7116 19.3139 48.7009L19.3135 48.7006Z" fill="#E5A369"/>
<path d="M20.924 51.8756C20.6561 51.8061 20.5047 50.9817 20.7715 50.6647C20.9951 50.3994 21.163 50.4276 21.1626 50.4276C23.049 50.4219 24.6235 50.8263 26.0078 51.0523C27.3692 51.2745 26.3851 51.6991 26.3851 51.6991C24.8598 51.9118 23.3988 52.1184 20.924 51.8756Z" fill="#F3A187"/>
<path d="M27.8442 52.4823C27.8442 52.4823 27.8419 52.4819 27.8412 52.4815C27.8138 52.475 27.6109 52.3971 27.568 52.1631V49.9324H27.4087V52.1631C27.3659 52.3971 27.1629 52.475 27.1355 52.4815C27.1344 52.4815 27.1333 52.4819 27.1325 52.4823C27.0307 52.504 26.9672 52.535 26.9672 52.5697C26.9672 52.6358 27.2005 52.6892 27.4887 52.6892C27.7769 52.6892 28.0103 52.6358 28.0103 52.5697C28.0103 52.5354 27.9464 52.5044 27.845 52.4823H27.8442Z" fill="#B1E3FA"/>
<path d="M27.9936 47.1633H26.9816C26.9816 47.1633 26.9816 48.7808 26.9816 49.1531C26.9816 49.5238 27.2511 50.079 27.4874 50.0832C27.7238 50.079 27.9932 49.5242 27.9932 49.1531C27.9932 48.7812 27.9932 47.1633 27.9932 47.1633H27.9936Z" fill="#B1E3FA"/>
<path d="M27.5552 47.8839C27.3839 47.8667 27.2114 47.8464 27.0464 47.8018V49.0855C27.0464 49.4089 27.2817 49.8935 27.488 49.8969C27.6943 49.8931 27.9295 49.4089 27.9295 49.0855V47.9281C27.8059 47.9071 27.6796 47.8961 27.5556 47.8842L27.5552 47.8839Z" fill="#F4C14F"/>
<path d="M27.9295 47.9283C27.819 47.9096 27.7067 47.8989 27.5954 47.8882C27.7161 48.5075 27.6217 49.2147 27.276 49.7493C27.3429 49.8378 27.4173 49.8963 27.4883 49.8974C27.6946 49.8936 27.9299 49.4094 27.9299 49.086V47.9287L27.9295 47.9283Z" fill="#F0A94C"/>
<path opacity="0.6" d="M27.3038 47.2417H27.0464C27.0464 47.2417 27.0464 48.648 27.0464 48.9424C27.0464 49.0505 27.0427 49.149 27.0656 49.262C27.1193 49.5239 27.249 49.7878 27.4177 49.8787C27.4177 49.8787 27.2591 49.4415 27.2696 48.6232C27.2787 47.8958 27.3035 47.2417 27.3035 47.2417H27.3038Z" fill="#DDE8F1"/>
<path d="M27.7461 48.1729C27.7461 48.2011 27.7235 48.224 27.6957 48.224C27.6679 48.224 27.6454 48.2011 27.6454 48.1729C27.6454 48.1446 27.6679 48.1221 27.6957 48.1221C27.7235 48.1221 27.7461 48.145 27.7461 48.1729Z" fill="#DDE8F1"/>
<path d="M27.8468 48.3265C27.8746 48.3265 27.8972 48.3035 27.8972 48.2753C27.8972 48.247 27.8746 48.2241 27.8468 48.2241C27.819 48.2241 27.7965 48.247 27.7965 48.2753C27.7965 48.3035 27.819 48.3265 27.8468 48.3265Z" fill="#DDE8F1"/>
<path d="M27.8972 48.4865C27.8972 48.5147 27.8746 48.5376 27.8468 48.5376C27.819 48.5376 27.7965 48.5147 27.7965 48.4865C27.7965 48.4582 27.819 48.4353 27.8468 48.4353C27.8746 48.4353 27.8972 48.4582 27.8972 48.4865Z" fill="#DDE8F1"/>
<path d="M27.8972 48.0932C27.8972 48.1214 27.8746 48.1443 27.8468 48.1443C27.819 48.1443 27.7965 48.1214 27.7965 48.0932C27.7965 48.0649 27.819 48.042 27.8468 48.042C27.8746 48.042 27.8972 48.0649 27.8972 48.0932Z" fill="#DDE8F1"/>
<path d="M25.9823 51.0458L26.3077 51.05C26.3622 50.8908 26.7616 50.8064 27.0258 50.6964C27.3001 50.5826 27.4004 50.5334 27.6958 50.42C27.8697 50.3532 27.9216 50.4192 27.9051 50.4838C27.8964 50.5177 27.8359 50.5628 27.8359 50.5628C27.4872 50.7396 27.2509 50.8328 27.317 50.9511C27.3745 51.0538 27.7315 50.9958 27.822 50.9943C27.9227 50.9809 27.9543 50.9828 27.9167 51.0008C28.1982 50.9981 28.2102 51.5105 28.1493 51.7133C28.1125 51.8358 28.0279 51.9599 27.9178 52.0268C27.6852 52.168 27.2509 52.0512 26.9998 52.008C26.9998 52.008 26.3238 51.9141 26.2787 51.7534L25.5445 51.7476" fill="#F3A187"/>
<path d="M64.3203 48.7823C64.3725 48.4196 64.4232 48.3688 64.5161 47.9698C64.8918 46.3542 64.8689 46.2595 65.2691 45.1278C65.8143 43.5859 65.2311 43.0834 66.3438 43.0892C66.7988 43.0915 67.305 44.4069 66.8146 46.2756C66.6177 47.0255 66.3115 47.3726 65.729 49.1921C65.729 49.1921 64.737 49.0477 64.3207 48.7827L64.3203 48.7823Z" fill="#F3A187"/>
<path d="M67.2798 46.3379C67.2682 46.6983 67.2637 47.0595 67.2652 47.4192C67.0344 47.4303 64.1568 47.2505 64.1718 47.1581C64.3428 46.1118 64.6998 45.1095 65.0305 44.116C65.248 43.4623 65.6655 42.3507 66.5527 42.6917C67.2437 42.9571 67.4684 43.8567 67.4008 44.5089C67.3381 45.1137 67.299 45.7254 67.2794 46.3375L67.2798 46.3379Z" fill="#2573B2"/>
<path d="M64.2568 46.72C64.2256 46.8655 64.1959 47.0109 64.1718 47.1579C64.1568 47.2503 67.0344 47.4302 67.2652 47.4191C67.2644 47.2419 67.267 47.0644 67.2697 46.8872C66.2637 47.0094 65.2619 46.883 64.2571 46.72H64.2568Z" fill="#DDE8F1"/>
<path d="M65.5017 49.4398C65.7696 49.3703 65.921 48.5455 65.6542 48.229C65.4307 47.9636 65.2627 47.9918 65.2631 47.9918C63.3767 47.9857 61.8022 48.3905 60.4179 48.6161C59.0565 48.8384 60.041 49.263 60.041 49.263C61.5659 49.4757 63.0272 49.6822 65.5021 49.4398H65.5017Z" fill="#F3A187"/>
<path d="M58.5816 50.0462C58.5816 50.0462 58.5838 50.0459 58.5846 50.0455C58.612 50.0394 58.8149 49.9611 58.8577 49.727V47.4963H59.0171V49.727C59.0599 49.9611 59.2628 50.0394 59.2902 50.0455C59.2914 50.0455 59.2925 50.0459 59.2933 50.0462C59.3951 50.068 59.4586 50.0989 59.4586 50.1337C59.4586 50.1997 59.2252 50.2532 58.937 50.2532C58.6488 50.2532 58.4155 50.1997 58.4155 50.1337C58.4155 50.0989 58.4793 50.068 58.5808 50.0462H58.5816Z" fill="#B1E3FA"/>
<path d="M58.4314 44.7273H59.4434C59.4434 44.7273 59.4434 46.3448 59.4434 46.717C59.4434 47.0878 59.1739 47.643 58.9376 47.6472C58.7012 47.643 58.4318 47.0878 58.4318 46.717V44.7273H58.4314Z" fill="#B1E3FA"/>
<path d="M58.8705 45.4478C59.0419 45.431 59.2144 45.4104 59.3793 45.3657C59.3793 45.8083 59.3793 46.4448 59.3793 46.6495C59.3793 46.9729 59.1441 47.4574 58.9378 47.4609C58.7315 47.457 58.4963 46.9729 58.4963 46.6495V45.4921C58.6203 45.4715 58.7462 45.46 58.8705 45.4482V45.4478Z" fill="#F4C14F"/>
<path d="M58.4963 45.492C58.6068 45.4733 58.7191 45.4626 58.8303 45.4519C58.7097 46.0716 58.804 46.7784 59.1501 47.313C59.0832 47.4019 59.0088 47.4596 58.9378 47.4611C58.7315 47.4573 58.4963 46.9731 58.4963 46.6497V45.4924V45.492Z" fill="#F0A94C"/>
<path opacity="0.6" d="M59.1219 44.8056H59.3793C59.3793 44.8056 59.3793 46.2119 59.3793 46.5059C59.3793 46.6139 59.3831 46.7124 59.3602 46.8255C59.3068 47.0874 59.1768 47.3513 59.0081 47.4421C59.0081 47.4421 59.1663 47.0049 59.1561 46.1867C59.1471 45.4589 59.1219 44.8052 59.1219 44.8052V44.8056Z" fill="#DDE8F1"/>
<path d="M58.6796 45.737C58.6796 45.7652 58.7021 45.7881 58.73 45.7881C58.7578 45.7881 58.7803 45.7652 58.7803 45.737C58.7803 45.7087 58.7578 45.6858 58.73 45.6858C58.7021 45.6858 58.6796 45.7087 58.6796 45.737Z" fill="#DDE8F1"/>
<path d="M58.5281 45.8393C58.5281 45.8675 58.5507 45.8904 58.5785 45.8904C58.6063 45.8904 58.6288 45.8675 58.6288 45.8393C58.6288 45.811 58.6063 45.7881 58.5785 45.7881C58.5507 45.7881 58.5281 45.811 58.5281 45.8393Z" fill="#DDE8F1"/>
<path d="M58.5281 46.0504C58.5281 46.0787 58.5507 46.1016 58.5785 46.1016C58.6063 46.1016 58.6288 46.0787 58.6288 46.0504C58.6288 46.0222 58.6063 45.9993 58.5785 45.9993C58.5507 45.9993 58.5281 46.0222 58.5281 46.0504Z" fill="#DDE8F1"/>
<path d="M58.5281 45.6574C58.5281 45.6856 58.5507 45.7085 58.5785 45.7085C58.6063 45.7085 58.6288 45.6856 58.6288 45.6574C58.6288 45.6291 58.6063 45.6062 58.5785 45.6062C58.5507 45.6062 58.5281 45.6291 58.5281 45.6574Z" fill="#DDE8F1"/>
<path d="M60.4435 48.6099L60.1181 48.6141C60.0636 48.4548 59.6641 48.3701 59.4 48.2605C59.1257 48.1467 59.0253 48.0974 58.73 47.984C58.556 47.9172 58.5045 47.9829 58.5207 48.0474C58.5293 48.0814 58.5898 48.1265 58.5898 48.1265C58.9385 48.3032 59.1749 48.3964 59.1091 48.5148C59.0516 48.6175 58.6947 48.5598 58.6041 48.5579C58.5034 48.5446 58.4718 48.5465 58.5094 48.5644C58.2279 48.5618 58.2163 49.0742 58.2768 49.2769C58.3136 49.3999 58.3982 49.5236 58.5083 49.5904C58.7412 49.7317 59.1753 49.6149 59.4263 49.5717C59.4263 49.5717 60.1023 49.4778 60.1474 49.317L60.8816 49.3113" fill="#F3A187"/>
<path style="mix-blend-mode:color-dodge" d="M30.6662 33.0548L37.3936 19.6855C37.3936 19.6855 47.6703 19.5092 47.889 19.6855L55.3334 33.0548" fill="url(#paint0_linear_1183_297)"/>
<path d="M47.889 18.2307H37.3936V19.6071H47.889V18.2307Z" fill="#D76EAB"/>
<path d="M42.6026 19.3275C40.8971 19.4644 39.1435 19.5005 37.3936 19.4732V19.6076H47.889V18.4709C46.3642 18.8345 44.6702 19.1613 42.6026 19.3278V19.3275Z" fill="#AB5EA5"/>
<path d="M41.038 18.2307H39.5802V19.6071H41.038V18.2307Z" fill="#E086B8"/>
<path d="M38.818 18.2307H38.1067V19.6071H38.818V18.2307Z" fill="#E086B8"/>
<path d="M42.7243 0H42.4487V17.0897H42.7243V0Z" fill="#B161A6"/>
<path d="M47.889 18.2307C47.6947 15.9694 45.4238 14.1846 42.6488 14.1846C39.8738 14.1846 37.603 15.9694 37.4086 18.2307H47.8894H47.889Z" fill="#B161A6"/>
<path d="M46.1907 15.815C46.0437 16.0555 45.4561 16.0533 44.8785 15.8103C44.3006 15.5673 43.9513 15.1753 44.0983 14.9348C44.2453 14.6944 44.8326 14.6966 45.4105 14.9392C45.9885 15.1822 46.3377 15.5742 46.1907 15.8147V15.815Z" fill="#D76EAB"/>
<path style="mix-blend-mode:color-dodge" d="M3.30826 34.489L10.0356 21.12C10.0356 21.12 20.3124 20.9433 20.5311 21.12L27.9755 34.489" fill="url(#paint1_linear_1183_297)"/>
<path d="M20.5311 19.6655H10.0356V21.0419H20.5311V19.6655Z" fill="#D76EAB"/>
<path d="M15.2446 20.7618C13.5391 20.8988 11.7856 20.9348 10.0356 20.9075V21.0419H20.5311V19.9053C19.0063 20.2685 17.3123 20.5957 15.2446 20.7621V20.7618Z" fill="#AB5EA5"/>
<path d="M13.68 19.6655H12.2219V21.0419H13.68V19.6655Z" fill="#E086B8"/>
<path d="M11.46 19.6655H10.7487V21.0419H11.46V19.6655Z" fill="#E086B8"/>
<path d="M15.1603 0H14.8846V18.7436H15.1603V0Z" fill="#B161A6"/>
<path d="M20.5311 19.6655C20.3368 17.4042 18.0659 15.6194 15.2909 15.6194C12.5159 15.6194 10.245 17.4042 10.0507 19.6655H20.5314H20.5311Z" fill="#B161A6"/>
<path d="M18.8324 17.2493C18.6854 17.4898 18.0981 17.4876 17.5202 17.2446C16.9422 17.0016 16.593 16.6096 16.74 16.3691C16.887 16.1287 17.4747 16.1309 18.0522 16.3739C18.6302 16.6169 18.9794 17.0089 18.8324 17.2493Z" fill="#D76EAB"/>
<path style="mix-blend-mode:color-dodge" d="M59.3697 34.7891L66.097 21.4202C66.097 21.4202 76.3738 21.2438 76.5925 21.4202L84.0369 34.7891" fill="url(#paint2_linear_1183_297)"/>
<path d="M76.5925 19.9656H66.097V21.3416H76.5925V19.9656Z" fill="#D76EAB"/>
<path d="M71.306 21.0618C69.6005 21.1988 67.847 21.2349 66.097 21.2076V21.342H76.5925V20.2053C75.0677 20.5685 73.3737 20.8957 71.306 21.0622V21.0618Z" fill="#AB5EA5"/>
<path d="M69.7415 19.9656H68.2837V21.3416H69.7415V19.9656Z" fill="#E086B8"/>
<path d="M67.5214 19.9656H66.8101V21.3416H67.5214V19.9656Z" fill="#E086B8"/>
<path d="M71.391 0H71.1154V18.7436H71.391V0Z" fill="#B161A6"/>
<path d="M76.5925 19.9655C76.3982 17.7042 74.1273 15.9194 71.3523 15.9194C68.5773 15.9194 66.3064 17.7042 66.1121 19.9655H76.5928H76.5925Z" fill="#B161A6"/>
<path d="M74.8942 17.5494C74.7472 17.7899 74.1599 17.788 73.582 17.545C73.004 17.302 72.6548 16.91 72.8018 16.6696C72.9488 16.4291 73.5364 16.431 74.114 16.674C74.6919 16.917 75.0412 17.309 74.8942 17.5494Z" fill="#D76EAB"/>
</g>
<defs>
<linearGradient id="paint0_linear_1183_297" x1="42.9998" y1="34.025" x2="42.9998" y2="10.4469" gradientUnits="userSpaceOnUse">
<stop stop-color="white" stop-opacity="0"/>
<stop offset="0.12" stop-color="#FEFEFD" stop-opacity="0.02"/>
<stop offset="0.24" stop-color="#FEFCF8" stop-opacity="0.06"/>
<stop offset="0.36" stop-color="#FEF9EF" stop-opacity="0.14"/>
<stop offset="0.48" stop-color="#FDF5E3" stop-opacity="0.25"/>
<stop offset="0.6" stop-color="#FCF0D3" stop-opacity="0.4"/>
<stop offset="0.71" stop-color="#FAE9BF" stop-opacity="0.57"/>
<stop offset="0.83" stop-color="#F9E2A9" stop-opacity="0.78"/>
<stop offset="0.94" stop-color="#F8DA91"/>
</linearGradient>
<linearGradient id="paint1_linear_1183_297" x1="15.6419" y1="35.4591" x2="15.6419" y2="11.8814" gradientUnits="userSpaceOnUse">
<stop stop-color="white" stop-opacity="0"/>
<stop offset="0.12" stop-color="#FEFEFD" stop-opacity="0.02"/>
<stop offset="0.24" stop-color="#FEFCF8" stop-opacity="0.06"/>
<stop offset="0.36" stop-color="#FEF9EF" stop-opacity="0.14"/>
<stop offset="0.48" stop-color="#FDF5E3" stop-opacity="0.25"/>
<stop offset="0.6" stop-color="#FCF0D3" stop-opacity="0.4"/>
<stop offset="0.71" stop-color="#FAE9BF" stop-opacity="0.57"/>
<stop offset="0.83" stop-color="#F9E2A9" stop-opacity="0.78"/>
<stop offset="0.94" stop-color="#F8DA91"/>
</linearGradient>
<linearGradient id="paint2_linear_1183_297" x1="71.7033" y1="35.7593" x2="71.7033" y2="12.1815" gradientUnits="userSpaceOnUse">
<stop stop-color="white" stop-opacity="0"/>
<stop offset="0.12" stop-color="#FEFEFD" stop-opacity="0.02"/>
<stop offset="0.24" stop-color="#FEFCF8" stop-opacity="0.06"/>
<stop offset="0.36" stop-color="#FEF9EF" stop-opacity="0.14"/>
<stop offset="0.48" stop-color="#FDF5E3" stop-opacity="0.25"/>
<stop offset="0.6" stop-color="#FCF0D3" stop-opacity="0.4"/>
<stop offset="0.71" stop-color="#FAE9BF" stop-opacity="0.57"/>
<stop offset="0.83" stop-color="#F9E2A9" stop-opacity="0.78"/>
<stop offset="0.94" stop-color="#F8DA91"/>
</linearGradient>
</defs>
</svg>
