<svg width="16" height="16" viewBox="0 0 16 16" fill="none" xmlns="http://www.w3.org/2000/svg">
<g clip-path="url(#clip0_349_543)">
<path d="M0.915 8C0.915 11.9069 4.09306 15.085 8 15.085C11.9069 15.085 15.085 11.9069 15.085 8C15.085 4.09306 11.9069 0.915 8 0.915C4.09306 0.915 0.915 4.09306 0.915 8ZM2.085 8C2.085 4.73694 4.73694 2.085 8 2.085C11.2631 2.085 13.915 4.73694 13.915 8C13.915 11.2631 11.2631 13.915 8 13.915C4.73694 13.915 2.085 11.2631 2.085 8Z" fill="#AD00DF" stroke="#AD00DF" stroke-width="0.17"/>
<path d="M5.915 6.5V6.585H6H7H7.085V6.5C7.085 5.99694 7.49694 5.585 8 5.585C8.50306 5.585 8.915 5.99694 8.915 6.5C8.915 6.72464 8.83225 6.88504 8.70273 7.02751C8.60142 7.13895 8.4759 7.23545 8.33714 7.34213C8.29177 7.37701 8.24499 7.41298 8.19717 7.45091C8.00726 7.60157 7.81023 7.77724 7.66167 8.02253C7.51231 8.26913 7.415 8.58086 7.415 9V9.085H7.5H8.5H8.585V9C8.585 8.49441 8.91212 8.2078 9.28436 7.88166C9.29157 7.87534 9.29879 7.86901 9.30603 7.86267C9.68004 7.53479 10.085 7.16693 10.085 6.5C10.085 5.34306 9.15694 4.415 8 4.415C6.84306 4.415 5.915 5.34306 5.915 6.5Z" fill="#AD00DF" stroke="#AD00DF" stroke-width="0.17"/>
<path d="M7.99988 11.705C8.38924 11.705 8.70488 11.3894 8.70488 11C8.70488 10.6106 8.38924 10.295 7.99988 10.295C7.61052 10.295 7.29488 10.6106 7.29488 11C7.29488 11.3894 7.61052 11.705 7.99988 11.705Z" fill="#AD00DF" stroke="#AD00DF" stroke-width="0.17"/>
<path d="M6.5 7.085C6.82309 7.085 7.085 6.82309 7.085 6.5C7.085 6.17691 6.82309 5.915 6.5 5.915C6.17691 5.915 5.915 6.17691 5.915 6.5C5.915 6.82309 6.17691 7.085 6.5 7.085Z" fill="#AD00DF" stroke="#AD00DF" stroke-width="0.17"/>
<path d="M8 9.585C8.32309 9.585 8.585 9.32309 8.585 9C8.585 8.67691 8.32309 8.415 8 8.415C7.67691 8.415 7.415 8.67691 7.415 9C7.415 9.32309 7.67691 9.585 8 9.585Z" fill="#AD00DF" stroke="#AD00DF" stroke-width="0.17"/>
</g>
<defs>
<clipPath id="clip0_349_543">
<rect width="16" height="16" fill="white"/>
</clipPath>
</defs>
</svg>
