<svg width="20" height="20" viewBox="0 0 20 20" fill="none" xmlns="http://www.w3.org/2000/svg">
<path fill-rule="evenodd" clip-rule="evenodd" d="M15.7209 4.26989C16.0851 4.39739 16.3284 4.74072 16.3284 5.12655V10.7707C16.3284 12.3482 15.7551 13.8541 14.7426 15.0207C14.2334 15.6082 13.5892 16.0657 12.9051 16.4357L9.94008 18.0374L6.97008 16.4349C6.28508 16.0649 5.64008 15.6082 5.13008 15.0199C4.11675 13.8532 3.54175 12.3466 3.54175 10.7674V5.12655C3.54175 4.74072 3.78508 4.39739 4.14925 4.26989L9.63425 2.34239C9.82925 2.27405 10.0417 2.27405 10.2359 2.34239L15.7209 4.26989Z" stroke="#AD00DF" stroke-width="1.5" stroke-linecap="round" stroke-linejoin="round"/>
<path d="M7.7688 9.93152L9.34547 11.509L12.5938 8.26068" stroke="#AD00DF" stroke-width="1.5" stroke-linecap="round" stroke-linejoin="round"/>
</svg>
