<svg width="24" height="24" viewBox="0 0 24 24" fill="none" xmlns="http://www.w3.org/2000/svg">
<rect x="0.5" y="0.5" width="23" height="23" stroke="black"/>
<path d="M13 13V18C13 18.5523 12.5523 19 12 19C11.4477 19 11 18.5523 11 18V13H6C5.44772 13 5 12.5523 5 12C5 11.4477 5.44772 11 6 11H11V6C11 5.44772 11.4477 5 12 5C12.5523 5 13 5.44772 13 6V11H18C18.5523 11 19 11.4477 19 12C19 12.5523 18.5523 13 18 13H13Z" fill="#333333"/>
<path d="M13 13V18C13 18.5523 12.5523 19 12 19C11.4477 19 11 18.5523 11 18V13H6C5.44772 13 5 12.5523 5 12C5 11.4477 5.44772 11 6 11H11V6C11 5.44772 11.4477 5 12 5C12.5523 5 13 5.44772 13 6V11H18C18.5523 11 19 11.4477 19 12C19 12.5523 18.5523 13 18 13H13Z" fill="black" fill-opacity="0.2"/>
</svg>
