<svg width="24" height="24" viewBox="0 0 24 24" fill="none" xmlns="http://www.w3.org/2000/svg">
<path fill-rule="evenodd" clip-rule="evenodd" d="M9.39275 4.19334H8.52534V9.05736C8.52541 9.34944 8.41831 9.63138 8.22434 9.84975C7.3008 10.8886 6.79061 12.2303 6.79051 13.6204V19.5713C6.79051 19.7014 6.8959 19.8068 7.02601 19.8068H10.8921C11.0222 19.8068 11.1276 19.7014 11.1276 19.5713V13.6204C11.1276 12.2304 10.6175 10.8885 9.69418 9.84975C9.50005 9.63145 9.3928 9.34949 9.39275 9.05736V4.19334ZM9.39275 3.32593C9.6228 3.32593 9.84343 3.41732 10.0061 3.57999C10.1688 3.74266 10.2602 3.96329 10.2602 4.19334V9.05736C10.2602 9.13717 10.2892 9.2135 10.3426 9.27335C11.4071 10.4711 11.9951 12.0179 11.995 13.6204V19.5713C11.995 19.8638 11.8788 20.1443 11.672 20.3512C11.4651 20.558 11.1846 20.6742 10.8921 20.6742H7.02601C6.88118 20.6742 6.73776 20.6457 6.60394 20.5902C6.47013 20.5348 6.34855 20.4536 6.24613 20.3512C6.14372 20.2487 6.06248 20.1272 6.00705 19.9934C5.95162 19.8595 5.9231 19.7161 5.9231 19.5713V13.6204C5.92314 12.0179 6.5111 10.4712 7.57552 9.27335C7.62851 9.21387 7.65783 9.13702 7.65792 9.05736V4.19334C7.65792 3.96329 7.74931 3.74266 7.91198 3.57999C8.07465 3.41732 8.29528 3.32593 8.52534 3.32593H9.39275Z" fill="#E71D72"/>
<path fill-rule="evenodd" clip-rule="evenodd" d="M11.1276 14.6024H6.79051V17.2047H11.1276V14.6024ZM5.9231 13.735V18.0721H11.995V13.735H5.9231ZM14.1631 9.39793L13.8062 12.7583C13.7811 12.991 13.8054 13.2264 13.8774 13.4492C13.9493 13.6719 14.0673 13.877 14.2238 14.0512C14.3802 14.2253 14.5715 14.3646 14.7853 14.4599C14.9991 14.5552 15.2306 14.6045 15.4646 14.6045C15.6987 14.6045 15.9302 14.5552 16.144 14.4599C16.3578 14.3646 16.5491 14.2253 16.7055 14.0512C16.8619 13.877 16.98 13.6719 17.0519 13.4492C17.1239 13.2264 17.1481 12.991 17.1231 12.7583L16.7662 9.39793H14.1631ZM17.5464 8.53052H13.3829L12.9435 12.6663C12.9058 13.02 12.9429 13.3776 13.0524 13.716C13.1619 14.0544 13.3413 14.3659 13.5791 14.6304C13.8169 14.8949 14.1076 15.1064 14.4325 15.2512C14.7573 15.396 15.109 15.4708 15.4646 15.4708C15.8203 15.4708 16.172 15.396 16.4968 15.2512C16.8217 15.1064 17.1124 14.8949 17.3502 14.6304C17.588 14.3659 17.7674 14.0544 17.8769 13.716C17.9864 13.3776 18.0235 13.02 17.9858 12.6663L17.5464 8.53052Z" fill="#E71D72"/>
<path fill-rule="evenodd" clip-rule="evenodd" d="M15.031 20.2406V15.0361H15.8984V20.2406H15.031Z" fill="#E71D72"/>
<path fill-rule="evenodd" clip-rule="evenodd" d="M13.2961 20.2404C13.2961 20.1254 13.3418 20.0151 13.4232 19.9338C13.5045 19.8524 13.6148 19.8067 13.7298 19.8067H17.1995C17.3145 19.8067 17.4248 19.8524 17.5062 19.9338C17.5875 20.0151 17.6332 20.1254 17.6332 20.2404C17.6332 20.3555 17.5875 20.4658 17.5062 20.5471C17.4248 20.6284 17.3145 20.6741 17.1995 20.6741H13.7298C13.6148 20.6741 13.5045 20.6284 13.4232 20.5471C13.3418 20.4658 13.2961 20.3555 13.2961 20.2404ZM17.4164 12.8674H13.513V12H17.4164V12.8674Z" fill="#E71D72"/>
</svg>
