<svg width="16" height="18" viewBox="0 0 16 18" fill="none" xmlns="http://www.w3.org/2000/svg">
<path d="M1 6.33333V15.2222C1 15.6937 1.18437 16.1459 1.51256 16.4793C1.84075 16.8127 2.28587 17 2.75 17H13.25C13.7141 17 14.1592 16.8127 14.4874 16.4793C14.8156 16.1459 15 15.6937 15 15.2222V6.33333M1 6.33333V4.55556C1 4.08406 1.18437 3.63187 1.51256 3.29848C1.84075 2.96508 2.28587 2.77778 2.75 2.77778H4.5M1 6.33333H15M15 6.33333V4.55556C15 4.08406 14.8156 3.63187 14.4874 3.29848C14.1592 2.96508 13.7141 2.77778 13.25 2.77778H11.5M4.5 2.77778H11.5M4.5 2.77778V1M11.5 2.77778V1" stroke="#828282" stroke-width="1.8" stroke-linecap="round" stroke-linejoin="round"/>
</svg>
