<svg width="24" height="24" viewBox="0 0 24 24" fill="none" xmlns="http://www.w3.org/2000/svg">
<path fill-rule="evenodd" clip-rule="evenodd" d="M6.4 6.6C5.95817 6.6 5.6 6.95817 5.6 7.4V18.6C5.6 19.0418 5.95817 19.4 6.4 19.4H17.6C18.0418 19.4 18.4 19.0418 18.4 18.6V7.4C18.4 6.95817 18.0418 6.6 17.6 6.6H6.4ZM4 7.4C4 6.07452 5.07452 5 6.4 5H17.6C18.9255 5 20 6.07452 20 7.4V18.6C20 19.9255 18.9255 21 17.6 21H6.4C5.07452 21 4 19.9255 4 18.6V7.4Z" fill="#333333"/>
<path fill-rule="evenodd" clip-rule="evenodd" d="M6.4 6.6C5.95817 6.6 5.6 6.95817 5.6 7.4V18.6C5.6 19.0418 5.95817 19.4 6.4 19.4H17.6C18.0418 19.4 18.4 19.0418 18.4 18.6V7.4C18.4 6.95817 18.0418 6.6 17.6 6.6H6.4ZM4 7.4C4 6.07452 5.07452 5 6.4 5H17.6C18.9255 5 20 6.07452 20 7.4V18.6C20 19.9255 18.9255 21 17.6 21H6.4C5.07452 21 4 19.9255 4 18.6V7.4Z" fill="black" fill-opacity="0.2"/>
<path fill-rule="evenodd" clip-rule="evenodd" d="M15 3C15.5523 3 16 3.3731 16 3.83333V7.16667C16 7.6269 15.5523 8 15 8C14.4477 8 14 7.6269 14 7.16667V3.83333C14 3.3731 14.4477 3 15 3Z" fill="#333333"/>
<path fill-rule="evenodd" clip-rule="evenodd" d="M15 3C15.5523 3 16 3.3731 16 3.83333V7.16667C16 7.6269 15.5523 8 15 8C14.4477 8 14 7.6269 14 7.16667V3.83333C14 3.3731 14.4477 3 15 3Z" fill="black" fill-opacity="0.2"/>
<path fill-rule="evenodd" clip-rule="evenodd" d="M9 3C9.55228 3 10 3.3731 10 3.83333V7.16667C10 7.6269 9.55228 8 9 8C8.44772 8 8 7.6269 8 7.16667V3.83333C8 3.3731 8.44772 3 9 3Z" fill="#333333"/>
<path fill-rule="evenodd" clip-rule="evenodd" d="M9 3C9.55228 3 10 3.3731 10 3.83333V7.16667C10 7.6269 9.55228 8 9 8C8.44772 8 8 7.6269 8 7.16667V3.83333C8 3.3731 8.44772 3 9 3Z" fill="black" fill-opacity="0.2"/>
<path fill-rule="evenodd" clip-rule="evenodd" d="M4 11C4 10.4477 4.35817 10 4.8 10H19.2C19.6418 10 20 10.4477 20 11C20 11.5523 19.6418 12 19.2 12H4.8C4.35817 12 4 11.5523 4 11Z" fill="#333333"/>
<path fill-rule="evenodd" clip-rule="evenodd" d="M4 11C4 10.4477 4.35817 10 4.8 10H19.2C19.6418 10 20 10.4477 20 11C20 11.5523 19.6418 12 19.2 12H4.8C4.35817 12 4 11.5523 4 11Z" fill="black" fill-opacity="0.2"/>
</svg>
