<svg width="133" height="174" viewBox="0 0 133 174" fill="none" xmlns="http://www.w3.org/2000/svg">
<g opacity="0.5">
<g clip-path="url(#clip0_1276_3088)">
<path d="M1.85933 116.14C0.859059 116.517 0.353038 117.069 0 118.187C0.6237 119.128 1.2121 119.728 2.02408 120.022C2.98905 119.281 3.82458 119.069 5.29557 118.834C3.83634 118.01 2.96552 117.446 1.84756 116.128L1.85933 116.14Z" fill="url(#paint0_linear_1276_3088)"/>
<path d="M76.0118 131.012C76.1059 132.447 76.306 133.329 76.7531 134.458C77.624 134.046 78.0947 133.635 78.4477 133.141C78.0241 132.529 77.9652 131.941 77.9535 131.035C77.1768 131.329 76.7061 131.294 76 131L76.0118 131.012Z" fill="url(#paint1_linear_1276_3088)"/>
<path d="M73.5615 87.7109C74.1499 88.3343 74.3735 88.8519 74.2323 89.8752C75.3032 89.5106 75.9151 89.0283 76.9742 88.0638C77.0566 87.264 76.8565 86.8523 76.2328 86.1936C75.3149 87.0052 74.5971 87.5345 73.5615 87.7109Z" fill="url(#paint2_linear_1276_3088)"/>
<path d="M60.7195 150.74C61.5315 149.281 61.8021 148.387 61.4138 146.646C58.7425 145.894 57.2009 145.259 54.7885 144C54.659 144.988 54.3648 145.658 54 146.152C56.8125 147.505 58.3777 148.705 60.7313 150.74H60.7195Z" fill="url(#paint3_linear_1276_3088)"/>
<path d="M42.2469 121.586C41.6232 121.186 41.1643 120.716 40.6465 119.975C39.7403 121.61 39.0578 122.656 38.0811 123.691C38.4106 124.609 38.8107 124.985 39.4461 125.409C40.1993 124.691 41.2349 123.292 42.2469 121.598V121.586Z" fill="url(#paint4_linear_1276_3088)"/>
<path d="M67.6304 64.8921C68.4188 66.0096 68.6424 66.8917 68.1717 68.4443C69.9369 68.1268 71.0195 67.5034 72.9142 66.2448C73.2437 65.0098 73.0083 64.3158 72.1846 63.1278C70.5488 64.1982 69.3014 64.8451 67.6304 64.8921Z" fill="url(#paint5_linear_1276_3088)"/>
<path d="M88.9301 41.6736C90.5423 42.1676 91.5779 42.2029 93.4255 41.6971C92.6959 39.721 92.6488 38.439 92.9783 36.9922C91.5073 36.4158 90.4129 36.2747 88.7065 36.2629C89.1537 38.1214 89.1537 39.5211 88.9184 41.6618L88.9301 41.6736Z" fill="url(#paint6_linear_1276_3088)"/>
<path d="M49.4843 37.8744C50.7081 37.4745 51.3318 37.1216 52.0261 35.9336C50.92 34.1105 50.3786 32.9343 49.6843 30.97C49.0959 31.464 48.5781 31.6757 48.1074 31.7698C48.9782 34.0164 49.2371 35.4984 49.4843 37.8862V37.8744Z" fill="url(#paint7_linear_1276_3088)"/>
<path d="M41.0584 71.4084C41.0231 72.3729 40.7289 72.9023 40.1641 73.6197C41.7057 73.9726 43.2826 74.1373 43.9886 73.9844C44.1769 73.2551 44.1769 72.5964 44.0357 71.6907C43.2237 71.8672 42.4117 71.7143 41.0584 71.4084Z" fill="url(#paint8_linear_1276_3088)"/>
<path d="M38.175 151.886C37.7867 151.662 37.5042 151.368 37.3513 150.78C36.0803 151.556 35.3742 152.215 34.3857 153.238C34.727 154.038 35.0918 154.391 35.3742 154.614C36.1509 153.309 36.9158 152.697 38.1632 151.886H38.175Z" fill="url(#paint9_linear_1276_3088)"/>
<path d="M53.297 99.9671C54.3209 99.5201 55.533 99.4966 58.0866 100.426C58.3102 99.2731 58.1807 98.2027 57.5923 96.8618C55.5918 96.4266 54.3679 96.3325 52.438 96.7795C53.1088 97.7793 53.2382 98.5321 53.2853 99.9671H53.297Z" fill="url(#paint10_linear_1276_3088)"/>
<path d="M3.30664 81.9474C3.30664 82.7472 3.42432 83.2295 3.9068 84.0058C4.70702 83.4059 5.29542 83.2059 5.98973 83.1706C6.04857 82.4179 5.96619 81.9003 5.7426 81.124C4.95415 81.5827 4.31868 81.7709 3.30664 81.9474Z" fill="url(#paint11_linear_1276_3088)"/>
<path d="M51.9199 111.8C51.4728 112.2 51.3669 112.659 51.2139 113.411C52.8849 113.67 54.5677 114.435 56.4506 115.505C56.6036 114.905 56.8389 114.564 57.3332 114.094C55.415 112.835 54.2265 112.306 51.9082 111.8H51.9199Z" fill="url(#paint12_linear_1276_3088)"/>
<path d="M99.2271 42.0735C99.2506 43.0615 99.5683 43.6496 100.439 44.2966C101.439 44.0378 102.134 43.7202 102.64 43.1086C102.298 42.0617 102.369 41.2619 102.616 39.921C101.463 40.9208 100.71 41.5089 99.2388 42.0735H99.2271Z" fill="url(#paint13_linear_1276_3088)"/>
<path d="M32.3736 105.307C32.2324 104.625 32.2912 104.178 32.8208 103.531C31.9382 103.331 31.3027 103.402 30.1612 103.613C29.7611 104.131 29.7258 104.496 29.8788 105.213C30.8555 105.037 31.5734 104.99 32.3618 105.295L32.3736 105.307Z" fill="url(#paint14_linear_1276_3088)"/>
<path d="M81 156.87C81.7061 157.541 81.9885 158.129 81.8708 159.281C83.0594 158.811 83.7302 158.223 84.8834 157.082C84.9423 156.176 84.6834 155.717 83.942 155C82.9417 155.976 82.165 156.6 81 156.87Z" fill="url(#paint15_linear_1276_3088)"/>
<path d="M104.264 131.513C104.04 130.537 103.758 129.773 103.181 129.161C102.522 129.279 102.134 129.478 101.769 129.843C102.405 130.643 102.64 131.172 102.816 132.172C103.299 131.678 103.664 131.466 104.264 131.513Z" fill="url(#paint16_linear_1276_3088)"/>
<path d="M99.8711 161C99.4475 161.553 98.9297 161.929 98 162.059C98.9532 164.176 99.824 165.399 101.224 167.116C102.519 166.752 103.143 166.258 103.554 165.846C101.695 164.388 100.895 163.082 99.8829 161H99.8711Z" fill="url(#paint17_linear_1276_3088)"/>
<path d="M84.7998 96.509C86.4238 96.6502 87.2476 96.8266 88.3773 97.6029C88.6127 97.003 88.848 96.6619 89.2246 96.4972C88.0478 95.568 87.0593 95.2387 85.3529 94.9329C84.9999 95.4269 84.8469 95.9444 84.7881 96.509H84.7998Z" fill="url(#paint18_linear_1276_3088)"/>
<path d="M109.889 72.9375C109.747 73.7726 109.795 74.3019 110.171 75.1841C111.113 74.6901 111.748 74.5842 112.489 74.6548C112.678 73.8785 112.678 73.3256 112.572 72.4788C111.666 72.8199 110.971 72.914 109.889 72.9375Z" fill="url(#paint19_linear_1276_3088)"/>
<path d="M110.756 59.9395V63.5858C110.72 63.1388 110.638 62.7154 110.497 62.3037C109.426 59.0456 105.389 57.0813 101 55.6581V52C105.943 53.5997 110.438 55.8933 110.756 59.9277V59.9395Z" fill="url(#paint20_linear_1276_3088)"/>
<path d="M104.966 90.439C104.742 90.0508 104.613 89.6627 104.566 89.2275C104.507 88.6276 104.613 87.9336 104.872 87.0397C105.672 84.5343 107.978 82.8406 109.037 80.9939C109.379 81.5702 109.543 82.0995 109.579 82.6053C109.779 85.3342 106.143 87.2044 104.954 90.4272L104.966 90.439Z" fill="url(#paint21_linear_1276_3088)"/>
<path d="M109.602 68.1613C108.578 70.1844 106.672 71.9723 105.636 73.9248C105.283 73.5484 105.048 73.1485 105.013 72.5957C105.013 72.4663 105.013 72.3251 105.013 72.1722C105.036 71.8429 105.13 71.4665 105.283 71.0195C106.06 68.7376 108.437 66.7851 109.602 64.5032C110.014 63.7269 110.308 62.9977 110.497 62.3037C110.626 62.7036 110.72 63.1388 110.755 63.5858C110.861 64.9032 110.52 66.4205 109.602 68.1495V68.1613Z" fill="url(#paint22_linear_1276_3088)"/>
<path d="M109.591 78.9591V82.6054C109.555 82.0996 109.391 81.5703 109.049 80.9939C108.802 80.5587 108.449 80.1118 107.99 79.6295C106.484 78.0887 105.036 77.6652 104.966 76.2655V75.9479L105.013 72.5957C105.048 73.1485 105.284 73.5484 105.637 73.9248C106.19 74.5129 107.061 75.0305 107.99 75.9832C109.073 77.1242 109.532 78.0887 109.591 78.9708V78.9591Z" fill="url(#paint23_linear_1276_3088)"/>
<path d="M111.709 97.7786V101.437C110.391 97.755 109.038 98.0256 106.649 95.9789C105.072 94.5675 104.401 93.6735 104.566 92.0974V89.2274C104.601 89.6626 104.731 90.0625 104.954 90.4389C105.295 91.0388 105.86 91.6152 106.649 92.3209C109.038 94.3675 110.391 94.097 111.709 97.7786Z" fill="url(#paint24_linear_1276_3088)"/>
<path d="M61.4639 4.34695e-05V3.51695C57.0509 4.82255 45.942 9.3863 43.7414 14.6205C43.4942 15.2086 43.353 15.8085 43.353 16.4083V12.8914C43.353 6.91623 56.5449 1.4468 61.4521 -0.0117188L61.4639 4.34695e-05Z" fill="url(#paint25_linear_1276_3088)"/>
<path d="M58.7923 71.432V74.9489C52.9907 73.1611 50.6725 70.4205 50.7784 67.4211C50.8019 66.8801 50.896 66.3508 51.0608 65.8097C51.8375 68.0328 54.2499 70.0206 58.7923 71.4203V71.432Z" fill="url(#paint26_linear_1276_3088)"/>
<path d="M62.8407 27.6766V27.7354C62.8407 28.3117 62.6289 28.8528 62.2641 29.3586C58.8632 23.0187 45.942 23.4187 43.6708 17.9963C43.4589 17.467 43.353 16.9494 43.353 16.4319C43.353 15.832 43.4825 15.2322 43.7414 14.644C46.3068 20.1252 60.0046 19.5254 62.6524 26.7003C62.7819 27.0532 62.8407 27.3825 62.8525 27.7001L62.8407 27.6766Z" fill="url(#paint27_linear_1276_3088)"/>
<path d="M62.7468 50.4835C62.6644 50.954 62.4173 51.3892 62.0407 51.7891C61.9584 51.6715 61.8642 51.5539 61.7583 51.4363C59.3812 48.7192 53.7561 47.59 51.379 44.8847C50.4964 43.9084 50.1081 43.0498 50.0728 42.2735V42.0618C50.0963 41.4972 50.3199 40.9679 50.6847 40.4739C50.873 40.7562 51.0966 41.062 51.379 41.3678C53.7561 44.0849 59.3812 45.2141 61.7583 47.9194C62.3349 48.6016 62.6527 49.2132 62.735 49.766C62.7821 50.013 62.7821 50.26 62.735 50.4835H62.7468Z" fill="url(#paint28_linear_1276_3088)"/>
<path d="M56.1332 59.3522C53.556 61.3989 51.7437 63.6454 51.073 65.8215C50.9082 66.3625 50.8141 66.8918 50.7905 67.4211L50.8141 64.6217V63.5278C51.0847 60.9754 53.0617 58.2701 56.1214 55.8353C58.1572 54.2827 60.7815 53.1771 62.0407 51.7891C62.4055 51.3774 62.6644 50.954 62.7467 50.4835V53.2712C63.1822 55.8 59.0516 57.1174 56.1332 59.3522Z" fill="url(#paint29_linear_1276_3088)"/>
<path d="M62.8408 27.7236V31.0171V31.4052C62.5348 35.2985 53.2029 37.1099 50.6963 40.4739C50.3315 40.9679 50.1079 41.4854 50.0844 42.0618V38.7684C49.9079 34.6633 59.7694 32.8637 62.2759 29.3586C62.6407 28.8528 62.8408 28.3235 62.8526 27.7354L62.8408 27.7236Z" fill="url(#paint30_linear_1276_3088)"/>
<path d="M36.2803 60.0344L36.2215 62.8456C36.2097 63.3631 36.0332 63.916 35.6566 64.5158C34.3975 66.6448 28.4547 66.7389 25.4892 68.4915C25.1244 68.7032 24.8302 68.9267 24.6066 69.1619C24.1947 69.5853 24.0064 70.0205 23.9946 70.4675L24.0535 67.6446C24.077 66.9506 24.5124 66.2919 25.548 65.6803C28.5253 63.9277 34.4563 63.8454 35.7155 61.7047C35.7743 61.6106 35.8214 61.5282 35.8685 61.4341C36.1391 60.9284 36.2686 60.4696 36.2803 60.0344Z" fill="url(#paint31_linear_1276_3088)"/>
<path d="M32.5264 115.646L32.4675 118.457C31.5967 117.634 31.2672 116.728 31.2907 115.764V115.74C31.3025 115.258 31.4084 114.776 31.5732 114.282C31.7614 114.752 32.0674 115.211 32.5264 115.646Z" fill="url(#paint32_linear_1276_3088)"/>
<path d="M36.2803 59.9521V60.0344C36.2685 60.4696 36.139 60.9401 35.8684 61.4341C34.5504 58.9758 29.902 57.1879 28.3369 53.9651L28.3958 51.1539C30.2198 54.9296 36.292 56.7292 36.2685 59.9521H36.2803Z" fill="url(#paint33_linear_1276_3088)"/>
<path d="M36.5274 102.378C36.4921 102.731 36.4097 103.119 36.2685 103.543C35.3153 101.12 31.479 100.367 29.0783 98.0852C27.7368 96.7678 27.1719 95.474 27.1602 94.2625C27.1602 94.1684 27.1602 94.0861 27.1602 93.992C27.1837 93.5568 27.2778 93.1451 27.4426 92.7334C27.725 93.5568 28.2663 94.4154 29.1489 95.274C32.0321 97.9911 36.9511 98.5439 36.5392 102.378H36.5274Z" fill="url(#paint34_linear_1276_3088)"/>
<path d="M36.492 104.731C36.492 105.248 36.3978 105.825 36.1742 106.46C35.4681 108.554 32.5144 111.494 31.573 114.282C31.4082 114.776 31.3023 115.27 31.2905 115.74L31.3494 112.929C31.4553 109.765 35.3975 106.119 36.2331 103.649C36.2448 103.613 36.2566 103.578 36.2684 103.543C36.4096 103.119 36.492 102.743 36.5273 102.378L36.492 104.731Z" fill="url(#paint35_linear_1276_3088)"/>
<path d="M39.3987 81.2887L39.3399 83.9234V84.2293C39.3399 84.3233 39.3164 84.4057 39.3046 84.488C38.8457 86.8287 35.3977 87.2521 33.3618 88.0873C30.6199 89.0047 28.2545 90.6749 27.4543 92.7216C27.3013 93.1215 27.1954 93.5449 27.1719 93.9801L27.2307 91.169C27.3837 88.5578 30.1374 86.3817 33.4206 85.2761C35.1623 84.5586 37.916 84.1469 38.9869 82.5943C39.1752 82.3238 39.3046 82.018 39.3752 81.6769C39.3987 81.5475 39.4105 81.4181 39.4105 81.2887H39.3987Z" fill="url(#paint36_linear_1276_3088)"/>
<path d="M39.3988 81.2417V81.3005C39.3988 81.4299 39.3752 81.5593 39.3517 81.6887C39.2811 82.0298 39.1517 82.3356 38.9634 82.6061C38.0925 80.8771 35.8449 79.395 34.3621 78.5482C30.8435 76.5486 23.924 73.2669 23.9828 70.4558C23.9828 70.0088 24.1829 69.5618 24.5947 69.1501C26.2893 71.5614 31.5143 74.0785 34.4209 75.737C36.3038 76.8191 39.4105 78.901 39.387 81.2417H39.3988Z" fill="url(#paint37_linear_1276_3088)"/>
</g>
<path d="M129.13 94.4224C130.495 93.8696 131.225 93.3167 132.213 91.9523C130.625 91.0113 129.883 90.1645 129.307 89C127.989 89.4234 127.165 89.9292 126 90.8702C127.33 91.8935 128.106 92.8345 129.13 94.4224Z" fill="url(#paint38_linear_1276_3088)"/>
<path d="M125.012 170.129C125.73 171.117 126.141 172.128 126.471 173.587C128.86 171.634 130.566 170.446 132.696 169.47C132.755 167.847 132.367 167.035 131.649 166C130.06 166.635 127.601 168.141 125 170.129H125.012Z" fill="url(#paint39_linear_1276_3088)"/>
<path d="M131.495 121.139C130.448 120.963 129.307 120.868 128.2 121.398C127.847 122.209 127.577 122.739 127 123.456C127.788 123.397 128.212 123.727 128.859 124.632C129.412 123.397 130.295 122.433 131.495 121.127V121.139Z" fill="url(#paint40_linear_1276_3088)"/>
</g>
<defs>
<linearGradient id="paint0_linear_1276_3088" x1="2.26037" y1="117.861" x2="-0.366947" y2="120.845" gradientUnits="userSpaceOnUse">
<stop stop-color="#FF5C5C"/>
<stop offset="0.3" stop-color="#F34444"/>
<stop offset="0.93" stop-color="#D60606"/>
<stop offset="1" stop-color="#D30000"/>
</linearGradient>
<linearGradient id="paint1_linear_1276_3088" x1="78.6132" y1="144.853" x2="81.0911" y2="144.126" gradientUnits="userSpaceOnUse">
<stop stop-color="#FF5C5C"/>
<stop offset="0.3" stop-color="#F34444"/>
<stop offset="0.93" stop-color="#D60606"/>
<stop offset="1" stop-color="#D30000"/>
</linearGradient>
<linearGradient id="paint2_linear_1276_3088" x1="74.6747" y1="92.7899" x2="76.0441" y2="95.3629" gradientUnits="userSpaceOnUse">
<stop stop-color="#FF5C5C"/>
<stop offset="0.3" stop-color="#F34444"/>
<stop offset="0.93" stop-color="#D60606"/>
<stop offset="1" stop-color="#D30000"/>
</linearGradient>
<linearGradient id="paint3_linear_1276_3088" x1="50.1114" y1="133.468" x2="48.6032" y2="137.776" gradientUnits="userSpaceOnUse">
<stop stop-color="#FF5C5C"/>
<stop offset="0.3" stop-color="#F34444"/>
<stop offset="0.93" stop-color="#D60606"/>
<stop offset="1" stop-color="#D30000"/>
</linearGradient>
<linearGradient id="paint4_linear_1276_3088" x1="49.3716" y1="125.299" x2="52.2685" y2="127.502" gradientUnits="userSpaceOnUse">
<stop stop-color="#FC9512"/>
<stop offset="0.68" stop-color="#FED319"/>
<stop offset="1" stop-color="#FFEB1C"/>
</linearGradient>
<linearGradient id="paint5_linear_1276_3088" x1="71.6692" y1="62.0891" x2="73.2097" y2="66.4358" gradientUnits="userSpaceOnUse">
<stop stop-color="#FC9512"/>
<stop offset="0.68" stop-color="#FED319"/>
<stop offset="1" stop-color="#FFEB1C"/>
</linearGradient>
<linearGradient id="paint6_linear_1276_3088" x1="87.5775" y1="56.8731" x2="92.8482" y2="56.7154" gradientUnits="userSpaceOnUse">
<stop stop-color="#FC9512"/>
<stop offset="0.68" stop-color="#FED319"/>
<stop offset="1" stop-color="#FFEB1C"/>
</linearGradient>
<linearGradient id="paint7_linear_1276_3088" x1="51.6873" y1="35.1114" x2="48.5689" y2="36.752" gradientUnits="userSpaceOnUse">
<stop stop-color="#FC9512"/>
<stop offset="0.68" stop-color="#FED319"/>
<stop offset="1" stop-color="#FFEB1C"/>
</linearGradient>
<linearGradient id="paint8_linear_1276_3088" x1="50.1843" y1="72.3661" x2="49.7202" y2="75.6375" gradientUnits="userSpaceOnUse">
<stop stop-color="#FF3EB9"/>
<stop offset="0.04" stop-color="#FF43BB"/>
<stop offset="0.7" stop-color="#FF97E2"/>
<stop offset="1" stop-color="#FFB9F2"/>
</linearGradient>
<linearGradient id="paint9_linear_1276_3088" x1="55.8378" y1="163.361" x2="54.3112" y2="161.65" gradientUnits="userSpaceOnUse">
<stop stop-color="#FF3EB9"/>
<stop offset="0.04" stop-color="#FF43BB"/>
<stop offset="0.7" stop-color="#FF97E2"/>
<stop offset="1" stop-color="#FFB9F2"/>
</linearGradient>
<linearGradient id="paint10_linear_1276_3088" x1="51.8728" y1="83.9101" x2="51.9308" y2="78.4394" gradientUnits="userSpaceOnUse">
<stop stop-color="#FF3EB9"/>
<stop offset="0.04" stop-color="#FF43BB"/>
<stop offset="0.7" stop-color="#FF97E2"/>
<stop offset="1" stop-color="#FFB9F2"/>
</linearGradient>
<linearGradient id="paint11_linear_1276_3088" x1="5.11625" y1="85.5913" x2="5.89763" y2="87.9644" gradientUnits="userSpaceOnUse">
<stop stop-color="#FF3EB9"/>
<stop offset="0.04" stop-color="#FF43BB"/>
<stop offset="0.7" stop-color="#FF97E2"/>
<stop offset="1" stop-color="#FFB9F2"/>
</linearGradient>
<linearGradient id="paint12_linear_1276_3088" x1="57.856" y1="111.109" x2="56.4278" y2="113.671" gradientUnits="userSpaceOnUse">
<stop stop-color="#FF3EB9"/>
<stop offset="0.04" stop-color="#FF43BB"/>
<stop offset="0.7" stop-color="#FF97E2"/>
<stop offset="1" stop-color="#FFB9F2"/>
</linearGradient>
<linearGradient id="paint13_linear_1276_3088" x1="100.353" y1="43.7221" x2="102.12" y2="46.8973" gradientUnits="userSpaceOnUse">
<stop stop-color="#00EE98"/>
<stop offset="0.28" stop-color="#00D685"/>
<stop offset="0.87" stop-color="#009854"/>
<stop offset="1" stop-color="#008A49"/>
</linearGradient>
<linearGradient id="paint14_linear_1276_3088" x1="50.2954" y1="122.561" x2="50.4492" y2="120.211" gradientUnits="userSpaceOnUse">
<stop stop-color="#00EE98"/>
<stop offset="0.28" stop-color="#00D685"/>
<stop offset="0.87" stop-color="#009854"/>
<stop offset="1" stop-color="#008A49"/>
</linearGradient>
<linearGradient id="paint15_linear_1276_3088" x1="83.7418" y1="145.755" x2="85.4115" y2="148.584" gradientUnits="userSpaceOnUse">
<stop stop-color="#00EE98"/>
<stop offset="0.28" stop-color="#00D685"/>
<stop offset="0.87" stop-color="#009854"/>
<stop offset="1" stop-color="#008A49"/>
</linearGradient>
<linearGradient id="paint16_linear_1276_3088" x1="72.2699" y1="112.377" x2="70.6603" y2="113.182" gradientUnits="userSpaceOnUse">
<stop stop-color="#00EE98"/>
<stop offset="0.28" stop-color="#00D685"/>
<stop offset="0.87" stop-color="#009854"/>
<stop offset="1" stop-color="#008A49"/>
</linearGradient>
<linearGradient id="paint17_linear_1276_3088" x1="99.5636" y1="164.646" x2="96.6389" y2="166.676" gradientUnits="userSpaceOnUse">
<stop stop-color="#00EE98"/>
<stop offset="0.28" stop-color="#00D685"/>
<stop offset="0.87" stop-color="#009854"/>
<stop offset="1" stop-color="#008A49"/>
</linearGradient>
<linearGradient id="paint18_linear_1276_3088" x1="84.9468" y1="100.24" x2="84.0563" y2="102.911" gradientUnits="userSpaceOnUse">
<stop stop-color="#00EE98"/>
<stop offset="0.28" stop-color="#00D685"/>
<stop offset="0.87" stop-color="#009854"/>
<stop offset="1" stop-color="#008A49"/>
</linearGradient>
<linearGradient id="paint19_linear_1276_3088" x1="112.87" y1="74.8297" x2="113.289" y2="77.4415" gradientUnits="userSpaceOnUse">
<stop stop-color="#00EE98"/>
<stop offset="0.28" stop-color="#00D685"/>
<stop offset="0.87" stop-color="#009854"/>
<stop offset="1" stop-color="#008A49"/>
</linearGradient>
<linearGradient id="paint20_linear_1276_3088" x1="101" y1="57.7988" x2="110.756" y2="57.7988" gradientUnits="userSpaceOnUse">
<stop stop-color="#4D8EFF"/>
<stop offset="0.43" stop-color="#3E76FF"/>
<stop offset="1" stop-color="#2850FF"/>
</linearGradient>
<linearGradient id="paint21_linear_1276_3088" x1="100.506" y1="86.9573" x2="117.31" y2="83.7315" gradientUnits="userSpaceOnUse">
<stop stop-color="#4D8EFF"/>
<stop offset="0.43" stop-color="#3E76FF"/>
<stop offset="1" stop-color="#2850FF"/>
</linearGradient>
<linearGradient id="paint22_linear_1276_3088" x1="98.4933" y1="71.8546" x2="120.638" y2="63.1904" gradientUnits="userSpaceOnUse">
<stop stop-color="#4D8EFF"/>
<stop offset="0.43" stop-color="#3E76FF"/>
<stop offset="1" stop-color="#2850FF"/>
</linearGradient>
<linearGradient id="paint23_linear_1276_3088" x1="104.954" y1="77.6064" x2="109.591" y2="77.6064" gradientUnits="userSpaceOnUse">
<stop stop-color="#4D8EFF"/>
<stop offset="0.43" stop-color="#3E76FF"/>
<stop offset="1" stop-color="#2850FF"/>
</linearGradient>
<linearGradient id="paint24_linear_1276_3088" x1="103.518" y1="94.885" x2="115.145" y2="95.9918" gradientUnits="userSpaceOnUse">
<stop stop-color="#4D8EFF"/>
<stop offset="0.43" stop-color="#3E76FF"/>
<stop offset="1" stop-color="#2850FF"/>
</linearGradient>
<linearGradient id="paint25_linear_1276_3088" x1="43.3648" y1="8.21007" x2="61.4639" y2="8.21007" gradientUnits="userSpaceOnUse">
<stop stop-color="#FF5C5C"/>
<stop offset="0.3" stop-color="#F34444"/>
<stop offset="0.93" stop-color="#D60606"/>
<stop offset="1" stop-color="#D30000"/>
</linearGradient>
<linearGradient id="paint26_linear_1276_3088" x1="48.566" y1="69.1266" x2="68.406" y2="73.0471" gradientUnits="userSpaceOnUse">
<stop stop-color="#FF5C5C"/>
<stop offset="0.3" stop-color="#F34444"/>
<stop offset="0.93" stop-color="#D60606"/>
<stop offset="1" stop-color="#D30000"/>
</linearGradient>
<linearGradient id="paint27_linear_1276_3088" x1="44.1532" y1="19.6783" x2="75.6187" y2="27.884" gradientUnits="userSpaceOnUse">
<stop stop-color="#FF5C5C"/>
<stop offset="0.3" stop-color="#F34444"/>
<stop offset="0.93" stop-color="#D60606"/>
<stop offset="1" stop-color="#D30000"/>
</linearGradient>
<linearGradient id="paint28_linear_1276_3088" x1="47.6133" y1="43.5321" x2="79.0782" y2="52.8678" gradientUnits="userSpaceOnUse">
<stop stop-color="#FF5C5C"/>
<stop offset="0.3" stop-color="#F34444"/>
<stop offset="0.93" stop-color="#D60606"/>
<stop offset="1" stop-color="#D30000"/>
</linearGradient>
<linearGradient id="paint29_linear_1276_3088" x1="50.7905" y1="58.9523" x2="62.782" y2="58.9523" gradientUnits="userSpaceOnUse">
<stop stop-color="#FF5C5C"/>
<stop offset="0.3" stop-color="#F34444"/>
<stop offset="0.93" stop-color="#D60606"/>
<stop offset="1" stop-color="#D30000"/>
</linearGradient>
<linearGradient id="paint30_linear_1276_3088" x1="50.0844" y1="34.8868" x2="62.8408" y2="34.8868" gradientUnits="userSpaceOnUse">
<stop stop-color="#FF5C5C"/>
<stop offset="0.3" stop-color="#F34444"/>
<stop offset="0.93" stop-color="#D60606"/>
<stop offset="1" stop-color="#D30000"/>
</linearGradient>
<linearGradient id="paint31_linear_1276_3088" x1="23.9946" y1="65.2451" x2="36.2803" y2="65.2451" gradientUnits="userSpaceOnUse">
<stop stop-color="#00EE98"/>
<stop offset="0.28" stop-color="#00D685"/>
<stop offset="0.87" stop-color="#009854"/>
<stop offset="1" stop-color="#008A49"/>
</linearGradient>
<linearGradient id="paint32_linear_1276_3088" x1="25.9246" y1="115.093" x2="45.2938" y2="119.143" gradientUnits="userSpaceOnUse">
<stop stop-color="#00EE98"/>
<stop offset="0.28" stop-color="#00D685"/>
<stop offset="0.87" stop-color="#009854"/>
<stop offset="1" stop-color="#008A49"/>
</linearGradient>
<linearGradient id="paint33_linear_1276_3088" x1="19.0403" y1="56.1411" x2="42.8938" y2="56.4119" gradientUnits="userSpaceOnUse">
<stop stop-color="#00EE98"/>
<stop offset="0.28" stop-color="#00D685"/>
<stop offset="0.87" stop-color="#009854"/>
<stop offset="1" stop-color="#008A49"/>
</linearGradient>
<linearGradient id="paint34_linear_1276_3088" x1="19.2168" y1="95.2505" x2="46.4347" y2="101.478" gradientUnits="userSpaceOnUse">
<stop stop-color="#00EE98"/>
<stop offset="0.28" stop-color="#00D685"/>
<stop offset="0.87" stop-color="#009854"/>
<stop offset="1" stop-color="#008A49"/>
</linearGradient>
<linearGradient id="paint35_linear_1276_3088" x1="31.2905" y1="109.059" x2="36.5273" y2="109.059" gradientUnits="userSpaceOnUse">
<stop stop-color="#00EE98"/>
<stop offset="0.28" stop-color="#00D685"/>
<stop offset="0.87" stop-color="#009854"/>
<stop offset="1" stop-color="#008A49"/>
</linearGradient>
<linearGradient id="paint36_linear_1276_3088" x1="27.1483" y1="87.6403" x2="39.3988" y2="87.6403" gradientUnits="userSpaceOnUse">
<stop stop-color="#00EE98"/>
<stop offset="0.28" stop-color="#00D685"/>
<stop offset="0.87" stop-color="#009854"/>
<stop offset="1" stop-color="#008A49"/>
</linearGradient>
<linearGradient id="paint37_linear_1276_3088" x1="14.8744" y1="72.9964" x2="50.8833" y2="79.1421" gradientUnits="userSpaceOnUse">
<stop stop-color="#00EE98"/>
<stop offset="0.28" stop-color="#00D685"/>
<stop offset="0.87" stop-color="#009854"/>
<stop offset="1" stop-color="#008A49"/>
</linearGradient>
<linearGradient id="paint38_linear_1276_3088" x1="128.367" y1="94.341" x2="131.843" y2="91.3377" gradientUnits="userSpaceOnUse">
<stop stop-color="#4D8EFF"/>
<stop offset="0.43" stop-color="#3E76FF"/>
<stop offset="1" stop-color="#2850FF"/>
</linearGradient>
<linearGradient id="paint39_linear_1276_3088" x1="127.136" y1="176.113" x2="124.031" y2="170.959" gradientUnits="userSpaceOnUse">
<stop stop-color="#4D8EFF"/>
<stop offset="0.43" stop-color="#3E76FF"/>
<stop offset="1" stop-color="#2850FF"/>
</linearGradient>
<linearGradient id="paint40_linear_1276_3088" x1="151.812" y1="131.941" x2="149.009" y2="130.42" gradientUnits="userSpaceOnUse">
<stop stop-color="#FC9512"/>
<stop offset="0.68" stop-color="#FED319"/>
<stop offset="1" stop-color="#FFEB1C"/>
</linearGradient>
<clipPath id="clip0_1276_3088">
<rect width="129" height="167" fill="white"/>
</clipPath>
</defs>
</svg>
