<svg width="24" height="24" viewBox="0 0 24 24" fill="none" xmlns="http://www.w3.org/2000/svg">
<path fill-rule="evenodd" clip-rule="evenodd" d="M3 12C3 7.03111 7.03111 3 12 3C16.9689 3 21 7.03111 21 12C21 16.9689 16.9689 21 12 21C7.03111 21 3 16.9689 3 12ZM12 4.38462C7.79581 4.38462 4.38462 7.79581 4.38462 12C4.38462 16.2042 7.79581 19.6154 12 19.6154C16.2042 19.6154 19.6154 16.2042 19.6154 12C19.6154 7.79581 16.2042 4.38462 12 4.38462Z" fill="#AD00DF"/>
<path d="M16.0963 7.45368L11.0252 9.48214C10.6769 9.62143 10.3605 9.83001 10.0953 10.0952C9.83007 10.3605 9.62149 10.6768 9.48221 11.0251L7.45374 16.0963C7.42856 16.1592 7.4224 16.2281 7.43602 16.2945C7.44963 16.3609 7.48243 16.4218 7.53034 16.4697C7.57825 16.5176 7.63917 16.5504 7.70555 16.564C7.77193 16.5776 7.84084 16.5715 7.90374 16.5463L12.9749 14.5178C13.3232 14.3785 13.6395 14.17 13.9048 13.9047C14.17 13.6395 14.3786 13.3231 14.5179 12.9748L16.5463 7.90368C16.5715 7.84078 16.5777 7.77186 16.5641 7.70549C16.5505 7.63911 16.5177 7.57819 16.4697 7.53028C16.4218 7.48237 16.3609 7.44957 16.2945 7.43596C16.2282 7.42234 16.1592 7.4285 16.0963 7.45368ZM12 13.0384C11.7947 13.0384 11.5939 12.9775 11.4231 12.8634C11.2523 12.7493 11.1192 12.5871 11.0406 12.3974C10.962 12.2076 10.9415 11.9988 10.9815 11.7974C11.0216 11.5959 11.1205 11.4109 11.2657 11.2657C11.411 11.1204 11.596 11.0215 11.7974 10.9815C11.9989 10.9414 12.2077 10.962 12.3974 11.0406C12.5872 11.1192 12.7494 11.2523 12.8635 11.423C12.9776 11.5938 13.0385 11.7946 13.0385 12C13.0385 12.2754 12.9291 12.5395 12.7343 12.7343C12.5396 12.929 12.2755 13.0384 12 13.0384Z" fill="#AD00DF"/>
</svg>
