<svg width="21" height="20" viewBox="0 0 21 20" fill="none" xmlns="http://www.w3.org/2000/svg">
<path d="M10.513 17.5C9.47937 17.5 8.50801 17.303 7.59892 16.909C6.68983 16.515 5.89905 15.9808 5.22657 15.3063C4.55409 14.6313 4.02184 13.8375 3.62981 12.925C3.23778 12.0125 3.04151 11.0375 3.04102 10C3.04102 8.9625 3.23728 7.9875 3.62981 7.075C4.02234 6.1625 4.55459 5.36875 5.22657 4.69375C5.89905 4.01875 6.68983 3.4845 7.59892 3.091C8.50801 2.6975 9.47937 2.5005 10.513 2.5C12.3312 2.5 13.9222 3.072 15.2861 4.216C16.65 5.36 17.4998 6.79425 17.8355 8.51875H16.3038C16.0672 7.60625 15.6405 6.7905 15.0238 6.0715C14.4071 5.3525 13.6507 4.812 12.7546 4.45V4.75C12.7546 5.1625 12.6081 5.51575 12.3152 5.80975C12.0223 6.10375 11.6707 6.2505 11.2602 6.25H9.7658V7.75C9.7658 7.9625 9.69407 8.14075 9.5506 8.28475C9.40714 8.42875 9.22981 8.5005 9.0186 8.5H7.5242V10H9.0186V12.25H8.2714L4.68485 8.65C4.64749 8.875 4.61312 9.1 4.58174 9.325C4.55036 9.55 4.53491 9.775 4.53541 10C4.53541 11.6375 5.10826 13.0437 6.25397 14.2188C7.39967 15.3938 8.81935 15.9875 10.513 16V17.5ZM16.7895 16.6L14.9215 14.725C14.6599 14.875 14.3797 15 14.0809 15.1C13.782 15.2 13.4644 15.25 13.1282 15.25C12.1942 15.25 11.4004 14.9218 10.7469 14.2653C10.0933 13.6088 9.7663 12.812 9.7658 11.875C9.7658 10.9375 10.0928 10.1405 10.7469 9.484C11.4009 8.8275 12.1947 8.4995 13.1282 8.5C14.0622 8.5 14.8562 8.82825 15.5103 9.48475C16.1643 10.1412 16.4911 10.938 16.4906 11.875C16.4906 12.2125 16.4408 12.5312 16.3411 12.8312C16.2415 13.1312 16.117 13.4125 15.9675 13.675L17.8355 15.55C17.9725 15.6875 18.041 15.8625 18.041 16.075C18.041 16.2875 17.9725 16.4625 17.8355 16.6C17.6985 16.7375 17.5242 16.8063 17.3125 16.8063C17.1008 16.8063 16.9264 16.7375 16.7895 16.6ZM13.1282 13.75C13.6512 13.75 14.0933 13.5687 14.4545 13.2062C14.8156 12.8438 14.9962 12.4 14.9962 11.875C14.9962 11.35 14.8156 10.9062 14.4545 10.5438C14.0933 10.1813 13.6512 10 13.1282 10C12.6052 10 12.1631 10.1813 11.8019 10.5438C11.4408 10.9062 11.2602 11.35 11.2602 11.875C11.2602 12.4 11.4408 12.8438 11.8019 13.2062C12.1631 13.5687 12.6052 13.75 13.1282 13.75Z" fill="#333333"/>
<path d="M10.513 17.5C9.47937 17.5 8.50801 17.303 7.59892 16.909C6.68983 16.515 5.89905 15.9808 5.22657 15.3063C4.55409 14.6313 4.02184 13.8375 3.62981 12.925C3.23778 12.0125 3.04151 11.0375 3.04102 10C3.04102 8.9625 3.23728 7.9875 3.62981 7.075C4.02234 6.1625 4.55459 5.36875 5.22657 4.69375C5.89905 4.01875 6.68983 3.4845 7.59892 3.091C8.50801 2.6975 9.47937 2.5005 10.513 2.5C12.3312 2.5 13.9222 3.072 15.2861 4.216C16.65 5.36 17.4998 6.79425 17.8355 8.51875H16.3038C16.0672 7.60625 15.6405 6.7905 15.0238 6.0715C14.4071 5.3525 13.6507 4.812 12.7546 4.45V4.75C12.7546 5.1625 12.6081 5.51575 12.3152 5.80975C12.0223 6.10375 11.6707 6.2505 11.2602 6.25H9.7658V7.75C9.7658 7.9625 9.69407 8.14075 9.5506 8.28475C9.40714 8.42875 9.22981 8.5005 9.0186 8.5H7.5242V10H9.0186V12.25H8.2714L4.68485 8.65C4.64749 8.875 4.61312 9.1 4.58174 9.325C4.55036 9.55 4.53491 9.775 4.53541 10C4.53541 11.6375 5.10826 13.0437 6.25397 14.2188C7.39967 15.3938 8.81935 15.9875 10.513 16V17.5ZM16.7895 16.6L14.9215 14.725C14.6599 14.875 14.3797 15 14.0809 15.1C13.782 15.2 13.4644 15.25 13.1282 15.25C12.1942 15.25 11.4004 14.9218 10.7469 14.2653C10.0933 13.6088 9.7663 12.812 9.7658 11.875C9.7658 10.9375 10.0928 10.1405 10.7469 9.484C11.4009 8.8275 12.1947 8.4995 13.1282 8.5C14.0622 8.5 14.8562 8.82825 15.5103 9.48475C16.1643 10.1412 16.4911 10.938 16.4906 11.875C16.4906 12.2125 16.4408 12.5312 16.3411 12.8312C16.2415 13.1312 16.117 13.4125 15.9675 13.675L17.8355 15.55C17.9725 15.6875 18.041 15.8625 18.041 16.075C18.041 16.2875 17.9725 16.4625 17.8355 16.6C17.6985 16.7375 17.5242 16.8063 17.3125 16.8063C17.1008 16.8063 16.9264 16.7375 16.7895 16.6ZM13.1282 13.75C13.6512 13.75 14.0933 13.5687 14.4545 13.2062C14.8156 12.8438 14.9962 12.4 14.9962 11.875C14.9962 11.35 14.8156 10.9062 14.4545 10.5438C14.0933 10.1813 13.6512 10 13.1282 10C12.6052 10 12.1631 10.1813 11.8019 10.5438C11.4408 10.9062 11.2602 11.35 11.2602 11.875C11.2602 12.4 11.4408 12.8438 11.8019 13.2062C12.1631 13.5687 12.6052 13.75 13.1282 13.75Z" fill="#333333"/>
</svg>
