<svg width="24" height="24" viewBox="0 0 24 24" fill="none" xmlns="http://www.w3.org/2000/svg">
<path d="M11.9664 21C10.726 21 9.5604 20.7636 8.46949 20.2908C7.37858 19.818 6.42964 19.1769 5.62266 18.3675C4.81569 17.5575 4.17699 16.605 3.70655 15.51C3.23611 14.415 3.0006 13.245 3 12C3 10.755 3.23552 9.585 3.70655 8.49C4.17758 7.395 4.81629 6.4425 5.62266 5.6325C6.42964 4.8225 7.37858 4.1814 8.46949 3.7092C9.5604 3.237 10.726 3.0006 11.9664 3C14.1482 3 16.0574 3.6864 17.6941 5.0592C19.3308 6.432 20.3505 8.1531 20.7534 10.2225H18.9153C18.6314 9.1275 18.1194 8.1486 17.3794 7.2858C16.6394 6.423 15.7317 5.7744 14.6563 5.34V5.7C14.6563 6.195 14.4805 6.6189 14.1291 6.9717C13.7776 7.3245 13.3556 7.5006 12.863 7.5H11.0697V9.3C11.0697 9.555 10.9837 9.7689 10.8115 9.9417C10.6394 10.1145 10.4265 10.2006 10.1731 10.2H8.37983V12H10.1731V14.7H9.27646L4.9726 10.38C4.92777 10.65 4.88653 10.92 4.84887 11.19C4.81121 11.46 4.79268 11.73 4.79328 12C4.79328 13.965 5.4807 15.6525 6.85554 17.0625C8.23039 18.4725 9.934 19.185 11.9664 19.2V21ZM19.4981 19.92L17.2565 17.67C16.9427 17.85 16.6065 18 16.2478 18.12C15.8892 18.24 15.5081 18.3 15.1046 18.3C13.9838 18.3 13.0313 17.9061 12.247 17.1183C11.4628 16.3305 11.0703 15.3744 11.0697 14.25C11.0697 13.125 11.4622 12.1686 12.247 11.3808C13.0319 10.593 13.9844 10.1994 15.1046 10.2C16.2254 10.2 17.1782 10.5939 17.9631 11.3817C18.7479 12.1695 19.1401 13.1256 19.1395 14.25C19.1395 14.655 19.0797 15.0375 18.9601 15.3975C18.8406 15.7575 18.6912 16.095 18.5118 16.41L20.7534 18.66C20.9178 18.825 21 19.035 21 19.29C21 19.545 20.9178 19.755 20.7534 19.92C20.589 20.085 20.3798 20.1675 20.1258 20.1675C19.8717 20.1675 19.6625 20.085 19.4981 19.92ZM15.1046 16.5C15.7323 16.5 16.2628 16.2825 16.6961 15.8475C17.1295 15.4125 17.3462 14.88 17.3462 14.25C17.3462 13.62 17.1295 13.0875 16.6961 12.6525C16.2628 12.2175 15.7323 12 15.1046 12C14.477 12 13.9465 12.2175 13.5131 12.6525C13.0797 13.0875 12.863 13.62 12.863 14.25C12.863 14.88 13.0797 15.4125 13.5131 15.8475C13.9465 16.2825 14.477 16.5 15.1046 16.5Z" fill="currentColor"/>
</svg>
