<svg width="20" height="20" viewBox="0 0 20 20" fill="none" xmlns="http://www.w3.org/2000/svg">
<path d="M18.9265 9.65214C18.8997 9.59429 18.264 8.205 16.8598 6.82286C14.981 4.97643 12.613 4 10.0005 4C7.38806 4 5.02013 4.97643 3.1435 6.82286C1.73929 8.205 1.10358 9.59429 1.07455 9.65214C1.02539 9.76185 1 9.88045 1 10.0004C1 10.1203 1.02539 10.2389 1.07455 10.3486C1.10141 10.4071 1.73711 11.7957 3.14205 13.1779C5.02013 15.0243 7.38806 16 10.0005 16C12.613 16 14.981 15.0243 16.8569 13.1779C18.2618 11.7957 18.8975 10.4071 18.9244 10.3486C18.9739 10.239 18.9996 10.1205 19 10.0006C19.0004 9.88067 18.9753 9.762 18.9265 9.65214ZM15.584 12.0093C14.0259 13.5193 12.1479 14.2857 10.0005 14.2857C7.85323 14.2857 5.97514 13.5193 4.41926 12.0086C3.80706 11.4123 3.28042 10.7365 2.85395 10C3.28055 9.26378 3.80718 8.58827 4.41926 7.99214C5.97586 6.48071 7.85323 5.71429 10.0005 5.71429C12.1479 5.71429 14.0252 6.48071 15.5818 7.99214C16.194 8.58821 16.7206 9.26373 17.1471 10C16.7206 10.7365 16.194 11.4122 15.5818 12.0086L15.584 12.0093ZM10.0005 6.85714C9.36902 6.85714 8.75168 7.04147 8.22659 7.38681C7.70149 7.73215 7.29223 8.223 7.05056 8.79728C6.80889 9.37156 6.74566 10.0035 6.86886 10.6131C6.99206 11.2228 7.29617 11.7828 7.74272 12.2223C8.18928 12.6619 8.75822 12.9612 9.37761 13.0825C9.997 13.2037 10.639 13.1415 11.2225 12.9036C11.8059 12.6657 12.3046 12.2629 12.6555 11.7461C13.0063 11.2292 13.1936 10.6216 13.1936 10C13.1926 9.16675 12.8559 8.3679 12.2573 7.77871C11.6587 7.18951 10.8471 6.85809 10.0005 6.85714ZM10.0005 11.4286C9.71349 11.4286 9.43288 11.3448 9.1942 11.1878C8.95552 11.0308 8.76949 10.8077 8.65964 10.5467C8.54979 10.2857 8.52105 9.99842 8.57705 9.7213C8.63305 9.44418 8.77128 9.18964 8.97426 8.98985C9.17724 8.79006 9.43585 8.654 9.71739 8.59888C9.99893 8.54376 10.2908 8.57205 10.556 8.68017C10.8212 8.7883 11.0478 8.9714 11.2073 9.20633C11.3668 9.44126 11.4519 9.71746 11.4519 10C11.4519 10.3789 11.299 10.7422 11.0268 11.0102C10.7546 11.2781 10.3855 11.4286 10.0005 11.4286Z" fill="#333333"/>
<path d="M18.9265 9.65214C18.8997 9.59429 18.264 8.205 16.8598 6.82286C14.981 4.97643 12.613 4 10.0005 4C7.38806 4 5.02013 4.97643 3.1435 6.82286C1.73929 8.205 1.10358 9.59429 1.07455 9.65214C1.02539 9.76185 1 9.88045 1 10.0004C1 10.1203 1.02539 10.2389 1.07455 10.3486C1.10141 10.4071 1.73711 11.7957 3.14205 13.1779C5.02013 15.0243 7.38806 16 10.0005 16C12.613 16 14.981 15.0243 16.8569 13.1779C18.2618 11.7957 18.8975 10.4071 18.9244 10.3486C18.9739 10.239 18.9996 10.1205 19 10.0006C19.0004 9.88067 18.9753 9.762 18.9265 9.65214ZM15.584 12.0093C14.0259 13.5193 12.1479 14.2857 10.0005 14.2857C7.85323 14.2857 5.97514 13.5193 4.41926 12.0086C3.80706 11.4123 3.28042 10.7365 2.85395 10C3.28055 9.26378 3.80718 8.58827 4.41926 7.99214C5.97586 6.48071 7.85323 5.71429 10.0005 5.71429C12.1479 5.71429 14.0252 6.48071 15.5818 7.99214C16.194 8.58821 16.7206 9.26373 17.1471 10C16.7206 10.7365 16.194 11.4122 15.5818 12.0086L15.584 12.0093ZM10.0005 6.85714C9.36902 6.85714 8.75168 7.04147 8.22659 7.38681C7.70149 7.73215 7.29223 8.223 7.05056 8.79728C6.80889 9.37156 6.74566 10.0035 6.86886 10.6131C6.99206 11.2228 7.29617 11.7828 7.74272 12.2223C8.18928 12.6619 8.75822 12.9612 9.37761 13.0825C9.997 13.2037 10.639 13.1415 11.2225 12.9036C11.8059 12.6657 12.3046 12.2629 12.6555 11.7461C13.0063 11.2292 13.1936 10.6216 13.1936 10C13.1926 9.16675 12.8559 8.3679 12.2573 7.77871C11.6587 7.18951 10.8471 6.85809 10.0005 6.85714ZM10.0005 11.4286C9.71349 11.4286 9.43288 11.3448 9.1942 11.1878C8.95552 11.0308 8.76949 10.8077 8.65964 10.5467C8.54979 10.2857 8.52105 9.99842 8.57705 9.7213C8.63305 9.44418 8.77128 9.18964 8.97426 8.98985C9.17724 8.79006 9.43585 8.654 9.71739 8.59888C9.99893 8.54376 10.2908 8.57205 10.556 8.68017C10.8212 8.7883 11.0478 8.9714 11.2073 9.20633C11.3668 9.44126 11.4519 9.71746 11.4519 10C11.4519 10.3789 11.299 10.7422 11.0268 11.0102C10.7546 11.2781 10.3855 11.4286 10.0005 11.4286Z" fill="black" fill-opacity="0.2"/>
</svg>
