<svg width="24" height="24" viewBox="0 0 24 24" fill="none" xmlns="http://www.w3.org/2000/svg">
<path d="M13.878 8.75001H4C3.80109 8.75001 3.61032 8.671 3.46967 8.53034C3.32902 8.38969 3.25 8.19893 3.25 8.00001C3.25 7.8011 3.32902 7.61034 3.46967 7.46968C3.61032 7.32903 3.80109 7.25001 4 7.25001H13.878C14.0333 6.81132 14.3207 6.43154 14.7007 6.16293C15.0807 5.89432 15.5346 5.75009 16 5.75009C16.4654 5.75009 16.9193 5.89432 17.2993 6.16293C17.6793 6.43154 17.9667 6.81132 18.122 7.25001H20C20.1989 7.25001 20.3897 7.32903 20.5303 7.46968C20.671 7.61034 20.75 7.8011 20.75 8.00001C20.75 8.19893 20.671 8.38969 20.5303 8.53034C20.3897 8.671 20.1989 8.75001 20 8.75001H18.122C17.9667 9.18871 17.6793 9.56849 17.2993 9.8371C16.9193 10.1057 16.4654 10.2499 16 10.2499C15.5346 10.2499 15.0807 10.1057 14.7007 9.8371C14.3207 9.56849 14.0333 9.18871 13.878 8.75001ZM20 16.75C20.1989 16.75 20.3897 16.671 20.5303 16.5303C20.671 16.3897 20.75 16.1989 20.75 16C20.75 15.8011 20.671 15.6103 20.5303 15.4697C20.3897 15.329 20.1989 15.25 20 15.25H10.122C9.96673 14.8113 9.67931 14.4315 9.29929 14.1629C8.91928 13.8943 8.46536 13.7501 8 13.7501C7.53464 13.7501 7.08072 13.8943 6.70071 14.1629C6.32069 14.4315 6.03327 14.8113 5.878 15.25H4C3.80109 15.25 3.61032 15.329 3.46967 15.4697C3.32902 15.6103 3.25 15.8011 3.25 16C3.25 16.1989 3.32902 16.3897 3.46967 16.5303C3.61032 16.671 3.80109 16.75 4 16.75H5.878C6.03281 17.1892 6.32006 17.5695 6.70013 17.8385C7.0802 18.1075 7.53436 18.2519 8 18.2519C8.46564 18.2519 8.9198 18.1075 9.29987 17.8385C9.67994 17.5695 9.96719 17.1892 10.122 16.75H20Z" fill="currentColor"/>
</svg>
