<svg width="22" height="22" viewBox="0 0 22 22" fill="none" xmlns="http://www.w3.org/2000/svg">
<path d="M11 21C16.5228 21 21 16.5228 21 11C21 5.47715 16.5228 1 11 1C5.47715 1 1 5.47715 1 11C1 16.5228 5.47715 21 11 21Z" stroke="#828282" stroke-width="1.5"/>
<path d="M5 3.71C5.78 4.421 7.388 6.363 7.575 8.447C7.75 10.396 9.035 11.98 11 12C11.755 12.008 12.518 11.463 12.516 10.708C12.516 10.475 12.477 10.236 12.417 10.016C12.3174 9.67879 12.347 9.31657 12.5 9C13.11 7.743 14.31 7.405 15.26 6.722C15.681 6.419 16.066 6.099 16.235 5.842C16.704 5.132 17.172 3.711 16.938 3M21 12C20.67 12.931 20.437 15.375 16.718 15.414C16.718 15.414 13.425 15.414 12.437 17.276C11.646 18.766 12.107 20.379 12.437 21" stroke="#828282" stroke-width="1.5"/>
</svg>
