<svg width="15" height="14" viewBox="0 0 15 14" fill="none" xmlns="http://www.w3.org/2000/svg">
<path d="M7.5 7C6.89844 7 6.40625 6.5275 6.40625 5.95C6.40625 5.3725 6.89844 4.9 7.5 4.9C8.10156 4.9 8.59375 5.3725 8.59375 5.95C8.59375 6.5275 8.10156 7 7.5 7ZM10.7812 6.055C10.7812 4.14925 9.33203 2.8 7.5 2.8C5.66797 2.8 4.21875 4.14925 4.21875 6.055C4.21875 7.2835 5.28516 8.911 7.5 10.8535C9.71484 8.911 10.7812 7.2835 10.7812 6.055ZM7.5 1.75C9.79688 1.75 11.875 3.4405 11.875 6.055C11.875 7.798 10.4148 9.86125 7.5 12.25C4.58516 9.86125 3.125 7.798 3.125 6.055C3.125 3.4405 5.20313 1.75 7.5 1.75Z" fill="#828282"/>
<path fill-rule="evenodd" clip-rule="evenodd" d="M7.5 1.77916C5.22025 1.77916 3.15625 3.45673 3.15625 6.05499C3.15625 6.91885 3.51814 7.86484 4.24552 8.89428C4.96941 9.91877 6.0541 11.0242 7.5 12.2112C8.9459 11.0242 10.0306 9.91877 10.7545 8.89428C11.4819 7.86484 11.8438 6.91885 11.8438 6.05499C11.8438 3.45673 9.77975 1.77916 7.5 1.77916ZM3.09375 6.05499C3.09375 3.42426 5.186 1.72083 7.5 1.72083C9.814 1.72083 11.9062 3.42426 11.9062 6.05499C11.9062 6.93413 11.5381 7.89126 10.8067 8.92639C10.0752 9.9616 8.97926 11.0765 7.52062 12.2719L7.5 12.2888L7.47938 12.2719C6.02074 11.0765 4.92481 9.9616 4.19335 8.92639C3.46194 7.89126 3.09375 6.93413 3.09375 6.05499ZM4.1875 6.05499C4.1875 4.1343 5.64949 2.77083 7.5 2.77083C9.35051 2.77083 10.8125 4.1343 10.8125 6.05499C10.8125 6.67686 10.5428 7.39633 9.99761 8.20206C9.45229 9.00807 8.63001 9.90246 7.5214 10.8747L7.5 10.8935L7.4786 10.8747C6.36999 9.90246 5.54771 9.00807 5.00239 8.20206C4.45725 7.39633 4.1875 6.67686 4.1875 6.05499ZM7.5 2.82916C5.68645 2.82916 4.25 4.16418 4.25 6.05499C4.25 6.66162 4.51345 7.37015 5.05523 8.17092C5.59333 8.96624 6.4046 9.85053 7.5 10.8134C8.59539 9.85053 9.40667 8.96624 9.94477 8.17092C10.4865 7.37015 10.75 6.66162 10.75 6.05499C10.75 4.16418 9.31355 2.82916 7.5 2.82916ZM7.5 4.92916C6.91652 4.92916 6.4375 5.38782 6.4375 5.94999C6.4375 6.51216 6.91652 6.97083 7.5 6.97083C8.08348 6.97083 8.5625 6.51216 8.5625 5.94999C8.5625 5.38782 8.08348 4.92916 7.5 4.92916ZM6.375 5.94999C6.375 5.35716 6.88035 4.87083 7.5 4.87083C8.11965 4.87083 8.625 5.35716 8.625 5.94999C8.625 6.54282 8.11965 7.02916 7.5 7.02916C6.88035 7.02916 6.375 6.54282 6.375 5.94999Z" fill="#828282"/>
</svg>
