<svg width="178" height="120" viewBox="0 0 178 120" fill="none" xmlns="http://www.w3.org/2000/svg">
<g clip-path="url(#clip0_83_33)">
<path d="M36.5013 118.317H15.7183C15.3538 118.317 15.0583 118.612 15.0583 118.976V119.341C15.0583 119.705 15.3538 120 15.7183 120H36.5013C36.8658 120 37.1613 119.705 37.1613 119.341V118.976C37.1613 118.612 36.8658 118.317 36.5013 118.317Z" fill="#ADBEC4"/>
<path d="M168.172 118.317H162.485C162.121 118.317 161.825 118.612 161.825 118.976V119.341C161.825 119.705 162.121 120 162.485 120H168.172C168.537 120 168.832 119.705 168.832 119.341V118.976C168.832 118.612 168.537 118.317 168.172 118.317Z" fill="#ADBEC4"/>
<path d="M75.6085 118.317H54.8255C54.461 118.317 54.1655 118.612 54.1655 118.976V119.341C54.1655 119.705 54.461 120 54.8255 120H75.6085C75.973 120 76.2685 119.705 76.2685 119.341V118.976C76.2685 118.612 75.973 118.317 75.6085 118.317Z" fill="#ADBEC4"/>
<path d="M106.121 118.317H85.3382C84.9737 118.317 84.6782 118.612 84.6782 118.976V119.341C84.6782 119.705 84.9737 120 85.3382 120H106.121C106.486 120 106.781 119.705 106.781 119.341V118.976C106.781 118.612 106.486 118.317 106.121 118.317Z" fill="#ADBEC4"/>
<path d="M143.486 118.317H115.157C114.793 118.317 114.497 118.612 114.497 118.976V119.341C114.497 119.705 114.793 120 115.157 120H143.486C143.851 120 144.146 119.705 144.146 119.341V118.976C144.146 118.612 143.851 118.317 143.486 118.317Z" fill="#ADBEC4"/>
<path d="M43.4666 25.7659C43.4666 25.7659 41.2718 24.2748 38.0625 25.4233C34.8532 26.5717 34.1329 30.8867 34.9211 34.3922C35.713 37.8939 31.2932 49.8525 31.2932 49.8525C31.2932 49.8525 33.5899 53.0794 41.6187 51.8444C41.6187 51.8444 47.6036 40.9815 47.1586 33.1873C46.7136 25.3931 43.4666 25.7697 43.4666 25.7697V25.7659Z" fill="#0E3944"/>
<path d="M46.001 39.2419C49.0179 38.278 50.8658 40.7857 52.593 45.4547C54.3202 50.1236 54.9047 50.5905 54.9047 50.5905L61.576 54.8717L61.0216 57.3681C61.0216 57.3681 54.6709 54.8867 53.1361 53.3053C51.6012 51.7276 47.1851 43.7264 47.1851 43.7264L46.0047 39.2419H46.001Z" fill="#EF6E4B"/>
<path d="M31.297 69.3982C31.297 69.3982 29.9884 76.0176 30.2034 85.9806C30.2034 85.9806 25.0444 93.5752 29.3021 115.244H31.5346C31.5346 115.244 33.3599 96.8096 34.7552 91.813C36.1505 86.8165 41.3058 85.284 41.5848 70.0948L31.297 69.3982Z" fill="#FF8B66"/>
<path d="M21.0885 88.861C19.7913 84.5911 16.4575 77.4408 7.90071 67.7489C7.90071 67.7489 7.3916 67.4854 6.70147 67.9071C5.97363 68.3514 5.97363 68.8748 5.97363 68.8748C5.97363 68.8748 10.2652 78.2089 12.9994 85.0467C13.9195 87.3473 16.1483 88.861 18.6297 88.861H21.0885Z" fill="#FF8B66"/>
<path d="M36.6673 97.1183C36.6673 97.1183 36.6975 100.304 34.6045 100.356C31.6479 100.436 31.5385 97.22 28.1897 97.3254C24.8409 97.4308 17.9321 98.2667 15.7335 93.0405C14.5984 90.3408 16.1521 86.8729 12.4903 84.2598C8.82845 81.6467 10.6047 78.7211 12.4903 77.1547C14.3759 75.5921 11.6795 73.8789 13.6405 73.0807C14.1081 72.8924 14.5682 72.915 14.9981 73.0543C15.2508 73.1409 15.4846 73.2652 15.7109 73.412C16.7479 74.101 17.4796 75.3022 17.4796 75.3022C23.027 60.1318 32.9037 58.1287 32.9037 58.1287L42.6711 61.4948C42.9049 85.0995 36.6711 97.1145 36.6711 97.1145L36.6673 97.1183Z" fill="#164353"/>
<path d="M46.001 39.2419C46.001 39.2419 43.7232 40.01 40.48 39.5168C37.2368 39.0235 36.1846 36.994 33.9068 38.3006C30.4863 40.2623 32.0853 47.021 32.9452 50.5378C33.2657 51.8481 33.673 55.2896 32.8999 58.1324C32.8999 58.1324 37.4555 61.6718 42.6673 61.4948L45.5108 55.3197C45.5108 55.3197 51.6955 47.9322 46.001 39.2419Z" fill="#CFD8DC"/>
<path d="M40.2121 33.5714C40.2121 33.5714 40.593 36.7681 39.405 39.6787C39.405 39.6787 41.0945 42.1713 42.7086 40.5297C42.7086 40.5297 42.8557 37.6003 44.6696 34.283C45.8839 32.0615 40.2083 33.5714 40.2083 33.5714H40.2121Z" fill="#EF6E4B"/>
<path d="M37.6214 33.6805C37.6214 33.6805 36.1959 32.7806 36.3543 34.17C36.5429 35.7816 38.1155 36.0941 38.2814 35.5331C38.4473 34.9683 37.6177 33.6805 37.6177 33.6805H37.6214Z" fill="#FF8B66"/>
<path d="M45.8048 31.9372C45.8048 31.9372 46.7099 30.5139 47.1587 31.8393C47.6791 33.3755 46.3894 34.3282 45.9972 33.8914C45.605 33.4546 45.8048 31.9372 45.8048 31.9372Z" fill="#FF8B66"/>
<path d="M42.8595 38.4926C40.2725 39.0725 38.4322 37.7094 37.297 32.6489C36.7125 30.0395 37.6817 28.138 40.5817 27.4904C43.4818 26.8428 45.0581 28.1719 45.6464 30.7813C46.8645 36.2184 45.5333 37.8939 42.8595 38.4926Z" fill="#FF8B66"/>
<path d="M45.194 32.7806C45.2958 33.0291 45.1299 33.3379 44.8169 33.4659C44.5039 33.5939 44.1682 33.496 44.0626 33.2475C43.9608 32.999 44.1268 32.6903 44.4398 32.5622C44.7528 32.4342 45.0884 32.5321 45.194 32.7806Z" fill="#DB614D"/>
<path d="M39.903 34.1135C39.9445 34.3809 39.7069 34.6407 39.375 34.6896C39.0394 34.7423 38.7377 34.5691 38.6924 34.3018C38.651 34.0344 38.8886 33.7746 39.2204 33.7257C39.5561 33.673 39.8577 33.8462 39.903 34.1135Z" fill="#DB614D"/>
<path d="M43.3913 30.4236C43.3649 30.4236 43.3422 30.416 43.3196 30.401C42.8784 30.1073 42.2486 30.2616 42.2448 30.2654C42.1732 30.2842 42.1015 30.239 42.0827 30.1713C42.0638 30.0997 42.1053 30.0282 42.1769 30.0094C42.2071 30.0018 42.9274 29.8211 43.4667 30.1826C43.527 30.224 43.5421 30.3068 43.5044 30.3671C43.478 30.4047 43.4365 30.4273 43.395 30.4273L43.3913 30.4236Z" fill="#0E3944"/>
<path d="M38.5189 31.5117C38.4963 31.5117 38.4737 31.5042 38.451 31.4929C38.3869 31.4552 38.3681 31.3724 38.4058 31.3122C38.7414 30.7549 39.4692 30.6118 39.4994 30.608C39.5711 30.5968 39.639 30.6419 39.654 30.7135C39.6691 30.785 39.6201 30.8528 39.5484 30.8679C39.5409 30.8679 38.9073 30.9959 38.632 31.4515C38.6056 31.4929 38.5642 31.5155 38.5189 31.5155V31.5117Z" fill="#0E3944"/>
<path d="M43.5045 31.8393C43.5762 32.1594 43.4894 32.4531 43.3122 32.4907C43.1349 32.5321 42.9313 32.3024 42.8596 31.9824C42.788 31.6623 42.8747 31.3687 43.052 31.331C43.2292 31.2896 43.4329 31.5193 43.5045 31.8393Z" fill="#1A4850"/>
<path d="M39.9105 32.6112C39.9822 32.9312 39.8954 33.2249 39.7182 33.2626C39.5409 33.304 39.3373 33.0743 39.2656 32.7542C39.194 32.4342 39.2807 32.1405 39.458 32.1029C39.6352 32.0614 39.8389 32.2911 39.9105 32.6112Z" fill="#1A4850"/>
<path d="M41.072 35.6498C41.072 35.6498 42.7351 35.5142 43.4667 34.8967C43.4667 34.8967 43.2669 36.192 42.3618 36.2824C41.4567 36.3727 41.072 35.6498 41.072 35.6498Z" fill="#1A4850"/>
<path d="M42.5993 31.8769C42.5993 31.8769 42.6596 31.0335 42.9802 31.0222C43.3045 31.0109 43.693 31.6322 43.693 31.6322L44.0965 31.2858L43.6515 31.4477C43.6515 31.4477 43.2555 30.7963 42.9463 30.8641C42.5088 30.9582 42.5993 31.8769 42.5993 31.8769Z" fill="#1A4850"/>
<path d="M40.1068 32.5321C40.1068 32.5321 39.6919 31.7941 39.394 31.9222C39.0961 32.0502 39.0131 32.7769 39.0131 32.7769L38.5002 32.6376L38.9716 32.5962C38.9716 32.5962 39.0508 31.8356 39.3601 31.7678C39.7975 31.6661 40.1068 32.5359 40.1068 32.5359V32.5321Z" fill="#1A4850"/>
<path d="M41.9092 34.155L41.7772 33.9027C41.9922 33.7897 42.011 33.6353 41.9884 33.5299C41.9582 33.3755 41.8338 33.2551 41.7433 33.2475C41.6905 33.2475 41.6452 33.2889 41.6113 33.3793L41.3435 33.2814C41.4566 32.9727 41.6754 32.9576 41.7621 32.9614C41.9884 32.9802 42.2109 33.2023 42.2674 33.4697C42.324 33.7483 42.192 34.0043 41.9092 34.155Z" fill="#DB614D"/>
<path d="M37.8251 34.5917C37.8251 34.5917 37.0256 31.6586 37.5008 29.5877C37.5008 29.5877 39.7522 26.4587 44.0966 28.0062C44.0966 28.0062 45.3863 30.0771 46.0237 32.9764C46.0237 32.9764 46.1858 31.9334 45.7521 29.614C45.3184 27.2946 43.2594 25.8525 40.431 26.3194C37.6064 26.7825 34.5819 29.5914 37.8213 34.5917H37.8251Z" fill="#0E3944"/>
<path d="M42.3805 27.3549C42.3805 27.3549 42.554 28.1192 41.8073 30.0923C41.8073 30.0923 41.2718 29.5312 40.642 30.0923C40.0122 30.6533 38.7376 30.465 38.3039 30.7662C37.8702 31.0675 37.8702 31.7603 37.8702 31.7603C37.8702 31.7603 37.4931 30.898 37.8702 29.8663C37.8702 29.8663 37.0217 30.9432 37.1348 32.2686C37.1348 32.2686 35.9846 32.0841 36.0374 30.1902C36.0902 28.2962 38.7828 25.235 41.8073 25.4346C44.8318 25.6341 45.5483 30.4123 45.5483 30.4123C45.5483 30.4123 45.273 30.1977 44.8394 30.2918C44.8394 30.2918 44.7715 29.2789 44.0927 28.0063C44.0927 28.0063 44.4057 28.925 44.0927 29.9191C44.0927 29.9191 43.2517 29.4785 42.588 29.6178C42.588 29.6178 42.999 28.8158 42.3768 27.3587L42.3805 27.3549Z" fill="#0E3944"/>
<path d="M33.1375 38.903C34.6082 37.7433 35.7547 39.2193 36.0337 41.2564C36.3128 43.2934 33.6541 55.3122 31.6026 54.8679C30.8107 54.6985 30.4863 51.5469 30.4863 51.5469C30.4863 51.5469 31.2896 48.1694 31.8062 43.0825C32.0438 40.7443 32.3644 39.5055 33.1337 38.903H33.1375Z" fill="#FF8B66"/>
<path d="M28.8572 53.1698C26.8774 51.2833 23.3249 45.0329 22.4236 41.8475L23.9283 41.2451C23.9283 41.2451 28.4537 47.7101 30.5166 49.3404C32.5794 50.9708 33.3072 52.7857 32.3833 54.3408C31.4631 55.8958 29.2758 53.5689 28.8572 53.1698Z" fill="#FF8B66"/>
<path d="M23.042 37.6793C22.9402 39.7239 24.607 40.2096 23.8679 41.7797C23.7133 42.1035 23.4832 42.2767 23.2419 42.3596C22.7818 42.5215 22.2727 42.3671 21.9333 42.0245C21.1413 41.2225 19.9119 40.3753 19.2595 40.0025C18.5166 39.5733 18.9389 39.4565 18.9389 39.4565C18.8673 39.4226 18.7956 39.3963 18.7278 39.3662C18.1998 39.144 17.7736 39.0612 18.1583 38.8277C18.592 38.5604 20.1231 39.1177 20.1231 39.1177C18.1281 37.7923 17.5889 38.1161 17.9509 37.8337C18.4487 37.4496 20.3418 38.3345 20.3984 38.3608C19.3462 37.3668 18.5807 37.1409 18.9993 36.9903C19.4217 36.8397 21.5071 38.3458 22.2689 38.9106C22.4386 39.0386 22.5442 39.1177 22.5442 39.1177C22.5178 37.4459 23.0458 37.6755 23.0458 37.6755L23.042 37.6793Z" fill="#FF8B66"/>
<path d="M22.2651 38.9106C22.4348 39.0386 22.5404 39.1177 22.5404 39.1177C22.5404 39.1177 22.1822 39.7163 22.646 40.492C22.646 40.492 21.7975 39.9347 22.2651 38.9068V38.9106Z" fill="#EF6E4B"/>
<path d="M20.5153 40.0853C20.3381 39.9874 19.3311 39.4226 18.9314 39.4565C18.8597 39.4226 18.7881 39.3963 18.7202 39.3662C18.988 39.0122 20.3154 39.9422 20.5153 40.0853Z" fill="#EF6E4B"/>
<path d="M28.4235 70.4261C28.4235 70.6482 28.2425 70.829 28.02 70.829C27.7975 70.829 27.6165 70.6482 27.6165 70.4261C27.6165 70.2039 27.7975 70.0232 28.02 70.0232C28.2425 70.0232 28.4235 70.2039 28.4235 70.4261Z" fill="#6097B2"/>
<path d="M35.6039 73.1898C35.6039 73.412 35.4229 73.5927 35.2004 73.5927C34.9779 73.5927 34.7969 73.412 34.7969 73.1898C34.7969 72.9677 34.9779 72.7869 35.2004 72.7869C35.4229 72.7869 35.6039 72.9677 35.6039 73.1898Z" fill="#6097B2"/>
<path d="M41.7206 74.6733C41.7206 74.8955 41.5396 75.0762 41.3171 75.0762C41.0946 75.0762 40.9136 74.8955 40.9136 74.6733C40.9136 74.4512 41.0946 74.2704 41.3171 74.2704C41.5396 74.2704 41.7206 74.4512 41.7206 74.6733Z" fill="#6097B2"/>
<path d="M32.319 65.1773C32.319 65.3995 32.138 65.5802 31.9155 65.5802C31.693 65.5802 31.512 65.3995 31.512 65.1773C31.512 64.9552 31.693 64.7744 31.9155 64.7744C32.138 64.7744 32.319 64.9552 32.319 65.1773Z" fill="#6097B2"/>
<path d="M33.2731 69.3982C33.496 69.3982 33.6767 69.2178 33.6767 68.9953C33.6767 68.7728 33.496 68.5924 33.2731 68.5924C33.0503 68.5924 32.8696 68.7728 32.8696 68.9953C32.8696 69.2178 33.0503 69.3982 33.2731 69.3982Z" fill="#6097B2"/>
<path d="M40.0424 71.1716C40.0424 71.3938 39.8614 71.5745 39.6389 71.5745C39.4164 71.5745 39.2354 71.3938 39.2354 71.1716C39.2354 70.9495 39.4164 70.7687 39.6389 70.7687C39.8614 70.7687 40.0424 70.9495 40.0424 71.1716Z" fill="#6097B2"/>
<path d="M40.9174 64.5861C40.9174 64.8083 40.7364 64.989 40.5139 64.989C40.2914 64.989 40.1104 64.8083 40.1104 64.5861C40.1104 64.364 40.2914 64.1832 40.5139 64.1832C40.7364 64.1832 40.9174 64.364 40.9174 64.5861Z" fill="#6097B2"/>
<path d="M36.343 63.6185C36.5658 63.6185 36.7465 63.4381 36.7465 63.2156C36.7465 62.9931 36.5658 62.8127 36.343 62.8127C36.1201 62.8127 35.9395 62.9931 35.9395 63.2156C35.9395 63.4381 36.1201 63.6185 36.343 63.6185Z" fill="#6097B2"/>
<path d="M24.8598 78.2654C24.8598 78.4876 24.6788 78.6683 24.4563 78.6683C24.2338 78.6683 24.0527 78.4876 24.0527 78.2654C24.0527 78.0433 24.2338 77.8625 24.4563 77.8625C24.6788 77.8625 24.8598 78.0433 24.8598 78.2654Z" fill="#6097B2"/>
<path d="M19.1237 76.556C19.1237 76.7782 18.9427 76.9589 18.7202 76.9589C18.4977 76.9589 18.3167 76.7782 18.3167 76.556C18.3167 76.3339 18.4977 76.1531 18.7202 76.1531C18.9427 76.1531 19.1237 76.3339 19.1237 76.556Z" fill="#6097B2"/>
<path d="M15.707 73.412C15.6354 73.5212 15.5109 73.5927 15.3676 73.5927C15.1451 73.5927 14.9641 73.412 14.9641 73.1899C14.9641 73.1409 14.9717 73.092 14.9943 73.0505C15.2469 73.1371 15.4808 73.2614 15.707 73.4082V73.412Z" fill="#6097B2"/>
<path d="M26.5153 83.9097C26.7382 83.9097 26.9189 83.7293 26.9189 83.5068C26.9189 83.2843 26.7382 83.1039 26.5153 83.1039C26.2925 83.1039 26.1118 83.2843 26.1118 83.5068C26.1118 83.7293 26.2925 83.9097 26.5153 83.9097Z" fill="#6097B2"/>
<path d="M16.6195 89.1999C16.6195 89.422 16.4385 89.6028 16.216 89.6028C15.9935 89.6028 15.8125 89.422 15.8125 89.1999C15.8125 88.9777 15.9935 88.797 16.216 88.797C16.4385 88.797 16.6195 88.9777 16.6195 89.1999Z" fill="#6097B2"/>
<path d="M20.4248 86.15C20.6476 86.15 20.8283 85.9696 20.8283 85.7471C20.8283 85.5246 20.6476 85.3442 20.4248 85.3442C20.2019 85.3442 20.0212 85.5246 20.0212 85.7471C20.0212 85.9696 20.2019 86.15 20.4248 86.15Z" fill="#6097B2"/>
<path d="M14.1608 83.0963C14.3837 83.0963 14.5644 82.9159 14.5644 82.6934C14.5644 82.4709 14.3837 82.2905 14.1608 82.2905C13.938 82.2905 13.7573 82.4709 13.7573 82.6934C13.7573 82.9159 13.938 83.0963 14.1608 83.0963Z" fill="#6097B2"/>
<path d="M19.6178 94.7236C19.6178 94.9457 19.4368 95.1265 19.2143 95.1265C18.9918 95.1265 18.8108 94.9457 18.8108 94.7236C18.8108 94.5014 18.9918 94.3207 19.2143 94.3207C19.4368 94.3207 19.6178 94.5014 19.6178 94.7236Z" fill="#6097B2"/>
<path d="M23.453 73.5927C23.453 73.8149 23.272 73.9956 23.0495 73.9956C22.827 73.9956 22.646 73.8149 22.646 73.5927C22.646 73.3706 22.827 73.1898 23.0495 73.1898C23.272 73.1898 23.453 73.3706 23.453 73.5927Z" fill="#6097B2"/>
<path d="M27.3185 66.8265C27.3185 67.0486 27.1375 67.2294 26.915 67.2294C26.6925 67.2294 26.5115 67.0486 26.5115 66.8265C26.5115 66.6043 26.6925 66.4236 26.915 66.4236C27.1375 66.4236 27.3185 66.6043 27.3185 66.8265Z" fill="#6097B2"/>
<path d="M31.693 61.1936C31.693 61.4158 31.512 61.5965 31.2895 61.5965C31.067 61.5965 30.886 61.4158 30.886 61.1936C30.886 60.9714 31.067 60.7907 31.2895 60.7907C31.512 60.7907 31.693 60.9714 31.693 61.1936Z" fill="#6097B2"/>
<path d="M22.8271 69.3982C22.8271 69.6203 22.646 69.8011 22.4235 69.8011C22.201 69.8011 22.02 69.6203 22.02 69.3982C22.02 69.176 22.201 68.9953 22.4235 68.9953C22.646 68.9953 22.8271 69.176 22.8271 69.3982Z" fill="#6097B2"/>
<path d="M27.7221 62.8127C27.7221 63.0348 27.5411 63.2156 27.3186 63.2156C27.0961 63.2156 26.915 63.0348 26.915 62.8127C26.915 62.5905 27.0961 62.4098 27.3186 62.4098C27.5411 62.4098 27.7221 62.5905 27.7221 62.8127Z" fill="#6097B2"/>
<path d="M20.0211 80.9087C20.0211 81.1308 19.8401 81.3116 19.6176 81.3116C19.3951 81.3116 19.2141 81.1308 19.2141 80.9087C19.2141 80.6865 19.3951 80.5058 19.6176 80.5058C19.8401 80.5058 20.0211 80.6865 20.0211 80.9087Z" fill="#6097B2"/>
<path d="M14.964 77.358C14.964 77.5802 14.783 77.7609 14.5605 77.7609C14.338 77.7609 14.157 77.5802 14.157 77.358C14.157 77.1359 14.338 76.9551 14.5605 76.9551C14.783 76.9551 14.964 77.1359 14.964 77.358Z" fill="#6097B2"/>
<path d="M29.2268 76.556C29.4496 76.556 29.6303 76.3756 29.6303 76.1531C29.6303 75.9306 29.4496 75.7502 29.2268 75.7502C29.0039 75.7502 28.8232 75.9306 28.8232 76.1531C28.8232 76.3756 29.0039 76.556 29.2268 76.556Z" fill="#6097B2"/>
<path d="M37.5498 78.6683C37.7726 78.6683 37.9533 78.4879 37.9533 78.2654C37.9533 78.0429 37.7726 77.8625 37.5498 77.8625C37.3269 77.8625 37.1462 78.0429 37.1462 78.2654C37.1462 78.4879 37.3269 78.6683 37.5498 78.6683Z" fill="#6097B2"/>
<path d="M37.5497 66.8265C37.5497 67.0486 37.3687 67.2294 37.1462 67.2294C36.9237 67.2294 36.7427 67.0486 36.7427 66.8265C36.7427 66.6043 36.9237 66.4236 37.1462 66.4236C37.3687 66.4236 37.5497 66.6043 37.5497 66.8265Z" fill="#6097B2"/>
<path d="M42.3881 67.6661C42.3881 67.8883 42.2071 68.069 41.9846 68.069C41.7621 68.069 41.5811 67.8883 41.5811 67.6661C41.5811 67.444 41.7621 67.2632 41.9846 67.2632C42.2071 67.2632 42.3881 67.444 42.3881 67.6661Z" fill="#6097B2"/>
<path d="M32.7226 81.3116C32.7226 81.5337 32.5415 81.7145 32.319 81.7145C32.0965 81.7145 31.9155 81.5337 31.9155 81.3116C31.9155 81.0894 32.0965 80.9087 32.319 80.9087C32.5415 80.9087 32.7226 81.0894 32.7226 81.3116Z" fill="#6097B2"/>
<path d="M28.8232 88.861C29.0461 88.861 29.2267 88.6806 29.2267 88.4581C29.2267 88.2356 29.0461 88.0552 28.8232 88.0552C28.6003 88.0552 28.4197 88.2356 28.4197 88.4581C28.4197 88.6806 28.6003 88.861 28.8232 88.861Z" fill="#6097B2"/>
<path d="M22.6459 90.0057C22.8688 90.0057 23.0495 89.8253 23.0495 89.6028C23.0495 89.3803 22.8688 89.1999 22.6459 89.1999C22.4231 89.1999 22.2424 89.3803 22.2424 89.6028C22.2424 89.8253 22.4231 90.0057 22.6459 90.0057Z" fill="#6097B2"/>
<path d="M39.6389 83.9097C39.8617 83.9097 40.0424 83.7293 40.0424 83.5068C40.0424 83.2843 39.8617 83.1039 39.6389 83.1039C39.416 83.1039 39.2354 83.2843 39.2354 83.5068C39.2354 83.7293 39.416 83.9097 39.6389 83.9097Z" fill="#6097B2"/>
<path d="M34.4799 86.5528C34.4799 86.775 34.2989 86.9557 34.0764 86.9557C33.8539 86.9557 33.6729 86.775 33.6729 86.5528C33.6729 86.3307 33.8539 86.15 34.0764 86.15C34.2989 86.15 34.4799 86.3307 34.4799 86.5528Z" fill="#6097B2"/>
<path d="M26.1117 95.5256C26.1117 95.7477 25.9307 95.9285 25.7082 95.9285C25.4857 95.9285 25.3047 95.7477 25.3047 95.5256C25.3047 95.3034 25.4857 95.1227 25.7082 95.1227C25.9307 95.1227 26.1117 95.3034 26.1117 95.5256Z" fill="#6097B2"/>
<path d="M31.9194 93.8349C32.1422 93.8349 32.3229 93.6546 32.3229 93.4321C32.3229 93.2096 32.1422 93.0292 31.9194 93.0292C31.6965 93.0292 31.5159 93.2096 31.5159 93.4321C31.5159 93.6546 31.6965 93.8349 31.9194 93.8349Z" fill="#6097B2"/>
<path d="M37.9003 91.4703C38.1232 91.4703 38.3039 91.2899 38.3039 91.0674C38.3039 90.8449 38.1232 90.6646 37.9003 90.6646C37.6775 90.6646 37.4968 90.8449 37.4968 91.0674C37.4968 91.2899 37.6775 91.4703 37.9003 91.4703Z" fill="#6097B2"/>
<path d="M35.6039 97.9805C35.6039 98.2027 35.4229 98.3834 35.2004 98.3834C34.9779 98.3834 34.7969 98.2027 34.7969 97.9805C34.7969 97.7584 34.9779 97.5776 35.2004 97.5776C35.4229 97.5776 35.6039 97.7584 35.6039 97.9805Z" fill="#6097B2"/>
<path d="M35.1625 119.141H28.5516C28.1217 117.914 28.9174 116.679 28.7817 115.595C28.5516 113.765 29.6189 114.774 29.6189 114.774C29.8074 112.804 32.5793 112.432 32.5491 113.309C32.5038 114.601 32.7527 115.399 33.1223 115.933C33.869 117.007 35.0909 116.999 35.2983 117.767C35.3209 117.842 35.336 117.918 35.3473 117.986C35.551 118.946 35.1587 119.134 35.1587 119.134L35.1625 119.141Z" fill="#164353"/>
<path d="M35.351 117.993C33.9821 118.309 30.8256 117.895 30.7012 117.104C30.5805 116.336 32.2813 115.975 33.126 115.941C33.8727 117.014 35.0946 117.007 35.302 117.775C35.3246 117.85 35.3397 117.925 35.351 117.993Z" fill="#205260"/>
<path d="M7.98361 68.0126C7.27839 67.3725 6.13572 68.4305 6.13572 68.4305C6.13572 68.4305 6.75043 69.3417 6.35445 69.7107C5.95848 70.0797 5.49462 69.24 4.71399 69.6053C4.64988 69.6354 4.58577 69.673 4.52166 69.7145C3.91072 70.0797 3.27339 70.8441 2.76051 71.4239C2.65492 71.5406 2.55687 71.6498 2.46259 71.744C1.86297 72.3728 0.320555 72.738 0.0301732 71.0662C-0.260208 69.3944 1.62539 67.4327 3.692 65.6329C5.75861 63.8331 7.09738 64.9024 7.09738 64.9024C7.09738 64.9024 7.565 65.6592 7.565 66.1299C7.565 66.6006 7.98361 66.834 8.21742 67.2783C8.45123 67.7226 7.98361 68.0088 7.98361 68.0088V68.0126Z" fill="#164353"/>
<path d="M4.52173 69.7145C3.9108 70.0797 3.27347 70.844 2.76059 71.4239C1.9875 71.6084 1.28983 71.5519 1.18046 70.8252C0.916478 69.0706 4.42368 66.8378 4.14461 68.069C4.00131 68.6865 4.24644 69.2777 4.52173 69.7107V69.7145Z" fill="#205260"/>
<path d="M126.945 116.287C126.621 116.118 126.319 115.741 126.048 115.267C126.048 115.267 125.814 113.863 126.048 112.387C126.282 110.911 125.637 109.706 123.544 109.25C121.507 108.81 120.301 109.788 120.772 113.874C120.463 115.572 120.399 117.507 121.104 119.141H127.368C127.368 119.141 128.356 117.025 126.945 116.287Z" fill="#CFD8DC"/>
<path d="M132.444 94.268C132.444 94.268 132.444 98.3458 130.14 102.525C127.794 106.784 124.894 112.624 124.894 112.624C124.894 112.624 122.963 114.506 121.734 111.389C121.734 111.389 122.601 100.537 124.589 96.5685C126.576 92.5962 132.44 94.268 132.44 94.268H132.444Z" fill="#FF8B66"/>
<path d="M162.485 80.9953C162.485 80.9953 166.215 96.6627 168.591 100.797C168.591 100.797 168.044 102.525 165.476 103.049C165.476 103.049 157.357 91.1352 156.836 86.1161C156.316 81.097 162.489 80.9953 162.489 80.9953H162.485Z" fill="#FF8B66"/>
<path d="M164.288 84.6815C163.296 87.0687 155.629 87.1968 155.629 87.1968L155.045 86.3345L154.89 86.1086L153.691 84.3427C153.691 84.3427 140.986 71.9021 138.512 72.9451H138.508C138.436 72.979 138.365 73.0167 138.297 73.0656C136.596 74.278 136.438 80.92 134.428 92.0691C134.235 93.1271 133.809 94.3584 133.485 95.2131C133.447 95.3034 133.413 95.3938 133.379 95.4767C133.194 95.9473 133.066 96.2485 133.066 96.2485C125.313 99.385 122.752 93.1874 122.752 93.1874C122.752 93.1874 122.842 93.0066 122.978 92.7205C123.008 92.6564 123.042 92.5849 123.076 92.5096C123.484 91.6135 124.132 90.0622 124.125 89.2451C124.117 88.3452 124.11 87.4792 124.102 86.6508C124.102 86.5755 124.102 86.5039 124.098 86.4324C124.087 83.7515 124.091 81.4246 124.106 79.4026V79.188C124.113 78.3069 124.128 77.4823 124.144 76.7142V76.4958C124.211 72.9715 124.325 70.6182 124.445 69.0518C124.449 68.9803 124.457 68.905 124.46 68.8372C124.675 66.1977 124.902 65.9417 124.902 65.9417L123.348 55.1616H140.296C140.296 55.1616 142.841 57.707 146.145 61.0694C146.216 61.1371 146.284 61.2049 146.348 61.2727C147.548 62.4889 148.841 63.8105 150.138 65.151C150.191 65.2037 150.244 65.2564 150.289 65.3053C150.798 65.8325 151.311 66.3596 151.816 66.883C151.881 66.947 151.937 67.011 152.001 67.075C153.702 68.8334 155.35 70.5692 156.761 72.0866C156.81 72.1356 156.859 72.1883 156.904 72.2372C158.835 74.3232 160.305 75.9912 160.811 76.7707C162.153 78.8227 163.202 81.4961 163.779 83.1453C163.809 83.2244 163.831 83.2921 163.858 83.3637C164.129 84.1657 164.28 84.6778 164.28 84.6778L164.288 84.6815Z" fill="#8B383E"/>
<path d="M127.443 67.5607C126.753 68.3778 125.746 68.8786 124.449 69.0556C124.453 68.984 124.46 68.9087 124.464 68.841C125.686 68.664 126.632 68.1896 127.281 67.4214C128.446 66.0509 128.258 64.1983 128.254 64.1833L128.465 64.1569C128.473 64.236 128.665 66.1186 127.443 67.5607Z" fill="#662C33"/>
<path d="M146.356 61.2765C146.288 61.2803 146.228 61.284 146.16 61.284C144.274 61.284 142.309 59.2282 142.208 59.1227L142.358 58.9759C142.385 59.006 144.342 61.0543 146.152 61.0694C146.224 61.1372 146.292 61.2049 146.356 61.2727V61.2765Z" fill="#662C33"/>
<path d="M133.488 95.2169C133.451 95.3072 133.417 95.3976 133.383 95.4804C132.127 95.9398 130.977 96.1281 129.925 96.1281C126.576 96.1281 124.257 94.1927 122.982 92.7242C123.012 92.6602 123.046 92.5887 123.08 92.5134C124.709 94.4186 128.19 97.2313 133.488 95.2131V95.2169Z" fill="#662C33"/>
<path d="M138.04 69.0669C138.319 70.268 138.5 71.5746 138.508 72.9489C138.436 72.9828 138.365 73.0204 138.297 73.0694C138.289 66.7588 134.627 61.8338 134.586 61.7773L134.752 61.653C134.786 61.6944 136.954 64.6201 137.98 68.8485C138.406 68.5699 138.697 68.167 138.817 67.6474C139.345 65.4334 136.947 61.8112 136.924 61.7735L137.098 61.6568C137.199 61.8112 139.568 65.3882 139.025 67.6925C138.881 68.295 138.546 68.7506 138.037 69.0631L138.04 69.0669Z" fill="#662C33"/>
<path d="M156.911 72.2448C156.289 72.9225 155.701 73.4986 155.648 73.5476L155.535 73.6605L155.482 73.5099C154.66 71.3637 149.384 66.7173 149.331 66.6722L149.267 66.6119L150.146 65.1585C150.199 65.2112 150.251 65.2639 150.297 65.3129L149.561 66.5328C150.587 66.8868 151.315 66.9508 151.828 66.8868C151.892 66.9508 151.948 67.0148 152.013 67.0788C151.839 67.1089 151.658 67.124 151.466 67.124C150.994 67.124 150.451 67.0261 149.844 66.8454C151.043 67.9222 154.765 71.3675 155.618 73.2878C155.95 72.9602 156.368 72.531 156.772 72.0904C156.821 72.1394 156.87 72.1921 156.915 72.241L156.911 72.2448Z" fill="#662C33"/>
<path d="M127.964 86.6207L127.881 86.6358C127.801 86.6584 126.851 86.8542 125.757 86.8542C125.211 86.8542 124.63 86.8052 124.109 86.6584C124.109 86.5831 124.109 86.5115 124.106 86.44C125.486 86.8353 127.334 86.5303 127.752 86.4513L127.402 77.7534C127.206 78.2316 126.817 78.883 126.086 79.2407C125.739 79.4177 125.35 79.5005 124.92 79.5005C124.664 79.5005 124.396 79.4704 124.113 79.4102V79.1955C124.837 79.3612 125.467 79.316 125.988 79.0525C126.874 78.6119 127.228 77.6744 127.334 77.3016C126.636 77.407 125.222 77.0493 124.147 76.7217V76.5034C125.309 76.8535 126.878 77.2602 127.443 77.0644L127.579 77.0192L127.964 86.6207Z" fill="#662C33"/>
<path d="M163.865 83.3675C162.647 84.5686 160.151 86.4023 156.312 86.4023C155.904 86.4023 155.482 86.3797 155.045 86.3345L154.89 86.1086C159.559 86.6433 162.485 84.4556 163.786 83.1528C163.816 83.2281 163.839 83.2959 163.865 83.3675Z" fill="#662C33"/>
<path d="M143.433 9.32667C143.433 9.32667 142.966 8.25732 141.001 8.25732C139.485 8.25732 138.904 9.09322 138.904 9.09322C137.995 11.7402 137.022 21.8802 136.672 22.2379C136.494 22.4224 125.245 29.9831 125.245 29.9831C131.35 30.096 135.156 37.6078 135.156 37.6078C135.352 35.1378 142.245 25.3555 142.321 24.4858C142.46 22.8403 145.375 15.4905 143.43 9.32667H143.433Z" fill="#CE364C"/>
<path d="M123.906 62.3345C123.906 62.3345 123.849 64.4506 124.536 64.5899C125.222 64.7292 130.803 66.3784 137.222 63.4641C143.641 60.5498 144.757 58.3885 142.875 56.7882C140.989 55.1842 123.906 62.3383 123.906 62.3383V62.3345Z" fill="#CE364C"/>
<path d="M121.334 31.4478C121.334 31.4478 115.493 30.7587 112.144 32.2046C112.144 32.2046 111.208 36.3427 115.813 45.6053C120.414 54.8679 119.347 60.7004 124.536 62.8955C129.137 64.8422 142.702 59.0474 143.128 57.1271C144.199 52.2887 135.906 43.8017 135.382 38.8842C134.858 33.9668 130.042 26.5717 121.334 31.4478Z" fill="#F24052"/>
<path d="M112.144 32.2046C108.063 33.6504 103.47 38.2291 103.462 40.4355C103.455 42.642 107.294 43.4929 107.294 43.4929L113.584 40.4355C113.584 40.4355 115.383 39.1817 114.237 35.5256C113.09 31.8695 112.144 32.2046 112.144 32.2046Z" fill="#CE364C"/>
<path d="M128.918 36.2862C127.7 36.2862 126.184 35.8494 125.245 35.1792C124.728 34.8102 124.419 34.396 124.351 33.978C124.121 32.5284 125.531 31.7942 125.592 31.764L125.78 32.1368C125.731 32.1632 124.581 32.7694 124.762 33.914C124.811 34.219 125.06 34.5391 125.486 34.8403C126.538 35.5896 128.36 36.0301 129.544 35.8193C130.079 35.7251 130.426 35.5331 130.581 35.2507C130.77 34.9043 130.607 34.5089 130.607 34.5052L130.992 34.3395C131.003 34.3621 131.237 34.9156 130.951 35.4427C130.732 35.8456 130.283 36.113 129.616 36.2297C129.401 36.2673 129.163 36.2862 128.914 36.2862H128.918Z" fill="#CFD8DC"/>
<path d="M123.74 40.6954C122.835 40.6954 121.338 40.3188 121.127 38.8391C121.021 38.086 121.089 37.4572 121.149 36.9037C121.24 36.0866 121.308 35.4428 120.832 34.6709C120.044 33.3944 118.973 33.3116 118.928 33.3078L118.954 32.8899C119.007 32.8899 120.282 32.984 121.187 34.4525C121.738 35.3486 121.655 36.128 121.564 36.9526C121.504 37.5099 121.44 38.0822 121.541 38.7826C121.768 40.3791 123.808 40.2812 123.895 40.2774L123.921 40.6954C123.864 40.6954 123.804 40.6991 123.744 40.6991L123.74 40.6954Z" fill="#CFD8DC"/>
<path d="M125.011 33.1911C125.011 33.1911 128.1 31.09 127.368 28.8195C126.636 26.5453 116.692 26.7035 114.127 29.422C111.563 32.1405 119.675 33.9441 119.675 33.9441C120.305 32.679 124.317 32.5397 125.015 33.1948L125.011 33.1911Z" fill="#CE364C"/>
<path d="M119.46 32.8371C117.993 32.3401 117.125 31.2858 117.438 30.0659C117.751 28.8459 124.053 28.8158 125.245 29.7873C126.436 30.7587 124.758 34.6332 119.456 32.8371H119.46Z" fill="#A02E44"/>
<path d="M118.762 29.4107C118.762 29.4107 120.059 31.621 119.46 32.8372C119.46 32.8372 123.906 34.3696 123.906 31.8845C123.906 31.8845 123.069 30.0207 123.386 28.8196L118.762 29.4107Z" fill="#EF6E4B"/>
<path d="M117.28 27.4791C117.28 27.4791 115.097 23.9849 115.296 20.6489C115.398 18.9808 116.258 18.3257 116.258 18.3257C116.258 18.3257 115.564 17.3618 116.307 15.8895C116.307 15.8895 117.337 17.0794 120.949 16.7028C124.434 16.3414 124.781 18.8189 124.781 18.8189C127.27 19.1879 125.592 26.7072 123.853 27.4753H117.28V27.4791Z" fill="#FFB878"/>
<path d="M116.352 24.2522C116.352 24.2522 115.097 23.0021 114.942 24.4631C114.765 26.1575 116.303 26.839 116.605 26.3005C116.907 25.7621 116.352 24.2522 116.352 24.2522Z" fill="#FF8B66"/>
<path d="M125.147 24.3426C125.147 24.3426 126.403 23.0925 126.557 24.5535C126.734 26.2479 125.196 26.9294 124.894 26.3909C124.592 25.8525 125.147 24.3426 125.147 24.3426Z" fill="#FF8B66"/>
<path d="M120.618 30.3897C117.831 30.3897 116.258 28.571 116.258 23.1226C116.258 20.31 117.691 18.5854 120.814 18.5854C123.936 18.5854 125.249 20.31 125.249 23.1226C125.249 28.9777 123.499 30.3897 120.618 30.3897Z" fill="#FF8B66"/>
<path d="M124.325 25.0656C124.374 25.3442 124.128 25.6228 123.778 25.6831C123.427 25.7433 123.103 25.5664 123.054 25.2877C123.005 25.0091 123.25 24.7305 123.6 24.6702C123.951 24.61 124.275 24.7869 124.325 25.0656Z" fill="#DB614D"/>
<path d="M118.592 25.22C118.574 25.5023 118.272 25.7132 117.917 25.6906C117.563 25.668 117.291 25.4195 117.31 25.1371C117.329 24.8547 117.631 24.6439 117.985 24.6665C118.34 24.689 118.611 24.9376 118.592 25.22Z" fill="#DB614D"/>
<path d="M123.095 22.1437C123.057 22.1512 123.02 22.1437 122.99 22.1173C122.545 21.7784 121.881 21.8989 121.869 21.8989C121.794 21.9102 121.722 21.865 121.707 21.786C121.692 21.7106 121.741 21.6391 121.817 21.624C121.847 21.6165 122.616 21.481 123.155 21.8951C123.216 21.9403 123.227 22.0307 123.182 22.0909C123.159 22.1211 123.125 22.1399 123.091 22.1437H123.095Z" fill="#FFB878"/>
<path d="M117.763 22.1625C117.729 22.1588 117.695 22.1399 117.672 22.1136C117.623 22.0533 117.631 21.9667 117.691 21.9178C118.219 21.4848 118.992 21.6015 119.022 21.6053C119.098 21.6166 119.151 21.6881 119.139 21.7634C119.128 21.8387 119.053 21.8914 118.981 21.8801C118.977 21.8801 118.298 21.7822 117.868 22.1324C117.838 22.1588 117.801 22.1663 117.763 22.1625Z" fill="#FFB878"/>
<path d="M122.809 23.7138C122.809 24.0602 122.654 24.3388 122.462 24.3388C122.269 24.3388 122.115 24.0602 122.115 23.7138C122.115 23.3674 122.269 23.0887 122.462 23.0887C122.654 23.0887 122.809 23.3674 122.809 23.7138Z" fill="#1A4850"/>
<path d="M119.086 23.7138C119.086 24.0602 118.932 24.3388 118.74 24.3388C118.547 24.3388 118.393 24.0602 118.393 23.7138C118.393 23.3674 118.547 23.0887 118.74 23.0887C118.932 23.0887 119.086 23.3674 119.086 23.7138Z" fill="#1A4850"/>
<path d="M117.11 19.1917C117.11 19.1917 120.078 20.2761 124.336 19.9711C124.336 19.9711 125.245 21.1007 125.135 25.0881C125.135 25.0881 127.628 17.9077 120.35 17.9077C113.071 17.9077 116.352 24.93 116.352 24.93C116.352 24.93 115.756 20.5397 117.11 19.1917Z" fill="#FFB878"/>
<path d="M120.791 25.5738L120.583 25.363L121.134 24.817C120.599 24.064 120.602 22.3169 120.602 22.2378H120.896C120.896 22.2566 120.897 24.1355 121.44 24.7267L121.538 24.8321L120.791 25.5738Z" fill="#DB614D"/>
<path d="M118.943 26.4813C118.943 26.4813 121.685 26.598 123.069 26.2328C123.069 26.2328 123.314 28.2246 121.187 28.3225C118.939 28.428 118.939 26.4813 118.939 26.4813H118.943Z" fill="#1A4850"/>
<path d="M130.664 34.0119C131.188 33.914 131.135 35.2808 130.664 34.8855C130.192 34.4901 130.14 34.1098 130.664 34.0119Z" fill="#CFD8DC"/>
<path d="M124.351 40.6389C124.272 41.166 122.993 40.6652 123.525 40.3527C124.053 40.0364 124.43 40.1155 124.351 40.6389Z" fill="#CFD8DC"/>
<path d="M118.732 43.4929C118.732 43.4929 117.902 45.6203 117.948 46.8214C117.997 48.0226 118.389 47.8682 118.389 47.8682C118.389 47.8682 117.759 48.1167 117.638 48.8095C117.518 49.5023 119.271 50.0106 119.392 50.0106C119.513 50.0106 120.75 49.54 120.75 49.54L121.01 45.609L119.916 44.9237L118.732 43.4929Z" fill="#EF6E4B"/>
<path d="M119.396 43.2143C119.396 43.2143 120.908 44.1557 121.496 44.728C122.081 45.3041 121.749 49.7434 121.496 49.9542C121.244 50.1651 119.317 50.5943 118.947 50.3533C118.577 50.1124 119.09 48.8058 119.09 48.8058C119.09 48.8058 120.06 48.5949 119.92 48.9639C119.78 49.3329 119.92 49.6417 119.92 49.6417L120.316 49.4836C120.316 49.4836 120.12 48.4895 120.316 47.759C120.512 47.0286 118.951 46.2567 118.762 44.9163C118.574 43.5758 119.396 43.2106 119.396 43.2106V43.2143Z" fill="#FF8B66"/>
<path d="M103.711 41.0531C103.229 38.9633 105.303 38.2253 108.191 38.583C111.54 38.9972 118.419 39.8708 119.916 43.493C119.916 43.493 120.406 44.9238 119.139 45.6091C115.606 47.5294 104.62 44.9765 103.711 41.0531Z" fill="#CE364C"/>
<path d="M114.191 39.6674C114.191 39.6674 110.198 38.0107 108.21 37.845C106.223 37.6756 110.96 39.4114 114.191 39.6674Z" fill="#A02E44"/>
<path d="M144.116 3.78412C143.814 4.12677 143.316 5.45968 143.316 5.45968C143.105 6.58174 142.984 7.19925 142.592 7.71133C142.204 8.22717 142.407 9.13085 142.407 9.13085C142.407 9.13085 140.884 9.91403 139.602 8.94635C139.602 8.94635 139.737 8.04644 139.602 7.79417C139.338 7.28585 138.493 7.01098 138.203 5.98306C137.912 4.95137 137.049 3.79919 137.049 3.79919C137.049 3.79919 137.297 3.26451 137.746 3.58833C138.203 3.91967 138.493 4.74051 138.738 4.82711C138.787 4.84217 138.84 4.85723 138.889 4.861C138.889 4.861 138.893 4.861 138.9 4.86476C139.089 4.89112 139.281 4.8497 139.398 4.73674C139.406 4.73298 139.421 4.72545 139.428 4.71039C139.843 4.22843 139.937 2.81644 139.922 2.18387C139.896 1.30656 139.93 0.0941336 140.465 0.29746C141.001 0.500786 140.511 0.990274 140.925 2.92564L141.125 2.95199C141.163 3.09131 141.533 1.77722 141.619 0.542204C141.683 -0.304988 142.238 0.0075318 142.362 0.274868C142.487 0.542204 142.298 1.38563 142.26 2.00314C142.23 2.40979 142.196 2.8315 142.177 3.08001L142.411 3.20803C143.256 1.7358 142.969 1.12582 143.463 1.0957C143.954 1.06558 143.776 2.30813 143.512 2.77879C143.399 2.98212 143.29 3.41136 143.203 3.82931C144.071 2.8315 143.972 2.30813 144.372 2.37214C144.783 2.43991 144.414 3.43019 144.112 3.77283L144.116 3.78412Z" fill="#FF8B66"/>
<path d="M140.371 6.08847C140.077 5.2827 139.032 4.9137 138.9 4.87228C139.089 4.89864 139.281 4.85722 139.398 4.74426C140.424 5.20363 140.371 6.08847 140.371 6.08847Z" fill="#EF6E4B"/>
<path d="M122.186 113.012C122.186 113.012 121.606 111.829 122.122 111.325C122.639 110.816 123.246 111.758 124.129 111.551C125.011 111.34 125.215 110.715 125.445 111.569C125.675 112.424 125.396 115.105 122.186 113.015V113.012Z" fill="#CFD8DC"/>
<path d="M125.505 112.959C125.505 112.959 123.137 113.799 121.907 112.959L122.22 113.983C122.22 113.983 124.796 114.254 125.15 113.606L125.505 112.959Z" fill="#ADBEC4"/>
<path d="M125.475 114.232C125.475 114.232 123.306 113.93 122.258 114.469V114.977C122.258 114.977 125.086 114.318 126.003 114.977L125.475 114.232Z" fill="#ADBEC4"/>
<path d="M122.152 116.031C122.152 116.031 122.575 115.007 123.895 114.936C125.215 114.86 126.105 115.587 126.105 115.587C126.105 115.587 124.012 114.725 122.152 116.031Z" fill="#ADBEC4"/>
<path d="M178 101.806C173.833 107.356 168.165 108.425 168.165 108.425C166.52 107.111 166.479 105.556 166.479 105.556C166.479 105.556 164.891 104.144 164.684 103.467C164.473 102.789 166.045 100.748 166.988 100.959C167.637 101.102 168.014 101.618 168.187 101.923C167.41 100.172 168.033 99.562 169.138 99.7126C170.288 99.8669 169.202 100.138 170.024 101.064C170.084 101.132 170.148 101.185 170.22 101.238C170.371 101.343 170.552 101.414 170.755 101.452C170.936 101.486 171.136 101.494 171.348 101.482C171.457 101.478 171.57 101.467 171.683 101.448C171.898 101.414 172.113 101.362 172.339 101.29C172.686 101.181 173.048 101.027 173.399 100.835C174.84 100.048 175.447 99.7803 176.544 100.063C177.638 100.338 177.619 101.166 177.619 101.166L178.004 101.814L178 101.806Z" fill="#CFD8DC"/>
<path d="M178 101.806C173.833 107.356 168.165 108.425 168.165 108.425C171.057 107.183 173.716 105.556 175.533 103.557C177.347 101.554 178 101.81 178 101.81V101.806Z" fill="#ADBEC4"/>
<path d="M170.216 101.234C170.367 101.339 170.548 101.411 170.752 101.448C169.651 101.671 169.571 102.653 169.571 102.653L169.104 102.503C169.206 101.324 170.137 101.241 170.216 101.238V101.234Z" fill="#ADBEC4"/>
<path d="M170.959 102.77L170.469 102.785C170.284 102.092 170.522 101.678 170.752 101.448C170.933 101.482 171.133 101.49 171.344 101.478C170.763 102.051 170.959 102.77 170.959 102.77Z" fill="#ADBEC4"/>
<path d="M172.17 102.503L171.683 102.567C171.495 102.073 171.548 101.704 171.68 101.445C171.895 101.411 172.109 101.358 172.336 101.286C171.932 101.885 172.17 102.503 172.17 102.503Z" fill="#ADBEC4"/>
<path d="M125.55 50.9482C125.55 50.9482 126.625 56.743 124.453 59.0511C122.281 61.3592 123.718 59.4615 124.366 56.487C125.015 53.5124 124.521 50.3759 125.554 50.9482H125.55Z" fill="#CE364C"/>
<path d="M135.582 48.3652C135.582 48.3652 139.01 49.491 140.801 52.6501C140.801 52.6501 138.406 47.503 135.582 48.3652Z" fill="#CE364C"/>
<path d="M46.5629 5.32411C47.0192 5.33165 48.3429 5.85879 48.3429 5.85879C49.3159 6.45747 49.8552 6.78128 50.5 6.834C51.1449 6.89048 51.4051 7.99371 51.4051 7.99371C51.4051 7.99371 53.9394 8.54721 54.0827 6.95072C54.0827 6.95072 52.6647 4.94759 52.5666 4.67648C52.3668 4.13805 52.7326 3.33227 52.1631 2.42484C51.5899 1.5174 51.3184 0.105414 51.3184 0.105414C51.3184 0.105414 50.7565 -0.071555 50.6924 0.481944C50.632 1.04297 51.0469 1.80733 50.945 2.04831C50.9224 2.09726 50.8998 2.14244 50.8696 2.18386C50.8696 2.18386 50.8696 2.18386 50.8658 2.19515C50.7565 2.34953 50.5981 2.46625 50.4359 2.47755C50.4284 2.47755 50.4133 2.48508 50.3982 2.48132C49.7646 2.46625 48.6484 1.58894 48.1921 1.15217C47.5585 0.545954 46.6346 -0.244759 46.4271 0.289913C46.2197 0.824585 46.9099 0.790698 48.0714 2.39471L47.9545 2.56039C48.0299 2.68088 46.808 2.0709 45.8351 1.31031C45.1638 0.786933 45.0205 1.40821 45.1374 1.67931C45.2505 1.95041 46.0048 2.37965 46.4875 2.76371C46.808 3.01599 47.1437 3.27203 47.3435 3.42641L47.2832 3.68621C45.6239 3.32474 45.3637 2.6997 45.0092 3.04611C44.6585 3.38875 45.6993 4.09286 46.2273 4.21335C46.4535 4.26607 46.8457 4.47316 47.2153 4.68778C45.8916 4.65766 45.5673 4.23594 45.3486 4.57106C45.1223 4.92123 46.1066 5.31282 46.5629 5.32035V5.32411Z" fill="#FF8B66"/>
<path d="M50.7866 4.10037C50.3831 3.34354 50.813 2.31938 50.8696 2.19513C50.7602 2.34951 50.6018 2.46623 50.4397 2.47753C50.0927 3.54687 50.7866 4.10037 50.7866 4.10037Z" fill="#EF6E4B"/>
<path d="M121.18 5.32411C120.723 5.33165 119.4 5.85879 119.4 5.85879C118.427 6.45747 117.887 6.78128 117.243 6.834C116.598 6.89048 116.337 7.99371 116.337 7.99371C116.337 7.99371 113.803 8.54721 113.66 6.95072C113.66 6.95072 115.078 4.94759 115.176 4.67648C115.376 4.13805 115.01 3.33227 115.579 2.42484C116.153 1.5174 116.424 0.105414 116.424 0.105414C116.424 0.105414 116.986 -0.071555 117.05 0.481944C117.111 1.04297 116.696 1.80733 116.798 2.04831C116.82 2.09726 116.843 2.14244 116.873 2.18386C116.873 2.18386 116.873 2.18386 116.877 2.19515C116.986 2.34953 117.144 2.46625 117.307 2.47755C117.314 2.47755 117.329 2.48508 117.344 2.48132C117.978 2.46625 119.094 1.58894 119.551 1.15217C120.184 0.545954 121.108 -0.244759 121.315 0.289913C121.523 0.824585 120.833 0.790698 119.671 2.39471L119.788 2.56039C119.713 2.68088 120.935 2.0709 121.907 1.31031C122.579 0.786933 122.722 1.40821 122.605 1.67931C122.492 1.95041 121.738 2.37965 121.255 2.76371C120.935 3.01599 120.599 3.27203 120.399 3.42641L120.459 3.68621C122.119 3.32474 122.379 2.6997 122.733 3.04611C123.084 3.38875 122.043 4.09286 121.515 4.21335C121.289 4.26607 120.897 4.47316 120.527 4.68778C121.851 4.65766 122.175 4.23594 122.394 4.57106C122.62 4.92123 121.636 5.31282 121.18 5.32035V5.32411Z" fill="#FF8B66"/>
<path d="M116.956 4.10037C117.36 3.34354 116.93 2.31938 116.873 2.19513C116.982 2.34951 117.141 2.46623 117.303 2.47753C117.65 3.54687 116.956 4.10037 116.956 4.10037Z" fill="#EF6E4B"/>
<path d="M98.8919 82.0759L94.0195 51.9573L84.2634 53.0455L74.5074 51.9573L69.635 82.0759L67.2969 111.287C67.2969 111.287 68.0398 113.708 72.9084 112.036C72.9084 112.036 76.5174 84.9413 77.0756 84.3464C77.6337 83.7515 83.3659 66.0508 83.3659 66.0508H85.161C85.161 66.0508 90.8932 83.7477 91.4513 84.3464C92.0095 84.9413 95.6185 112.036 95.6185 112.036C100.483 113.708 101.23 111.287 101.23 111.287L98.8919 82.0759Z" fill="#0E3944"/>
<path d="M81.1937 22.7913C81.8084 23.39 84.8405 24.4706 86.4432 22.7913L87.5293 23.8569C87.5293 23.8569 86.2924 26.7637 84.1202 26.8654C81.948 26.967 80.3792 24.2786 80.3792 24.2786L81.1975 22.7913H81.1937Z" fill="#0C476B"/>
<path d="M89.7769 22.4637C93.4047 20.9049 105.129 16.7593 105.129 16.7593C105.129 16.7593 113.011 6.90177 114.618 5.43707C114.618 5.43707 116.364 5.74959 116.873 7.9184C116.873 7.9184 111.797 18.7662 109.04 21.8726C106.283 24.979 92.3111 31.6962 92.3111 31.6962L89.7806 22.4637H89.7769Z" fill="#0C476B"/>
<path d="M77.0755 22.2378C78.1541 21.5563 83.5733 25.1747 83.5733 25.1747C83.5733 25.1747 90.6179 21.4396 92.2734 22.1625C92.2734 22.1625 93.763 24.1544 94.3627 29.2714C94.9623 34.3884 95 55.4553 95 55.4553C95 55.4553 90.2634 57.1271 83.8561 57.1271C76.5513 57.1271 72.6218 55.0373 72.6218 55.0373C72.6218 55.0373 71.3169 25.8713 77.0755 22.2378Z" fill="#FFB878"/>
<path d="M81.4766 21.6918C81.4766 21.6918 82.2572 24.143 81.4766 25.0881C81.4766 25.0881 82.2874 26.7863 83.743 26.8616C85.425 26.9482 86.0095 25.0881 86.0095 25.0881C86.0095 25.0881 85.1195 22.7198 86.0095 21.8876L81.4766 21.6918Z" fill="#EF6E4B"/>
<path d="M79.5344 19.2783C79.5344 19.2783 77.8939 16.123 78.2182 12.7493C78.5426 9.37558 83.6337 8.60369 87.0617 10.2604C87.0617 10.2604 86.0434 9.26638 86.4432 8.99152C86.8429 8.71665 87.5293 10.4826 87.5293 10.4826C87.5293 10.4826 88.6116 10.1512 88.7776 10.4826C88.9435 10.8139 87.6688 10.9947 87.6688 10.9947C87.6688 10.9947 89.8825 12.2184 87.8159 18.7436L79.5381 19.2783H79.5344Z" fill="#8B383E"/>
<path d="M79.2854 17.279C79.2854 17.279 78.0598 16.059 77.9089 17.486C77.7355 19.139 79.2364 19.8055 79.5305 19.2783C79.8247 18.7512 79.2816 17.279 79.2816 17.279H79.2854Z" fill="#FF8B66"/>
<path d="M87.861 17.3656C87.861 17.3656 89.0867 16.1456 89.2375 17.5727C89.411 19.2256 87.9101 19.8921 87.6159 19.3649C87.3218 18.8378 87.8648 17.3656 87.8648 17.3656H87.861Z" fill="#FF8B66"/>
<path d="M83.445 23.2658C80.7297 23.2658 79.1948 21.4923 79.1948 16.1795C79.1948 13.4383 80.5902 11.7552 83.6335 11.7552C86.6769 11.7552 87.9591 13.4383 87.9591 16.1795C87.9591 21.8914 86.2507 23.2658 83.445 23.2658Z" fill="#FF8B66"/>
<path d="M87.0577 18.0734C87.1068 18.3445 86.8654 18.6156 86.526 18.6759C86.1866 18.7361 85.8698 18.5629 85.8208 18.2881C85.7718 18.017 86.0131 17.7458 86.3525 17.6856C86.6957 17.6254 87.0087 17.7986 87.0577 18.0734Z" fill="#DB614D"/>
<path d="M81.469 18.224C81.4502 18.4989 81.156 18.706 80.8091 18.6834C80.4621 18.6608 80.1982 18.4198 80.217 18.1412C80.2359 17.8663 80.53 17.6592 80.877 17.6818C81.2239 17.7044 81.4879 17.9454 81.469 18.224Z" fill="#DB614D"/>
<path d="M85.8171 15.3172C85.7794 15.3172 85.7455 15.3021 85.7191 15.2758C85.3419 14.8804 84.682 14.8993 84.6744 14.8993C84.6028 14.8993 84.5387 14.8428 84.5349 14.7675C84.5349 14.6922 84.5915 14.6319 84.6669 14.6282C84.6971 14.6282 85.4589 14.6093 85.9189 15.0913C85.9717 15.144 85.968 15.2306 85.9152 15.2833C85.8888 15.3097 85.8548 15.321 85.8209 15.321L85.8171 15.3172Z" fill="#8B383E"/>
<path d="M80.6995 15.3172C80.6656 15.3172 80.6317 15.3059 80.6053 15.2796C80.5525 15.2269 80.5487 15.144 80.6015 15.0876C81.0616 14.6056 81.8233 14.6244 81.8535 14.6244C81.9289 14.6244 81.9855 14.6884 81.9855 14.7637C81.9855 14.839 81.9176 14.8955 81.846 14.8955C81.8422 14.8955 81.1747 14.8805 80.8014 15.2721C80.775 15.2984 80.7372 15.3135 80.7033 15.3135L80.6995 15.3172Z" fill="#8B383E"/>
<path d="M85.5834 16.7555C85.5834 17.0907 85.4325 17.3655 85.2439 17.3655C85.0554 17.3655 84.9045 17.0907 84.9045 16.7555C84.9045 16.4204 85.0554 16.1456 85.2439 16.1456C85.4325 16.1456 85.5834 16.4204 85.5834 16.7555Z" fill="#1A4850"/>
<path d="M81.9515 16.7555C81.9515 17.0907 81.8007 17.3655 81.6121 17.3655C81.4236 17.3655 81.2727 17.0907 81.2727 16.7555C81.2727 16.4204 81.4236 16.1456 81.6121 16.1456C81.8007 16.1456 81.9515 16.4204 81.9515 16.7555Z" fill="#1A4850"/>
<path d="M81.9517 20.3627C81.9517 20.3627 84.3464 20.6715 85.5795 20.0803C85.5795 20.0803 84.8819 21.7107 83.5733 21.5638C82.2647 21.417 81.9517 20.3627 81.9517 20.3627Z" fill="#1A4850"/>
<path d="M87.6763 17.968C87.6763 17.968 87.5933 15.016 86.4393 12.7493C86.4393 12.7493 84.4104 13.6868 83.9654 13.4647C83.5204 13.2425 84.3916 12.7493 84.3916 12.7493C84.3916 12.7493 81.0465 13.8525 80.8429 13.6304C80.643 13.4082 81.9516 12.7493 81.9516 12.7493L79.8662 13.4647C79.8662 13.4647 79.225 16.1192 79.489 17.968C79.489 17.968 78.5915 16.4242 78.4821 15.3586C78.3728 14.293 78.8404 11.2544 81.9818 11.0323C85.1232 10.8101 86.8843 11.5218 87.665 12.9639C88.4418 14.4022 88.3476 16.1757 87.6763 17.968Z" fill="#8B383E"/>
<path d="M83.9165 19.508C83.6525 19.508 83.3847 19.4402 83.3018 19.4176L83.3772 19.139C83.6638 19.218 84.1088 19.2632 84.2068 19.1503C84.2408 19.1088 84.2257 19.0185 84.1691 18.898C83.7769 18.0659 83.694 15.9535 83.6902 15.8632L83.9806 15.8519C83.9806 15.8745 84.0635 17.9943 84.4293 18.7737C84.5425 19.011 84.5387 19.203 84.4293 19.3348C84.32 19.4666 84.1163 19.508 83.9165 19.508Z" fill="#DB614D"/>
<path d="M86.926 23.567C86.926 23.567 91.8437 38.8089 92.3113 51.2118C92.3113 51.2118 94.0875 51.7013 96.0862 48.9827C98.085 46.2642 96.897 24.7417 93.0655 21.1572C93.0655 21.1572 91.327 20.7618 86.926 23.567Z" fill="#105E99"/>
<path d="M87.7253 26.2328C87.7253 26.2328 88.604 24.192 88.2156 22.7914C87.8271 21.3907 86.4431 22.7914 86.4431 22.7914C86.4431 22.7914 87.0013 25.0844 87.7291 26.2328H87.7253Z" fill="#0C476B"/>
<path d="M77.8561 22.4638C74.2283 20.9049 62.5036 16.7593 62.5036 16.7593C62.5036 16.7593 54.603 6.61187 52.9965 5.15094C52.9965 5.15094 51.0091 6.273 50.8733 8.59995C50.8733 8.59995 55.8362 18.77 58.5967 21.8764C61.3572 24.9828 75.3257 31.7 75.3257 31.7L77.8561 22.4675V22.4638Z" fill="#0C476B"/>
<path d="M80.7073 23.567C80.7073 23.567 75.7896 38.8089 75.322 51.2118C75.322 51.2118 73.5458 51.7013 71.547 48.9827C69.5483 46.2642 70.7362 24.7417 74.5678 21.1572C74.5678 21.1572 76.3063 20.7618 80.7073 23.567Z" fill="#105E99"/>
<path d="M79.9077 26.2328C79.9077 26.2328 79.029 24.192 79.4175 22.7914C79.8059 21.3907 81.1899 22.7914 81.1899 22.7914C81.1899 22.7914 80.6318 25.0844 79.904 26.2328H79.9077Z" fill="#0C476B"/>
<path d="M105.571 119.141H95.807C95.1244 115.267 96.2143 111.385 96.2143 111.385L100.679 110.621C101.087 113.072 101.577 114.036 102.252 114.533H102.256C102.75 114.89 103.342 115.011 104.077 115.263C104.918 115.557 105.363 116.088 105.586 116.664C106.027 117.809 105.574 119.138 105.574 119.138L105.571 119.141Z" fill="#662C33"/>
<path d="M105.582 116.668C103.176 116.969 97.885 117.481 98.2093 116.092C98.4771 114.928 100.71 114.616 102.248 114.536H102.252C102.746 114.894 103.338 115.015 104.074 115.267C104.914 115.561 105.359 116.092 105.582 116.668Z" fill="#8B383E"/>
<path d="M72.8708 119.142H63.1072C63.1072 119.142 62.7979 118.23 62.9412 117.263C63.0581 116.476 63.4767 115.655 64.6043 115.263C65.4491 114.97 66.0977 114.86 66.6294 114.363C67.2064 113.821 67.6401 112.816 68.0022 110.617L72.4672 111.381C72.4672 111.381 73.5533 115.259 72.8745 119.138L72.8708 119.142Z" fill="#662C33"/>
<path d="M62.9375 117.266C63.0544 116.479 63.473 115.659 64.6006 115.267C65.4453 114.973 66.094 114.864 66.6257 114.367C67.8627 114.747 69.5899 115.444 70.1254 116.502C70.8721 117.952 65.1625 117.722 62.9375 117.263V117.266Z" fill="#8B383E"/>
<path d="M142.969 118.445C142.969 118.855 142.928 119.141 142.928 119.141H131.068C131.068 118.908 131.071 118.675 131.083 118.445C131.218 115.346 132.195 112.658 132.195 112.658L135.159 111.385C135.416 112.91 136.072 113.885 136.898 114.521C137.117 114.695 137.343 114.834 137.577 114.954C137.686 115.015 137.795 115.067 137.909 115.116C138.157 115.229 138.41 115.32 138.667 115.395C139.715 115.711 140.771 115.779 141.514 115.892C142.777 116.088 142.969 117.549 142.969 118.437V118.445Z" fill="#164353"/>
<path d="M142.969 118.445C142.969 118.855 142.928 119.141 142.928 119.141H131.068C131.068 118.908 131.071 118.675 131.083 118.445H142.969Z" fill="#225866"/>
<path d="M137.577 114.958L135.932 115.485L135.585 114.883L136.902 114.525C137.12 114.698 137.347 114.838 137.58 114.958H137.577Z" fill="#225866"/>
<path d="M138.663 115.403L137.554 116.137L136.872 115.869L137.905 115.12C138.154 115.233 138.406 115.323 138.663 115.399V115.403Z" fill="#225866"/>
<path d="M97.6474 118.445C97.6172 118.848 97.5116 119.141 97.5116 119.141H89.611C89.5092 118.912 89.4375 118.682 89.3885 118.445C88.6116 114.668 93.8611 110.052 93.8611 110.052L95.528 112.274C95.528 112.274 95.3357 115.828 96.7461 116.566C97.5908 117.01 97.7002 117.846 97.6474 118.449V118.445Z" fill="#164353"/>
<path d="M89.3922 118.445H97.6473C97.6172 118.848 97.5116 119.141 97.5116 119.141H89.6109C89.5091 118.912 89.4375 118.682 89.3884 118.445H89.3922Z" fill="#225866"/>
<path d="M96.3877 116.28C96.3877 116.28 93.0578 115.523 91.5417 116.502V115.952C91.5417 115.952 94.34 114.593 96.3877 116.276V116.28Z" fill="#225866"/>
<path d="M95.7278 115.436C95.7278 115.436 93.6008 114.465 91.5417 115.436L91.7756 114.883C91.7756 114.883 94.2381 113.953 95.7278 115.436Z" fill="#225866"/>
<path d="M139.391 84.8848C139.395 88.059 136.574 113.927 136.574 113.927C133.753 114.205 131.49 113.64 131.49 113.64C130.717 100.53 130.642 89.2563 130.642 89.2563L117.118 79.1352L117.084 79.1089C117.084 79.1089 117.035 79.3386 116.941 79.749C116.27 82.716 113.437 95.149 112.257 97.9956C110.915 101.241 96.2182 114.883 96.2182 114.883C93.4879 114.506 91.1724 112.533 91.1724 112.533C96.4483 103.798 103.64 95.0323 103.64 95.0323C104.202 91.8845 104.602 84.8811 104.843 79.6473C104.847 79.5682 104.85 79.4854 104.854 79.4063C105.013 75.8632 105.092 73.1861 105.092 73.1861L102.614 68.1104L118.363 62.3345L121.892 66.8453C121.892 66.8453 122.699 67.5946 123.974 68.7882C124.034 68.8409 124.091 68.8974 124.151 68.9501C128.877 73.4007 139.395 83.4615 139.395 84.8811L139.391 84.8848Z" fill="#8BBDDB"/>
<path d="M104.839 79.6511C104.843 79.572 104.847 79.4891 104.85 79.4101C108.165 77.614 107.611 74.7449 107.599 74.7148L107.803 74.6733C107.811 74.7035 108.407 77.7835 104.835 79.6511H104.839Z" fill="#6097B2"/>
<path d="M116.873 77.1095C116.986 77.7383 117.069 78.4123 117.114 79.1352L117.08 79.1089C117.08 79.1089 117.031 79.3386 116.937 79.749C116.79 74.8315 114.761 71.9285 114.735 71.8946L114.908 71.7741C114.931 71.8004 116.209 73.6454 116.831 76.8685C119.226 74.7449 116.88 70.3922 116.858 70.3508L117.043 70.2491C117.069 70.2943 119.55 74.903 116.877 77.1057L116.873 77.1095Z" fill="#6097B2"/>
<path d="M124.144 68.9539C124.144 68.9539 124.132 68.9576 124.129 68.9614C124.031 68.999 123.917 69.0141 123.801 69.0141C122.639 69.0141 120.693 67.3913 120.603 67.3122L120.742 67.1541C121.376 67.6887 123.137 68.9727 123.97 68.7882C124.031 68.8409 124.087 68.8974 124.147 68.9501L124.144 68.9539Z" fill="#6097B2"/>
<path d="M103.711 41.053C103.711 41.053 108.501 40.2849 110.903 41.8098C113.305 43.3348 116.454 47.326 116.454 47.326C116.454 47.326 112.713 47.8192 112.291 50.3571C112.291 50.3571 109.572 43.8958 103.715 41.053H103.711Z" fill="#ADBEC4"/>
<path d="M96.5084 43.5456C94.4833 44.6376 91.0967 48.7455 90.9421 51.272C90.7913 53.7345 92.6203 56.0012 93.8535 57.9253C97.6963 63.9347 101.747 69.2438 103.466 76.2924C103.478 76.3376 112.257 79.8167 122.564 67.4477C122.564 67.4477 116.741 59.6235 114.727 52.9626C113.909 50.2516 113.075 47.3712 111.503 44.984C109.772 42.352 106.804 40.8045 103.715 41.053C101.102 41.2639 98.5071 42.4688 96.5084 43.5456Z" fill="#CFD8DC"/>
<path d="M95.6561 41.0266C95.6561 41.0266 96.9534 43.2369 96.3538 44.4531C96.3538 44.4531 100.8 45.9855 100.8 43.5004C100.8 43.5004 99.9628 41.6366 100.276 40.4355L95.6523 41.0266H95.6561Z" fill="#EF6E4B"/>
<path d="M105.54 56.1669C105.54 56.1669 103.067 56.8672 102.444 57.7445C101.818 58.6181 101.264 60.5798 101.264 60.5798H105.54L106.344 59.1038L107.287 57.1346L105.54 56.1706V56.1669Z" fill="#EF6E4B"/>
<path d="M101.449 38.5604C101.449 38.5604 103.187 37.8337 102.063 32.6187C101.321 29.1622 100.246 28.6464 99.5556 28.6162C99.5556 28.6162 98.7071 27.3398 95.7656 27.9498C93.7518 28.3677 92.1452 29.5877 91.4362 31.8506C90.6971 34.2077 92.1754 39.2645 94.1213 39.769L101.453 38.5604H101.449Z" fill="#164353"/>
<path d="M101.86 35.036C101.86 35.036 102.953 33.5149 103.368 35.0134C103.847 36.7492 102.358 37.7282 101.95 37.2161C101.543 36.7041 101.86 35.036 101.86 35.036Z" fill="#FF8B66"/>
<path d="M92.7034 36.6401C92.7034 36.6401 91.176 35.5519 91.2703 37.1032C91.3759 38.903 93.1031 39.3473 93.3218 38.7336C93.5443 38.1198 92.7034 36.6401 92.7034 36.6401Z" fill="#FF8B66"/>
<path d="M98.4695 42.1713C101.377 41.6931 102.705 39.528 101.766 33.8424C101.283 30.9093 99.4877 29.358 96.2332 29.8926C92.9787 30.4273 91.9039 32.453 92.3866 35.3862C93.3973 41.4973 95.4677 42.6683 98.4695 42.1713Z" fill="#FF8B66"/>
<path d="M93.6838 37.2538C93.6838 37.5551 93.9855 37.7998 94.3589 37.8036C94.736 37.8036 95.0415 37.5663 95.0452 37.2651C95.0452 36.9639 94.7473 36.7192 94.3702 36.7154C93.9931 36.7154 93.6876 36.9526 93.6838 37.2538Z" fill="#DB614D"/>
<path d="M99.6912 36.4292C99.7591 36.7229 100.11 36.8886 100.476 36.8057C100.841 36.7191 101.083 36.4141 101.015 36.1242C100.947 35.8305 100.596 35.6648 100.227 35.7477C99.8609 35.8343 99.6196 36.1393 99.6875 36.4292H99.6912Z" fill="#DB614D"/>
<path d="M94.5023 34.0872C94.4721 34.0872 94.4457 34.0797 94.4193 34.0609C94.3514 34.0157 94.3363 33.9253 94.3816 33.8575C94.7889 33.2626 95.6034 33.1497 95.6374 33.1421C95.7241 33.1308 95.792 33.1873 95.8033 33.2701C95.8146 33.3492 95.7581 33.4245 95.6789 33.4358C95.6713 33.4358 94.9586 33.5375 94.6267 34.0232C94.5965 34.0646 94.5513 34.0872 94.506 34.0872H94.5023Z" fill="#1A4850"/>
<path d="M99.9741 33.1873C99.944 33.1873 99.9138 33.176 99.8836 33.1572C99.4122 32.8032 98.707 32.935 98.6995 32.9388C98.6203 32.9576 98.5411 32.9011 98.526 32.8221C98.5109 32.743 98.5637 32.6639 98.6429 32.6489C98.6769 32.6413 99.4877 32.487 100.061 32.9237C100.125 32.9727 100.14 33.063 100.091 33.1308C100.061 33.1685 100.019 33.1911 99.9741 33.1911V33.1873Z" fill="#1A4850"/>
<path d="M95.0338 35.5858C95.0942 35.9473 95.3054 36.2108 95.5052 36.1769C95.7051 36.1431 95.8182 35.8268 95.7617 35.4653C95.7013 35.1038 95.4901 34.8403 95.2903 34.8741C95.0904 34.908 94.9773 35.2243 95.0338 35.5858Z" fill="#1A4850"/>
<path d="M98.9145 34.9457C98.9748 35.3072 99.186 35.5708 99.3859 35.5369C99.5857 35.503 99.6989 35.1867 99.6423 34.8252C99.582 34.4638 99.3708 34.2002 99.1709 34.2341C98.971 34.268 98.8579 34.5842 98.9145 34.9457Z" fill="#1A4850"/>
<path d="M100.004 38.2177C100.004 38.2177 97.4815 38.8917 96.0862 38.6244C96.0862 38.6244 97.0516 39.8406 98.4319 39.4904C99.8121 39.1402 100.004 38.2177 100.004 38.2177Z" fill="#1A4850"/>
<path d="M100.121 31.203C100.121 31.203 96.8403 33.5751 92.7222 33.7559L92.8391 37.4157C92.8391 37.4157 89 30.3558 96.5914 29.102C104.183 27.8519 101.973 35.7402 101.973 35.7402C101.973 35.7402 101.739 32.3401 100.121 31.203Z" fill="#0E3944"/>
<path d="M97.44 37.235L97.4174 36.9187C97.4174 36.9187 97.8586 36.8848 97.9717 36.6137C98.017 36.5008 97.8322 36.1468 97.6663 35.8343C97.4362 35.3975 97.1534 34.8553 97.0327 34.2566L97.3457 34.1926C97.4589 34.7499 97.7304 35.2695 97.9491 35.6875C98.1942 36.1506 98.3677 36.4895 98.2659 36.738C98.0773 37.1898 97.4626 37.235 97.4362 37.235H97.44Z" fill="#DB614D"/>
<path d="M101.901 31.2105C96.384 28.8196 91.176 33.7784 91.176 33.7784C91.176 33.7784 90.5688 29.7609 91.6323 28.8196C91.9076 28.571 92.2055 28.3564 92.5148 28.1644C94.9509 26.6319 98.1904 26.6583 99.68 27.1854C99.9855 27.2946 100.219 27.4226 100.355 27.5619C101.234 28.4731 101.905 31.2105 101.905 31.2105H101.901Z" fill="#CE364C"/>
<path d="M101.234 30.3181C101.234 30.3181 96.5989 29.4032 92.2772 32.2573C92.2772 32.2573 92.0019 29.6667 92.5147 28.1644C94.9509 26.6319 98.1904 26.6583 99.68 27.1854C100.547 28.1719 101.234 30.3181 101.234 30.3181Z" fill="#CFD8DC"/>
<path d="M91.6322 33.3078C91.6322 33.3078 92.3676 30.1939 93.3556 29.3128C95.0036 27.8519 99.6309 27.3511 102.06 28.2284C104.488 29.1057 102.06 31.7603 102.06 31.7603C102.06 31.7603 98.1827 28.989 91.6284 33.3078H91.6322Z" fill="#A02E44"/>
<path d="M98.7901 54.0094C98.7901 54.0094 100.683 56.9388 103.911 58.6633C103.911 58.6633 107.947 55.1653 113.181 55.4816C113.181 55.4816 108.844 63.2946 105.118 64.1606C103.161 64.6162 96.0862 59.936 96.0862 59.936C96.0862 59.936 97.5004 54.962 98.7901 54.0132V54.0094Z" fill="#FF8B66"/>
<path d="M91.8135 48.7003C93.5482 45.8839 97.5457 50.0483 98.9071 53.0229C100.268 55.9974 101.26 56.63 101.26 56.63C101.26 56.63 97.2628 58.298 97.293 61.2877C97.293 61.2877 88.031 54.8528 91.8135 48.7041V48.7003Z" fill="#ADBEC4"/>
<path d="M103.907 57.3756C103.907 57.3756 106.34 54.9922 114.346 51.8783L113.313 48.6326C114.229 47.4277 115.919 47.4277 115.919 47.4277C115.919 47.4277 120.018 53.2074 119.313 54.9357C118.872 56.0125 110.318 57.1459 103.907 57.3756Z" fill="#EF6E4B"/>
<path d="M112.676 52.6576C112.676 52.6576 112.74 52.315 113.034 51.9008C113.328 51.4828 113.249 50.726 113.354 50.4888C113.46 50.2554 114.09 49.2914 114.508 49.1069C114.927 48.9187 115.474 48.6137 115.591 49.1446C115.708 49.6755 114.844 49.5249 114.456 50.2855C114.456 50.2855 115.304 50.0106 115.979 50.1688C116.654 50.3269 116.843 50.9444 116.013 50.9218C115.349 50.9068 114.493 51.3774 114.493 51.3774C114.493 51.3774 115.361 51.5092 115.221 51.9046C115.029 52.4543 113.973 52.1154 112.679 52.6538L112.676 52.6576Z" fill="#FF8B66"/>
<path d="M53.4832 63.5431C54.1997 65.373 57.1299 68.5058 57.1299 68.5058C57.1299 68.5058 64.2876 64.2208 67.5912 66.0244C70.8947 67.828 73.5195 68.9275 75.6615 68.1405C77.8036 67.3536 68.6169 50.6771 68.6169 50.6771L56.7075 46.1399C56.7075 46.1399 56.4473 49.1484 55.0859 49.683C53.7245 50.2177 52.2726 55.1804 52.3707 56.1217C52.4687 57.063 53.4794 63.5431 53.4794 63.5431H53.4832Z" fill="#3E6575"/>
<path d="M66.882 68.615C66.882 68.615 63.8123 74.6244 57.4729 82.3207C57.4729 82.3207 56.8243 91.4741 40.0576 105.876L38.304 104.498C38.304 104.498 48.2863 88.8836 50.285 84.0941C52.2837 79.3047 49.1801 74.9181 58.3667 62.8089L66.882 68.6112V68.615Z" fill="#EF6E4B"/>
<path d="M57.1071 57.9818C54.4635 63.0385 53.5773 69.4998 53.5773 69.4998L52.3743 72.5309C52.3743 72.5309 56.6432 74.8315 61.576 75.6673L63.5521 70.4411L57.1071 57.9818Z" fill="#662C33"/>
<path d="M70.8947 68.1443C70.8947 68.1443 72.2033 74.7637 71.9884 84.7267C71.9884 84.7267 77.1474 92.3213 72.8897 113.991H70.6571C70.6571 113.991 68.8319 95.5556 67.4366 90.5591C66.0412 85.5625 60.886 84.0301 60.6069 68.8409L70.8947 68.1443Z" fill="#FF8B66"/>
<path d="M72.2031 75.2494C72.2031 75.2494 68.002 76.0025 60.6067 75.656L60.4898 74.8239L60.4597 74.6093L59.6941 69.2249C59.6941 69.2249 58.9814 68.3476 58.2497 66.9168C58.163 66.7511 58.0763 66.5779 57.9933 66.3972C56.9977 64.2773 56.1115 61.1973 57.1071 57.9818L58.6684 58.0533L58.8871 58.0646L64.1139 58.3018L64.3364 58.3131L66.0523 58.3922L66.3201 58.4035L67.4326 58.4524C67.4326 58.4524 73.0931 63.5393 72.0825 72.945L72.1541 74.2554L72.1617 74.47L72.2031 75.2419V75.2494Z" fill="#8B383E"/>
<path d="M58.8871 58.0683C58.74 58.4976 57.752 61.6943 58.2497 66.9168C58.163 66.7511 58.0763 66.5779 57.9933 66.3972C57.62 61.619 58.4798 58.6369 58.6684 58.0533C58.6948 57.9817 58.7061 57.9479 58.7061 57.9441L58.9022 58.0156C58.9022 58.0156 58.8946 58.0382 58.8871 58.0646V58.0683Z" fill="#662C33"/>
<path d="M72.1616 74.4737C70.6757 74.854 68.1528 74.9595 65.7581 74.9595C63.6085 74.9595 61.5721 74.8729 60.486 74.8202L60.4558 74.6055C62.3339 74.6959 67.2854 74.8917 70.4759 74.5415L70.2722 71.1753C70.3212 67.2481 69.1333 63.897 67.9869 61.5814C65.0793 61.0542 64.2798 58.9042 64.1101 58.298C64.0837 58.2001 64.0724 58.1437 64.0724 58.1399L64.276 58.106C64.276 58.106 64.2911 58.1851 64.3288 58.3093C64.5174 58.9381 65.2942 60.8057 67.8624 61.3404C67.0893 59.8305 66.3539 58.7988 66.0447 58.3884C65.9542 58.2641 65.8939 58.1926 65.8901 58.1888L66.0485 58.0533C66.0485 58.0533 66.1541 58.1775 66.3125 58.3997C67.2854 59.7175 70.5626 64.6689 70.4796 71.164L70.6833 74.5114C71.2414 74.4436 71.7392 74.3608 72.1503 74.2516L72.1578 74.4662L72.1616 74.4737Z" fill="#662C33"/>
<path d="M61.4668 35.2996C59.7999 34.3847 47.7925 39.0837 47.7925 39.0837C47.7925 39.0837 46.0162 42.2466 47.125 43.4891C48.2337 44.7279 52.1633 44.182 53.3663 43.4891C54.5693 42.7963 57.7597 42.2692 57.7597 42.2692L61.4706 35.2959L61.4668 35.2996Z" fill="#8BBDDB"/>
<path d="M72.0827 25.3178C72.0827 25.3178 74.5641 26.2742 75.4692 29.1283C76.3781 31.9824 73.6628 39.2042 74.6018 42.5252C75.5409 45.8462 75.3938 52.1154 72.4673 53.4408C69.5409 54.7662 63.5334 52.3941 62.2437 48.7719C60.9539 45.1496 61.512 31.4214 63.9897 26.7562C66.4674 22.0872 71.4868 24.4405 72.0827 25.3178Z" fill="#F24052"/>
<path d="M69.2354 37.6303C69.8878 38.3344 71.5735 37.0806 71.5735 37.0806C71.5735 37.0806 71.5396 43.3084 69.7257 43.7828C67.9117 44.261 63.292 38.8766 63.4843 37.4157C63.6767 35.9548 67.7873 36.0677 69.2354 37.6303Z" fill="#8BBDDB"/>
<path d="M62.2474 36.0753C62.2474 36.0753 64.0802 37.6303 67.2744 38.3683C70.4686 39.1063 72.1995 37.6077 73.8325 39.6636C76.2837 42.7511 72.2938 48.4405 70.197 51.3887C69.4164 52.4882 67.7646 55.5381 67.429 58.4599C67.429 58.4599 61.8853 60.0677 57.1072 57.9818L56.749 51.1929C56.749 51.1929 53.7358 42.0433 62.2436 36.0753H62.2474Z" fill="#0E3944"/>
<path d="M67.9758 42.6796C67.9758 42.6796 70.5063 36.6552 71.2417 36.2711C71.9733 35.887 73.8363 36.8095 74.2096 37.6341C74.5829 38.4587 74.2096 40.2548 74.2096 40.2548C74.2096 40.2548 72.2109 37.9805 67.9758 42.6796Z" fill="#8BBDDB"/>
<path d="M80.1039 68.1406C78.9537 70.4939 76.1253 71.1716 76.1253 71.1716C76.1253 71.1716 75.9103 70.8441 75.5521 70.2604C75.5143 70.2002 75.4729 70.1362 75.4352 70.0684C73.2102 66.4688 66.4182 54.9507 66.5502 48.9602C66.7049 41.8023 71.3811 37.8751 71.3811 37.8751C73.757 38.4399 74.5037 39.0875 74.5037 39.0875C74.5037 39.0875 75.3032 43.1578 74.5716 48.0603C73.8399 52.9551 72.5087 54.2504 73.1762 54.6194C73.8437 54.9846 73.1762 55.7151 73.1762 55.7151C73.1762 55.7151 77.1171 61.1974 77.8525 62.903C78.3314 64.0138 79.1422 65.904 79.6476 67.0825C79.6815 67.1654 79.7154 67.2482 79.7494 67.3235C79.9643 67.8205 80.1001 68.1443 80.1001 68.1443L80.1039 68.1406Z" fill="#6097B2"/>
<path d="M73.2629 39.0875C73.2629 39.0875 70.442 41.1773 72.0863 44.3665L79.9039 52.4506C75.6123 57.0179 75.1862 58.893 72.0863 60.9978L73.2629 62.8202C73.2629 62.8202 84.1277 54.4838 84.1427 52.4543C84.1503 51.5845 77.5055 41.0794 73.2629 39.0951V39.0875Z" fill="#FF8B66"/>
<path d="M71.9128 60.994C71.9128 60.994 70.4232 61.1597 69.4842 61.3931C68.5451 61.6266 67.2931 61.86 67.2554 62.0558C67.2177 62.2516 69.3295 62.0558 69.3295 62.0558C69.3295 62.0558 67.6099 62.7599 67.5684 63.0348C67.5307 63.3059 69.7594 62.839 69.7594 62.839C69.7594 62.839 68.3528 63.6975 68.4282 63.9309C68.5074 64.1644 70.2422 63.5808 70.2422 63.5808C70.2422 63.5808 69.9178 64.4016 69.586 64.7894C69.586 64.7894 69.9216 64.9739 70.6042 64.2171C71.2868 63.4603 72.3729 63.705 73.2365 63.0348C74.0963 62.3646 72.701 60.8924 71.9166 60.994H71.9128Z" fill="#FF8B66"/>
<path d="M63.9216 37.0768C63.9216 37.0768 61.7758 38.4625 60.4182 41.8061C59.0644 45.1496 54.7841 51.4452 53.7847 53.0681C52.7816 54.6947 53.4792 63.5431 53.4792 63.5431C53.4792 63.5431 52.2234 58.1776 51.6653 56.0878C51.1072 53.9981 53.4679 48.8321 53.8224 48.5572C54.1769 48.2824 55.9908 48.7831 55.6439 46.6859C55.2969 44.5886 60.1618 35.5519 61.4628 35.2996C61.4628 35.2996 63.5445 35.6912 63.9216 37.0731V37.0768Z" fill="#6097B2"/>
<path d="M57.2882 37.5287C57.2505 37.6002 57.209 37.6718 57.16 37.7396C56.6735 38.4361 55.7685 38.9934 55.7685 38.9934C55.7685 38.9934 54.1318 41.2827 54.1129 41.5463C54.0978 41.7722 51.2694 43.8205 50.0136 43.7791H50.0099C49.8364 43.7753 49.6968 43.7301 49.595 43.636C48.8483 42.9319 52.133 37.0392 52.8571 35.7703C52.9024 35.6875 52.9401 35.6235 52.9665 35.582C52.9815 35.5482 52.9966 35.5293 52.9966 35.5293C52.9966 35.5293 52.4196 33.3793 54.8294 33.7822C56.8357 34.1136 57.2317 35.7063 57.4429 36.7719C57.4919 37.0279 57.4202 37.2877 57.2882 37.5325V37.5287Z" fill="#6097B2"/>
<path d="M48.8672 39.7578C50.5227 37.5852 56.353 33.3681 59.4228 32.118L60.1921 33.5413C60.1921 33.5413 54.26 38.7487 52.8647 40.9777C51.4693 43.2068 49.7459 44.1255 48.0941 43.3837C46.4461 42.642 48.5202 40.2134 48.8672 39.754V39.7578Z" fill="#FF8B66"/>
<path d="M56.7075 37.0806L56.3945 37.4383L56.2361 37.6228L55.7157 38.2177C55.7157 38.2177 54.4109 39.7991 54.4599 40.4317C54.4976 40.8873 51.9822 42.9281 50.0136 43.7753C49.2142 44.1217 48.5014 44.2723 48.0866 44.0351C46.6648 43.2143 46.9816 40.7518 47.7886 39.0837C48.4939 37.6303 51.6013 35.7514 52.4046 35.2921C52.5064 35.2281 52.5667 35.1904 52.5894 35.1829H52.5931L52.8911 34.0232C52.8911 34.0232 53.9772 33.3718 54.8295 33.7709C54.8295 33.7709 52.9439 33.85 53.2569 34.5804C53.5736 35.3147 56.1871 37.0467 56.7113 37.0731L56.7075 37.0806Z" fill="#8BBDDB"/>
<path d="M63.5483 31.0486C61.6514 31.828 61.9229 33.5413 60.1844 33.5413C59.1096 33.5413 58.9663 32.3138 58.9663 32.3138C59.4528 31.2633 59.762 29.4747 59.8299 28.6238C59.9016 27.7728 60.1844 28.1004 60.1844 28.1004C60.1844 28.0213 60.1806 27.946 60.1769 27.8707C60.1505 27.2984 60.0486 26.8804 60.422 27.1252C60.8481 27.4001 60.9952 29.0229 60.9952 29.0229C61.3459 26.6583 60.8217 26.3044 61.2328 26.5152C61.7947 26.8014 61.7985 28.8911 61.7985 28.9514C62.251 27.577 62.1303 26.7901 62.4433 27.1026C62.7601 27.4189 62.285 29.9454 62.0964 30.8717C62.0549 31.0825 62.0247 31.2105 62.0247 31.2105C63.5294 30.4763 63.5445 31.0486 63.5445 31.0486H63.5483Z" fill="#FF8B66"/>
<path d="M62.1001 30.8716C62.0586 31.0825 62.0284 31.2105 62.0284 31.2105C62.0284 31.2105 61.3345 31.1427 60.8254 31.892C60.8254 31.892 60.9687 30.8905 62.1001 30.8716Z" fill="#EF6E4B"/>
<path d="M60.2938 29.7948C60.3051 29.5952 60.3919 28.443 60.1882 28.0966C60.1882 28.0176 60.1844 27.9422 60.1807 27.8669C60.6144 27.9573 60.3391 29.55 60.2938 29.7948Z" fill="#EF6E4B"/>
<path d="M61.4705 39.7691C61.4705 39.7691 62.7527 36.3012 63.1599 35.5256C63.5672 34.7499 65.6904 34.8855 67.3007 35.1829C68.9072 35.4842 69.2353 37.6304 69.2353 37.6304C69.2353 37.6304 64.3441 35.326 61.4705 39.7691Z" fill="#8BBDDB"/>
<path d="M69.7218 32.9425C69.7218 32.9425 68.1869 35.774 68.2095 38.9143C68.2095 38.9143 65.7168 40.6087 64.823 38.4851C64.823 38.4851 65.7696 35.7063 65.3133 31.9598C65.0078 29.4483 69.7218 32.9425 69.7218 32.9425Z" fill="#EF6E4B"/>
<path d="M64.8268 29.0116C64.8268 29.0116 64.3705 27.3887 63.5597 28.5296C62.6207 29.8512 63.5785 31.1352 64.0801 30.8302C64.5817 30.5252 64.8268 29.0116 64.8268 29.0116Z" fill="#FF8B66"/>
<path d="M72.0751 33.1873C72.0751 33.1873 73.7005 32.7355 73.1461 34.0195C72.5012 35.5068 70.906 35.3561 70.906 34.7688C70.906 34.1814 72.0751 33.1873 72.0751 33.1873Z" fill="#FF8B66"/>
<path d="M65.4904 36.0903C63.1787 34.7913 62.7262 32.551 65.2755 28.0326C66.5916 25.7019 68.5828 24.9413 71.1736 26.3947C73.7606 27.8481 74.0435 29.8927 72.7311 32.2234C69.9932 37.0806 67.8814 37.4345 65.4942 36.0903H65.4904Z" fill="#FF8B66"/>
<path d="M71.0529 33.4057C70.9624 33.6617 70.6306 33.7747 70.3138 33.6617C69.9932 33.5488 69.8084 33.2513 69.899 32.9953C69.9895 32.7392 70.3213 32.6263 70.6381 32.7392C70.9587 32.8522 71.1434 33.1497 71.0529 33.4057Z" fill="#DB614D"/>
<path d="M66.2298 30.8603C66.0827 31.0863 65.732 31.1202 65.4492 30.9357C65.1663 30.7512 65.057 30.4198 65.204 30.1901C65.3511 29.9642 65.7018 29.9303 65.9847 30.1148C66.2675 30.2993 66.3769 30.6307 66.2298 30.8603Z" fill="#DB614D"/>
<path d="M71.385 30.4838C71.3246 30.4838 71.2718 30.4424 71.2567 30.3822C71.1247 29.8663 70.5553 29.5651 70.5478 29.5613C70.4836 29.5275 70.4572 29.4484 70.4912 29.3844C70.5251 29.3204 70.6043 29.294 70.6684 29.3279C70.6948 29.343 71.351 29.6894 71.5094 30.3182C71.5283 30.3897 71.483 30.4612 71.4151 30.4801C71.4038 30.4801 71.3925 30.4838 71.3812 30.4838H71.385Z" fill="#1A4850"/>
<path d="M68.2134 28.2284C68.1908 28.2284 68.1681 28.2209 68.1455 28.2096C68.1417 28.2096 67.5836 27.8745 67.0745 28.0326C67.0028 28.0552 66.9312 28.0138 66.9086 27.946C66.8859 27.8745 66.9274 27.8029 66.9953 27.7803C67.6175 27.5921 68.2549 27.9686 68.2813 27.9874C68.3454 28.0251 68.3642 28.1079 68.3265 28.1682C68.3001 28.2096 68.2586 28.2322 68.2134 28.2322V28.2284Z" fill="#1A4850"/>
<path d="M70.4308 31.5795C70.2686 31.8657 70.0084 32.0238 69.85 31.9372C69.6916 31.8469 69.6916 31.5419 69.8538 31.2557C70.0159 30.9695 70.2762 30.8114 70.4346 30.898C70.5929 30.9884 70.5929 31.2934 70.4308 31.5795Z" fill="#1A4850"/>
<path d="M67.1913 29.8437C67.0291 30.1299 66.7689 30.288 66.6105 30.2014C66.4521 30.1111 66.4521 29.8061 66.6143 29.5199C66.7764 29.2338 67.0367 29.0756 67.195 29.1622C67.3534 29.2526 67.3534 29.5576 67.1913 29.8437Z" fill="#1A4850"/>
<path d="M66.0676 32.7844C66.0676 32.7844 67.395 33.7935 68.3529 33.8236C68.3529 33.8236 67.3347 34.652 66.6031 34.1136C65.8715 33.5751 66.0713 32.7806 66.0713 32.7806L66.0676 32.7844Z" fill="#1A4850"/>
<path d="M69.733 30.9997C69.733 30.9997 70.3402 30.4123 70.5891 30.6194C70.838 30.8265 70.706 31.5494 70.706 31.5494L71.2377 31.5645L70.7965 31.3875C70.7965 31.3875 70.9398 30.6382 70.6645 30.4801C70.2761 30.2579 69.7292 30.9997 69.7292 30.9997H69.733Z" fill="#1A4850"/>
<path d="M67.4402 29.8249C67.4402 29.8249 67.6288 29.0003 67.3233 28.8949C67.0179 28.7894 66.4673 29.2752 66.4673 29.2752L66.1807 28.8271L66.5616 29.1095C66.5616 29.1095 67.131 28.5974 67.4063 28.7518C67.7985 28.9702 67.4478 29.8211 67.4478 29.8211L67.4402 29.8249Z" fill="#1A4850"/>
<path d="M71.7847 27.3624C71.7847 27.3624 70.9588 26.214 69.8123 27.1252C68.6697 28.0364 66.0902 29.4973 64.823 29.0154C63.5559 28.5334 67.5986 23.1377 71.1096 24.7191C74.6206 26.3006 74.3038 31.444 72.8444 33.0781C71.3849 34.7122 72.075 33.1911 72.075 33.1911C72.075 33.1911 72.1731 30.8716 72.6596 29.3316C73.1461 27.7954 71.7847 27.3624 71.7847 27.3624Z" fill="#F24052"/>
<path d="M67.8927 32.2573C67.8286 32.2573 67.7608 32.2498 67.6929 32.2309L67.7645 31.9523C68.0021 32.0125 68.1152 31.9109 68.1718 31.8167C68.251 31.6812 68.2397 31.508 68.1756 31.444C68.1379 31.4063 68.0775 31.4101 67.9908 31.4553L67.8588 31.203C68.1492 31.0524 68.3227 31.1842 68.383 31.2482C68.5414 31.4139 68.5565 31.7264 68.4169 31.9636C68.3038 32.1556 68.1152 32.2573 67.8927 32.2573Z" fill="#DB614D"/>
<path d="M84.8141 52.1267C84.6746 54.1525 79.6514 60.7568 78.8142 60.9902C78.5954 61.0505 78.3729 61.171 78.1655 61.3103C78.0788 61.3743 77.9883 61.4383 77.9053 61.5061C77.4264 61.8901 77.0681 62.3344 77.0681 62.3344C75.6011 62.2366 71.4868 60.3351 72.8104 59.9171C72.8896 59.8908 72.9764 59.8456 73.0744 59.7778C73.1272 59.7402 73.1876 59.6987 73.2479 59.6423C74.8054 58.3395 77.8374 53.0455 77.8563 52.6426C77.8714 52.202 78.3956 52.1192 78.3956 52.1192C78.3956 52.1192 75.537 47.9247 73.8777 47.4201C72.2184 46.9156 71.3812 44.9124 71.3812 44.9124C69.7445 37.9956 74.5037 39.08 74.5037 39.08C78.0109 41.166 84.9499 50.0859 84.8104 52.1192L84.8141 52.1267Z" fill="#8BBDDB"/>
<path d="M78.1656 61.3103C78.0788 61.3743 77.9883 61.4383 77.9054 61.5061C75.6577 61.3517 73.7721 60.2485 73.0745 59.7778C73.1273 59.7402 73.1876 59.6988 73.2479 59.6423C73.9984 60.1318 75.9142 61.2237 78.1693 61.3065L78.1656 61.3103Z" fill="#3E6575"/>
<path d="M57.2881 37.5287C57.2504 37.6002 57.2089 37.6718 57.1599 37.7395C56.8393 37.7282 56.5301 37.6906 56.2397 37.6266C54.7539 37.3254 53.6112 36.4932 52.8607 35.7703C52.6873 35.6046 52.5402 35.4427 52.4082 35.2996C52.51 35.2356 52.5704 35.198 52.593 35.1904C52.7024 35.3109 52.8268 35.4465 52.9701 35.582C53.7168 36.3125 54.8746 37.1672 56.3981 37.4421C56.681 37.4948 56.9789 37.5249 57.2881 37.5287Z" fill="#3E6575"/>
<path d="M79.7531 67.3235C79.0629 68.4907 77.7845 69.899 75.552 70.2642C75.5143 70.2039 75.4728 70.1399 75.4351 70.0722C77.7242 69.7295 78.9951 68.246 79.6512 67.0825C79.6852 67.1654 79.7191 67.2482 79.7531 67.3235Z" fill="#3E6575"/>
<path d="M41.6491 105.36C41.6491 105.36 41.1249 105.876 40.5819 106.818C40.0388 107.763 40.6346 108.633 38.0024 110.824C38.0024 110.824 32.6888 107.718 30.2903 103.726C30.2903 103.726 30.3318 102.585 31.4933 102.318C32.1155 102.175 33.8352 102.977 35.4832 103.29C35.717 103.331 35.9508 103.369 36.1809 103.387C36.4713 103.414 36.7541 103.418 37.0256 103.384C37.2783 103.357 37.5159 103.305 37.7384 103.211H37.7421C38.3041 102.981 38.7453 102.525 38.9791 101.727C38.9791 101.727 40.3895 102.529 39.4467 103.888C39.4467 103.888 41.1211 103.158 41.6491 105.364V105.36Z" fill="#CFD8DC"/>
<path d="M38.0024 110.824C38.0024 110.824 32.6888 107.718 30.2903 103.726C30.2903 103.726 31.1803 103.538 31.9194 104.86C32.6548 106.185 38.436 109.19 38.0024 110.824Z" fill="#ADBEC4"/>
<path d="M38.0212 104.543C37.5913 105.225 37.5989 103.967 37.0256 103.376C37.2783 103.35 37.5159 103.297 37.7384 103.203H37.7422C37.9986 103.478 38.3606 104.009 38.0212 104.54V104.543Z" fill="#ADBEC4"/>
<path d="M36.3506 104.581C35.8943 105.01 35.7472 103.888 35.4795 103.286C35.7133 103.327 35.9471 103.365 36.1772 103.384C36.4449 103.749 36.6976 104.254 36.3506 104.585V104.581Z" fill="#ADBEC4"/>
<path d="M74.3377 119.141H66.8217C66.8217 119.141 66.5087 118.095 66.8217 116.946C66.9575 116.449 67.7344 115.986 68.4584 115.339C68.6583 115.158 68.8506 114.97 69.0316 114.759C69.175 114.593 69.3032 114.408 69.4125 114.213C69.5521 113.975 69.6614 113.716 69.7218 113.43C69.8425 112.861 69.7972 112.191 69.4691 111.389C69.4691 111.389 72.026 110.854 72.9386 112.247C72.9386 112.247 73.0253 111.603 73.8399 112.033C73.8399 112.033 73.723 113.324 73.8814 114.409C74.0398 115.485 75.0505 115.802 74.3339 119.145L74.3377 119.141Z" fill="#CFD8DC"/>
<path d="M72.3804 114.623C72.3125 114.698 72.222 114.736 72.1277 114.736C72.0485 114.736 71.9731 114.71 71.9052 114.661C71.5168 114.352 70.657 113.87 69.4087 114.209C69.5482 113.972 69.6576 113.712 69.7179 113.426C70.2195 113.241 71.1661 113.132 72.3351 114.13C72.486 114.254 72.5086 114.476 72.3766 114.623H72.3804Z" fill="#ADBEC4"/>
<path d="M71.747 115.869L71.7055 115.933C71.6037 116.088 71.4038 116.137 71.2454 116.046C70.7363 115.745 69.5861 115.177 68.4585 115.339C68.6584 115.158 68.8507 114.97 69.0317 114.759C69.5899 114.631 70.6382 114.559 71.6753 115.414C71.8111 115.527 71.8488 115.723 71.7507 115.869H71.747Z" fill="#ADBEC4"/>
</g>
<defs>
<clipPath id="clip0_83_33">
<rect width="178" height="120" fill="white"/>
</clipPath>
</defs>
</svg>
