<svg width="32" height="32" viewBox="0 0 32 32" fill="none" xmlns="http://www.w3.org/2000/svg">
<g style="mix-blend-mode:multiply" opacity="0.7">
<circle cx="16" cy="16" r="16" fill="black"/>
</g>
<path d="M16.09 21.5586L16 21.6458L15.901 21.5586C11.626 17.8005 8.8 15.3155 8.8 12.7956C8.8 11.0518 10.15 9.74387 11.95 9.74387C13.336 9.74387 14.686 10.6158 15.163 11.8016H16.837C17.314 10.6158 18.664 9.74387 20.05 9.74387C21.85 9.74387 23.2 11.0518 23.2 12.7956C23.2 15.3155 20.374 17.8005 16.09 21.5586ZM20.05 8C18.484 8 16.981 8.70627 16 9.81362C15.019 8.70627 13.516 8 11.95 8C9.178 8 7 10.1014 7 12.7956C7 16.0828 10.06 18.7771 14.695 22.849L16 24L17.305 22.849C21.94 18.7771 25 16.0828 25 12.7956C25 10.1014 22.822 8 20.05 8Z" fill="white"/>
</svg>
