<svg width="24" height="24" viewBox="0 0 24 24" fill="none" xmlns="http://www.w3.org/2000/svg">
<path d="M19.3636 16.0909H7.90909V4.63636H19.3636M19.3636 3H7.90909C7.4751 3 7.05888 3.1724 6.75201 3.47928C6.44513 3.78616 6.27273 4.20237 6.27273 4.63636V16.0909C6.27273 16.5249 6.44513 16.9411 6.75201 17.248C7.05888 17.5549 7.4751 17.7273 7.90909 17.7273H19.3636C19.7976 17.7273 20.2138 17.5549 20.5207 17.248C20.8276 16.9411 21 16.5249 21 16.0909V4.63636C21 4.20237 20.8276 3.78616 20.5207 3.47928C20.2138 3.1724 19.7976 3 19.3636 3ZM4.63636 6.27273H3V19.3636C3 19.7976 3.1724 20.2138 3.47928 20.5207C3.78616 20.8276 4.20237 21 4.63636 21H17.7273V19.3636H4.63636M15.24 10.6009L12.99 13.4973L11.3864 11.5664L9.13636 14.4545H18.1364L15.24 10.6009Z" fill="black"/>
</svg>
