<svg width="36" height="36" viewBox="0 0 36 36" fill="none" xmlns="http://www.w3.org/2000/svg">
<path d="M18 16.5H18.015V16.515H18V16.5Z" stroke="black" stroke-width="3.75" stroke-linejoin="round"/>
<path d="M18 32.9999L26.25 24.7499C27.8816 23.1182 28.9927 21.0393 29.4429 18.7762C29.893 16.513 29.6619 14.1672 28.7789 12.0354C27.8958 9.90353 26.4004 8.08142 24.4818 6.79946C22.5632 5.5175 20.3075 4.83325 18 4.83325C15.6925 4.83325 13.4368 5.5175 11.5182 6.79946C9.59961 8.08142 8.10422 9.90353 7.22116 12.0354C6.3381 14.1672 6.10702 16.513 6.55715 18.7762C7.00728 21.0393 8.11841 23.1182 9.75001 24.7499L18 32.9999Z" stroke="black" stroke-width="3" stroke-linejoin="round"/>
</svg>
