<svg width="24" height="24" viewBox="0 0 24 24" fill="none" xmlns="http://www.w3.org/2000/svg">
<path d="M13 21C12.4477 21 12 20.5523 12 20C12 19.4477 12.4477 19 13 19H19V5H13C12.4477 5 12 4.55228 12 4C12 3.44772 12.4477 3 13 3H19C19.55 3 20.021 3.196 20.413 3.588C20.805 3.98 21.0007 4.45067 21 5V19C21 19.55 20.804 20.021 20.412 20.413C20.02 20.805 19.5493 21.0007 19 21H13Z" fill="white"/>
<path d="M8.84615 8L13 12.5L8.84615 17M12.4231 12.5L4 12.5" stroke="white" stroke-width="2" stroke-linecap="round" stroke-linejoin="round"/>
</svg>
