<svg width="112" height="28" viewBox="0 0 112 28" fill="none" xmlns="http://www.w3.org/2000/svg">
<path d="M20.109 10.1249C20.1122 10.1228 20.1142 10.1192 20.1142 10.1153C20.1141 9.96269 20.1106 9.81015 20.1038 9.66095C20.0935 9.09043 20.0212 8.51992 19.8869 7.96658C19.88 7.93222 19.8696 7.90128 19.8593 7.87035C18.8295 3.46431 14.8652 0.171814 10.1432 0.171814C4.64624 0.171814 0.172211 4.63628 0.172211 10.1215C0.172211 12.3623 1.73588 15.9779 4.815 20.8651C7.05718 24.4222 9.3338 27.4123 9.35791 27.4432C9.55079 27.6975 9.84699 27.8316 10.1432 27.8316C10.1466 27.8316 10.1535 27.8316 10.157 27.8316C10.1604 27.8316 10.1673 27.8316 10.1707 27.8316C10.4669 27.8316 10.7631 27.6975 10.956 27.4432C10.987 27.4054 13.9766 23.4736 16.4978 19.2394C16.7767 18.772 16.6217 18.1671 16.1533 17.8922C15.6849 17.6138 15.0787 17.7685 14.8032 18.2359C12.6822 21.802 7.63702 21.7981 5.51748 18.2312C3.6731 15.1273 2.14574 11.9791 2.14574 10.1215C2.14574 5.72232 5.73461 2.14113 10.1432 2.14113C14.5518 2.14113 17.8651 5.45425 18.1234 9.62315C18.1682 11.0494 17.7377 12.84 15.9122 13.493C15.1282 13.774 14.8897 12.5411 15.1973 11.7671C15.389 11.2846 15.461 10.7999 15.461 10.4411C15.461 7.68476 13.0742 5.44394 10.1397 5.44394C7.20528 5.44394 4.97343 7.75694 4.97343 10.5992C4.97343 11.7574 5.70705 13.4862 7.21561 15.8782C8.27299 17.552 9.31314 18.9198 9.35447 18.9782C9.54734 19.2326 9.84354 19.3666 10.1397 19.3666C10.3464 19.3666 10.5565 19.3013 10.7356 19.1638C11.1696 18.8339 11.2522 18.2187 10.9216 17.7857C9.26836 15.6204 6.94352 11.9602 6.94352 10.6026C6.94352 8.84642 8.37631 7.41669 10.1363 7.41669C11.8963 7.41669 13.4841 8.77768 13.4841 10.448C13.4841 10.4927 13.4737 11.5375 12.6402 11.6406C12.4267 11.6681 11.7826 11.7437 11.2694 10.8879C10.9974 10.4308 10.4359 10.2315 9.93309 10.4171C9.43024 10.5992 9.13059 11.1147 9.22014 11.6406C9.3958 12.6819 10.5255 14.0223 11.9101 14.83C12.8469 15.3764 13.8457 15.6548 14.8308 15.6548C15.4197 15.6548 16.0052 15.5551 16.5701 15.3524C18.0993 14.8059 19.1946 13.6752 19.7388 12.0839C19.9181 11.557 20.031 10.9803 20.0741 10.3897C20.0756 10.369 20.0789 10.3485 20.083 10.3282C20.0958 10.2665 20.1034 10.2006 20.1038 10.1346C20.1038 10.1307 20.1058 10.1271 20.109 10.1249Z" fill="url(#paint0_linear_288_778)"/>
<path d="M10.1742 28C9.7781 28 9.44402 27.835 9.22359 27.5429C9.12715 27.4192 6.88153 24.4566 4.67379 20.9545C1.57056 16.0398 0 12.3967 0 10.1215C0 4.54008 4.5498 0 10.1432 0C14.8522 0 18.8923 3.1748 20.0013 7.73126C20.0171 7.79612 20.0412 7.85953 20.0522 7.92537C20.1899 8.48214 20.2623 9.06297 20.276 9.65754C20.2829 9.80876 20.2864 9.96686 20.2864 10.1215C20.2864 10.3018 20.2474 10.4803 20.2281 10.6596C20.1737 11.1657 20.0655 11.6645 19.9075 12.1286C19.3496 13.7715 18.2164 14.9365 16.6355 15.5036C15.096 16.0535 13.3566 15.8576 11.8309 14.964C10.4084 14.1323 9.24081 12.7404 9.05826 11.6544C8.95494 11.046 9.3028 10.4549 9.88143 10.2418C10.4601 10.0287 11.1076 10.259 11.4244 10.7883C11.8791 11.5512 12.4233 11.4825 12.6265 11.4585C13.3119 11.376 13.3187 10.4755 13.3187 10.4377C13.3187 8.8602 11.8928 7.57825 10.1432 7.57825C8.39353 7.57825 7.12262 8.93237 7.12262 10.5924C7.12262 11.8949 9.47501 15.5861 11.0662 17.6723C11.452 18.1809 11.3556 18.9061 10.8458 19.291C10.6426 19.4457 10.4015 19.5282 10.1432 19.5282C9.7781 19.5282 9.44057 19.3632 9.22014 19.0711C9.17537 19.0126 8.13866 17.6516 7.07096 15.9607C5.54517 13.5412 4.80467 11.785 4.80467 10.5924C4.80467 7.65386 7.19839 5.26525 10.1432 5.26525C13.088 5.26525 15.6367 7.58512 15.6367 10.4343C15.6367 10.8652 15.5392 11.4726 15.2631 12.0524C14.9755 12.6566 15.2263 13.5514 15.8571 13.3281C17.7618 12.6476 17.9891 10.7161 17.9547 9.62661C17.6998 5.52645 14.2694 2.313 10.1466 2.313C6.02392 2.313 2.31795 5.81515 2.31795 10.1215C2.31795 11.8619 3.74669 14.9084 5.66263 18.14C7.71085 21.5947 12.6034 21.5958 14.6551 18.1431C14.9823 17.5967 15.6918 17.4145 16.2429 17.7376C16.5081 17.8957 16.6975 18.1466 16.7733 18.4456C16.8491 18.7446 16.8043 19.0573 16.6459 19.322C14.1316 23.5458 11.1248 27.5051 11.0938 27.5429C10.8734 27.8316 10.5358 28 10.1707 28H10.1742ZM10.1432 0.343685C4.73923 0.343685 0.344421 4.7291 0.344421 10.1215C0.344421 12.3314 1.89776 15.9126 4.9631 20.7723C7.16395 24.2641 9.40269 27.213 9.49568 27.3367C9.65067 27.5395 9.88832 27.6563 10.1432 27.6563C10.4291 27.6563 10.6667 27.5395 10.8217 27.3367C10.8527 27.2989 13.8492 23.3568 16.3531 19.1467C16.5839 18.7618 16.453 18.2634 16.0672 18.0331C15.6815 17.8029 15.1821 17.9335 14.9513 18.3184C13.2395 21.195 11.3004 23.9376 10.2947 25.3158L10.2931 25.3181C10.2261 25.4117 10.087 25.4123 10.0192 25.3193C8.67596 23.484 1.97697 14.1254 1.97697 10.125C1.97697 5.62956 5.64161 1.97275 10.1466 1.97275C14.6517 1.97275 18.0339 5.33055 18.2991 9.6163C18.3301 10.5752 18.1647 12.8744 15.9742 13.658C15.1752 13.9433 14.3382 13.9227 13.491 13.5962C13.3433 13.5396 13.3454 13.3296 13.4944 13.2765C14.9134 12.7679 15.2923 11.2591 15.2923 10.448C15.2923 7.7879 12.9812 5.62268 10.1432 5.62268C7.30516 5.62268 5.14909 7.85663 5.14909 10.6061C5.14909 11.7334 5.87237 13.4278 7.36372 15.7923C8.42109 17.4695 9.4509 18.8202 9.49568 18.8786C9.76088 19.2257 10.2878 19.2979 10.6357 19.0333C10.9939 18.7618 11.0628 18.2531 10.7907 17.8957C9.24081 15.8611 6.7782 12.084 6.7782 10.6061C6.7782 8.75365 8.28676 7.24831 10.1432 7.24831C11.9996 7.24831 13.6632 8.68491 13.6632 10.4515C13.6632 10.912 13.4531 11.7197 12.6678 11.8159C12.0237 11.8949 11.5071 11.6131 11.1282 10.9807C10.8975 10.5958 10.4256 10.4274 10.002 10.5821C9.57834 10.7367 9.32691 11.1732 9.39924 11.6165C9.56801 12.6098 10.6633 13.9021 12.0065 14.6891C13.4427 15.5311 15.0787 15.7167 16.5219 15.2012C18.0029 14.6719 19.0602 13.579 19.5838 12.0393C19.7378 11.5841 19.8442 11.0919 19.8959 10.5766C19.9104 10.4317 19.942 10.2878 19.942 10.1421C19.942 9.99092 19.9385 9.8397 19.9316 9.68847C19.9213 9.11452 19.849 8.55775 19.7181 8.02848C19.7047 7.97508 19.6878 7.92213 19.6749 7.86861C18.6032 3.4168 14.6965 0.343685 10.1432 0.343685Z" fill="url(#paint1_linear_288_778)"/>
<path d="M26.2965 19.6244C25.9142 19.6244 25.6662 19.5247 25.556 19.3219C25.4424 19.1191 25.3631 18.8648 25.3149 18.5555C25.3012 18.4971 25.2908 18.4352 25.2805 18.3768C25.1255 17.6757 25.0428 16.9196 25.0291 16.1119L25.0118 15.6479C25.0118 14.2938 25.1117 12.9431 25.3149 11.5993C25.4458 10.3517 25.6662 9.11791 25.9762 7.9047C25.9865 7.84628 26.0003 7.79129 26.0107 7.74317C26.0692 7.55414 26.1347 7.36168 26.207 7.17265C26.2655 7.02831 26.3895 6.91833 26.5721 6.83241C26.7581 6.74992 26.9509 6.70868 27.1541 6.70868H27.2609C27.3573 6.70868 27.4469 6.71899 27.5296 6.74305C27.7923 6.81364 28.0506 7.0096 28.3216 7.0337C29.0264 7.09637 29.6967 7.28668 30.3366 7.59882C31.146 8.08686 31.5627 8.79485 31.5868 9.7228V9.81215C31.5868 10.3586 31.4422 10.8707 31.1563 11.345C30.9187 11.7024 30.4916 12.0805 29.8785 12.4791C29.2654 12.8778 28.5697 13.1184 27.7948 13.2009C27.3404 13.2009 26.9626 13.5515 26.9333 14.0049C26.8973 14.5604 26.865 15.1371 26.8373 15.7338C26.7959 16.6274 26.7753 17.1842 26.7753 17.411C26.7753 17.8028 26.7994 18.1946 26.8476 18.5899L26.882 18.9645C26.882 19.0448 26.8737 19.1216 26.857 19.1946C26.8169 19.3704 26.7084 19.5432 26.5342 19.59C26.4446 19.614 26.3654 19.6244 26.2931 19.6244H26.2965ZM27.192 12.6132C28.0496 12.6029 28.7901 12.3176 29.4101 11.7574C30.0404 11.1147 30.3814 10.3311 30.4296 9.40317C30.3814 8.71236 30.0955 8.25182 29.572 8.02155C28.619 7.60241 27.6972 8.43869 27.504 9.46164C27.4953 9.50722 27.4867 9.55303 27.4779 9.59907C27.2988 10.4548 27.161 11.235 27.068 11.9361L27.0275 12.4347C27.0196 12.5308 27.0956 12.6132 27.192 12.6132Z" fill="#AD00DF"/>
<path d="M36.6326 19.9268H36.543C36.4604 19.9268 36.3639 19.9131 36.2572 19.8925C36.0781 19.8581 35.9128 19.7859 35.7578 19.6794C35.6028 19.5728 35.5029 19.4491 35.4547 19.3048C35.3479 18.7583 35.2928 18.2153 35.2928 17.6826V17.3629C35.2995 17.0194 34.8223 16.9271 34.7004 17.2483L34.5213 17.7204C34.4008 18.0641 34.2217 18.3906 33.9771 18.693C33.7326 18.9954 33.4123 19.1467 33.0196 19.1467C32.8061 19.1467 32.565 19.0814 32.3032 18.9508C31.8968 18.6999 31.5937 18.3493 31.3905 17.8991C31.1529 17.3389 31.0323 16.7512 31.0323 16.1325C31.0323 15.4658 31.1563 14.8231 31.4077 14.2045C31.6592 13.5858 32.0174 13.0772 32.4892 12.6785C32.9611 12.2798 33.5294 12.0805 34.1975 12.0805C34.6281 12.0805 34.9518 12.1355 35.1723 12.242C35.3884 12.3465 35.5549 12.451 35.6749 12.5555C35.6795 12.5594 35.6813 12.5657 35.6843 12.5709C35.6894 12.5799 35.7004 12.5712 35.7019 12.561C35.7492 12.2498 35.7966 12.0014 35.8439 11.8193C35.8921 11.6337 35.9403 11.4791 35.9885 11.345C36.1091 11.0941 36.2985 10.9223 36.5603 10.8261C36.6429 10.802 36.7394 10.7917 36.8461 10.7917C37.0115 10.7917 37.1665 10.8226 37.3111 10.881C37.4764 10.9532 37.6004 11.0288 37.6762 11.1113C37.752 11.1938 37.7933 11.321 37.7933 11.4859C37.7933 11.8193 37.7623 12.1596 37.7037 12.5101C37.6452 12.8607 37.5729 13.2078 37.4902 13.5549C37.4179 13.8642 37.3593 14.1667 37.3111 14.4657L37.1665 15.428C37.0459 16.3663 36.9874 17.308 36.9874 18.2462L37.0046 19.0504C37.0046 19.1226 37.0046 19.2017 36.9942 19.291C36.9892 19.3568 36.9841 19.4077 36.9763 19.4437C36.9715 19.4659 36.9675 19.483 36.9601 19.5044C36.955 19.5192 36.9484 19.5395 36.9458 19.5549C36.9311 19.6412 36.9042 19.7162 36.8599 19.7825C36.8122 19.8539 36.7375 19.9018 36.6325 19.9261C36.6321 19.9262 36.6321 19.9268 36.6326 19.9268ZM33.2194 18.4095C33.2194 18.4104 33.2202 18.4112 33.2211 18.4112C33.4098 18.4105 33.578 18.2971 33.7188 18.0709C34.17 17.0949 34.635 15.9607 35.1137 14.665C35.2205 14.3901 35.3204 14.1254 35.4168 13.8608C35.465 13.7646 35.4891 13.6546 35.4891 13.5205C35.4891 13.414 35.4512 13.2903 35.372 13.1562C35.2928 13.0188 35.1413 12.95 34.9174 12.95C34.728 12.95 34.5247 13.005 34.3112 13.1184C34.0977 13.2318 33.9358 13.3487 33.829 13.4656C33.1367 14.0945 32.7338 14.8644 32.6132 15.7682C32.5168 16.1497 32.4686 16.5587 32.4686 16.9986C32.4686 17.3561 32.534 17.6791 32.6649 17.9713C32.7954 18.2627 32.9808 18.407 33.2177 18.4077C33.2186 18.4077 33.2194 18.4085 33.2194 18.4095Z" fill="#AD00DF"/>
<path d="M40.2456 19.5883C40.2433 19.5872 40.2408 19.5866 40.2383 19.5866C40.0398 19.586 39.8565 19.5416 39.6853 19.4525C39.5078 19.36 39.3687 19.2062 39.2812 19.0263C39.1862 18.8313 39.13 18.619 39.1159 18.3906C39.1159 18.3677 39.1132 18.345 39.1087 18.3226C39.0897 18.2272 39.0814 18.1319 39.0814 18.0366C39.0573 17.7273 39.047 17.4076 39.047 17.0743C39.047 16.3594 39.0814 15.648 39.1538 14.9331V14.7716C39.1779 14.2354 39.2261 13.689 39.2984 13.1288C39.3088 13.0463 39.3225 12.9638 39.3329 12.8779C39.3432 12.651 39.3811 12.4379 39.4396 12.2352C39.4982 12.0324 39.6256 11.8606 39.8151 11.7162C40.0286 11.5375 40.2731 11.4481 40.5487 11.4481C40.6451 11.4481 40.745 11.4653 40.8518 11.5031C40.9826 11.5512 41.0722 11.6337 41.1204 11.754C41.1686 11.8743 41.1927 11.998 41.1927 12.1286L41.1583 12.4483C41.0619 13.0188 40.993 13.4793 40.9516 13.8299C40.9103 14.1804 40.8518 14.6478 40.7829 15.2287C40.7691 15.3249 40.7588 15.4589 40.7484 15.6308C40.7381 15.8026 40.7312 15.9745 40.7312 16.1394C40.7312 16.188 40.8186 16.2046 40.8345 16.1587C40.89 15.9981 40.9394 15.8606 40.9826 15.7476C41.055 15.5586 41.1376 15.3008 41.2341 14.9812C41.2823 14.8506 41.3236 14.7131 41.3581 14.5722C41.5372 13.9433 41.7783 13.304 42.0813 12.6648C42.3844 12.0255 42.8115 11.5719 43.3591 11.3072C43.49 11.2591 43.6278 11.235 43.769 11.235C43.9825 11.235 44.1926 11.2935 44.3958 11.4138C44.6473 11.5787 44.8229 11.7884 44.9228 12.0393C45.0227 12.2902 45.0881 12.5582 45.1122 12.8435L45.1295 13.0738C45.1295 13.1125 45.1272 13.1509 45.1228 13.1893C45.0982 13.4048 44.9949 13.6328 44.7885 13.6993C44.6817 13.7336 44.5749 13.7543 44.4682 13.7543C44.3717 13.7439 44.2719 13.7199 44.1651 13.6924C44.0583 13.6649 43.9688 13.6065 43.8964 13.524C43.8 13.3796 43.7483 13.2147 43.7346 13.0256C43.723 12.9653 43.7139 12.9049 43.7052 12.8465C43.7018 12.8239 43.7001 12.8011 43.7001 12.7782C43.6898 12.6957 43.6657 12.6098 43.6381 12.5204C43.6071 12.4311 43.5589 12.352 43.4866 12.2798C43.4384 12.2317 43.3901 12.2077 43.3419 12.2077C43.2937 12.2077 43.2455 12.2249 43.1973 12.2627C43.149 12.297 43.1077 12.3417 43.0733 12.3864C42.8218 12.6957 42.6324 13.0463 42.5015 13.4381C42.4912 13.4621 42.4774 13.4931 42.4671 13.5274C42.4085 13.6821 42.3052 13.9364 42.164 14.2938C42.0193 14.6513 41.8954 14.9709 41.7886 15.2562C41.7163 15.483 41.6577 15.6651 41.6095 15.8095C41.575 15.9298 41.5337 16.0501 41.4924 16.1738C41.4511 16.2975 41.3925 16.4694 41.3236 16.6825C41.2892 16.8268 41.2444 16.9677 41.1996 17.1121C41.1946 17.1286 41.1897 17.1453 41.1847 17.1619C40.9999 17.7864 40.9482 18.4404 40.9482 19.0917C40.9482 19.1501 40.9413 19.2085 40.931 19.2601C40.9206 19.3151 40.9 19.3529 40.8759 19.3769C40.7114 19.5205 40.5026 19.5893 40.2529 19.59C40.2504 19.59 40.2478 19.5894 40.2456 19.5883Z" fill="#AD00DF"/>
<path d="M47.592 19.626C47.592 19.6251 47.5913 19.6244 47.5904 19.6244C47.2331 19.6241 46.9995 19.5382 46.886 19.3666C46.7723 19.1948 46.6862 18.9542 46.6277 18.6449C46.6173 18.5864 46.6036 18.5246 46.5932 18.4662C46.4486 17.765 46.3728 17.0089 46.3625 16.2013V15.2905C46.3625 13.2592 46.5146 11.4684 46.8221 9.91798C46.8409 9.82292 46.761 9.74038 46.6655 9.75719C46.3677 9.79369 46.0817 9.84404 45.8106 9.90674C45.6412 9.94591 45.4561 9.99453 45.3051 9.90841C45.2328 9.86716 45.1914 9.78812 45.1811 9.66783C45.1811 9.59565 45.2018 9.53035 45.2431 9.47193C45.2844 9.4135 45.343 9.3757 45.4119 9.36538C45.6737 9.29912 45.9491 9.24224 46.2376 9.19475C46.669 9.12372 47.0096 8.79856 47.1202 8.37557C47.1615 8.21404 47.2063 8.02845 47.2545 7.81537C47.3394 7.51894 47.4349 7.19731 47.7069 7.0521C47.7221 7.04398 47.7378 7.03606 47.7539 7.02833C47.933 6.94584 48.119 6.9046 48.3084 6.9046C48.739 6.9046 48.9628 7.05239 48.9869 7.35139C48.9984 7.41083 49.0056 7.47138 48.9991 7.53156C48.9938 7.58041 48.9843 7.63352 48.9697 7.69164C48.9456 7.91847 48.9112 8.1453 48.8629 8.3687C48.8093 8.70063 49.0701 8.99912 49.4042 8.9613C49.5456 8.94528 49.6809 8.9232 49.8101 8.89454C50.0764 8.83844 50.302 8.74177 50.4891 8.60234C50.5501 8.55691 50.619 8.50862 50.6906 8.4831C50.7501 8.46192 50.8076 8.45377 50.8681 8.47164C50.9167 8.48598 50.9629 8.51151 51.0052 8.54742C51.0776 8.60584 51.112 8.67802 51.112 8.7605C51.112 8.84298 51.0707 8.92203 50.988 8.99077C50.6884 9.2176 50.3508 9.37226 49.9685 9.45474C49.5919 9.536 49.1885 9.59725 48.7551 9.63191C48.7422 9.63294 48.7314 9.63654 48.7192 9.64092C48.6796 9.65515 48.6402 9.68052 48.6323 9.72188C48.4123 10.8771 48.2584 12.0357 48.1707 13.2009C48.0811 14.3901 48.0363 15.8163 48.0363 17.4832C48.0467 17.7925 48.0639 18.0469 48.0811 18.2496C48.0889 18.3407 48.1001 18.4409 48.1144 18.5506C48.1536 18.8497 48.2153 19.1718 48.057 19.4285C47.9985 19.5006 47.9296 19.5488 47.8504 19.5728C47.7717 19.5967 47.6862 19.6138 47.5939 19.6275C47.5929 19.6277 47.592 19.6269 47.592 19.626Z" fill="#AD00DF"/>
<path d="M56.9758 10.9206C56.9768 10.9196 56.9784 10.9193 56.9798 10.9199C57.1094 10.9782 57.1913 11.0569 57.2289 11.1491C57.2634 11.2454 57.2841 11.3519 57.2841 11.4688V11.6303C57.1635 12.8194 57.0636 13.9674 56.981 15.074C56.9465 15.3833 56.9155 15.7098 56.8914 16.0535C56.8329 16.8028 56.795 17.5589 56.7846 18.3184C56.7605 19.401 56.64 20.4699 56.4264 21.5284C56.2232 22.5526 55.8547 23.508 55.3174 24.4016C55.0074 24.8897 54.6389 25.3364 54.2084 25.7386C53.5299 26.3469 52.7825 26.6493 51.9731 26.6493C51.7595 26.6493 51.5563 26.6253 51.3669 26.5771C51.0914 26.505 50.8296 26.3916 50.5816 26.2369C50.3656 26.104 50.2005 25.928 50.0818 25.7068C50.0424 25.6334 50.0099 25.5537 50.0099 25.4705C50.0099 25.388 50.0374 25.3158 50.0891 25.2574C50.1442 25.199 50.2165 25.168 50.313 25.168C50.4094 25.168 50.4749 25.1852 50.5093 25.223C50.5437 25.2574 50.5747 25.3055 50.5988 25.3674C50.6526 25.4747 50.753 25.5491 50.8519 25.6171C50.8982 25.6489 50.9444 25.6791 50.9915 25.7076C51.2291 25.8142 51.4633 25.8692 51.6872 25.8692C52.0558 25.8348 52.3726 25.7523 52.6344 25.6286C52.8961 25.5049 53.1579 25.3089 53.4197 25.0477C53.7159 24.7625 53.9569 24.436 54.136 24.0682C54.5184 23.3087 54.7905 22.5217 54.9592 21.714C55.0901 20.9888 55.1555 20.2568 55.1555 19.5179C55.1555 19.2429 55.1486 18.9645 55.1383 18.6793C55.1039 17.8957 55.0832 17.1086 55.0832 16.325V15.9676C55.0832 15.9142 55.0834 15.8608 55.0839 15.8074C55.087 15.4342 54.5215 15.2877 54.3668 15.6273C53.8915 16.6515 53.5505 17.3767 53.3473 17.8029C53.2164 18.1225 53.0339 18.4456 52.8031 18.7652C52.5724 19.0848 52.2693 19.2704 51.9008 19.3185H51.8835C51.4668 19.3185 51.143 19.1673 50.9088 18.8649C50.6746 18.5624 50.5059 18.1947 50.3991 17.7685C50.2923 17.3389 50.2372 16.9299 50.2372 16.5381C50.2372 16.325 50.2682 15.9539 50.3371 15.4314C50.4025 14.909 50.4783 14.397 50.561 13.8986C50.6436 13.4003 50.7228 13.0532 50.7917 12.8641C50.8503 12.7335 50.9639 12.627 51.1327 12.5445C51.298 12.462 51.4668 12.4208 51.6321 12.4208C51.8835 12.4448 52.0557 12.5033 52.1522 12.5995C52.2486 12.6957 52.2968 12.8126 52.2968 12.9569V13.0635C52.2727 13.2903 52.2383 13.4965 52.1901 13.689C52.1556 13.878 52.1246 14.0705 52.1005 14.2595C52.0764 14.4485 52.0523 14.6238 52.0282 14.7784C52.0041 14.885 51.98 15.0087 51.9559 15.1531C51.9318 15.3661 51.9076 15.5861 51.8835 15.8129C51.8112 16.2529 51.763 16.6928 51.7389 17.1327V17.3458C51.7389 17.5245 51.7595 17.7204 51.8009 17.9335C51.8367 18.1182 51.9062 18.2513 52.0093 18.3305C52.0404 18.3543 52.0797 18.3631 52.1188 18.3631C52.1387 18.3631 52.1585 18.3608 52.1775 18.3548C52.2949 18.3178 52.3888 18.2486 52.4622 18.15C52.5379 18.0435 52.6137 17.93 52.686 17.8097C52.6964 17.7857 52.7101 17.7616 52.7205 17.7376L53.1131 16.954C53.3404 16.5141 53.554 16.0604 53.7572 15.5964C53.8536 15.4177 53.9432 15.2321 54.0258 15.0431C54.1326 14.8163 54.2807 14.4554 54.4736 13.9536C54.7112 13.3693 54.9523 12.8023 55.1969 12.2489C55.4414 11.6956 55.6239 11.3553 55.741 11.2247C55.8616 11.0598 56.02 10.9395 56.2232 10.8673C56.3059 10.8433 56.4023 10.8329 56.5091 10.8329C56.6736 10.8329 56.8278 10.8636 56.9719 10.9214C56.9732 10.922 56.9747 10.9216 56.9758 10.9206Z" fill="#AD00DF"/>
<path d="M62.1203 19.5402C62.1212 19.5377 62.1193 19.5351 62.1166 19.5351H62.0051C62.0004 19.5351 61.9957 19.5347 61.9911 19.5339C61.7091 19.485 61.522 19.3686 61.4263 19.1879C61.3299 19.0023 61.2645 18.779 61.23 18.5177C61.2197 18.4215 61.2059 18.3322 61.1956 18.2497C61.075 17.5348 61.0165 16.7821 61.0165 15.9848C61.0165 15.2459 61.0509 14.4966 61.1232 13.7268C61.1956 12.9604 61.2851 12.2249 61.3919 11.5238C61.5572 10.2865 61.8086 9.06642 62.1427 7.86696C62.1531 7.81884 62.1668 7.7776 62.1772 7.74323C62.2357 7.54046 62.3012 7.34456 62.3735 7.15553C62.432 7.01118 62.556 6.90464 62.7386 6.82559C62.9246 6.74655 63.1037 6.70874 63.2828 6.70874C63.4136 6.70874 63.5342 6.72592 63.641 6.76373C63.8145 6.81363 63.9227 6.90363 63.9657 7.03374C63.9807 7.07938 63.9819 7.1281 63.9819 7.17615C63.9819 7.27728 63.9664 7.39079 63.9325 7.51375C63.9288 7.52692 63.9268 7.54052 63.9268 7.55419C63.9268 7.56334 63.926 7.57248 63.9242 7.58147C63.8044 8.20596 63.6744 8.83378 63.5342 9.45822C63.2903 10.5424 64.4777 11.209 65.2107 10.3737C65.6848 9.8335 66.127 9.26132 66.5375 8.65743C66.6684 8.49246 66.8062 8.40654 66.9474 8.40654C67.1024 8.40654 67.2436 8.48559 67.3676 8.64712C67.4916 8.80865 67.5536 8.99081 67.5536 9.19014C67.5536 9.22674 67.5509 9.26333 67.5441 9.2993C67.5078 9.49265 67.4455 9.67737 67.3573 9.85346C66.9164 10.613 66.3929 11.2969 65.7833 11.9053C65.2653 12.452 64.6827 12.9535 64.037 13.4099C63.8206 13.5628 63.8073 13.9775 64.006 14.153C64.2747 14.3901 64.5881 14.665 64.9429 14.9744C65.277 15.2734 65.5835 15.5414 65.8625 15.7855C66.1415 16.0295 66.3378 16.1944 66.4445 16.2769C66.5031 16.325 66.5754 16.3835 66.6581 16.4556C66.8475 16.5862 67.0335 16.7409 67.2126 16.9196C67.402 17.1086 67.4985 17.2942 67.4985 17.4729C67.4985 17.6276 67.402 17.772 67.2126 17.9026C67.1299 17.9507 67.0473 17.9816 66.9715 18.0022C66.8923 18.0194 66.8062 18.0297 66.7132 18.0297C66.6064 18.0194 66.4893 17.9713 66.3653 17.8854C66.2413 17.8029 66.1174 17.7135 66.0002 17.6173C65.8935 17.5348 65.797 17.4695 65.7144 17.4214C65.5456 17.3149 65.2563 17.0811 64.8395 16.7272C64.4228 16.3732 64.0095 16.0123 63.6065 15.648C63.2981 15.3715 62.7554 15.5806 62.7284 15.9939C62.7189 16.1386 62.7097 16.2811 62.7007 16.4213C62.6697 16.9093 62.6559 17.2186 62.6559 17.3492C62.6559 17.741 62.6663 18.1328 62.6904 18.5281L62.7076 18.9027C62.7076 19.0481 62.6754 19.1856 62.6112 19.315C62.594 19.3497 62.5687 19.3798 62.5375 19.4027C62.4077 19.4974 62.2699 19.5442 62.1241 19.5453C62.1214 19.5454 62.1195 19.5427 62.1203 19.5402Z" fill="#AD00DF"/>
<path d="M74.0494 19.9268H73.9598C73.8772 19.9268 73.7807 19.9131 73.674 19.8925C73.4949 19.8581 73.3295 19.7859 73.1745 19.6794C73.0196 19.5728 72.9162 19.4491 72.8715 19.3048C72.7647 18.7583 72.7096 18.2153 72.7096 17.6826V17.3629C72.7163 17.0194 72.2391 16.9271 72.1172 17.2483L71.9381 17.7204C71.8175 18.0641 71.6384 18.3906 71.3939 18.693C71.1494 18.9954 70.8325 19.1467 70.4364 19.1467C70.2229 19.1467 69.9818 19.0814 69.72 18.9508C69.3136 18.6999 69.0105 18.3493 68.8073 17.8991C68.5696 17.3389 68.4491 16.7512 68.4491 16.1325C68.4491 15.4658 68.5731 14.8231 68.8245 14.2045C69.0759 13.5858 69.4341 13.0772 69.906 12.6785C70.3779 12.2798 70.9461 12.0805 71.6143 12.0805C72.0448 12.0805 72.3686 12.1355 72.589 12.242C72.8052 12.3465 72.9717 12.451 73.0917 12.5555C73.0962 12.5594 73.0981 12.5657 73.1011 12.5709C73.1062 12.5799 73.1171 12.5712 73.1187 12.561C73.166 12.2498 73.2133 12.0014 73.2607 11.8193C73.3089 11.6337 73.3571 11.4791 73.4053 11.345C73.5259 11.0941 73.7153 10.9223 73.977 10.8261C74.0597 10.802 74.1561 10.7917 74.2629 10.7917C74.4282 10.7917 74.5832 10.8226 74.7279 10.881C74.8932 10.9532 75.0172 11.0288 75.093 11.1113C75.1687 11.1938 75.2101 11.321 75.2101 11.4859C75.2101 11.8193 75.1791 12.1596 75.1205 12.5101C75.062 12.8607 74.9896 13.2078 74.907 13.5549C74.8347 13.8642 74.7761 14.1667 74.7279 14.4657L74.5832 15.428C74.4627 16.3663 74.4041 17.308 74.4041 18.2462L74.4214 19.0504C74.4214 19.1226 74.4214 19.2017 74.411 19.291C74.4059 19.3579 74.4007 19.4094 74.3927 19.4454C74.388 19.4664 74.3844 19.4822 74.3776 19.5025C74.3722 19.5185 74.3655 19.5401 74.363 19.5568C74.3503 19.6423 74.3207 19.7167 74.2767 19.7825C74.229 19.8539 74.1543 19.9018 74.0493 19.9261C74.0489 19.9262 74.0489 19.9268 74.0494 19.9268ZM70.6344 18.4095C70.6356 18.4106 70.6371 18.4112 70.6386 18.4112C70.827 18.4102 70.995 18.2968 71.1356 18.0709C71.5902 17.0949 72.0552 15.9607 72.5305 14.665C72.6373 14.3901 72.7406 14.1254 72.8336 13.8608C72.8818 13.7646 72.9059 13.6546 72.9059 13.5205C72.9059 13.414 72.868 13.2903 72.7888 13.1562C72.7096 13.0188 72.558 12.95 72.3342 12.95C72.1447 12.95 71.9415 13.005 71.7245 13.1184C71.511 13.2318 71.3491 13.3487 71.2423 13.4656C70.5501 14.0945 70.1471 14.8644 70.0265 15.7682C69.9301 16.1497 69.8819 16.5587 69.8819 16.9986C69.8819 17.3561 69.9473 17.6791 70.0782 17.9713C70.2086 18.2624 70.3938 18.4067 70.6303 18.4077C70.6318 18.4077 70.6333 18.4084 70.6344 18.4095Z" fill="#AD00DF"/>
<path d="M81.8608 19.6224C81.8608 19.6234 81.8599 19.6242 81.8589 19.6241L81.6301 19.59C81.451 19.5556 81.2822 19.4835 81.1203 19.3769C80.9585 19.2704 80.862 19.1466 80.8241 19.0023C80.7656 18.6208 80.7208 18.2324 80.6898 17.8338C80.6588 17.4351 80.645 17.112 80.645 16.8611V16.3422C80.6691 16.0466 80.6933 15.6926 80.7174 15.2905C80.7225 15.2187 80.7268 15.1477 80.7298 15.0767C80.7359 14.9331 80.7477 14.7899 80.769 14.6478C80.7794 14.4691 80.7863 14.2973 80.7863 14.1288L80.769 13.8264V13.7714C80.769 13.7233 80.7621 13.6649 80.7518 13.5927C80.738 13.5205 80.7174 13.4621 80.6898 13.414C80.6588 13.3659 80.614 13.3418 80.5555 13.3418C80.5073 13.3418 80.4418 13.3831 80.3592 13.4655C80.0836 13.7749 79.8839 14.1185 79.753 14.5C79.7022 14.6231 79.6391 14.7411 79.594 14.8663C79.4919 15.1498 79.4014 15.4378 79.3225 15.7304C79.2639 15.9332 79.1985 16.1291 79.1261 16.3181L78.7507 17.5313C78.7266 17.6035 78.7025 17.6688 78.6784 17.7272C78.5822 17.9844 78.5055 18.2471 78.4459 18.5129C78.4329 18.5708 78.427 18.6301 78.427 18.6895C78.427 18.7617 78.4166 18.8339 78.3994 18.9026C78.3822 18.9714 78.3546 19.0332 78.3202 19.0813C78.1652 19.2601 77.9689 19.3494 77.7312 19.3494C77.1684 19.3494 76.745 18.8228 76.6423 18.2694C76.6342 18.2254 76.6275 18.181 76.6222 18.1362C76.5154 17.222 76.4603 16.2803 76.4603 15.318C76.4603 14.5791 76.4775 13.8848 76.5154 13.2318C76.5258 13.1253 76.5327 13.0187 76.5327 12.9122C76.5568 11.2934 76.7118 9.70562 76.9976 8.14873C77.0217 8.06625 77.039 7.9872 77.0527 7.91846C77.0768 7.75349 77.1147 7.59884 77.1698 7.45449C77.2249 7.31014 77.3283 7.19329 77.4833 7.09706C77.5797 7.03863 77.6899 6.98708 77.8139 6.94583C77.9379 6.90459 78.055 6.88397 78.1618 6.88397C78.2685 6.88397 78.3719 6.90803 78.4649 6.95615C78.5854 7.03863 78.6543 7.15892 78.6784 7.31358C78.7025 7.46824 78.7128 7.61602 78.7128 7.76037C78.7128 8.5096 78.6543 9.28289 78.5337 10.0802C78.4855 10.4858 78.4373 10.8879 78.3891 11.2934C78.3409 12.0667 78.3099 12.8091 78.2995 13.524C78.2892 13.7749 78.2754 14.0429 78.2651 14.3282C78.2651 14.8025 78.272 15.2149 78.2823 15.5586C78.2912 15.8529 78.3076 16.2003 78.3273 16.6005C78.3294 16.6433 78.3924 16.6524 78.4087 16.6128C78.4095 16.6109 78.41 16.6092 78.4105 16.6073C78.4175 16.5776 78.424 16.5504 78.4299 16.5256C78.4583 16.4051 78.4856 16.2825 78.5264 16.1656C78.5887 15.9871 78.6515 15.8082 78.7163 15.6273C79.0745 14.4725 79.474 13.5515 79.9149 12.8606C80.0457 12.6957 80.187 12.541 80.3351 12.3967C80.4832 12.2523 80.6588 12.1595 80.862 12.1114C80.9688 12.0874 81.0756 12.077 81.1823 12.077C81.4682 12.077 81.7334 12.1595 81.9779 12.3279C82.2225 12.4929 82.3844 12.7266 82.4705 13.0222C82.5428 13.3212 82.5772 13.6408 82.5772 13.9845C82.5772 14.2594 82.56 14.555 82.5221 14.8781C82.5221 14.9164 82.5036 14.9525 82.5012 14.9908C82.478 15.3564 82.4518 15.8766 82.4257 16.5484C82.3947 17.2564 82.3809 17.8613 82.3809 18.3596V18.6449C82.3809 18.717 82.3809 18.8098 82.3706 18.9198C82.36 19.0939 82.3339 19.2732 82.2581 19.4302C82.2544 19.4378 82.2506 19.4452 82.2466 19.4525C82.2053 19.5316 82.1226 19.5797 82.0055 19.6037L81.8623 19.6208C81.8615 19.6209 81.8608 19.6216 81.8608 19.6224Z" fill="#AD00DF"/>
<path d="M89.1557 19.9268H89.0662C88.9835 19.9268 88.8871 19.9131 88.7803 19.8925C88.6012 19.8581 88.4359 19.7859 88.2809 19.6794C88.1259 19.5728 88.0226 19.4491 87.9778 19.3048C87.871 18.7583 87.8159 18.2153 87.8159 17.6826V17.3629C87.8226 17.0194 87.3454 16.9271 87.2235 17.2483L87.0444 17.7204C86.9239 18.0641 86.7448 18.3906 86.5002 18.693C86.2557 18.9954 85.9388 19.1467 85.5427 19.1467C85.3292 19.1467 85.0881 19.0814 84.8263 18.9508C84.4199 18.6999 84.1168 18.3493 83.9136 17.8991C83.676 17.3389 83.5554 16.7512 83.5554 16.1325C83.5554 15.4658 83.6794 14.8231 83.9308 14.2045C84.1823 13.5858 84.5405 13.0772 85.0123 12.6785C85.4842 12.2798 86.0525 12.0805 86.7206 12.0805C87.1512 12.0805 87.4749 12.1355 87.6954 12.242C87.9115 12.3465 88.078 12.451 88.198 12.5555C88.2026 12.5594 88.2044 12.5657 88.2074 12.5709C88.2125 12.5799 88.2235 12.5712 88.225 12.561C88.2723 12.2498 88.3197 12.0014 88.367 11.8193C88.4152 11.6337 88.4634 11.4791 88.5116 11.345C88.6322 11.0941 88.8216 10.9223 89.0834 10.8261C89.166 10.802 89.2625 10.7917 89.3692 10.7917C89.5346 10.7917 89.6896 10.8226 89.8342 10.881C89.9995 10.9532 90.1235 11.0288 90.1993 11.1113C90.2751 11.1938 90.3164 11.321 90.3164 11.4859C90.3164 11.8193 90.2854 12.1596 90.2269 12.5101C90.1683 12.8607 90.096 13.2078 90.0133 13.5549C89.941 13.8642 89.8824 14.1667 89.8342 14.4657L89.6896 15.428C89.569 16.3663 89.5105 17.308 89.5105 18.2462L89.5277 19.0504C89.5277 19.1226 89.5277 19.2017 89.5173 19.291C89.5122 19.3579 89.507 19.4094 89.499 19.4454C89.4943 19.4664 89.4907 19.4822 89.4839 19.5025C89.4785 19.5185 89.4718 19.5401 89.4694 19.5568C89.4566 19.6423 89.427 19.7167 89.383 19.7825C89.3353 19.8539 89.2606 19.9018 89.1556 19.9261C89.1552 19.9262 89.1552 19.9268 89.1557 19.9268ZM85.7408 18.4095C85.7419 18.4106 85.7434 18.4112 85.7449 18.4112C85.9334 18.4102 86.1013 18.2968 86.2419 18.0709C86.6965 17.0949 87.1615 15.9607 87.6368 14.665C87.7436 14.3901 87.8469 14.1254 87.9399 13.8608C87.9881 13.7646 88.0122 13.6546 88.0122 13.5205C88.0122 13.414 87.9743 13.2903 87.8951 13.1562C87.8159 13.0188 87.6644 12.95 87.4405 12.95C87.2511 12.95 87.0478 13.005 86.8309 13.1184C86.6173 13.2318 86.4554 13.3487 86.3487 13.4656C85.6564 14.0945 85.2534 14.8644 85.1329 15.7682C85.0364 16.1497 84.9882 16.5587 84.9882 16.9986C84.9882 17.3561 85.0537 17.6791 85.1845 17.9713C85.315 18.2624 85.5001 18.4067 85.7366 18.4077C85.7382 18.4077 85.7397 18.4084 85.7408 18.4095Z" fill="#AD00DF"/>
<path d="M95.1665 19.5711C95.163 19.57 95.1595 19.5694 95.1559 19.5694H95.0782C95.051 19.5694 95.0237 19.5674 94.9969 19.5624C94.72 19.5105 94.5371 19.3961 94.4483 19.2223C94.3519 19.0367 94.2865 18.8133 94.252 18.5521C94.2417 18.4696 94.221 18.3802 94.1969 18.284C94.0764 17.5691 94.0178 16.8165 94.0178 16.0191C94.0178 15.2699 94.0557 14.5138 94.1349 13.7542C94.2107 12.9947 94.3037 12.2627 94.4105 11.5615C94.5758 10.314 94.8341 9.087 95.1785 7.88754C95.2026 7.82912 95.2199 7.76725 95.2336 7.70883C95.2922 7.54386 95.3576 7.36514 95.4299 7.17268C95.5023 7.02833 95.6332 6.92179 95.8226 6.84274C96.012 6.76713 96.2083 6.72589 96.4116 6.72589C96.64 6.72589 96.8953 6.77469 97.0229 6.96412C97.07 7.03393 97.0935 7.1148 97.0935 7.20705C97.0935 7.31359 97.0763 7.43732 97.0384 7.58166C96.942 8.17624 96.8249 8.77081 96.6802 9.36539C96.5355 10.0184 96.4116 10.6783 96.3048 11.345L96.3006 11.3728C96.1975 12.0618 96.8033 12.6497 97.498 12.5974C98.0047 12.5593 98.4226 12.1836 98.5065 11.6825C98.5174 11.6176 98.5285 11.5533 98.5401 11.4894C98.7054 10.2521 98.9637 9.03201 99.3081 7.83255L99.5389 7.11769C99.6112 6.96303 99.7455 6.84961 99.9419 6.77744C100.138 6.70527 100.331 6.6709 100.524 6.6709C100.764 6.6709 101.036 6.72061 101.16 6.92605C101.202 6.99624 101.223 7.0773 101.223 7.16924C101.223 7.27578 101.206 7.39607 101.168 7.52667C101.072 8.07313 100.965 8.61959 100.848 9.16949C100.682 9.8706 100.545 10.5717 100.438 11.2763C100.211 12.6201 100.052 13.957 99.9556 15.2905C99.9556 15.3627 99.9487 15.4349 99.9384 15.5036C99.9281 15.7407 99.9143 15.9779 99.904 16.2185C99.8695 16.5862 99.8489 16.9574 99.8489 17.3251V17.6448C99.8489 17.93 99.8661 18.2153 99.904 18.5005L99.9212 18.858C99.9212 18.8603 99.9212 18.8627 99.9212 18.865C99.9187 19.2086 99.6379 19.5178 99.2944 19.5178C99.2119 19.5178 99.129 19.5119 99.0495 19.4901C98.807 19.4236 98.6445 19.3065 98.5642 19.1432C98.4677 18.9542 98.4023 18.7136 98.3679 18.4284C98.3541 18.3699 98.3438 18.3046 98.3334 18.2325C98.2025 17.4935 98.1371 16.7099 98.1371 15.8782C98.1371 15.4857 98.1494 15.0779 98.1736 14.6631C98.2168 13.921 97.6331 13.2731 96.8957 13.367C96.3701 13.4338 95.9673 13.8643 95.9208 14.3921C95.8929 14.7084 95.8697 15.026 95.8501 15.3455C95.8364 15.4177 95.8329 15.4899 95.8329 15.5586C95.8191 15.7236 95.8088 15.8851 95.7985 16.0397C95.7503 16.4797 95.7262 16.9265 95.7262 17.3767C95.7262 17.7685 95.7434 18.1603 95.7813 18.5555L95.7985 18.9301C95.7985 19.0221 95.7857 19.1095 95.7602 19.1918C95.7122 19.3469 95.5945 19.4767 95.4411 19.5298C95.3604 19.5578 95.2722 19.5723 95.1771 19.5728C95.1735 19.5728 95.1699 19.5722 95.1665 19.5711Z" fill="#AD00DF"/>
<path d="M107.354 19.9268H107.264C107.182 19.9268 107.085 19.9131 106.978 19.8925C106.799 19.8581 106.634 19.7859 106.479 19.6794C106.324 19.5728 106.221 19.4491 106.176 19.3048C106.069 18.7583 106.014 18.2153 106.014 17.6826V17.3629C106.021 17.0194 105.543 16.9271 105.422 17.2483L105.242 17.7204C105.122 18.0641 104.943 18.3906 104.698 18.693C104.454 18.9954 104.137 19.1467 103.741 19.1467C103.527 19.1467 103.286 19.0814 103.024 18.9508C102.618 18.6999 102.315 18.3493 102.112 17.8991C101.874 17.3389 101.753 16.7512 101.753 16.1325C101.753 15.4658 101.877 14.8231 102.129 14.2045C102.38 13.5858 102.739 13.0772 103.21 12.6785C103.682 12.2798 104.251 12.0805 104.919 12.0805C105.349 12.0805 105.673 12.1355 105.893 12.242C106.11 12.3465 106.276 12.451 106.396 12.5555C106.401 12.5594 106.402 12.5657 106.405 12.5709C106.411 12.5799 106.422 12.5712 106.423 12.561C106.47 12.2498 106.518 12.0014 106.565 11.8193C106.613 11.6337 106.661 11.4791 106.71 11.345C106.83 11.0941 107.02 10.9223 107.281 10.8261C107.364 10.802 107.461 10.7917 107.567 10.7917C107.733 10.7917 107.888 10.8226 108.032 10.881C108.198 10.9532 108.322 11.0288 108.397 11.1113C108.473 11.1938 108.514 11.321 108.514 11.4859C108.514 11.8193 108.483 12.1596 108.425 12.5101C108.366 12.8607 108.294 13.2078 108.211 13.5549C108.139 13.8642 108.08 14.1667 108.032 14.4657L107.888 15.428C107.767 16.3663 107.709 17.308 107.709 18.2462L107.726 19.0504C107.726 19.1226 107.726 19.2017 107.715 19.291C107.71 19.3579 107.705 19.4094 107.697 19.4454C107.692 19.4664 107.689 19.4822 107.682 19.5025C107.677 19.5185 107.67 19.5401 107.667 19.5567C107.655 19.6423 107.625 19.7167 107.581 19.7825C107.533 19.8539 107.459 19.9018 107.354 19.9261C107.353 19.9262 107.353 19.9268 107.354 19.9268ZM103.939 18.4095C103.94 18.4106 103.941 18.4112 103.943 18.4112C104.131 18.4102 104.299 18.2968 104.44 18.0709C104.895 17.0949 105.36 15.9607 105.835 14.665C105.942 14.3901 106.045 14.1254 106.138 13.8608C106.186 13.7646 106.21 13.6546 106.21 13.5205C106.21 13.414 106.172 13.2903 106.093 13.1562C106.014 13.0188 105.862 12.95 105.639 12.95C105.449 12.95 105.246 13.005 105.029 13.1184C104.815 13.2318 104.653 13.3487 104.547 13.4656C103.854 14.0945 103.451 14.8644 103.331 15.7682C103.234 16.1497 103.186 16.5587 103.186 16.9986C103.186 17.3561 103.252 17.6791 103.383 17.9713C103.513 18.2624 103.698 18.4067 103.935 18.4077C103.936 18.4077 103.938 18.4084 103.939 18.4095Z" fill="#AD00DF"/>
<path d="M111.676 11.7387C111.678 11.7375 111.681 11.7377 111.683 11.7392C111.87 11.8695 111.966 12.0406 111.966 12.2558C111.966 12.2787 111.963 12.3014 111.959 12.3239C111.94 12.4336 111.931 12.5464 111.931 12.6648C111.931 12.7256 111.91 12.7847 111.902 12.845C111.836 13.3626 111.788 13.8924 111.752 14.4313C111.752 14.4794 111.745 14.5276 111.735 14.5757C111.638 15.7648 111.59 16.9437 111.59 18.1088V18.6621C111.59 18.7343 111.59 18.8271 111.58 18.937C111.569 19.1111 111.543 19.2904 111.467 19.4474C111.464 19.455 111.46 19.4625 111.456 19.4697C111.414 19.5454 111.332 19.5969 111.215 19.621C111.166 19.6313 111.118 19.6382 111.07 19.6382C110.998 19.6382 110.922 19.6244 110.839 19.6038C110.65 19.5694 110.478 19.4972 110.33 19.3907C110.181 19.2842 110.082 19.1604 110.033 19.0161C109.927 18.4696 109.865 17.9266 109.854 17.3939V17.0914C109.854 16.7237 109.865 16.325 109.889 15.8954C109.899 15.7992 109.906 15.6995 109.906 15.593C109.916 15.4624 109.93 15.3249 109.94 15.184C109.951 15.0397 109.964 14.9056 109.975 14.775C109.999 14.61 110.016 14.3935 110.03 14.1323C110.04 13.7886 110.068 13.4346 110.109 13.0703C110.15 12.706 110.219 12.4242 110.316 12.2214C110.529 11.8159 110.822 11.6165 111.191 11.6165C111.355 11.6165 111.516 11.6572 111.67 11.7386C111.672 11.7396 111.674 11.7397 111.676 11.7387ZM111.377 10.2934C111.163 10.2934 111.011 10.2556 110.929 10.1765C110.846 10.1009 110.805 9.99436 110.805 9.86376C110.805 9.7091 110.891 9.5785 111.063 9.47196C111.368 9.28319 111.862 9.2995 111.981 9.63788C111.996 9.68035 112.003 9.72586 112.003 9.7744C112.003 9.905 111.945 10.0253 111.835 10.1318C111.721 10.2384 111.569 10.2934 111.38 10.2934H111.377Z" fill="#AD00DF"/>
<defs>
<linearGradient id="paint0_linear_288_778" x1="2.18018" y1="23.7658" x2="25.0836" y2="-15.2406" gradientUnits="userSpaceOnUse">
<stop stop-color="#FFDC2A"/>
<stop offset="0.66" stop-color="#AD00DF"/>
</linearGradient>
<linearGradient id="paint1_linear_288_778" x1="0" y1="13.9983" x2="20.2864" y2="13.9983" gradientUnits="userSpaceOnUse">
<stop stop-color="#FFDC2A"/>
<stop offset="0.66" stop-color="#AD00DF"/>
</linearGradient>
</defs>
</svg>
