<svg width="25" height="24" viewBox="0 0 25 24" fill="none" xmlns="http://www.w3.org/2000/svg">
<path d="M19 11.9171C19.0028 12.9912 18.7489 14.0508 18.2588 15.0095C17.6777 16.1584 16.7845 17.1247 15.6791 17.8002C14.5736 18.4757 13.2997 18.8338 12 18.8343C10.9131 18.8371 9.84081 18.5861 8.8706 18.1019L5 18.5L5.7412 15.0095C5.25114 14.0508 4.99719 12.9912 5.00002 11.9171C5.00053 10.6328 5.36288 9.37396 6.04649 8.28163C6.73011 7.18929 7.70799 6.3066 8.8706 5.73242C9.84081 5.24817 10.9131 4.99722 12 5.00002H12.4118C14.1283 5.0936 15.7496 5.80954 16.9652 7.01076C18.1808 8.21197 18.9053 9.81406 19 11.5103V11.9171Z" stroke="#333333" stroke-width="1.5" stroke-linecap="round" stroke-linejoin="round"/>
<path d="M19 11.9171C19.0028 12.9912 18.7489 14.0508 18.2588 15.0095C17.6777 16.1584 16.7845 17.1247 15.6791 17.8002C14.5736 18.4757 13.2997 18.8338 12 18.8343C10.9131 18.8371 9.84081 18.5861 8.8706 18.1019L5 18.5L5.7412 15.0095C5.25114 14.0508 4.99719 12.9912 5.00002 11.9171C5.00053 10.6328 5.36288 9.37396 6.04649 8.28163C6.73011 7.18929 7.70799 6.3066 8.8706 5.73242C9.84081 5.24817 10.9131 4.99722 12 5.00002H12.4118C14.1283 5.0936 15.7496 5.80954 16.9652 7.01076C18.1808 8.21197 18.9053 9.81406 19 11.5103V11.9171Z" stroke="black" stroke-opacity="0.2" stroke-width="1.5" stroke-linecap="round" stroke-linejoin="round"/>
<circle cx="12" cy="12" r="3" fill="#333333"/>
<circle cx="12" cy="12" r="3" fill="black" fill-opacity="0.2"/>
</svg>
