<svg width="24" height="24" viewBox="0 0 24 24" fill="none" xmlns="http://www.w3.org/2000/svg">
<path d="M15.8456 11.2307C15.8456 12.2508 15.4404 13.2291 14.7191 13.9504C13.9978 14.6717 13.0195 15.0769 11.9995 15.0769C10.9794 15.0769 10.0011 14.6717 9.27983 13.9504C8.55854 13.2291 8.15332 12.2508 8.15332 11.2307V5.84614C8.15332 4.82608 8.55854 3.8478 9.27983 3.12651C10.0011 2.40522 10.9794 2 11.9995 2C13.0195 2 13.9978 2.40522 14.7191 3.12651C15.4404 3.8478 15.8456 4.82608 15.8456 5.84614V11.2307Z" stroke="#AD00DF" stroke-width="1.8" stroke-linecap="round" stroke-linejoin="round"/>
<path d="M19.6922 12C19.6942 12.9097 19.5166 13.8109 19.1694 14.6517C18.8222 15.4926 18.3123 16.2566 17.669 16.8999C17.0257 17.5431 16.2617 18.053 15.4209 18.4002C14.58 18.7474 13.6789 18.9251 12.7692 18.9231H11.2307C10.321 18.9251 9.41982 18.7474 8.57896 18.4002C7.7381 18.053 6.9741 17.5431 6.33083 16.8999C5.68756 16.2566 5.17769 15.4926 4.83049 14.6517C4.48329 13.8109 4.30561 12.9097 4.30763 12M11.9999 18.9231V22" stroke="#AD00DF" stroke-width="1.8" stroke-linecap="round" stroke-linejoin="round"/>
</svg>
