<svg width="18" height="20" viewBox="0 0 18 20" fill="none" xmlns="http://www.w3.org/2000/svg">
<path fill-rule="evenodd" clip-rule="evenodd" d="M4.54526 1.84523C5.72673 0.663748 7.32915 0 9 0C10.6708 0 12.2733 0.663748 13.4547 1.84523C14.6362 3.02671 15.3 4.62914 15.3 6.3C15.3 9.31739 15.9453 11.1912 16.54 12.2815C16.8387 12.829 17.1294 13.1881 17.3314 13.4013C17.4326 13.5082 17.5122 13.579 17.5601 13.619C17.584 13.6389 17.6001 13.6512 17.607 13.6563C17.6081 13.6571 17.609 13.6578 17.6096 13.6582C17.9322 13.8799 18.075 14.2853 17.9613 14.6608C17.8464 15.0404 17.4965 15.3 17.0999 15.3H0.900063C0.503466 15.3 0.153615 15.0404 0.0386869 14.6608C-0.0750205 14.2853 0.0677537 13.8799 0.390388 13.6582C0.391019 13.6578 0.391878 13.6571 0.39296 13.6563C0.399889 13.6512 0.415957 13.6389 0.439916 13.619C0.48781 13.579 0.567355 13.5082 0.668582 13.4013C0.870566 13.1881 1.16134 12.829 1.45995 12.2815C2.05469 11.1912 2.70005 9.31739 2.70005 6.3C2.70005 4.62914 3.36379 3.02671 4.54526 1.84523ZM0.399485 13.6521C0.399556 13.652 0.399627 13.652 0.399698 13.6519C0.399694 13.6519 0.39969 13.6519 0.399686 13.6519L0.399485 13.6521ZM2.83444 13.5H15.1656C15.0971 13.3878 15.0283 13.269 14.9598 13.1435C14.2046 11.7588 13.5 9.58261 13.5 6.3C13.5 5.10653 13.0259 3.96193 12.182 3.11802C11.338 2.27411 10.1935 1.8 9 1.8C7.80654 1.8 6.66195 2.27411 5.81804 3.11802C4.97414 3.96193 4.50003 5.10653 4.50003 6.3C4.50003 9.58261 3.7954 11.7588 3.04015 13.1435C2.97166 13.269 2.90292 13.3878 2.83444 13.5Z" fill="currentColor"/>
<path fill-rule="evenodd" clip-rule="evenodd" d="M6.79294 17.2217C7.26538 16.972 7.87055 17.1185 8.14461 17.549C8.23154 17.6855 8.35632 17.7988 8.50645 17.8776C8.65658 17.9564 8.82679 17.9979 9.00005 17.9979C9.1733 17.9979 9.34352 17.9564 9.49365 17.8776C9.64378 17.7988 9.76856 17.6855 9.85549 17.549C10.1296 17.1185 10.7347 16.972 11.2072 17.2217C11.6796 17.4714 11.8404 18.0227 11.5664 18.4532C11.3056 18.8628 10.9312 19.2028 10.4808 19.4392C10.0305 19.6755 9.51981 19.7999 9.00005 19.7999C8.48029 19.7999 7.96965 19.6755 7.51925 19.4392C7.06886 19.2028 6.69452 18.8628 6.43372 18.4532C6.15966 18.0227 6.32049 17.4714 6.79294 17.2217Z" fill="currentColor"/>
</svg>
