<svg width="16" height="16" viewBox="0 0 16 16" fill="none" xmlns="http://www.w3.org/2000/svg">
<path d="M13.8326 7.99996L14.5686 6.72796C14.6571 6.57492 14.6811 6.39301 14.6355 6.22224C14.5898 6.05147 14.4783 5.90581 14.3253 5.81729L13.0519 5.08129V3.61462C13.0519 3.43781 12.9817 3.26824 12.8567 3.14322C12.7316 3.01819 12.5621 2.94796 12.3853 2.94796H10.9193L10.1839 1.67529C10.0951 1.52257 9.94974 1.41096 9.77926 1.36462C9.6947 1.3417 9.60644 1.33579 9.51958 1.34723C9.43272 1.35868 9.34899 1.38725 9.27326 1.43129L7.99993 2.16729L6.72659 1.43062C6.57347 1.34222 6.39151 1.31827 6.22073 1.36402C6.04994 1.40978 5.90433 1.52151 5.81593 1.67462L5.07993 2.94796H3.61393C3.43711 2.94796 3.26755 3.01819 3.14252 3.14322C3.0175 3.26824 2.94726 3.43781 2.94726 3.61462V5.08062L1.67393 5.81662C1.59795 5.86033 1.53135 5.91861 1.47797 5.98813C1.42458 6.05765 1.38546 6.13703 1.36285 6.22172C1.34024 6.3064 1.33458 6.39472 1.34621 6.4816C1.35783 6.56847 1.38651 6.6522 1.43059 6.72796L2.16659 7.99996L1.43059 9.27196C1.34258 9.42514 1.31871 9.6069 1.36416 9.77762C1.40962 9.94833 1.52073 10.0942 1.67326 10.1833L2.94659 10.9193V12.3853C2.94659 12.5621 3.01683 12.7317 3.14185 12.8567C3.26688 12.9817 3.43645 13.052 3.61326 13.052H5.07993L5.81593 14.3253C5.87495 14.4262 5.95922 14.51 6.06044 14.5684C6.16167 14.6269 6.27637 14.658 6.39326 14.6586C6.50926 14.6586 6.62459 14.628 6.72726 14.5686L7.99926 13.8326L9.27259 14.5686C9.42567 14.6569 9.60752 14.6809 9.77824 14.6352C9.94896 14.5896 10.0946 14.4782 10.1833 14.3253L10.9186 13.052H12.3846C12.5614 13.052 12.731 12.9817 12.856 12.8567C12.981 12.7317 13.0513 12.5621 13.0513 12.3853V10.9193L14.3246 10.1833C14.4004 10.1395 14.4669 10.0811 14.5202 10.0116C14.5735 9.94204 14.6125 9.86269 14.6351 9.77805C14.6577 9.69342 14.6634 9.60516 14.6519 9.51832C14.6404 9.43148 14.6118 9.34776 14.5679 9.27196L13.8326 7.99996ZM6.33259 4.65996C6.5979 4.66005 6.8523 4.76552 7.03984 4.95318C7.22737 5.14084 7.33268 5.39532 7.33259 5.66062C7.3325 5.92593 7.22703 6.18033 7.03937 6.36787C6.8517 6.5554 6.59723 6.66071 6.33193 6.66062C6.06662 6.66054 5.81222 6.55506 5.62468 6.3674C5.43714 6.17974 5.33184 5.92526 5.33193 5.65996C5.33201 5.39465 5.43749 5.14025 5.62515 4.95271C5.81281 4.76518 6.06729 4.65987 6.33259 4.65996ZM6.53259 11.06L5.46593 10.2606L9.46593 4.92729L10.5326 5.72662L6.53259 11.06ZM9.66593 11.3266C9.53456 11.3266 9.40449 11.3007 9.28314 11.2503C9.16179 11.2 9.05154 11.1263 8.95868 11.0334C8.86582 10.9405 8.79218 10.8302 8.74194 10.7088C8.69171 10.5874 8.66588 10.4573 8.66593 10.326C8.66597 10.1946 8.69189 10.0645 8.7422 9.94317C8.79251 9.82182 8.86623 9.71157 8.95915 9.61871C9.05207 9.52585 9.16237 9.45221 9.28376 9.40197C9.40514 9.35174 9.53523 9.32591 9.66659 9.32596C9.9319 9.32605 10.1863 9.43152 10.3738 9.61918C10.5614 9.80684 10.6667 10.0613 10.6666 10.3266C10.6665 10.5919 10.561 10.8463 10.3734 11.0339C10.1857 11.2214 9.93123 11.3267 9.66593 11.3266Z" fill="#AD00DF"/>
</svg>
