<svg width="24" height="24" viewBox="0 0 24 24" fill="none" xmlns="http://www.w3.org/2000/svg">
<path d="M17.4768 8.61462C17.1511 8.24369 16.8164 7.87276 16.4635 7.51993L16.2012 7.27566L16.3278 7.16709C16.7702 6.78731 17.0855 6.28095 17.2311 5.71634C17.3767 5.15174 17.3456 4.55606 17.142 4.00968C16.847 3.39355 16.3799 2.87602 15.7972 2.51962C15.2145 2.16321 14.541 1.98317 13.8582 2.00124V3.81064C14.18 3.80616 14.4973 3.88764 14.7771 4.04668C15.057 4.20571 15.2894 4.43654 15.4503 4.71535C15.6041 5.07723 15.4503 5.4753 15.0252 5.90051C14.9618 5.97288 14.8895 6.01812 14.8261 6.08145C12.1122 3.90111 9.13588 2.67072 7.6794 4.12729C7.52683 4.28326 7.40146 4.46368 7.30849 4.66107V4.75154L7.14565 5.23103L3.15615 17.0826C3.00524 17.5293 2.96291 18.0054 3.03266 18.4716C3.10241 18.9379 3.28222 19.3808 3.55722 19.7637C3.83222 20.1466 4.19448 20.4584 4.61399 20.6734C5.03351 20.8884 5.49821 21.0004 5.96961 21C6.2774 20.997 6.58277 20.9451 6.87426 20.8462L19.2861 16.7298C19.4386 16.673 19.573 16.5761 19.6751 16.4493L19.865 16.2865C21.1587 14.9837 20.3264 12.4777 18.5895 10.044C19.6208 9.44211 20.8084 9.16174 22 9.23886V7.42946C20.4054 7.34172 18.8235 7.75621 17.4768 8.61462ZM6.34956 19.1273C6.14421 19.1952 5.92401 19.2048 5.71355 19.1549C5.50308 19.1049 5.31063 18.9975 5.15768 18.8445C5.00473 18.6916 4.8973 18.4991 4.84738 18.2887C4.79746 18.0782 4.80702 17.858 4.87498 17.6526L6.10531 13.9433C6.98334 15.6178 8.33252 16.9985 9.98625 17.915L6.34956 19.1273ZM12.6821 17.0193C11.3149 16.6572 10.0677 15.9402 9.06689 14.9409C8.06603 13.9415 7.34706 12.6954 6.98282 11.3287L7.88747 8.61462L7.94175 8.69604C8.04126 8.89507 8.16791 9.10316 8.29456 9.31124C8.42121 9.51932 8.4393 9.5736 8.52977 9.70931C8.62023 9.84501 8.8283 10.1436 8.99114 10.3697C9.15398 10.5959 9.16302 10.6231 9.26253 10.7497C9.36205 10.8764 9.65153 11.2473 9.8596 11.4916L10.122 11.8082C10.4295 12.1611 10.7552 12.5048 11.099 12.8577C11.4427 13.2105 11.7141 13.4367 12.0036 13.7624L12.3022 14.0157L13.0078 14.5857L13.3425 14.839C13.5958 15.0199 13.8401 15.2009 14.0934 15.3637L14.3738 15.5446C14.6995 15.7437 15.0252 15.9337 15.3418 16.0965H15.387L12.6821 17.0193ZM18.5714 15.0018H18.5171C17.8929 15.3456 15.2965 14.4861 12.3745 11.5549C12.0669 11.2473 11.7775 10.9488 11.5151 10.6502L11.2528 10.3336L10.7733 9.75454L10.511 9.39266C10.3933 9.22077 10.2667 9.05792 10.1581 8.89507L9.92293 8.5151L9.66058 8.08989C9.58821 7.96323 9.53393 7.84562 9.4706 7.72801C9.40728 7.6104 9.33491 7.49278 9.28063 7.36613C9.23211 7.26012 9.18982 7.15137 9.15398 7.04043C9.10874 6.92282 9.05446 6.80521 9.01828 6.69665C8.98209 6.58808 8.97305 6.52475 8.94591 6.41619C8.91877 6.30762 8.90067 6.21715 8.88258 6.12668C8.87807 6.04834 8.87807 5.9698 8.88258 5.89146C8.87386 5.81935 8.87386 5.74645 8.88258 5.67433L8.98209 5.39387C9.30777 5.06818 10.9995 5.39387 13.2611 7.11281C12.8777 7.28584 12.4679 7.3929 12.0489 7.42946V9.23886C13.0098 9.18358 13.9421 8.89143 14.7628 8.38844L15.197 8.80461C15.577 9.18458 15.9298 9.5736 16.2645 9.96262C15.7467 10.8991 15.5557 11.9814 15.7217 13.0386L17.531 12.6858C17.4777 12.3501 17.4777 12.0082 17.531 11.6725C17.8071 12.0912 18.0521 12.5297 18.2638 12.9843C18.7704 14.1785 18.7342 14.848 18.5714 15.0018Z" fill="currentColor"/>
</svg>
