<svg width="25" height="24" viewBox="0 0 25 24" fill="none" xmlns="http://www.w3.org/2000/svg">
<path d="M14.8 15.9207H14.8H14.8ZM14.8 15.9207V15.9195M14.8 15.9207V15.9195M14.8 15.9195V15.75C14.8 15.14 14.5577 14.555 14.1263 14.1237C13.695 13.6923 13.11 13.45 12.5 13.45H4.25C3.64 13.45 3.05499 13.6923 2.62365 14.1237C2.19232 14.555 1.95 15.14 1.95 15.75V15.8962H1.94961L1.95039 15.9025L1.95075 15.9054V15.9195H1.95073L1.95077 15.921L1.95227 15.9712L1.95223 15.9712L1.95237 15.9733C1.96854 16.2036 2.00568 16.4321 2.06333 16.6557L2.0634 16.656C2.21015 17.2124 2.46833 17.7331 2.82232 18.1867C3.71222 19.3282 5.37852 20.3 8.375 20.3C11.3714 20.3 13.0385 19.3282 13.9277 18.1867C14.2814 17.7331 14.5393 17.2123 14.6859 16.656L14.6859 16.6559M14.8 15.9195L14.6859 16.6559M14.6859 16.6559C14.7413 16.4448 14.7694 16.2662 14.7847 16.1346L14.6859 16.6559ZM15.0321 18.3961L15.0652 18.3427C15.3286 17.9176 15.5293 17.4567 15.661 16.9743L15.6746 16.9244L15.724 16.9397C16.2224 17.094 16.8802 17.2 17.75 17.2C19.8391 17.2 20.7089 16.5899 21.0771 16.1549L21.0771 16.1549C21.2719 15.9251 21.3649 15.7009 21.4099 15.5415C21.4099 15.5415 21.4099 15.5415 21.4099 15.5414L15.0321 18.3961ZM15.0321 18.3961L15.0917 18.4163M15.0321 18.3961L15.0917 18.4163M15.0917 18.4163C15.7953 18.6554 16.6686 18.8 17.75 18.8C20.1608 18.8 21.541 18.0819 22.2979 17.1886C22.6656 16.7547 22.8538 16.3145 22.9491 15.9758M15.0917 18.4163L23.0477 15.4192M23.0477 15.4192L23.0476 15.4192C23.0335 15.6076 23.0005 15.7941 22.9491 15.9758M23.0477 15.4192L23.0477 15.4169M23.0477 15.4192L23.0477 15.4169M22.9491 15.9758L22.901 15.9623L22.9491 15.9758C22.9491 15.9758 22.9491 15.9758 22.9491 15.9758ZM23.0477 15.4169L23.0484 15.3908L23.0485 15.3899L23.0492 15.3743L23.0492 15.3743M23.0477 15.4169L23.0492 15.3743M23.0492 15.3743V15.372M23.0492 15.3743V15.372M23.0492 15.372V15.3435C23.0494 15.0949 23.0005 14.8487 22.9054 14.619C22.8103 14.3892 22.6709 14.1805 22.4951 14.0046C22.3194 13.8288 22.1107 13.6893 21.881 13.5942C21.6513 13.499 21.4051 13.45 21.1565 13.45H15.0148H14.9029M23.0492 15.372L14.9029 13.45M14.9029 13.45L14.9775 13.5333M14.9029 13.45L14.9775 13.5333M14.9775 13.5333C15.347 13.9464 15.6152 14.4518 15.7422 15.0111L15.7511 15.05M14.9775 13.5333L15.7511 15.05M15.7511 15.05H15.791M15.7511 15.05H15.791M15.791 15.05H21.1565M15.791 15.05H21.1565M21.1565 15.05C21.3159 15.05 21.4447 15.1761 21.4499 15.3329M21.1565 15.05L21.4499 15.3329M21.4499 15.3329L21.4473 15.3617L21.4499 15.3329ZM3.55645 15.9575L3.55632 15.9564C3.55179 15.9222 3.55 15.9018 3.55 15.8925V15.8835V15.75C3.55 15.5643 3.62375 15.3863 3.75503 15.255C3.8863 15.1237 4.06435 15.05 4.25 15.05H12.5007C12.6864 15.05 12.8644 15.1237 12.9957 15.255C13.127 15.3863 13.2007 15.5643 13.2007 15.75V15.8814L13.2002 15.8882C13.2002 15.8882 13.2002 15.8882 13.2002 15.8883C13.1895 16.0115 13.1684 16.1337 13.1371 16.2534C13.0458 16.5989 12.8856 16.9223 12.6661 17.2043C12.1497 17.8666 11.0035 18.7 8.375 18.7C5.74656 18.7 4.60106 17.8666 4.08393 17.2035C3.81292 16.8552 3.67829 16.5092 3.61216 16.2535C3.57909 16.1256 3.56372 16.023 3.55645 15.9575ZM5.8 7.875C5.8 7.19207 6.07129 6.53711 6.5542 6.0542C7.03711 5.57129 7.69207 5.3 8.375 5.3C9.05793 5.3 9.71289 5.57129 10.1958 6.0542C10.6787 6.53711 10.95 7.19207 10.95 7.875C10.95 8.55793 10.6787 9.21289 10.1958 9.6958C9.71289 10.1787 9.05793 10.45 8.375 10.45C7.69207 10.45 7.03711 10.1787 6.5542 9.6958C6.07129 9.21289 5.8 8.55793 5.8 7.875ZM8.375 3.7C7.26772 3.7 6.20579 4.13986 5.42283 4.92283C4.63986 5.70579 4.2 6.76772 4.2 7.875C4.2 8.98228 4.63986 10.0442 5.42283 10.8272C6.20579 11.6101 7.26772 12.05 8.375 12.05C9.48228 12.05 10.5442 11.6101 11.3272 10.8272C12.1101 10.0442 12.55 8.98228 12.55 7.875C12.55 6.76772 12.1101 5.70579 11.3272 4.92283C10.5442 4.13986 9.48228 3.7 8.375 3.7ZM16.3 9C16.3 8.61544 16.4528 8.24662 16.7247 7.9747C16.9966 7.70277 17.3654 7.55 17.75 7.55C18.1346 7.55 18.5034 7.70277 18.7753 7.9747C19.0472 8.24662 19.2 8.61544 19.2 9C19.2 9.38456 19.0472 9.75338 18.7753 10.0253C18.5034 10.2972 18.1346 10.45 17.75 10.45C17.3654 10.45 16.9966 10.2972 16.7247 10.0253C16.4528 9.75338 16.3 9.38456 16.3 9ZM17.75 5.95C16.9411 5.95 16.1653 6.27134 15.5933 6.84332C15.0213 7.41531 14.7 8.19109 14.7 9C14.7 9.80891 15.0213 10.5847 15.5933 11.1567C16.1653 11.7287 16.9411 12.05 17.75 12.05C18.5589 12.05 19.3347 11.7287 19.9067 11.1567C20.4787 10.5847 20.8 9.80891 20.8 9C20.8 8.19109 20.4787 7.41531 19.9067 6.84332C19.3347 6.27134 18.5589 5.95 17.75 5.95Z" fill="#333333"/>
<path d="M14.8 15.9207H14.8H14.8ZM14.8 15.9207V15.9195M14.8 15.9207V15.9195M14.8 15.9195V15.75C14.8 15.14 14.5577 14.555 14.1263 14.1237C13.695 13.6923 13.11 13.45 12.5 13.45H4.25C3.64 13.45 3.05499 13.6923 2.62365 14.1237C2.19232 14.555 1.95 15.14 1.95 15.75V15.8962H1.94961L1.95039 15.9025L1.95075 15.9054V15.9195H1.95073L1.95077 15.921L1.95227 15.9712L1.95223 15.9712L1.95237 15.9733C1.96854 16.2036 2.00568 16.4321 2.06333 16.6557L2.0634 16.656C2.21015 17.2124 2.46833 17.7331 2.82232 18.1867C3.71222 19.3282 5.37852 20.3 8.375 20.3C11.3714 20.3 13.0385 19.3282 13.9277 18.1867C14.2814 17.7331 14.5393 17.2123 14.6859 16.656L14.6859 16.6559M14.8 15.9195L14.6859 16.6559M14.6859 16.6559C14.7413 16.4448 14.7694 16.2662 14.7847 16.1346L14.6859 16.6559ZM15.0321 18.3961L15.0652 18.3427C15.3286 17.9176 15.5293 17.4567 15.661 16.9743L15.6746 16.9244L15.724 16.9397C16.2224 17.094 16.8802 17.2 17.75 17.2C19.8391 17.2 20.7089 16.5899 21.0771 16.1549L21.0771 16.1549C21.2719 15.9251 21.3649 15.7009 21.4099 15.5415C21.4099 15.5415 21.4099 15.5415 21.4099 15.5414L15.0321 18.3961ZM15.0321 18.3961L15.0917 18.4163M15.0321 18.3961L15.0917 18.4163M15.0917 18.4163C15.7953 18.6554 16.6686 18.8 17.75 18.8C20.1608 18.8 21.541 18.0819 22.2979 17.1886C22.6656 16.7547 22.8538 16.3145 22.9491 15.9758M15.0917 18.4163L23.0477 15.4192M23.0477 15.4192L23.0476 15.4192C23.0335 15.6076 23.0005 15.7941 22.9491 15.9758M23.0477 15.4192L23.0477 15.4169M23.0477 15.4192L23.0477 15.4169M22.9491 15.9758L22.901 15.9623L22.9491 15.9758C22.9491 15.9758 22.9491 15.9758 22.9491 15.9758ZM23.0477 15.4169L23.0484 15.3908L23.0485 15.3899L23.0492 15.3743L23.0492 15.3743M23.0477 15.4169L23.0492 15.3743M23.0492 15.3743V15.372M23.0492 15.3743V15.372M23.0492 15.372V15.3435C23.0494 15.0949 23.0005 14.8487 22.9054 14.619C22.8103 14.3892 22.6709 14.1805 22.4951 14.0046C22.3194 13.8288 22.1107 13.6893 21.881 13.5942C21.6513 13.499 21.4051 13.45 21.1565 13.45H15.0148H14.9029M23.0492 15.372L14.9029 13.45M14.9029 13.45L14.9775 13.5333M14.9029 13.45L14.9775 13.5333M14.9775 13.5333C15.347 13.9464 15.6152 14.4518 15.7422 15.0111L15.7511 15.05M14.9775 13.5333L15.7511 15.05M15.7511 15.05H15.791M15.7511 15.05H15.791M15.791 15.05H21.1565M15.791 15.05H21.1565M21.1565 15.05C21.3159 15.05 21.4447 15.1761 21.4499 15.3329M21.1565 15.05L21.4499 15.3329M21.4499 15.3329L21.4473 15.3617L21.4499 15.3329ZM3.55645 15.9575L3.55632 15.9564C3.55179 15.9222 3.55 15.9018 3.55 15.8925V15.8835V15.75C3.55 15.5643 3.62375 15.3863 3.75503 15.255C3.8863 15.1237 4.06435 15.05 4.25 15.05H12.5007C12.6864 15.05 12.8644 15.1237 12.9957 15.255C13.127 15.3863 13.2007 15.5643 13.2007 15.75V15.8814L13.2002 15.8882C13.2002 15.8882 13.2002 15.8882 13.2002 15.8883C13.1895 16.0115 13.1684 16.1337 13.1371 16.2534C13.0458 16.5989 12.8856 16.9223 12.6661 17.2043C12.1497 17.8666 11.0035 18.7 8.375 18.7C5.74656 18.7 4.60106 17.8666 4.08393 17.2035C3.81292 16.8552 3.67829 16.5092 3.61216 16.2535C3.57909 16.1256 3.56372 16.023 3.55645 15.9575ZM5.8 7.875C5.8 7.19207 6.07129 6.53711 6.5542 6.0542C7.03711 5.57129 7.69207 5.3 8.375 5.3C9.05793 5.3 9.71289 5.57129 10.1958 6.0542C10.6787 6.53711 10.95 7.19207 10.95 7.875C10.95 8.55793 10.6787 9.21289 10.1958 9.6958C9.71289 10.1787 9.05793 10.45 8.375 10.45C7.69207 10.45 7.03711 10.1787 6.5542 9.6958C6.07129 9.21289 5.8 8.55793 5.8 7.875ZM8.375 3.7C7.26772 3.7 6.20579 4.13986 5.42283 4.92283C4.63986 5.70579 4.2 6.76772 4.2 7.875C4.2 8.98228 4.63986 10.0442 5.42283 10.8272C6.20579 11.6101 7.26772 12.05 8.375 12.05C9.48228 12.05 10.5442 11.6101 11.3272 10.8272C12.1101 10.0442 12.55 8.98228 12.55 7.875C12.55 6.76772 12.1101 5.70579 11.3272 4.92283C10.5442 4.13986 9.48228 3.7 8.375 3.7ZM16.3 9C16.3 8.61544 16.4528 8.24662 16.7247 7.9747C16.9966 7.70277 17.3654 7.55 17.75 7.55C18.1346 7.55 18.5034 7.70277 18.7753 7.9747C19.0472 8.24662 19.2 8.61544 19.2 9C19.2 9.38456 19.0472 9.75338 18.7753 10.0253C18.5034 10.2972 18.1346 10.45 17.75 10.45C17.3654 10.45 16.9966 10.2972 16.7247 10.0253C16.4528 9.75338 16.3 9.38456 16.3 9ZM17.75 5.95C16.9411 5.95 16.1653 6.27134 15.5933 6.84332C15.0213 7.41531 14.7 8.19109 14.7 9C14.7 9.80891 15.0213 10.5847 15.5933 11.1567C16.1653 11.7287 16.9411 12.05 17.75 12.05C18.5589 12.05 19.3347 11.7287 19.9067 11.1567C20.4787 10.5847 20.8 9.80891 20.8 9C20.8 8.19109 20.4787 7.41531 19.9067 6.84332C19.3347 6.27134 18.5589 5.95 17.75 5.95Z" fill="black" fill-opacity="0.2"/>
<path d="M14.8 15.9207H14.8H14.8ZM14.8 15.9207V15.9195M14.8 15.9207V15.9195M14.8 15.9195V15.75C14.8 15.14 14.5577 14.555 14.1263 14.1237C13.695 13.6923 13.11 13.45 12.5 13.45H4.25C3.64 13.45 3.05499 13.6923 2.62365 14.1237C2.19232 14.555 1.95 15.14 1.95 15.75V15.8962H1.94961L1.95039 15.9025L1.95075 15.9054V15.9195H1.95073L1.95077 15.921L1.95227 15.9712L1.95223 15.9712L1.95237 15.9733C1.96854 16.2036 2.00568 16.4321 2.06333 16.6557L2.0634 16.656C2.21015 17.2124 2.46833 17.7331 2.82232 18.1867C3.71222 19.3282 5.37852 20.3 8.375 20.3C11.3714 20.3 13.0385 19.3282 13.9277 18.1867C14.2814 17.7331 14.5393 17.2123 14.6859 16.656L14.6859 16.6559M14.8 15.9195L14.6859 16.6559M14.6859 16.6559C14.7413 16.4448 14.7694 16.2662 14.7847 16.1346L14.6859 16.6559ZM15.0321 18.3961L15.0652 18.3427C15.3286 17.9176 15.5293 17.4567 15.661 16.9743L15.6746 16.9244L15.724 16.9397C16.2224 17.094 16.8802 17.2 17.75 17.2C19.8391 17.2 20.7089 16.5899 21.0771 16.1549L21.0771 16.1549C21.2719 15.9251 21.3649 15.7009 21.4099 15.5415C21.4099 15.5415 21.4099 15.5415 21.4099 15.5414L15.0321 18.3961ZM15.0321 18.3961L15.0917 18.4163M15.0321 18.3961L15.0917 18.4163M15.0917 18.4163C15.7953 18.6554 16.6686 18.8 17.75 18.8C20.1608 18.8 21.541 18.0819 22.2979 17.1886C22.6656 16.7547 22.8538 16.3145 22.9491 15.9758M15.0917 18.4163L23.0477 15.4192M23.0477 15.4192L23.0476 15.4192C23.0335 15.6076 23.0005 15.7941 22.9491 15.9758M23.0477 15.4192L23.0477 15.4169M23.0477 15.4192L23.0477 15.4169M22.9491 15.9758L22.901 15.9623L22.9491 15.9758C22.9491 15.9758 22.9491 15.9758 22.9491 15.9758ZM23.0477 15.4169L23.0484 15.3908L23.0485 15.3899L23.0492 15.3743L23.0492 15.3743M23.0477 15.4169L23.0492 15.3743M23.0492 15.3743V15.372M23.0492 15.3743V15.372M23.0492 15.372V15.3435C23.0494 15.0949 23.0005 14.8487 22.9054 14.619C22.8103 14.3892 22.6709 14.1805 22.4951 14.0046C22.3194 13.8288 22.1107 13.6893 21.881 13.5942C21.6513 13.499 21.4051 13.45 21.1565 13.45H15.0148H14.9029M23.0492 15.372L14.9029 13.45M14.9029 13.45L14.9775 13.5333M14.9029 13.45L14.9775 13.5333M14.9775 13.5333C15.347 13.9464 15.6152 14.4518 15.7422 15.0111L15.7511 15.05M14.9775 13.5333L15.7511 15.05M15.7511 15.05H15.791M15.7511 15.05H15.791M15.791 15.05H21.1565M15.791 15.05H21.1565M21.1565 15.05C21.3159 15.05 21.4447 15.1761 21.4499 15.3329M21.1565 15.05L21.4499 15.3329M21.4499 15.3329L21.4473 15.3617L21.4499 15.3329ZM3.55645 15.9575L3.55632 15.9564C3.55179 15.9222 3.55 15.9018 3.55 15.8925V15.8835V15.75C3.55 15.5643 3.62375 15.3863 3.75503 15.255C3.8863 15.1237 4.06435 15.05 4.25 15.05H12.5007C12.6864 15.05 12.8644 15.1237 12.9957 15.255C13.127 15.3863 13.2007 15.5643 13.2007 15.75V15.8814L13.2002 15.8882C13.2002 15.8882 13.2002 15.8882 13.2002 15.8883C13.1895 16.0115 13.1684 16.1337 13.1371 16.2534C13.0458 16.5989 12.8856 16.9223 12.6661 17.2043C12.1497 17.8666 11.0035 18.7 8.375 18.7C5.74656 18.7 4.60106 17.8666 4.08393 17.2035C3.81292 16.8552 3.67829 16.5092 3.61216 16.2535C3.57909 16.1256 3.56372 16.023 3.55645 15.9575ZM5.8 7.875C5.8 7.19207 6.07129 6.53711 6.5542 6.0542C7.03711 5.57129 7.69207 5.3 8.375 5.3C9.05793 5.3 9.71289 5.57129 10.1958 6.0542C10.6787 6.53711 10.95 7.19207 10.95 7.875C10.95 8.55793 10.6787 9.21289 10.1958 9.6958C9.71289 10.1787 9.05793 10.45 8.375 10.45C7.69207 10.45 7.03711 10.1787 6.5542 9.6958C6.07129 9.21289 5.8 8.55793 5.8 7.875ZM8.375 3.7C7.26772 3.7 6.20579 4.13986 5.42283 4.92283C4.63986 5.70579 4.2 6.76772 4.2 7.875C4.2 8.98228 4.63986 10.0442 5.42283 10.8272C6.20579 11.6101 7.26772 12.05 8.375 12.05C9.48228 12.05 10.5442 11.6101 11.3272 10.8272C12.1101 10.0442 12.55 8.98228 12.55 7.875C12.55 6.76772 12.1101 5.70579 11.3272 4.92283C10.5442 4.13986 9.48228 3.7 8.375 3.7ZM16.3 9C16.3 8.61544 16.4528 8.24662 16.7247 7.9747C16.9966 7.70277 17.3654 7.55 17.75 7.55C18.1346 7.55 18.5034 7.70277 18.7753 7.9747C19.0472 8.24662 19.2 8.61544 19.2 9C19.2 9.38456 19.0472 9.75338 18.7753 10.0253C18.5034 10.2972 18.1346 10.45 17.75 10.45C17.3654 10.45 16.9966 10.2972 16.7247 10.0253C16.4528 9.75338 16.3 9.38456 16.3 9ZM17.75 5.95C16.9411 5.95 16.1653 6.27134 15.5933 6.84332C15.0213 7.41531 14.7 8.19109 14.7 9C14.7 9.80891 15.0213 10.5847 15.5933 11.1567C16.1653 11.7287 16.9411 12.05 17.75 12.05C18.5589 12.05 19.3347 11.7287 19.9067 11.1567C20.4787 10.5847 20.8 9.80891 20.8 9C20.8 8.19109 20.4787 7.41531 19.9067 6.84332C19.3347 6.27134 18.5589 5.95 17.75 5.95Z" stroke="#333333" stroke-width="0.1"/>
<path d="M14.8 15.9207H14.8H14.8ZM14.8 15.9207V15.9195M14.8 15.9207V15.9195M14.8 15.9195V15.75C14.8 15.14 14.5577 14.555 14.1263 14.1237C13.695 13.6923 13.11 13.45 12.5 13.45H4.25C3.64 13.45 3.05499 13.6923 2.62365 14.1237C2.19232 14.555 1.95 15.14 1.95 15.75V15.8962H1.94961L1.95039 15.9025L1.95075 15.9054V15.9195H1.95073L1.95077 15.921L1.95227 15.9712L1.95223 15.9712L1.95237 15.9733C1.96854 16.2036 2.00568 16.4321 2.06333 16.6557L2.0634 16.656C2.21015 17.2124 2.46833 17.7331 2.82232 18.1867C3.71222 19.3282 5.37852 20.3 8.375 20.3C11.3714 20.3 13.0385 19.3282 13.9277 18.1867C14.2814 17.7331 14.5393 17.2123 14.6859 16.656L14.6859 16.6559M14.8 15.9195L14.6859 16.6559M14.6859 16.6559C14.7413 16.4448 14.7694 16.2662 14.7847 16.1346L14.6859 16.6559ZM15.0321 18.3961L15.0652 18.3427C15.3286 17.9176 15.5293 17.4567 15.661 16.9743L15.6746 16.9244L15.724 16.9397C16.2224 17.094 16.8802 17.2 17.75 17.2C19.8391 17.2 20.7089 16.5899 21.0771 16.1549L21.0771 16.1549C21.2719 15.9251 21.3649 15.7009 21.4099 15.5415C21.4099 15.5415 21.4099 15.5415 21.4099 15.5414L15.0321 18.3961ZM15.0321 18.3961L15.0917 18.4163M15.0321 18.3961L15.0917 18.4163M15.0917 18.4163C15.7953 18.6554 16.6686 18.8 17.75 18.8C20.1608 18.8 21.541 18.0819 22.2979 17.1886C22.6656 16.7547 22.8538 16.3145 22.9491 15.9758M15.0917 18.4163L23.0477 15.4192M23.0477 15.4192L23.0476 15.4192C23.0335 15.6076 23.0005 15.7941 22.9491 15.9758M23.0477 15.4192L23.0477 15.4169M23.0477 15.4192L23.0477 15.4169M22.9491 15.9758L22.901 15.9623L22.9491 15.9758C22.9491 15.9758 22.9491 15.9758 22.9491 15.9758ZM23.0477 15.4169L23.0484 15.3908L23.0485 15.3899L23.0492 15.3743L23.0492 15.3743M23.0477 15.4169L23.0492 15.3743M23.0492 15.3743V15.372M23.0492 15.3743V15.372M23.0492 15.372V15.3435C23.0494 15.0949 23.0005 14.8487 22.9054 14.619C22.8103 14.3892 22.6709 14.1805 22.4951 14.0046C22.3194 13.8288 22.1107 13.6893 21.881 13.5942C21.6513 13.499 21.4051 13.45 21.1565 13.45H15.0148H14.9029M23.0492 15.372L14.9029 13.45M14.9029 13.45L14.9775 13.5333M14.9029 13.45L14.9775 13.5333M14.9775 13.5333C15.347 13.9464 15.6152 14.4518 15.7422 15.0111L15.7511 15.05M14.9775 13.5333L15.7511 15.05M15.7511 15.05H15.791M15.7511 15.05H15.791M15.791 15.05H21.1565M15.791 15.05H21.1565M21.1565 15.05C21.3159 15.05 21.4447 15.1761 21.4499 15.3329M21.1565 15.05L21.4499 15.3329M21.4499 15.3329L21.4473 15.3617L21.4499 15.3329ZM3.55645 15.9575L3.55632 15.9564C3.55179 15.9222 3.55 15.9018 3.55 15.8925V15.8835V15.75C3.55 15.5643 3.62375 15.3863 3.75503 15.255C3.8863 15.1237 4.06435 15.05 4.25 15.05H12.5007C12.6864 15.05 12.8644 15.1237 12.9957 15.255C13.127 15.3863 13.2007 15.5643 13.2007 15.75V15.8814L13.2002 15.8882C13.2002 15.8882 13.2002 15.8882 13.2002 15.8883C13.1895 16.0115 13.1684 16.1337 13.1371 16.2534C13.0458 16.5989 12.8856 16.9223 12.6661 17.2043C12.1497 17.8666 11.0035 18.7 8.375 18.7C5.74656 18.7 4.60106 17.8666 4.08393 17.2035C3.81292 16.8552 3.67829 16.5092 3.61216 16.2535C3.57909 16.1256 3.56372 16.023 3.55645 15.9575ZM5.8 7.875C5.8 7.19207 6.07129 6.53711 6.5542 6.0542C7.03711 5.57129 7.69207 5.3 8.375 5.3C9.05793 5.3 9.71289 5.57129 10.1958 6.0542C10.6787 6.53711 10.95 7.19207 10.95 7.875C10.95 8.55793 10.6787 9.21289 10.1958 9.6958C9.71289 10.1787 9.05793 10.45 8.375 10.45C7.69207 10.45 7.03711 10.1787 6.5542 9.6958C6.07129 9.21289 5.8 8.55793 5.8 7.875ZM8.375 3.7C7.26772 3.7 6.20579 4.13986 5.42283 4.92283C4.63986 5.70579 4.2 6.76772 4.2 7.875C4.2 8.98228 4.63986 10.0442 5.42283 10.8272C6.20579 11.6101 7.26772 12.05 8.375 12.05C9.48228 12.05 10.5442 11.6101 11.3272 10.8272C12.1101 10.0442 12.55 8.98228 12.55 7.875C12.55 6.76772 12.1101 5.70579 11.3272 4.92283C10.5442 4.13986 9.48228 3.7 8.375 3.7ZM16.3 9C16.3 8.61544 16.4528 8.24662 16.7247 7.9747C16.9966 7.70277 17.3654 7.55 17.75 7.55C18.1346 7.55 18.5034 7.70277 18.7753 7.9747C19.0472 8.24662 19.2 8.61544 19.2 9C19.2 9.38456 19.0472 9.75338 18.7753 10.0253C18.5034 10.2972 18.1346 10.45 17.75 10.45C17.3654 10.45 16.9966 10.2972 16.7247 10.0253C16.4528 9.75338 16.3 9.38456 16.3 9ZM17.75 5.95C16.9411 5.95 16.1653 6.27134 15.5933 6.84332C15.0213 7.41531 14.7 8.19109 14.7 9C14.7 9.80891 15.0213 10.5847 15.5933 11.1567C16.1653 11.7287 16.9411 12.05 17.75 12.05C18.5589 12.05 19.3347 11.7287 19.9067 11.1567C20.4787 10.5847 20.8 9.80891 20.8 9C20.8 8.19109 20.4787 7.41531 19.9067 6.84332C19.3347 6.27134 18.5589 5.95 17.75 5.95Z" stroke="black" stroke-opacity="0.2" stroke-width="0.1"/>
</svg>
