<svg width="194" height="194" viewBox="0 0 194 194" fill="none" xmlns="http://www.w3.org/2000/svg">
<mask id="mask0_242_7500" style="mask-type:alpha" maskUnits="userSpaceOnUse" x="0" y="0" width="194" height="194">
<circle cx="97" cy="97" r="96" fill="white" stroke="#AD00DF" stroke-width="2"/>
</mask>
<g mask="url(#mask0_242_7500)">
<rect x="14" y="144" width="167" height="50" fill="#AD00DF"/>
<g clip-path="url(#clip0_242_7500)">
<path d="M71.4444 163.239V165.049H68.7778V173.191H81.2222V165.049H78.5556V163.239H81.2222C81.6937 163.239 82.1459 163.43 82.4793 163.769C82.8127 164.109 83 164.569 83 165.049V173.191C83 173.671 82.8127 174.131 82.4793 174.47C82.1459 174.809 81.6937 175 81.2222 175H68.7778C68.3063 175 67.8541 174.809 67.5207 174.47C67.1873 174.131 67 173.671 67 173.191V165.049C67 164.569 67.1873 164.109 67.5207 163.769C67.8541 163.43 68.3063 163.239 68.7778 163.239H71.4444ZM75.7858 157.331L78.7716 160.369C78.9383 160.539 79.0321 160.769 79.0321 161.009C79.0321 161.249 78.9383 161.479 78.7716 161.649C78.6048 161.819 78.3785 161.914 78.1427 161.914C77.9068 161.914 77.6806 161.819 77.5138 161.649L75.8889 159.994V168.667C75.8889 168.907 75.7952 169.137 75.6285 169.307C75.4618 169.477 75.2357 169.572 75 169.572C74.7643 169.572 74.5382 169.477 74.3715 169.307C74.2048 169.137 74.1111 168.907 74.1111 168.667V159.994L72.4862 161.649C72.4036 161.733 72.3056 161.8 72.1977 161.845C72.0898 161.891 71.9741 161.914 71.8573 161.914C71.7405 161.914 71.6249 161.891 71.517 161.845C71.4091 161.8 71.311 161.733 71.2284 161.649C71.1459 161.565 71.0803 161.465 71.0357 161.355C70.991 161.245 70.968 161.128 70.968 161.009C70.968 160.89 70.991 160.772 71.0357 160.662C71.0803 160.553 71.1459 160.453 71.2284 160.369L74.2151 157.331C74.4235 157.119 74.7059 157 75.0004 157C75.295 157 75.5774 157.119 75.7858 157.331Z" fill="white"/>
</g>
<path d="M95.2 170.18C94.632 170.18 94.144 170.1 93.736 169.94C93.328 169.772 92.988 169.54 92.716 169.244C92.452 168.948 92.256 168.6 92.128 168.2C92 167.8 91.936 167.36 91.936 166.88V161.684H93.46V166.736C93.46 167.112 93.5 167.436 93.58 167.708C93.668 167.972 93.788 168.188 93.94 168.356C94.1 168.524 94.284 168.648 94.492 168.728C94.708 168.808 94.948 168.848 95.212 168.848C95.476 168.848 95.716 168.808 95.932 168.728C96.148 168.648 96.332 168.524 96.484 168.356C96.644 168.188 96.764 167.972 96.844 167.708C96.932 167.436 96.976 167.112 96.976 166.736V161.684H98.5V166.88C98.5 167.36 98.432 167.8 98.296 168.2C98.168 168.6 97.968 168.948 97.696 169.244C97.432 169.54 97.092 169.772 96.676 169.94C96.26 170.1 95.768 170.18 95.2 170.18ZM104.526 166.892C104.526 166.244 104.378 165.74 104.082 165.38C103.794 165.02 103.326 164.84 102.678 164.84C102.542 164.84 102.398 164.848 102.246 164.864C102.102 164.872 101.958 164.896 101.814 164.936V168.524C101.942 168.612 102.11 168.696 102.318 168.776C102.534 168.848 102.762 168.884 103.002 168.884C103.53 168.884 103.914 168.704 104.154 168.344C104.402 167.984 104.526 167.5 104.526 166.892ZM106.014 166.868C106.014 167.348 105.95 167.788 105.822 168.188C105.702 168.588 105.526 168.932 105.294 169.22C105.062 169.508 104.77 169.732 104.418 169.892C104.074 170.052 103.682 170.132 103.242 170.132C102.946 170.132 102.674 170.096 102.426 170.024C102.178 169.952 101.974 169.872 101.814 169.784V172.22H100.362V163.928C100.658 163.848 101.022 163.772 101.454 163.7C101.886 163.628 102.342 163.592 102.822 163.592C103.318 163.592 103.762 163.668 104.154 163.82C104.546 163.972 104.878 164.192 105.15 164.48C105.43 164.76 105.642 165.104 105.786 165.512C105.938 165.912 106.014 166.364 106.014 166.868ZM109.694 170.12C109.262 170.112 108.902 170.064 108.614 169.976C108.334 169.888 108.11 169.764 107.942 169.604C107.774 169.436 107.654 169.232 107.582 168.992C107.518 168.744 107.486 168.464 107.486 168.152V160.928L108.938 160.688V167.876C108.938 168.052 108.95 168.2 108.974 168.32C109.006 168.44 109.058 168.544 109.13 168.632C109.202 168.712 109.298 168.776 109.418 168.824C109.546 168.864 109.706 168.896 109.898 168.92L109.694 170.12ZM116.748 166.856C116.748 167.352 116.676 167.804 116.532 168.212C116.388 168.62 116.184 168.968 115.92 169.256C115.656 169.544 115.336 169.768 114.96 169.928C114.592 170.088 114.184 170.168 113.736 170.168C113.288 170.168 112.88 170.088 112.512 169.928C112.144 169.768 111.828 169.544 111.564 169.256C111.3 168.968 111.092 168.62 110.94 168.212C110.796 167.804 110.724 167.352 110.724 166.856C110.724 166.36 110.796 165.912 110.94 165.512C111.092 165.104 111.3 164.756 111.564 164.468C111.836 164.18 112.156 163.96 112.524 163.808C112.892 163.648 113.296 163.568 113.736 163.568C114.176 163.568 114.58 163.648 114.948 163.808C115.324 163.96 115.644 164.18 115.908 164.468C116.172 164.756 116.376 165.104 116.52 165.512C116.672 165.912 116.748 166.36 116.748 166.856ZM115.26 166.856C115.26 166.232 115.124 165.74 114.852 165.38C114.588 165.012 114.216 164.828 113.736 164.828C113.256 164.828 112.88 165.012 112.608 165.38C112.344 165.74 112.212 166.232 112.212 166.856C112.212 167.488 112.344 167.988 112.608 168.356C112.88 168.724 113.256 168.908 113.736 168.908C114.216 168.908 114.588 168.724 114.852 168.356C115.124 167.988 115.26 167.488 115.26 166.856ZM120.452 168.98C120.9 168.98 121.24 168.956 121.472 168.908V167.3C121.392 167.276 121.276 167.252 121.124 167.228C120.972 167.204 120.804 167.192 120.62 167.192C120.46 167.192 120.296 167.204 120.128 167.228C119.968 167.252 119.82 167.296 119.684 167.36C119.556 167.424 119.452 167.516 119.372 167.636C119.292 167.748 119.252 167.892 119.252 168.068C119.252 168.412 119.36 168.652 119.576 168.788C119.792 168.916 120.084 168.98 120.452 168.98ZM120.332 163.568C120.812 163.568 121.216 163.628 121.544 163.748C121.872 163.868 122.132 164.036 122.324 164.252C122.524 164.468 122.664 164.732 122.744 165.044C122.832 165.348 122.876 165.684 122.876 166.052V169.856C122.652 169.904 122.312 169.96 121.856 170.024C121.408 170.096 120.9 170.132 120.332 170.132C119.956 170.132 119.612 170.096 119.3 170.024C118.988 169.952 118.72 169.836 118.496 169.676C118.28 169.516 118.108 169.308 117.98 169.052C117.86 168.796 117.8 168.48 117.8 168.104C117.8 167.744 117.868 167.44 118.004 167.192C118.148 166.944 118.34 166.744 118.58 166.592C118.82 166.432 119.096 166.32 119.408 166.256C119.728 166.184 120.06 166.148 120.404 166.148C120.564 166.148 120.732 166.16 120.908 166.184C121.084 166.2 121.272 166.232 121.472 166.28V166.04C121.472 165.872 121.452 165.712 121.412 165.56C121.372 165.408 121.3 165.276 121.196 165.164C121.1 165.044 120.968 164.952 120.8 164.888C120.64 164.824 120.436 164.792 120.188 164.792C119.852 164.792 119.544 164.816 119.264 164.864C118.984 164.912 118.756 164.968 118.58 165.032L118.4 163.856C118.584 163.792 118.852 163.728 119.204 163.664C119.556 163.6 119.932 163.568 120.332 163.568ZM125.794 166.844C125.794 167.484 125.946 167.988 126.25 168.356C126.554 168.716 126.974 168.896 127.51 168.896C127.742 168.896 127.938 168.888 128.098 168.872C128.266 168.848 128.402 168.824 128.506 168.8V165.2C128.378 165.112 128.206 165.032 127.99 164.96C127.782 164.88 127.558 164.84 127.318 164.84C126.79 164.84 126.402 165.02 126.154 165.38C125.914 165.74 125.794 166.228 125.794 166.844ZM129.958 169.808C129.67 169.896 129.306 169.976 128.866 170.048C128.434 170.12 127.978 170.156 127.498 170.156C127.002 170.156 126.558 170.08 126.166 169.928C125.774 169.776 125.438 169.56 125.158 169.28C124.886 168.992 124.674 168.648 124.522 168.248C124.378 167.84 124.306 167.384 124.306 166.88C124.306 166.384 124.366 165.936 124.486 165.536C124.614 165.128 124.798 164.78 125.038 164.492C125.278 164.204 125.57 163.984 125.914 163.832C126.258 163.672 126.654 163.592 127.102 163.592C127.406 163.592 127.674 163.628 127.906 163.7C128.138 163.772 128.338 163.852 128.506 163.94V160.928L129.958 160.688V169.808Z" fill="white"/>
</g>
<circle cx="97" cy="97" r="96" stroke="#AD00DF" stroke-width="2"/>
<path fill-rule="evenodd" clip-rule="evenodd" d="M97.9376 102.664C82.1449 102.664 68.6582 105.052 68.6582 114.615C68.6582 124.177 82.0593 126.651 97.9376 126.651C113.73 126.651 127.213 124.259 127.213 114.7C127.213 105.141 113.816 102.664 97.9376 102.664Z" stroke="#AD00DF" stroke-width="2" stroke-linecap="round" stroke-linejoin="round"/>
<path fill-rule="evenodd" clip-rule="evenodd" d="M97.9376 89.0242C108.301 89.0242 116.701 80.6203 116.701 70.2564C116.701 59.8925 108.301 51.4925 97.9376 51.4925C87.5737 51.4925 79.1698 59.8925 79.1698 70.2564C79.1348 80.5853 87.4803 88.9892 97.8053 89.0242H97.9376Z" stroke="#AD00DF" stroke-width="2" stroke-linecap="round" stroke-linejoin="round"/>
<defs>
<clipPath id="clip0_242_7500">
<rect width="24" height="24" fill="white" transform="translate(63 154)"/>
</clipPath>
</defs>
</svg>
