<svg width="24" height="24" viewBox="0 0 24 24" fill="none" xmlns="http://www.w3.org/2000/svg">
<path d="M12.5135 21C11.1216 21 9.85135 20.6405 8.7027 19.9215C7.55405 19.2025 6.72297 18.2432 6.20946 17.0438L4.14189 12.225C4.08784 12.1 4.05081 11.9843 4.03081 11.8778C4.01081 11.7712 4.00054 11.6495 4 11.5125C4 11.1375 4.15541 10.8062 4.46622 10.5187C4.77703 10.2312 5.13514 10.0875 5.54054 10.0875C5.63514 10.0875 5.71973 10.0908 5.79432 10.0972C5.86892 10.1038 5.94649 10.1192 6.02703 10.1437L6.65541 10.2938C6.84459 10.3438 7.02027 10.4095 7.18243 10.491C7.34459 10.5725 7.5 10.6755 7.64865 10.8V6.375C7.64865 5.85 7.84459 5.40625 8.23649 5.04375C8.62838 4.68125 9.10811 4.5 9.67568 4.5C9.75676 4.5 9.83459 4.503 9.90919 4.509C9.98378 4.515 10.0546 4.5245 10.1216 4.5375C10.2027 4.0625 10.4359 3.6875 10.8214 3.4125C11.2068 3.1375 11.6357 3 12.1081 3C12.5405 3 12.9257 3.1095 13.2635 3.3285C13.6014 3.5475 13.8446 3.838 13.9932 4.2C14.0878 4.175 14.1792 4.15625 14.2673 4.14375C14.3554 4.13125 14.4465 4.125 14.5405 4.125C15.1081 4.125 15.5878 4.30625 15.9797 4.66875C16.3716 5.03125 16.5676 5.475 16.5676 6V6.4125C16.6351 6.4 16.7027 6.39075 16.7703 6.38475C16.8378 6.37875 16.9054 6.3755 16.973 6.375C17.5405 6.375 18.0203 6.55625 18.4122 6.91875C18.8041 7.28125 19 7.725 19 8.25V15C19 16.675 18.3716 18.0937 17.1149 19.2562C15.8581 20.4187 14.3243 21 12.5135 21ZM12.5135 19.5C13.8649 19.5 15.0135 19.0625 15.9595 18.1875C16.9054 17.3125 17.3784 16.25 17.3784 15V8.25C17.3784 8.15 17.3378 8.0625 17.2568 7.9875C17.1757 7.9125 17.0811 7.875 16.973 7.875C16.8649 7.875 16.7703 7.9125 16.6892 7.9875C16.6081 8.0625 16.5676 8.15 16.5676 8.25V11.25C16.5676 11.4625 16.4897 11.6407 16.3341 11.7847C16.1784 11.9288 15.9859 12.0005 15.7568 12C15.527 12 15.3343 11.928 15.1786 11.784C15.023 11.64 14.9454 11.462 14.9459 11.25V6C14.9459 5.9 14.9054 5.8125 14.8243 5.7375C14.7432 5.6625 14.6486 5.625 14.5405 5.625C14.4324 5.625 14.3378 5.6625 14.2568 5.7375C14.1757 5.8125 14.1351 5.9 14.1351 6V11.25C14.1351 11.4625 14.0573 11.6407 13.9016 11.7847C13.7459 11.9288 13.5535 12.0005 13.3243 12C13.0946 12 12.9019 11.928 12.7462 11.784C12.5905 11.64 12.513 11.462 12.5135 11.25V4.875C12.5135 4.775 12.473 4.6875 12.3919 4.6125C12.3108 4.5375 12.2162 4.5 12.1081 4.5C12 4.5 11.9054 4.5375 11.8243 4.6125C11.7432 4.6875 11.7027 4.775 11.7027 4.875V11.25C11.7027 11.4625 11.6249 11.6407 11.4692 11.7847C11.3135 11.9288 11.1211 12.0005 10.8919 12C10.6622 12 10.4695 11.928 10.3138 11.784C10.1581 11.64 10.0805 11.462 10.0811 11.25V6.375C10.0811 6.275 10.0405 6.1875 9.95946 6.1125C9.87838 6.0375 9.78378 6 9.67568 6C9.56757 6 9.47297 6.0375 9.39189 6.1125C9.31081 6.1875 9.27027 6.275 9.27027 6.375V13.5C9.27027 13.7125 9.19243 13.8907 9.03676 14.0347C8.88108 14.1788 8.68865 14.2505 8.45946 14.25H8.15541C7.97973 14.25 7.83459 14.2092 7.72 14.1278C7.60541 14.0463 7.51405 13.9307 7.44595 13.7812L6.85811 12.375C6.76351 12.1625 6.63162 12.0063 6.46243 11.9062C6.29324 11.8062 6.01297 11.7 5.62162 11.5875L7.72973 16.5C8.12162 17.4 8.75324 18.125 9.62459 18.675C10.4959 19.225 11.4589 19.5 12.5135 19.5Z" fill="currentColor"/>
</svg>
