<svg width="24" height="24" viewBox="0 0 24 24" fill="none" xmlns="http://www.w3.org/2000/svg">
<path fill-rule="evenodd" clip-rule="evenodd" d="M11.125 4.75C7.60418 4.75 4.75 7.60418 4.75 11.125C4.75 14.6458 7.60418 17.5 11.125 17.5C12.5464 17.5 13.8597 17.0345 14.92 16.2479L17.6471 18.975C18.0138 19.3417 18.6083 19.3417 18.975 18.975C19.3417 18.6083 19.3417 18.0138 18.975 17.6471L16.2479 14.92C17.0345 13.8597 17.5 12.5464 17.5 11.125C17.5 7.60418 14.6458 4.75 11.125 4.75ZM6.61111 11.125C6.61111 8.63205 8.63205 6.61111 11.125 6.61111C13.618 6.61111 15.6389 8.63205 15.6389 11.125C15.6389 13.618 13.618 15.6389 11.125 15.6389C8.63205 15.6389 6.61111 13.618 6.61111 11.125Z" fill="currentColor"/>
</svg>
