<svg width="12" height="15" viewBox="0 0 12 15" fill="none" xmlns="http://www.w3.org/2000/svg">
<path fill-rule="evenodd" clip-rule="evenodd" d="M10.5768 2.41589C10.8682 2.51789 11.0628 2.79255 11.0628 3.10122V7.61655C11.0628 8.87855 10.6042 10.0832 9.79416 11.0166C9.38683 11.4866 8.8715 11.8526 8.32416 12.1486L5.95216 13.4299L3.57616 12.1479C3.02816 11.8519 2.51216 11.4866 2.10416 11.0159C1.2935 10.0826 0.833496 8.87722 0.833496 7.61389V3.10122C0.833496 2.79255 1.02816 2.51789 1.3195 2.41589L5.7075 0.873886C5.8635 0.819219 6.0335 0.819219 6.18883 0.873886L10.5768 2.41589Z" stroke="currentColor" stroke-width="1.5" stroke-linecap="round" stroke-linejoin="round"/>
<path d="M4.21533 6.94519L5.47667 8.20719L8.07533 5.60852" stroke="currentColor" stroke-width="1.5" stroke-linecap="round" stroke-linejoin="round"/>
</svg>
