<svg width="133" height="174" viewBox="0 0 133 174" fill="none" xmlns="http://www.w3.org/2000/svg">
<g opacity="0.5">
<g clip-path="url(#clip0_169_710)">
<path d="M1.85933 116.14C0.859059 116.517 0.353038 117.069 0 118.187C0.6237 119.128 1.2121 119.728 2.02408 120.022C2.98905 119.281 3.82458 119.069 5.29557 118.834C3.83634 118.01 2.96552 117.446 1.84756 116.128L1.85933 116.14Z" fill="url(#paint0_linear_169_710)"/>
<path d="M76.0118 131.012C76.1059 132.447 76.306 133.329 76.7531 134.458C77.624 134.046 78.0947 133.635 78.4477 133.141C78.0241 132.529 77.9652 131.941 77.9535 131.035C77.1768 131.329 76.7061 131.294 76 131L76.0118 131.012Z" fill="url(#paint1_linear_169_710)"/>
<path d="M73.5613 87.7109C74.1497 88.3343 74.3733 88.8519 74.2321 89.8752C75.3029 89.5106 75.9149 89.0283 76.974 88.0638C77.0564 87.264 76.8563 86.8523 76.2326 86.1936C75.3147 87.0052 74.5969 87.5345 73.5613 87.7109Z" fill="url(#paint2_linear_169_710)"/>
<path d="M60.7195 150.74C61.5315 149.281 61.8021 148.387 61.4138 146.646C58.7425 145.894 57.2009 145.259 54.7885 144C54.659 144.988 54.3648 145.658 54 146.152C56.8125 147.505 58.3777 148.705 60.7313 150.74H60.7195Z" fill="url(#paint3_linear_169_710)"/>
<path d="M42.2469 121.586C41.6232 121.186 41.1643 120.716 40.6465 119.975C39.7403 121.61 39.0578 122.656 38.0811 123.691C38.4106 124.609 38.8107 124.985 39.4461 125.409C40.1993 124.691 41.2349 123.292 42.2469 121.598V121.586Z" fill="url(#paint4_linear_169_710)"/>
<path d="M67.6304 64.8923C68.4188 66.0097 68.6424 66.8918 68.1717 68.4445C69.9369 68.1269 71.0195 67.5035 72.9142 66.2449C73.2437 65.0099 73.0083 64.3159 72.1846 63.1279C70.5488 64.1983 69.3014 64.8452 67.6304 64.8923Z" fill="url(#paint5_linear_169_710)"/>
<path d="M88.9301 41.6736C90.5423 42.1676 91.5779 42.2029 93.4255 41.6971C92.6959 39.721 92.6488 38.439 92.9783 36.9922C91.5073 36.4158 90.4129 36.2747 88.7065 36.2629C89.1537 38.1214 89.1537 39.5211 88.9184 41.6618L88.9301 41.6736Z" fill="url(#paint6_linear_169_710)"/>
<path d="M49.484 37.8744C50.7079 37.4745 51.3316 37.1216 52.0259 35.9336C50.9197 34.1105 50.3784 32.9343 49.6841 30.97C49.0957 31.464 48.5779 31.6757 48.1072 31.7698C48.978 34.0164 49.2369 35.4984 49.484 37.8862V37.8744Z" fill="url(#paint7_linear_169_710)"/>
<path d="M41.0582 71.4084C41.0229 72.3729 40.7287 72.9023 40.1638 73.6197C41.7054 73.9726 43.2823 74.1373 43.9884 73.9844C44.1767 73.2551 44.1767 72.5964 44.0355 71.6907C43.2235 71.8672 42.4115 71.7143 41.0582 71.4084Z" fill="url(#paint8_linear_169_710)"/>
<path d="M38.1753 151.885C37.7869 151.662 37.5045 151.368 37.3515 150.78C36.0806 151.556 35.3745 152.215 34.386 153.238C34.7273 154.038 35.0921 154.391 35.3745 154.614C36.1512 153.309 36.9161 152.697 38.1635 151.885H38.1753Z" fill="url(#paint9_linear_169_710)"/>
<path d="M53.297 99.9671C54.3209 99.5201 55.533 99.4966 58.0866 100.426C58.3102 99.2731 58.1807 98.2027 57.5923 96.8618C55.5918 96.4266 54.3679 96.3325 52.438 96.7795C53.1088 97.7793 53.2382 98.5321 53.2853 99.9671H53.297Z" fill="url(#paint10_linear_169_710)"/>
<path d="M3.30688 81.9474C3.30688 82.7472 3.42456 83.2295 3.90705 84.0058C4.70727 83.4059 5.29566 83.2059 5.98997 83.1706C6.04881 82.4179 5.96644 81.9003 5.74285 81.124C4.95439 81.5827 4.31893 81.7709 3.30688 81.9474Z" fill="url(#paint11_linear_169_710)"/>
<path d="M51.9202 111.8C51.473 112.2 51.3671 112.658 51.2141 113.411C52.8852 113.67 54.568 114.435 56.4508 115.505C56.6038 114.905 56.8392 114.564 57.3334 114.093C55.4153 112.835 54.2267 112.306 51.9084 111.8H51.9202Z" fill="url(#paint12_linear_169_710)"/>
<path d="M99.2271 42.0734C99.2506 43.0614 99.5683 43.6495 100.439 44.2964C101.439 44.0377 102.134 43.7201 102.64 43.1085C102.298 42.0616 102.369 41.2618 102.616 39.9209C101.463 40.9207 100.71 41.5088 99.2388 42.0734H99.2271Z" fill="url(#paint13_linear_169_710)"/>
<path d="M32.3736 105.307C32.2324 104.625 32.2912 104.178 32.8208 103.531C31.9382 103.331 31.3027 103.402 30.1612 103.613C29.7611 104.131 29.7258 104.496 29.8788 105.213C30.8555 105.037 31.5734 104.99 32.3618 105.295L32.3736 105.307Z" fill="url(#paint14_linear_169_710)"/>
<path d="M81 156.87C81.7061 157.541 81.9885 158.129 81.8708 159.281C83.0594 158.811 83.7302 158.223 84.8834 157.082C84.9423 156.176 84.6834 155.717 83.942 155C82.9417 155.976 82.165 156.6 81 156.87Z" fill="url(#paint15_linear_169_710)"/>
<path d="M104.264 131.513C104.04 130.537 103.758 129.773 103.181 129.161C102.522 129.279 102.134 129.478 101.769 129.843C102.405 130.643 102.64 131.172 102.816 132.172C103.299 131.678 103.664 131.466 104.264 131.513Z" fill="url(#paint16_linear_169_710)"/>
<path d="M99.8711 161C99.4475 161.553 98.9297 161.929 98 162.059C98.9532 164.176 99.824 165.399 101.224 167.116C102.519 166.752 103.143 166.258 103.554 165.846C101.695 164.388 100.895 163.082 99.8829 161H99.8711Z" fill="url(#paint17_linear_169_710)"/>
<path d="M84.7996 96.509C86.4236 96.6502 87.2473 96.8266 88.3771 97.6029C88.6124 97.003 88.8478 96.6619 89.2243 96.4972C88.0476 95.568 87.059 95.2387 85.3527 94.9329C84.9997 95.4269 84.8467 95.9444 84.7878 96.509H84.7996Z" fill="url(#paint18_linear_169_710)"/>
<path d="M109.889 72.9375C109.748 73.7726 109.795 74.3019 110.171 75.1841C111.113 74.6901 111.748 74.5842 112.49 74.6548C112.678 73.8785 112.678 73.3256 112.572 72.4788C111.666 72.8199 110.972 72.914 109.889 72.9375Z" fill="url(#paint19_linear_169_710)"/>
<path d="M110.756 59.9395V63.5858C110.72 63.1388 110.638 62.7154 110.497 62.3037C109.426 59.0456 105.389 57.0813 101 55.6581V52C105.943 53.5997 110.438 55.8933 110.756 59.9277V59.9395Z" fill="url(#paint20_linear_169_710)"/>
<path d="M104.966 90.439C104.742 90.0508 104.613 89.6627 104.566 89.2275C104.507 88.6276 104.613 87.9336 104.872 87.0397C105.672 84.5343 107.978 82.8406 109.037 80.9939C109.379 81.5702 109.543 82.0995 109.579 82.6053C109.779 85.3342 106.143 87.2044 104.954 90.4272L104.966 90.439Z" fill="url(#paint21_linear_169_710)"/>
<path d="M109.602 68.1613C108.579 70.1844 106.672 71.9723 105.637 73.9248C105.284 73.5484 105.048 73.1485 105.013 72.5957C105.013 72.4663 105.013 72.3251 105.013 72.1722C105.036 71.8429 105.131 71.4665 105.284 71.0195C106.06 68.7376 108.437 66.7851 109.602 64.5032C110.014 63.7269 110.309 62.9977 110.497 62.3037C110.626 62.7036 110.72 63.1388 110.756 63.5858C110.862 64.9032 110.52 66.4205 109.602 68.1495V68.1613Z" fill="url(#paint22_linear_169_710)"/>
<path d="M109.591 78.9591V82.6054C109.555 82.0996 109.391 81.5703 109.049 80.9939C108.802 80.5587 108.449 80.1118 107.99 79.6295C106.484 78.0887 105.036 77.6652 104.966 76.2655V75.9479L105.013 72.5957C105.048 73.1485 105.284 73.5484 105.637 73.9248C106.19 74.5129 107.061 75.0305 107.99 75.9832C109.073 77.1242 109.532 78.0887 109.591 78.9708V78.9591Z" fill="url(#paint23_linear_169_710)"/>
<path d="M111.709 97.7787V101.437C110.391 97.7552 109.038 98.0257 106.649 95.9791C105.072 94.5676 104.401 93.6737 104.566 92.0975V89.2275C104.601 89.6627 104.731 90.0627 104.954 90.4391C105.295 91.0389 105.86 91.6153 106.649 92.321C109.038 94.3676 110.391 94.0971 111.709 97.7787Z" fill="url(#paint24_linear_169_710)"/>
<path d="M61.4639 4.34695e-05V3.51695C57.0509 4.82255 45.942 9.3863 43.7414 14.6205C43.4942 15.2086 43.353 15.8085 43.353 16.4083V12.8914C43.353 6.91623 56.5449 1.4468 61.4521 -0.0117188L61.4639 4.34695e-05Z" fill="url(#paint25_linear_169_710)"/>
<path d="M58.7926 71.4319V74.9488C52.991 73.161 50.6727 70.4204 50.7786 67.421C50.8021 66.8799 50.8963 66.3506 51.061 65.8096C51.8377 68.0326 54.2501 70.0204 58.7926 71.4202V71.4319Z" fill="url(#paint26_linear_169_710)"/>
<path d="M62.8407 27.6766V27.7354C62.8407 28.3117 62.6289 28.8528 62.2641 29.3586C58.8632 23.0187 45.942 23.4187 43.6708 17.9963C43.4589 17.467 43.353 16.9494 43.353 16.4319C43.353 15.832 43.4825 15.2322 43.7414 14.644C46.3068 20.1252 60.0046 19.5254 62.6524 26.7003C62.7819 27.0532 62.8407 27.3825 62.8525 27.7001L62.8407 27.6766Z" fill="url(#paint27_linear_169_710)"/>
<path d="M62.7466 50.4835C62.6642 50.954 62.4171 51.3892 62.0405 51.7891C61.9581 51.6715 61.864 51.5539 61.7581 51.4363C59.3809 48.7192 53.7559 47.59 51.3788 44.8847C50.4962 43.9084 50.1078 43.0498 50.0725 42.2735V42.0618C50.096 41.4972 50.3196 40.9679 50.6844 40.4739C50.8727 40.7562 51.0963 41.062 51.3788 41.3678C53.7559 44.0849 59.3809 45.2141 61.7581 47.9194C62.3347 48.6016 62.6524 49.2132 62.7348 49.766C62.7819 50.013 62.7819 50.26 62.7348 50.4835H62.7466Z" fill="url(#paint28_linear_169_710)"/>
<path d="M56.1329 59.3521C53.5557 61.3987 51.7435 63.6453 51.0727 65.8213C50.908 66.3624 50.8138 66.8917 50.7903 67.421L50.8138 64.6216V63.5277C51.0845 60.9753 53.0615 58.27 56.1212 55.8352C58.157 54.2826 60.7813 53.1769 62.0404 51.789C62.4052 51.3773 62.6641 50.9539 62.7465 50.4834V53.271C63.1819 55.7999 59.0514 57.1173 56.1329 59.3521Z" fill="url(#paint29_linear_169_710)"/>
<path d="M62.8408 27.7236V31.0171V31.4052C62.5348 35.2985 53.2029 37.1099 50.6963 40.4739C50.3315 40.9679 50.1079 41.4854 50.0844 42.0618V38.7684C49.9079 34.6633 59.7694 32.8637 62.2759 29.3586C62.6407 28.8528 62.8408 28.3235 62.8526 27.7354L62.8408 27.7236Z" fill="url(#paint30_linear_169_710)"/>
<path d="M36.2806 60.0342L36.2217 62.8453C36.21 63.3629 36.0335 63.9157 35.6569 64.5156C34.3977 66.6445 28.4549 66.7386 25.4894 68.4912C25.1246 68.7029 24.8304 68.9264 24.6068 69.1617C24.1949 69.5851 24.0066 70.0203 23.9949 70.4673L24.0537 67.6443C24.0772 66.9504 24.5127 66.2917 25.5482 65.68C28.5255 63.9275 34.4566 63.8451 35.7157 61.7044C35.7746 61.6103 35.8216 61.528 35.8687 61.4339C36.1394 60.9281 36.2688 60.4694 36.2806 60.0342Z" fill="url(#paint31_linear_169_710)"/>
<path d="M32.5266 115.646L32.4678 118.457C31.5969 117.634 31.2674 116.728 31.291 115.764V115.74C31.3027 115.258 31.4086 114.776 31.5734 114.282C31.7617 114.752 32.0676 115.211 32.5266 115.646Z" fill="url(#paint32_linear_169_710)"/>
<path d="M36.2805 59.9519V60.0343C36.2687 60.4695 36.1393 60.94 35.8686 61.434C34.5506 58.9757 29.9023 57.1878 28.3372 53.965L28.396 51.1538C30.22 54.9295 36.2923 56.7291 36.2687 59.9519H36.2805Z" fill="url(#paint33_linear_169_710)"/>
<path d="M36.5277 102.378C36.4924 102.731 36.41 103.119 36.2688 103.543C35.3156 101.12 31.4792 100.367 29.0786 98.085C27.737 96.7676 27.1722 95.4738 27.1604 94.2622C27.1604 94.1681 27.1604 94.0858 27.1604 93.9917C27.1839 93.5565 27.2781 93.1448 27.4428 92.7332C27.7253 93.5565 28.2666 94.4152 29.1492 95.2738C32.0323 97.9909 36.9513 98.5437 36.5394 102.378H36.5277Z" fill="url(#paint34_linear_169_710)"/>
<path d="M36.4924 104.731C36.4924 105.248 36.3983 105.825 36.1747 106.46C35.4686 108.553 32.5149 111.494 31.5734 114.282C31.4087 114.776 31.3028 115.27 31.291 115.74L31.3499 112.929C31.4558 109.765 35.398 106.119 36.2335 103.648C36.2453 103.613 36.2571 103.578 36.2688 103.543C36.4101 103.119 36.4924 102.743 36.5277 102.378L36.4924 104.731Z" fill="url(#paint35_linear_169_710)"/>
<path d="M39.399 81.2886L39.3402 83.9233V84.2291C39.3402 84.3232 39.3166 84.4056 39.3049 84.4879C38.8459 86.8286 35.3979 87.252 33.362 88.0871C30.6201 89.0046 28.2548 90.6748 27.4545 92.7215C27.3016 93.1214 27.1957 93.5448 27.1721 93.98L27.231 91.1688C27.3839 88.5576 30.1376 86.3816 33.4209 85.276C35.1625 84.5585 37.9162 84.1468 38.9871 82.5942C39.1754 82.3237 39.3048 82.0178 39.3755 81.6767C39.399 81.5473 39.4108 81.418 39.4108 81.2886H39.399Z" fill="url(#paint36_linear_169_710)"/>
<path d="M39.399 81.2415V81.3003C39.399 81.4297 39.3755 81.559 39.3519 81.6884C39.2813 82.0295 39.1519 82.3354 38.9636 82.6059C38.0928 80.8768 35.8451 79.3948 34.3624 78.5479C30.8437 76.5483 23.9242 73.2667 23.983 70.4555C23.983 70.0085 24.1831 69.5616 24.595 69.1499C26.2896 71.5612 31.5145 74.0783 34.4212 75.7367C36.3041 76.8189 39.4108 78.9008 39.3873 81.2415H39.399Z" fill="url(#paint37_linear_169_710)"/>
</g>
<path d="M129.13 94.4224C130.495 93.8696 131.225 93.3167 132.213 91.9523C130.625 91.0113 129.883 90.1645 129.307 89C127.989 89.4234 127.165 89.9292 126 90.8702C127.33 91.8935 128.106 92.8345 129.13 94.4224Z" fill="url(#paint38_linear_169_710)"/>
<path d="M125.012 170.129C125.73 171.117 126.141 172.128 126.471 173.587C128.86 171.634 130.566 170.446 132.696 169.47C132.755 167.847 132.367 167.035 131.649 166C130.06 166.635 127.601 168.141 125 170.129H125.012Z" fill="url(#paint39_linear_169_710)"/>
<path d="M131.495 121.139C130.448 120.963 129.307 120.868 128.2 121.398C127.847 122.209 127.577 122.739 127 123.456C127.788 123.397 128.212 123.727 128.859 124.632C129.412 123.397 130.295 122.433 131.495 121.127V121.139Z" fill="url(#paint40_linear_169_710)"/>
</g>
<defs>
<linearGradient id="paint0_linear_169_710" x1="2.26037" y1="117.861" x2="-0.366947" y2="120.845" gradientUnits="userSpaceOnUse">
<stop stop-color="#FF5C5C"/>
<stop offset="0.3" stop-color="#F34444"/>
<stop offset="0.93" stop-color="#D60606"/>
<stop offset="1" stop-color="#D30000"/>
</linearGradient>
<linearGradient id="paint1_linear_169_710" x1="78.6132" y1="144.853" x2="81.0911" y2="144.126" gradientUnits="userSpaceOnUse">
<stop stop-color="#FF5C5C"/>
<stop offset="0.3" stop-color="#F34444"/>
<stop offset="0.93" stop-color="#D60606"/>
<stop offset="1" stop-color="#D30000"/>
</linearGradient>
<linearGradient id="paint2_linear_169_710" x1="74.6745" y1="92.7899" x2="76.0439" y2="95.3629" gradientUnits="userSpaceOnUse">
<stop stop-color="#FF5C5C"/>
<stop offset="0.3" stop-color="#F34444"/>
<stop offset="0.93" stop-color="#D60606"/>
<stop offset="1" stop-color="#D30000"/>
</linearGradient>
<linearGradient id="paint3_linear_169_710" x1="50.1114" y1="133.468" x2="48.6032" y2="137.776" gradientUnits="userSpaceOnUse">
<stop stop-color="#FF5C5C"/>
<stop offset="0.3" stop-color="#F34444"/>
<stop offset="0.93" stop-color="#D60606"/>
<stop offset="1" stop-color="#D30000"/>
</linearGradient>
<linearGradient id="paint4_linear_169_710" x1="49.3716" y1="125.299" x2="52.2685" y2="127.502" gradientUnits="userSpaceOnUse">
<stop stop-color="#FC9512"/>
<stop offset="0.68" stop-color="#FED319"/>
<stop offset="1" stop-color="#FFEB1C"/>
</linearGradient>
<linearGradient id="paint5_linear_169_710" x1="71.6692" y1="62.0893" x2="73.2097" y2="66.4359" gradientUnits="userSpaceOnUse">
<stop stop-color="#FC9512"/>
<stop offset="0.68" stop-color="#FED319"/>
<stop offset="1" stop-color="#FFEB1C"/>
</linearGradient>
<linearGradient id="paint6_linear_169_710" x1="87.5775" y1="56.8731" x2="92.8482" y2="56.7154" gradientUnits="userSpaceOnUse">
<stop stop-color="#FC9512"/>
<stop offset="0.68" stop-color="#FED319"/>
<stop offset="1" stop-color="#FFEB1C"/>
</linearGradient>
<linearGradient id="paint7_linear_169_710" x1="51.687" y1="35.1114" x2="48.5687" y2="36.752" gradientUnits="userSpaceOnUse">
<stop stop-color="#FC9512"/>
<stop offset="0.68" stop-color="#FED319"/>
<stop offset="1" stop-color="#FFEB1C"/>
</linearGradient>
<linearGradient id="paint8_linear_169_710" x1="50.1841" y1="72.3661" x2="49.72" y2="75.6375" gradientUnits="userSpaceOnUse">
<stop stop-color="#FF3EB9"/>
<stop offset="0.04" stop-color="#FF43BB"/>
<stop offset="0.7" stop-color="#FF97E2"/>
<stop offset="1" stop-color="#FFB9F2"/>
</linearGradient>
<linearGradient id="paint9_linear_169_710" x1="55.838" y1="163.361" x2="54.3114" y2="161.65" gradientUnits="userSpaceOnUse">
<stop stop-color="#FF3EB9"/>
<stop offset="0.04" stop-color="#FF43BB"/>
<stop offset="0.7" stop-color="#FF97E2"/>
<stop offset="1" stop-color="#FFB9F2"/>
</linearGradient>
<linearGradient id="paint10_linear_169_710" x1="51.8728" y1="83.9101" x2="51.9308" y2="78.4394" gradientUnits="userSpaceOnUse">
<stop stop-color="#FF3EB9"/>
<stop offset="0.04" stop-color="#FF43BB"/>
<stop offset="0.7" stop-color="#FF97E2"/>
<stop offset="1" stop-color="#FFB9F2"/>
</linearGradient>
<linearGradient id="paint11_linear_169_710" x1="5.11649" y1="85.5913" x2="5.89787" y2="87.9644" gradientUnits="userSpaceOnUse">
<stop stop-color="#FF3EB9"/>
<stop offset="0.04" stop-color="#FF43BB"/>
<stop offset="0.7" stop-color="#FF97E2"/>
<stop offset="1" stop-color="#FFB9F2"/>
</linearGradient>
<linearGradient id="paint12_linear_169_710" x1="57.8562" y1="111.109" x2="56.428" y2="113.671" gradientUnits="userSpaceOnUse">
<stop stop-color="#FF3EB9"/>
<stop offset="0.04" stop-color="#FF43BB"/>
<stop offset="0.7" stop-color="#FF97E2"/>
<stop offset="1" stop-color="#FFB9F2"/>
</linearGradient>
<linearGradient id="paint13_linear_169_710" x1="100.353" y1="43.722" x2="102.12" y2="46.8972" gradientUnits="userSpaceOnUse">
<stop stop-color="#00EE98"/>
<stop offset="0.28" stop-color="#00D685"/>
<stop offset="0.87" stop-color="#009854"/>
<stop offset="1" stop-color="#008A49"/>
</linearGradient>
<linearGradient id="paint14_linear_169_710" x1="50.2954" y1="122.561" x2="50.4492" y2="120.211" gradientUnits="userSpaceOnUse">
<stop stop-color="#00EE98"/>
<stop offset="0.28" stop-color="#00D685"/>
<stop offset="0.87" stop-color="#009854"/>
<stop offset="1" stop-color="#008A49"/>
</linearGradient>
<linearGradient id="paint15_linear_169_710" x1="83.7418" y1="145.755" x2="85.4115" y2="148.584" gradientUnits="userSpaceOnUse">
<stop stop-color="#00EE98"/>
<stop offset="0.28" stop-color="#00D685"/>
<stop offset="0.87" stop-color="#009854"/>
<stop offset="1" stop-color="#008A49"/>
</linearGradient>
<linearGradient id="paint16_linear_169_710" x1="72.2699" y1="112.377" x2="70.6603" y2="113.182" gradientUnits="userSpaceOnUse">
<stop stop-color="#00EE98"/>
<stop offset="0.28" stop-color="#00D685"/>
<stop offset="0.87" stop-color="#009854"/>
<stop offset="1" stop-color="#008A49"/>
</linearGradient>
<linearGradient id="paint17_linear_169_710" x1="99.5636" y1="164.646" x2="96.6389" y2="166.676" gradientUnits="userSpaceOnUse">
<stop stop-color="#00EE98"/>
<stop offset="0.28" stop-color="#00D685"/>
<stop offset="0.87" stop-color="#009854"/>
<stop offset="1" stop-color="#008A49"/>
</linearGradient>
<linearGradient id="paint18_linear_169_710" x1="84.9466" y1="100.24" x2="84.056" y2="102.911" gradientUnits="userSpaceOnUse">
<stop stop-color="#00EE98"/>
<stop offset="0.28" stop-color="#00D685"/>
<stop offset="0.87" stop-color="#009854"/>
<stop offset="1" stop-color="#008A49"/>
</linearGradient>
<linearGradient id="paint19_linear_169_710" x1="112.87" y1="74.8297" x2="113.29" y2="77.4415" gradientUnits="userSpaceOnUse">
<stop stop-color="#00EE98"/>
<stop offset="0.28" stop-color="#00D685"/>
<stop offset="0.87" stop-color="#009854"/>
<stop offset="1" stop-color="#008A49"/>
</linearGradient>
<linearGradient id="paint20_linear_169_710" x1="101" y1="57.7988" x2="110.756" y2="57.7988" gradientUnits="userSpaceOnUse">
<stop stop-color="#4D8EFF"/>
<stop offset="0.43" stop-color="#3E76FF"/>
<stop offset="1" stop-color="#2850FF"/>
</linearGradient>
<linearGradient id="paint21_linear_169_710" x1="100.506" y1="86.9573" x2="117.31" y2="83.7315" gradientUnits="userSpaceOnUse">
<stop stop-color="#4D8EFF"/>
<stop offset="0.43" stop-color="#3E76FF"/>
<stop offset="1" stop-color="#2850FF"/>
</linearGradient>
<linearGradient id="paint22_linear_169_710" x1="98.4935" y1="71.8546" x2="120.638" y2="63.1904" gradientUnits="userSpaceOnUse">
<stop stop-color="#4D8EFF"/>
<stop offset="0.43" stop-color="#3E76FF"/>
<stop offset="1" stop-color="#2850FF"/>
</linearGradient>
<linearGradient id="paint23_linear_169_710" x1="104.954" y1="77.6064" x2="109.591" y2="77.6064" gradientUnits="userSpaceOnUse">
<stop stop-color="#4D8EFF"/>
<stop offset="0.43" stop-color="#3E76FF"/>
<stop offset="1" stop-color="#2850FF"/>
</linearGradient>
<linearGradient id="paint24_linear_169_710" x1="103.518" y1="94.8852" x2="115.145" y2="95.9919" gradientUnits="userSpaceOnUse">
<stop stop-color="#4D8EFF"/>
<stop offset="0.43" stop-color="#3E76FF"/>
<stop offset="1" stop-color="#2850FF"/>
</linearGradient>
<linearGradient id="paint25_linear_169_710" x1="43.3648" y1="8.21007" x2="61.4639" y2="8.21007" gradientUnits="userSpaceOnUse">
<stop stop-color="#FF5C5C"/>
<stop offset="0.3" stop-color="#F34444"/>
<stop offset="0.93" stop-color="#D60606"/>
<stop offset="1" stop-color="#D30000"/>
</linearGradient>
<linearGradient id="paint26_linear_169_710" x1="48.5662" y1="69.1265" x2="68.4062" y2="73.047" gradientUnits="userSpaceOnUse">
<stop stop-color="#FF5C5C"/>
<stop offset="0.3" stop-color="#F34444"/>
<stop offset="0.93" stop-color="#D60606"/>
<stop offset="1" stop-color="#D30000"/>
</linearGradient>
<linearGradient id="paint27_linear_169_710" x1="44.1532" y1="19.6783" x2="75.6187" y2="27.884" gradientUnits="userSpaceOnUse">
<stop stop-color="#FF5C5C"/>
<stop offset="0.3" stop-color="#F34444"/>
<stop offset="0.93" stop-color="#D60606"/>
<stop offset="1" stop-color="#D30000"/>
</linearGradient>
<linearGradient id="paint28_linear_169_710" x1="47.613" y1="43.5321" x2="79.078" y2="52.8678" gradientUnits="userSpaceOnUse">
<stop stop-color="#FF5C5C"/>
<stop offset="0.3" stop-color="#F34444"/>
<stop offset="0.93" stop-color="#D60606"/>
<stop offset="1" stop-color="#D30000"/>
</linearGradient>
<linearGradient id="paint29_linear_169_710" x1="50.7903" y1="58.9522" x2="62.7818" y2="58.9522" gradientUnits="userSpaceOnUse">
<stop stop-color="#FF5C5C"/>
<stop offset="0.3" stop-color="#F34444"/>
<stop offset="0.93" stop-color="#D60606"/>
<stop offset="1" stop-color="#D30000"/>
</linearGradient>
<linearGradient id="paint30_linear_169_710" x1="50.0844" y1="34.8868" x2="62.8408" y2="34.8868" gradientUnits="userSpaceOnUse">
<stop stop-color="#FF5C5C"/>
<stop offset="0.3" stop-color="#F34444"/>
<stop offset="0.93" stop-color="#D60606"/>
<stop offset="1" stop-color="#D30000"/>
</linearGradient>
<linearGradient id="paint31_linear_169_710" x1="23.9949" y1="65.2448" x2="36.2806" y2="65.2448" gradientUnits="userSpaceOnUse">
<stop stop-color="#00EE98"/>
<stop offset="0.28" stop-color="#00D685"/>
<stop offset="0.87" stop-color="#009854"/>
<stop offset="1" stop-color="#008A49"/>
</linearGradient>
<linearGradient id="paint32_linear_169_710" x1="25.9248" y1="115.093" x2="45.294" y2="119.143" gradientUnits="userSpaceOnUse">
<stop stop-color="#00EE98"/>
<stop offset="0.28" stop-color="#00D685"/>
<stop offset="0.87" stop-color="#009854"/>
<stop offset="1" stop-color="#008A49"/>
</linearGradient>
<linearGradient id="paint33_linear_169_710" x1="19.0405" y1="56.141" x2="42.8941" y2="56.4118" gradientUnits="userSpaceOnUse">
<stop stop-color="#00EE98"/>
<stop offset="0.28" stop-color="#00D685"/>
<stop offset="0.87" stop-color="#009854"/>
<stop offset="1" stop-color="#008A49"/>
</linearGradient>
<linearGradient id="paint34_linear_169_710" x1="19.2171" y1="95.2503" x2="46.4349" y2="101.478" gradientUnits="userSpaceOnUse">
<stop stop-color="#00EE98"/>
<stop offset="0.28" stop-color="#00D685"/>
<stop offset="0.87" stop-color="#009854"/>
<stop offset="1" stop-color="#008A49"/>
</linearGradient>
<linearGradient id="paint35_linear_169_710" x1="31.291" y1="109.059" x2="36.5277" y2="109.059" gradientUnits="userSpaceOnUse">
<stop stop-color="#00EE98"/>
<stop offset="0.28" stop-color="#00D685"/>
<stop offset="0.87" stop-color="#009854"/>
<stop offset="1" stop-color="#008A49"/>
</linearGradient>
<linearGradient id="paint36_linear_169_710" x1="27.1486" y1="87.6402" x2="39.399" y2="87.6402" gradientUnits="userSpaceOnUse">
<stop stop-color="#00EE98"/>
<stop offset="0.28" stop-color="#00D685"/>
<stop offset="0.87" stop-color="#009854"/>
<stop offset="1" stop-color="#008A49"/>
</linearGradient>
<linearGradient id="paint37_linear_169_710" x1="14.8747" y1="72.9961" x2="50.8835" y2="79.1418" gradientUnits="userSpaceOnUse">
<stop stop-color="#00EE98"/>
<stop offset="0.28" stop-color="#00D685"/>
<stop offset="0.87" stop-color="#009854"/>
<stop offset="1" stop-color="#008A49"/>
</linearGradient>
<linearGradient id="paint38_linear_169_710" x1="128.367" y1="94.341" x2="131.843" y2="91.3377" gradientUnits="userSpaceOnUse">
<stop stop-color="#4D8EFF"/>
<stop offset="0.43" stop-color="#3E76FF"/>
<stop offset="1" stop-color="#2850FF"/>
</linearGradient>
<linearGradient id="paint39_linear_169_710" x1="127.136" y1="176.113" x2="124.031" y2="170.959" gradientUnits="userSpaceOnUse">
<stop stop-color="#4D8EFF"/>
<stop offset="0.43" stop-color="#3E76FF"/>
<stop offset="1" stop-color="#2850FF"/>
</linearGradient>
<linearGradient id="paint40_linear_169_710" x1="151.812" y1="131.941" x2="149.009" y2="130.42" gradientUnits="userSpaceOnUse">
<stop stop-color="#FC9512"/>
<stop offset="0.68" stop-color="#FED319"/>
<stop offset="1" stop-color="#FFEB1C"/>
</linearGradient>
<clipPath id="clip0_169_710">
<rect width="129" height="167" fill="white"/>
</clipPath>
</defs>
</svg>
