<svg width="20" height="22" viewBox="0 0 20 22" fill="none" xmlns="http://www.w3.org/2000/svg">
<path d="M18.7402 1.15729L18.74 1.15715C18.6136 1.04852 18.4598 0.979148 18.2965 0.957369C18.1331 0.935588 17.9672 0.962333 17.8181 1.03437L17.818 1.03442L1.6669 8.88239C1.22837 9.09547 0.95 9.54023 0.95 10.0278C0.95 10.5429 1.26033 11.0073 1.73626 11.2044L8.03923 13.8143L12.2294 20.4879C12.4491 20.8377 12.8331 21.05 13.2461 21.05C13.7947 21.05 14.2736 20.678 14.4092 20.1464L19.0219 2.07023L19.0219 2.07011C19.0633 1.90611 19.0589 1.73331 19.0091 1.57179C18.9593 1.41026 18.8661 1.26647 18.7402 1.15729ZM14.3096 5.54418L8.28527 12.3745L2.58925 10.0159L17.397 2.82045L13.1757 19.3645L9.3578 13.2839L15.334 6.50777L15.366 6.47154L15.3309 6.43836L14.3814 5.54092L14.3438 5.50537L14.3096 5.54418Z" fill="#333333"/>
<path d="M18.7402 1.15729L18.74 1.15715C18.6136 1.04852 18.4598 0.979148 18.2965 0.957369C18.1331 0.935588 17.9672 0.962333 17.8181 1.03437L17.818 1.03442L1.6669 8.88239C1.22837 9.09547 0.95 9.54023 0.95 10.0278C0.95 10.5429 1.26033 11.0073 1.73626 11.2044L8.03923 13.8143L12.2294 20.4879C12.4491 20.8377 12.8331 21.05 13.2461 21.05C13.7947 21.05 14.2736 20.678 14.4092 20.1464L19.0219 2.07023L19.0219 2.07011C19.0633 1.90611 19.0589 1.73331 19.0091 1.57179C18.9593 1.41026 18.8661 1.26647 18.7402 1.15729ZM14.3096 5.54418L8.28527 12.3745L2.58925 10.0159L17.397 2.82045L13.1757 19.3645L9.3578 13.2839L15.334 6.50777L15.366 6.47154L15.3309 6.43836L14.3814 5.54092L14.3438 5.50537L14.3096 5.54418Z" fill="black" fill-opacity="0.2"/>
<path d="M18.7402 1.15729L18.74 1.15715C18.6136 1.04852 18.4598 0.979148 18.2965 0.957369C18.1331 0.935588 17.9672 0.962333 17.8181 1.03437L17.818 1.03442L1.6669 8.88239C1.22837 9.09547 0.95 9.54023 0.95 10.0278C0.95 10.5429 1.26033 11.0073 1.73626 11.2044L8.03923 13.8143L12.2294 20.4879C12.4491 20.8377 12.8331 21.05 13.2461 21.05C13.7947 21.05 14.2736 20.678 14.4092 20.1464L19.0219 2.07023L19.0219 2.07011C19.0633 1.90611 19.0589 1.73331 19.0091 1.57179C18.9593 1.41026 18.8661 1.26647 18.7402 1.15729ZM14.3096 5.54418L8.28527 12.3745L2.58925 10.0159L17.397 2.82045L13.1757 19.3645L9.3578 13.2839L15.334 6.50777L15.366 6.47154L15.3309 6.43836L14.3814 5.54092L14.3438 5.50537L14.3096 5.54418Z" stroke="#333333" stroke-width="0.1"/>
<path d="M18.7402 1.15729L18.74 1.15715C18.6136 1.04852 18.4598 0.979148 18.2965 0.957369C18.1331 0.935588 17.9672 0.962333 17.8181 1.03437L17.818 1.03442L1.6669 8.88239C1.22837 9.09547 0.95 9.54023 0.95 10.0278C0.95 10.5429 1.26033 11.0073 1.73626 11.2044L8.03923 13.8143L12.2294 20.4879C12.4491 20.8377 12.8331 21.05 13.2461 21.05C13.7947 21.05 14.2736 20.678 14.4092 20.1464L19.0219 2.07023L19.0219 2.07011C19.0633 1.90611 19.0589 1.73331 19.0091 1.57179C18.9593 1.41026 18.8661 1.26647 18.7402 1.15729ZM14.3096 5.54418L8.28527 12.3745L2.58925 10.0159L17.397 2.82045L13.1757 19.3645L9.3578 13.2839L15.334 6.50777L15.366 6.47154L15.3309 6.43836L14.3814 5.54092L14.3438 5.50537L14.3096 5.54418Z" stroke="black" stroke-opacity="0.2" stroke-width="0.1"/>
</svg>
