<svg width="16" height="18" viewBox="0 0 16 18" fill="none" xmlns="http://www.w3.org/2000/svg">
<path fill-rule="evenodd" clip-rule="evenodd" d="M3.75 4.5C3.75 3.94188 3.85993 3.38923 4.07351 2.8736C4.28709 2.35796 4.60015 1.88945 4.9948 1.4948C5.38944 1.10015 5.85796 0.787094 6.3736 0.573512C6.88923 0.359929 7.44188 0.25 8 0.25C8.55812 0.25 9.11077 0.359929 9.6264 0.573512C10.142 0.787094 10.6106 1.10015 11.0052 1.4948C11.3999 1.88945 11.7129 2.35796 11.9265 2.8736C12.1401 3.38923 12.25 3.94188 12.25 4.5C12.25 5.62717 11.8022 6.70817 11.0052 7.5052C10.2082 8.30223 9.12717 8.75 8 8.75C6.87283 8.75 5.79183 8.30223 4.9948 7.5052C4.19777 6.70817 3.75 5.62717 3.75 4.5ZM8 1.75C7.27065 1.75 6.57118 2.03973 6.05546 2.55546C5.53973 3.07118 5.25 3.77065 5.25 4.5C5.25 5.22935 5.53973 5.92882 6.05546 6.44454C6.57118 6.96027 7.27065 7.25 8 7.25C8.72935 7.25 9.42882 6.96027 9.94454 6.44454C10.4603 5.92882 10.75 5.22935 10.75 4.5C10.75 3.77065 10.4603 3.07118 9.94454 2.55546C9.42882 2.03973 8.72935 1.75 8 1.75ZM4 11.75C3.40326 11.75 2.83097 11.9871 2.40901 12.409C1.98705 12.831 1.75 13.4033 1.75 14V15.188C1.75 15.206 1.763 15.222 1.781 15.225C5.9 15.897 10.101 15.897 14.219 15.225C14.2277 15.2236 14.2357 15.219 14.2414 15.2123C14.2471 15.2055 14.2501 15.1969 14.25 15.188V14C14.25 13.4033 14.0129 12.831 13.591 12.409C13.169 11.9871 12.5967 11.75 12 11.75H11.66C11.6332 11.7498 11.6065 11.7538 11.581 11.762L10.716 12.045C8.95117 12.6212 7.04883 12.6212 5.284 12.045L4.418 11.762C4.39311 11.754 4.36713 11.75 4.341 11.75H4ZM0.25 14C0.25 13.0054 0.645088 12.0516 1.34835 11.3483C2.05161 10.6451 3.00544 10.25 4 10.25H4.34C4.525 10.25 4.709 10.28 4.884 10.336L5.75 10.619C7.21204 11.0962 8.78796 11.0962 10.25 10.619L11.116 10.336C11.291 10.279 11.475 10.25 11.659 10.25H12C12.9946 10.25 13.9484 10.6451 14.6517 11.3483C15.3549 12.0516 15.75 13.0054 15.75 14V15.188C15.75 15.942 15.204 16.584 14.46 16.705C10.1817 17.4034 5.81835 17.4034 1.54 16.705C1.17992 16.6464 0.852441 16.4616 0.616109 16.1837C0.379777 15.9057 0.250006 15.5528 0.25 15.188V14Z" fill="#828282"/>
</svg>
