<svg width="24" height="24" viewBox="0 0 24 24" fill="none" xmlns="http://www.w3.org/2000/svg">
<path d="M12 12C11.0375 12 10.25 11.19 10.25 10.2C10.25 9.21 11.0375 8.4 12 8.4C12.9625 8.4 13.75 9.21 13.75 10.2C13.75 11.19 12.9625 12 12 12ZM17.25 10.38C17.25 7.113 14.9312 4.8 12 4.8C9.06875 4.8 6.75 7.113 6.75 10.38C6.75 12.486 8.45625 15.276 12 18.606C15.5438 15.276 17.25 12.486 17.25 10.38ZM12 3C15.675 3 19 5.898 19 10.38C19 13.368 16.6637 16.905 12 21C7.33625 16.905 5 13.368 5 10.38C5 5.898 8.325 3 12 3Z" fill="currentColor"/>
<path fill-rule="evenodd" clip-rule="evenodd" d="M12 3.05001C8.35241 3.05001 5.05001 5.92584 5.05001 10.38C5.05001 11.8609 5.62903 13.4826 6.79285 15.2474C7.95107 17.0036 9.68658 18.8986 12 20.9334C14.3134 18.8986 16.049 17.0036 17.2072 15.2474C18.371 13.4826 18.95 11.8609 18.95 10.38C18.95 5.92584 15.6476 3.05001 12 3.05001ZM4.95001 10.38C4.95001 5.87018 8.29761 2.95001 12 2.95001C15.7024 2.95001 19.05 5.87018 19.05 10.38C19.05 11.8871 18.4609 13.5279 17.2907 15.3024C16.1203 17.0771 14.3668 18.9884 12.033 21.0376L12 21.0666L11.967 21.0376C9.6332 18.9884 7.87971 17.0771 6.70937 15.3024C5.53912 13.5279 4.95001 11.8871 4.95001 10.38ZM6.70001 10.38C6.70001 7.0874 9.03919 4.75001 12 4.75001C14.9608 4.75001 17.3 7.0874 17.3 10.38C17.3 11.4461 16.8684 12.6795 15.9962 14.0607C15.1237 15.4424 13.808 16.9757 12.0343 18.6425L12 18.6746L11.9658 18.6425C10.192 16.9757 8.87634 15.4424 8.00383 14.0607C7.13161 12.6795 6.70001 11.4461 6.70001 10.38ZM12 4.85001C9.09833 4.85001 6.80001 7.13863 6.80001 10.38C6.80001 11.42 7.22154 12.6346 8.08838 14.0073C8.94933 15.3707 10.2474 16.8866 12 18.5374C13.7526 16.8866 15.0507 15.3707 15.9116 14.0073C16.7785 12.6346 17.2 11.42 17.2 10.38C17.2 7.13863 14.9017 4.85001 12 4.85001ZM12 8.45001C11.0664 8.45001 10.3 9.23629 10.3 10.2C10.3 11.1637 11.0664 11.95 12 11.95C12.9336 11.95 13.7 11.1637 13.7 10.2C13.7 9.23629 12.9336 8.45001 12 8.45001ZM10.2 10.2C10.2 9.18374 11.0086 8.35001 12 8.35001C12.9914 8.35001 13.8 9.18374 13.8 10.2C13.8 11.2163 12.9914 12.05 12 12.05C11.0086 12.05 10.2 11.2163 10.2 10.2Z" fill="currentColor"/>
</svg>
